<?xml version="1.0" encoding="UTF-8" standalone="no"?>
<svg width="2310px" height="2457px" viewBox="0 0 2310 2457" version="1.1" xmlns="http://www.w3.org/2000/svg" xmlns:xlink="http://www.w3.org/1999/xlink" xmlns:sketch="http://www.bohemiancoding.com/sketch/ns">
    <!-- Generator: Sketch 3.0.4 (8054) - http://www.bohemiancoding.com/sketch -->
    <title>Slice 2</title>
    <desc>Created with Sketch.</desc>
    <defs></defs>
    <g id="Page-1" stroke="none" stroke-width="1" fill="none" fill-rule="evenodd" sketch:type="MSPage">
        <g id="Group" sketch:type="MSLayerGroup" transform="translate(1155.150000, 1228.550000) scale(1, -1) translate(-1155.150000, -1228.550000) translate(0.300000, 0.100000)" fill="#000000">
            <path d="M1023.3,2455.9 C996.8,2452.5 973.4,2444.7 960.2,2434.8 C950.3,2427.4 945.8,2419.3 945.8,2408.5 C945.7,2395.4 951.3,2389.1 982.1,2367.7 C994.2,2359.3 1004.1,2351.6 1009.2,2346.5 C1035.3,2320.6 1050.7,2279 1057.7,2215.9 C1061.1,2184.2 1061.8,2168.2 1062.4,2107.5 C1062.9,2046.7 1062.7,2041.8 1058.7,2023.4 L1057.6,2018.3 L1052,2017.1 C1048.9,2016.5 1043.6,2016 1040.2,2016 C1036.8,2016 1000.8,2011.1 960.1,2005 C890.2,1994.6 881.8,1993.6 805.2,1986.1 C672.8,1973 640.6,1971.1 614.1,1974.5 C578.6,1979.2 546.5,1990.3 507.7,2011.3 C469.5,2032 447.2,2042 439.4,2042 C430.5,2042 419.8,2032.9 414.2,2020.7 C402.7,1995.7 406.8,1965.8 426.2,1933 C434.1,1919.7 439.7,1912.9 454.1,1898.6 C492.2,1861.1 531.5,1831.3 561.2,1817.4 C576.6,1810.2 585.7,1807.8 598.7,1807.3 C612.3,1806.7 622.7,1808.6 670.2,1820.1 C743.5,1837.9 731.2,1835.6 868.7,1856.4 C975.5,1872.6 1049.8,1883 1058.5,1883 C1060.1,1883 1060.1,1876.3 1059.1,1753.3 C1058.4,1681.9 1057.9,1610.9 1057.8,1595.5 L1057.7,1567.4 L1042.5,1564.2 C1022.8,1560.1 1019.1,1559.6 989.2,1556.5 C975.5,1555.1 906.8,1546.7 836.7,1538 C718.2,1523.2 693.9,1520.5 491.7,1499.9 C301.2,1480.5 271.5,1477.6 252.7,1477.3 C227.4,1476.7 214.5,1478.1 192.6,1483.6 C168.4,1489.7 157.4,1494.1 131.3,1508.2 C74.3,1539.1 41.3,1554 29.8,1554 C14,1554 3.8,1539.4 0.7,1512 C-3.8,1473.4 12.9,1434.6 50.1,1397.4 C86.5,1361.1 139.3,1329.1 194.2,1310 C217.5,1302 231,1298.9 245.7,1298.3 C257.3,1297.8 259.5,1298.1 275.7,1301.4 C294.7,1305.3 328.4,1313.6 360.7,1322.4 C417.1,1337.7 527.9,1359.7 605.7,1370.9 C651.7,1377.6 747.8,1390 753.2,1390 C756.7,1390 775.8,1380.4 785.2,1373.9 C814.4,1353.7 832.6,1317.3 842.2,1259.6 C852.7,1196.4 852,1115.5 840.1,994 C822.9,818.6 789.2,661 741.8,534.7 C704.3,434.8 652.5,332.7 599.1,253.4 C567.3,206.1 542.9,176.7 520,157.9 C498.3,140.1 484.9,128.1 479.6,121.7 C475.4,116.8 474.7,115.3 474.7,111.6 C474.7,101.5 486.7,97.1 509.3,99.1 C531.8,101 550.2,106.7 576.2,119.5 C682.7,172 794.2,314.4 874.9,501 C923.6,613.7 960.9,738.7 986.8,875.9 C993.1,909.5 997.4,944.6 1021.6,1160 C1037.4,1300.1 1037,1296.4 1036.4,1307 C1035.7,1317.5 1032.3,1331 1028,1339.3 C1017.8,1359.5 998.6,1377.7 956.7,1407 L937.4,1420.4 L1039.2,1433.6 C1132.5,1445.7 1144.4,1447.1 1180.6,1449.5 L1220.2,1452.2 L1223.6,1448.3 C1236.1,1434 1253,1409.6 1262.2,1392.6 C1288.2,1344 1301.2,1285.1 1304.2,1202 C1304.5,1192.4 1305.5,1070 1306.2,930 L1307.6,675.5 L1303.7,559.5 C1301.6,495.7 1299.3,437.5 1298.7,430.1 C1297.4,413.8 1294,393.8 1288.1,367.5 C1278.7,325.5 1270.5,314.9 1248.3,316.2 C1230.5,317.3 1199.1,330 1108.3,372.9 C1068.3,391.9 1067.9,392 1061.6,387.7 C1054.2,382.8 1051.1,374.7 1052.6,364.8 C1054.9,350.3 1065.5,335 1116.2,273 C1171.5,205.4 1219.8,126.7 1245,62.9 C1253.6,41.2 1256.6,36.1 1265.6,27.8 C1271.1,22.7 1288.1,11.4 1302.7,3.2 L1308.3,0 L1321.6,3.5 C1347.4,10.4 1361.1,17.6 1376.5,32.4 C1391.9,47.3 1404.8,66.3 1419.2,95.5 C1429.1,115.7 1434.7,129.7 1439.6,146.6 C1455.3,200.7 1471.3,297.8 1473.3,351.5 C1473.7,362.2 1472.3,401.4 1468.3,489.5 C1458.3,709.5 1456.3,770.4 1455.1,882 C1454,986.2 1456.4,1052.1 1465.2,1160 C1467.1,1183.4 1469.3,1212.2 1470.2,1224 C1471.3,1239.5 1472.9,1252.8 1476.2,1271.5 C1486.3,1329.8 1486.1,1327.8 1486.1,1343 C1486.2,1355.4 1485.8,1358.7 1483.8,1365.9 C1474.8,1397.4 1446.7,1431.7 1402,1465.8 L1392.7,1472.8 L1398.5,1473.4 C1401.6,1473.7 1462,1478.5 1532.7,1484.1 C1659.3,1494 1663,1494.2 1780.2,1499.5 L1899.2,1504.9 L2024.2,1498.4 C2175,1490.7 2182.4,1490.4 2204.2,1491.9 C2266.9,1496.1 2300.3,1512.3 2308.3,1542.5 C2310.4,1550.2 2310.1,1565.6 2307.7,1573.1 C2301.6,1592.7 2279.7,1612.6 2227.7,1645.7 C2181.6,1675 2145.3,1689.9 2113.2,1692.5 C2105.5,1693.1 2102.9,1692.7 2045.7,1680.1 C1972.2,1664.1 1934.3,1656.2 1903.2,1650.5 C1879.7,1646.1 1874.1,1645.6 1633.4,1624 C1498.1,1611.8 1348.5,1597.9 1300.9,1593.1 C1253.2,1588.3 1214,1584.5 1213.8,1584.7 C1213.5,1584.9 1214.5,1620 1216,1662.8 C1218,1720.3 1220,1760.8 1223.7,1818.5 C1226.5,1861.4 1229,1898 1229.3,1899.8 C1230,1904.6 1235,1909.6 1241.2,1911.9 C1254.4,1916.8 1261.8,1917.6 1435.2,1932.4 L1581.2,1944.9 L1701.2,1946.4 C1804.6,1947.6 1822.1,1948.1 1827.6,1949.4 C1848.4,1954.6 1866.3,1972.7 1871.2,1993.1 C1873.1,2001.5 1873.1,2017.6 1871.1,2025.3 C1867.8,2038 1857.3,2054 1845.8,2063.8 C1820.8,2085 1778.9,2102.8 1730.4,2112.9 C1706.5,2117.9 1695.3,2119.1 1686.9,2117.5 C1680.3,2116.2 1653.5,2109 1635.2,2103.6 C1616.6,2098.1 1569.6,2089.1 1538.2,2085 C1529.4,2083.8 1462.9,2074.4 1390.3,2063.9 C1293.5,2050 1256,2045 1249.1,2045 L1239.7,2045 L1240.2,2055.8 C1240.5,2061.7 1241.2,2078.7 1241.7,2093.5 C1243.6,2143.3 1246.1,2176.3 1250.3,2206 C1252.3,2220.2 1254.2,2228.7 1260.7,2251 C1272.9,2293.5 1274,2298.1 1273.8,2308.5 C1273.7,2323.6 1268.8,2338.2 1260.1,2350.2 C1245.2,2370.5 1194.9,2405.1 1143.2,2430.5 C1115.2,2444.2 1093.6,2451.8 1072.3,2455.5 C1062.5,2457.2 1035.1,2457.4 1023.3,2455.9 L1023.3,2455.9 Z" id="Shape" sketch:type="MSShapeGroup"></path>
            <path d="M1654.9,1158 C1651.5,1152.5 1650.8,1150.6 1651.3,1148.3 C1653.6,1138.9 1663.4,1126.7 1682.6,1109.7 C1689.8,1103.3 1697.8,1095.6 1700.5,1092.8 C1715.9,1075.7 1769.2,1005.8 1789.9,975.5 C1806.9,950.7 1865,847.8 1889.1,800 C1924.3,730.2 1942.5,684.8 2001.2,520.5 C2009.9,496.3 2018.7,472.9 2020.9,468.5 C2026.9,456.5 2035.2,444.6 2044.6,434.8 C2059,419.6 2072.9,410.6 2090.2,405.4 C2098.2,403 2100.9,402.7 2114.2,402.6 C2131.2,402.5 2139.1,404.1 2151.6,410.4 C2190.2,429.9 2214.2,482.4 2211.3,541 C2208.1,604.3 2185.3,662 2131.2,743 C2089.1,806.1 2038.3,867.8 1963.2,947 C1910,1003 1877.4,1033 1818.3,1080.2 C1756.7,1129.4 1710.5,1155.4 1670.9,1163 C1665.3,1164.1 1660.3,1165 1659.9,1165 C1659.5,1164.9 1657.3,1161.8 1654.9,1158 L1654.9,1158 Z" id="Shape" sketch:type="MSShapeGroup"></path>
            <path d="M334.9,1099.5 C327.6,1097.4 324.1,1095.5 319.2,1090.6 C314.6,1086 311.7,1079.1 311.7,1072.8 C311.7,1066.2 318.3,1055 340.1,1024.7 C346.7,1015.4 353.7,1005.7 355.5,1003.1 C360.3,996.4 371,974 374.7,963.2 C382.8,939.1 382.6,931 373,892.5 C357.9,832 327.6,760.6 287.9,692 C256.2,637.1 209.7,569.2 163.9,510.5 C143.2,484 134.4,474 102.7,440 C54.1,388 30.8,362 11.3,337.8 L7.6,333.1 L11.1,332.4 C13.1,332.1 22.7,332 32.5,332.2 C52.4,332.7 57.1,333.8 77.7,342.7 C95.8,350.5 134.7,370.5 147.7,378.7 C216.3,422 307.5,508 391.2,608.5 C466.9,699.3 548.7,816.9 580.7,880.9 C593.9,907.4 599.7,925 599.7,939.1 C599.7,968.8 583.5,992.4 546.7,1016.2 C520.5,1033.2 456.8,1067.5 429.2,1079.5 C411.9,1087.1 386.8,1095.4 373.2,1098 C358.6,1100.8 341.9,1101.5 334.9,1099.5 L334.9,1099.5 Z" id="Shape" sketch:type="MSShapeGroup"></path>
        </g>
    </g>
</svg>