<?xml version="1.0" encoding="UTF-8" standalone="no"?>
<svg width="2013px" height="2311px" viewBox="0 0 2013 2311" version="1.1" xmlns="http://www.w3.org/2000/svg" xmlns:xlink="http://www.w3.org/1999/xlink" xmlns:sketch="http://www.bohemiancoding.com/sketch/ns">
    <!-- Generator: Sketch 3.0.4 (8054) - http://www.bohemiancoding.com/sketch -->
    <title>Slice 2</title>
    <desc>Created with Sketch.</desc>
    <defs></defs>
    <g id="Page-1" stroke="none" stroke-width="1" fill="none" fill-rule="evenodd" sketch:type="MSPage">
        <g id="Group" sketch:type="MSLayerGroup" transform="translate(1006.100000, 1155.900000) scale(1, -1) translate(-1006.100000, -1155.900000) translate(0.100000, 0.900000)" fill="#000000">
            <path d="M709.3,2308.5 C688.3,2303.7 667.6,2289.2 660.2,2274.1 C657.7,2268.9 657.4,2267.4 657.4,2257.9 C657.5,2243.9 659,2240.9 673.5,2225.8 C686.4,2212.3 694.8,2202.1 701.2,2191.8 C712.8,2173.2 718.9,2148 717.6,2124 C715,2072.8 640.6,1902.3 557.9,1757.8 C488.8,1637.2 415,1532.6 340.2,1449.1 C331.5,1439.4 300.3,1407.1 270.9,1377.4 C205.6,1311.5 193.4,1298.4 180.9,1279.9 C176,1272.7 166.5,1255 167.2,1254.3 C167.5,1254 170.8,1254.7 174.5,1255.8 C178.3,1257 194.5,1260.8 210.4,1264.4 C226.4,1268 242.6,1271.8 246.4,1273 C267.1,1279.1 306.9,1297.3 334.9,1313.4 C414.6,1359.2 504.9,1439.7 576.2,1528.5 L588.3,1543.7 L594.4,1540.2 C605.1,1534 649.8,1512.3 672.4,1502.4 C714.3,1483.8 753.6,1468.8 773.4,1463.9 C787.5,1460.4 793.2,1461.1 834.9,1471.7 C854.4,1476.7 905.5,1490.2 948.4,1501.7 C1198.1,1569.1 1314,1596.7 1392.5,1607.4 C1412,1610.1 1441.9,1611.9 1441.9,1610.3 C1441.9,1609.9 1437.9,1601.6 1433,1591.9 C1405.2,1536.9 1386.9,1510.9 1277.9,1371.6 C1251.8,1338.2 1227.7,1307.3 1224.4,1302.9 C1218.7,1295.4 1191.7,1253.2 1190.3,1249.6 C1189.7,1248.1 1190.8,1247.9 1202.5,1247.9 C1212.4,1247.9 1217,1248.4 1223.3,1250.1 C1236,1253.5 1281,1277.2 1319.9,1300.9 C1349.5,1318.9 1367.5,1330.7 1485.4,1409.3 C1548.1,1451 1605.3,1488.9 1612.6,1493.5 C1647.8,1515.6 1681.8,1532.3 1716.3,1544.3 C1744.1,1553.9 1758.1,1566.1 1765.2,1586.7 C1771.1,1604 1769.8,1623 1761.4,1640.8 C1737.9,1690.2 1664.1,1757.2 1596.4,1790.5 C1556.1,1810.2 1535.5,1811.1 1496.4,1794.7 C1434.2,1768.7 1436.2,1769.2 1226.4,1714.9 C1096.9,1681.4 1061.2,1672.5 975.4,1652.8 C804.3,1613.4 811.6,1614.9 785.1,1614.9 C766.7,1614.9 748.6,1616.5 721.6,1620.4 C699.7,1623.6 659.5,1630.1 659.1,1630.5 C658.9,1630.6 688.6,1675 725.1,1729.1 L791.5,1827.4 L844.4,1921.4 C873.4,1973.1 898.8,2017.4 900.8,2019.9 C902.8,2022.4 911.1,2032.3 919.4,2042 C952.8,2081.2 958.9,2089.3 963.5,2101.6 C967,2110.7 967.9,2125.6 965.5,2134.9 C956.6,2170.3 910,2220.3 847.9,2261.2 C813.5,2283.8 780.9,2299.1 751.4,2306.5 C738.9,2309.7 718.6,2310.6 709.3,2308.5 L709.3,2308.5 Z" id="Shape" sketch:type="MSShapeGroup"></path>
            <path d="M796.4,1362.4 C774.2,1357.6 752,1341 742.9,1322.5 C739.2,1315.1 738.5,1312.8 738.1,1306.1 L737.7,1298.4 L742.7,1290.9 C745.4,1286.8 753.8,1276 761.4,1266.9 C777.2,1247.9 779.6,1244.6 783.1,1236.4 C801.3,1194.4 799.9,1147.1 777.8,1058.6 C746.4,933.2 684.9,783.6 605.4,639.4 C532.8,507.8 465.5,410.2 384,318.4 C369.2,301.7 314.3,246.8 297.4,231.8 C266.5,204.3 235.3,179.5 201.4,155.5 C157.2,124.1 145,115.9 85.9,77.4 C20.9,35.1 -0.1,20.5 -0.1,18 C-0.1,17.1 1,12.8 2.3,8.4 L4.6,0.4 L13.5,0.1 C30.5,-0.5 62.3,3.6 93.2,10.5 C138,20.5 193.5,39.4 238.9,60.3 C300.1,88.5 368.5,134.5 438.9,194.9 C506.9,253.2 582.4,331.2 622.2,384.2 C626.8,390.4 662,444 700.4,503.4 L770.1,611.4 L805,675.8 L839.8,740.2 L883.1,841.5 C906.9,897.3 926.6,942.9 926.9,942.9 C927.2,942.9 928.7,940.3 930.3,937.2 C934.8,927.8 948.5,902.6 958.9,884.4 C972.4,860.9 985.9,838.6 1053.1,728.9 C1104.7,644.7 1119.2,621.9 1176.2,535.9 L1240.9,438.4 L1313.4,343.4 L1386,248.4 L1463.7,158.9 C1506.4,109.7 1545.5,65.4 1550.4,60.4 C1577.4,33.1 1596.1,26.5 1657.9,22.4 C1670.8,21.6 1694.2,20 1709.9,18.9 C1840.7,9.8 1967.1,5.3 1980.4,9.3 C1990.3,12.3 1998.2,19.5 2008.8,35.2 L2012.1,40 L2005.8,46.7 C1990.7,62.9 1979.4,71 1939.4,94.2 C1901.7,116 1890.6,122.8 1795.5,182.4 L1707.8,237.4 L1657.1,280.2 C1613.1,317.4 1595.4,333.3 1523.4,400.4 C1440.4,477.6 1417.6,499.9 1389.3,530.9 C1324.3,602.2 1234.5,709.2 1181.8,777.9 C1160.1,806.1 1166,797.9 1065.5,942.3 L978,1068.1 L980.9,1075.8 C982.4,1080 989.1,1096 995.7,1111.4 C1017.1,1161.5 1021.7,1176.4 1022.6,1199.9 C1023.1,1212.6 1022.9,1215.4 1021,1222.8 C1014,1250.7 995.9,1269.3 941.9,1303.9 C897.3,1332.5 868.8,1348.2 846.9,1356.3 C828.1,1363.2 809.9,1365.4 796.4,1362.4 L796.4,1362.4 Z" id="Shape" sketch:type="MSShapeGroup"></path>
        </g>
    </g>
</svg>