<?xml version="1.0" encoding="UTF-8" standalone="no"?>
<svg width="2356px" height="2273px" viewBox="0 0 2356 2273" version="1.1" xmlns="http://www.w3.org/2000/svg" xmlns:xlink="http://www.w3.org/1999/xlink" xmlns:sketch="http://www.bohemiancoding.com/sketch/ns">
    <!-- Generator: Sketch 3.0.4 (8054) - http://www.bohemiancoding.com/sketch -->
    <title>Slice 2</title>
    <desc>Created with Sketch.</desc>
    <defs></defs>
    <g id="Page-1" stroke="none" stroke-width="1" fill="none" fill-rule="evenodd" sketch:type="MSPage">
        <g id="Group" sketch:type="MSLayerGroup" transform="translate(1178.200000, 1136.550000) scale(1, -1) translate(-1178.200000, -1136.550000) translate(0.500000, 0.300000)" fill="#000000">
            <path d="M1530.9,2271.8 C1514.9,2270.4 1495.2,2267.4 1494,2266.1 C1491.1,2263.3 1483.2,2236.3 1481.4,2223.3 C1480.5,2216.5 1480.6,2214.9 1482.1,2210.9 C1485,2203.1 1493.8,2189.4 1513.5,2161.8 C1523.9,2147.2 1535.8,2129.2 1540,2121.8 C1562.5,2081.3 1575.6,2041.2 1583.9,1986.8 C1592.2,1932.7 1595.7,1853.4 1593.9,1762.1 C1593.3,1734.4 1592.6,1711.6 1592.2,1711.2 C1591.9,1710.9 1531.9,1706.3 1458.8,1701.2 L1326,1691.8 L1061.3,1664 L796.5,1636.2 L796.5,1661.3 C796.5,1675 797.6,1738.1 799,1801.3 L801.5,1916.3 L804.7,1936.2 C807.6,1954.2 807.8,1956.6 806.7,1962.8 C802.8,1985.6 786.8,2005.3 750,2032.8 C734.6,2044.3 674.1,2084.6 655.5,2095.8 C618.8,2117.9 596.4,2125.1 569.4,2123.4 C540.6,2121.6 521.8,2109.8 513.5,2088.3 C511.6,2083.3 511.1,2080.3 511.1,2070.7 L511,2059.1 L516.7,2047.7 C522.9,2035.3 531.2,2021.8 556.5,1983.3 C584.7,1940.3 591.6,1927.8 598.5,1907 C608.5,1876.9 612.3,1840.2 616,1735.8 C618.3,1670.2 619.7,1620.7 619.4,1620.4 C619.2,1620.2 546.8,1611 458.5,1599.9 C352.2,1586.5 295,1579.7 289,1579.8 C269.2,1579.9 217.1,1585.8 204.5,1589.4 C201.5,1590.3 184.2,1596.4 166,1603 C123.7,1618.4 92,1629.1 77.7,1632.9 C63.8,1636.5 53.7,1636.7 44.4,1633.8 C36.5,1631.3 32.3,1629 16.9,1618.1 L4.6,1609.5 L2.4,1601.4 C-0.6,1591 -0.8,1574.4 1.9,1565.3 C7.7,1546 24.1,1525.5 47.7,1508 C55.8,1502 95.5,1476 139,1448.1 C182.7,1420.1 207.5,1406.5 220.4,1403.3 C237.5,1399.1 263.6,1403.8 362,1428.4 C404.6,1439.1 413.9,1440.8 517.9,1456.8 C575.6,1465.6 622.9,1472.7 623,1472.6 C623.1,1472.4 624.4,1458.8 625.8,1442.3 L628.3,1412.3 L624.4,1017.3 C620.7,641.7 620.3,614.5 616.5,463.3 C612.8,318.5 612.2,302.3 610,281.8 C607,254.4 604,220.2 602.4,197.1 C599.6,156 608.2,116.7 628.5,76.8 C646.9,40.8 672.9,11.9 695,2.9 C706.7,-1.8 722.3,-0.7 736.2,5.9 C746.6,10.8 757.6,22.4 764.2,35.3 C774.7,56 779.4,76.8 781.6,112.1 C782.2,121.6 782.3,135.5 782,143 L781.3,156.7 L783.6,157.3 C784.9,157.6 814.4,161 849,164.8 C883.7,168.7 913.1,172 914.5,172.3 C917.4,172.9 1065.7,186.7 1215,200.4 C1342.6,212 1421.5,217 1517,219.3 C1550,220.1 1580.4,220.7 1584.7,220.8 L1592.3,220.8 L1592.9,211.6 C1593.2,206.5 1593.9,193.1 1594.5,181.8 C1598.8,98.8 1615.2,53.9 1646.7,38.4 C1664.7,29.5 1683.9,29.7 1701.5,38.9 C1736.6,57.1 1762,107.3 1771,175.8 C1775.9,213.2 1775.8,229.3 1769.4,439.3 L1764.3,610.3 L1764.9,896.8 C1765.2,1054.4 1765.8,1273 1766.2,1382.6 L1766.8,1581.8 L1777.2,1581.8 C1782.8,1581.8 1815.7,1583.2 1850.2,1584.8 C1950.5,1589.7 1939.9,1589.7 2131,1585.3 L2305.1,1581.4 L2318,1583.7 C2325.2,1584.9 2331.8,1586.2 2332.7,1586.4 C2334.6,1587 2345.3,1605.5 2349.7,1615.9 C2360.3,1641.1 2356.3,1663.6 2337,1688.3 C2313.3,1718.7 2260,1751.8 2207.5,1768.6 C2186.7,1775.3 2180.8,1776.3 2164.5,1776.2 C2148.2,1776.1 2138.4,1774.6 2060,1759.8 C1988.2,1746.3 1990.7,1746.6 1880.8,1736.1 C1824.6,1730.8 1778.3,1726.7 1778,1727 C1777,1728 1785.4,2011 1786.6,2015.3 C1787.2,2017.5 1789.3,2022.9 1791.3,2027.3 C1794.6,2034.6 1794.9,2036.3 1795.4,2047.3 C1796.5,2070.4 1794.7,2082.6 1787.3,2101.3 C1782.7,2112.9 1782.9,2112.7 1753,2140.7 C1694.8,2195.2 1651.2,2230.3 1617.1,2250.2 C1584.9,2269 1562.6,2274.6 1530.9,2271.8 L1530.9,2271.8 Z M1595.2,1546.1 C1594.8,1530.8 1593.5,1422.7 1592.3,1305.8 C1591.1,1188.9 1590.1,1093.2 1590.1,1093.1 C1590,1093.1 1532.6,1090 1462.5,1086.3 L1335,1079.7 L1064.7,1053.3 C916,1038.7 793.8,1026.8 793.1,1026.8 C792.2,1026.8 791.6,1039.5 790.6,1083.9 C789.6,1129.4 789.6,1176.8 790.6,1318.1 C791.2,1415.6 792.1,1495.6 792.4,1496 C792.7,1496.3 803.1,1498 815.5,1499.8 C827.9,1501.5 863.5,1506.9 894.7,1511.9 C993.5,1527.4 984.3,1526.4 1187.4,1544.3 C1365.8,1560 1380.2,1561.2 1480.5,1567.2 C1538.5,1570.7 1588.2,1573.6 1590.9,1573.7 L1595.8,1573.8 L1595.2,1546.1 L1595.2,1546.1 Z M1598.5,851.6 C1598.5,759.5 1593.5,364.2 1592.3,363.4 C1592.2,363.3 1522.5,357.9 1437.5,351.4 C1286.5,340 1277.4,339.2 1036.9,315.8 C901.5,302.6 789.8,291.8 788.7,291.8 L786.5,291.8 L786.5,589.3 L786.5,886.8 L788.8,887.2 C790,887.5 884.6,898.3 999,911.3 L1207,935 L1386,945.8 C1484.5,951.7 1572.5,956.6 1581.8,956.7 L1598.5,956.8 L1598.5,851.6 L1598.5,851.6 Z" id="Shape" sketch:type="MSShapeGroup"></path>
        </g>
    </g>
</svg>