<?xml version="1.0" encoding="UTF-8" standalone="no"?>
<svg width="2229px" height="2267px" viewBox="0 0 2229 2267" version="1.1" xmlns="http://www.w3.org/2000/svg" xmlns:xlink="http://www.w3.org/1999/xlink" xmlns:sketch="http://www.bohemiancoding.com/sketch/ns">
    <!-- Generator: Sketch 3.0.4 (8054) - http://www.bohemiancoding.com/sketch -->
    <title>Slice 2</title>
    <desc>Created with Sketch.</desc>
    <defs></defs>
    <g id="Page-1" stroke="none" stroke-width="1" fill="none" fill-rule="evenodd" sketch:type="MSPage">
        <g id="Group" sketch:type="MSLayerGroup" transform="translate(1114.700000, 1133.100000) scale(1, -1) translate(-1114.700000, -1133.100000) translate(0.400000, 0.100000)" fill="#000000">
            <path d="M1658.5,2265 C1649.8,2264.2 1639,2261 1549.1,2232.6 L1449.4,2201.1 L1288.8,2170.6 L1128.1,2140.1 L1011.6,2123.6 C848.8,2100.7 824.7,2097.7 732.6,2089.2 C574.9,2074.6 479.9,2072.5 415.6,2082.2 C385.7,2086.7 367.1,2091.7 338.1,2103.1 C301.7,2117.3 291.3,2119.8 265.4,2120.8 C250.5,2121.3 247.6,2121.2 247.6,2120 C247.6,2119.2 248.3,2111.2 249,2102.1 L250.3,2085.5 L261,2062.1 C272.6,2036.6 280.3,2022 284.3,2017.7 C287.8,2013.9 307.4,1998.4 323.1,1987 C381.4,1944.5 429.4,1918.8 465.6,1910.5 C473.6,1908.7 479,1908.1 488.5,1908.1 C510.5,1908.1 531,1910.9 756,1945.3 C865.2,1961.9 908.3,1968.1 909.5,1967.4 C912.4,1965.6 931.6,1942.9 943.5,1927.1 C980.6,1877.9 1003.5,1831.3 1012.6,1786.4 C1014.9,1774.8 1015.4,1768.7 1023.2,1650 C1028.4,1571.4 1028.9,1561.8 1027.7,1555.4 L1026.5,1548.3 L1009.8,1545.2 C997.4,1542.8 595,1490.3 380.6,1463.1 C364.2,1461 325.5,1457.7 299.9,1456.1 C268.4,1454.3 241.5,1455 206.6,1458.6 C179.3,1461.5 169.5,1463.6 141.1,1472.6 C106.1,1483.7 96.4,1486.1 83.2,1487.1 C70.6,1488 50.3,1486.9 40.1,1484.7 C31.6,1482.9 21.5,1479.5 12,1475.2 L4.9,1471.9 L2.1,1465 C-0.5,1458.2 -0.6,1458 1.2,1455.3 C3.1,1452.4 18.9,1430.2 56.6,1377.6 C88.5,1333.1 102.4,1312.4 108,1301.3 C131.8,1253.9 150.3,1167.5 155.6,1079.6 C156.2,1069.7 157.3,979.5 158.1,879.2 L159.5,696.7 L148.7,505.7 C142.7,400.6 138.1,312.8 138.3,310.6 C140.8,285.5 152.5,248.1 166.6,220.1 C191.8,170 221.6,143.7 253.1,143.8 C265.3,143.8 271.6,146.3 280.2,154.4 C297,170 307.5,201.4 311.5,247.6 C312,253.1 314.3,459.4 316.7,706.1 C320.4,1087.9 320.8,1158.5 319.8,1180.6 C316.9,1241.3 310.3,1277.5 296.2,1309.4 L294.6,1313.1 L305.3,1313.1 C314.3,1313.1 376.5,1321.8 672.3,1364.6 C868.2,1392.9 1029.2,1416.1 1030,1416.1 C1030.8,1416.1 1031.9,1414.7 1032.5,1413 C1033.3,1410.7 1033.6,1363.9 1033.6,1251.7 L1033.6,1093.6 L1029.6,972.5 C1027.4,905.9 1021.3,750.4 1016,627 C1005.1,373.3 1004.3,340.9 1008.3,316.1 C1010.7,301 1019.2,260.1 1023.2,244.1 C1036.2,192.8 1060,160.1 1089.6,153 C1097.4,151.1 1111.8,151.4 1119.1,153.5 C1147.6,161.9 1164.8,194.6 1172.5,255.3 C1177.3,292.8 1178.1,314.7 1181.6,516.1 C1184.2,666.4 1184.3,686.8 1183.1,696.1 C1181.9,704.8 1181.7,736.4 1181.6,882.6 C1181.6,1046.8 1183.8,1295.9 1185.2,1298.3 C1185.5,1298.8 1186.1,1330.3 1186.6,1368.2 C1187,1406.1 1187.5,1437.4 1187.8,1437.6 C1188.1,1437.9 1264.5,1448.4 1357.7,1461 C1515.1,1482.3 1535.1,1484.8 1639.3,1496.1 L1751.4,1508.2 L1859.5,1513.6 L1967.7,1519 L1974.9,1517 C1978.9,1515.9 1983.8,1513.9 1985.9,1512.5 C1993.6,1507.4 1998.3,1496.6 2001.3,1476.7 C2002.8,1466.6 2003,1447.5 2003.3,1266.1 L2003.7,1066.6 L1997.1,860.6 L1990.6,654.6 L1982.1,520.5 C1977.4,446.4 1972.7,379.4 1971.6,370.7 C1962.8,301.8 1942.4,276.8 1890.4,271.2 C1876.3,269.6 1839.2,269.9 1816.6,271.6 C1800,272.9 1749.8,277.4 1711.1,281.1 C1705.1,281.6 1686.8,284.2 1670.6,286.7 C1638.6,291.6 1634.3,291.7 1626.4,287.8 C1624.1,286.6 1621.1,284 1619.8,282.1 C1617.7,279.1 1617.5,277.7 1617.9,272.1 C1619,255.6 1629.4,246 1670.6,223.1 C1714.5,198.8 1880.3,102.5 1882.3,100.2 C1885.1,97 1892.6,82.7 1900.6,65.2 C1907.6,49.9 1915.8,37.3 1925.8,26.6 C1943.3,7.9 1960.7,0 1984.6,0 C1998.4,0 2004.8,1.5 2017.1,7.6 C2056.6,27.1 2091.3,84.7 2117.1,174.1 C2120,184.3 2123.3,197.3 2124.5,203.1 C2133.7,249.3 2145.3,347.7 2150.9,426.1 C2151.2,429.1 2153.2,574 2155.5,748.1 L2159.7,1064.6 L2165.6,1191.6 L2171.5,1318.6 L2175,1332.6 C2181.2,1357.4 2194.3,1400.5 2200.7,1416.8 C2204,1425.5 2209.9,1440.5 2213.6,1450.1 C2229.2,1490.5 2231.2,1500.6 2225.9,1514.2 C2219.7,1530.2 2203.6,1551.1 2177.1,1577.7 C2114.1,1640.9 2023.5,1702.7 1986.2,1708 C1982.4,1708.6 1975.6,1708.6 1969.6,1708 C1957.4,1707 1945.9,1703.3 1906.1,1687.5 C1891.3,1681.7 1874.8,1675.8 1869.6,1674.5 C1854.6,1670.7 1803.3,1659.7 1778.1,1654.8 C1754.3,1650.2 1196.2,1570.2 1195.1,1571.3 C1193.9,1572.5 1197.7,1665.7 1199.6,1682 C1204.5,1723.7 1207.7,1762.9 1207.7,1780.1 C1207.7,1802.5 1204,1817.5 1190.9,1847.9 L1184.2,1863.6 L1118.4,1929 C1082.3,1965 1052.9,1994.7 1053.1,1995.1 C1053.3,1995.5 1055.5,1996.1 1057.8,1996.4 C1060.2,1996.8 1097.7,2003.2 1141.1,2010.6 L1220.1,2024.1 L1442.6,2052.2 L1665.1,2080.3 L1685.6,2079.2 C1696.9,2078.6 1721.6,2078.1 1740.6,2078.1 C1857,2078.1 1894.3,2089.5 1906.3,2128.7 C1907.7,2133.4 1908.1,2138 1908.1,2151.1 C1908.1,2166.4 1907.9,2168.2 1905.4,2175.6 C1895.1,2206.1 1864.5,2229.7 1814.2,2246 C1768.9,2260.8 1702.3,2268.9 1658.5,2265 L1658.5,2265 Z" id="Shape" sketch:type="MSShapeGroup"></path>
            <path d="M1332.2,1354.4 C1331.9,1352.8 1331.4,1349.8 1331,1347.6 C1330.7,1345.4 1330.2,1342.9 1330,1342 C1329.7,1340.9 1333.7,1337.2 1342.8,1330 C1392.9,1290.9 1437.5,1254.8 1468.1,1228.6 C1514.3,1189.1 1535.7,1167.7 1599.6,1096.7 C1653,1037.4 1674.9,1016.9 1696.1,1006.5 C1707.6,1000.9 1715.5,998.9 1727.5,998.8 C1739,998.6 1745.5,1000 1756.1,1005.1 C1779.6,1016.3 1789.1,1038.4 1785.7,1073.6 C1783.3,1098.6 1777.8,1117.9 1766.7,1140.6 C1754.8,1164.9 1740.2,1184.7 1717.7,1207.1 C1659.8,1264.8 1564.4,1313.3 1456.2,1340.2 C1413.7,1350.7 1370.6,1357.1 1342.1,1357.1 L1332.8,1357.1 L1332.2,1354.4 L1332.2,1354.4 Z" id="Shape" sketch:type="MSShapeGroup"></path>
            <path d="M424.1,1231.2 C421.9,1230.8 419.1,1229.8 417.8,1229 C415.2,1227.4 412,1221.2 411,1215.8 C410.4,1212.5 410.7,1211.6 413.2,1208.9 C417.8,1204 426.5,1198.2 452.6,1182.6 C483.8,1163.9 503.9,1150.5 528.8,1131.9 C566.5,1103.7 594.3,1079.5 628.7,1045.2 C655.8,1018 664.1,1008.7 694.1,971.6 C754.7,896.8 769.6,881.5 789.1,874.1 C794,872.2 797.7,871.7 809.1,871.3 C818.1,871 825.2,871.3 829,872.1 C837,873.7 848.5,879.9 858.5,887.9 L866.9,894.6 L871.2,909.6 C878.7,935.6 879.9,942.1 879.9,956.6 C879.8,975 876.8,987.8 868.1,1005.6 C838.4,1066.9 748.6,1131 621.1,1181.6 C550.2,1209.8 479,1228.9 435.6,1231.4 C431.5,1231.6 426.3,1231.5 424.1,1231.2 L424.1,1231.2 Z" id="Shape" sketch:type="MSShapeGroup"></path>
            <path d="M1352.6,904.3 C1348.9,902.3 1343.7,894.3 1343.6,890.4 C1343.6,889 1347.8,884 1356.4,875.3 C1366.9,864.6 1371.5,860.9 1382.6,853.6 C1390,848.8 1398.5,843.3 1401.4,841.3 C1413.6,833.2 1457.1,789.9 1493.1,750 C1500.8,741.5 1543,692.8 1586.9,641.9 C1630.8,590.9 1670.1,546.1 1674.2,542.2 C1705.7,512.8 1745.8,511.3 1773.2,538.6 C1782.3,547.7 1787.6,556.7 1790.2,567.7 C1792.5,577.4 1791.6,599.3 1788.2,615.7 C1775.6,676.1 1731.5,733.6 1656.8,786.9 C1598.2,828.8 1516.8,867.9 1441.4,890.6 C1397.5,903.8 1362,909.3 1352.6,904.3 L1352.6,904.3 Z" id="Shape" sketch:type="MSShapeGroup"></path>
            <path d="M450.9,824.7 C444.8,822.7 440.6,819.3 438.4,814.4 L436.5,810.1 L439.3,804.9 C443.9,796.2 454,786.7 474.6,771.3 C517.7,739.1 545.8,715 580.2,680.7 C624.5,636.3 649.9,605.1 692.6,542.1 C749.7,458 757.9,450.1 787.9,450.1 C807.8,450.1 822.8,456.9 837.5,472.6 C861.1,497.9 867.9,538.8 855,578.1 C851.5,588.7 841.9,608 834.7,618.6 C801.2,668.5 739.5,716.6 652.6,760.5 C593.4,790.4 525.4,815.9 482.9,824.1 C471.1,826.4 457.2,826.6 450.9,824.7 L450.9,824.7 Z" id="Shape" sketch:type="MSShapeGroup"></path>
        </g>
    </g>
</svg>