<?xml version="1.0" encoding="UTF-8" standalone="no"?>
<svg width="2304px" height="1323px" viewBox="0 0 2304 1323" version="1.1" xmlns="http://www.w3.org/2000/svg" xmlns:xlink="http://www.w3.org/1999/xlink" xmlns:sketch="http://www.bohemiancoding.com/sketch/ns">
    <!-- Generator: Sketch 3.0.4 (8054) - http://www.bohemiancoding.com/sketch -->
    <title>Slice 2</title>
    <desc>Created with Sketch.</desc>
    <defs></defs>
    <g id="Page-1" stroke="none" stroke-width="1" fill="none" fill-rule="evenodd" sketch:type="MSPage">
        <g id="Group" sketch:type="MSLayerGroup" transform="translate(1151.700000, 661.500000) scale(1, -1) translate(-1151.700000, -661.500000) translate(0.200000, 0.000000)" fill="#000000">
            <path d="M1591.3,1320.4 C1586.4,1319 1561.4,1312.1 1535.8,1305 C1452.6,1282 1409.9,1272.2 1370.8,1267.4 C1363.9,1266.6 1273.9,1254.7 1170.8,1241 C964.2,1213.6 809.2,1195.1 768.8,1193.1 C664.5,1187.9 639.5,1188.4 599.8,1196.1 C548.5,1206.1 500.6,1227.9 462.8,1258.5 C451.6,1267.6 441.8,1274.2 435.1,1277.3 C428.2,1280.4 415.1,1280.4 409,1277.2 C393.3,1268.9 389.4,1237.3 400,1205.1 C406.8,1184.6 422.9,1156.8 441.5,1133.5 C451.8,1120.6 476.3,1095.3 489.9,1083.4 C521.6,1055.8 556.8,1034.7 581.7,1028.4 C598.9,1024 606.3,1024.8 672.3,1038.2 C709.8,1045.8 720.2,1047.4 839.6,1063.9 L966.9,1081.6 L974.8,1070.4 C1012.1,1017.9 1027.8,968.6 1027.8,903.5 C1027.8,889.4 1026.1,854.1 1025.4,853.4 C1025.2,853.2 472,782.7 429.8,777.5 C379.1,771.2 371,770.7 335.3,771.3 C291.7,772 271.9,775.2 252.9,784.6 C242,790 237.1,794.6 209.1,825.5 C163,876.5 147.2,886.9 114.3,887.3 C98.6,887.5 93.3,886.1 85.9,879.4 C81.3,875.2 74.2,865.6 70.5,858.3 L68.8,855.1 L84.9,819.8 C102.3,781.7 109.3,765.3 113.5,753.2 C116.1,746 116.2,744.5 116.2,728 C116.2,705.6 113.6,686.6 106.1,654 C92.2,592.7 68.3,522.7 23.2,410.7 C7.5,371.6 6.5,368.6 3.8,349.8 C-0.6,319.8 -1.4,260.5 2.3,240 C6.4,217.4 13.2,202.5 24.7,191 C37.4,178.3 50.9,173 70.4,173 C91,173 105.4,181.1 121.3,201.5 C151.3,240 179.5,313.6 217.2,452 C226.1,484.7 227.3,490.8 238.3,560 C246.1,609 250.7,636 251.2,636 C251.3,636 261.3,634.4 273.4,632.5 C285.4,630.6 300.7,628.3 307.3,627.5 C322.7,625.6 349.5,625.6 364.5,627.5 C371,628.4 461.6,643.9 565.8,662 L755.3,695 L890.2,713.5 C964.4,723.7 1025.2,731.9 1025.3,731.8 C1025.4,731.6 1026.6,681.1 1028.1,619.5 L1030.7,507.5 L1023.6,354 C1016.9,208.4 1016.6,199.5 1017.7,180.5 C1018.9,158.2 1020.7,144.6 1024.3,129.2 C1032.9,93.2 1047.5,70.4 1069,59.4 C1081.7,52.9 1098.5,51.1 1110.6,54.8 C1135.6,62.6 1156.6,97 1168.2,149.3 C1171.7,164.9 1174.7,186.7 1175.4,201.2 C1175.8,208 1177.3,327.8 1178.8,467.5 L1181.7,721.5 L1184.2,736.3 C1185.5,744.5 1186.8,751.3 1187,751.4 C1187.2,751.6 1206,752.9 1228.8,754.3 C1260.4,756.4 1297.2,759.8 1383.3,769 L1496.3,780.9 L1638.4,787.5 L1780.5,794.2 L1893.9,790.1 C2002.7,786.2 2007.6,785.9 2015,783.7 C2019.2,782.5 2022.9,781.2 2023.3,780.8 C2024,780.2 2007.2,746.1 1995,723.5 C1979.6,694.9 1964,670.3 1939.7,636.3 C1926.3,617.6 1872.8,546.4 1859.8,530 C1854.8,523.7 1849.2,516 1847.3,512.9 C1843.6,506.8 1840.8,497.8 1840.8,491.7 L1840.8,487.8 L1857.1,488.2 C1873,488.6 1873.5,488.7 1885.4,492.7 C1892.1,495 1901.7,498.9 1906.7,501.5 C1911.8,504 1960.6,533.4 2015.1,566.7 C2073.6,602.4 2119.2,629.7 2126.3,633.1 C2151.7,645.2 2183,655.2 2217.3,662.1 C2247.6,668.2 2258.8,671.4 2271.6,677.6 C2280.6,682 2284.2,684.4 2289.1,689.3 C2299.3,699.5 2303.5,710.9 2302.5,725.4 C2301.8,735.6 2299.4,743.1 2291.3,759.5 C2271.4,800.2 2257.1,813.7 2144.8,897.1 C2077,947.4 2071.1,950.7 2045.8,951.7 C2032.1,952.3 2011,949.8 1996.8,946 C1970.5,939 1948.1,934.8 1904.3,929.1 C1866.1,924.1 1872.8,924.6 1793.8,920 C1738,916.7 1707.6,914.3 1617.8,906 C1536.3,898.4 1469.4,893 1349.3,884.1 C1261.3,877.6 1189.2,872.4 1189.1,872.4 C1189,872.5 1190.5,882.4 1192.3,894.5 C1199.9,945.2 1201.2,956 1201.2,972.5 C1201.3,986.4 1201,989.6 1199,996.5 C1191.6,1022 1173.1,1045.7 1129.4,1085.5 C1119.2,1094.8 1111.2,1102.7 1111.6,1103.1 C1112.7,1104.1 1315.1,1126.8 1351.8,1130 C1382.4,1132.7 1398.3,1133.3 1533.3,1137 C1685.2,1141.2 1690.1,1141.5 1707.7,1146 C1730.5,1151.8 1748.7,1164.2 1757.1,1179.7 C1765.4,1195.1 1766.1,1219.8 1758.7,1236.5 C1745.6,1266.2 1709.7,1292.2 1656.8,1310.2 C1643,1314.9 1620.5,1320.6 1612.2,1321.4 C1609,1321.8 1605,1322.3 1603.3,1322.5 C1601.7,1322.7 1596.3,1321.7 1591.3,1320.4 L1591.3,1320.4 Z" id="Shape" sketch:type="MSShapeGroup"></path>
            <path d="M1343.3,650 C1333.4,649.1 1328.7,647.7 1322.5,643.7 C1317.5,640.4 1305.4,625.7 1306.1,623.6 C1306.5,622.5 1355.5,599.7 1365.8,595.9 C1374.2,592.8 1377.9,590.5 1427.3,557.8 C1523,494.5 1543.4,479.3 1601.8,427.6 C1636.9,396.6 1649.4,387 1660.1,383.3 C1667.5,380.7 1695.4,380.7 1704.8,383.3 C1720.8,387.6 1733.1,397.1 1740.1,410.6 C1749.7,429.2 1751.4,459.7 1744.2,484.6 C1734.8,517.1 1707.6,547.8 1666.6,572.1 C1623.2,597.9 1562.5,619 1490.4,633.4 C1434.8,644.6 1367.9,652.1 1343.3,650 L1343.3,650 Z" id="Shape" sketch:type="MSShapeGroup"></path>
            <path d="M424.3,568 C419.4,567.7 413.3,566.8 410.9,566 C405.6,564.3 397.9,557.6 392.7,549.9 L388.8,544.1 L391,542.7 C392.3,541.9 410,532.6 430.3,522 C450.7,511.4 479,496.7 493.3,489.2 C536.4,466.8 562.3,448.1 650.2,376.1 C721.3,317.7 733.3,308.6 745.4,304 C753.5,300.8 773,300.1 784.3,302.4 C811.9,308.1 828.3,328.9 831.8,362.6 C834,382.8 830.5,401.7 821.3,420.5 C795.6,473 724.6,514.7 613.3,542.8 C547.3,559.5 462.9,570.8 424.3,568 L424.3,568 Z" id="Shape" sketch:type="MSShapeGroup"></path>
            <path d="M1310.6,335.9 C1300.5,335.1 1293.9,332.5 1288.5,327.2 C1284.2,323.1 1275.4,312.1 1275.9,311.5 C1276.1,311.4 1290.9,303.9 1308.8,295 C1411.5,243.7 1438.7,225.4 1561.6,124.6 C1583.8,106.4 1606.5,87.8 1612.1,83.2 C1629.2,69.3 1640.9,65 1658.3,66.6 C1682.5,68.7 1698.6,78.7 1707.7,97.2 C1714.6,111.2 1716.1,118.6 1716.2,139.5 C1716.3,155.3 1716,158.6 1713.9,166.5 C1703.3,207.2 1671.3,240.3 1615.2,268.7 C1570.7,291.2 1517.3,308.3 1450.3,321.4 C1397.2,331.7 1336.1,338.1 1310.6,335.9 L1310.6,335.9 Z" id="Shape" sketch:type="MSShapeGroup"></path>
            <path d="M407.3,264 C396.5,263.2 391.4,261.8 384.6,257.7 C379.8,254.8 367,243.5 367.8,242.8 C368.1,242.5 380.9,236.3 396.3,229.1 C430.3,213 455,200.3 476.3,188 C530.3,156.8 586.1,116.9 637.8,72.6 C696.5,22.3 715.6,7.5 728.6,2.7 C736.2,-0.2 756.9,-0.3 766.7,2.4 C789.5,8.6 804.4,25.2 811,51.7 C814.2,64.3 814.2,86.7 811,99.4 C794.5,165.4 711.8,215.6 569.5,246.1 C531.6,254.2 477.4,261.8 445.3,263.5 C422.7,264.7 417,264.7 407.3,264 L407.3,264 Z" id="Shape" sketch:type="MSShapeGroup"></path>
        </g>
    </g>
</svg>