<?xml version="1.0" encoding="UTF-8" standalone="no"?>
<svg width="1955px" height="655px" viewBox="0 0 1955 655" version="1.1" xmlns="http://www.w3.org/2000/svg" xmlns:xlink="http://www.w3.org/1999/xlink" xmlns:sketch="http://www.bohemiancoding.com/sketch/ns">
    <!-- Generator: Sketch 3.0.4 (8054) - http://www.bohemiancoding.com/sketch -->
    <title>Slice 2</title>
    <desc>Created with Sketch.</desc>
    <defs></defs>
    <g id="Page-1" stroke="none" stroke-width="1" fill="none" fill-rule="evenodd" sketch:type="MSPage">
        <g id="Group" sketch:type="MSLayerGroup" transform="translate(977.100000, 327.300000) scale(1, -1) translate(-977.100000, -327.300000) translate(0.100000, 0.300000)" fill="#000000">
            <path d="M1750.9,653.6 C1742.2,653.1 1725.5,650.6 1695.9,645.3 C1672.6,641.1 1664.6,640.1 1643.4,638.8 C1628.9,637.9 1611.9,636.2 1602.9,634.8 C1588.9,632.5 1566.4,631.2 1367.9,621.3 C1156.5,610.8 1137.9,609.7 864.9,591.8 C622.4,576 561.6,571.7 444.4,562.2 L307.4,551 L275.9,552.2 C243.2,553.3 220.2,554.7 208.7,556.2 C203.4,556.9 193.6,560.7 161.2,574.6 C118.2,593 103.7,598.7 89.9,602.5 C82.4,604.5 79.1,604.7 62.9,604.7 C47,604.7 43.3,604.4 36.6,602.5 C13.8,596.2 0.7,583.3 0.5,566.9 C0.4,561.7 1,559.6 4.4,552.9 C8.6,544.4 22.6,522.7 40.4,497.3 C48.9,485 53.6,476.9 62.9,457.8 C69.4,444.6 77.1,428.2 80.2,421.3 C93.2,391.4 92.1,395.7 115.3,285.8 C127.1,229.7 139.7,167.6 143.3,147.7 C150.2,110 154.1,94.5 161.5,75.3 C170.7,51.9 180.9,35.2 194.4,21.8 C209.2,7.1 221.1,1.4 239,0.5 C250.8,-1.40470968e-12 257.9,1.5 265.9,6 C268.4,7.5 279.4,15.4 290.3,23.6 C324.2,49 338.2,57.5 352.1,60.8 C361.3,63 839.4,110.2 934.9,118.3 C979.7,122.1 1029.7,126.4 1045.9,127.7 C1122.3,134.2 1193.2,138.5 1272.9,141.3 C1311.7,142.7 1486.3,144.5 1516.9,143.8 C1572.1,142.5 1604.8,138.5 1619,131.2 C1621.2,130.1 1627.3,126.4 1632.7,122.9 C1669.5,99.1 1683.3,93.4 1703.5,93.3 C1735.2,93.3 1761.7,113.9 1790.2,160.8 C1800.3,177.3 1804,185.3 1817.9,219.8 C1849.4,298.3 1865.9,337.3 1878.9,363.9 C1886.9,380.2 1889.8,384.8 1908.5,410.9 C1933.8,446.3 1946.2,464.8 1950.2,473.2 C1957.2,488 1954.1,517.9 1943.7,535.6 C1933.4,553.2 1918.1,566.6 1867,602.7 C1809.2,643.6 1791.6,652.3 1764.4,653.5 C1760,653.7 1753.9,653.7 1750.9,653.6 L1750.9,653.6 Z M1660.4,512.3 C1690.4,508.9 1716.7,501.2 1731,491.7 C1738.6,486.7 1741.9,482.2 1741.9,477.1 C1741.9,470 1725.9,427.3 1707.5,385.3 C1698.1,364 1667.9,303.1 1660.7,291 C1649.5,272.2 1641.3,264.9 1627.4,261.2 C1619.6,259.2 1617.1,259.1 1530.9,258.9 C1482.2,258.7 1403.5,258.2 1356,257.8 L1269.6,257 L1270.3,262.4 C1271.2,269 1286.2,329 1296.3,366.3 C1302.5,389.3 1305.3,397.8 1313.8,418.4 C1329.1,455.7 1330.3,459.7 1330.2,472.3 C1330.2,478.9 1329.4,486.5 1328.1,492.8 C1326.9,498.2 1326.1,502.8 1326.2,503 C1327.7,504.5 1364.7,506.1 1479.4,509.8 C1611.3,514.1 1641.2,514.5 1660.4,512.3 L1660.4,512.3 Z M1133.4,488.2 C1142.6,487 1150.2,484.3 1153.5,481.2 C1158.5,476.5 1156.8,462.7 1139.3,361.8 C1129.2,303.4 1124,277.4 1120.8,268.8 C1117.9,261.1 1113.6,255.7 1108.2,253 C1099.4,248.6 1092.4,247.6 1062.4,246.3 C1016.6,244.4 947.5,239.8 831.4,230.9 C804.2,228.8 787.2,227.9 786.8,228.5 C785.5,230.6 783.7,247.9 780.4,290.3 C772.6,389.8 768.2,436.5 765,455.3 C764,461.1 763.2,465.9 763.3,466 C763.6,466.3 840.9,472.5 879.9,475.3 C946.7,480 1043,486.1 1105.4,489.6 C1112.5,490 1124.1,489.4 1133.4,488.2 L1133.4,488.2 Z M602.2,448.6 C623.2,436.5 643.8,330.3 643.9,233.1 C643.9,222.8 643.5,213.3 642.9,211.9 C641.6,208.4 637.6,206.6 628.9,205.8 C614.2,204.5 356.8,174.2 325.1,170.1 C307.9,167.9 296.4,171.8 292.7,181.3 C291.2,185 250.6,422.3 251.3,423 C252.7,424.5 352.1,433.1 466.4,441.7 C528,446.4 580,450.4 581.9,450.6 C588.6,451.5 598.9,450.5 602.2,448.6 L602.2,448.6 Z" id="Shape" sketch:type="MSShapeGroup"></path>
        </g>
    </g>
</svg>