<?xml version="1.0" encoding="UTF-8" standalone="no"?>
<svg width="2434px" height="2186px" viewBox="0 0 2434 2186" version="1.1" xmlns="http://www.w3.org/2000/svg" xmlns:xlink="http://www.w3.org/1999/xlink" xmlns:sketch="http://www.bohemiancoding.com/sketch/ns">
    <!-- Generator: Sketch 3.0.4 (8054) - http://www.bohemiancoding.com/sketch -->
    <title>Slice 2</title>
    <desc>Created with Sketch.</desc>
    <defs></defs>
    <g id="Page-1" stroke="none" stroke-width="1" fill="none" fill-rule="evenodd" sketch:type="MSPage">
        <g id="Group" sketch:type="MSLayerGroup" transform="translate(1216.950000, 1093.300000) scale(1, -1) translate(-1216.950000, -1093.300000) translate(0.000000, 0.600000)" fill="#000000">
            <path d="M1081.4,2184.9 C1059.8,2182.9 1038,2169.9 1030.1,2154.2 C1024.1,2142.3 1023.5,2127.7 1028.6,2117.3 C1031.9,2110.4 1043,2099 1057.8,2087.1 C1093.2,2058.7 1108.3,2036.9 1113.5,2006.5 C1115.6,1994.5 1115.9,1983.7 1117.5,1869 C1118.5,1801.5 1118.6,1770.4 1117.9,1769.9 C1116.6,1769.1 1085.8,1763.7 1068,1761.1 C1022.3,1754.4 808.8,1732.8 682.8,1722 C631.5,1717.6 578.5,1713.1 565,1711.9 C551.5,1710.7 531.1,1709.5 519.5,1709.3 C499.1,1708.8 489.2,1709.6 462.7,1713.6 C459.4,1714.1 457.9,1715.5 448.3,1727.3 C409.4,1775.3 385.4,1799 366.2,1808.2 C360.7,1810.8 358,1811.5 350.9,1811.8 C343.7,1812.2 341.6,1811.9 337.2,1810 C330.7,1807.2 323.8,1799.8 321.6,1793.3 C318.6,1784.5 318.7,1779.5 322.9,1742.4 C325.2,1722.6 327,1701.9 327,1696.4 C327,1651.3 309.9,1572 285.7,1504.5 C279.8,1488.1 268.6,1460.4 259,1438.5 C248.4,1414.3 231,1370.1 225.5,1353.5 C214.6,1320.9 212.5,1305.3 213.3,1263.3 C213.7,1241.2 214.3,1231.4 215.8,1221.3 C225.5,1159.5 249.2,1130.5 288.5,1132.3 C323.1,1133.8 348.7,1159.4 370.9,1214.3 C380.7,1238.6 393.2,1277.7 411.9,1343 C434.8,1423.2 450.7,1490.4 459.4,1544.9 C460.8,1553.3 462,1560.3 462.2,1560.5 C462.4,1560.6 506.8,1565.8 561,1571.9 C615.2,1578 755.1,1595 872,1609.5 L1084.5,1636 L1282.5,1655.9 C1444.4,1672.3 1503.7,1677.8 1607.5,1686.4 L1734.5,1696.9 L1814,1697.9 C1931.3,1699.5 1937.9,1699.5 1954.5,1697 C1962.2,1695.9 1975.3,1694.5 1983.5,1694.1 C1999.1,1693.3 2004.2,1691.9 2008.1,1687.4 C2010.6,1684.5 2012.3,1678.3 2011.6,1674.5 C2009,1661 1976,1612 1934.3,1559.9 C1916.7,1537.9 1916.5,1537.7 1840.5,1454 C1761.2,1366.7 1743,1344.4 1743,1334.6 C1743,1326.7 1754,1320.1 1764,1322 C1772.2,1323.6 1782.8,1328 1872.9,1367.7 L1962.2,1407.2 L2040.4,1458.7 C2083.3,1487.1 2123.7,1513.6 2130,1517.5 C2154.3,1532.8 2174.1,1541 2197.2,1545.5 C2238.3,1553.5 2247.3,1555.8 2261.2,1561.9 C2284.3,1572.1 2298.2,1586.9 2303.7,1607.1 C2306.4,1617.1 2306.1,1636.4 2303.1,1646 C2294.3,1674.3 2270.2,1699.5 2180.4,1774.6 C2116.3,1828.1 2079.6,1850.3 2041.6,1858.1 C2025.4,1861.4 2009.5,1860.5 1974,1854.1 C1909.4,1842.4 1897.7,1840.8 1858,1839 C1845.6,1838.4 1832.1,1837.5 1828,1837 C1823.9,1836.4 1754.8,1830.8 1674.5,1824.5 C1520,1812.3 1536.9,1813.9 1354.8,1793 C1308.7,1787.7 1281.4,1785.2 1280.4,1786.2 C1279,1787.7 1286.6,1927.4 1289.1,1944 C1289.7,1948.1 1294,1966.6 1298.5,1985 C1310.8,2034.5 1312.4,2042.5 1311.8,2053.4 C1310.8,2070.2 1304.1,2084.1 1290.5,2097.5 C1276.7,2111.2 1260,2121.3 1219.9,2140.5 C1156.2,2171 1124,2183.1 1102,2184.6 C1097.9,2184.9 1093.4,2185.2 1092,2185.4 C1090.6,2185.5 1085.9,2185.3 1081.4,2184.9 L1081.4,2184.9 Z" id="Shape" sketch:type="MSShapeGroup"></path>
            <path d="M1233.3,1388.9 C1227.2,1388.5 1215.2,1386.7 1206.8,1385 L1191.5,1381.9 L1181.7,1372.1 L1171.9,1362.4 L1189.8,1323.9 L1207.7,1285.5 L1315.2,1097.5 C1408.9,933.6 1429.6,896.6 1477,808.5 C1524.1,720.9 1539.7,693 1594.5,598.5 L1657.7,489.5 L1739.1,364 C1818.8,241.2 1821.8,236.8 1878.3,157.5 C1910.1,113 1940,71.3 1944.8,65.1 C1974.9,25.6 2008.6,6.6 2058.5,1 C2064.1,0.4 2119.1,0 2203.7,0 C2334.3,0 2340.3,0.1 2351.2,2 C2374.7,6 2399.7,14.4 2422.5,25.7 C2428.6,28.8 2433.7,31.4 2433.9,31.6 C2434.1,31.8 2432.1,34.5 2429.4,37.7 C2410.9,59.9 2404,65.7 2374,85 C2364.4,91.1 2352.5,99.2 2347.5,102.9 C2342.6,106.6 2288.3,145.2 2227,188.5 C2165.7,231.9 2108.6,272.5 2100.1,278.8 C2009.7,346.2 1924.7,430.5 1849.7,527.2 C1830.7,551.8 1824.9,559.8 1751.5,663.5 L1685.7,756.5 L1589,911 L1492.3,1065.5 L1412.5,1205 C1368.6,1281.7 1330.2,1348.2 1327.2,1352.8 C1316.4,1369.3 1303.1,1379.5 1285.8,1384.9 C1273.6,1388.6 1251.9,1390.3 1233.3,1388.9 L1233.3,1388.9 Z" id="Shape" sketch:type="MSShapeGroup"></path>
            <path d="M686,1126.9 C662.9,1124.4 649.8,1112.4 645.5,1089.7 L644.1,1082.2 L655.1,1063.8 C675.4,1030.3 687,1003.5 690.6,981.5 C692.8,967.9 692,947.8 688.6,931.5 C677.8,879.7 643.2,808.9 585,719 C529.8,633.8 424.3,493.5 362.9,423.5 C314,367.8 250.7,305 190.1,251.8 C134.9,203.4 58.6,142.6 20.4,116.7 C16.4,114 10.3,109.4 6.6,106.3 C0.2,101 0,100.7 0,96.3 C0,87.2 6.3,82 17.3,82 C69.9,82.1 153.1,119.2 254,187.5 C329.4,238.5 421.9,312 487,372.5 C508.7,392.7 563.5,448.1 583.1,469.5 C658.7,552.5 717.4,627.7 819.9,772.9 C833,791.4 854.6,821.8 868,840.5 C911.5,901 923.3,920.2 926.1,934.7 C926.8,938.4 927.1,945.6 926.8,952.2 C926.4,961.7 925.8,964.9 923.1,971.9 C913.8,997 888.8,1025.3 850.5,1054 C812.1,1082.8 765.9,1108 728.8,1120.4 C710.1,1126.7 699,1128.3 686,1126.9 L686,1126.9 Z" id="Shape" sketch:type="MSShapeGroup"></path>
        </g>
    </g>
</svg>