<?xml version="1.0" encoding="UTF-8" standalone="no"?>
<svg width="2185px" height="1162px" viewBox="0 0 2185 1162" version="1.1" xmlns="http://www.w3.org/2000/svg" xmlns:xlink="http://www.w3.org/1999/xlink" xmlns:sketch="http://www.bohemiancoding.com/sketch/ns">
    <!-- Generator: Sketch 3.0.4 (8054) - http://www.bohemiancoding.com/sketch -->
    <title>Slice 2</title>
    <desc>Created with Sketch.</desc>
    <defs></defs>
    <g id="Page-1" stroke="none" stroke-width="1" fill="none" fill-rule="evenodd" sketch:type="MSPage">
        <g id="Group" sketch:type="MSLayerGroup" transform="translate(1092.500000, 580.600000) scale(1, -1) translate(-1092.500000, -580.600000) translate(0.000000, 0.100000)" fill="#000000">
            <path d="M902.5,1160 C876.4,1156.7 858.1,1146.6 851.4,1131.8 C847.8,1123.7 846.8,1109.5 849.4,1102.6 C852.3,1095.1 859.2,1090.5 894.9,1071.7 C916.8,1060.1 926,1054 935.6,1044.6 C956.7,1023.8 966.3,995.4 971,940.6 C972.8,919 974.2,853.5 973.5,823.4 L972.8,794.2 L968.6,793.6 C966.4,793.3 935.5,790.8 900,788.1 C842.5,783.6 815.1,780.8 648.4,762.1 C460.1,741 419.1,736.6 358.5,731.2 C300,725.9 287.6,725.1 258.6,725.1 L230.5,725.1 L214.8,743 C193.4,767.4 171.7,790.4 157.5,803.9 L145.5,815.1 L132.8,815.1 L120.1,815.1 L119.1,811.4 C113.2,788.9 113,785.2 112,720.1 C111.1,657.8 110.8,653.8 105.4,632.1 C97.7,600.7 83,565.1 54,507.1 C6.2,411.7 -2.6,385.6 1,351.1 C4.3,319.2 14,284.2 26.5,258.9 C43.8,224.1 65,207.1 91.3,207.1 C124.6,207.1 153.5,243.7 176.4,315.1 C183.2,336.3 187.1,351.6 217,478.1 C232,541.1 244.2,592.6 244.3,592.7 C246.5,593.9 363.5,606 733.5,643.5 L1182.5,689 L1366,698.1 L1549.5,707.3 L1654.5,706.1 C1790.4,704.7 1845.3,703.5 1860.5,701.6 C1885.6,698.6 1893.8,694.5 1896.4,683.9 C1898.8,673.7 1870.1,620.9 1838,576.6 C1823.2,556.2 1807.3,536.9 1780,506.1 C1748.7,470.8 1729.6,448.1 1726,441.7 C1723.8,437.9 1723.3,436 1723.7,433.2 C1725.1,424.2 1729.6,420.1 1738.1,420.1 C1746.4,420.1 1754.3,423 1773.6,433.2 C1794.6,444.3 1981.3,537.8 2004.5,548.9 C2024.5,558.4 2021.3,557.9 2076,561.1 C2115.5,563.5 2126.4,564.8 2139.3,569.1 C2162.9,577 2178.1,592.3 2183.5,613.6 C2185.7,622.3 2185.5,639.6 2182.9,650.1 C2180.4,660.9 2173.1,676.1 2164.9,687.6 C2155.8,700.5 2129.9,726 2109,742.7 C2075.8,769.2 2011.7,815.8 1977.8,838.1 C1945.6,859.3 1931.1,865.2 1910.5,865.2 C1897.7,865.3 1890.2,864.2 1845.5,856 C1790.6,845.9 1773.2,843.1 1758,842 C1750,841.5 1677.6,838.8 1597,836 L1450.5,831 L1297.8,820.6 C1213.8,814.8 1143.8,810.1 1142.3,810.1 L1139.4,810.1 L1143.2,849.4 C1147.4,893.8 1151,922.6 1154.4,939.2 C1155.7,945.5 1160.6,965.5 1165.3,983.6 C1170,1001.8 1174.8,1021 1175.9,1026.3 C1178.4,1038 1178.6,1049.7 1176.4,1057.2 C1166.9,1089.7 1116.4,1121 1038.7,1142.5 C985.3,1157.4 934,1163.9 902.5,1160 L902.5,1160 Z" id="Shape" sketch:type="MSShapeGroup"></path>
            <path d="M1155.5,645.5 C1144.5,643.3 1135,638.1 1125.2,628.7 C1115.4,619.3 1099.3,599.3 1100.6,598.2 C1101.1,597.7 1110.3,591.4 1121,584.1 C1131.7,576.8 1144.7,567.7 1149.8,563.8 C1162.3,554.5 1179.7,538.2 1184.1,531.7 C1191.9,520.2 1192.7,510.1 1193.4,421.6 C1193.9,358.1 1194.7,333.4 1197,307.1 C1203.3,237.1 1218,199.6 1252.1,166.5 C1272.9,146.4 1289.1,135.9 1316.8,124.7 C1372.6,102 1454.9,87.9 1574,80.9 C1603.3,79.1 1737.4,79.1 1764,80.9 C1822.3,84.7 1869.6,90.2 1924,99.6 C1963.4,106.4 1973.2,109.7 1984.3,120.1 C2000.3,135.1 2003.4,159.8 1992,182.1 C1985.8,194.2 1974,208.7 1961.7,218.9 C1935.1,241.3 1905.3,253.1 1875.6,253.1 C1863.4,253.1 1854.1,251.7 1794,240.7 C1727.9,228.7 1698.8,224.4 1658,220.9 C1633.3,218.8 1526.5,219.2 1500,221.4 C1427.2,227.7 1389.4,240.5 1368.1,266 C1350.2,287.5 1344.2,316.2 1346.9,367.6 C1350,426.9 1353.2,454.2 1361.4,491.4 C1369.7,528.8 1370.4,532.9 1369.7,541.6 C1367.9,565.3 1346,588.3 1305.3,608.9 C1270.8,626.4 1227.4,640.2 1189.5,645.6 C1177.2,647.4 1164.8,647.4 1155.5,645.5 L1155.5,645.5 Z" id="Shape" sketch:type="MSShapeGroup"></path>
            <path d="M582.6,589.4 L578.7,582.7 L585,546.7 C593.2,499.8 593.7,486.2 588.4,460.3 C576.3,400.7 540.1,348.3 449.9,259.6 C394.4,205.1 318.3,143.1 244.4,92.2 C217,73.4 196.4,60.8 171.8,47.7 C147.1,34.6 140.1,30.4 134.6,25.2 C129.5,20.4 128,16.6 128,8.3 L128,1.4 L137.2,0.7 C207.9,-4.3 285.9,15.8 375.5,62 C451.3,101.1 539.4,161.1 598.9,214 C623.2,235.6 784.7,390.3 787.7,394.8 C797.9,410.3 801.7,425 800,442 C796.8,472.3 776.5,496.9 718,541.3 C667.3,579.7 646.6,589.4 604,594.6 C585.8,596.8 587.1,597.1 582.6,589.4 L582.6,589.4 Z" id="Shape" sketch:type="MSShapeGroup"></path>
        </g>
    </g>
</svg>