<?xml version="1.0" encoding="UTF-8" standalone="no"?>
<svg width="2368px" height="2439px" viewBox="0 0 2368 2439" version="1.1" xmlns="http://www.w3.org/2000/svg" xmlns:xlink="http://www.w3.org/1999/xlink" xmlns:sketch="http://www.bohemiancoding.com/sketch/ns">
    <!-- Generator: Sketch 3.0.4 (8054) - http://www.bohemiancoding.com/sketch -->
    <title>Slice 2</title>
    <desc>Created with Sketch.</desc>
    <defs></defs>
    <g id="Page-1" stroke="none" stroke-width="1" fill="none" fill-rule="evenodd" sketch:type="MSPage">
        <g id="Group" sketch:type="MSLayerGroup" transform="translate(1183.900000, 1219.200000) scale(1, -1) translate(-1183.900000, -1219.200000) translate(0.200000, 0.200000)" fill="#000000">
            <path d="M1032.3,2436.6 C1014.4,2432.3 996.6,2417.8 989,2401.4 C987,2397 986.6,2394.9 987,2389.4 C987.3,2383.7 987.9,2381.9 990.6,2378.1 C993.6,2374 996.2,2372.3 1013.3,2363.4 C1037.4,2350.7 1042.6,2347.7 1052.4,2340.4 C1084.4,2316.7 1092.8,2289.1 1097.8,2192.2 C1099.1,2166.6 1101.3,2090.3 1100.7,2089.9 C1100.2,2089.4 781.3,2032.9 770.3,2031.3 C732.8,2025.9 684.9,2027.8 643.3,2036.3 C617.9,2041.5 580.8,2053.2 565.8,2060.7 C563.3,2061.9 547.6,2069.9 530.8,2078.4 C495.7,2096.2 483.7,2100.7 474.8,2099.9 C463.3,2098.9 453.5,2091 447.2,2077.7 C439.9,2062.4 440.7,2049 449.9,2031.2 C477.6,1977.8 574,1906.4 649.3,1883.5 C664.6,1878.9 675,1877 689.3,1876.5 C701.1,1876 705.2,1876.3 714.8,1878.1 C738.3,1882.6 772,1891.6 846.8,1913.2 C871.3,1920.3 895.6,1927.2 900.8,1928.6 C910.9,1931.3 1097.9,1971.4 1098.4,1970.9 C1099.2,1970.1 1100.9,1939.2 1101.4,1915.7 C1102,1891.5 1100.9,1854.7 1099.1,1835.1 L1098.5,1828.6 L950.4,1798.4 C869,1781.8 797.8,1767.6 792.3,1766.8 C770.8,1763.6 755.5,1762.9 699.8,1762.5 C644.5,1762 617,1762.7 596.8,1765.3 C592.7,1765.8 584.8,1766.6 579.3,1767.2 C573.8,1767.8 553.8,1770.7 534.8,1773.8 C515.8,1776.8 495.9,1779.6 490.6,1779.9 C477.7,1780.7 473.8,1779.2 466.3,1771 C463.3,1767.6 460.8,1764.5 460.8,1764 C460.8,1761.9 470.4,1738 474.1,1730.7 C487.7,1704.5 513.7,1682.3 558.8,1658.4 C595.5,1639 643.4,1625.6 699.3,1619.2 C725.9,1616.1 726.9,1616.2 763.9,1624.6 C781.7,1628.6 800.8,1632.7 806.3,1633.7 C811.8,1634.7 879.7,1651 957.2,1669.9 C1034.6,1688.8 1098.2,1704.1 1098.5,1703.8 C1099.1,1703.2 1099.7,1672.8 1100.2,1610.5 L1100.6,1561.4 L1098,1560.3 C1096.5,1559.7 1059.1,1553.8 1014.8,1547.2 C970.5,1540.6 920.8,1532.7 904.3,1529.7 C770.9,1505.1 661.5,1486 486.3,1456.8 C446.4,1450.1 420.6,1447 380.8,1444.1 C358.5,1442.5 222.9,1441.7 211,1443.1 C176.3,1447.3 118.7,1457.8 103.8,1462.6 C99.7,1463.9 85.6,1469.1 72.5,1474.2 C46,1484.3 36.2,1487.2 27.9,1487.2 C11.5,1487.1 2.4,1474.1 0.2,1447.7 C-1.4,1428.7 6.5,1412.5 27.9,1391.2 C63,1356.2 135.4,1314 206.3,1287.4 C252.9,1269.9 276.1,1265.6 302.3,1269.6 C330.1,1273.9 379.7,1284.6 453.8,1302.2 C477.2,1307.7 571.9,1329.9 664.3,1351.3 L832.3,1390.4 L998.8,1421.2 L1165.3,1452 L1284.8,1468.1 L1404.3,1484.2 L1528.8,1494.7 L1653.3,1505.2 L1731.8,1506.4 C1794.5,1507.4 1840.5,1507.5 1960.3,1506.5 L2110.3,1505.2 L2143.8,1501.7 C2287,1486.7 2299.7,1486.4 2326.8,1496.5 C2338.9,1501.1 2346.1,1505.5 2354.1,1513.4 C2367.1,1526.2 2370.4,1540.2 2364.7,1558.8 C2361,1570.7 2348.5,1586.2 2332.6,1598.3 C2293.1,1628.5 2214.1,1657.2 2133.5,1670.7 C2104.4,1675.5 2092.4,1676.5 2070.9,1675.9 C2050.5,1675.3 2037.7,1673.9 1953.3,1662.6 C1871.8,1651.8 1878.2,1652.4 1715.3,1637.2 L1565.3,1623.2 L1413.8,1603.3 C1330.5,1592.4 1262.2,1583.5 1262.1,1583.6 C1262,1583.7 1261.4,1600.1 1260.7,1620 C1259.8,1648.4 1259.8,1664.8 1260.7,1695 C1261.4,1716.2 1262.1,1733.8 1262.3,1734.1 C1262.6,1734.3 1274.6,1737.3 1289,1740.8 C1312.4,1746.4 1330.3,1749.5 1449.3,1768.6 C1523,1780.5 1588.7,1790.6 1595.3,1791.2 C1601.9,1791.7 1636.8,1793.8 1672.8,1795.7 C1708.8,1797.6 1744.2,1799.7 1751.3,1800.2 C1802.1,1804.1 1828.4,1817.6 1836.9,1844 C1839.9,1853.5 1840.6,1871.1 1838.4,1882.3 C1834.8,1899.9 1825.4,1913.7 1810.1,1923.6 C1789.9,1936.7 1764.1,1943 1706.9,1949.2 L1687.6,1951.3 L1616.9,1932.3 L1546.3,1913.3 L1407.1,1887.1 C1330.5,1872.7 1267.5,1861.2 1267.1,1861.6 C1266,1862.6 1266.5,1914 1267.8,1944.7 C1268.9,1969.3 1271.5,1993.3 1273.4,1995.1 C1273.9,1995.6 1281.7,1998.3 1290.8,2001.1 L1307.3,2006.1 L1501.8,2031.6 L1696.3,2057.1 L1767.8,2057.5 C1851,2057.9 1843.2,2057.1 1882.8,2070.1 L1906.2,2077.8 L1907.5,2082.2 C1914.4,2105.5 1916.2,2131.8 1911.9,2144.2 C1904.1,2166.7 1884.2,2184.1 1851.3,2197.6 C1812.5,2213.4 1752.4,2223.1 1692.6,2223.2 L1679.9,2223.2 L1659.6,2212.9 C1644.7,2205.3 1635.7,2201.4 1625.8,2198.3 C1618.4,2196 1598.8,2189.7 1582.3,2184.2 L1552.3,2174.4 L1417,2148.2 C1342.6,2133.7 1281.6,2122.1 1281.3,2122.3 C1281.1,2122.5 1282.1,2147 1283.5,2176.7 L1286,2230.7 L1293.8,2262.7 C1304.1,2304.3 1305.1,2309.9 1304.6,2319.2 C1303.6,2334 1297.9,2345.1 1283.8,2359.3 C1260,2383.2 1234.3,2394.8 1159.5,2415.3 C1087.6,2435 1051.1,2441.1 1032.3,2436.6 L1032.3,2436.6 Z" id="Shape" sketch:type="MSShapeGroup"></path>
            <path d="M1572.8,1401.1 C1563.6,1400.1 1542.4,1394.4 1534.9,1391 C1527.4,1387.6 1513.3,1381.9 1495.5,1375.1 C1485.8,1371.4 1458.3,1364.1 1381,1344.8 L1279.3,1319.3 L1071.6,1275.3 C957.3,1251 861.7,1231.2 859,1231.2 C848,1231.2 838.5,1234.7 813.3,1248.2 C763,1275.2 736.9,1284.2 708.8,1284.3 C695.4,1284.4 687,1282.2 672.8,1274.9 C659.7,1268.1 644.8,1258.3 644.8,1256.4 C644.9,1255.4 645.4,1250.4 646.1,1245.2 L647.4,1235.6 L658.4,1219.2 C688,1175.1 699.4,1148.4 706.2,1106.9 C711.3,1076.6 712.6,1041.6 713.4,924.2 L714,838.7 L708.9,672.7 L703.7,506.7 L692.7,343.2 C684.5,223 681.8,177.3 682.3,170.7 C685.4,125.8 713.1,80 747.2,63.3 C758.5,57.7 766.3,55.9 778.8,55.9 C798.6,55.9 809.1,60.4 823.8,75.3 C829.1,80.6 833.9,86 834.5,87.3 C835.2,88.6 839.1,101.6 843.3,116.2 L850.9,142.7 L858.8,276.7 C869.2,450.8 868.8,442.5 869.6,502.2 L870.3,553.7 L1119.8,597.4 L1369.3,641.2 L1485.3,650.6 C1549.1,655.7 1601.4,659.9 1601.5,659.8 C1601.6,659.8 1602.8,636.3 1604.3,607.7 C1606.9,556.4 1606.9,554 1606.5,436.7 C1606.2,330 1606,316.8 1604.5,309.2 C1599.6,284.6 1592.9,271.8 1581.7,265.7 C1569.9,259.3 1547.4,261.3 1465.8,276.3 C1450.7,279.1 1432,282.5 1424.3,283.8 C1416.6,285.2 1387.1,291.2 1358.8,297.3 C1330.5,303.4 1305.3,308.6 1302.8,308.9 C1298.3,309.4 1298.2,309.3 1295.4,305.2 L1292.7,301.1 L1296.9,295.4 C1299.3,292.3 1305.4,284.3 1310.7,277.7 C1336.1,245.5 1343.4,239.5 1395.3,208.2 C1464.2,166.6 1491.4,146.8 1521.8,116.3 C1542.3,95.8 1549.7,86.3 1567.8,57.7 C1585.4,30 1590.9,22.1 1599.2,13.5 C1608,4.1 1613.8,1.2 1625.4,0.3 C1651.6,-1.7 1669.9,5.1 1688.9,24.1 C1724.4,59.7 1747.9,131.6 1760.2,242.2 C1765.9,292.8 1768.1,336.6 1768.1,397.7 C1768.1,439.6 1767.2,466.4 1760,643.7 L1752,842.7 L1754.9,981.7 C1756.5,1058.2 1758,1122.1 1758.3,1123.7 C1758.6,1125.4 1759.7,1133.5 1760.9,1141.7 C1763.4,1160.2 1770.4,1195.8 1775.3,1215.1 C1783.1,1246.3 1788.8,1277.2 1788.8,1289 C1788.8,1309 1773,1328.2 1740.5,1347.5 C1712.3,1364.4 1666,1382.5 1622.3,1393.7 C1595.8,1400.5 1583.6,1402.4 1572.8,1401.1 L1572.8,1401.1 Z M1575.8,1241.4 C1582.6,1238.7 1587.8,1229.8 1590.3,1216.8 C1592.8,1203.6 1596,1160.9 1596.1,1138.2 C1596.2,1126.4 1595.6,1109 1594.9,1099.5 L1593.5,1082.4 L1590.4,1081.8 C1588.7,1081.5 1544.1,1074.9 1491.3,1067.2 L1395.3,1053.1 L1135.8,1004.1 C993.1,977.2 875.3,955 874.2,954.7 C872,954.2 872,954.4 871.4,976.5 C870.7,999.2 871.9,1106.6 872.8,1107.5 C873.1,1107.8 943.7,1124.3 1029.8,1144.1 C1181.8,1179 1189.4,1180.7 1296.4,1201.6 C1396.3,1221.1 1411.2,1223.8 1455.9,1230.1 C1502.8,1236.7 1549.6,1242.8 1558.3,1243.4 C1563.3,1243.8 1572.5,1242.7 1575.8,1241.4 L1575.8,1241.4 Z M1593.8,950.1 C1593.8,940.4 1597.5,822.1 1598.3,804.1 L1598.9,791.5 L1593.1,790.8 C1589.9,790.4 1570.5,788.3 1550.1,786.2 C1513.2,782.3 1509.1,781.6 1193.2,727.2 C1017.4,696.9 873.3,672.4 873,672.7 C872.5,673.1 874.7,838.6 875.1,838.8 C875.2,838.8 984.4,858.5 1117.6,882.6 L1360,926.5 L1468.1,942.2 C1537.1,952.3 1579.5,958 1585.1,958.1 L1593.8,958.2 L1593.8,950.1 L1593.8,950.1 Z" id="Shape" sketch:type="MSShapeGroup"></path>
        </g>
    </g>
</svg>