<?xml version="1.0" encoding="UTF-8" standalone="no"?>
<svg width="2371px" height="2366px" viewBox="0 0 2371 2366" version="1.1" xmlns="http://www.w3.org/2000/svg" xmlns:xlink="http://www.w3.org/1999/xlink" xmlns:sketch="http://www.bohemiancoding.com/sketch/ns">
    <!-- Generator: Sketch 3.0.4 (8054) - http://www.bohemiancoding.com/sketch -->
    <title>Slice 2</title>
    <desc>Created with Sketch.</desc>
    <defs></defs>
    <g id="Page-1" stroke="none" stroke-width="1" fill="none" fill-rule="evenodd" sketch:type="MSPage">
        <g id="Group" sketch:type="MSLayerGroup" transform="translate(1185.500000, 1182.950000) scale(1, -1) translate(-1185.500000, -1182.950000) translate(0.100000, 0.200000)" fill="#000000">
            <path d="M1274.1,2364.6 C1265.9,2363.2 1257.6,2360.1 1240.8,2352 L1225.2,2344.5 L1224,2330.8 C1223.4,2323.3 1222.9,2315.8 1222.9,2314.2 C1222.9,2311.8 1226,2308.2 1241.2,2292.8 C1251.3,2282.6 1263.1,2269.9 1267.4,2264.7 C1313.5,2209 1324.3,2147.8 1330.9,1903.7 C1331.4,1883.6 1334.1,1754.3 1336.9,1616.2 C1339.9,1460.9 1342.5,1353.2 1343.5,1333.6 C1345.1,1305.5 1345.1,1297.2 1344,1257.6 C1343,1221.6 1343,1195.8 1344.1,1121.2 C1345.4,1031.2 1345.3,1026.2 1342.7,891.2 C1340.3,771.6 1339.2,735.4 1334.4,619.7 L1328.9,486.2 L1328.9,331.2 C1328.9,177.6 1329.5,139.6 1332.4,112.3 C1340.3,37.2 1362.8,3.5 1407.2,0.2 C1434.4,-1.9 1458.7,12.5 1475,40.3 C1487.5,61.6 1492.8,83.4 1501.3,147.2 C1508.8,203.3 1508.2,171.1 1506.9,475.7 C1506.3,626.1 1505.9,755.7 1506.1,763.7 L1506.4,778.1 L1510.1,778.9 C1516.3,780.2 1550.8,784.1 1659.9,796.1 L1764.4,807.6 L1921.9,818.3 L2079.4,828.9 L2158.4,827.8 C2277.3,826.1 2306.2,826.3 2317.9,828.7 C2338.7,832.9 2356.1,845.4 2364.1,861.7 C2369.6,872.8 2371.2,880.9 2370.7,894.7 C2369.9,915.2 2363.3,929.5 2347,945.8 C2325.1,967.7 2293,983.2 2245.4,994.8 C2195.1,1007 2132.4,1011.4 2097.1,1005.2 C2085.2,1003.2 2070.8,999.4 2037.4,989.7 C2022.6,985.4 2007.7,981.2 2004.4,980.3 C2001.1,979.4 1938.1,968.6 1864.4,956.2 L1730.4,933.7 L1617.5,919.2 C1555.3,911.3 1504.3,905 1504,905.3 C1503.4,905.9 1497.9,1323.9 1498.4,1324.6 C1498.6,1324.8 1550.2,1327.3 1613.1,1330.2 L1727.4,1335.6 L1904.4,1354.1 C2054.2,1369.8 2083.5,1373.2 2095.3,1375.8 C2134.3,1384.5 2156.8,1397.8 2166.5,1418.1 C2170.9,1427.3 2172.2,1434.3 2171.7,1445.7 C2170.9,1461 2164.9,1473.3 2151.9,1486.4 C2126.4,1512 2075.4,1531.5 2028.9,1533.4 C2012,1534.1 1997.2,1532.5 1971.7,1527.2 C1962.8,1525.4 1902.5,1513 1837.9,1499.7 L1720.4,1475.6 L1610.5,1459.6 C1550,1450.9 1499.9,1443.7 1499.2,1443.7 C1498.1,1443.7 1497.9,1473.4 1497.9,1606.7 C1497.9,1696.4 1498.1,1769.7 1498.4,1769.7 C1498.6,1769.7 1505.7,1768.6 1514.1,1767.2 C1551.7,1761 1562,1760.3 1608.4,1760.3 C1645.5,1760.3 1654.5,1760.6 1673.9,1762.5 C1729,1768 1785.8,1776 1845.9,1786.8 C1897.4,1796.1 1936.4,1804.9 2001.4,1822.2 C2036.3,1831.5 2055,1835.4 2089.4,1840.7 C2132.8,1847.2 2154.3,1852.1 2170.5,1858.8 C2198.1,1870.3 2211.8,1889.3 2211.9,1916.1 C2211.9,1934.2 2204.3,1949.4 2186.8,1966.2 C2168.2,1984 2143.3,1996.5 2113.9,2002.8 C2099.5,2005.9 2067.9,2006.2 2054.9,2003.3 C2035.1,1999 2015,1992 1963.4,1971.7 C1925,1956.5 1900.1,1947.6 1874.9,1939.9 C1780,1910.8 1679.3,1891.8 1578.9,1884.1 C1556.5,1882.4 1505.7,1881.6 1504.3,1883 C1503.4,1883.8 1507.5,2078.8 1508.9,2107.7 C1509.6,2120.8 1510.7,2129.8 1513.4,2143.7 C1515.3,2153.9 1517.5,2166.5 1518.3,2171.7 C1521.6,2195.9 1514.2,2223.5 1497.8,2247.2 C1488,2261.3 1481.4,2266.7 1442.4,2291.5 C1364.1,2341.3 1339.6,2355 1318.7,2361.1 C1304.9,2365.1 1286,2366.6 1274.1,2364.6 L1274.1,2364.6 Z" id="Shape" sketch:type="MSShapeGroup"></path>
            <path d="M732.4,2327.8 C713.7,2323.2 699.2,2312.4 683.3,2291.2 C673.5,2278.2 670.7,2273.8 671.5,2272.4 C673.3,2269.6 693.8,2242.6 699.8,2235.2 C707,2226.5 721.2,2210.6 732.4,2198.6 C738.1,2192.6 740.9,2188.5 746.1,2178.1 C758.4,2154 770.5,2120.4 776.3,2094.5 C782.1,2068.6 781.8,2073.7 789,1912 C791.4,1859.6 793.1,1816.5 792.7,1816.2 C792,1815.4 541.6,1771 527.9,1769.2 C509,1766.7 483.7,1765.7 440.2,1765.7 C395.8,1765.7 382.7,1766.4 362.4,1769.7 C328.3,1775.4 304.3,1784.4 246.6,1812.9 C229,1821.6 214.1,1828.7 213.3,1828.7 C211.4,1828.7 198.6,1817.8 193.8,1812 C181.5,1797.2 177.8,1774.7 184.3,1754.2 C192.8,1727.5 221.3,1696.2 264.6,1666 C294.9,1644.9 337.2,1623.6 371.2,1612.2 C391.8,1605.3 404.3,1602.7 419.9,1602 C435.6,1601.4 442.7,1602.5 494.4,1613.3 C548.1,1624.6 582.5,1632.8 690.7,1660 C748.5,1674.6 795.9,1686.5 795.9,1686.4 C796.1,1685.4 798.7,1435.2 798.6,1435 C798.3,1434.7 496.8,1366.2 469.4,1360.2 C425.7,1350.6 408.2,1348.7 359.2,1348 C318.7,1347.4 303,1348.2 277.5,1352.2 C235.3,1358.8 198.3,1370.9 145,1395.7 C136.6,1399.6 129.1,1402.6 128.4,1402.3 C126.9,1401.8 114.9,1374.7 111.9,1365.2 C107.4,1350.8 108.3,1335.6 114.4,1320.6 C121.1,1304.1 143.2,1278.3 166.8,1259.7 C178.1,1250.9 203.5,1233.8 216.4,1226.5 C248.6,1208.2 287.6,1192.5 314.9,1186.6 C329.3,1183.6 347.6,1183 359.4,1185.1 C381.2,1189.2 418.7,1199.1 477.4,1216.4 C505.1,1224.5 792.9,1300.9 793.5,1300.3 C794.1,1299.8 779.7,1040 778.8,1035.5 L777.7,1029.8 L767.1,1026.3 C745.3,1019.1 566.8,962 510.6,944.3 C357.9,896 293.4,877.5 242.4,867.2 C211.4,861 204,860.2 174.9,860.2 C149.7,860.2 147.9,860.4 137.4,862.9 C122.1,866.5 111.4,870.7 97.4,878.2 C73.6,891 51.7,901.8 44.2,904.3 C33.5,907.9 23.1,907.5 17.1,903.3 C8.1,897.1 1.1,881.4 0.2,865.2 C-2.6,818.8 32.7,767.4 95.9,725.8 C121.4,709 146.5,696.5 171.4,688.2 C189.9,682 199.7,680.4 214.9,680.9 C226.4,681.3 228.2,681.7 237.9,685.3 C243.7,687.4 266.2,698.1 288,708.9 C331.9,730.8 334.3,731.8 405.4,757.7 C432.9,767.7 461.9,778.5 469.9,781.7 C490.5,789.9 760.6,894.7 761.1,894.7 C761.4,894.7 760.4,887.4 758.8,878.5 C757.3,869.5 754.9,850.7 753.4,836.7 C746.3,766.4 741.8,744.2 717.9,660.7 C674.2,508.1 633.2,406.6 569.7,293.9 C537.2,236.1 469.4,128.6 445.3,96.5 C428.7,74.5 418,58.8 413.7,49.9 C408.3,38.9 409.6,28.5 417.5,19.8 C421.8,15 428.5,11.7 434.2,11.7 C442.1,11.7 462.1,23.8 494.3,48 C516.7,64.9 531.4,77.4 550.6,96 C609.7,153.5 669.5,233.5 724.8,329 C781.1,426.2 841.1,556.7 868.8,642.1 C882.3,683.5 916,822.2 925.3,874.2 C926.2,879.2 933.6,937 941.9,1002.7 L956.9,1122.2 L963.9,1302.2 L970.8,1482.2 L975.8,1776.2 C978.6,1937.9 981.1,2072.2 981.3,2074.7 C981.6,2077.2 984.3,2089.8 987.4,2102.7 C990.5,2115.6 993.3,2128.7 993.8,2131.8 C998.2,2164.3 969.6,2205.4 912.7,2248.5 C867.3,2282.9 801.7,2318.1 765.3,2327.7 C755.7,2330.2 742.2,2330.2 732.4,2327.8 L732.4,2327.8 Z" id="Shape" sketch:type="MSShapeGroup"></path>
        </g>
    </g>
</svg>