<?xml version="1.0" encoding="UTF-8" standalone="no"?>
<svg width="992px" height="2023px" viewBox="0 0 992 2023" version="1.1" xmlns="http://www.w3.org/2000/svg" xmlns:xlink="http://www.w3.org/1999/xlink" xmlns:sketch="http://www.bohemiancoding.com/sketch/ns">
    <!-- Generator: Sketch 3.0.4 (8054) - http://www.bohemiancoding.com/sketch -->
    <title>Slice 2</title>
    <desc>Created with Sketch.</desc>
    <defs></defs>
    <g id="Page-1" stroke="none" stroke-width="1" fill="none" fill-rule="evenodd" sketch:type="MSPage">
        <g id="Group" sketch:type="MSLayerGroup" transform="translate(495.900000, 1011.600000) scale(1, -1) translate(-495.900000, -1011.600000) translate(0.400000, 0.600000)" fill="#000000">
            <path d="M761.6,2021 C751.5,2019.2 732.6,2013.6 694.1,2001.1 C653.5,1987.9 638,1983.2 628.6,1981.2 C624.5,1980.3 570.7,1971.9 509.1,1962.5 C395.7,1945.3 303.6,1932.6 291.5,1932.6 C278.6,1932.6 256.1,1938 209.8,1952.1 C164.2,1965.9 163.3,1966.1 148.6,1966 C138,1966 134.9,1965.6 128.4,1963.4 C113.9,1958.6 104.1,1950.1 97.9,1936.9 C95,1930.8 94.2,1927.8 93.8,1921.6 C93.5,1916.9 93.8,1912.4 94.6,1910.1 C96.4,1904.8 105.8,1891.1 118.1,1876.1 C124,1869 129.6,1861.5 130.6,1859.6 C138.5,1844.2 152.9,1782.1 168,1698.6 C179,1637.7 178.1,1647.1 182.6,1539.1 C184.8,1485.8 187.1,1437.4 187.7,1431.7 C193.1,1376.6 213.3,1335.5 245.6,1313.7 C262,1302.7 279.1,1298.9 291.9,1303.4 C308.9,1309.4 329.7,1329.9 346.9,1357.7 C360.4,1379.2 370.3,1384.7 405.6,1390 C419.6,1392.1 454.5,1396.6 456.8,1396.6 C458.8,1396.6 461.8,1391.2 469.1,1374.1 C486,1334.4 496.1,1289 499.7,1236.6 C500.6,1223.1 500.6,1156.5 499.7,942.6 L498.5,666.1 L493,526.8 C490,450.1 487.3,387 487,386.4 C484.9,383 449.2,362 374.7,320.2 L318.3,288.6 L319.1,451.9 C320.3,721.2 321.1,793.9 323.5,832.6 C326.1,875.2 326.3,893.8 324.2,903 C322.2,911.5 316.3,924.2 309.9,933.8 C304.4,942 286.6,960.9 276.7,969 C244.8,994.9 192.5,1022.7 155.7,1033.2 C147.4,1035.6 145.2,1035.8 135.7,1035.3 C120.6,1034.6 112.8,1031.8 90.9,1018.8 L79.8,1012.3 L79.1,1000.1 C78.3,986.5 79.4,976.4 82.4,970.8 C83.5,968.7 91.3,957.9 99.8,946.6 C119.4,920.5 127.4,908.4 135.8,891.8 C145.5,872.7 150.9,854.6 153.6,832.1 C154.5,824.4 159.8,753.5 172.6,575.1 C180.4,465.8 182.2,426.9 185.1,293.1 L186.5,227.1 L184.3,225.4 C178.5,220.9 165.4,214 158.2,211.4 C151.8,209.2 148.3,208.6 141.5,208.6 C124.3,208.6 120.5,211.2 72.8,255.3 L48.5,277.7 L42.8,272.8 C22.1,254.9 9.1,236.1 3.6,216.4 C-2.8,193.5 -0.9,177.1 11.6,145.5 C37.5,80.4 85.2,18 120.8,2.8 C126.5,0.4 128.3,0.1 139.1,0.1 C150.9,0.1 151.2,0.2 157.1,3.5 C163.9,7.3 168.6,10.8 191.1,28.6 C208,42 230.1,57.1 273.1,84.6 C289,94.8 338,129 399.4,172.9 L499.6,244.7 L623.9,343.7 C692.2,398.2 758.1,451.6 770.4,462.3 C833.5,517.5 880.2,563.6 889.7,580.1 C893.7,587.1 893.6,591.8 889.3,596.1 C882.9,602.5 870.5,603.6 860.4,598.9 C849.2,593.6 816.8,573.9 724.2,516.2 C674.3,485 633.2,459.6 633.1,459.8 C632.7,460.2 648.4,874.8 648.8,875.1 C649,875.2 664,877.9 682.1,881 C759.6,894.5 910.4,922.2 939.1,928.3 C955.9,931.8 963.9,935.8 974.1,946.1 C987.5,959.4 992.3,971.7 991.2,989.6 C990.5,1001.4 988.8,1007.8 983.6,1018.2 C976.5,1032.8 962.1,1045.8 942.7,1055.6 C919.5,1067.2 881.2,1075.6 851.3,1075.6 C841.7,1075.6 839.7,1075.3 832.8,1072.6 C825.1,1069.7 799.4,1057.1 778.6,1046.1 C746.6,1029.3 721.9,1021 674.8,1011.2 L653.7,1006.8 L654.2,1016.5 C654.5,1021.8 656.2,1080.8 658.1,1147.6 C660,1214.4 662.3,1281.3 663.2,1296.1 C665.5,1333.5 665.5,1354.3 663.2,1362.5 C659.1,1377.3 648.3,1393.9 632.7,1409.4 C627.7,1414.4 623.9,1418.7 624.3,1418.9 C626.8,1420.4 678.4,1426 755.1,1433.1 C782.1,1435.6 807.7,1438.3 812.1,1439.1 C853.5,1447.1 872.8,1467.6 871.3,1502.1 C870.6,1518.8 866.2,1528.4 850.9,1546 L842.8,1555.4 L867.6,1663.8 C881.3,1723.4 893.2,1776.6 894.1,1782.1 C896.3,1795 900.9,1810.2 905.1,1819.1 C907,1822.9 913.3,1833.1 919.1,1841.6 C933.6,1862.7 934.8,1865.3 935.4,1875.2 C935.9,1885.1 934.2,1891.7 928,1903.6 C906.3,1944.8 836.5,2002.9 790.4,2018 C777.8,2022.1 771.4,2022.8 761.6,2021 L761.6,2021 Z M724.1,1856.9 C729.3,1854.2 730.9,1852.3 734.2,1845.2 C739.3,1834.1 738.4,1815.1 730.7,1767.8 C729.1,1758.1 721.1,1706.7 713,1653.6 C704.9,1600.5 698,1556.7 697.6,1556.3 C697.2,1555.9 624,1544.9 535,1532 C446,1519.1 369.3,1507.9 364.6,1507.1 C359.9,1506.3 352.2,1505.6 347.5,1505.6 L338.9,1505.6 L338.2,1511.4 C336.9,1523.8 335.5,1547.7 334.1,1582.7 C330.2,1678.8 323.9,1749.4 315.1,1795.1 C313.8,1802.2 312.7,1808.1 312.9,1808.1 C313,1808.2 323.2,1810.2 335.6,1812.5 C348,1814.8 415.7,1824.4 486.1,1834 C604.4,1850.1 617.5,1851.7 659.1,1855 C683.9,1857 704.8,1858.9 705.6,1859.1 C709.4,1860.1 720.3,1858.8 724.1,1856.9 L724.1,1856.9 Z" id="Shape" sketch:type="MSShapeGroup"></path>
        </g>
    </g>
</svg>