<?xml version="1.0" encoding="UTF-8" standalone="no"?>
<svg width="2418px" height="2324px" viewBox="0 0 2418 2324" version="1.1" xmlns="http://www.w3.org/2000/svg" xmlns:xlink="http://www.w3.org/1999/xlink" xmlns:sketch="http://www.bohemiancoding.com/sketch/ns">
    <!-- Generator: Sketch 3.0.4 (8054) - http://www.bohemiancoding.com/sketch -->
    <title>Slice 2</title>
    <desc>Created with Sketch.</desc>
    <defs></defs>
    <g id="Page-1" stroke="none" stroke-width="1" fill="none" fill-rule="evenodd" sketch:type="MSPage">
        <g id="Group" sketch:type="MSLayerGroup" transform="translate(1208.700000, 1162.250000) scale(1, -1) translate(-1208.700000, -1162.250000) translate(0.000000, 0.700000)" fill="#000000">
            <path d="M1691,2322.3 C1684.1,2320.6 1670.3,2315.4 1643.5,2304.3 C1599,2286 1566.9,2277.8 1502.7,2268.3 C1489.9,2266.4 1342.9,2247.8 1176,2226.8 C1009.1,2205.9 861.5,2187.2 848,2185.3 C779.2,2175.6 727.2,2172.4 702,2176.2 C678.8,2179.8 651.3,2188.8 592.5,2212.5 C537.9,2234.4 515.7,2241.8 490.8,2246.5 C477.4,2248.9 447,2248.9 438,2246.4 C419.8,2241.4 407.9,2231.5 399.4,2214.3 C396.6,2208.8 393.1,2200.4 391.5,2195.6 C388.5,2186.9 388.5,2186.8 390.5,2185 C391.6,2184 404.4,2172.8 418.9,2160.2 C467.1,2118.5 475.9,2108.8 487.9,2084.3 C495.3,2069.2 510.4,2032.1 519.5,2006.3 C530.7,1974.6 540.4,1939.4 547.4,1904.8 C554.1,1871.7 591,1652.9 596,1616.6 C603.1,1565.3 607.1,1542.2 613.4,1516.6 C626.6,1462.9 638.6,1440.3 659.7,1429.1 C668.4,1424.4 675.8,1422.8 688.2,1422.8 C708.9,1422.8 714.8,1426.2 746.5,1456.8 C753.7,1463.7 761.8,1470.5 764.5,1472 C770.8,1475.3 782,1478.5 792.4,1479.8 C796.9,1480.4 863.7,1489.1 940.9,1499.3 C1018.1,1509.5 1082.1,1517.8 1083.2,1517.8 C1085.4,1517.8 1092.7,1507 1097.2,1497 C1108.8,1471.5 1114,1417.3 1114,1320.3 C1114,1297.8 1112.9,1192.2 1111.5,1085.8 L1108.9,892.3 L1103.4,747.8 C1100.4,668.4 1097.8,603.3 1097.7,603.2 C1097.6,603.1 1077,612.3 1052,623.7 C993.3,650.5 699.7,797.1 687.6,805.7 C683.2,808.8 679.2,811.6 678.7,811.9 C678.2,812.3 680.7,820.1 684.3,829.4 C690.1,844.6 774.6,1044.9 781.8,1060.8 C786.2,1070.5 793.7,1094.6 796.6,1108.2 C799.6,1122.9 800.7,1140.1 799.1,1147.8 C793.4,1174.9 763.1,1205.6 715.3,1232.7 C700.4,1241.1 672.5,1254.2 658,1259.6 C633.9,1268.6 622,1270.6 610,1267.9 C602.2,1266.1 588,1259.2 576.6,1251.7 C567.3,1245.6 567,1245.3 567.5,1242.3 C573.5,1212.7 579.7,1192.3 591.5,1163.8 L599.2,1145.3 L598.5,1137.3 C591.6,1054.3 536.9,884.7 481.6,775.2 C418.3,649.5 322.4,509.9 201.6,367.3 C146.5,302.2 97.4,249.1 41.4,193.9 C3.2,156.2 1.2,153.7 0.2,142.2 C-0.4,135.3 0.4,132.6 4.1,128.4 C13.1,118.1 27.8,120.1 58.5,135.8 C94.1,153.9 149,190.1 209.5,235.3 C231.7,251.9 235.5,255.3 317.5,332.1 L402.5,411.8 L425.7,439 C446.1,463 457.1,477.5 515.6,557.8 C566.9,628.2 586.6,656 600.8,678.3 C611,694.3 619.9,707.9 620.5,708.7 C621.6,709.8 623.9,709.1 634.6,704.3 C669.1,688.9 703.8,671.1 737,651.8 C842.6,590.5 985.2,508.7 996,503.3 C1003.4,499.6 1089.2,451.3 1186.5,396 L1363.5,295.5 L1499.8,224.7 C1631,156.5 1641.7,151.1 1781.8,83.7 C1862,45.1 1931.1,12.3 1935.6,10.8 C1957.2,3.4 1975.4,0.8 2008.8,0.1 C2042.4,-0.6 2084.7,2.2 2147.5,9.4 C2285.9,25.1 2379.2,47.7 2407.8,72.3 C2414.6,78.2 2417.5,84.1 2417.4,91.8 C2417.3,106.7 2408.7,113 2371.5,125.4 C2345.7,134 2328.2,138.9 2081,207.3 C1910.9,254.3 1858.4,269.2 1832,277.9 C1799.7,288.6 1793.9,291 1669.5,344 C1543.9,397.6 1536.8,400.8 1400,464.6 C1322.7,500.6 1259.3,530.2 1259.1,530.4 C1258.1,531.3 1257.1,565 1256.5,621.3 L1255.7,681.3 L1262.5,839.3 C1266.3,926.2 1269.5,997.5 1269.7,997.7 C1269.9,998 1281.6,996.5 1295.8,994.5 C1309.9,992.5 1323.1,990.8 1325,990.8 C1326.9,990.8 1404.1,1002.2 1496.5,1016.2 C1633.6,1037 1678.8,1043.4 1742,1051.2 C1841.5,1063.5 1852.1,1064.7 1872,1065.8 C1891.3,1066.9 1900.8,1069 1912.9,1074.9 C1933.2,1084.9 1943.2,1103.6 1943.1,1131.8 C1943.1,1143.9 1942.3,1150 1939.5,1158.3 C1924.6,1202.3 1867.6,1228.9 1788,1229 C1759.4,1229 1748.4,1226.4 1684.5,1204.7 C1647.6,1192.2 1643.5,1191 1622,1186.3 C1593.6,1180.1 1549.7,1172.8 1419.4,1152.9 C1291.6,1133.2 1290.2,1133.1 1283.1,1134.3 C1279.2,1135 1275.7,1135.8 1275.4,1136.1 C1275.1,1136.4 1276.7,1190.4 1279,1256.2 C1283,1373.1 1283.1,1376.2 1286.1,1396 C1287.7,1407.2 1290.4,1425.5 1292.1,1436.8 C1296.1,1464.1 1296.8,1478.6 1294.5,1490.3 C1292.5,1501 1287.5,1516.9 1282.1,1529.9 C1279.9,1535.1 1278.2,1539.4 1278.4,1539.5 C1281,1542.1 1521.3,1561.1 1553,1561.2 C1563.7,1561.3 1586.9,1560.7 1604.5,1559.9 C1656.7,1557.6 1669.6,1558.9 1688.6,1568.3 C1709.2,1578.4 1725,1598.9 1738.3,1632.8 C1745.7,1651.6 1749.4,1664.1 1788.6,1800.4 C1809.2,1872.2 1828,1936 1830.3,1942.1 C1835.4,1956 1849.7,1984.9 1858.2,1998.8 C1861.8,2004.6 1871.6,2020.3 1880.2,2033.8 C1902.1,2068.4 1911.8,2085.2 1914.2,2093.2 C1916,2099.1 1916.2,2101.7 1915.7,2112.7 C1914.8,2135.8 1906.8,2152.9 1885.1,2178.1 C1875.8,2188.9 1831.8,2232.6 1808.6,2254.1 C1753.6,2305.2 1714.2,2327.9 1691,2322.3 L1691,2322.3 Z M1658.5,2134.3 C1678.4,2130.1 1689,2117.4 1689,2097.8 C1689,2085.2 1682.1,2052.2 1666.4,1989.8 C1661.2,1969.2 1644.5,1898.5 1629.4,1832.8 C1614.2,1767.1 1601.4,1712.9 1600.9,1712.4 C1598.3,1709.5 1529.1,1700.4 1327,1676.3 C1209.6,1662.3 1034.8,1641.1 938.6,1629.2 C842.5,1617.4 763.5,1607.9 763.2,1608.2 C762.9,1608.6 761.4,1617.3 759.9,1627.7 C758.4,1638.2 742.9,1731.6 725.5,1835.3 C708,1939 693.9,2024 694.1,2024.2 C694.3,2024.4 780.7,2036.5 886,2051.2 L1077.5,2077.8 L1344,2106.3 C1490.6,2121.9 1612.3,2134.9 1614.5,2135.1 C1625.8,2136.1 1651.9,2135.7 1658.5,2134.3 L1658.5,2134.3 Z" id="Shape" sketch:type="MSShapeGroup"></path>
        </g>
    </g>
</svg>