<?xml version="1.0" encoding="UTF-8" standalone="no"?>
<svg width="992px" height="2384px" viewBox="0 0 992 2384" version="1.1" xmlns="http://www.w3.org/2000/svg" xmlns:xlink="http://www.w3.org/1999/xlink" xmlns:sketch="http://www.bohemiancoding.com/sketch/ns">
    <!-- Generator: Sketch 3.0.4 (8054) - http://www.bohemiancoding.com/sketch -->
    <title>Slice 2</title>
    <desc>Created with Sketch.</desc>
    <defs></defs>
    <g id="Page-1" stroke="none" stroke-width="1" fill="none" fill-rule="evenodd" sketch:type="MSPage">
        <g id="Group" sketch:type="MSLayerGroup" transform="translate(495.800000, 1192.300000) scale(1, -1) translate(-495.800000, -1192.300000) translate(0.300000, 0.800000)" fill="#000000">
            <path d="M72.2,2383.2 C43.7,2378.7 16,2362.7 5.4,2344.6 C1.4,2337.7 -0.6,2329.4 -0.1,2321.9 C0.8,2309.5 5.7,2302.4 22.7,2289 C65.6,2255.1 97.4,2200.3 112.3,2134.8 C118.2,2108.5 118.4,2105.7 123.1,1978.3 C127.5,1860.6 127.7,1854.1 130.2,1642.8 C132.7,1438.2 132.8,1411.8 132.4,1120.3 C131.9,833.8 131.5,785.9 128.7,679.8 C126.8,607.7 123.5,525.8 121.6,502.3 C121,495.2 117.9,461.2 114.7,426.8 C108.8,364.5 104.4,315.7 101,276.8 C98.6,248 98.6,200.8 101,184.3 C112,110.3 135.1,52.1 165.2,22.3 C182.9,4.8 200.9,-2.1 221.5,0.6 C258.6,5.5 275.6,40.9 280.8,124.3 C281.4,134.7 282.2,202.9 282.7,285.8 C283.3,381.1 284.2,458.2 285.6,515.3 C288.5,631.5 288.5,670.5 285.4,727.8 C283.4,765.7 283.2,777.9 283.8,800.8 C284.2,815.9 284.6,881.2 284.6,945.8 C284.7,1066.6 285.8,1161.2 287.8,1231.3 C288.4,1253.3 289,1288.2 289,1308.9 L289.2,1346.5 L299.2,1338.4 C368.8,1282.3 387,1265.9 420.2,1229.2 C426.3,1222.6 438,1209.7 446.3,1200.7 C526.4,1113.3 618.4,999.4 690.9,897.8 C715.2,863.7 727.6,845.3 757.2,799.3 C822.8,697.6 841,673.5 862.9,659.9 C870.8,654.9 878.9,652.2 889.7,650.9 C918.2,647.3 937.8,653.8 957.3,673.2 C970.8,686.8 978.8,700.2 985.1,719.8 C990.1,735.2 991.2,743.1 991.1,761.8 C991,793.3 984.7,823.2 971.1,856.8 C944.2,922.8 887.9,996.2 809.2,1067.9 C720.9,1148.2 622.7,1223.2 485.3,1315 C410.5,1365 338.1,1410.9 318.7,1420.4 C297.6,1430.8 293.7,1435 291.6,1449.3 C289.8,1461.2 291.8,1542.4 300.7,1822.3 C302.9,1890.5 305.1,1965 305.7,1987.8 L306.9,2029.3 L313.8,2085.8 C325.2,2179.6 326.8,2198 324.8,2213.3 C323.3,2224.5 320.7,2232.5 315.7,2240.8 C305.2,2258.6 285.1,2276.5 243.6,2304.9 C209.4,2328.3 206,2330.7 197.2,2336 C150.2,2364.9 109.4,2381.9 84.1,2383.2 C79.2,2383.4 73.9,2383.4 72.2,2383.2 L72.2,2383.2 Z" id="Shape" sketch:type="MSShapeGroup"></path>
        </g>
    </g>
</svg>