<?xml version="1.0" encoding="UTF-8" standalone="no"?>
<svg width="1577px" height="2343px" viewBox="0 0 1577 2343" version="1.1" xmlns="http://www.w3.org/2000/svg" xmlns:xlink="http://www.w3.org/1999/xlink" xmlns:sketch="http://www.bohemiancoding.com/sketch/ns">
    <!-- Generator: Sketch 3.0.4 (8054) - http://www.bohemiancoding.com/sketch -->
    <title>Slice 2</title>
    <desc>Created with Sketch.</desc>
    <defs></defs>
    <g id="Page-1" stroke="none" stroke-width="1" fill="none" fill-rule="evenodd" sketch:type="MSPage">
        <g id="Group" sketch:type="MSLayerGroup" transform="translate(788.500000, 1171.100000) scale(1, -1) translate(-788.500000, -1171.100000) translate(0.000000, 0.100000)" fill="#000000">
            <path d="M614.1,2341.1 C593.3,2336.7 576.6,2325.2 569.2,2310.3 C565.6,2302.9 565.5,2302.5 565.5,2291.2 C565.5,2279.9 565.6,2279.4 569.1,2272.1 C572.6,2264.8 582.3,2251 594,2236.6 C610.5,2216.4 619.1,2197.3 623.7,2170.6 C625,2162.9 625.4,2154.8 625.4,2135.6 C625.4,2109.4 624.8,2102.5 619.4,2072.6 C608.3,2010.6 577.1,1908.6 544.2,1826.6 C540.9,1818.4 516.1,1755 489.1,1685.8 L439.9,1560 L361.4,1401.4 C300.6,1278.8 283,1242.4 283.4,1240.5 C284.5,1236.4 292,1229.4 296.3,1228.6 C322.2,1223.7 393,1288.9 468.5,1387 C494.6,1420.9 529.6,1471.3 549.9,1504.1 C560.9,1521.7 560.1,1521 564.2,1517.9 C583.6,1503.1 625.8,1482.7 652.7,1475.1 C687.5,1465.2 716.7,1465.6 755.5,1476.2 C790.7,1485.9 842.8,1499.7 873.2,1507.4 L905.9,1515.6 L913.1,1508.6 C937,1485.1 957.2,1453.8 966.4,1426 C972.5,1407.4 974.5,1395.1 974.4,1374.6 C974.4,1354.7 973.2,1347.2 964.5,1309.3 C951.6,1253.3 941.4,1220.3 899.5,1098 C859.6,981.3 841.6,930.3 830.3,902.1 C821.5,880.1 805.8,844.1 804.9,844.1 C804.5,844.1 780.3,873.5 750.9,909.4 C655.9,1025.7 545.4,1159.5 532.7,1173.8 C509.6,1199.6 488.3,1218.3 473.4,1225.6 C456.5,1234 436.1,1233.9 420,1225.6 C415.7,1223.4 408.3,1216.4 405.4,1212 C399.4,1202.5 398.2,1185.3 402.9,1176.1 C407.5,1167.1 423.7,1147.6 460.9,1106.5 C480.4,1085 502.3,1059.4 525.4,1031.1 C580.2,963.9 585.9,955.9 667.7,829.2 L740.3,716.8 L737.5,711.7 C735.9,708.9 728.6,696.5 721.2,684.1 C659.1,580.3 596.5,494.4 525.2,415.1 C505.9,393.7 460,347.4 439,328.1 C367.9,262.9 291.1,206.2 188.5,143.1 C150.8,119.9 69.8,72.7 34.5,53.3 C6.1,37.8 1.8,34 0.5,23.6 C-1.4,8.9 8.2,0.1 26.1,0.1 C45.4,0.1 116.6,24.4 182.5,53.4 C338.1,121.9 485.2,217.7 615,334.9 C639.1,356.7 693.2,410.7 714.3,433.9 C754.5,478.2 792.5,525.1 823.7,568.8 L831.7,580 L931.1,435.4 L1030.5,290.8 L1097.9,204.2 C1183.2,94.6 1194.7,80.3 1209.5,65.5 C1228.7,46.1 1242.7,38.4 1264.5,35.4 C1275.3,33.8 1279,34 1397.6,39.4 L1519.5,45.1 L1548.5,52.9 C1564.5,57.3 1577.5,61.2 1577.5,61.7 C1577.5,62.2 1576.4,66 1575.1,70.2 L1572.8,77.7 L1488.2,136.6 C1401.2,197.2 1381.7,211.3 1357.5,230.7 C1283.7,289.8 1192.3,379.2 1111,471.7 C1095.2,489.6 915.8,704.4 913.7,707.8 C913.2,708.6 916.6,715.9 922.3,726.3 C943.6,765.3 965.8,812.8 983.5,857.6 C986.1,864.2 1008.2,922 1032.7,986.1 C1070.2,1084.4 1083.1,1119.6 1115,1211.2 C1160.3,1341 1162.7,1348.7 1168,1379.4 C1171.7,1401.3 1170.5,1411.3 1162,1428.6 C1154.8,1443.1 1143.1,1458.1 1124.1,1477.2 C1104.9,1496.3 1088.3,1510.4 1061.3,1530.4 C1050.8,1538.2 1042.1,1544.8 1042.1,1545.1 C1041.9,1546.3 1155.7,1572.6 1165.6,1573.7 C1173.1,1574.5 1351.2,1612.2 1363.7,1615.6 C1398.1,1625 1421.4,1639.9 1430.8,1658.6 C1436.7,1670.4 1438.2,1688.5 1434.2,1700.8 C1424.7,1730.6 1391.1,1754.3 1345.8,1763 C1329.5,1766.1 1310,1767.4 1296.8,1766.2 C1278.6,1764.5 1272.5,1762.4 1223,1741.3 C1189.1,1726.9 1162.1,1717 1105,1698.1 C1046.2,1678.6 1035.3,1675.5 907.5,1642 C747,1600 749.6,1600.6 717.5,1600.6 C698.9,1600.6 694.8,1601 681.5,1603.4 C662.3,1607 616.7,1617.1 615.7,1618 C615.3,1618.4 623.1,1635.6 633.1,1656.2 C653.9,1699.1 664.7,1722.6 669.5,1735 C671.3,1739.7 685.9,1775.1 701.9,1813.6 L731.1,1883.6 L771.1,2006.1 C793,2073.5 812.7,2132.9 814.6,2138.1 C824.6,2164.2 832,2187.7 832,2192.9 C832,2205.3 825.4,2220.6 814.8,2232.8 C803.6,2245.6 790.7,2256 757,2279.7 C746.8,2286.9 732.7,2297 725.5,2302.1 C697.6,2322.3 676.7,2333.7 659,2338.6 C651.1,2340.8 646.9,2341.3 634,2341.6 C625.5,2341.8 616.5,2341.6 614.1,2341.1 L614.1,2341.1 Z" id="Shape" sketch:type="MSShapeGroup"></path>
        </g>
    </g>
</svg>