<?xml version="1.0" encoding="UTF-8" standalone="no"?>
<svg width="2311px" height="2302px" viewBox="0 0 2311 2302" version="1.1" xmlns="http://www.w3.org/2000/svg" xmlns:xlink="http://www.w3.org/1999/xlink" xmlns:sketch="http://www.bohemiancoding.com/sketch/ns">
    <!-- Generator: Sketch 3.0.4 (8054) - http://www.bohemiancoding.com/sketch -->
    <title>Slice 2</title>
    <desc>Created with Sketch.</desc>
    <defs></defs>
    <g id="Page-1" stroke="none" stroke-width="1" fill="none" fill-rule="evenodd" sketch:type="MSPage">
        <g id="Group" sketch:type="MSLayerGroup" transform="translate(1155.900000, 1150.950000) scale(1, -1) translate(-1155.900000, -1150.950000) translate(0.800000, 0.100000)" fill="#000000">
            <path d="M966.2,2301.1 C958.7,2299.8 947.9,2296.2 941,2292.7 C922.6,2283 909.9,2262.1 911.5,2244.1 C912.7,2232.1 915.2,2228.9 935.3,2214.2 C985.1,2177.7 1009.5,2132.1 1020.6,2054.8 C1023.3,2036.3 1025.5,2013.4 1027.3,1985.3 C1028.6,1964 1029.7,1832.4 1028.7,1807.5 L1028,1789 L1023.8,1788.4 C1021.6,1788.1 1006.7,1786.3 990.7,1784.3 C974.8,1782.3 865.6,1768.6 748.2,1753.8 L534.7,1726.9 L442.2,1718.7 C350.4,1710.5 349.5,1710.4 317.7,1710.4 C274.7,1710.3 245.5,1713.5 212,1721.9 C180.9,1729.7 162.5,1737.2 132.1,1754.5 C86.1,1780.6 79.9,1783.2 65.2,1782.6 C53.2,1782.2 48.3,1780 39.1,1770.9 C20.3,1752.1 19.4,1726.2 36.5,1692.7 C52.2,1661.8 76.1,1630.8 110.7,1596.3 C151.3,1555.7 189.8,1529.1 214.4,1524.5 C218.9,1523.7 222.8,1523.7 230.3,1524.7 C251.8,1527.3 296,1535.2 345.4,1545.1 L397.2,1555.5 L400.4,1553.3 C402.2,1552.1 416.8,1543.6 432.7,1534.5 C464.2,1516.5 470.5,1512.3 485.7,1499.7 C514.3,1475.8 537.8,1448.9 592.2,1377.8 C634,1323.2 760.3,1160.9 813.6,1093.3 C926.4,950.1 975.1,891.1 1021.5,841.6 L1033.4,828.9 L1014.9,807.1 C919.1,694.1 823.3,591.6 768,543.1 C741.9,520.2 589,395 533.7,351.3 C494.6,320.4 480.6,310.6 387.2,249.3 C296.6,189.8 291.6,186.6 265.2,172.9 C181.1,129.1 11.8,38.8 6.3,34.9 L0,30.3 L0.5,23.9 C1.5,10.5 10.1,5.6 32.4,5.7 C44.6,5.7 65,9 107.2,17.8 L136.7,23.9 L263.5,71.9 L390.2,120 L444.9,148 L499.5,176 L598.6,237.6 C653.1,271.4 704.1,303.2 711.9,308.2 C722,314.7 752.2,338.1 816.9,389.5 L907.7,461.6 L943.3,496 C982.4,533.6 1096.8,652.8 1133.2,693.8 C1138.3,699.6 1142.8,704.4 1143.1,704.6 C1144.4,705.1 1276.6,570 1422.3,419.2 L1528.7,309 L1658.7,186.3 C1730.2,118.7 1794.3,58.6 1801.2,52.5 C1834.5,23.3 1854.6,12 1881.7,7.4 C1902.6,3.8 1939.8,1.3 1988.7,0.2 C2016.4,-0.4 2017.6,-0.3 2097.2,5.7 C2194.1,13 2197.9,13.3 2220.7,15.9 C2260.7,20.4 2288.3,26.6 2306.9,35.5 C2308.7,36.3 2310.2,37.4 2310.2,37.9 C2310.2,40.3 2300.5,48.9 2288.2,57.2 C2270.8,69.2 2266.6,71.5 2230.6,90.1 C2210.5,100.4 2159.5,129.3 2077,177.2 L1953.4,248.8 L1822,335 L1690.7,421.2 L1592.8,500.1 L1495,579.1 L1399.3,669.6 C1346.7,719.4 1292.9,770.7 1279.7,783.7 C1266.5,796.7 1252.2,810.4 1248,814.2 L1240.2,821.1 L1243.9,826.2 C1295.4,896.9 1348.5,977.5 1388.4,1045.7 C1400.9,1067 1407.8,1080 1471.2,1200.2 C1504.6,1263.5 1513.4,1281.2 1553.4,1366.1 C1578,1418.3 1600.7,1465.6 1603.8,1471.1 C1620,1500.2 1633.3,1519 1652.7,1540.3 C1679.5,1569.9 1684.2,1579 1684.2,1602.3 C1684.2,1620.6 1680.6,1632.4 1670.8,1647.2 C1660.6,1662.5 1639.7,1682.6 1612.5,1703.3 L1600.4,1712.5 L1617,1713.7 C1705.6,1719.9 1721.5,1720.3 1873.2,1720.3 C2004.2,1720.3 2016.8,1720.1 2059.2,1718.1 C2084.2,1716.9 2113,1715.6 2123.2,1715.2 C2163.5,1713.8 2187,1719.3 2202.6,1733.8 C2219.2,1749.4 2224.6,1777.7 2215.7,1803.1 C2200.8,1846 2137.6,1885.5 2053.2,1904.6 C2025.6,1910.9 2013.2,1912.3 1985.7,1912.2 C1949.1,1912.2 1932,1909.5 1869.3,1894.2 C1810.5,1879.8 1810.6,1879.8 1717.2,1865.8 C1583.5,1845.8 1540.2,1840.8 1374.2,1826.3 C1279.2,1818 1246.1,1815 1220.8,1812.2 C1208.2,1810.8 1197.8,1809.9 1197.5,1810.1 C1197.3,1810.4 1198.5,1866.1 1200.2,1933.9 C1203.8,2075.9 1204.6,2089.3 1212.1,2119.8 C1223.2,2165.4 1223.3,2174.3 1213,2191.6 C1208.7,2198.7 1194.8,2213.4 1184.7,2221.6 C1143.3,2255 1060.3,2291 1003,2300.3 C994.5,2301.7 972.4,2302.2 966.2,2301.1 L966.2,2301.1 Z M1420.3,1693.6 C1441.9,1678.5 1449.9,1663.2 1450.9,1634.8 C1451.8,1610.7 1447.1,1581.7 1436.7,1546.3 C1428.7,1519.4 1425,1510.3 1380.4,1409.3 C1351.1,1342.7 1329.9,1296.6 1306,1246.8 L1272.6,1177.3 L1233,1111.7 C1183.3,1029.4 1169.7,1008.3 1135.5,960.6 L1122.2,942 L1099.9,965.1 C1041.2,1026 1007.5,1062.6 969.6,1106.9 C935.4,1146.8 849.5,1252.2 790.6,1326.4 C738.3,1392.3 719.8,1414.7 670.6,1471.8 C638.6,1508.9 608.2,1544 603.2,1549.8 C588.9,1566.1 574.8,1583.8 575.6,1584.5 C575.9,1584.8 703.9,1604.8 859.9,1628.9 L1143.7,1672.6 L1248.7,1682.8 C1354.2,1692.9 1400.4,1697.5 1403.2,1698.2 C1409.4,1699.7 1413,1698.8 1420.3,1693.6 L1420.3,1693.6 Z" id="Shape" sketch:type="MSShapeGroup"></path>
        </g>
    </g>
</svg>