<?xml version="1.0" encoding="UTF-8" standalone="no"?>
<svg width="2491px" height="2036px" viewBox="0 0 2491 2036" version="1.1" xmlns="http://www.w3.org/2000/svg" xmlns:xlink="http://www.w3.org/1999/xlink" xmlns:sketch="http://www.bohemiancoding.com/sketch/ns">
    <!-- Generator: Sketch 3.0.4 (8054) - http://www.bohemiancoding.com/sketch -->
    <title>Slice 2</title>
    <desc>Created with Sketch.</desc>
    <defs></defs>
    <g id="Page-1" stroke="none" stroke-width="1" fill="none" fill-rule="evenodd" sketch:type="MSPage">
        <g id="Group" sketch:type="MSLayerGroup" transform="translate(1245.250000, 1018.100000) scale(1, -1) translate(-1245.250000, -1018.100000) translate(0.000000, 0.300000)" fill="#000000">
            <path d="M1202.6,2034.8 C1194.9,2033.6 1185.9,2028.6 1180.1,2022.4 C1172.9,2014.8 1169.7,2007.4 1169.2,1997.7 C1168.7,1988.7 1169.5,1985.2 1179.6,1947.9 C1189.8,1910.4 1190.5,1906.4 1189.2,1897 C1184.8,1866.1 1159.5,1814 1121.9,1758.4 C1115.9,1749.6 1107.6,1737.9 1103.2,1732.4 C1098.9,1726.9 1057.9,1674.7 1012,1616.4 L928.6,1510.4 L853.4,1424.4 C783.7,1344.5 642.2,1188.2 623.7,1170.5 C608.5,1156 591.5,1144.3 581.8,1141.8 C577.9,1140.7 576.3,1140.7 573.3,1141.8 C571.2,1142.5 539.6,1157.9 503,1176 C431.6,1211.3 430.7,1211.6 401,1218.3 C379.8,1223 366.5,1224.3 340,1224.3 C326.5,1224.3 313.4,1224 310.9,1223.6 L306.3,1222.8 L301.2,1212.1 C296.4,1202.3 296,1200.8 296,1194.4 C296,1180.9 299,1177 339.9,1135.4 C355.7,1119.5 371.6,1102.6 375.3,1097.9 C400.2,1066.8 417.2,1023.7 429.9,959.4 C435.8,929.8 437.7,916.3 452.5,801 C465,704.1 467,685.5 478,572.5 L490,449.4 L496.6,330.9 C500.3,265.7 503,210.8 502.6,208.9 C502.3,207 501.6,204.8 501.1,204.1 C500.7,203.4 496.3,201.7 491.4,200.3 C483.4,198 471.2,196.9 375.5,189.2 C244.5,178.7 236.2,178.5 209.7,185.4 C197.5,188.6 194.9,189.7 134,218.1 C46.4,259 42.2,260.9 35.2,260.9 C25.7,260.9 13.8,252.2 7.1,240.6 C3.1,233.6 0,221.5 0,212.9 C0,180.4 23.1,132.1 60.7,86 C71.9,72.4 98.8,45.5 111,35.8 C133.9,17.6 153.8,6.6 172.3,1.8 C179.2,-1.12337223e-12 182.4,-0.2 192.5,0.2 C207.1,0.9 222.9,4.4 290.4,21.9 C364.8,41.2 353,39.1 482,54.9 L596.5,68.9 L838,91.4 L1079.5,113.9 L1252.5,119.4 L1425.5,124.8 L1672,123.4 L1918.5,122 L2053.5,111.4 L2188.5,100.8 L2299.5,81.8 C2407.5,63.3 2410.8,62.8 2422,63.2 C2435.9,63.6 2443.9,66.1 2454.5,73 C2474.7,86.1 2487.1,107 2490,132.4 C2492.4,154.3 2485.4,171.9 2466.5,191.8 C2448.3,210.9 2421.5,228.9 2386.6,245.4 C2352.3,261.6 2311.6,275.7 2279.5,282.5 C2267.4,285 2265.4,285.1 2250,284.6 C2240.9,284.3 2204.3,281.3 2168.5,278 C2072.5,269.1 2053.2,267.6 2035,267.5 L2018.5,267.4 L2011.1,270.8 C2004,274.1 2003.8,274.4 2004.3,277.3 C2006.9,292.6 2162.7,1019.2 2164.6,1024.9 C2166,1029 2171.4,1041.2 2176.5,1051.9 C2188.1,1076 2191,1085.4 2191.7,1100.9 C2192.4,1115.3 2190.3,1124.8 2183.1,1139.4 C2168.6,1169.3 2134.4,1202.6 2090,1230.1 C2059.1,1249.3 2024.9,1263.6 2005.2,1265.4 C1996.7,1266.2 1980.4,1263.9 1938.8,1255.8 C1881.7,1244.7 1867.6,1242.1 1860,1241.4 C1840.5,1239.7 1807.5,1236.3 1753,1230.4 C1716.1,1226.4 1643.2,1219.8 1561,1212.9 C1468,1205.2 1325.4,1192 1083,1168.9 C893,1150.8 736.2,1135.8 734.7,1135.6 C731.2,1135.1 728,1132.2 764.5,1162.6 L794.5,1187.6 L1061.5,1449.4 L1328.5,1711.2 L1362.5,1738.4 C1381.3,1753.4 1398.5,1767.8 1400.9,1770.5 C1414.4,1785.8 1424.5,1802.9 1426.9,1814.7 C1428.6,1822.7 1428.2,1832.7 1426,1841.4 C1412.6,1893.7 1322.2,1989 1253.3,2023.3 C1232,2033.9 1217.1,2037.3 1202.6,2034.8 L1202.6,2034.8 Z M1897.4,1090 C1916.4,1086.7 1932,1083 1937.7,1080.2 C1944.9,1076.8 1954.8,1060.8 1959,1045.8 C1964.8,1025.1 1966.4,993.4 1963.6,957.9 C1959.4,906.2 1949.6,832.7 1938,765.9 C1935.3,750.2 1925.2,690.2 1915.6,632.4 C1901.1,545.1 1894.4,508.3 1876,413.9 C1863.8,351.5 1853,296.8 1851.9,292.4 C1849.3,282.1 1845.5,275.1 1841.1,272.5 C1837.1,270.2 1838,270.3 1740.5,266.9 C1625.6,262.9 1609.5,262.6 1559.7,263.4 L1511,264.1 L1511,273.3 C1511,278.3 1525.4,434.3 1542.9,619.9 C1560.5,805.5 1575.4,963.3 1576,970.4 C1576.6,977.6 1578.9,1001.1 1581,1022.7 C1583.2,1044.3 1585,1063.6 1585,1065.6 C1585,1072.4 1595.2,1079.2 1609.6,1082.1 C1616.8,1083.5 1849.8,1093.8 1866,1093.4 C1875.1,1093.2 1885.3,1092.1 1897.4,1090 L1897.4,1090 Z M1375,1065.7 C1383.9,1063.4 1386.7,1061.2 1389.1,1054.9 C1399.4,1027.6 1405.3,969.5 1403,918.5 C1402.4,905.8 1397.5,805.4 1392,695.4 C1382.2,498.8 1378.4,438.3 1365.7,273.8 C1365.1,266.9 1363,262.7 1359.4,261 C1357.4,260.1 1317,257.8 1225,253.4 C1152.7,249.9 1089.6,246.8 1084.8,246.4 L1076,245.8 L1076,600.1 C1076,942.5 1075.9,955.2 1074,977.5 C1071.1,1011.7 1069.8,1035.7 1070.5,1039.9 L1071.1,1043.6 L1092.3,1047.8 C1113,1051.8 1115.5,1052 1203,1058.5 C1252.2,1062.2 1299,1065.7 1307,1066.4 C1325.9,1068.2 1367.3,1067.7 1375,1065.7 L1375,1065.7 Z M859.9,1031.4 C882,1023.6 897.8,988.9 905.4,931.4 C906.2,925.4 910.7,849.8 915.4,763.4 C923.9,606.7 923.9,606 929,430.9 C931.9,334.4 934,251.6 933.8,246.9 C933.5,241 932.9,237.6 931.6,235.7 C929.5,232.5 924.1,230.3 914.9,228.9 C906,227.6 751.1,217.4 707.5,215.3 C666.2,213.4 666.8,213.3 662.8,222 C656.5,235.5 653.9,256.8 648.5,334.9 C647.1,355.5 639.8,455.2 632.4,556.4 C619.9,726.9 618.2,748.1 608.5,845.4 C602.7,903.2 597.3,956.5 596.4,963.9 C595.6,971.3 595.1,982.1 595.2,987.9 L595.5,998.3 L719,1015.5 C786.9,1025 845.5,1032.8 849.1,1032.8 C852.8,1032.9 857.6,1032.2 859.9,1031.4 L859.9,1031.4 Z" id="Shape" sketch:type="MSShapeGroup"></path>
        </g>
    </g>
</svg>