<?xml version="1.0" encoding="UTF-8" standalone="no"?>
<svg width="2378px" height="2176px" viewBox="0 0 2378 2176" version="1.1" xmlns="http://www.w3.org/2000/svg" xmlns:xlink="http://www.w3.org/1999/xlink" xmlns:sketch="http://www.bohemiancoding.com/sketch/ns">
    <!-- Generator: Sketch 3.0.4 (8054) - http://www.bohemiancoding.com/sketch -->
    <title>Slice 2</title>
    <desc>Created with Sketch.</desc>
    <defs></defs>
    <g id="Page-1" stroke="none" stroke-width="1" fill="none" fill-rule="evenodd" sketch:type="MSPage">
        <g id="Group" sketch:type="MSLayerGroup" transform="translate(1189.450000, 1088.100000) scale(1, -1) translate(-1189.450000, -1088.100000) translate(0.900000, 0.700000)" fill="#000000">
            <path d="M558.2,2174.3 C541.2,2172.6 523.6,2164.7 512.8,2153.8 C498.9,2139.9 497.5,2124 508.8,2108.8 C510.8,2106.2 516.8,2099.5 522.1,2094 C537.9,2077.6 541.3,2072.2 543.1,2060.9 C545.8,2044.5 540,2019.7 527.2,1993 C516.6,1970.9 508.8,1959.4 453.3,1884.1 C396.6,1807.2 395.1,1805.3 322.4,1721.5 L253.5,1642 L157.7,1547.5 C58.9,1450.2 59.7,1450.9 55.4,1439.1 C53.6,1433.9 53.6,1425.4 55.5,1421.8 C57.6,1417.8 63,1412.8 67.3,1411.1 C92.4,1400.6 178.9,1440.7 287.1,1512.8 C318.3,1533.6 332.6,1544.6 374.1,1579.4 C431.4,1627.4 486.1,1676.4 528.4,1717.6 C537.7,1726.6 586.7,1777.4 637.4,1830.5 L729.6,1927 L749.2,1940 C785.3,1964 806.2,1984 814.1,2001.8 C820.8,2016.9 820.7,2035.5 814,2048.8 C810.8,2054.9 800,2065.7 790.1,2072.4 C775.6,2082.4 707.8,2120.4 660.1,2145.3 C614.2,2169.3 586.6,2177.1 558.2,2174.3 L558.2,2174.3 Z" id="Shape" sketch:type="MSShapeGroup"></path>
            <path d="M1454.8,2150.5 C1452.2,2150 1448,2148.5 1445.5,2147 C1440.5,2144.1 1427.9,2132.6 1428.3,2131.4 C1428.5,2131 1460.3,2105.5 1499.1,2074.8 C1561.7,2025.2 1580.3,2009.8 1664.6,1937.3 L1759.6,1855.6 L1781.1,1828.8 C1792.9,1814.1 1825.8,1775.5 1854.1,1743.1 C1882.4,1710.6 1913,1675.4 1922.1,1665 C1940.9,1643.2 1963.4,1619.9 1973.6,1611.5 C1987.6,1600 2000.9,1592.8 2014.1,1589.4 C2022.3,1587.4 2039.3,1587.6 2046.1,1589.9 C2058.8,1594.2 2067.2,1599.5 2077.7,1610 C2092,1624.2 2099.7,1636.8 2106.2,1656.9 C2111.4,1672.8 2113.3,1686.5 2113.4,1708.5 C2113.5,1743.1 2107.8,1769.4 2094.2,1798 C2082.5,1822.5 2067.8,1842.7 2045.1,1865.5 C2000.9,1909.9 1937.4,1951.6 1820.6,2013.2 C1744.2,2053.5 1660.8,2095 1637.6,2104.2 C1589.2,2123.5 1530.3,2139.8 1478.1,2148.4 C1460.7,2151.3 1460.2,2151.4 1454.8,2150.5 L1454.8,2150.5 Z" id="Shape" sketch:type="MSShapeGroup"></path>
            <path d="M1351.8,1696 C1343.2,1693.8 1330.6,1686.9 1324.6,1681 C1314.7,1671.4 1311.7,1661.1 1316.2,1652.2 C1317.4,1649.9 1322.9,1640.8 1328.4,1632 C1343,1608.6 1348.8,1594.8 1353.3,1572.3 C1355.2,1562.6 1355.6,1557.9 1355.6,1539.5 C1355.6,1516.9 1354.7,1508.8 1349.5,1484.7 C1330.4,1395.4 1267.2,1269.7 1164.7,1117 C1133.7,1070.9 1091.9,1012 1090.1,1012 C1089.1,1012 1043.4,1051.3 982.6,1104.5 C879.3,1194.8 794.1,1271.9 724.6,1338.1 C656.1,1403.2 629,1427.1 612.8,1436.3 C587.7,1450.7 559.7,1451 518.6,1437.3 C489.6,1427.7 470.5,1415.1 465.6,1402.2 C463.1,1395.7 463.9,1386.2 467.5,1380.1 C472,1372.4 477.2,1369 502.9,1357 C520.9,1348.6 530.6,1343.4 539.9,1337.1 C599.7,1296.9 731.1,1177.9 902.1,1009 C954,957.7 1009.1,902.1 1009.1,901 C1009.1,898.8 972.3,850.4 945.2,817 C831,675.8 700,538.9 578,433.4 C519.9,383.1 423.5,308.4 347.1,254.3 C249.6,185.5 170.6,138.6 49.5,77.8 L8.4,57.1 L4.2,48.7 L0,40.2 L5.7,34.4 C8.9,31.2 14.2,27.1 17.5,25.3 C23.4,22.1 24,22 35.1,22 C48,22 58.6,24.3 95.6,35.1 C193.2,63.6 292.8,106.2 380.1,156.8 C539.5,249.1 673.7,345.1 793.6,452.4 C854.4,506.9 900.1,551.5 1021.8,675.5 C1060.4,714.8 1100.7,755.7 1111.4,766.3 L1130.8,785.7 L1143.5,772.3 C1150.4,765 1157,757.6 1158,756 C1160.6,751.8 1277.6,627.9 1352,550.5 C1457.4,441 1586,311.1 1693.6,205.6 C1782.5,118.4 1801.5,100.5 1837.5,70.3 C1893.1,23.6 1928.1,4.4 1965.1,0.3 C1979.6,-1.2 2211.5,4.3 2263.6,7.5 C2321.8,11.1 2354.9,17.1 2368.5,26.4 C2375,30.9 2377.1,36 2377.1,47.1 C2377.1,54.8 2376.7,56.9 2374.4,61.4 C2365,80.5 2335.9,96.5 2228.6,141.8 C2097,197.4 1995.2,252.2 1876.1,331.6 C1698,450.3 1530.4,593.2 1274.3,844.5 C1251.1,867.3 1228.5,889.3 1224.2,893.3 L1216.4,900.7 L1228.6,916.8 C1263.2,962.6 1324.1,1048.1 1373.6,1120.4 C1408.8,1171.8 1429.7,1204.2 1456.1,1248 C1517.6,1350.1 1534.6,1376.7 1564.6,1418 C1599,1465.3 1602.1,1471.4 1602.1,1490.3 C1602.1,1501.1 1600.2,1508.4 1594,1521.5 C1583.7,1543.1 1566.1,1566.4 1539.1,1593.9 C1489.5,1644.5 1432.8,1682.9 1390.6,1694.5 C1380.2,1697.4 1360.3,1698.1 1351.8,1696 L1351.8,1696 Z" id="Shape" sketch:type="MSShapeGroup"></path>
        </g>
    </g>
</svg>