<?xml version="1.0" encoding="UTF-8" standalone="no"?>
<svg width="2193px" height="2279px" viewBox="0 0 2193 2279" version="1.1" xmlns="http://www.w3.org/2000/svg" xmlns:xlink="http://www.w3.org/1999/xlink" xmlns:sketch="http://www.bohemiancoding.com/sketch/ns">
    <!-- Generator: Sketch 3.0.4 (8054) - http://www.bohemiancoding.com/sketch -->
    <title>Slice 2</title>
    <desc>Created with Sketch.</desc>
    <defs></defs>
    <g id="Page-1" stroke="none" stroke-width="1" fill="none" fill-rule="evenodd" sketch:type="MSPage">
        <g id="Group" sketch:type="MSLayerGroup" transform="translate(1096.550000, 1139.300000) scale(1, -1) translate(-1096.550000, -1139.300000) translate(0.200000, 0.500000)" fill="#000000">
            <path d="M1124.4,2277 C1109.9,2275 1093.1,2269.7 1083,2264 C1074.3,2259 1065.3,2249.9 1061.6,2242.3 C1058.7,2236.4 1058.3,2234.6 1058,2225.5 C1057.3,2206.6 1059.4,2204.5 1106.3,2176.1 C1131.9,2160.6 1140,2154.8 1150.9,2143.8 C1168.7,2125.9 1179.8,2102.6 1179.8,2083 C1179.8,2066 1167.7,2017.5 1148,1956.1 C1116.9,1858.9 1047.2,1648.3 1045.7,1646.9 C1042.8,1644.4 1009.6,1633.8 986.8,1628.2 C961.3,1621.9 947.4,1619.4 907.7,1613.7 C890.4,1611.2 815.8,1600.4 741.8,1589.6 L607.3,1570 L494.8,1562 C369,1553 364.1,1552.9 335.8,1557.5 C324,1559.4 315.1,1561.7 298.3,1567.1 C230.2,1589.1 221.8,1590.9 211,1585.5 C202.2,1581.1 195,1570.5 191.1,1556.1 C188.7,1547.1 188.7,1522.4 191.1,1513.1 C195.2,1498 202.5,1486.5 217.4,1472.1 C236,1454.1 257.1,1439.7 305.8,1411.6 C350.5,1385.8 395.9,1366.5 430,1358.9 C438.6,1357 443.1,1356.6 457.3,1356.7 L474.3,1356.7 L582.8,1391.3 C642.5,1410.4 700,1429 710.6,1432.6 C721.3,1436.2 742.2,1442.3 757.1,1446.1 C772.1,1450 830.4,1465.2 886.8,1479.9 C943.2,1494.7 989.4,1506.7 989.6,1506.6 C990,1506.3 962,1443.1 947.7,1412.1 C933.2,1380.4 897.5,1309.3 881.3,1279.6 C826.8,1179.9 728.7,1019.6 655.4,910.6 C565.7,777.2 481.3,668.5 389,567.1 C363.8,539.5 292,467.6 266.8,444.9 C192,377.4 124.3,326.5 51.8,283.4 C6.4,256.5 1.6,253 0.3,245.8 C-1.8,234.7 5.9,224.7 19.2,221.4 C25.2,220 27.4,219.9 37.2,220.9 C60.4,223.3 95.6,234.2 147.3,254.9 C228.5,287.4 267.3,310.1 385.3,394 L421.2,419.6 L495.8,491.5 L570.3,563.4 L619.1,620 L667.9,676.6 L739.1,770.6 L810.2,864.6 L882.9,977.6 L955.5,1090.6 L1021.9,1210.5 C1084.6,1323.7 1091.3,1336.2 1141.3,1434.9 L1194.3,1539.5 L1210.8,1543.3 C1237.3,1549.4 1410.6,1574.3 1614.3,1601.3 L1797.3,1625.5 L1818.9,1625.2 C1837.3,1625 1843.8,1625.3 1863.9,1627.6 C1891.3,1630.8 1893.6,1630.6 1900.4,1623.7 C1903.6,1620.5 1905.1,1617.8 1906.9,1612.1 C1909,1605.5 1909.3,1602.7 1909.3,1588.1 C1909.2,1579 1908.6,1567.3 1907.9,1562.1 C1906.4,1550.8 1907.9,1558 1877.9,1419.6 L1853.8,1308.6 L1816.7,1176.1 L1779.7,1043.6 L1726.6,884.1 L1673.6,724.6 L1629.6,624.1 C1605.4,568.8 1582.5,517.5 1578.6,510.1 C1553.5,462.2 1502,385 1459,330.6 C1447.3,315.9 1419.2,287.7 1408.1,279.6 C1388.5,265.3 1370.9,257 1351.8,253.1 C1342.9,251.3 1339,251 1326.3,251.4 C1313.2,251.8 1309.5,252.3 1297.3,255.4 C1280,259.8 1230.4,274.2 1222.3,277.1 C1219,278.2 1198.9,283.7 1177.6,289.1 C1135.1,300 1136.4,299.5 1039.3,336.6 C941.7,373.9 946.3,372.4 937.7,368.1 C932.2,365.2 929.8,361 929.8,353.9 C929.8,337.3 946.4,316.6 983.8,286.5 C987.9,283.1 1027.8,254.2 1072.3,222.1 C1167.1,153.8 1162.2,157.5 1172,147.5 C1186.2,133.1 1196.5,117.4 1212.2,86.4 C1216.9,77 1223.6,65.1 1226.9,59.9 C1248.3,27.3 1275.4,7.5 1306.8,1.5 C1315.8,-0.3 1335.1,-0.5 1343.9,1.1 C1395.9,10.2 1458.4,57.3 1531.3,142.1 C1565.1,181.3 1622,256.6 1664.5,318.1 C1771.6,473.1 1835.8,617.9 1915.2,882.8 C1940,965.7 1952.6,1011.1 2018.8,1256.6 C2046.3,1358.9 2070.9,1449.1 2073.4,1457.1 C2085.6,1495.7 2106.7,1539.7 2126.9,1568.6 C2131.3,1574.9 2140.6,1584.9 2157.4,1601.6 C2170.7,1614.8 2183,1627.8 2184.8,1630.4 C2190.3,1638.8 2192.1,1645.2 2192.6,1659.2 C2193.4,1683 2189.5,1689.8 2158.3,1718 C2087.5,1781.9 2035.8,1818.8 2000.4,1830.6 C1982.7,1836.5 1968.3,1837 1947.3,1832.2 C1942.4,1831.1 1890.5,1814.7 1832.1,1795.7 L1726,1761.2 L1642.1,1747.7 C1596,1740.2 1489.2,1721.8 1404.9,1706.6 C1320.5,1691.5 1251.3,1679.3 1251.2,1679.4 C1251.1,1679.5 1273.1,1737.4 1300.2,1808.1 L1349.3,1936.6 L1389.2,2002.9 L1429.1,2069.1 L1430.4,2079.4 C1434.3,2108.7 1429.7,2126.3 1413.9,2142.1 C1409.7,2146.3 1403.2,2151.8 1399.3,2154.3 C1385.2,2163.5 1190.9,2269.1 1183.5,2271.6 C1179.5,2272.9 1172.2,2274.7 1167.4,2275.6 C1156.3,2277.5 1133.4,2278.3 1124.4,2277 L1124.4,2277 Z" id="Shape" sketch:type="MSShapeGroup"></path>
        </g>
    </g>
</svg>