<?xml version="1.0" encoding="UTF-8" standalone="no"?>
<svg width="2401px" height="2209px" viewBox="0 0 2401 2209" version="1.1" xmlns="http://www.w3.org/2000/svg" xmlns:xlink="http://www.w3.org/1999/xlink" xmlns:sketch="http://www.bohemiancoding.com/sketch/ns">
    <!-- Generator: Sketch 3.0.4 (8054) - http://www.bohemiancoding.com/sketch -->
    <title>Slice 2</title>
    <desc>Created with Sketch.</desc>
    <defs></defs>
    <g id="Page-1" stroke="none" stroke-width="1" fill="none" fill-rule="evenodd" sketch:type="MSPage">
        <g id="Group" sketch:type="MSLayerGroup" transform="translate(1200.300000, 1104.500000) scale(1, -1) translate(-1200.300000, -1104.500000) translate(0.100000, 0.100000)" fill="#000000">
            <path d="M1013.7,2206.9 C987.6,2201.4 962,2182.9 951.7,2162.2 C945.4,2149.4 947.6,2143.4 964.7,2126.6 C976.7,2114.8 983.5,2109 1012.4,2086.3 C1025,2076.5 1036.5,2066.6 1038.2,2064.4 C1045.9,2053.8 1053.9,2033.1 1058.3,2012.1 C1064,1984.9 1066.4,1961.8 1068.1,1919.9 C1069.8,1875.9 1068.4,1845.4 1058.4,1706.9 L1049.8,1588.4 L1041.4,1537.4 C1036.8,1509.4 1031.4,1475.8 1029.3,1462.9 C1027.3,1450 1025.6,1439.3 1025.5,1439.2 C1024.9,1438.4 454.6,1371.6 442.6,1370.9 C425.2,1369.9 400.3,1370.9 381.9,1373.5 C308.5,1383.5 231.5,1419.6 179.9,1468.2 C163.3,1483.9 158,1486.9 147.3,1486.9 C130.4,1486.9 119.4,1478.1 112.6,1459.3 C108.3,1447.2 107.4,1439.9 107.4,1417.4 C107.5,1378.7 109.9,1374.2 169.3,1304.9 C244.2,1217.6 259.3,1202.2 282.5,1190.2 C294.8,1183.8 306.1,1180.8 320.9,1180.2 C336.5,1179.5 343.4,1180.8 401.9,1195.6 C442,1205.7 447.7,1206.8 576.9,1230.4 C650.3,1243.8 768.9,1264.7 840.4,1276.9 C967.8,1298.5 996.8,1303.5 1000,1304.5 C1002,1305 1002.4,1307.9 994.8,1269.9 C982.8,1209.1 961.7,1132.4 937.2,1059.9 C865.3,847 766.6,658.7 662.4,535.4 C633.7,501.4 591.6,456.5 544,408.8 C474,338.9 417.3,289 350.9,239 C266.9,175.7 187.3,127.8 57.4,62.6 C9.9,38.8 4.3,35.3 1.3,28.2 C-3.4,17.2 4.5,8 23.2,2.8 C34.5,-0.3 57.7,-1 77.9,1.4 C229.8,18.8 468.9,141 634.4,285.8 C681.3,326.8 742.1,388.9 789.7,444.4 C884.1,554.3 959.4,672.3 1017.9,801.9 C1058.7,892.3 1089,978.9 1129.5,1121.2 C1140,1158 1143.7,1169.5 1144.5,1168.6 C1145.1,1168 1190.6,1097 1245.5,1011 L1345.3,854.5 L1464.6,694 C1530.2,605.7 1601.8,509.3 1623.6,479.9 C1724.7,344 1786.5,265.5 1860,179.9 C1911.9,119.4 1929.5,100.5 1947.9,85.9 C1970.2,68.1 1999.1,53.6 2026.5,46.4 C2049.2,40.4 2054.2,40.1 2169.4,36.9 C2228.3,35.3 2284.3,33.9 2294,33.9 C2332,33.9 2354.2,38.2 2387.5,52.3 C2394.6,55.3 2400.4,58.2 2400.4,58.7 C2400.4,60.5 2375.4,88.2 2362.5,100.7 C2342.9,119.6 2319.4,137.8 2292.5,154.9 C2285.7,159.2 2257.3,176.1 2229.3,192.4 C2180.6,220.9 2152.5,237.8 2143.1,244.2 C2130.4,252.8 1979.1,381.8 1923.6,431.4 L1861.4,486.9 L1778.6,572.4 L1695.8,657.9 L1575.5,798.2 L1455.3,938.4 L1380.4,1036.9 C1307.3,1133.1 1304,1137.5 1242.5,1226.4 C1200.8,1286.7 1179.4,1318.4 1179.1,1320.5 L1178.7,1323.5 L1197.6,1327.7 C1215.8,1331.8 1219.3,1332.2 1312.9,1341 C1366,1346 1412.3,1350.5 1415.9,1351 C1419.5,1351.5 1434.6,1352.4 1449.4,1352.9 C1479.5,1354 1510.8,1355.9 1606.9,1362.4 C1693,1368.2 1719.4,1369.8 1742.9,1370.7 C1753.6,1371.1 1807.2,1370.8 1861.9,1370.1 L1961.4,1368.9 L1974.4,1365.4 C2000.5,1358.4 2060.3,1345.8 2085.9,1341.9 C2119.3,1336.7 2138.6,1341.6 2156.9,1359.9 C2166.8,1369.7 2172.2,1379 2176.4,1393.4 C2180,1405.5 2180.9,1423.5 2178.5,1432.9 C2169.9,1466.3 2132.2,1501.3 2069.5,1533.9 C2021.6,1558.8 1962.5,1579.5 1937.3,1580 C1930.7,1580.2 1921.8,1577.5 1871.4,1559.9 C1809.4,1538.3 1765.7,1527.5 1719.4,1522.4 C1711.7,1521.5 1591.6,1507.3 1452.5,1490.8 C1313.3,1474.3 1199,1461 1198.4,1461.1 C1197.2,1461.4 1249.1,1834.9 1252.9,1853.7 C1258.3,1879.9 1271,1917.4 1284.1,1945.4 C1306.1,1992.5 1307.9,1997.3 1308.6,2012.5 C1310.7,2055.8 1283.3,2088.8 1207.4,2134.1 C1115.4,2189.1 1068.8,2209.1 1033.1,2208.8 C1026.8,2208.8 1018.8,2208 1013.7,2206.9 L1013.7,2206.9 Z" id="Shape" sketch:type="MSShapeGroup"></path>
        </g>
    </g>
</svg>