<?xml version="1.0" encoding="UTF-8" standalone="no"?>
<svg width="1512px" height="2314px" viewBox="0 0 1512 2314" version="1.1" xmlns="http://www.w3.org/2000/svg" xmlns:xlink="http://www.w3.org/1999/xlink" xmlns:sketch="http://www.bohemiancoding.com/sketch/ns">
    <!-- Generator: Sketch 3.0.4 (8054) - http://www.bohemiancoding.com/sketch -->
    <title>Slice 2</title>
    <desc>Created with Sketch.</desc>
    <defs></defs>
    <g id="Page-1" stroke="none" stroke-width="1" fill="none" fill-rule="evenodd" sketch:type="MSPage">
        <g id="Group" sketch:type="MSLayerGroup" transform="translate(756.100000, 1157.300000) scale(1, -1) translate(-756.100000, -1157.300000) translate(0.600000, 0.800000)" fill="#000000">
            <path d="M578.4,2310.7 C559.7,2305.8 542.6,2292.7 525.1,2269.6 L519.2,2262 L526.3,2251.4 C537.3,2235.1 546.4,2224.7 580.4,2190.3 C598,2172.5 613.7,2155.7 615.9,2152.4 C622.8,2141.8 626.9,2128.8 629.4,2108.7 C631.2,2095.3 631.8,2028.6 630.5,1993.3 C628.5,1939.4 625.5,1891.4 621.4,1850.3 C616.2,1797.8 598.3,1635.8 597.3,1632.3 C593.4,1618.4 585.4,1611.5 568.4,1607.3 C562.2,1605.8 371.6,1575.5 356.9,1573.7 C349.1,1572.7 328.6,1574 315.8,1576.2 C293.9,1580.1 283.4,1583.5 252.4,1596.6 C216.6,1611.8 210,1614.1 201.7,1614.6 C181.6,1615.8 167.1,1601 165.7,1577.8 C164.7,1562.5 170.1,1547.3 183.4,1527.5 C215,1480.2 287.6,1427 338.1,1414.2 C345.4,1412.4 350.3,1411.8 359,1411.8 C376.3,1411.8 389.8,1415.2 432,1430.4 C496.5,1453.6 516.1,1459.7 549.4,1467.2 C560.7,1469.8 570.7,1472.1 571.6,1472.4 C573.1,1472.8 573.2,1472.2 572.8,1467.1 C570.2,1436.7 561.4,1381.3 551,1330.3 C549.1,1321 535.8,1264 521.5,1203.8 C495.7,1095.1 495.3,1093.9 478,1036.8 C461,980.8 459.6,976.5 419.6,868.1 L378.5,756.9 L333.3,669.1 L288,581.3 L215.6,464.3 C175.8,400 137.3,338.3 129.9,327.3 C108.6,295.3 86.1,265.8 56.1,230.4 C14.4,181.4 5.3,169.6 1.9,159.9 C-4.8,140.8 10,128 30.7,134.9 C52.4,142.2 94,172 144.9,216.7 C178.3,246.1 223,289 244.1,311.9 C265.1,334.7 395.9,499.2 405.6,515 C409.7,521.8 423.6,544.1 436.4,564.7 C520.9,700.7 554.3,766 588.7,862.3 C604.4,906.3 628.3,980.8 660,1083.9 C670,1116.4 672,1122.3 673.1,1120.9 C675.3,1118.1 683.2,1098.6 685.7,1089.8 C692.7,1065.6 695.3,1033.5 693.6,992.5 C693,977.6 684.5,851.9 674.9,713.3 L657.3,461.3 L657.8,369.3 C658.2,279.2 658.8,261.2 662,227.8 C669.1,153.1 690.4,102.2 728.4,69.1 C780,24 864.2,2.3 995.9,0.1 C1035.2,-0.5 1205.1,1.3 1246.9,2.8 C1293.1,4.5 1333.8,11.4 1386.2,26.4 C1460.6,47.6 1487.7,63.4 1503.3,94.5 C1509,105.9 1510.8,114.6 1510.9,130.3 C1510.9,144.3 1510.9,144.4 1507.5,151 C1503.3,159.3 1494.4,171.2 1475,194.2 C1440.6,234.8 1436.9,240.9 1430.9,266.3 C1427.4,280.8 1425.7,291.2 1400.9,455.8 C1387.6,543.7 1377.8,605.9 1377,606.8 C1372.2,612.6 1359.9,626.4 1359.3,626.6 C1359,626.8 1356.2,623.9 1353.3,620.2 L1348,613.5 L1344.1,593.4 C1342,582.3 1331.3,513.7 1320.4,440.8 C1309.4,367.9 1298.9,300.4 1297,290.8 C1285.9,235.3 1269.7,206.4 1239.8,188.7 C1215.8,174.6 1183.3,167.7 1126.4,164.8 C1100.6,163.5 983,163.5 957.2,164.8 C848.6,170.4 816.2,192.1 805.8,266.3 C804.2,277.4 803.9,285.8 804,323.8 C804,365 804.6,378.7 811.3,508.8 L818.5,649.3 L831.9,742.3 C839.3,793.5 846.2,843.2 847.4,852.8 C852.1,892.3 859.1,925.4 867.5,947.8 C886.8,999.4 895.5,1023.4 896.9,1028.8 C899.4,1038.4 898.5,1054.6 894.9,1065.8 C883.5,1101.2 848.1,1141.6 790.9,1184.8 C771.7,1199.3 754.7,1210.5 738.6,1219.4 C715.7,1232.1 707.9,1238.9 704.3,1249.3 C701.3,1258.2 702.4,1265.6 723.3,1376.3 C743.6,1483.8 747.4,1501.7 751.7,1511.1 C756.6,1521.7 761,1524.1 788.4,1530.7 C806.4,1535.1 867.9,1547.6 883.9,1550.2 C889.4,1551.1 941.4,1557.3 999.4,1563.9 L1104.9,1576 L1144.4,1574.8 C1194.6,1573.4 1206.6,1572.6 1252.4,1567.7 C1304.5,1562.1 1303.8,1562.1 1312.1,1564.6 C1331,1570.4 1348.5,1590.9 1354.4,1614.2 C1356.9,1624 1357.1,1639.8 1354.9,1648.2 C1350.5,1664.9 1342.5,1677.9 1327,1693.3 C1314.4,1705.8 1309.2,1709 1288.6,1716.8 C1256.5,1728.8 1203.5,1742 1186.9,1741.9 C1183.6,1741.9 1172.6,1740.3 1162.4,1738.3 C1045.4,1715.5 1018.5,1709.8 902.3,1683.2 C833.7,1667.6 777.3,1654.8 777,1654.8 C776.7,1654.8 776.4,1660.7 776.4,1667.9 C776.4,1678.7 780.3,1714.2 798.9,1870.5 L821.4,2059.9 L829.5,2091.4 C843.2,2145.2 844.5,2153.9 840.3,2167.4 C837.6,2176.2 834.9,2181.4 828.3,2190.7 C807,2221 752.8,2257 685.9,2285.6 C658.8,2297.2 627.8,2307.8 611.1,2311.2 C600.8,2313.4 587.7,2313.2 578.4,2310.7 L578.4,2310.7 Z" id="Shape" sketch:type="MSShapeGroup"></path>
        </g>
    </g>
</svg>