<?xml version="1.0" encoding="UTF-8" standalone="no"?>
<svg width="2441px" height="2167px" viewBox="0 0 2441 2167" version="1.1" xmlns="http://www.w3.org/2000/svg" xmlns:xlink="http://www.w3.org/1999/xlink" xmlns:sketch="http://www.bohemiancoding.com/sketch/ns">
    <!-- Generator: Sketch 3.0.4 (8054) - http://www.bohemiancoding.com/sketch -->
    <title>Slice 2</title>
    <desc>Created with Sketch.</desc>
    <defs></defs>
    <g id="Page-1" stroke="none" stroke-width="1" fill="none" fill-rule="evenodd" sketch:type="MSPage">
        <g id="Group" sketch:type="MSLayerGroup" transform="translate(1220.300000, 1083.500000) scale(1, -1) translate(-1220.300000, -1083.500000) translate(0.300000, 0.000000)" fill="#000000">
            <path d="M698.1,2165.6 C687.6,2163.2 678.5,2157.7 642.6,2131.9 C620.6,2116.1 612.1,2110.7 597.9,2103.6 C543,2076.1 435.9,2040.9 362.2,2026.1 C333.3,2020.3 321.5,2018.8 297.9,2018.3 C273,2017.7 256.3,2018.9 236.2,2022.6 C204.3,2028.4 193.2,2033.5 162.6,2056.5 C130.4,2080.6 123.3,2084 105.2,2084 C85,2084 72.2,2076.8 64.5,2061.3 C60.2,2052.4 59.6,2042.8 62.7,2027 C68.7,1995.4 84.1,1963.8 106.6,1936.8 C118.6,1922.4 151,1892.4 177.2,1871.3 C209.6,1845.2 227,1837 247.2,1838.3 C258.4,1839 277.1,1845.3 397.7,1888.7 C480.9,1918.6 621,1965.8 623.8,1964.8 C624.5,1964.5 608.6,1921.7 591.9,1879 C540.3,1747.1 488,1626.4 449.2,1549.5 C426.3,1504.1 414.8,1484.5 393.4,1454 C372.9,1424.9 369.1,1414.8 370,1391.5 C370.6,1376.3 372.2,1368.3 378.2,1350.4 C386.5,1325.4 398.8,1303.7 412.2,1290.5 C420.6,1282.2 428.8,1277.6 438.4,1275.8 C443.9,1274.8 445.3,1274.9 450.9,1276.7 C461.7,1280.3 478.2,1287.7 504.2,1300.5 C531.5,1314 542.9,1318.1 572.6,1325.5 C619.9,1337.3 653.5,1341.6 665.8,1337.5 C672.7,1335.2 678.8,1329 681.3,1321.9 C684.3,1313.4 683.8,1294.6 680.3,1275.5 C668.1,1210.2 627.6,1078.8 583,959 C563.2,905.9 530.9,827.3 529,827.7 C528.5,827.8 500.4,845.2 466.6,866.3 C319.8,958.1 161.2,1056.3 155.9,1058.6 C125.3,1072.3 94.9,1078.6 70.9,1076.1 C40,1072.9 16.2,1059.7 5.2,1039.9 C2.6,1035.2 2.2,1033.5 2.2,1027 C2.3,1015.6 4.6,1009.9 12.6,1002 C20.5,994.2 29,989.6 61.7,975.5 C88.2,964 100.1,958.2 111.7,950.8 C116.4,947.8 199,895.5 295.2,834.6 C391.5,773.6 470.8,723.2 471.5,722.6 C472.4,721.7 470.6,717.9 462.4,704.5 C433.3,656.5 398.3,605.3 369.3,568.5 C324.5,511.4 271.4,455.9 208.2,400 C185.8,380.2 173.3,370.3 97.7,312.5 C25.1,257 -0.6,236.5 -5.68416841e-14,234.6 C0.2,234 3.7,232.5 7.8,231.2 C19.2,227.6 27.1,228.4 47.7,235.3 C84.3,247.4 141.9,272 179.7,291.7 C306.9,358 420.9,454.9 527.7,587.5 C541.2,604.3 577.4,651.9 579.5,655.7 C580.4,657.1 609.7,640.7 790.8,537.3 L1001.2,417.3 L1168.7,328.4 L1336.2,239.5 L1548.7,138.7 C1801.3,18.8 1812.7,13.6 1836,6.1 C1865.1,-3.2 1871.3,-2.9 2016.9,14 C2049.7,17.9 2086.1,21.9 2097.9,23 C2171,30 2332.2,46.5 2347.7,48.6 C2391,54.4 2409.7,59.1 2431.5,69.7 C2441.9,74.8 2441.4,73.5 2437.1,84.5 C2429.9,102.5 2418.4,110.7 2385.2,121.5 C2362.5,129 2339.8,134.5 2119.2,186.4 L1922.2,232.8 L1870.2,248.4 C1795.2,270.9 1613.8,334.1 1396.2,413.5 L1228.1,474.9 L1043.1,558.7 L858.1,642.5 L753.4,699.5 C695.8,730.9 648.7,756.9 648.7,757.3 C648.7,757.8 656,771.1 664.9,786.8 C705.5,858.8 738.9,923.2 757.7,966 C777.3,1010.4 782.3,1024.4 832.6,1177.5 C846.5,1219.5 856.9,1249.4 860.5,1257.5 C867.6,1273.5 875.9,1287.6 882.7,1295.5 C898.6,1313.8 902.7,1321.6 902.7,1333.8 C902.7,1357.5 868.5,1409 824.1,1452 C809.3,1466.3 798.6,1474.7 788,1480.2 C781.9,1483.3 779.6,1484 774.8,1484 C764.4,1484 744.5,1478 689.7,1458.2 C650.9,1444.3 631,1439.1 590.2,1432.6 C573.5,1429.9 540.6,1426 534.9,1426 L531.7,1426 L538.7,1436.4 C570.9,1484.5 630.7,1595.8 731.7,1796 C758,1848 782.7,1896.4 786.7,1903.5 C807.7,1941.3 820.8,1959.8 848.3,1990.6 C853.7,1996.7 862.2,2006.1 867.1,2011.6 C879.3,2025.2 882.5,2030.3 883.7,2037.8 C886.4,2054.4 878,2072.7 859.2,2091.5 C834.9,2115.9 790.9,2142 748.3,2157.4 C724.9,2165.9 710.1,2168.3 698.1,2165.6 L698.1,2165.6 Z" id="Shape" sketch:type="MSShapeGroup"></path>
        </g>
    </g>
</svg>