<?xml version="1.0" encoding="UTF-8" standalone="no"?>
<svg width="1213px" height="2388px" viewBox="0 0 1213 2388" version="1.1" xmlns="http://www.w3.org/2000/svg" xmlns:xlink="http://www.w3.org/1999/xlink" xmlns:sketch="http://www.bohemiancoding.com/sketch/ns">
    <!-- Generator: Sketch 3.0.4 (8054) - http://www.bohemiancoding.com/sketch -->
    <title>Slice 2</title>
    <desc>Created with Sketch.</desc>
    <defs></defs>
    <g id="Page-1" stroke="none" stroke-width="1" fill="none" fill-rule="evenodd" sketch:type="MSPage">
        <g id="Group" sketch:type="MSLayerGroup" transform="translate(606.200000, 1193.600000) scale(1, -1) translate(-606.200000, -1193.600000) translate(0.200000, 0.100000)" fill="#000000">
            <path d="M642.8,2385.8 C627,2382 619.3,2374.9 612.8,2357.9 L609.8,2350.1 L616.2,2332.8 C624.4,2310.8 635.1,2277.8 638.9,2263.3 C642.1,2250.8 642.5,2242.3 640.8,2226.6 C633.5,2162 603,2077.9 540.8,1951.6 C532.7,1935.1 523.7,1918.1 520.9,1913.7 C504.6,1889.1 487.4,1880.7 448.3,1878.5 C433.6,1877.7 423.6,1879.1 415,1883.1 C411.6,1884.7 401,1890.9 391.5,1896.8 C370.2,1910.1 348.6,1921.2 338.7,1923.7 C332.8,1925.2 327.8,1925.6 314.3,1925.6 C296.3,1925.5 294,1925.2 271.6,1919.4 L258,1915.9 L256.7,1905.7 C256,1900.2 255.4,1890.4 255.3,1884.1 L255.3,1872.6 L263.2,1856.1 C288.8,1802.7 296.1,1785.4 302.7,1762.8 C309.7,1738.8 310.2,1734.1 317.8,1610.6 L324.7,1496.6 L327.4,1373.1 C328.8,1305.2 329.8,1242.2 329.6,1233.1 C329.2,1214.3 327.8,1209.5 321.5,1204.7 C312.5,1197.8 277.9,1188.9 229.8,1181.1 C192.8,1175.2 179.3,1173.7 159.8,1173.7 C143.1,1173.6 140.7,1173.8 134.8,1175.9 C124,1179.6 119.4,1183.9 112.5,1196.6 C97.9,1223.7 82.7,1242.3 69.9,1248.9 C64.3,1251.7 62.5,1252.1 55.7,1252.1 C46.1,1252.1 39.3,1249.8 31,1243.6 C11.9,1229.6 -1.5,1195.5 0.1,1164.7 C1.2,1143.3 11.2,1114.5 30.8,1076.4 C55.3,1028.7 83.4,995.1 108.6,983.3 C113.7,980.9 115.5,980.6 124.8,980.6 C139.8,980.6 147.2,983.1 221.3,1013.1 C245.5,1022.9 271.1,1033 278.2,1035.6 C291.1,1040.4 309.9,1046.1 312.4,1046.1 C313.6,1046.1 313.8,1041.3 313.8,1019.4 C313.8,933 300.6,794.9 281.8,685.1 C266.9,598.5 250.2,533.2 218.3,437.6 C181,325.4 150.8,258.8 71.8,113.5 L58.1,88.3 L56.9,77.8 C56.2,72 55.9,66.7 56.3,66.1 C57.9,63.5 64.9,61.1 71,61.1 C82,61.2 92.2,67.5 108.3,84.2 C121.6,98.1 129.6,108.2 165.3,156.6 C246.2,266.5 277.9,315.9 310.9,383.6 C343.3,450.2 373.8,532.4 392.6,604.1 C413.4,683 432.4,798.4 444.2,916.6 C449.3,967.3 453.8,1027.7 453.8,1045.5 C453.8,1066 456.7,1081.1 461.6,1086.4 C470.8,1096.2 518.9,1114 619.3,1144.6 C688.9,1165.8 688,1165.5 806.6,1210.1 C877.3,1236.7 915.4,1250.6 915.7,1249.8 C915.9,1249.1 915.6,1137 914.9,1000.6 L913.7,752.6 L906.7,540.6 C901.8,390.3 899.4,325.8 898.4,319.1 C894.2,292.4 884.2,271.5 870.6,261.5 C857,251.5 850.6,251.6 737.8,262.7 C623.1,274 623.4,274 604.8,267.9 L594.3,264.5 L594,259.9 C593.7,255.4 593.8,255.2 599.5,250.8 C613.7,239.9 639.7,224.3 677.3,204.1 C745.1,167.7 765.6,155.1 790.2,134.5 C812.4,115.9 825.1,101.8 857.6,59.5 C899.1,5.4 906.2,0.1 936.3,0 C946.2,0 951.2,0.5 957.3,2.1 C978.5,7.5 996,21.1 1011.4,44.1 C1035.8,80.8 1048.3,135.2 1053.8,229.1 C1057,284.7 1057.1,299.8 1057.5,801.5 C1057.9,1302 1057.9,1306.5 1059.9,1309.7 C1064.6,1317.4 1082,1328 1127.3,1350.8 C1164,1369.2 1181.2,1378.6 1192.6,1386.3 C1213,1400 1218.1,1411.9 1206.1,1417.3 C1198.9,1420.6 1181.1,1421 1165.1,1418.2 C1145.6,1414.9 1070.2,1397.5 1062.3,1394.5 C1061,1394 1060.8,1396.6 1060.8,1416.7 C1060.8,1463.2 1065.8,1707.6 1066.8,1713.5 C1068.6,1722.7 1073.6,1739.4 1090.4,1790.8 C1098.9,1817.1 1106.8,1842.1 1107.9,1846.4 C1109.8,1853.8 1109.8,1854.6 1108.3,1860.3 C1105.3,1872.2 1096.5,1884.3 1077.2,1903.1 C1046.1,1933.4 997.8,1965.2 974.7,1970.5 C965.2,1972.8 956.9,1971.2 903.1,1956.7 C887.8,1952.6 870.7,1948.1 865.2,1946.7 C856.7,1944.5 639.7,1907.8 639.2,1908.4 C638.9,1908.7 838.9,2163.3 844,2169.2 C856.1,2182.9 861.6,2203.3 857.7,2219.9 C854.6,2232.9 843.8,2250 826.7,2269.1 C816.6,2280.3 751.4,2342.2 735.9,2355.3 C718.1,2370.4 702.5,2379.3 686.5,2383.7 C675.2,2386.8 651.8,2387.9 642.8,2385.8 L642.8,2385.8 Z M894.6,1827.5 C904.6,1824.7 909.9,1816.7 913.4,1798.8 C914.8,1791.6 915.1,1773.1 915.8,1650.1 C916.2,1572.8 917.1,1477.5 917.7,1438.2 C919,1362.2 918.8,1358.3 914.4,1354.2 C913.2,1353.1 909.3,1351 905.7,1349.6 C893.7,1344.8 809.7,1318.7 746.8,1300.1 C715.4,1290.8 489.7,1234.1 484.2,1234.1 L480.6,1234.1 L481.2,1253.4 C481.6,1263.9 482.3,1367.6 482.8,1483.6 C483.4,1642.5 483.9,1701.9 485,1724.3 C486.5,1753.7 486.5,1754 489.4,1759.8 C494.2,1769.4 503.6,1774.1 528.8,1779.5 C546.8,1783.3 759.8,1817.7 783.3,1820.5 C794.9,1821.9 815.3,1824.2 828.8,1825.6 C872.5,1830.1 884,1830.4 894.6,1827.5 L894.6,1827.5 Z" id="Shape" sketch:type="MSShapeGroup"></path>
            <path d="M573.5,1692.4 C572.7,1691.1 577.2,1664 580,1653.7 C582.9,1642.8 586.2,1634.7 602.2,1599.9 C631,1536.9 639.6,1513.8 652.4,1464.6 C669.8,1398.1 679.5,1375.1 697.5,1358 C704.2,1351.6 709.2,1348.8 717.5,1346.6 C755.9,1336.6 799.4,1379.2 809.3,1436.5 C814.7,1468 807,1493.4 780.2,1533.3 C735.6,1599.7 653.2,1671.3 601.5,1688.6 C590.3,1692.3 574.7,1694.4 573.5,1692.4 L573.5,1692.4 Z" id="Shape" sketch:type="MSShapeGroup"></path>
            <path d="M567.5,1078 L564.8,1065.9 L580.7,1031.7 C598.3,993.8 601.2,987 603.5,977.5 C605,971.4 604.9,964.1 602.4,870.8 C600.9,815.7 597.7,718 595.2,653.6 C589.3,502 589.5,478.7 597.3,448.5 C601,434.1 607.4,421.6 615.3,413.2 C626.1,401.8 637.7,397.1 655.1,397.1 C671.9,397.1 683.5,402.4 695.8,415.8 C714.2,435.7 724.7,464.9 732.6,517.6 C734.1,527.3 734.3,542.4 734.4,643.1 L734.6,757.6 L740.7,865.7 C744,925.1 746.8,976.3 746.8,979.3 C746.8,984.7 746.5,985.2 739.6,994.3 C730.1,1006.7 706.6,1030 694.8,1038.8 C672.6,1055.3 649.6,1067 619,1077.5 C606.2,1081.9 575.5,1090.1 571.9,1090.1 C570.5,1090.1 569.7,1087.7 567.5,1078 L567.5,1078 Z" id="Shape" sketch:type="MSShapeGroup"></path>
        </g>
    </g>
</svg>