<?xml version="1.0" encoding="UTF-8" standalone="no"?>
<svg width="2415px" height="2452px" viewBox="0 0 2415 2452" version="1.1" xmlns="http://www.w3.org/2000/svg" xmlns:xlink="http://www.w3.org/1999/xlink" xmlns:sketch="http://www.bohemiancoding.com/sketch/ns">
    <!-- Generator: Sketch 3.0.4 (8054) - http://www.bohemiancoding.com/sketch -->
    <title>Slice 2</title>
    <desc>Created with Sketch.</desc>
    <defs></defs>
    <g id="Page-1" stroke="none" stroke-width="1" fill="none" fill-rule="evenodd" sketch:type="MSPage">
        <g id="Group" sketch:type="MSLayerGroup" transform="translate(1207.200000, 1225.700000) scale(1, -1) translate(-1207.200000, -1225.700000) translate(0.100000, 0.200000)" fill="#000000">
            <path d="M1106.9,2449.2 C1083.9,2444.3 1069,2433 1062.8,2415.7 C1061.3,2411.7 1060.5,2406.3 1060.1,2399.4 L1059.6,2389.2 L1071.5,2376.9 C1099.6,2348 1108.9,2331.1 1107.6,2310.7 C1105.4,2274.3 1070,2198.7 1010.6,2103.2 C991.2,2072 962.1,2029.5 955,2021.9 C949.8,2016.2 939.1,2012.5 910.9,2006.7 C871.6,1998.7 797.1,1988.2 778.8,1988.2 C768.9,1988.2 754.7,1992.1 714.4,2005.9 C655.3,2026 635.7,2031.8 623.4,2032.8 C607.1,2034.1 582.1,2025.1 570.4,2013.8 C560.8,2004.4 557.1,1992.8 560.3,1982 C562.7,1973.6 568.6,1966.6 600,1934.7 C630.2,1904 632.2,1901.5 638.9,1885.1 C648.7,1861.5 656.4,1824.2 660.4,1780.2 C662.2,1760.8 662.7,1745.9 668,1542.2 C674.5,1290.5 675.2,1239.4 671.9,1234.5 C668.9,1229.9 661,1228.1 635.9,1226.2 C617.3,1224.9 591.5,1221.6 540.4,1214.1 C501.8,1208.4 493.4,1207.6 395.9,1199.5 C302.3,1191.8 289.3,1190.9 259.8,1190.5 C224.9,1189.9 206.4,1190.8 182.4,1194.3 C154,1198.3 132.3,1204.4 114.1,1213.4 C104.8,1218 101.8,1220.3 80.2,1239.4 C61,1256.3 56.2,1260.1 54.5,1259.6 C53.3,1259.2 47.3,1256.8 41.1,1254.1 C11.6,1241.7 1,1230.6 0.1,1211.2 C-1.2,1183.6 14.6,1160.5 73.1,1104.5 C127.7,1052.1 158.7,1030.6 188,1024.6 C210.5,1020.1 255.1,1025.8 363.4,1047.2 C385.4,1051.6 452,1064.5 511.4,1076.1 C615.2,1096.2 633.1,1099.2 650.5,1099.3 C663.2,1099.5 663.6,1098.3 662.1,1065.8 C661.4,1052 660.9,1028.1 660.9,1012.7 C660.9,950 656.5,887.2 646.3,802.2 C631.3,677 610.1,565.5 587.7,493.7 C558.2,399.2 491.8,258.3 409.4,115.7 C395.5,91.5 383.2,67.7 380.3,59.2 C379,55.4 378.5,50.8 378.4,44.2 C378.4,35.9 378.7,34.2 380.8,30.8 C383.4,26.7 389.4,23.3 394.2,23.2 C401.5,23.2 415.8,30.7 431.2,42.8 C499.5,96.7 600.3,229.6 667.8,354.9 C679.4,376.4 699.2,417.2 709.4,440.7 C769.9,579.4 803.4,724.9 819.4,918.2 C823.4,967.2 828.5,1050.7 830.5,1101 L831.2,1118.4 L833.8,1119.4 C835.2,1119.9 843.2,1122.3 851.5,1124.7 C878.4,1132.5 898,1135.5 957.9,1141.2 C975.2,1142.8 1073.3,1152.7 1175.9,1163.2 C1358.4,1181.9 1364.9,1182.5 1478.4,1190.8 C1542.2,1195.5 1600.5,1199.7 1607.9,1200.1 C1619.7,1200.7 1647.6,1199.8 1648.7,1198.8 C1650.1,1197.3 1651.3,1100.3 1654.1,759.2 C1657.3,352.6 1657.3,346.5 1653.3,319.6 C1647.7,281.7 1634,264.3 1603.9,256.8 C1586.5,252.4 1579.9,252 1522.4,251.5 C1437,250.7 1338.8,254.3 1294.9,259.8 C1288.6,260.5 1282.8,261.2 1282.2,261.2 C1281.2,261.2 1280.9,258.1 1280.9,248.8 L1280.9,236.4 L1287.9,231.8 C1306.4,219.6 1325.3,210.6 1376.6,189.6 C1455.2,157.4 1502.6,134 1542.9,107.3 C1559.5,96.3 1570.8,87.2 1596,64.6 C1658.6,8.6 1668.9,1.8 1694.4,0.3 C1710.3,-0.6 1722.3,0.6 1733.2,4.2 C1759.1,12.9 1778.2,31.9 1794,64.7 C1816.6,111.7 1827.9,182.2 1827.9,277.2 C1827.9,325 1815,1127.5 1813.9,1148.7 C1812.4,1177.3 1812.6,1194 1814.5,1199.5 C1816.3,1204.9 1821.2,1209.6 1826.6,1211.2 C1828.7,1211.8 1839.2,1212.8 1849.9,1213.3 C1860.6,1213.9 1884,1215.2 1901.9,1216.3 C1943.2,1218.9 1953.8,1219.1 2162.9,1220.7 C2354.6,1222.3 2343.9,1221.8 2365.1,1228.8 C2390.3,1237.2 2406.9,1253.1 2412.4,1274.2 C2414.9,1283.6 2414.8,1298.9 2412.1,1307.2 C2405.1,1328.6 2383.5,1348.7 2350.4,1364.7 C2316,1381.3 2269.1,1393.1 2236.7,1393.3 C2223.8,1393.4 2216.3,1392.4 2163.4,1383.6 C2133.8,1378.7 2140.7,1379.3 1923.2,1362.1 C1865.8,1357.5 1818.7,1354.1 1818.3,1354.4 C1816.7,1356 1814.6,1443.8 1814.6,1508.7 C1814.5,1573.5 1814.8,1586.5 1818.7,1684.7 C1821,1743 1823.1,1793 1823.5,1795.7 C1823.8,1798.5 1825.8,1813.3 1827.9,1828.7 C1830,1844.1 1832.3,1861.4 1832.9,1867.2 C1833.5,1873.8 1837.2,1891.4 1842.9,1914.7 C1857.3,1974.4 1858.8,1984.5 1855.8,1996.8 C1849.2,2023.6 1818.4,2053.3 1768.4,2081.3 C1737.3,2098.7 1698.4,2114.7 1667.8,2122.8 C1659.3,2125.1 1655.2,2125.6 1645.4,2125.6 C1630.2,2125.7 1626.3,2124.4 1599.9,2110.9 C1589.2,2105.4 1576.4,2098.8 1571.4,2096.3 C1557.8,2089.3 1541.2,2084.3 1515.9,2079.7 C1503,2077.3 1076.9,2019.8 1076.4,2020.4 C1076.2,2020.6 1098.6,2046.1 1126.1,2077.2 C1166.2,2122.4 1190.6,2148.7 1248.2,2208.7 C1322.1,2285.6 1327.2,2291.4 1332,2304 C1335,2311.9 1335.6,2322.5 1333.5,2329 C1324.6,2355.7 1274.1,2396.5 1214.4,2425.3 C1169.5,2446.9 1133.6,2454.9 1106.9,2449.2 L1106.9,2449.2 Z M1619.5,1956.7 C1635.6,1953.9 1643,1948.5 1644.3,1938.4 C1647.4,1915.6 1649.1,1748.7 1648.7,1524.2 C1648.3,1364.8 1648.2,1355.4 1646.5,1350.3 C1645.5,1347.3 1643.4,1343.6 1641.8,1342.1 C1636.5,1337.2 1635.3,1337 1555.4,1331.7 C1499.6,1328 1328.9,1311.1 1145.4,1291.2 C1071.2,1283.1 842.8,1260 842.3,1260.5 C842.2,1260.6 840.3,1391.4 838.1,1551.2 C835.5,1738.4 834.4,1844.1 835,1848.6 C836.5,1860.6 840.8,1866.4 850.1,1869.3 C851.9,1869.9 866,1871 881.4,1871.7 C910.1,1873.1 920.2,1874.4 962.4,1882.2 C993.7,1888 1346.2,1932.4 1450.4,1943.7 C1503.8,1949.5 1553,1954.9 1559.9,1955.7 C1577.2,1957.8 1578.5,1957.8 1595.5,1958 C1605.3,1958.1 1613.8,1957.7 1619.5,1956.7 L1619.5,1956.7 Z" id="Shape" sketch:type="MSShapeGroup"></path>
            <path d="M1044.4,1801.5 C1036.7,1800.5 1018.3,1796.9 1017.6,1796.2 C1014.9,1793.7 1025.8,1773.2 1039.4,1755.2 C1101.5,1673.1 1147.4,1593.1 1184.7,1501.6 C1215.2,1427 1227.4,1403.4 1240.2,1394.6 C1247.3,1389.7 1251.7,1388.7 1266.9,1388.7 C1278.5,1388.7 1281.3,1389.1 1286.9,1391 C1311.1,1399.6 1332.4,1424.8 1343.2,1457.4 C1349.1,1475.1 1350.4,1484 1350.4,1506.7 C1350.4,1530.5 1349.5,1536.6 1342.9,1556.5 C1321.7,1620.2 1253.3,1691.3 1153.9,1752.9 C1119,1774.6 1080.6,1794 1060.5,1800.1 C1054,1802.1 1051,1802.4 1044.4,1801.5 L1044.4,1801.5 Z" id="Shape" sketch:type="MSShapeGroup"></path>
            <path d="M1117.1,1104.5 L1107.8,1104.1 L1108.1,1088.3 L1108.4,1072.4 L1113.9,1067.1 C1131.1,1050.4 1143.6,1001.5 1146.9,937.6 C1147.7,921.7 1147.3,884.1 1144.9,754.6 C1142.9,645.7 1142.2,589 1142.9,583.6 C1147.2,545.4 1167.3,516 1199.9,500.2 C1211.4,494.7 1220.6,492.8 1234,493.4 C1244.3,493.8 1245.3,494.1 1253.2,498 C1281.6,512.1 1299,553.4 1304.9,620.7 C1305.8,630.5 1305.8,672 1304.8,788.3 L1303.5,942.9 L1308.7,967.8 C1315.7,1001.3 1317.2,1010.9 1316.5,1016.1 C1313.5,1038.1 1285.9,1057.4 1219.4,1084 C1189.7,1095.9 1176.4,1100.5 1164.9,1102.7 C1156.1,1104.4 1133.7,1105.2 1117.1,1104.5 L1117.1,1104.5 Z" id="Shape" sketch:type="MSShapeGroup"></path>
        </g>
    </g>
</svg>