<?xml version="1.0" encoding="UTF-8" standalone="no"?>
<svg width="1477px" height="2386px" viewBox="0 0 1477 2386" version="1.1" xmlns="http://www.w3.org/2000/svg" xmlns:xlink="http://www.w3.org/1999/xlink" xmlns:sketch="http://www.bohemiancoding.com/sketch/ns">
    <!-- Generator: Sketch 3.0.4 (8054) - http://www.bohemiancoding.com/sketch -->
    <title>Slice 2</title>
    <desc>Created with Sketch.</desc>
    <defs></defs>
    <g id="Page-1" stroke="none" stroke-width="1" fill="none" fill-rule="evenodd" sketch:type="MSPage">
        <g id="Group" sketch:type="MSLayerGroup" transform="translate(738.500000, 1193.000000) scale(1, -1) translate(-738.500000, -1193.000000) translate(0.000000, 0.500000)" fill="#000000">
            <path d="M460.8,2384.5 C443.8,2382.5 430.2,2375.8 425.9,2367.2 C424.2,2363.9 423.8,2361.9 424.2,2356.6 C424.7,2349.8 425.7,2347.1 446,2297.6 C456.7,2271.5 458.3,2265.2 457.6,2253 C455.1,2207.8 417.6,2100.2 359.5,1972 C308.4,1859.2 243.9,1736.2 177.7,1625.5 C143.2,1567.8 124.9,1539.7 89.4,1490 C23,1396.8 0,1361 0,1351 C0,1340.9 4.9,1337.5 19.4,1337.5 C55.1,1337.5 99.2,1360.3 154,1407.1 C170.3,1421 218.7,1469.6 238.5,1492 C252.7,1508 291.9,1554.5 302.7,1568 L305.8,1572 L306.4,1568.5 C306.7,1566.6 307.8,1549.9 309,1531.5 C310.1,1513.1 311.7,1487.4 312.5,1474.5 C313.7,1455.4 314,1417.1 314,1268 L314,1085 L309.1,885.5 C306.4,775.8 303.4,674.1 302.5,659.5 C299.7,611.5 284.8,182.4 285.4,165.5 C288.2,89 316.2,27.8 357.7,7.1 C368.3,1.8 375.7,0.1 388.5,6.82121026e-13 C401.7,6.82121026e-13 408,1.7 417,7.6 C441.1,23.8 456.4,68.2 458.7,129 L459.3,146 L484.4,148.8 C498.2,150.3 528.1,153.5 550.8,156 C579.2,159.1 679.8,167.4 873.8,182.5 L1155.5,204.6 L1275,207.5 C1401.8,210.7 1401.2,210.6 1420.5,216.1 C1430.4,218.9 1447.3,226.5 1454.5,231.5 C1462.2,236.8 1469.8,245.2 1473.1,252.2 C1480.1,266.9 1476.9,290.3 1465,310.5 C1456,325.8 1439.3,343.4 1422,355.7 C1402.8,369.4 1375.3,381.3 1354.5,384.9 C1331,389 1314.2,386.5 1243,368 C1183.2,352.5 1157.2,346.7 1135,344 C1123.9,342.6 951,330.4 950.3,330.9 C950.2,331 950.5,342.8 951,357 C951.6,371.3 952.7,448.9 953.5,529.5 C954.9,662.2 956.4,742.7 957.6,751.1 C958,754.2 958.2,754.2 964.8,754.9 C968.5,755.3 993.6,758.7 1020.5,762.6 L1069.5,769.6 L1176,775 C1234.6,777.9 1285.3,780.6 1288.6,780.9 C1305.3,782.5 1325.2,794.1 1336,808.3 C1344,818.9 1345.5,823.8 1345.5,838 C1345.5,848.5 1345.1,850.9 1342.8,857.4 C1337.2,872.8 1324.1,890.4 1308.8,903.3 C1281.3,926.4 1250.1,938.7 1219,938.6 C1200,938.6 1159.6,931.3 1060.5,910 C1013.8,899.9 972.8,891.2 969.5,890.5 C966.2,889.9 962.7,889.1 961.8,888.9 C960.1,888.4 960,890.4 960,921.7 C960,983.3 962.9,1167.8 964.1,1186.5 C964.8,1196.9 965.8,1205.5 966.4,1206.2 C967.7,1207.5 1010.1,1216.3 1033,1219.9 C1054.2,1223.3 1052.8,1223.2 1184,1235.5 C1248.1,1241.6 1304.2,1247.2 1308.6,1248 C1337,1253.2 1355.2,1268.2 1360.5,1290.7 C1362.9,1301 1362.5,1316.9 1359.5,1326.2 C1346.5,1367.2 1287.4,1401.1 1228.1,1401.6 C1217.3,1401.7 1212.9,1401.2 1197.5,1398.1 C1178.8,1394.3 1131.6,1382.7 1096,1373.1 C1066.8,1365.3 1059.5,1363.9 970.5,1349.2 L968.4,1348.9 L968.8,1444.4 L969.2,1540 L967,1546.5 C961.5,1563.1 937.9,1598.8 920.4,1617.1 L915.5,1622.2 L966,1630 C1050.6,1643 1082.3,1647.5 1112,1650.9 C1119.4,1651.8 1180.7,1656.5 1248.2,1661.5 C1365.4,1670.1 1380,1671.5 1390.2,1675.1 C1404.4,1680.1 1414.1,1691.5 1418.7,1708.5 C1421.2,1717.7 1421.2,1742.5 1418.7,1751.5 C1416,1761.5 1410,1773.2 1403.2,1781.6 C1382.1,1807.8 1340.3,1826.9 1296.5,1830.4 C1282.8,1831.5 1272.5,1830.6 1254.9,1826.9 C1241.6,1824.1 1248.6,1826.1 1139,1794.3 L1054.5,1769.7 L1021.5,1764 C1003.4,1760.9 980.6,1756.8 971.1,1754.9 C961.5,1753.1 953.4,1751.7 953.2,1752 C953,1752.2 956.4,1763.3 960.9,1776.7 C965.6,1791.1 982,1848.8 1001,1918 C1018.7,1982.4 1033.8,2037.4 1034.6,2040.2 C1035.7,2044.1 1038.5,2048.4 1045.1,2056.7 C1061.6,2077.3 1067.8,2090.7 1068.7,2108 C1069.2,2116.9 1069.2,2117.1 1065.1,2125 C1057.7,2139.9 1043.3,2157.1 1027.2,2170.6 C988,2203.4 941.7,2221.2 887.5,2224.4 C871.1,2225.4 851.8,2224.6 842.5,2222.6 C830.9,2220 805.8,2212.1 805.3,2210.8 C805,2210 805.3,2203.7 806,2196.7 L807.2,2184 L818.4,2180.1 C836.2,2173.9 845.6,2169 852.7,2162 C860.9,2153.8 863,2147.4 863,2130.1 C863,2110 859.4,2062.4 854.9,2022.5 C852.2,1998.1 821.3,1780.8 819.6,1773.8 C818.8,1770.6 816.9,1758.9 815.4,1747.9 L812.8,1727.8 L806.4,1727.1 C802.9,1726.7 787.6,1724.2 772.3,1721.5 C757,1718.7 739.1,1715.8 732.5,1715 C725.9,1714.3 681.8,1707.1 634.4,1699 C587,1691 543.8,1684 538.4,1683.5 C525.2,1682.2 481.5,1682.3 466.5,1683.6 C442.3,1685.7 437.2,1687.5 417.5,1701.3 L406.4,1709 L432.3,1757 C453.6,1796.5 520.1,1928.2 565.5,2021 C570.1,2030.4 580.3,2048.4 588.1,2061 C631.7,2131.5 640.1,2145.9 652.9,2171.5 C663,2191.9 666.1,2200.4 666.7,2210 C667.4,2219.1 665.3,2227.1 659,2240 C633.1,2293.3 554.8,2362.3 500.2,2379.9 C484.3,2385 474.9,2386.1 460.8,2384.5 L460.8,2384.5 Z M760.8,1591.3 C779.7,1563.8 791.5,1504.4 797,1410 C798.1,1391.7 800.2,1312.3 799.6,1311.7 C799,1311.1 776.3,1306.6 761.5,1304.1 C753.3,1302.7 702.9,1295.5 649.5,1288.1 C596.2,1280.6 548.9,1273.8 544.6,1273 C528,1269.8 506.4,1269.3 473.1,1271.5 C472.7,1271.5 473.1,1326.7 474.7,1483.8 C475,1522.7 475.7,1550.5 476.2,1550.5 C479.2,1550.5 524.9,1558 537,1560.5 C545,1562.2 580.8,1567.8 616.5,1573 C652.3,1578.2 689.2,1583.8 698.5,1585.5 C730.6,1591.1 754.5,1595.2 756.2,1595.4 C757.2,1595.4 759.2,1593.7 760.8,1591.3 L760.8,1591.3 Z M800,1020.6 C800,872.9 799.9,864.6 798.3,864.1 C797.3,863.8 782.3,861.1 765,858.1 C673.2,842 613.6,833.2 560,828 C540.5,826 496,824.9 480.7,826 L469.9,826.7 L470.4,958.3 C470.7,1050.2 471.3,1096.3 472.2,1111 L473.5,1132 L498.5,1135.2 C512.3,1137 566.3,1143.6 618.5,1150 C708.7,1161 739,1165.3 779,1172.9 C788.6,1174.8 797.3,1176.3 798.3,1176.4 C799.9,1176.5 800,1168.5 800,1020.6 L800,1020.6 Z M804,709.8 C804,634.6 798.1,404.6 794.4,330.4 L793.7,317.8 L783.6,316.7 C778,316.1 757.5,313.8 738,311.6 C608.2,297 483.5,286.4 463.6,288.3 L458.8,288.7 L459.4,307.9 C460.7,347 467,657.6 467,681.1 L467,687.2 L473.3,687.9 C476.7,688.2 501.6,690.8 528.5,693.5 C589.2,699.7 580.7,698.6 659,711.1 C709.9,719.3 765.6,727.5 803.3,732.4 C803.7,732.5 804,722.3 804,709.8 L804,709.8 Z" id="Shape" sketch:type="MSShapeGroup"></path>
        </g>
    </g>
</svg>