<?xml version="1.0" encoding="UTF-8" standalone="no"?>
<svg width="1136px" height="2207px" viewBox="0 0 1136 2207" version="1.1" xmlns="http://www.w3.org/2000/svg" xmlns:xlink="http://www.w3.org/1999/xlink" xmlns:sketch="http://www.bohemiancoding.com/sketch/ns">
    <!-- Generator: Sketch 3.0.4 (8054) - http://www.bohemiancoding.com/sketch -->
    <title>Slice 2</title>
    <desc>Created with Sketch.</desc>
    <defs></defs>
    <g id="Page-1" stroke="none" stroke-width="1" fill="none" fill-rule="evenodd" sketch:type="MSPage">
        <g id="Group" sketch:type="MSLayerGroup" transform="translate(568.000000, 1103.900000) scale(1, -1) translate(-568.000000, -1103.900000) translate(0.500000, 0.900000)" fill="#000000">
            <path d="M899.9,2203.9 C890.9,2201.6 879.8,2196 854,2180.9 L833.5,2168.9 L799.8,2163.4 C781.2,2160.3 739,2153.2 706,2147.4 C425.4,2098.4 338.6,2086.9 250.8,2086.9 C226.1,2086.9 225.4,2087 214,2089.9 C207.6,2091.6 181.3,2099.9 155.7,2108.3 C130,2116.8 102.7,2125.5 95,2127.6 C82.5,2131 79.8,2131.4 69.5,2131.3 C39.9,2131.1 12.6,2117.5 2.4,2097.9 C0.5,2094.2 0.1,2091.8 0.1,2084.9 C1.03367315e-12,2077 0.3,2075.9 3.8,2069.4 C5.9,2065.6 13.7,2054.1 21.1,2043.9 C28.5,2033.7 36.5,2022.3 38.8,2018.4 C56,1989.1 73.9,1927 78.5,1880.4 C79.1,1874.4 81.4,1813.6 83.6,1745.4 L87.6,1621.4 L86.5,1288.4 L85.3,955.4 L79.9,702.9 C76.5,542.4 73,405.7 70.4,327.9 C65.9,193.6 65.8,171.2 69.5,143.9 C79.1,71.8 103.1,18 132,3.8 C137.9,0.9 140,0.4 148.1,0.1 C169.1,-0.8 188.6,7.9 203.1,24.9 C232.7,59.4 248.2,126.1 252.5,236.9 C254.6,291.5 253.7,826.8 250.9,1215.4 L248.3,1576.4 L250.9,1728.4 C254.8,1963.9 254.2,1946.3 259.4,1951 C263.3,1954.6 272.5,1956.6 291.1,1957.8 C307.1,1958.9 335.1,1962.3 381.5,1968.9 C397.2,1971.1 484.3,1982.6 575,1994.4 L740,2016 L780.7,2016.9 C822.3,2017.8 896.1,2016.7 902.5,2015.1 C904.4,2014.6 907.4,2013.5 909,2012.6 C923.2,2005.2 930.2,1978.8 927.6,1942.6 C927,1934.2 922.9,1873.4 918.5,1807.4 L910.5,1687.4 L890.1,1529.4 C866.3,1345.8 870.4,1369.3 836.9,1222.9 C828.9,1188 820.2,1149.4 817.5,1137.2 C811.9,1111.8 808.3,1100.5 801.4,1086.6 C788.8,1061.3 770,1042.2 748,1032.4 C734.4,1026.4 725.6,1024.7 704.5,1024.2 C655.1,1022.9 602.8,1034.7 512.2,1067.4 C501.9,1071.1 493.2,1073.9 492.9,1073.6 C492.2,1072.9 494.4,1051.9 495.5,1049.3 C497.4,1044.4 533.2,1012.8 584.2,970.8 C608.6,950.7 620.9,938.6 637.2,918.8 C651.8,901.1 666.4,879.8 673.4,866.1 C674.6,863.8 679.9,851.9 685.1,839.6 C706.3,790.3 716.3,774.1 729.3,767.8 C733.4,765.8 735.9,765.4 747.9,765.1 C767.6,764.5 780.9,767.6 799.6,776.9 C859.3,806.6 917,886.1 948.3,981.9 C954.8,1001.6 955.9,1006.1 983.9,1125.4 L1010.4,1238.4 L1042.4,1431.4 L1074.3,1624.4 L1075.5,1648.4 L1076.7,1672.4 L1100.6,1814.9 C1116.3,1908.5 1125.7,1961.9 1128,1970.4 C1135.8,2000 1137,2011.7 1133.5,2025.4 C1127.4,2049.4 1107.7,2073.2 1056.5,2118.6 C986.9,2180.2 962.5,2197.9 939.1,2203.9 C928.5,2206.6 910.1,2206.6 899.9,2203.9 L899.9,2203.9 Z" id="Shape" sketch:type="MSShapeGroup"></path>
        </g>
    </g>
</svg>