<?xml version="1.0" encoding="UTF-8" standalone="no"?>
<svg width="2284px" height="2073px" viewBox="0 0 2284 2073" version="1.1" xmlns="http://www.w3.org/2000/svg" xmlns:xlink="http://www.w3.org/1999/xlink" xmlns:sketch="http://www.bohemiancoding.com/sketch/ns">
    <!-- Generator: Sketch 3.0.4 (8054) - http://www.bohemiancoding.com/sketch -->
    <title>Slice 2</title>
    <desc>Created with Sketch.</desc>
    <defs></defs>
    <g id="Page-1" stroke="none" stroke-width="1" fill="none" fill-rule="evenodd" sketch:type="MSPage">
        <g id="Group" sketch:type="MSLayerGroup" transform="translate(1142.000000, 1036.800000) scale(1, -1) translate(-1142.000000, -1036.800000) translate(0.000000, 0.800000)" fill="#000000">
            <path d="M2066.5,2072.1 C2047.7,2070.7 2005.3,2063.2 1915,2045.3 C1833.3,2029.1 1813.2,2025.9 1735,2016.4 C1486.6,1986.1 881.8,1930.8 678.3,1919.7 C650,1918.2 593.5,1919 578.1,1921.2 C565.9,1923 534.8,1929.3 520.9,1932.8 C516.3,1934 496.3,1939.8 476.5,1945.8 C394.1,1970.7 380.4,1973.7 365,1970.4 C348.6,1966.9 334.8,1957.3 328.8,1945.1 C326,1939.3 325.5,1937.2 325.2,1928.8 C324.8,1920.7 325.1,1918.4 326.8,1914.7 C329.7,1908.1 338.4,1896.5 360.5,1869.8 C388.5,1836 393.4,1829.4 398,1820.3 C410,1796 416.2,1759.2 420,1689.8 C423.2,1631.5 423.9,1528.8 421.5,1482.8 C413.8,1336.8 390.5,1086.2 374.4,977.3 C344.5,774.3 281.9,570.7 179.7,343.8 C146.5,270.2 141.9,261.7 37.5,84.3 C-1.8,17.4 -9.20864079e-13,20.7 -9.20864079e-13,16.8 C-9.20864079e-13,12 4.3,5.3 9.4,2.3 C14.7,-0.8 21.7,-1 27.8,1.8 C54.4,13.9 113.6,73 171.2,145 C314.5,324.4 436.7,559.5 493.1,764.3 C519.5,860.2 546.9,993.3 556.5,1071.8 C557.3,1078.7 564.9,1158.8 573.5,1249.8 L588.9,1415.3 L591.4,1492.8 C592.8,1535.4 594.2,1577.5 594.5,1586.3 C597.8,1676.4 596.6,1722 590,1768.5 C589.5,1772.2 589.2,1775.3 589.3,1775.5 C589.5,1775.6 598,1773.3 608.2,1770.3 C644.3,1759.9 651.3,1759.2 682.9,1762.8 C704.1,1765.3 728.5,1768.6 735.4,1769.9 C742.6,1771.3 1020.6,1801.4 1163,1816.2 C1237.1,1824 1318.6,1832.1 1343,1834.3 C1435.9,1842.4 1683.3,1855.4 1964,1866.8 C2021,1869.1 2012.4,1869.4 2102.5,1862.3 C2183,1855.9 2184.9,1855.8 2202.3,1855.8 C2219.9,1855.8 2228.9,1857.2 2241,1861.9 C2265.6,1871.4 2282,1894.2 2283.7,1921.3 C2284.5,1934.4 2282.3,1944.5 2275.5,1958.3 C2265,1979.9 2246,1999.1 2215.4,2019.1 C2169,2049.5 2098.9,2074.5 2066.5,2072.1 L2066.5,2072.1 Z" id="Shape" sketch:type="MSShapeGroup"></path>
        </g>
    </g>
</svg>