<?xml version="1.0" encoding="UTF-8" standalone="no"?>
<svg width="1133px" height="2139px" viewBox="0 0 1133 2139" version="1.1" xmlns="http://www.w3.org/2000/svg" xmlns:xlink="http://www.w3.org/1999/xlink" xmlns:sketch="http://www.bohemiancoding.com/sketch/ns">
    <!-- Generator: Sketch 3.0.4 (8054) - http://www.bohemiancoding.com/sketch -->
    <title>Slice 2</title>
    <desc>Created with Sketch.</desc>
    <defs></defs>
    <g id="Page-1" stroke="none" stroke-width="1" fill="none" fill-rule="evenodd" sketch:type="MSPage">
        <g id="Group" sketch:type="MSLayerGroup" transform="translate(566.500000, 1069.400000) scale(1, -1) translate(-566.500000, -1069.400000) translate(0.000000, 0.400000)" fill="#000000">
            <path d="M949.7,2137.2 C935.5,2135.3 874.1,2120.3 819.5,2105.4 C809.6,2102.7 748.3,2089.2 683.3,2075.4 L565,2050.4 L487.8,2037.9 C404,2024.4 388.6,2022.6 353,2021.7 C331.2,2021.2 328,2021.4 309.5,2023.9 C280.9,2027.7 250,2033 239.4,2035.8 C234.3,2037.2 213.9,2044.1 193.9,2051.3 C137.2,2071.4 124.4,2075 113.2,2073.9 C99.1,2072.6 89.1,2066.3 83.8,2055.7 C81,2049.9 80.5,2047.9 80.2,2039.3 C79.6,2026.4 81.8,2017 88.1,2004.4 C95,1990.6 103.1,1980 118.4,1964.8 C132.9,1950.4 141.7,1943.3 162.5,1929.2 C204,1901.1 229.5,1888 253.9,1882.2 C267.8,1879 301.9,1878.6 326.5,1881.3 C358.9,1885 413.2,1892.8 479.3,1903.3 L509,1908 L517,1896.2 C545.5,1854 549.4,1822.4 534,1759.9 C531.8,1751.1 528.2,1738.1 525.9,1731 C523.7,1723.9 503.8,1674.4 481.9,1621 C447.9,1538.5 440,1520.2 429.4,1499.5 C407.6,1457 361.1,1371.5 334.7,1325.4 C327.7,1313.1 309.9,1286.6 275.2,1236.9 C247.9,1197.9 219.8,1158 212.6,1148.4 C190,1118 150.2,1069.2 120.1,1034.9 C94.2,1005.5 40.2,943.5 36.1,938.7 C31,932.6 31.1,930.3 36.4,925.6 C40.8,921.8 46.6,920.8 55.7,922.3 C88.8,927.9 141.5,955.6 194.6,995.2 C215.6,1010.9 222.5,1016.9 296.9,1084.2 L317.2,1102.6 L319.3,1100.7 C344.1,1079.1 376.5,1048.2 473,953.9 C558,870.8 568.4,861.2 587.1,848.4 C605.6,835.7 618,831.8 649.7,828.6 L656.9,827.9 L643.8,803.9 C540.4,614.3 497.9,547.1 420.1,450.4 C329,337.1 165.1,169.4 67.4,89.5 C48.8,74.2 28,53.2 20.3,41.9 C14.2,32.8 0,7.7 0,5.9 C0,5.3 1.9,3.7 4.1,2.3 L8.2,-0.3 L19.9,3.1 C36.9,8.1 50.6,12.8 67.6,19.5 C83.1,25.6 112.8,39.8 123.5,46.1 C126.8,48.1 167.6,74.4 214.2,104.6 C282.9,149.2 301,161.4 310.2,169.3 C316.4,174.7 358.6,212.7 404,253.8 C485.3,327.3 486.9,328.9 512.8,357.2 C537.1,383.7 544.5,392.9 610.9,478 L682.8,570.1 L746.7,674 L810.7,777.9 L860.9,882.4 L911.2,986.9 L926.1,1027.4 C937.5,1058.7 951.5,1101 987,1212.9 C1012.3,1292.7 1034.4,1362.1 1036.1,1367.3 C1037.9,1372.8 1045.6,1389.7 1054.5,1407.3 C1073.1,1444.6 1074.5,1448.1 1073.7,1457.2 C1069.5,1508 957.2,1605.3 895,1612.3 C881.9,1613.7 868.6,1610.1 818,1591.1 C783.5,1578.2 747.1,1567.3 690.3,1552.9 C656.9,1544.4 621.8,1537.3 620.4,1538.7 C619.7,1539.4 644.8,1591.5 655.2,1610.9 C665.1,1629.4 672.9,1641.9 683.2,1656 C713.3,1697.1 733.1,1731.9 738.6,1753 C742,1766.3 741.6,1781.7 737.6,1793.9 C724.2,1833.8 680.6,1894.4 641.7,1927 C636.9,1931.1 633.4,1934.4 633.9,1934.4 C634.5,1934.4 657.8,1937.8 685.7,1941.8 C856.5,1966.9 855.5,1966.8 987,1975.4 C1020.8,1977.6 1052.6,1980.1 1057.5,1980.9 C1083.7,1985.1 1105.1,1995.2 1118.8,2009.8 C1128.4,2020.1 1133,2031.2 1133,2043.9 C1132.9,2078.2 1100.8,2105.6 1039.4,2123.8 C1008.4,2133 965.5,2139.4 949.7,2137.2 L949.7,2137.2 Z M845.2,1438.8 C850.4,1435.7 852,1431.5 852,1420.1 C852,1368 824.8,1250.1 789,1147.6 C782.2,1128.1 723.1,966.4 722.1,964.8 C721.8,964.1 710.6,974 694.5,989.5 L667.5,1015.3 L643,1030.7 C554.6,1086.3 543.7,1091.3 445.5,1121.3 C420.2,1129 391,1137.8 380.6,1140.9 C370.1,1144 361.5,1146.6 361.4,1146.7 C361.3,1146.8 378.3,1168.1 399.1,1193.9 L437,1240.9 L501.8,1338.8 C537.4,1392.6 566.8,1437.1 567.1,1437.6 C567.4,1438.1 571,1436 575.1,1432.9 C590.5,1421.2 609.2,1414.2 628.3,1412.9 C637.2,1412.3 638.9,1412.6 675,1420.3 C719.2,1429.8 723.8,1430.6 752,1433.8 C774.8,1436.5 818.8,1441.2 825.5,1441.6 C832.4,1442.1 841.7,1440.7 845.2,1438.8 L845.2,1438.8 Z" id="Shape" sketch:type="MSShapeGroup"></path>
        </g>
    </g>
</svg>