<?xml version="1.0" encoding="UTF-8" standalone="no"?>
<svg width="2137px" height="2165px" viewBox="0 0 2137 2165" version="1.1" xmlns="http://www.w3.org/2000/svg" xmlns:xlink="http://www.w3.org/1999/xlink" xmlns:sketch="http://www.bohemiancoding.com/sketch/ns">
    <!-- Generator: Sketch 3.0.4 (8054) - http://www.bohemiancoding.com/sketch -->
    <title>Slice 2</title>
    <desc>Created with Sketch.</desc>
    <defs></defs>
    <g id="Page-1" stroke="none" stroke-width="1" fill="none" fill-rule="evenodd" sketch:type="MSPage">
        <g id="Group" sketch:type="MSLayerGroup" transform="translate(1068.500000, 1082.200000) scale(1, -1) translate(-1068.500000, -1082.200000) translate(0.000000, 0.200000)" fill="#000000">
            <path d="M1869.5,2163.2 C1858,2162.2 1848.7,2159.6 1810.5,2146.7 C1768,2132.4 1740.5,2124.8 1691.4,2113.8 C1662.7,2107.3 1663.4,2107.4 1549.5,2093.8 C1492.3,2086.9 1428.9,2078.8 1408.5,2075.8 C1363.2,2069 1327.8,2064.5 1311.7,2063.3 C1305,2062.8 1164.5,2042.1 999.5,2017.3 L699.5,1972.3 L592.5,1960.3 C461.6,1945.6 465.5,1946 438.5,1945.9 C393.9,1945.9 368.8,1951.8 300.5,1978.5 C261.3,1993.9 245.5,1999.2 239.5,1999.2 C229.9,1999.2 216.5,1992.9 209.4,1985 C203.1,1978 200.6,1971.2 200.2,1959.5 C199.8,1951.1 200.2,1948 202,1942 C215.8,1896.4 286.4,1828.1 357.5,1791.5 C394.4,1772.6 423.4,1764.2 451.8,1764.2 C466.6,1764.2 472.9,1765.6 489.8,1772.6 C500.3,1776.9 501.3,1777.1 503.8,1775.8 C511.5,1771.8 529.5,1753.4 541.8,1737.2 C557.9,1715.9 567,1694.4 567,1677.8 C567,1656.9 557.9,1623.9 545,1598.2 C541.9,1591.9 513.7,1544.9 482.4,1493.7 C428.7,1406 423.1,1397.3 384.4,1341.2 C346.4,1286 338.4,1275.2 274.6,1192.2 C236.7,1143 201.2,1097.5 195.6,1091.2 C179.8,1073.3 148.7,1040.1 121.4,1012.2 C107.7,998.1 93.1,982.6 88.9,977.7 C78.6,965.4 56,936.2 56,935.1 C56,934.6 62.7,934.2 70.9,934.2 C99.1,934.2 111.4,938.1 169,965.7 C204.7,982.7 209,985.7 294.9,1054 C311.1,1066.8 324.9,1077.2 325.6,1077 C327.4,1076.6 358.7,1049.2 377.5,1031.5 C408.4,1002.4 447.5,961.8 482.6,922.2 C489.1,914.8 504.4,895.9 516.5,880.2 C570.6,809.8 599.3,774.2 621.7,749.6 C626.3,744.5 630,740.1 630,739.7 C630,738.9 606.5,699 592,675.2 C543.1,594.8 492.5,523.8 436.5,456.7 C412.5,428 414.9,430.7 313,319.2 C266.5,268.3 221.3,218.6 212.5,208.7 C194.5,188.5 150.9,144.3 126,121.1 C116.9,112.6 89.7,88.4 65.5,67.2 C18.1,25.8 4.54747351e-13,9.5 4.54747351e-13,8.3 C4.54747351e-13,7.3 21.5,1.3 29,0.2 C46.7,-2.3 78.3,8.9 118.1,31.8 C136.5,42.3 182.9,73.3 204.5,89.4 C262.1,132.3 303.9,170.3 393.3,260.7 C416.6,284.4 458.8,326.2 487,353.7 L538.3,403.7 L623.8,504 L709.4,604.3 L772.2,698.5 L835.1,792.7 L904.4,908.2 L973.7,1023.7 L1057,1192.9 C1137,1355.6 1146,1373 1163.4,1400.1 C1176.7,1420.7 1199.1,1449.5 1218.7,1471.3 C1243.6,1498.8 1247,1504.8 1247,1521.2 C1247,1543.5 1239.3,1562.8 1221.7,1584.7 C1213.4,1595 1194.7,1613.1 1169.5,1635.2 C1128.9,1670.8 1111.7,1683 1095.5,1687.7 C1086.7,1690.3 1065.5,1690.1 1052,1687.3 C1034.2,1683.6 1006.8,1676.4 1000.4,1673.8 C987.5,1668.5 961,1661.1 865.6,1636.1 C811.2,1621.9 766.4,1610.2 766,1610.2 C765.6,1610.2 765,1616.4 764.6,1624 C762.2,1672.2 755.5,1688.5 721.9,1727.7 C687.2,1768.3 664.6,1789.2 632.8,1810.2 C618.4,1819.7 618.1,1820 621.2,1820.6 C623,1820.9 634.5,1822.5 646.8,1824.2 C679.3,1828.7 684.6,1829.8 819.8,1859.3 L943.5,1886.3 L1094,1909.1 L1244.5,1932 L1319,1939.1 C1360,1943 1462.1,1952 1546,1959.1 L1698.5,1972 L1802,1975.2 C1916.6,1978.6 1924.8,1978.8 1943.5,1977.3 C2057,1968.1 2077.1,1967.1 2089,1969.6 C2098.4,1971.6 2110.9,1977.7 2117.7,1983.7 C2124.6,1989.8 2131.3,2000 2134.6,2009.7 C2139.9,2025.4 2137.5,2047 2128.4,2064.2 C2120.9,2078.4 2107.2,2092.9 2090.5,2104.2 C2047.5,2133.2 1918.6,2167.6 1869.5,2163.2 L1869.5,2163.2 Z M969.8,1523.1 C983.8,1519.4 992.5,1512.9 995.1,1504.1 C996.9,1498.4 994.7,1488.2 986.5,1463.7 C949.7,1353.2 837.3,1105 767.7,980.7 C751.5,951.8 730.6,918.3 721.2,906.4 L719.4,904.1 L704.8,920.5 C670.6,958.6 641.1,983.8 596,1013.4 C576.4,1026.3 571,1029.1 508,1059 C423.5,1099.1 392.2,1114.8 375.3,1125.4 L369.1,1129.3 L377.8,1137.2 C424.1,1179 506.3,1278.3 619.5,1429.2 C641.6,1458.7 649.3,1467 660.5,1473.6 C678.5,1484.1 700.3,1488.4 785,1498.2 C804.5,1500.5 826.4,1503.4 833.5,1504.8 C840.7,1506.2 860,1510 876.5,1513.2 C927,1523.2 947.7,1526.3 958,1525.4 C960.5,1525.2 965.8,1524.2 969.8,1523.1 L969.8,1523.1 Z" id="Shape" sketch:type="MSShapeGroup"></path>
        </g>
    </g>
</svg>