<?xml version="1.0" encoding="UTF-8" standalone="no"?>
<svg width="2221px" height="2382px" viewBox="0 0 2221 2382" version="1.1" xmlns="http://www.w3.org/2000/svg" xmlns:xlink="http://www.w3.org/1999/xlink" xmlns:sketch="http://www.bohemiancoding.com/sketch/ns">
    <!-- Generator: Sketch 3.0.4 (8054) - http://www.bohemiancoding.com/sketch -->
    <title>Slice 2</title>
    <desc>Created with Sketch.</desc>
    <defs></defs>
    <g id="Page-1" stroke="none" stroke-width="1" fill="none" fill-rule="evenodd" sketch:type="MSPage">
        <g id="Group" sketch:type="MSLayerGroup" transform="translate(1110.350000, 1191.000000) scale(1, -1) translate(-1110.350000, -1191.000000) translate(0.600000, 0.700000)" fill="#000000">
            <path d="M705,2374.3 C702.5,2368.8 702.3,2367.6 703.3,2364.3 C709.2,2344.5 780.5,2298.4 901.3,2236.4 C1050.2,2159.9 1216.4,2089.4 1295,2069.3 C1317.4,2063.5 1331.4,2061.7 1342.8,2063.1 C1373.4,2067 1398.7,2084.3 1406.6,2107 C1409.9,2116.8 1409.9,2137 1406.6,2149.2 C1394.6,2193.1 1360.5,2233 1309.1,2263.2 C1275.1,2283.1 1240.2,2295.3 1158.4,2315.7 C1021.3,2350 850,2375.5 726.4,2379.9 L707.8,2380.6 L705,2374.3 L705,2374.3 Z" id="Shape" sketch:type="MSShapeGroup"></path>
            <path d="M1988.9,1988.6 C1960.4,1986.4 1880.8,1975.8 1833.4,1967.8 C1774,1957.8 1497.9,1933.2 1200.1,1911.3 C1130,1906.1 1105.8,1903.7 919.4,1883.3 C688.2,1858 580.6,1846.7 475.4,1836.8 C349.8,1825.1 279.6,1821.2 230.4,1823.3 C171.6,1825.8 142.4,1832.5 93.4,1854.8 C63.8,1868.2 48.6,1874.3 41,1875.6 C24.1,1878.4 10.5,1866.1 2.8,1840.8 C0.3,1832.5 -9.0342317e-13,1830.4 -9.0342317e-13,1814.3 C-0.1,1799 0.2,1795.7 2.2,1788.3 C8.4,1765.7 22.2,1745.4 43.2,1728 C50.2,1722.2 75.9,1703.9 116.4,1675.8 C155.6,1648.6 178.7,1634.6 193.2,1629.2 C200.9,1626.4 203.4,1625.9 214.4,1625.6 C230,1625 239.1,1626.7 265.9,1635.3 C329.4,1655.6 413.9,1673.7 539.4,1693.7 C829.8,1740.1 1296.9,1784.3 1638.4,1797.8 C1741.7,1801.8 1777.7,1801.9 1918.4,1798.6 C1956.6,1797.7 2023.2,1796.9 2066.4,1796.9 C2135.8,1796.8 2146.3,1797 2156.9,1798.5 C2195.2,1804.1 2213.5,1816.1 2218.3,1839.1 C2221,1851.8 2218.8,1869.2 2212.9,1882 C2200.7,1908.8 2166.6,1935.6 2117.9,1956.8 C2076.5,1974.9 2013.1,1990.5 1988.9,1988.6 L1988.9,1988.6 Z" id="Shape" sketch:type="MSShapeGroup"></path>
            <path d="M1463.9,1575.1 C1440.2,1573.1 1385.9,1565.3 1322.4,1554.8 C1272.1,1546.4 1227.1,1541.3 1034.4,1521.8 C809.4,1499.1 724.9,1491.3 705.1,1491.3 C676.7,1491.3 673.8,1491.9 638.5,1504.4 C587.2,1522.5 563.1,1529.1 553.1,1527.9 C542.9,1526.7 532.5,1519.2 527.6,1509.6 C519.6,1494 520.1,1468.8 528.8,1447.4 C536.3,1428.8 544.6,1420.2 572.4,1401.8 C617.2,1372.1 651.4,1353.9 682.1,1343.3 C699.8,1337.2 710.6,1335.3 728.1,1335.3 C751,1335.3 763.3,1337.8 832.7,1356.2 C869.5,1366 948.9,1377.1 1069.9,1389.2 C1166,1398.9 1282.3,1408.6 1371.9,1414.5 C1384.6,1415.3 1419.1,1415.8 1475.9,1415.8 C1552.1,1415.8 1561.8,1416 1569.4,1417.5 C1607.1,1425.1 1630,1440.1 1636.5,1461.5 C1639.5,1471.2 1638.9,1486.1 1635.2,1495.1 C1631.3,1504.4 1626.7,1511.6 1619.1,1519.9 C1586.5,1555.3 1517.7,1579.8 1463.9,1575.1 L1463.9,1575.1 Z" id="Shape" sketch:type="MSShapeGroup"></path>
            <path d="M1505.4,1188.6 C1489.6,1187.1 1466.6,1183.1 1407.7,1171.8 C1352,1161 1352.4,1161 1216.9,1148.3 C1128.8,1140.1 1040.5,1131 938.4,1119.8 C856.2,1110.7 779,1102.6 766.9,1101.8 C735.8,1099.5 683,1098.7 672.3,1100.2 C661.6,1101.8 645.4,1107 613.4,1119.3 C582.8,1131 575.7,1133.3 569.5,1133.3 C554.3,1133.3 541.2,1123.1 536.8,1107.9 C534.3,1098.9 535.3,1078.8 538.9,1066.8 C543.7,1050.5 553.4,1033.3 564.9,1020.5 C571.7,1012.9 634.9,964.2 656.4,950 C676.7,936.6 685.6,933.3 701.5,933.3 C716.3,933.3 733.2,937.2 805.9,957.3 C849,969.3 866.3,973.1 909.4,980.2 C931.2,983.8 947.2,985.8 964.4,987.3 C971.3,987.9 1054.8,994.9 1149.9,1002.9 L1322.9,1017.4 L1434.4,1022.8 C1565.8,1029.2 1578.6,1029.9 1592.4,1031.9 C1636.8,1038.2 1655.3,1056.6 1654.2,1093.3 C1653.9,1104.7 1653.9,1104.9 1649.2,1114.3 C1635.3,1142 1598.1,1168.5 1554.4,1181.6 C1538.2,1186.5 1516.2,1189.7 1505.4,1188.6 L1505.4,1188.6 Z" id="Shape" sketch:type="MSShapeGroup"></path>
            <path d="M1559.9,797.2 C1551.6,796.2 1530.2,791.3 1502.9,784.3 C1469.1,775.6 1438.5,770.2 1403.9,766.8 C1395.1,766 1244.1,751.1 1068.4,733.8 C892.7,716.4 741.5,701.6 732.4,700.8 C723.3,699.9 709.2,698.6 701,697.8 C692.8,697 679.3,696.3 670.9,696.3 L655.7,696.3 L645.3,701.7 C611.7,719.2 551.4,735.3 519.5,735.3 C504.8,735.3 495.4,733.1 482.6,726.7 C466.3,718.5 454.4,705.3 450.8,691.4 C449.5,686 449.4,684.3 450.5,680.5 C453.3,670.5 466.6,653.7 496.8,622.4 C518.2,600.2 520.3,597.3 529.9,575 C546.4,536.8 568.7,463.8 581.3,407.3 C583.8,395.9 597.4,318.2 628.9,134.3 C632,116.4 635.9,95.7 637.5,88.3 C651.3,28.1 676.8,0.4 718.9,3.41553175e-13 C728.2,-0.1 730.7,0.2 735.2,2.1 C744.2,5.9 751.5,11.1 760.9,20.7 C771.8,31.7 781.9,46.5 789.4,62.5 L794.9,74.2 L803.4,75.7 C817.6,78.3 846,82.2 862.4,83.8 C870.9,84.6 949,90 1035.9,95.7 L1193.9,106.2 L1287.9,107.8 C1339.6,108.6 1398.5,109.3 1418.8,109.3 L1455.6,109.3 L1462.1,103.3 C1469.2,96.6 1476.9,92.3 1486.5,89.7 C1496.2,86.9 1523.9,87.3 1534.9,90.2 C1546.6,93.3 1554.6,97.6 1562.6,105.1 C1589.6,130.6 1605.5,173.9 1653.4,352.8 C1660.7,379.8 1668.2,406.8 1670.1,412.8 C1683.3,453.9 1707.6,503.1 1726.4,526.8 C1735.3,538 1754.5,563.9 1760.1,572.3 C1767.2,583 1771.3,591.5 1773,599.2 C1774.8,607.9 1774.8,628.9 1772.9,637.7 C1768.9,656.8 1755.2,674.6 1725.9,698.9 C1713.6,709.1 1653.7,754.4 1635.9,766.9 C1602.4,790.6 1579.6,799.7 1559.9,797.2 L1559.9,797.2 Z M1534.5,624 C1540.9,621.3 1541.8,619.4 1541.1,610 C1539.3,587.6 1529.7,544.9 1492,391.8 C1474.6,321.1 1469.2,298 1464.9,276.8 C1463.5,269.7 1462.1,262.9 1461.9,261.7 C1461.5,259.8 1460.5,259.5 1453.2,258.9 C1448.6,258.5 1427.6,256.2 1406.4,253.8 C1370.6,249.6 1359,248.8 1243.4,242.3 C1138.5,236.4 1097.9,233.7 985.9,224.9 C836.1,213.1 829.9,212.6 801.4,211.7 L780.9,211 L776.7,229.4 C774.3,239.5 761.2,310.9 747.4,388 C733.7,465.2 722,529.1 721.5,530.1 C720.4,532.2 717.4,547.4 717.4,551.2 L717.4,553.8 L743.2,557.6 C757.3,559.7 782.2,563.4 798.4,565.8 C822.9,569.5 875.1,574.8 1104.9,596.9 C1378.9,623.2 1382,623.4 1393.6,622.4 C1410.8,620.8 1433.6,621.2 1473.4,623.8 C1511.6,626.3 1528.9,626.4 1534.5,624 L1534.5,624 Z" id="Shape" sketch:type="MSShapeGroup"></path>
        </g>
    </g>
</svg>