<?xml version="1.0" encoding="UTF-8" standalone="no"?>
<svg width="2003px" height="1405px" viewBox="0 0 2003 1405" version="1.1" xmlns="http://www.w3.org/2000/svg" xmlns:xlink="http://www.w3.org/1999/xlink" xmlns:sketch="http://www.bohemiancoding.com/sketch/ns">
    <!-- Generator: Sketch 3.0.4 (8054) - http://www.bohemiancoding.com/sketch -->
    <title>Slice 2</title>
    <desc>Created with Sketch.</desc>
    <defs></defs>
    <g id="Page-1" stroke="none" stroke-width="1" fill="none" fill-rule="evenodd" sketch:type="MSPage">
        <g id="Group" sketch:type="MSLayerGroup" transform="translate(1001.100000, 702.300000) scale(1, -1) translate(-1001.100000, -702.300000) translate(0.100000, 0.300000)" fill="#000000">
            <path d="M874.9,1402.8 C848.3,1397.5 827.8,1383 820.9,1364.5 C817.9,1356.6 817.1,1344.1 819.3,1337.7 C822.5,1327.9 832.5,1319.2 870.4,1293.3 C889.6,1280.1 900.4,1270.4 907.4,1259.8 C927.9,1228.8 934.9,1188.5 934.9,1101 C934.9,1065.1 934.7,1063.3 929,1059.4 C921.5,1054.2 913.2,1052.9 877.4,1051.3 C858.4,1050.4 836.1,1048.1 770.4,1040.3 C584.5,1018.1 487.2,1007.4 405.4,1000.1 C375.6,997.5 316.3,996.9 297.4,999.1 C242.7,1005.4 198.4,1015.8 157.4,1032 C139.2,1039.2 124.2,1046.8 101.7,1060.1 C78.2,1074 63.3,1082.2 53.9,1086.4 C47.8,1089.1 45.1,1089.7 39.4,1089.7 C23,1089.7 8.5,1077.6 2.6,1058.8 C-0.2,1049.7 -0.4,1028.6 2.2,1018 C10.6,984.2 37.9,954.4 128.1,880.5 C184.2,834.5 215.7,817.4 244.2,817.3 C251,817.3 260.4,819.4 317.2,833.7 C378,849 406.6,855.6 439.9,861.8 C447.3,863.2 517.6,874.7 596.1,887.3 C674.6,900 741.6,911 745.1,911.8 C758.4,914.9 767,912.6 774.8,903.7 C785.8,891.2 798.9,860.3 798.9,846.7 C798.9,835.8 789.8,811.2 774.4,780.8 C761.8,755.9 750.4,736.5 733.4,710.8 C706.1,669.6 685.3,643.9 649.9,607.8 C614.4,571.6 605.8,560.3 599.3,541.3 C596.6,533.4 596.5,500.7 599.2,488.3 C606,456.7 624.7,435 654.6,423.7 C658.1,422.4 672.6,418.1 686.7,414.2 C746.7,397.8 762.2,392.3 775.7,383.1 L779.9,380.2 L768,366.9 C746.3,343 730.2,328.4 667.9,276.7 C619.7,236.6 608.2,229.3 584.3,223.2 C578,221.7 566.1,219.5 557.7,218.3 C510.4,212 499.7,209.8 486.4,203.3 C475.8,198.2 467.9,191.1 463.9,183 C460.6,176.1 457.9,165.3 457.9,158.2 C457.9,145.3 464.9,122.3 476,99.3 C499.1,51.4 529.9,14.8 557.3,2.9 C564.2,-0.1 564.8,-0.2 579.4,-0.2 C594,-0.1 594.7,-7.27584659e-13 604.9,3.5 C617.2,7.7 628.2,12.4 658.6,26.2 C686.6,38.9 713.5,50.2 736.4,58.8 C757.2,66.6 1264.6,235.6 1265.9,235.1 C1268.1,234.3 1290.2,206.8 1308.7,181.9 C1381.1,84.5 1390.7,73.5 1413.4,62.3 C1425,56.5 1432.3,55 1444.4,55.5 C1456.6,56.1 1464.2,58.9 1474.2,66.4 C1483.2,73.2 1489.9,81.6 1496,93.8 C1502.8,107.5 1505,116.7 1505.6,133.4 C1506.4,153.9 1503.2,167.4 1492,190.8 C1475.8,224.5 1449.6,258.7 1410.8,296.8 C1390.7,316.5 1377.5,327.6 1359.9,339.5 C1306.1,376.2 1204.9,420.3 1148.1,431.9 C1117.3,438.2 1100.7,430.7 1103.3,411.6 C1104.7,401.4 1108.3,396.8 1141.9,363 C1159.2,345.5 1178.9,326.2 1185.6,320 C1192.3,313.9 1197.7,308.8 1197.6,308.7 C1197.5,308.6 1187.7,306.8 1175.9,304.8 C1164.1,302.8 1069.5,284.5 965.6,264.2 C861.8,243.9 776.5,227.3 776.2,227.3 C775,227.3 784.6,236.7 799.8,250.6 C807.7,257.9 825.8,272.6 840,283.3 C854.1,294 880.9,314.3 899.4,328.3 C960.1,374.3 1123.1,503.4 1152.9,529 C1171.6,545.1 1210.9,581.5 1267,634.8 C1346.1,710.1 1352.8,716.6 1355.2,722 C1358,728.3 1359.9,737.8 1359.9,746.1 C1359.9,779.3 1313.1,857.5 1270.4,895.6 C1245.4,917.8 1223,928.1 1201.9,927 C1187.8,926.3 1179.4,922.3 1162.7,908.3 C1152.2,899.6 1152.5,901.3 1156.9,875 C1158.6,865.3 1161.2,849.4 1162.9,839.8 C1166.8,816.7 1167.4,809.2 1165.9,801.3 C1163.3,786.8 1150,752.4 1143.7,743.3 C1139.6,737.6 1125.9,720.4 1100.4,689.3 C1089.3,675.8 1075.1,658.3 1068.7,650.3 C1052.6,630.2 911.9,489.6 901.8,483.5 L895.1,479.5 L885.7,483.7 C858.8,495.8 761.5,550.7 761.7,553.7 C761.8,554.1 775.4,568.4 792,585.6 C856.4,652 901.3,702.1 941.7,752.6 C967.4,784.7 982.1,806.6 988.1,821.8 C991.1,829.2 991.3,830.7 991.4,841.8 C991.4,852.6 991.2,854.3 989,858.3 C984.3,867.1 974.5,880.4 951.9,908.7 C939.3,924.4 929.1,937.3 929.3,937.3 C929.5,937.3 951.5,940.9 978.1,945.3 C1004.6,949.7 1032.9,954 1040.9,954.8 C1048.9,955.7 1100.6,959.8 1155.9,963.9 L1256.4,971.5 L1414.3,975.6 L1572.3,979.8 L1681.8,975.6 L1791.4,971.4 L1823.9,967.4 C1882.1,960.1 1893.8,958.9 1909.9,958.9 C1948.7,958.9 1978.9,972.4 1993.3,996.1 C2016.7,1034.7 1991.5,1075.8 1920,1115.8 C1887.2,1134.1 1839.4,1153 1804.1,1161.7 C1777.9,1168.2 1768.6,1168.6 1747.9,1164.3 C1730,1160.6 1696.9,1152.6 1662.9,1143.9 C1637.9,1137.4 1624.9,1134.7 1606.8,1131.9 C1593.8,1129.9 1569,1125.8 1551.8,1122.8 C1520.6,1117.4 1518.9,1117.2 1307.4,1097.3 C1190.3,1086.3 1093.5,1077.3 1092.3,1077.3 C1090.4,1077.3 1090.1,1078.5 1088.1,1091.1 C1086.9,1098.6 1085.6,1107.5 1085.3,1110.8 C1084.3,1120.9 1087.9,1137 1104.9,1198.3 C1122.3,1260.8 1125.4,1275.1 1124.6,1287.8 C1123.6,1303.5 1118.1,1314.1 1102.9,1329.4 C1090.7,1341.6 1078.6,1350 1058.8,1360.1 C1003.7,1388.2 910.3,1409.9 874.9,1402.8 L874.9,1402.8 Z" id="Shape" sketch:type="MSShapeGroup"></path>
        </g>
    </g>
</svg>