<?xml version="1.0" encoding="UTF-8" standalone="no"?>
<svg width="948px" height="2252px" viewBox="0 0 948 2252" version="1.1" xmlns="http://www.w3.org/2000/svg" xmlns:xlink="http://www.w3.org/1999/xlink" xmlns:sketch="http://www.bohemiancoding.com/sketch/ns">
    <!-- Generator: Sketch 3.0.4 (8054) - http://www.bohemiancoding.com/sketch -->
    <title>Slice 2</title>
    <desc>Created with Sketch.</desc>
    <defs></defs>
    <g id="Page-1" stroke="none" stroke-width="1" fill="none" fill-rule="evenodd" sketch:type="MSPage">
        <g id="Group" sketch:type="MSLayerGroup" transform="translate(473.700000, 1126.000000) scale(1, -1) translate(-473.700000, -1126.000000) translate(0.200000, 0.500000)" fill="#000000">
            <path d="M293.3,2250.5 C291.1,2250.1 285.5,2248.4 280.8,2246.7 C271.3,2243.4 271.1,2243.2 270.9,2232.9 C270.7,2219.9 275,2213.9 298.8,2194.2 C319.1,2177.4 334.7,2163.7 345.8,2152.9 C356.9,2142.2 535.4,2003.5 549.3,1994.8 C576.6,1977.7 631.8,1952.6 666.1,1941.6 C692.8,1933.1 710.6,1931.6 727.6,1936.5 C764.4,1946.9 786.7,1977.4 780.3,2008.6 C774.8,2036 751.7,2070.5 712.3,2110.1 C698.5,2124 693.1,2128.7 683.8,2134.8 C664.3,2147.6 637.6,2159.6 601.5,2171.6 C578.1,2179.3 342,2246.8 330.8,2249 C320.8,2250.9 299,2251.8 293.3,2250.5 L293.3,2250.5 Z" id="Shape" sketch:type="MSShapeGroup"></path>
            <path d="M821.3,1827.8 C801.9,1826.6 782.2,1822.9 754.3,1815 C689.3,1796.7 694.3,1797.7 489.8,1758.1 C383.4,1737.4 291.6,1719.7 285.8,1718.8 C268.8,1716 211.1,1716.3 183.5,1719.3 C146.6,1723.4 134,1725.7 118.8,1731.5 C99.5,1738.9 59.7,1752 50.5,1754 C39.3,1756.5 27,1755.7 20.2,1752.2 C-1.8,1740.9 -6.6,1704.1 9.7,1671.7 C28.8,1633.8 79.4,1594.2 138.8,1570.5 C159.2,1562.4 174.6,1558.5 186.3,1558.5 C196.7,1558.5 209.9,1561.3 307.3,1584.5 C372.6,1600 366,1598.6 497.3,1624.5 L609.3,1646.5 L735.8,1657.5 C868.5,1669 876.9,1670 894,1676.1 C923.9,1686.8 940.8,1704 945.4,1728.6 C948.4,1744.2 945.9,1758.3 937.7,1772.2 C932.9,1780.3 916,1797 905.8,1803.7 C885,1817.4 862.9,1825.2 839.3,1827.5 C833.3,1828 827.9,1828.4 827.3,1828.3 C826.8,1828.2 824.1,1828 821.3,1827.8 L821.3,1827.8 Z" id="Shape" sketch:type="MSShapeGroup"></path>
            <path d="M692.8,1462.9 C677.6,1459.4 654.2,1452.8 620.7,1442.4 C570.7,1426.9 559.6,1423.8 550.3,1422.6 C535.6,1420.7 486.1,1413 429.5,1403.9 C338.1,1389.3 319.9,1386.5 314.3,1386.5 C311.4,1386.5 303.6,1387.9 297.1,1389.5 C283.3,1393.1 232.1,1410.1 202.8,1420.9 C191.6,1425.1 182,1428.5 181.6,1428.5 C179.2,1428.5 162.7,1417.4 157.8,1412.5 C150,1404.7 147.7,1398.6 147,1384.2 C145.6,1353.1 159.3,1321.7 187.1,1292.8 C211.2,1267.7 237.7,1251.8 265.1,1246 C280.7,1242.6 286.1,1243.3 390.3,1262 C611.2,1301.6 671.1,1311.1 716.3,1313.5 C751.2,1315.4 768.6,1317.7 782.8,1322.5 C803.2,1329.3 815.3,1341.8 819.9,1360.5 C822.1,1369.6 821.6,1387.6 818.9,1396.5 C811.7,1420.1 793.9,1438.6 765.4,1452.1 C738.7,1464.7 715.6,1468.2 692.8,1462.9 L692.8,1462.9 Z" id="Shape" sketch:type="MSShapeGroup"></path>
            <path d="M705.8,1142.4 C688.6,1140.4 665,1134.6 610.3,1118.9 C549.4,1101.3 516,1093.5 470.8,1086.1 C418.8,1077.6 389.8,1075.1 341.3,1075.1 L302.3,1075 L290.8,1077.9 C284.5,1079.5 265.8,1085.4 249.3,1091 C213.2,1103.3 203.7,1105.7 190.7,1105.8 C182.2,1105.9 180.5,1105.6 175.5,1103.2 C166.6,1098.8 160.9,1090.8 157.1,1077.4 C155.7,1072.3 155.3,1067.3 155.3,1053 C155.3,1035.8 155.5,1034.6 158.1,1027 C166.5,1003.3 185.6,978.2 211.2,957.5 C230.5,941.9 257.2,926.4 276.3,919.8 C283.4,917.3 285.6,917 296.3,917.1 C310,917.2 309.6,917.1 436.3,941.9 C621.6,978.3 666.4,986.2 716.8,991.5 C781.8,998.4 800.4,1003.1 815,1016.4 C825.5,1026 829.3,1036.6 829.1,1056 C829,1067 828.6,1070.4 826.4,1078 C819.6,1100.6 804,1118.6 780.8,1130.4 C758.2,1141.9 734.5,1145.7 705.8,1142.4 L705.8,1142.4 Z" id="Shape" sketch:type="MSShapeGroup"></path>
            <path d="M737.4,767.3 C726.2,765.8 704,759.3 661.3,745 C637.7,737.1 614,729.7 608.8,728.6 C571.4,720.5 477.3,704.5 417.8,696.1 C369.2,689.2 360.7,688.5 321.7,688.5 L286.1,688.5 L281.9,693.8 C268.2,711 243,722.6 207.8,728 C193.5,730.2 160.7,731.1 149.7,729.6 C120.6,725.7 104.8,714.6 101.8,695.8 C100,685 104.6,674.7 131.1,630.6 C140.5,615 149.2,599.2 150.6,595.6 C158.9,572.7 178.6,476.5 202.3,343 C211.4,291.6 225,210.7 229.3,182 C233.6,152.7 235.8,141.4 240.8,122 C257,59 283.7,16.9 316.1,3.2 C324.5,-0.3 337.8,-1.5 346.8,0.4 C365.9,4.5 383.9,21.5 391.5,42.6 C395,52.1 397.8,67 397.8,75.7 C397.8,80.9 398,81.5 400.1,82 C404,82.9 448,90.4 482.3,96 C536.1,104.8 563.1,108.3 614.3,112.9 C675.2,118.5 681.6,118.9 692.3,117.6 C730.2,113.3 750.3,123.4 766.6,155.2 C778,177.4 785.9,206.9 802.3,287.8 C821.2,380.9 850.2,508.8 861.3,548 C863.3,555.2 866.7,568 868.8,576.5 C870.9,585 876.1,603.9 880.3,618.5 C887.1,641.9 887.9,645.7 887.5,651.1 C886.5,664.6 873.9,683.3 850.6,706 C822.1,733.8 786.5,757.1 760.7,764.9 C750.8,767.8 745.4,768.4 737.4,767.3 L737.4,767.3 Z M670.3,609.8 C676.6,607.6 680.6,603 683.1,595 C685.1,588.6 685.3,586.1 685.2,564.5 C685.2,549.9 684.5,534.9 683.4,525 C667.6,376.1 660.6,312.3 659.2,304.3 C658.3,299 656,282.6 653.9,267.8 L650.3,241 L645.8,240.3 C643.3,239.9 634.3,238.6 625.8,237.5 C617.3,236.3 603.1,234 594.4,232.4 C585.6,230.7 542.6,224.2 498.9,217.9 C434.6,208.6 416.2,206.3 403.3,205.8 L387.3,205.2 L366.4,323.6 C354.9,388.7 343.6,453.3 341.2,467 C338.9,480.8 334,507.3 330.4,526.1 C326.8,544.9 323.8,560.7 323.8,561.2 C323.8,561.8 325.3,562.5 327.1,562.9 C346.9,566.9 431.9,581.3 504.3,593 C553.8,600.9 598.1,608.2 602.8,609.1 C620.7,612.4 661.6,612.9 670.3,609.8 L670.3,609.8 Z" id="Shape" sketch:type="MSShapeGroup"></path>
        </g>
    </g>
</svg>