<?xml version="1.0" encoding="UTF-8" standalone="no"?>
<svg width="2503px" height="2309px" viewBox="0 0 2503 2309" version="1.1" xmlns="http://www.w3.org/2000/svg" xmlns:xlink="http://www.w3.org/1999/xlink" xmlns:sketch="http://www.bohemiancoding.com/sketch/ns">
    <!-- Generator: Sketch 3.0.4 (8054) - http://www.bohemiancoding.com/sketch -->
    <title>Slice 2</title>
    <desc>Created with Sketch.</desc>
    <defs></defs>
    <g id="Page-1" stroke="none" stroke-width="1" fill="none" fill-rule="evenodd" sketch:type="MSPage">
        <g id="Group" sketch:type="MSLayerGroup" transform="translate(1251.500000, 1154.100000) scale(1, -1) translate(-1251.500000, -1154.100000) translate(0.500000, 0.100000)" fill="#000000">
            <path d="M495.6,2307 C489.2,2305.8 479.4,2300.9 474.6,2296.6 C469.3,2291.8 464.7,2282.3 463.9,2274.6 C463.3,2268.2 464.3,2264.7 475.4,2235.9 C480.1,2223.7 480.5,2219 478,2203.1 C468.3,2138.7 413.9,2052.3 314.6,1943.1 C289.6,1915.6 249.4,1874 232.4,1858 C224.5,1850.6 202.3,1830.1 183,1812.6 C109,1745.2 64.5,1702.7 64.5,1699.4 C64.5,1698.2 69.9,1688.3 72.1,1685.3 C72.6,1684.5 95.8,1688.3 105,1690.6 C182.3,1710.1 286,1773.6 432.5,1891.1 C458.4,1911.9 460.3,1913.6 553.5,2000.1 C593.5,2037.2 615.9,2057.2 637.8,2075.4 C673.9,2105.5 685.8,2117 690.8,2126.6 C694,2132.9 694.3,2144.5 691.5,2152.4 C679.4,2186.2 619.9,2250.6 571.3,2282.7 C540.5,2303 515.8,2311 495.6,2307 L495.6,2307 Z" id="Shape" sketch:type="MSShapeGroup"></path>
            <path d="M2176.5,2169.2 C2169.6,2167.6 2148.7,2162.2 2130,2157.2 C2094.3,2147.7 2079.7,2144.5 2031.5,2135.6 C1957.3,2122 1900.1,2115.4 1849.5,2114.4 C1823.5,2114 1813,2114.3 1778.3,2116.5 C1738.2,2119.1 1737.4,2119.1 1730,2122.1 C1714.3,2128.3 1702.4,2128.4 1692.6,2122.3 C1677.5,2113 1674,2090.9 1684.4,2070.2 C1697.8,2043.7 1736.2,2013.4 1783.3,1992.1 C1811.9,1979.2 1830,1974.1 1847,1974.1 C1860.2,1974.1 1867,1975.3 1898.5,1983.1 C1930.1,1990.9 1955.9,1995.1 2027.1,2004 C2105.4,2013.9 2176.2,2021 2215,2023.1 C2259,2025.4 2281.5,2030.5 2299.2,2042.3 C2311.7,2050.7 2318.4,2061.8 2320.8,2078.3 C2324.8,2106.2 2305.1,2132.4 2264.6,2152.8 C2242.8,2163.7 2218.1,2171 2200,2171.7 C2190.5,2172 2187.3,2171.7 2176.5,2169.2 L2176.5,2169.2 Z" id="Shape" sketch:type="MSShapeGroup"></path>
            <path d="M479.9,1821.1 C471.3,1819.8 464.9,1817.2 459.9,1812.8 C454.8,1808.3 447.5,1797.9 447.5,1795.1 C447.5,1794.1 451.1,1785.1 455.6,1775 C470.3,1741.8 474.1,1726.7 473.2,1705.6 C471.9,1672.6 455.8,1630.4 420.5,1567.1 C368.2,1473.4 302,1372.8 214.7,1254.1 C163.2,1184.2 79.1,1075.7 53,1045.6 C27.1,1015.7 12.5,995.9 4.7,980.2 C0.5,971.8 0,970.1 0,964 C0,952.9 4.9,948.6 18.6,947.5 C32.5,946.4 50.2,953.3 76.5,969.8 C107.4,989.2 129.2,1006.4 208.2,1073.9 L234.4,1096.2 L310.1,1177.3 C396,1269.2 387.4,1261.9 388.2,1243.1 C388.5,1237.3 387.5,1183.6 386,1123.6 C382.6,980.4 372.3,736.9 363,576.6 C356.6,466.7 356.4,463.5 350,406.1 C333.1,253.8 330.8,220.7 334.8,189.9 C343.4,124.5 361.7,76.3 386.8,52.4 C390.9,48.5 396.4,44.1 399,42.5 C422.3,28.9 454.1,32.3 474.3,50.6 C498.3,72.4 511.2,113.3 516.5,185.1 C517,192.5 520.6,364.2 524.5,566.6 L531.5,934.6 L541,1051.6 C550.2,1165.5 550.6,1169.2 554.9,1192.6 C557.3,1205.8 560.1,1221.6 561,1227.6 C564,1246.3 562,1258.2 553,1276.8 C540.4,1302.6 515.6,1328.4 481.9,1350.7 C475.6,1354.9 470.5,1358.6 470.7,1358.9 C470.9,1359.3 476.2,1366.6 482.6,1375.1 C512.2,1414.8 580.5,1511.3 615,1562.1 C623.7,1574.9 627.2,1578.9 645.1,1596.6 C669.1,1620.4 671.5,1624.1 671.5,1637.1 C671.5,1652 667.5,1665.7 656.9,1687 C630.1,1741 576.3,1796.6 533.1,1814.8 C520.3,1820.2 510.9,1822.1 497,1822 C490.4,1821.9 482.7,1821.5 479.9,1821.1 L479.9,1821.1 Z" id="Shape" sketch:type="MSShapeGroup"></path>
            <path d="M2334,1705 C2320.5,1703.3 2268,1689.2 2207.5,1671.1 C2164.6,1658.3 2124.9,1648.2 2101,1644.2 C2094.4,1643.1 2012.1,1633 1918,1621.9 L1747,1601.7 L1712,1601.7 C1660.9,1601.6 1641.2,1604.4 1603.1,1617.3 C1584.5,1623.6 1581.1,1624.5 1574.5,1624.5 C1567.9,1624.5 1566.3,1624.1 1560.7,1621.2 C1546,1613.3 1538.6,1598.8 1539.8,1580.2 C1540.8,1563.7 1545.7,1555 1564.1,1537.1 C1578.5,1523.1 1609.7,1495.1 1626.6,1481.1 C1646.1,1464.9 1656.8,1458.5 1668.1,1456.7 C1671.2,1456.1 1681.3,1457.6 1707.6,1462.5 C1803,1480.1 1868.5,1490.8 1895,1492.9 C1919.3,1494.9 1935.8,1489.2 1949.9,1474 C1965.3,1457.4 1973.5,1434.3 1979.7,1390.1 C1980.6,1383.7 1981,1313.1 1981.2,1107.3 L1981.5,833 L1977.5,585.8 C1975.3,449.8 1973,336.4 1972.5,333.6 C1969.2,316.5 1959.6,304.7 1945.6,300.7 C1938.2,298.5 1923,298.6 1879.5,301.1 C1798.7,305.7 1766.4,309.2 1726,317.6 C1699,323.3 1692,323.4 1678.8,318.2 C1674.2,316.4 1670.5,314.5 1670.5,313.8 C1670.5,313.2 1672.4,309.5 1674.7,305.7 C1683.9,290 1709,267.9 1787.9,205.9 C1878.5,134.6 1887.5,126.5 1908,97.9 C1944.3,47.4 1964.3,22.3 1976.2,12.8 C1988.8,2.7 1996.7,0.1 2015,0 C2029,0 2038.4,2.4 2049.5,8.8 C2058.9,14.3 2076.6,32.2 2084.7,44.6 C2114.7,90.1 2134.3,164.2 2137.2,243.3 C2137.5,253.2 2137.2,304.1 2136.5,356.4 C2135.4,434.9 2135.4,511.5 2136.4,792.6 L2137.6,1133.6 L2141.6,1248.1 L2145.6,1362.6 L2149.1,1385.1 C2153.9,1415.3 2154.4,1426.1 2151.6,1437.1 C2146.9,1456.1 2136.5,1470.9 2107.2,1500.8 L2087.4,1520.9 L2092.7,1522 C2119.9,1527.4 2182,1535.2 2232,1539.6 C2354.7,1550.3 2421.1,1556.5 2431,1558.1 C2468.4,1564.1 2491.6,1577.9 2499.6,1599 C2502.9,1607.6 2503.4,1621.9 2500.7,1630.8 C2492.9,1656.4 2464.6,1676.2 2414.4,1691.5 C2395.7,1697.1 2367,1702.9 2344,1705.5 C2342.4,1705.7 2337.9,1705.4 2334,1705 L2334,1705 Z" id="Shape" sketch:type="MSShapeGroup"></path>
        </g>
    </g>
</svg>