<?xml version="1.0" encoding="UTF-8" standalone="no"?>
<svg width="846px" height="2269px" viewBox="0 0 846 2269" version="1.1" xmlns="http://www.w3.org/2000/svg" xmlns:xlink="http://www.w3.org/1999/xlink" xmlns:sketch="http://www.bohemiancoding.com/sketch/ns">
    <!-- Generator: Sketch 3.0.4 (8054) - http://www.bohemiancoding.com/sketch -->
    <title>Slice 2</title>
    <desc>Created with Sketch.</desc>
    <defs></defs>
    <g id="Page-1" stroke="none" stroke-width="1" fill="none" fill-rule="evenodd" sketch:type="MSPage">
        <g id="Group" sketch:type="MSLayerGroup" transform="translate(422.600000, 1134.500000) scale(1, -1) translate(-422.600000, -1134.500000) translate(0.100000, 0.500000)" fill="#000000">
            <path d="M629.9,2266.6 C623.1,2264.4 615.8,2260.7 609.8,2256.3 C600.8,2249.9 584,2235 584,2233.4 C583.9,2230.8 588.7,2217.7 591.7,2212.2 C596.3,2204 609.9,2172.2 609.9,2169.6 C609.9,2156.4 593.7,2125.8 570,2094.1 C520.2,2027.9 415,1921.4 286.9,1807.5 C224.8,1752.2 194.2,1726.6 166.5,1706.6 C120.3,1673.2 109.7,1661.8 109.5,1645.5 C109.5,1638 111.8,1632.4 116.9,1628.2 C121.5,1624.3 125.2,1624 135.4,1627 C178.3,1639.5 261.8,1681.3 339.9,1729.3 C395.1,1763.3 452.1,1801.6 510.9,1844.4 C571.2,1888.2 580.5,1895.4 719.9,2007.6 C743.3,2026.4 775.5,2051.6 791.6,2063.6 C827.2,2090.3 835.5,2097.9 840.5,2108.1 C843.9,2114.9 844.2,2116.2 844.7,2126.8 C845,2134.2 844.7,2140.1 843.9,2143.6 C836.4,2175.9 803.1,2206.9 752.9,2228.3 C741.8,2233.1 711.4,2243.5 708.7,2243.5 C708,2243.5 697.7,2248.2 685.9,2254 C674.1,2259.7 661.7,2265.4 658.5,2266.5 C650.9,2269.1 637.7,2269.1 629.9,2266.6 L629.9,2266.6 Z" id="Shape" sketch:type="MSShapeGroup"></path>
            <path d="M573.1,1714.5 C567.4,1714.1 562.6,1713.5 562.3,1713.2 C562,1712.9 561.5,1707.6 561.2,1701.3 C560.4,1684.2 562.2,1668.7 567.5,1646 C570,1635 572.2,1623.5 572.2,1620.5 C572.5,1602.9 535.4,1514.7 485.4,1414 C380.8,1203.3 254.9,1007.4 136.5,871.1 C128.8,862.3 106.6,837.3 87,815.6 C16.7,737.5 6.5,724.9 1.7,711.1 C-4.5,693.1 7.4,674.9 24,676.8 C46.1,679.4 113.6,730.5 211.4,818.5 C257.8,860.3 317.4,916.8 337.3,937.7 C344.6,945.4 368.7,975.6 408.4,1026.8 L468.4,1104.2 L470.2,1100.1 C474.6,1090.1 480.8,1066.2 483.3,1048.8 C487,1024.2 487.2,1011.8 485.9,861.5 C484.8,729.1 484.3,703 480.4,572 L476,428 L465.4,305.5 C453.1,163.7 453.1,164.1 459.2,140.5 C467.7,107.4 486.5,70.7 509.7,41.9 C529,17.9 550.8,2.4 568.6,3.06782377e-13 C574.8,-0.8 587.5,1 594.4,3.7 C612,10.6 625.1,28.3 631.9,54.1 C636,69.7 637.1,81.6 637,109 C636.9,131.2 634.2,246.1 632.4,298.5 C632.1,307.6 632.6,405.5 633.4,516 C634.8,712.4 635,721.3 640,905.5 C642.8,1009.2 644.8,1098.5 644.6,1104 C643.1,1138.2 616.5,1175.4 555.9,1228.3 C552.9,1230.9 552.6,1231.6 553.6,1233.6 C554.1,1234.9 594.4,1292.9 642.9,1362.5 L731.2,1489 L756.3,1514.5 C782.3,1540.8 792.2,1553.1 795.6,1563.1 C797.5,1568.7 796.9,1579.6 794.3,1587.4 C791.9,1594.6 783.1,1608.4 774.4,1618.6 C747.5,1650.1 678.2,1697.8 641.8,1709.9 C625.7,1715.3 604.5,1716.7 573.1,1714.5 L573.1,1714.5 Z" id="Shape" sketch:type="MSShapeGroup"></path>
        </g>
    </g>
</svg>