<?xml version="1.0" encoding="UTF-8" standalone="no"?>
<svg width="2356px" height="2401px" viewBox="0 0 2356 2401" version="1.1" xmlns="http://www.w3.org/2000/svg" xmlns:xlink="http://www.w3.org/1999/xlink" xmlns:sketch="http://www.bohemiancoding.com/sketch/ns">
    <!-- Generator: Sketch 3.0.4 (8054) - http://www.bohemiancoding.com/sketch -->
    <title>Slice 2</title>
    <desc>Created with Sketch.</desc>
    <defs></defs>
    <g id="Page-1" stroke="none" stroke-width="1" fill="none" fill-rule="evenodd" sketch:type="MSPage">
        <g id="Group" sketch:type="MSLayerGroup" transform="translate(1177.950000, 1200.550000) scale(1, -1) translate(-1177.950000, -1200.550000) translate(0.500000, 0.100000)" fill="#000000">
            <path d="M1002,2399.1 C992.5,2396.5 986.4,2393.7 978.4,2388.4 C969.8,2382.7 963.4,2375.6 959.3,2367.2 C956.5,2361.5 956,2359.4 955.7,2351 C955.3,2342.8 955.6,2340.6 957.3,2336.6 C961.2,2327.8 973.4,2317.1 998.5,2300.3 C1058,2260.5 1088.1,2214.2 1092.5,2155.6 C1093.1,2147.8 1094.4,2101.2 1095.5,2052 C1096.6,2002.8 1098,1945 1098.6,1923.5 C1100,1872.2 1098.7,1819.5 1093.1,1701.2 C1091.8,1675.3 1090.5,1653.7 1090.2,1653.4 C1089.9,1653 1065.6,1650.6 1036.3,1647.9 C880.7,1633.7 696.8,1616 678.8,1613.4 L674.5,1612.8 L674.5,1636.6 C674.5,1657.3 675.6,1675.1 683,1769 L691.4,1877.5 L697.5,1913.5 C703.4,1947.7 703.7,1950.1 703.2,1962 C702.8,1971.9 702.2,1976.1 700.1,1982.3 C691.3,2008.5 671.5,2033.7 638.5,2060.6 C595,2096 527.7,2130.9 476,2144.7 C467.4,2147 464,2147.4 452,2147.5 C440.3,2147.5 436.7,2147.1 430.1,2145.2 C410.4,2139.5 393.7,2127.2 386.8,2113.3 C383.4,2106.4 383.1,2105.1 383,2097.1 C383,2089.7 383.4,2087.7 385.8,2082.8 C389.2,2075.9 398.6,2065.5 412,2054.2 C439.6,2030.6 462.7,2001.7 477.7,1972.3 C488.2,1951.5 487,1959 501.5,1823.7 C514.5,1702.2 515.7,1688.8 517.5,1640.5 C518.7,1609.5 518.8,1594 517.8,1594 C517.3,1594 500.1,1591.8 479.5,1589.1 C400.6,1578.7 372.2,1576 339.4,1576 C306.5,1576 281.8,1578.5 246,1585.6 C216.1,1591.5 175.5,1603.2 148.5,1613.7 C142.2,1616.2 125.1,1623.8 110.5,1630.7 C60.4,1654.3 44.9,1660.3 34,1660.4 C20.9,1660.4 8.8,1652.3 2.8,1639.5 C0.2,1633.9 0,1632.7 0,1620 C0,1604.9 1.4,1598.8 8,1585.1 C29.7,1539.9 92.4,1487.9 177,1445 C212.9,1426.8 251.5,1411.9 275.2,1407.1 C299.3,1402.2 311.1,1404.2 413,1431.5 C461.6,1444.5 491,1452 500.5,1453.9 C522.3,1458.2 817.7,1496.8 963.5,1514.5 L1132,1534.8 L1241,1542.5 C1346.4,1549.9 1356.3,1550.5 1540.7,1558.4 L1731.3,1566.5 L1845.7,1562.3 C1948.4,1558.5 1970,1557.4 2058,1551.5 C2125.8,1547 2160.9,1544.2 2172,1542.6 C2200.7,1538.3 2233.6,1535 2247.5,1535 C2282.9,1535 2313.9,1545.5 2334.1,1564.3 C2356,1584.7 2361.2,1613.6 2347,1637 C2325.1,1673.1 2255.2,1705.5 2149.7,1728.5 C2126,1733.6 2105.1,1737.1 2094,1737.7 C2080.8,1738.4 2067.1,1735.6 2004.7,1719.9 C1954.5,1707.2 1943.9,1704.8 1931,1703.1 C1914.8,1701 1880.6,1699.1 1809,1696.5 C1785.9,1695.7 1750.1,1694.1 1729.5,1693 C1708.9,1691.9 1643.2,1688.5 1583.5,1685.5 C1523.8,1682.5 1469.6,1679.6 1463,1679 C1428.7,1676.2 1301,1668.4 1268.7,1667.2 L1249.5,1666.5 L1249.5,1685.5 C1249.5,1718.4 1254.4,1882.7 1255.6,1890.3 C1256.3,1894.2 1257.3,1898 1257.9,1898.6 C1259.3,1900 1280.2,1903.5 1299.6,1905.5 C1307.6,1906.3 1363,1909.4 1422.6,1912.5 L1531,1917.9 L1713,1938 C1813.1,1949 1896.8,1958.5 1899,1959.1 C1909.4,1961.9 1923.4,1970.9 1931,1979.7 C1940.4,1990.8 1944.5,2001.3 1944.5,2014.9 C1944.5,2041.8 1927.5,2067.1 1894.5,2089.3 C1868.9,2106.4 1830.3,2121 1810.3,2121 C1802.3,2121 1776.1,2114.7 1638,2079.5 C1608.9,2072.1 1578,2064.5 1569.5,2062.5 C1502.6,2047.5 1381.7,2029.5 1310.5,2024.1 C1289.5,2022.4 1263.8,2021.7 1263.3,2022.6 C1263,2023.1 1263.2,2027.3 1263.6,2032 C1264,2036.7 1265.8,2060.8 1267.5,2085.5 C1270.7,2132.9 1272.8,2157.2 1274.6,2168 C1275.2,2171.6 1278.6,2187.3 1282,2203 C1292.8,2251.4 1293.3,2256.2 1289.1,2268.1 C1280.2,2293.3 1245.5,2320.7 1189.6,2346.5 C1148,2365.8 1097.2,2383.6 1050.4,2395.5 C1027.8,2401.3 1013.7,2402.3 1002,2399.1 L1002,2399.1 Z" id="Shape" sketch:type="MSShapeGroup"></path>
            <path d="M1805,1552.5 C1785.8,1548.9 1772,1539.7 1765.7,1526.2 C1763.5,1521.6 1763,1519.1 1763,1513 C1763.1,1497.9 1771.1,1486.6 1794.7,1468.4 C1824.5,1445.3 1830.7,1438.4 1839.2,1419 C1844.6,1406.8 1847.6,1396 1850.9,1378 C1857.3,1342.2 1861.2,1299.1 1864.7,1222 C1866.4,1186.6 1866.3,998.1 1864.7,893.5 C1859.7,582.3 1856.5,410.4 1854.5,340 C1853.9,321.6 1853.5,305.6 1853.5,304.4 C1853.5,302.4 1852.6,302.2 1835.3,300.6 C1787,296.1 1775.3,295.6 1643,293 C1426.9,288.7 1220.6,274.2 573.2,217.9 C534.2,214.6 502.1,212 501.8,212.3 C501.5,212.6 502,323.3 502.9,458.2 C503.8,593.1 504.9,781.4 505.5,876.5 C506.7,1093.1 507,1110 509.4,1156 C511.9,1201.5 512.1,1225.5 510,1237.3 C504.1,1271 482.5,1296.1 429,1331.5 C379.3,1364.4 353.5,1376.1 319,1381.4 C296,1384.9 272.7,1384.4 256.5,1379.9 C234.6,1373.9 219.7,1358.4 218.7,1340.9 C217.9,1326.9 223.7,1317.3 249.6,1290.3 C259.6,1280 271.3,1267 275.8,1261.5 C294.2,1238.7 318.8,1195.9 324,1177.5 C332.9,1146.2 342.9,1073.4 347.5,1007 C348.1,998.1 348.5,911.8 348.5,783.4 L348.5,574.3 L341,465.9 C336.9,406.3 333.1,350.1 332.5,341 C331.3,321.8 328.9,297.9 327.4,290 C326.8,287 322.3,272.1 317.4,257 C299.6,201.7 298.6,195.9 303.9,178 C310.1,156.8 325.1,122.9 340.1,96.3 C369.8,43.5 400,9.2 423.1,2 C431,-0.4 438,-0.5 448.3,1.6 C460.1,4 467.5,7.6 486.5,20.1 C531.1,49.5 549.7,61.1 562,67 C581.4,76.3 606.2,82.3 653.5,89.4 C820.5,114.3 1226.8,147.9 1494.5,159 C1558.1,161.6 1588.7,162.1 1677,162.1 C1753.7,162 1841.2,160.8 1842.1,159.7 C1842.2,159.6 1842.8,153.4 1843.4,146 C1847.9,94.5 1864.4,45.9 1885.6,21.4 C1905.2,-1.3 1932.7,-6.3 1957.4,8.2 C1964.9,12.7 1977.1,24.9 1983.3,34.1 C1996.2,53.5 2008.9,85.5 2017.9,121.5 C2026,154.1 2027.5,194.8 2023.3,269.1 C2021.2,306.3 2021,316 2021.1,441.5 C2021.1,514.7 2021.7,601.1 2022.4,633.5 C2023,666 2024,758.7 2024.5,839.5 C2025.5,1004.9 2026.7,1053.6 2030.6,1104 C2031.1,1111.4 2034.9,1145.6 2039,1180 C2060.6,1362 2061.5,1370.3 2061.5,1390.7 C2061.5,1409.7 2060,1417.5 2054.6,1428.5 C2046.4,1445.1 2034.1,1456.6 1993.1,1486 C1946.2,1519.6 1918.3,1535 1886,1544.9 C1859.4,1553.1 1825.1,1556.3 1805,1552.5 L1805,1552.5 Z" id="Shape" sketch:type="MSShapeGroup"></path>
            <path d="M1075.3,1499.5 C1058.1,1496.8 1043.3,1488.9 1030.9,1475.8 C1025.2,1469.7 1012,1453.1 1009.1,1448.2 C1008.2,1446.8 1018.4,1433.3 1028.5,1422.6 C1032.1,1418.8 1042.2,1409.1 1051.1,1401 C1068.5,1385 1075.3,1376.5 1085.7,1357.9 C1093,1344.9 1101,1325.4 1104.1,1313.1 C1107.3,1300.5 1107.3,1302.2 1108.6,1148.5 C1109.4,1054.9 1110,1016.7 1110.9,1011.9 L1112.1,1005.3 L1099.6,1003.6 C1092.7,1002.7 1017.5,993.6 932.6,983.5 C791.5,966.6 776.8,965 761.9,965 C731.3,965 679.4,969.6 669.8,973.1 C666.6,974.3 650.6,980.8 634.3,987.6 C593.5,1004.5 584.9,1007.4 575.5,1007.5 C569.4,1007.5 567.1,1007 563.1,1005 C553,999.8 542.6,984.9 538.9,970 C535.7,957.4 538.8,936.4 545.8,922.4 C554.9,904.3 570.5,889.4 607,864 C613.6,859.4 625.5,850.3 633.5,843.6 C653.7,826.9 666.4,817.7 674.3,813.8 C680.4,810.8 682,810.5 692.5,810.2 C702.4,809.9 705.5,810.2 714.5,812.5 C729.3,816.2 744.5,820.8 778.5,831.7 C841.8,852 878.8,859.5 969.2,870.4 L973.5,871 L969.7,864.9 C965.9,858.7 946.8,832.8 939.8,824.2 C886.6,759.7 869.7,740.1 836.4,705 C771.4,636.5 679.9,559.6 566.1,477.9 C538.1,457.8 531.6,452.1 527.4,443.5 C524.6,437.7 524.3,436.4 524.6,429.2 C525.1,419.1 528.1,414 535.8,410.4 C542,407.5 548.6,407.3 560.6,409.6 C631.7,423 796,519.3 926.5,624 C970.1,659.1 998.2,684.8 1062.9,749 L1111.8,797.5 L1111.2,789.9 C1110.8,785.8 1110.3,767.3 1110,748.9 C1109.6,730.5 1106.9,656.6 1103.8,584.5 C1098.1,448 1097.9,435.6 1101,411.5 C1106.1,372.6 1119.9,339.5 1139.4,320 C1153.6,305.9 1169.5,299.8 1186.3,302.1 C1215,306.1 1235.9,339.6 1242,391.5 C1243.3,402.7 1243.5,431.2 1243.5,597.2 C1243.5,703.3 1243.7,790 1244.1,790 C1244.4,790 1251.4,786.1 1259.8,781.4 C1338.3,736.9 1409.1,686.8 1466.1,635.4 C1472.7,629.5 1511.1,593.1 1551.5,554.5 C1591.9,515.9 1627.2,482.4 1629.9,480.1 C1641.9,469.7 1658.4,460.5 1670.5,457.4 C1679.2,455.2 1694.7,455.9 1703,458.9 C1719.2,464.7 1731.2,477.6 1737.6,496.2 C1750.6,534.4 1736.5,583.8 1698.9,631 C1688.2,644.4 1659.4,672.5 1646.5,682.2 C1617.7,703.7 1554.9,741.7 1516.5,761 C1510.7,763.9 1460.2,784.2 1404.2,806.2 C1307.3,844.1 1301,846.5 1274.7,853.9 L1247,861.7 L1246.7,886.7 L1246.5,911.7 L1257.7,913.3 C1263.9,914.2 1287.5,917.6 1310,920.9 C1407.6,935.1 1468.4,941.5 1519,942.8 C1554.9,943.8 1574.2,942.8 1685.5,933.9 C1723.6,930.9 1738.5,930 1746,930.5 C1790.4,933.5 1819.5,950.7 1830.2,980.4 C1840.2,1008.3 1821.9,1033.7 1774.7,1057.4 C1738.2,1075.7 1677.3,1093.1 1649.5,1093.1 C1635.9,1093.2 1620.9,1089.8 1548.5,1070.7 C1535,1067.1 1518.8,1063.1 1512.5,1061.7 C1500.8,1059.1 1252.9,1024.2 1252.2,1025 C1252,1025.3 1252.2,1030.5 1252.6,1036.5 C1253,1042.6 1254.3,1072.3 1255.5,1102.5 C1258.6,1184.8 1258.6,1185.4 1269,1266.7 C1279.2,1346.5 1280.1,1358 1277,1372.5 C1275,1381.8 1269,1394.1 1262.7,1401.6 C1256.9,1408.6 1227.8,1433.3 1207.1,1448.8 C1150.1,1491.4 1113.6,1505.4 1075.3,1499.5 L1075.3,1499.5 Z" id="Shape" sketch:type="MSShapeGroup"></path>
            <path d="M1504.9,1451.6 C1488.2,1447.8 1475.3,1435.5 1473.2,1421.5 C1472.4,1416.5 1474.6,1407 1481.5,1385.5 C1488.7,1363 1491.5,1352.2 1491.5,1346.9 C1491.5,1313 1430.8,1229.8 1351.1,1154.2 C1327.7,1132 1315.2,1118.7 1310.9,1111.5 C1306.1,1103.2 1305.6,1091.1 1309.9,1084.7 C1313.6,1079.3 1318.8,1077 1328,1077 C1347.3,1077 1357.3,1081.5 1558,1180.5 C1615.8,1209 1665.1,1233.8 1667.7,1235.7 C1676.6,1242.2 1688.4,1257.8 1692.6,1268.9 C1704.6,1300.4 1657.3,1376.9 1598.5,1421.2 C1580.4,1434.7 1561.1,1444.7 1543.1,1449.6 C1531.7,1452.7 1514,1453.7 1504.9,1451.6 L1504.9,1451.6 Z" id="Shape" sketch:type="MSShapeGroup"></path>
            <path d="M679,1340.8 C681.1,1330.8 685.2,1321.4 691.4,1312.1 C695,1306.7 701.9,1296.4 706.6,1289.4 C723.4,1264.5 742.6,1229.6 778,1160 C814.9,1087.5 823.8,1072.6 840.4,1055.9 C856.8,1039.5 870.1,1034.5 897.5,1034.5 C911,1034.5 914,1034.8 920.5,1036.8 C948.3,1045.5 967.2,1067.8 973,1098.5 C975.4,1111.2 974.6,1131.9 971.2,1145 C966.4,1163.4 957.7,1181 944.4,1199 C936.3,1210.1 906.9,1239.3 893.5,1249.6 C848.2,1284.7 785.5,1320.6 747.5,1333.3 C730.9,1338.9 720.2,1340.6 685.2,1343.6 L678.3,1344.1 L679,1340.8 L679,1340.8 Z" id="Shape" sketch:type="MSShapeGroup"></path>
        </g>
    </g>
</svg>