<?xml version="1.0" encoding="UTF-8" standalone="no"?>
<svg width="1008px" height="2345px" viewBox="0 0 1008 2345" version="1.1" xmlns="http://www.w3.org/2000/svg" xmlns:xlink="http://www.w3.org/1999/xlink" xmlns:sketch="http://www.bohemiancoding.com/sketch/ns">
    <!-- Generator: Sketch 3.0.4 (8054) - http://www.bohemiancoding.com/sketch -->
    <title>Slice 2</title>
    <desc>Created with Sketch.</desc>
    <defs></defs>
    <g id="Page-1" stroke="none" stroke-width="1" fill="none" fill-rule="evenodd" sketch:type="MSPage">
        <g id="Group" sketch:type="MSLayerGroup" transform="translate(503.600000, 1172.600000) scale(1, -1) translate(-503.600000, -1172.600000) translate(0.100000, 0.600000)" fill="#000000">
            <path d="M348.2,2343.5 C323.6,2340.3 307.1,2330.1 297.9,2312.4 C293.9,2304.9 287.9,2288.8 287.9,2285.9 C287.9,2285.1 302.2,2268.4 319.7,2248.8 C369.3,2193 378.3,2181.6 388.5,2161.3 C397.3,2144 401.9,2125.4 406.4,2090.5 C414.8,2023.5 419.7,1910.6 416.5,1856 L415.6,1840.9 L403,1836.4 C346.5,1816.1 295.8,1804.5 249.8,1801.4 C207.2,1798.6 187.2,1804.8 141.4,1835.1 C101.3,1861.7 77.9,1871.2 50.3,1872.3 C31.7,1873.1 22.7,1870.2 12.2,1860.3 C2.1,1850.7 -2.4,1836 1.3,1824.4 C5.4,1811.8 15.6,1791.8 38.4,1751.6 C58.7,1715.9 58.1,1717.3 63.7,1694 C77.4,1638.1 78.6,1623.7 79.9,1510.1 C80.4,1463.4 81.6,1396.5 82.4,1361.6 C84.8,1262.3 85.4,1176.3 84,1136.6 C83,1108.1 82.2,1097.5 79.4,1075.6 C69,995.8 67.6,973.7 71.6,955.6 C79.7,919 99.3,880.3 121.8,856.3 C131.3,846.2 138.9,840.5 148.6,835.8 C155.7,832.5 157.3,832.1 166.5,831.8 C178.5,831.3 185,832.5 193.7,836.8 C215.9,847.8 228.7,876.8 233.9,928.1 C236.5,953.9 237.2,975.6 240.4,1133.6 C242.7,1241 242.9,1272 242.9,1463.8 L242.9,1675.4 L250.2,1678.4 C265,1684.6 297.1,1693.2 336.4,1701.5 C358.8,1706.2 413.7,1716.3 419.4,1716.8 L423.3,1717.1 L424.6,1711.6 C426.4,1704.1 426.3,1687.6 424.2,1662.3 C421.4,1629.1 422,1511.3 425.6,1386.4 L428.4,1289.7 L424.2,1087.4 C421.2,941.4 418.2,827.6 413.5,678.6 L406.9,472.1 L397.9,367.1 C393,309.4 388.5,257.6 387.9,252.1 C387.3,246.6 386.6,224.3 386.2,202.6 C385.6,157.9 386.3,149.1 392.3,125.5 C406.9,67.7 444.2,16.6 481.3,3.5 C500.9,-3.3 522.6,-0.1 535.3,11.6 C552.3,27.3 562.2,61.9 567.4,123.6 C570.7,164.2 571.2,193.3 570.5,325.6 C568.6,712 568.7,759.6 571.3,1140.6 C574.6,1622.8 575.6,1714.1 577.5,1741.1 C578.4,1753.6 579.5,1762.3 580.1,1762.7 C583.9,1765.1 678.1,1783.5 773.1,1800.5 C785.5,1802.8 798.1,1804.6 801.1,1804.6 C818.5,1804.6 823.9,1786.6 822.5,1733.1 C821,1674.6 816.1,1602.4 807,1503.6 C805.4,1486.3 803.8,1467.6 803.4,1462.1 C802.6,1449.2 798.7,1426.5 795.4,1415.2 C788.4,1391.2 779.2,1377.6 767.7,1374.2 C763.5,1372.9 762.1,1373 749.7,1375.6 C717,1382.6 644.7,1399.6 639.7,1401.5 C637.1,1402.5 636.7,1402.2 631.4,1395.7 C628.4,1392 625.9,1388.5 625.9,1388.1 C625.9,1387.7 638.4,1368.9 653.7,1346.3 C707.8,1266.4 716.1,1253.4 733.9,1220.6 C760.2,1172.4 767.6,1162.2 780.7,1156.4 C787.3,1153.4 799.7,1152.8 807.4,1155.1 C856.8,1169.4 920.6,1262.2 936.9,1343.3 C939.3,1355.7 941.1,1373.6 947.9,1452.6 C952.3,1504.6 956.8,1557.2 957.9,1569.6 C959,1582 961.5,1610.1 963.4,1632.1 C969.7,1704.2 972.7,1730.1 976.2,1741.6 C977,1744.1 982.3,1752.9 988,1761.2 C993.8,1769.5 1000.5,1780.1 1002.9,1784.7 C1006.7,1792 1007.2,1793.8 1007.1,1799.1 C1006.7,1829.9 967.4,1886.9 921.2,1923.7 C902.7,1938.4 878,1952 860.8,1957 C856,1958.3 847.9,1959.9 842.8,1960.5 C824.2,1962.6 817.2,1960.4 759,1934.6 C695.9,1906.8 665.2,1897.9 593.8,1887 C590.3,1886.5 590.1,1886.6 589.5,1889.8 C588.2,1897.4 583,1938.8 582.4,1947.1 C581.3,1961.7 583.4,1977.2 598,2062.7 C613.5,2153.9 615.8,2173.7 612.6,2191.2 C607.1,2221.1 590.4,2237.5 510.4,2291.1 C454,2328.8 430.3,2339.5 393.4,2343.6 C383,2344.7 357.3,2344.7 348.2,2343.5 L348.2,2343.5 Z" id="Shape" sketch:type="MSShapeGroup"></path>
        </g>
    </g>
</svg>