<?xml version="1.0" encoding="UTF-8" standalone="no"?>
<svg width="2268px" height="2460px" viewBox="0 0 2268 2460" version="1.1" xmlns="http://www.w3.org/2000/svg" xmlns:xlink="http://www.w3.org/1999/xlink" xmlns:sketch="http://www.bohemiancoding.com/sketch/ns">
    <!-- Generator: Sketch 3.0.4 (8053) - http://www.bohemiancoding.com/sketch -->
    <title>Untitled 4</title>
    <desc>Created with Sketch.</desc>
    <defs></defs>
    <g id="Page-1" stroke="none" stroke-width="1" fill="none" fill-rule="evenodd" sketch:type="MSPage">
        <g id="Group" sketch:type="MSLayerGroup" transform="translate(1142.000000, 1506.500000) scale(1, -1) translate(-1142.000000, -1506.500000) translate(333.000000, 553.000000)" fill="#000000">
            <path d="M592.2,1880.5 C617,1861.2 647.9,1832 661.4,1815 C697.9,1769.1 713.3,1721.7 719,1637.5 C719.9,1623.7 722.4,1485.1 721.8,1484.4 C721.5,1484.1 568.6,1460 479,1446.1 C364.8,1428.3 278,1415.5 255.3,1412.9 C240.6,1411.3 221.3,1413.6 209.7,1418.5 C207.7,1419.3 202.1,1423.6 197.3,1428 C164,1458.1 126.5,1480.8 93.5,1490.9 C51,1503.8 15.2,1496.5 3.5,1472.6 C-0.6,1464.3 -1.1,1453.1 2,1442.8 C4.9,1433 12.3,1415 27,1382 C37.6,1358 39.7,1352.3 43.5,1337.5 C54.3,1295.2 62.1,1245.4 65,1200 C65.6,1190 66,1133.4 66,1056 L66,928.5 L57,822 C52.1,763.4 46.7,700.7 45,682.5 C35.9,581.5 35.1,550.8 41.1,518 C51.1,461.9 82,417.6 119.5,405.3 C130.2,401.8 145.6,401.6 154.2,404.7 C162.1,407.6 168.4,412.4 173.7,419.5 C185.9,435.7 192.1,457.4 199.4,509.5 C209.6,581.9 211.3,612.1 213,752.5 C213.6,798.2 215.2,907.3 216.5,995 C217.9,1082.7 219,1169.4 219,1187.5 C219,1235.7 220.6,1256.8 225.6,1275.1 L227.2,1280.7 L235.8,1281.9 C253.2,1284.3 345.8,1298.6 488.5,1321.1 C568.8,1333.7 653.4,1347 676.5,1350.5 C699.6,1354.1 719.7,1357.2 721.3,1357.5 L724,1149.7 L724,941.5 L718.5,753.5 C713.6,587.5 710.4,490.9 707,410.5 C703.6,330.1 702.1,216.1 703.9,181 C710.2,59.5 738.2,-0.1 788.8,-1.3869794e-12 C835.7,0.1 859.5,49.3 868.5,164.5 C873.9,234.9 875.5,346.9 879.6,973.5 C881.1,1197.9 882.4,1381.6 882.5,1381.7 C883.2,1382.8 1097.3,1409.1 1181,1418.4 C1293.4,1430.9 1338.7,1434.2 1358.5,1431 C1382.4,1427.3 1398.4,1416.5 1408.2,1397.4 C1413.8,1386.6 1417.1,1375.7 1419.9,1358.9 C1424.2,1332.9 1424.3,1328.2 1424.7,1175.2 C1425.1,1035.1 1425,1023.7 1422.6,943.2 C1420,855.8 1419.6,845.8 1417.9,828 C1414.9,794.7 1406.7,772.7 1392,757.9 C1370.3,736.1 1338.9,731.8 1281,742.6 C1262.5,746 1206.4,757.4 1196,759.9 C1181.1,763.3 1167.4,765 1149.6,765.7 L1132.3,766.3 L1126.7,759.3 C1123.5,755.4 1121,752.1 1121,751.8 C1121,751.4 1237.6,636.7 1291.1,584.5 C1303,573 1315.6,559.7 1319.2,555 C1322.8,550.3 1331.2,537.3 1338,526 C1356.9,494.3 1366.6,481.9 1378.7,473.6 C1388.7,466.8 1395.4,464.7 1408.5,464.2 C1425.7,463.6 1439,468.1 1458.2,481.2 C1469,488.5 1488.8,507.7 1497.7,519.5 C1539.6,575.2 1565.8,654.4 1575.9,757 C1580.5,802.9 1580.5,802.5 1583.5,1057.5 C1586.4,1299.9 1586.6,1313.9 1588.1,1325.5 C1588.8,1330.9 1593,1347.6 1598.6,1367.2 C1614.9,1424 1618,1436.8 1618,1447.3 C1618,1470.2 1601.8,1492.9 1571,1513.4 C1547.1,1529.3 1477.6,1565.9 1452.5,1575.7 C1445.3,1578.5 1435.7,1581.8 1431,1583 C1415.6,1587 1406.9,1586.2 1331.4,1573.1 C1282.8,1564.6 1287.5,1565.3 1158.5,1547.5 C1050.4,1532.5 916.2,1513.4 896.1,1510.2 L884.8,1508.3 L885.4,1520.4 C889.9,1602.9 893.9,1640.9 909.5,1749 C911.6,1763.4 911.7,1767 910.9,1776.8 C909.2,1798.4 901.4,1815 884,1834.6 C864.4,1856.7 827.6,1882.6 782.6,1906.1 C771,1912.1 592.2,1880.5 592.2,1880.5 Z" id="Shape" sketch:type="MSShapeGroup"></path>
        </g>
    </g>
</svg>