<?xml version="1.0" encoding="UTF-8" standalone="no"?>
<svg width="2431px" height="1067px" viewBox="0 0 2431 1067" version="1.1" xmlns="http://www.w3.org/2000/svg" xmlns:xlink="http://www.w3.org/1999/xlink" xmlns:sketch="http://www.bohemiancoding.com/sketch/ns">
    <!-- Generator: Sketch 3.0.4 (8054) - http://www.bohemiancoding.com/sketch -->
    <title>Slice 2</title>
    <desc>Created with Sketch.</desc>
    <defs></defs>
    <g id="Page-1" stroke="none" stroke-width="1" fill="none" fill-rule="evenodd" sketch:type="MSPage">
        <g id="Group" sketch:type="MSLayerGroup" transform="translate(1215.500000, 533.900000) scale(1, -1) translate(-1215.500000, -533.900000) translate(0.000000, 0.900000)" fill="#000000">
            <path d="M1176.5,1065.9 C1152.9,1063.9 1135.4,1054.7 1119,1035.8 C1110,1025.4 1098,1010.7 1098,1010 C1098,1009.7 1104,1006.3 1111.2,1002.4 C1169.4,971.6 1196.1,954.2 1223.5,929.2 C1245.5,909.1 1247.6,906.7 1350.2,785.9 C1470.9,643.6 1555.4,540 1695.3,363 L1820.5,204.4 L1890.5,134.2 C1959.4,65 1960.6,63.9 1968,60.5 C1988.9,51.1 2030.5,40.7 2067,36 C2113.1,30 2129.1,30.1 2267,37.8 C2376.7,43.9 2390.3,44.9 2403.7,47.4 C2411.3,48.9 2428.8,54.5 2430.4,56 C2431.3,56.8 2422.2,73 2416.7,80.4 C2402.6,99.1 2387.3,109 2239.5,195.6 C2124.3,263.1 2127.8,260.9 2064.5,306.1 C1900.4,423.3 1835.3,476.2 1713.5,591.5 C1654.5,647.4 1420.9,885.3 1341.9,969.9 C1315.7,998 1275.8,1037.3 1266.7,1044.1 C1250.9,1055.8 1234,1062.6 1215.8,1064.8 C1203.4,1066.3 1186.7,1066.7 1176.5,1065.9 L1176.5,1065.9 Z" id="Shape" sketch:type="MSShapeGroup"></path>
            <path d="M579,934.3 C561.3,929.6 549,917.2 549,904.2 C549,899.6 553.5,888.4 569.4,853.6 C584,821.5 586.2,815.5 588.1,802.9 C594.3,760.4 564.9,690.5 499.7,592.9 C475.2,556.3 405.3,461.1 339.3,374.3 C322.7,352.6 320.8,350.6 178.6,200.5 C159.9,180.8 140.4,162.4 90.5,117.3 C40.6,72.3 31.7,63.1 18.8,43.5 C14,36.2 0,10.2 0,8.5 C0,8.3 2.5,6.3 5.6,3.9 L11.1,-0.2 L28.5,4.8 C59.6,13.8 69.8,18.2 94.5,33.4 C102.8,38.5 124.8,51.1 143.5,61.4 C162.2,71.7 183.8,83.8 191.5,88.2 C199.2,92.6 246.7,124.5 297,159 C385.6,219.9 389,222.3 404.6,236.6 C413.5,244.8 462.4,292.6 513.4,342.9 L606.2,434.4 L681.8,526.4 C723.4,577 761.8,623.6 767.1,630 C794.9,663.2 822.3,703.7 831.1,724.8 C837.1,739 836,751 827.3,768.4 C810.1,802.7 764.8,849.3 714.2,884.7 C660.5,922.3 607.3,941.8 579,934.3 L579,934.3 Z" id="Shape" sketch:type="MSShapeGroup"></path>
        </g>
    </g>
</svg>