<?xml version="1.0" encoding="UTF-8" standalone="no"?>
<svg width="2575px" height="1581px" viewBox="0 0 2575 1581" version="1.1" xmlns="http://www.w3.org/2000/svg" xmlns:xlink="http://www.w3.org/1999/xlink" xmlns:sketch="http://www.bohemiancoding.com/sketch/ns">
    <!-- Generator: Sketch 3.0.4 (8054) - http://www.bohemiancoding.com/sketch -->
    <title>Slice 2</title>
    <desc>Created with Sketch.</desc>
    <defs></defs>
    <g id="Page-1" stroke="none" stroke-width="1" fill="none" fill-rule="evenodd" sketch:type="MSPage">
        <g id="Group" sketch:type="MSLayerGroup" transform="translate(1287.700000, 790.800000) scale(1, -1) translate(-1287.700000, -790.800000) translate(0.600000, 0.600000)" fill="#000000">
            <path d="M1164.4,1579.9 C1145.9,1578.5 1129.5,1572.4 1117,1562.2 C1111,1557.4 1095.4,1539.6 1095.4,1537.5 C1095.4,1536.9 1115.8,1513.6 1140.7,1485.8 L1185.9,1435.2 L1260.5,1329.8 C1301.6,1271.9 1371,1172.5 1414.8,1109 L1494.5,993.5 L1680.7,740.7 C1785.5,598.5 1869.3,483.8 1872.4,478.4 C1876.2,471.8 1903.8,435.8 1962.7,360.7 C2009.4,301.2 2051.7,247.9 2056.7,242.3 C2095.7,198.8 2149.4,169.8 2212.9,158.1 C2241.4,152.8 2251.6,152.1 2378.3,147 C2455.1,143.8 2485.2,143 2521.1,143 L2566.5,143 L2570.1,150.5 C2573,156.6 2573.7,159.5 2574.1,166.3 C2574.7,174.9 2573.5,178.8 2568.7,184.7 C2567.7,185.8 2517,220.5 2455.9,261.7 L2344.9,336.6 L2234.4,424.5 L2123.8,512.5 L2041.4,597.5 C1943.2,698.8 1927.5,716 1825.4,832 C1747.9,920.2 1744.8,923.9 1613.8,1084 L1480.9,1246.5 L1364,1398.5 C1299.7,1482.1 1244.6,1553.1 1241.5,1556.4 C1223.9,1574.8 1198.3,1582.6 1164.4,1579.9 L1164.4,1579.9 Z" id="Shape" sketch:type="MSShapeGroup"></path>
            <path d="M520.8,1120.4 C498,1116.6 477.5,1106.3 469.6,1094.7 C463.1,1085.4 461.8,1071.1 466.4,1061.9 C470.7,1053.6 484.3,1042.3 535.6,1004.4 C553,991.5 569.3,965.6 573.8,943.7 C584.9,889.9 528.6,751.3 425.1,578 C357.5,464.8 279.4,351.4 205.6,259.1 C169.9,214.5 149.5,191.2 103.9,143 C49.8,85.9 33.6,67.9 21.4,51.5 C14.4,42.1 6.2,28.9 2.3,20.7 L0,16 L7.9,8 C12.3,3.6 16.6,-6.82121026e-13 17.5,-6.82121026e-13 C18.4,-6.82121026e-13 23.9,1.8 29.7,3.9 C63.8,16.6 99.1,35.1 133.7,58.6 C151.9,71 157.4,75.2 227.4,129.9 C279.2,170.4 289.9,179.3 310.4,198.5 C323.3,210.6 343.1,229.1 354.3,239.5 C365.5,250 384.8,269.5 397.2,283 C409.7,296.5 431.8,320.3 446.5,336 C461.2,351.7 475.4,367.2 478.1,370.5 C480.9,373.8 512.5,417 548.5,466.5 L613.9,556.5 L647.1,610.1 C692.8,683.9 798.5,858.3 805,870.5 C812.3,884.4 813.8,890.1 813.1,901.9 C812.3,916.6 807.1,929.1 793.3,949.9 C746.8,1019.8 647.9,1096.4 578.6,1116.4 C559.1,1122 538.6,1123.4 520.8,1120.4 L520.8,1120.4 Z" id="Shape" sketch:type="MSShapeGroup"></path>
        </g>
    </g>
</svg>