<?xml version="1.0" encoding="UTF-8" standalone="no"?>
<svg width="2195px" height="1944px" viewBox="0 0 2195 1944" version="1.1" xmlns="http://www.w3.org/2000/svg" xmlns:xlink="http://www.w3.org/1999/xlink" xmlns:sketch="http://www.bohemiancoding.com/sketch/ns">
    <!-- Generator: Sketch 3.0.4 (8054) - http://www.bohemiancoding.com/sketch -->
    <title>Slice 2</title>
    <desc>Created with Sketch.</desc>
    <defs></defs>
    <g id="Page-1" stroke="none" stroke-width="1" fill="none" fill-rule="evenodd" sketch:type="MSPage">
        <g id="Group" sketch:type="MSLayerGroup" transform="translate(1097.100000, 972.300000) scale(1, -1) translate(-1097.100000, -972.300000) translate(0.100000, 0.800000)" fill="#000000">
            <path d="M1773.7,1942.8 C1759.6,1941.7 1746.4,1939.1 1713.1,1930.8 C1672.1,1920.6 1639.8,1913.4 1616.1,1909.3 C1611.3,1908.5 1564.7,1902.7 1512.4,1896.4 C1412.5,1884.3 1387.6,1881.9 524.4,1801.3 C385,1788.3 362.6,1787.3 272.4,1789.7 C208.1,1791.5 192.1,1795.9 150.3,1823.9 C122.5,1842.5 90.1,1860.3 76.4,1864.4 C68.3,1866.9 46.3,1866.9 36.9,1864.5 C17.6,1859.4 4.5,1846.4 0.8,1828.8 C-0.8,1821.2 0.2,1806.8 2.9,1798.3 C5.8,1789 13,1774.8 22.5,1759.7 C56.2,1706 74,1647 81.4,1564.8 C85,1523.8 85.2,1507.3 84,1319.8 L82.8,1138.3 L71.8,788.3 C65.8,595.8 60.4,431.8 59.9,423.8 C57.6,391.9 53.2,354.2 47.3,316.8 C40.2,271.7 40.2,271.6 23.9,216.8 C9.3,167.9 6.2,151.1 9.3,138.8 C12.8,125 27,100.3 42.4,81 C78.6,36 123,2.7 150.3,0.1 C161.3,-0.9 172.5,3.6 217.9,27.2 C233,35.1 248.4,42.7 252.1,44.2 C268.6,50.7 316.5,62.2 360.4,70.3 C407.2,78.9 428.2,81.3 542.4,91.3 C649.3,100.6 653.9,101 781.4,107.8 C909.4,114.6 913.8,114.8 1069.4,118.8 C1175.3,121.5 1289.8,123.7 1416.7,125.4 L1606.1,128 L1720.2,122.8 C1822.6,118.2 1845.5,116.9 1940.9,109.8 C1999.5,105.4 2054.2,101.4 2062.4,100.8 C2070.7,100.2 2087.8,98.8 2100.4,97.7 C2134.4,94.6 2148.1,96 2165.6,104.4 C2189.3,115.8 2198.4,136.9 2191.3,164.2 C2184.3,191.3 2157.9,216.6 2112.9,239.2 C2073.1,259.4 2014.7,278 1964.2,286.8 C1949.8,289.3 1945.5,289.3 1919.4,286.8 C1873.2,282.4 1851,280.9 1821.4,279.8 C1804.4,279.2 1637.4,273.1 1450.4,266.3 C1114.4,254 1108.1,253.7 910.4,243.3 L710.4,232.8 L576.9,220.8 C486.3,212.6 408,204.9 333,196.8 C272.3,190.2 222.5,184.9 222.3,185.1 C222.2,185.2 221.5,202.2 220.7,222.8 C219,270.9 219,478.3 220.7,560.8 C222.8,659.8 224.8,752.9 226.9,840.8 C228,886.7 229.6,954.2 230.4,990.8 C235,1195.1 240.5,1309.8 255.5,1512.8 C261.9,1600.4 264.7,1635.9 265.1,1636.3 C265.6,1636.8 332.2,1646.5 374.4,1652.3 C457.8,1663.6 515.1,1670.2 667.9,1685.8 C754.5,1694.6 845,1703.9 868.9,1706.4 C935.6,1713.2 1431.3,1748.9 1578.8,1757.5 L1693.4,1764.2 L1824.4,1764.8 C1941.6,1765.4 1956.3,1765.7 1963.9,1767.2 C1992,1772.7 2005,1783.2 2010.5,1804.8 C2012.8,1813.6 2012.8,1831.1 2010.5,1840.3 C2001.8,1876.3 1963.6,1905.2 1898.9,1924.7 C1857.4,1937.3 1803.8,1945 1773.7,1942.8 L1773.7,1942.8 Z" id="Shape" sketch:type="MSShapeGroup"></path>
        </g>
    </g>
</svg>