<?xml version="1.0" encoding="UTF-8" standalone="no"?>
<svg width="1017px" height="1897px" viewBox="0 0 1017 1897" version="1.1" xmlns="http://www.w3.org/2000/svg" xmlns:xlink="http://www.w3.org/1999/xlink" xmlns:sketch="http://www.bohemiancoding.com/sketch/ns">
    <!-- Generator: Sketch 3.0.4 (8054) - http://www.bohemiancoding.com/sketch -->
    <title>Slice 2</title>
    <desc>Created with Sketch.</desc>
    <defs></defs>
    <g id="Page-1" stroke="none" stroke-width="1" fill="none" fill-rule="evenodd" sketch:type="MSPage">
        <g id="Group" sketch:type="MSLayerGroup" transform="translate(508.500000, 948.100000) scale(1, -1) translate(-508.500000, -948.100000) translate(0.500000, 0.100000)" fill="#000000">
            <path d="M520.8,1895.1 C498,1891 479.1,1873 479.2,1855.6 C479.2,1848.2 481.8,1841.4 497.3,1807.6 C516.2,1766.3 517.2,1763.2 515.1,1749.4 C511.1,1723 492.5,1678.8 464.5,1629.1 C455.6,1613.3 327.8,1402.5 317.8,1387.1 C296.5,1354.5 276.7,1334.3 256,1324 C244.3,1318.2 237,1316.2 226,1315.4 C219.4,1315 217.2,1315.2 213.4,1316.9 C208.4,1319.1 185.7,1331.3 148.1,1352.1 C129.9,1362.1 121.4,1366.2 112.6,1369.1 C82.8,1379 43.1,1384 26.5,1380.1 C15.1,1377.4 7,1371.8 2.7,1363.7 C0.5,1359.4 0,1357.3 0,1350.6 C0,1342.9 0.2,1342.2 5.7,1331.1 C8.8,1324.8 18.6,1307.5 27.5,1292.6 C47.4,1259.3 48.6,1257 52.9,1242.8 C64.7,1203.9 72.4,1146.3 75.6,1073.1 C77.6,1026.7 75,682.2 71.5,520.1 C68.6,389.2 66.5,248.9 66.5,186.4 C66.5,146.2 68.3,130.8 77,95.4 C89,46.3 107.3,12.8 127.4,2.9 C135.7,-1.2 144.6,-1.6 151.5,2 C164.2,8.6 182.8,26.3 209.2,57.1 C227.7,78.7 234.5,85 243.9,89.6 C256.8,95.8 282.4,101.4 338,110.1 C352.3,112.4 402.1,120.3 448.8,127.6 L533.5,141.1 L559.5,141.1 C573.8,141.1 605.4,142.1 629.7,143.2 C654.1,144.4 687.3,145.4 703.5,145.5 C730.2,145.6 734.3,145.4 747,143.2 L761,140.9 L769.5,128.3 C795.8,89.3 810.1,75 826.9,70.5 C833.8,68.7 849.7,68.7 857,70.6 C874.6,75.2 891.9,91.7 903.3,114.6 C920.1,148.5 930.5,201.2 934.5,272.1 C935,282.3 939.1,418.9 943.5,575.6 L951.5,860.6 L962.5,984.9 C969.3,1060.8 974.3,1113.4 975.6,1119.9 C979,1137.8 984.1,1160.4 996.1,1210.6 C1012.4,1278.6 1015.5,1292.8 1015.5,1299.6 C1015.5,1326 992.7,1354.9 951.5,1380.6 C922.3,1398.8 875.7,1418.1 850,1422.6 C840.6,1424.2 835,1423.5 803.8,1417.1 C792.9,1414.8 780.4,1412.3 776,1411.5 C771.6,1410.6 749.6,1404.6 727,1398.1 L686,1386.2 L563.2,1365.6 C495.6,1354.2 440.1,1345.1 439.9,1345.4 C439.6,1345.7 447.9,1357.2 458.4,1370.9 C483,1403.3 697.1,1690.7 708.8,1707 C720.2,1723.1 727.7,1735.3 733.3,1746.9 C739.2,1759 739.5,1764.6 734.8,1774.2 C728.3,1787.3 713.6,1800.4 680.7,1822.2 C648,1843.9 613.8,1863.8 586.3,1877.1 C554.1,1892.6 535.5,1897.7 520.8,1895.1 L520.8,1895.1 Z M769.6,1266.1 C791.9,1265.3 794.8,1264.8 798.7,1260.4 C801.6,1257.2 804.4,1249.9 806.1,1240.5 C808.2,1229.1 809.1,1182.5 807.7,1155.6 C807.2,1145.2 803.6,1080 799.9,1010.9 L793,885.2 L787.5,883.7 C777.9,881.1 751.1,878.1 737.2,878.1 C722.9,878.1 533.3,853.7 383.1,832.5 C299,820.7 230,811.2 229.7,811.5 C229,812.3 231.5,1088.1 232.6,1119.1 C234,1162.2 236.1,1186.6 238.5,1188.1 C239.4,1188.7 460.8,1226.1 632.5,1254.6 L713,1268 L730.5,1267.5 C740.1,1267.2 757.7,1266.6 769.6,1266.1 L769.6,1266.1 Z M781.6,746.9 L790.5,745.7 L791.5,742 C795.2,728.5 795.2,721.5 791.4,676.6 C788.7,643.8 787.5,610 787.5,563.1 C787.5,541.4 787.1,481.3 786.5,429.6 L785.4,335.6 L781.3,309.6 L777.1,283.6 L661.6,275.8 L546,268 L447.5,254.1 C393.3,246.4 329.4,237 305.5,233.1 C253.6,224.7 244.4,223.3 234.4,222.5 L226.9,221.8 L225.6,276.5 C224.1,343.7 226,684.8 227.9,686.7 C228.5,687.4 236.2,690.2 245,693 L261,698.2 L411,716.6 L561,735.1 L661.5,741.5 C716.8,745 764.4,747.9 767.4,748 C770.3,748 776.8,747.6 781.6,746.9 L781.6,746.9 Z" id="Shape" sketch:type="MSShapeGroup"></path>
        </g>
    </g>
</svg>