<?xml version="1.0" encoding="UTF-8" standalone="no"?>
<svg width="2390px" height="2528px" viewBox="0 0 2390 2528" version="1.1" xmlns="http://www.w3.org/2000/svg" xmlns:xlink="http://www.w3.org/1999/xlink" xmlns:sketch="http://www.bohemiancoding.com/sketch/ns">
    <!-- Generator: Sketch 3.0.4 (8054) - http://www.bohemiancoding.com/sketch -->
    <title>Slice 2</title>
    <desc>Created with Sketch.</desc>
    <defs></defs>
    <g id="Page-1" stroke="none" stroke-width="1" fill="none" fill-rule="evenodd" sketch:type="MSPage">
        <g id="Group" sketch:type="MSLayerGroup" transform="translate(1195.150000, 1263.950000) scale(1, -1) translate(-1195.150000, -1263.950000) translate(0.600000, 0.400000)" fill="#000000">
            <path d="M1084.1,2526.8 C1080.9,2526.4 1079.5,2525.4 1074.8,2519.7 C1071.7,2516 1068.1,2510.8 1066.7,2508 C1064.4,2503.5 1064.2,2502.3 1064.7,2495 C1065.1,2490.6 1066,2484.8 1066.9,2482 C1067.7,2479.3 1073.9,2467.8 1080.7,2456.5 C1095.8,2431.2 1095.5,2432.9 1086.2,2414.3 C1076.3,2394.8 1049.9,2352.9 1033.4,2330.5 C1012.6,2302.3 998.1,2281.9 987.4,2266 C969,2238.6 959.4,2232.4 930.9,2229.5 C913.7,2227.7 821.2,2228.7 811.6,2230.8 C807.6,2231.7 785.5,2238.7 762.6,2246.4 C710.2,2264.1 700.6,2266.5 681.9,2267.2 C664.9,2267.8 658.1,2266.5 644.7,2260 C628.5,2252.1 617.9,2239 616.7,2225.4 C616.2,2220.5 616.6,2218.8 619.1,2213.3 C623,2205.1 633,2190.1 648.8,2169 C655.8,2159.7 663.2,2148.4 665.3,2144 C672.4,2129.5 681.5,2097.5 689.4,2059.5 C696.7,2024.5 695.9,2038.9 702.9,1797 C706.4,1674.4 709.5,1569.7 709.8,1564.4 C711.3,1538 720.7,1511.4 734.4,1494.1 C747.5,1477.6 763.7,1469.6 785.9,1468.8 C803.1,1468.1 806.8,1469.6 843.8,1492.7 C852.6,1498.2 860.8,1503.1 862.2,1503.6 C869.9,1506.5 915.3,1512.9 974.4,1519.5 C1042.3,1526.9 1078,1530.3 1209.6,1541.5 C1286.8,1548.1 1350.8,1553.7 1351.9,1554 C1353,1554.3 1377.9,1555 1407.2,1555.5 C1483.8,1556.8 1512.1,1555.3 1529.4,1549 C1533,1547.7 1550.1,1540.6 1567.4,1533.2 C1605.9,1516.8 1612.6,1514.4 1622.6,1513.7 C1632.7,1513.1 1641.1,1514.8 1650.9,1519.5 C1674.9,1531.1 1693.7,1558.5 1699.9,1590.8 C1700.8,1595.3 1708.7,1669.4 1717.4,1755.5 C1726.2,1841.6 1735.2,1927.3 1737.5,1946 C1741.8,1982.5 1749.8,2043.7 1751.4,2052.2 C1751.9,2055.1 1756.1,2066.4 1760.8,2077.2 C1785.9,2136 1789.5,2149.3 1784.1,2162.6 C1774.4,2186 1736.6,2226.2 1690.9,2261.5 C1657.3,2287.5 1622.2,2306.5 1607.9,2306.5 C1603.1,2306.5 1592.3,2303.5 1553.9,2291.6 C1516.6,2280.1 1501.9,2276.4 1484.9,2274.5 C1473.9,2273.3 1095,2242.5 1094.7,2242.8 C1094.6,2243 1135.8,2268 1186.2,2298.5 C1236.6,2329 1281,2356.5 1284.9,2359.6 C1301.3,2372.9 1307.2,2386.8 1304.5,2405.9 C1300.9,2431 1288.1,2447.4 1258.4,2464.7 C1245.4,2472.2 1180.7,2506.4 1169.8,2511.5 C1156.6,2517.7 1147,2521.4 1136.9,2524.2 C1128.9,2526.5 1125.8,2526.8 1107.9,2527 C1096.9,2527.2 1086.2,2527.1 1084.1,2526.8 L1084.1,2526.8 Z M1558.9,2158.7 C1569.4,2153.9 1575.8,2144.4 1579,2128.9 C1581.5,2116.8 1580.5,2093 1576.4,2069.5 C1574.7,2059.3 1573.1,2050.9 1573,2050.7 C1572.8,2050.6 1537.9,2050 1495.3,2049.5 C1452.7,2049 1416.1,2048.3 1413.9,2048 C1407.5,2047.1 1099.4,2024.8 993.4,2017.5 C934.2,2013.5 842,2007.5 841.8,2007.8 C841.7,2007.9 840.8,2023.1 839.9,2041.5 C838.3,2073.7 837.5,2112 838.5,2112.8 C838.7,2113 916.8,2120.9 1011.9,2130.4 L1184.9,2147.7 L1298.9,2153 C1361.6,2156 1414.9,2158.7 1417.4,2159.1 C1423.2,2160 1497.4,2161.3 1529.4,2161.1 C1552.6,2160.9 1554.2,2160.8 1558.9,2158.7 L1558.9,2158.7 Z M1544.2,1956.8 L1578.4,1956.2 L1578.4,1947.1 C1578.4,1933.4 1576.7,1913.6 1573.3,1887.5 C1571.7,1874.6 1570.2,1864 1570.1,1863.9 C1569.5,1863.4 847.2,1805.4 846.7,1805.9 C844.8,1807.8 841.9,1881.1 843,1899.7 L843.7,1910.5 L846.8,1911 C856.7,1912.6 1159.6,1940.5 1167.4,1940.6 C1172.6,1940.6 1238.1,1944.6 1312.9,1949.5 C1464.3,1959.4 1443.8,1958.8 1544.2,1956.8 L1544.2,1956.8 Z M1568,1761.8 C1569.2,1754.2 1568.9,1725.9 1567.5,1715 C1566.3,1705 1560.8,1669.8 1559.9,1665.9 C1559.5,1664 1558.4,1663.7 1546.2,1662.6 C1527.6,1661 1491.6,1659 1430.4,1656 C1367.8,1653 1328.7,1650.8 1314.4,1649.5 C1308.6,1648.9 1201.8,1638.2 1076.9,1625.6 C952.1,1613 849.5,1603 849.1,1603.4 C847,1605.4 845.4,1701.8 847.4,1707 C848.7,1710.4 853.1,1712.2 865.1,1714 C877.3,1715.9 887.4,1716.8 1126.4,1737 L1321.9,1753.6 L1437.9,1759.9 C1501.7,1763.4 1556.9,1766.3 1560.6,1766.4 L1567.3,1766.5 L1568,1761.8 L1568,1761.8 Z" id="Shape" sketch:type="MSShapeGroup"></path>
            <path d="M1806.9,1493.6 C1794.2,1490.6 1782.1,1486.7 1764.9,1480 C1728.5,1465.7 1686.3,1453.7 1661.9,1450.5 C1634.2,1447 1591.4,1443.8 1493.9,1438 C1451.1,1435.5 1402.4,1431.6 1316.9,1424 L1198.9,1413.5 L970.4,1399.9 C730.4,1385.6 707.4,1384.6 682.4,1387.4 C657,1390.2 627.2,1397 598,1406.5 C554.9,1420.5 496.3,1437.8 480.9,1441 C461.8,1444.9 442.1,1440.4 423.4,1428 C410.5,1419.5 401.9,1407 400.7,1395.1 C399.6,1384.9 405.5,1373.4 436.5,1325.4 C457,1293.6 461.6,1285.2 466.7,1271.5 C476.6,1244.8 489.7,1193.7 500.8,1138.5 C507.5,1105.2 512.5,1076 525.4,993.7 C539.1,906.4 542.5,887.9 548,867.6 C559.8,824.8 577.2,801.8 604.9,792.8 C615.7,789.3 639.1,788.3 650.8,790.9 C666.1,794.4 670.3,797.3 696.9,823.5 C710.1,836.5 722.9,848.3 725.4,849.8 C729.3,852.1 732.8,852.8 749.9,854.9 C861.3,868.7 1044.5,879.9 1309.9,889 C1345.7,890.2 1352,890.2 1352.7,889 C1354.6,885.5 1372.6,863.1 1396.3,834.7 C1410.6,817.6 1424.1,800.6 1426.3,796.8 C1431.7,787.7 1436.7,775.1 1439.8,762.9 C1442.2,753.2 1447.8,721.6 1447.2,720.9 C1446.7,720.5 999.2,691.3 998.8,691.7 C998.6,691.9 1000.3,704.9 1002.5,720.5 C1008.2,760.7 1007.5,768.5 996.9,784.4 C978,812.9 925.9,838.6 866.9,848.6 C850.9,851.3 819.3,851.9 807.9,849.6 C781.8,844.4 767.9,832.8 766.6,815.2 C766.2,809.2 766.4,807.8 769.2,802.2 C770.9,798.7 780.7,783.8 790.9,768.9 C801.1,754.1 811.5,738 814,733 C820.7,719.4 822.6,704.8 820.5,684.2 C820,679.9 819.5,676.2 819.2,676 C819,675.8 711,667.3 579.1,657.1 C413,644.2 334.7,638.5 324.1,638.5 C271.1,638.5 185.5,655.6 146.9,673.9 C141.8,676.3 124,686.8 107.3,697.3 C56.3,729.2 50.3,732 34.8,731.3 C16.8,730.5 7.1,722.1 1.6,702.2 C0.3,697.3 -0.1,691.9 -2.25952937e-13,676 C-2.25952937e-13,653 1.3,646.5 8.4,632.2 C18.9,611.1 37.4,593.6 98.4,546.8 C165.5,495.3 188.5,481.6 218.4,475 C228.6,472.8 260.6,471.8 272.7,473.5 C288.3,475.5 315,481.2 344.1,488.6 C437.4,512.4 428.9,510.9 644.4,539.5 C737.7,551.8 761.5,554.7 778.4,555.5 C789.7,556 802.3,556.7 806.5,557 L814.2,557.5 L812.8,550.5 C803.8,502.9 764.7,404.8 731.9,347.5 C691.2,276.3 651,223.7 601.7,177.3 C566,143.6 493.8,85.2 476.2,75.7 C462.4,68.3 460.4,66.4 460.4,60.9 C460.4,50.8 466.7,46 479.9,46.2 C501.5,46.4 547.5,67.3 614.9,107.4 C667.2,138.5 705.4,164.5 733.9,188.4 C836.5,274.6 914.7,396.1 964.4,546.5 C971.5,567.8 972.4,570 974.6,570.3 C975.8,570.4 1018.8,573.9 1069.9,578 C1161.9,585.5 1417.2,602.5 1437,602.5 L1447.2,602.5 L1448,595.8 C1448.9,587 1447.6,377 1446.4,347.5 C1445.9,335.1 1443.9,285.9 1441.9,238 C1437,117.9 1436.7,104.2 1438.8,93.5 C1442.9,73 1456.6,50.2 1477.3,29.4 C1493.5,13.2 1507.4,4.1 1520.7,1 C1534.1,-2.1 1543.8,1.9 1557.9,16 C1578.1,36.2 1590.4,68.2 1594.3,110.6 C1595.3,120.8 1597.3,262.1 1599.7,496.7 C1600.4,558.6 1601.1,609.6 1601.4,609.8 C1601.7,610.1 1659.8,611.5 1730.6,613 L1859.2,615.7 L1973.6,613.1 C2036.4,611.7 2091.7,610.3 2096.4,610 C2109.6,609.1 2142,604.2 2195.7,594.9 C2296.8,577.4 2322.3,574.1 2337.4,576.4 C2345.7,577.7 2356.6,582.4 2362.9,587.4 C2380,601.2 2393,634.5 2388,651.7 C2378.6,684.1 2307,732.5 2228.6,759.6 C2206,767.4 2187.2,771.8 2170.1,773.4 C2151.8,775.2 2143.7,773.9 2069.4,758.1 C2030.4,749.9 2017.5,748.2 1955.9,744 C1935.4,742.6 1632.6,729.5 1620.4,729.5 L1614.8,729.5 L1618.1,744.3 C1622.1,761.6 1623.4,781.2 1621.5,793.5 C1617.9,816.4 1599.5,833.7 1519.5,889.3 C1515.1,892.4 1512.7,894.6 1513.5,894.9 C1515,895.4 1517.4,895.6 1549.9,898 C1584.3,900.6 1606.9,899.9 1659.9,894.4 L1679.9,892.3 L1693.4,879.2 C1714,859 1725,851.7 1741.3,847.3 C1752,844.4 1783,844.1 1794.7,846.8 C1808.1,850 1817.5,855.4 1828.4,866.4 C1839.8,877.9 1847.6,889.4 1858.3,910.5 C1867.6,928.7 1873.9,943.5 1882.7,967.5 C1895,1000.8 1898.9,1013.6 1935.3,1137 C1956.4,1208.7 1961.8,1225.5 1969.3,1244.5 C1981.7,1275.9 1985.6,1284.2 1994,1296.9 C2003.3,1311.1 2013.5,1330.7 2016.9,1341 C2020,1350.1 2019.8,1355.8 2016.3,1364.7 C2011,1378.3 1993,1398.6 1969.9,1417.2 C1936.1,1444.4 1879.4,1477.7 1843.9,1491.1 C1831.4,1495.8 1819.8,1496.6 1806.9,1493.6 L1806.9,1493.6 Z M1742.5,1355.4 C1762.5,1353.4 1777,1348.8 1789.6,1340.6 C1797.3,1335.6 1806,1326.8 1807,1323 C1807.3,1321.8 1805,1307.8 1802,1291.9 C1799,1276 1795.9,1259.9 1795.3,1256 C1794.7,1252.2 1794,1248.8 1793.8,1248.6 C1793.4,1248.2 1271.1,1213.6 1270.7,1213.9 C1270.5,1214 1273.2,1331.6 1273.4,1332.1 C1273.4,1332.1 1281.4,1332.5 1291.2,1332.8 C1312.6,1333.6 1346,1335.9 1431.9,1342.6 C1490.1,1347.1 1508.5,1348.1 1607.9,1351.9 C1738.5,1357 1729.5,1356.8 1742.5,1355.4 L1742.5,1355.4 Z M1102.5,1307 C1113.5,1286.2 1117.4,1269.3 1117.4,1243 C1117.4,1231.4 1115.7,1200.7 1115,1199.8 C1114.9,1199.7 890.3,1180.1 754.9,1168.5 C732.7,1166.5 669,1167.6 653.2,1170.1 L649.5,1170.7 L647,1181.3 C643.5,1196 642.6,1202.7 641.9,1219 C641.6,1226.7 640.1,1242.6 638.7,1254.3 C637.3,1266 636.3,1275.7 636.5,1275.9 C636.7,1276 657.8,1279.2 683.4,1282.9 L729.9,1289.7 L909.4,1304 C1008.1,1311.9 1090.7,1318.3 1092.8,1318.2 L1096.8,1318 L1102.5,1307 L1102.5,1307 Z M1726.9,1139.4 C1747.3,1138.8 1764,1138.2 1764.1,1138.1 C1764.2,1138 1758.4,1107.5 1751.1,1070.4 L1737.9,1002.8 L1709.4,1002 C1693.7,1001.6 1662.5,1000.9 1639.9,1000.4 C1588.4,999.2 1595.9,999.6 1410.4,988.2 C1324.9,983 1254.8,978.8 1254.7,978.9 C1254.4,979.1 1257,1021.9 1259.3,1057.5 C1260.4,1073.7 1261.6,1092.5 1262,1099.3 C1262.6,1110.7 1262.8,1111.6 1264.8,1112 C1283.7,1116.4 1287.4,1116.7 1471.9,1128.5 C1573.7,1134.9 1664.3,1140.3 1673.4,1140.4 C1682.5,1140.5 1706.6,1140 1726.9,1139.4 L1726.9,1139.4 Z M1117.8,1098.3 C1120.3,1078.6 1121.9,1022.8 1120.5,1007.5 C1118.9,990.4 1115.4,968.5 1114.1,968.5 C1113.6,968.5 1016.2,962 897.6,954 C779.1,946 681.9,939.7 681.6,940 C680.6,940.9 665.1,1036.7 663,1055.2 L662.4,1060.3 L666.1,1060.9 C668.2,1061.2 699.8,1065.4 736.4,1070.1 L802.9,1078.7 L954.4,1090.5 C1037.7,1097 1108.5,1102.3 1111.6,1102.4 L1117.3,1102.5 L1117.8,1098.3 L1117.8,1098.3 Z" id="Shape" sketch:type="MSShapeGroup"></path>
        </g>
    </g>
</svg>