<?xml version="1.0" encoding="UTF-8" standalone="no"?>
<svg width="2223px" height="2221px" viewBox="0 0 2223 2221" version="1.1" xmlns="http://www.w3.org/2000/svg" xmlns:xlink="http://www.w3.org/1999/xlink" xmlns:sketch="http://www.bohemiancoding.com/sketch/ns">
    <!-- Generator: Sketch 3.0.4 (8054) - http://www.bohemiancoding.com/sketch -->
    <title>Slice 2</title>
    <desc>Created with Sketch.</desc>
    <defs></defs>
    <g id="Page-1" stroke="none" stroke-width="1" fill="none" fill-rule="evenodd" sketch:type="MSPage">
        <g id="Group" sketch:type="MSLayerGroup" transform="translate(1111.850000, 1110.350000) scale(1, -1) translate(-1111.850000, -1110.350000) translate(0.700000, 0.500000)" fill="#000000">
            <path d="M1987.4,2219.1 C1977.1,2217.1 1956.2,2209.3 1921.8,2194.7 C1873.8,2174.3 1888.7,2178.6 1736.9,2141.8 C1468.1,2076.6 1467.2,2076.4 1430.8,2071.8 C1391.6,2066.9 1373.3,2065.8 1333.3,2065.7 C1298.7,2065.7 1294.9,2065.9 1283.4,2068 C1261.8,2071.9 1241.6,2079.6 1213.2,2094.9 C1195.5,2104.4 1187,2107.9 1178.5,2109.4 C1172.4,2110.4 1171,2110.3 1167,2108.8 C1158.4,2105.6 1149.3,2093.1 1143.6,2076.9 C1139.9,2066.2 1139.3,2051.4 1142.2,2040.7 C1152.3,2003.9 1196.5,1952.3 1245.8,1919.9 C1252.4,1915.6 1264.6,1908.7 1272.8,1904.7 C1305.4,1888.7 1328.4,1884.8 1355.2,1890.8 C1380.6,1896.5 1423.6,1910 1497.3,1935.4 C1517.9,1942.5 1563.6,1957.1 1598.8,1967.8 L1662.8,1987.3 L1783.3,2015.9 C1849.6,2031.6 1906.7,2045.1 1910.3,2045.8 C1919.8,2047.8 1951.9,2049.2 1964.8,2048.1 C1970.9,2047.7 1978.2,2046.6 1981.2,2045.8 C2004.1,2039.5 2016.6,2021.8 2020.4,1990.2 C2021.4,1982.1 2020.8,1926.2 2017.2,1685.8 L2012.8,1391.3 L2006.3,1390.7 C1995.5,1389.7 1994.7,1389.3 1984.1,1381.2 C1954.1,1358.4 1924.2,1330.6 1798.8,1209.7 C1664.9,1080.6 1654.1,1070.2 1624.8,1043.2 C1522,948.4 1441.9,887 1384.8,859.3 C1362.7,848.6 1345.8,843.1 1319.5,838 C1304.4,835.1 1302.3,835 1296.4,836 C1285.9,837.8 1278,840.8 1259.8,849.6 C1215.8,871.1 1215,871.4 1200.8,866.7 C1185.5,861.8 1174.1,851.9 1169.2,839.5 C1166.2,831.9 1166,815.6 1168.7,803.7 C1176.7,768.6 1200.8,730.7 1239,692.6 C1267.1,664.5 1298.4,641 1327,626.4 C1345.9,616.8 1354.3,614 1366.7,613.4 C1381.2,612.7 1392.4,615.8 1405.2,623.9 C1415.9,630.7 1420.9,635.9 1430.4,650 C1450.3,679.5 1461.9,693.9 1490.9,724.7 C1511.8,746.9 1868.4,1131.9 1880.8,1145.7 C1921,1190.3 1950.2,1232 1997.9,1313 L2009.8,1333.3 L2010.1,1319 C2011,1281 2007.7,1028.5 2002.8,761.7 C1999.8,598.9 1997.1,459.9 1996.8,452.7 C1994.8,408.7 1986.6,367.5 1974.8,341.5 C1967.1,324.7 1955.7,311.6 1943.6,305.9 L1936.8,302.7 L1916.8,302.8 C1895.9,302.8 1884.6,303.9 1845.8,309.3 C1823.8,312.4 1819.1,313.5 1752.3,330.6 C1708.4,341.8 1697.1,343.3 1686.8,338.9 L1680.8,336.4 L1680.5,330.7 C1680.2,325.2 1680.3,324.9 1685.7,318.3 C1693.9,308.2 1728.8,272.6 1795.9,205.7 C1848.8,152.8 1858.5,142.7 1876.9,120.8 C1958.5,23.4 1973.3,8.3 1993.2,2.1 C2003.2,-0.9 2018.3,-0.7 2028.8,2.6 C2052.4,10.1 2077.6,33.5 2101.6,70.2 C2129.2,112.4 2146,153.3 2155.2,200.5 C2159.1,220.5 2161.1,238 2162.3,264.2 C2162.9,276 2165.2,523.3 2167.3,813.7 L2171.3,1341.7 L2175.3,1500.2 C2179.3,1657.6 2179.4,1659.5 2185.8,1774.2 C2189.4,1837.7 2192.7,1898.5 2193.3,1909.2 C2194.7,1937 2197.5,1952.1 2209.8,1997.2 C2217.8,2026.4 2222.3,2046.4 2222.3,2052.9 C2222.3,2055.1 2221.4,2060.4 2220.3,2064.7 C2212.5,2095.3 2175.7,2131 2114.8,2167.2 C2072.3,2192.5 2017.6,2216.4 1995.3,2219.5 C1993.4,2219.8 1989.8,2219.6 1987.4,2219.1 L1987.4,2219.1 Z" id="Shape" sketch:type="MSShapeGroup"></path>
            <path d="M822.3,2138.7 C806.5,2135.8 779.6,2126.2 711.5,2099.3 C653.6,2076.3 650.9,2075.4 616,2066.7 C514.6,2041.6 416.7,2024.4 345.8,2019.2 C325,2017.7 286.9,2017.9 272.2,2019.7 C245.5,2022.8 223.2,2028.7 206.4,2037.1 C178.5,2051.1 154.9,2060.2 146.7,2060.2 C132,2060.2 115.7,2042.9 110.9,2022.2 C108.4,2011.7 108.8,1992.5 111.7,1981 C117.2,1959.3 129.6,1940.3 150.3,1921.7 C158.7,1914.1 192.2,1887.5 212.8,1872 C246.2,1846.9 259,1841.2 282.4,1841.2 C292.2,1841.2 296.1,1841.7 306,1844.2 C325.9,1849.4 361.1,1860.5 418.2,1879.8 C477.5,1899.8 500.4,1907 532.9,1915.6 C568.8,1925.1 740.9,1966.1 750.1,1967.3 C769.4,1969.9 789.3,1966.3 796.1,1959 C799.4,1955.4 800.2,1951.5 801.4,1933.7 C802.7,1914.6 802.5,1899.7 797.3,1615.2 C795.1,1497.2 789.7,1180.7 785.4,911.7 C779.1,529.2 777.1,419.7 775.9,408.7 C771.8,370.4 759,347.8 737.6,341.2 C728,338.3 710.5,338.4 695.3,341.6 C689,343 635.9,354.2 577.3,366.6 C518.7,379 470.1,389.2 469.2,389.2 C467,389.2 463.3,385 463.3,382.4 C463.3,379.1 467.8,367.9 472.2,360.4 C482.6,342.5 499.2,322.5 526.8,294.3 C547.2,273.6 555.4,265.9 600.3,225.7 C642.7,187.6 664.3,165 679.2,142.9 C681.8,138.9 690.2,125.6 697.8,113.2 C734.1,54 748.1,38.7 770.6,33.3 C777.6,31.6 793.9,31.8 801.9,33.7 C845.2,43.6 885.7,103.5 912.8,197.2 C925.6,241.5 934.4,291.5 937.3,336.2 C938,346.6 941.3,590.8 945.4,939.2 L952.3,1524.7 L960.2,1682.2 L968.2,1839.7 L972.2,1855.2 C974.4,1863.7 980.9,1886.9 986.8,1906.7 C992.7,1926.5 999.5,1950.6 1002.1,1960.2 C1006.3,1976.2 1006.7,1978.7 1006.7,1989.7 C1006.8,2001.1 1006.6,2002.1 1003.5,2009.2 C996.4,2025.8 983,2043.7 962.4,2064.2 C938.2,2088.2 909.4,2109.6 882.1,2123.7 C855.8,2137.2 838.4,2141.6 822.3,2138.7 L822.3,2138.7 Z" id="Shape" sketch:type="MSShapeGroup"></path>
            <path d="M1274.3,1690.4 C1270,1688 1265.3,1679.6 1265.3,1674.2 C1265.3,1667.4 1269.7,1663.6 1307.9,1638 C1322.3,1628.3 1339.6,1616.3 1346.4,1611.1 C1402.2,1569.3 1473.3,1503.4 1503.3,1465.7 C1567.3,1385.7 1612.3,1343.9 1643.5,1335.6 C1664.6,1330 1692.2,1341.2 1707.9,1361.7 C1727.4,1387.2 1732.4,1431.9 1719.7,1467.2 C1706.7,1503.5 1675.4,1540.2 1628.4,1574.5 C1595.1,1598.6 1551.2,1623.4 1519.8,1635.5 C1455.6,1660.4 1335.5,1689.8 1289.3,1691.8 C1279.2,1692.3 1277.4,1692.1 1274.3,1690.4 L1274.3,1690.4 Z" id="Shape" sketch:type="MSShapeGroup"></path>
            <path d="M176.5,1654.2 C173.6,1653.8 170.2,1652.7 168.9,1651.8 C165.8,1649.8 161.8,1644.6 160.3,1640.7 C159.2,1637.8 159.3,1637.5 165,1632.3 C175.3,1622.8 186.2,1614.8 217.9,1593.5 C250.8,1571.3 269,1557.9 304.8,1529.3 C347.4,1495.4 382.1,1465.6 413.8,1436.2 C480,1374.7 505.6,1352.9 519.3,1346.3 L526.8,1342.7 L542.8,1342.8 C557.4,1342.8 559.5,1343.1 566.9,1345.5 C598.7,1356 618.3,1388.5 618.3,1430.4 C618.3,1480.3 586.4,1523.4 521,1561.6 C506.3,1570.2 473,1586.2 454.2,1593.6 C388.7,1619.4 306.7,1640.1 228.3,1650.6 C211.6,1652.8 205.7,1653.4 187.3,1654.6 C184.3,1654.8 179.4,1654.6 176.5,1654.2 L176.5,1654.2 Z" id="Shape" sketch:type="MSShapeGroup"></path>
            <path d="M646.3,1147.7 C636.2,1144.1 599.5,1120.1 520.6,1065.5 C471.6,1031.6 379.1,972.3 288.8,916.8 C214.8,871.3 171.7,849.1 143.9,842.2 C136.7,840.4 133,840.1 124.9,840.4 C110,841 103.8,844.3 77.8,865.6 C73.4,869.2 66.9,873.6 63.3,875.4 C57.2,878.5 56.4,878.7 45.8,878.7 C32.8,878.7 29.1,877.2 20.8,868.7 C9.1,856.8 -0.1,830.7 -8.52653451e-14,809.7 C-8.52653451e-14,785.6 18.6,737.6 45,693.2 C76.2,641 111.6,606.5 141.9,598.8 C151.3,596.4 165.3,596.7 173.3,599.5 C188.8,605 198.8,614.3 227.5,649.6 C266.7,698 266.2,697.4 373.7,803.1 C432.6,860.9 462.6,891.5 529.6,961.7 C613.8,1050 625.3,1062.9 642.2,1087.7 C662.6,1117.8 669.9,1135.6 664.7,1143 C661.5,1147.6 652.4,1150 646.3,1147.7 L646.3,1147.7 Z" id="Shape" sketch:type="MSShapeGroup"></path>
        </g>
    </g>
</svg>