<?xml version="1.0" encoding="UTF-8" standalone="no"?>
<svg width="572px" height="1445px" viewBox="0 0 572 1445" version="1.1" xmlns="http://www.w3.org/2000/svg" xmlns:xlink="http://www.w3.org/1999/xlink" xmlns:sketch="http://www.bohemiancoding.com/sketch/ns">
    <!-- Generator: Sketch 3.0.4 (8054) - http://www.bohemiancoding.com/sketch -->
    <title>Slice 2</title>
    <desc>Created with Sketch.</desc>
    <defs></defs>
    <g id="Page-1" stroke="none" stroke-width="1" fill="none" fill-rule="evenodd" sketch:type="MSPage">
        <g id="Group" sketch:type="MSLayerGroup" transform="translate(286.100000, 722.100000) scale(1, -1) translate(-286.100000, -722.100000) translate(0.600000, 0.100000)" fill="#000000">
            <path d="M326.4,1443.1 C310.1,1441.1 298.4,1433.9 293.3,1422.7 C291.9,1419.7 291.4,1416.2 291.4,1409.6 C291.4,1394.9 294.4,1389.6 318.1,1361.1 C336.2,1339.5 341.2,1331.6 349.8,1312 C367,1272.4 378.9,1213.9 384.9,1138.6 C388.6,1091.5 388.7,1086.6 389.1,874.1 C389.5,671.9 389.4,659.1 387,551.1 C385.6,489.2 384,432.3 383.4,424.6 C380,379.2 365.1,346.5 342.7,335.4 C335.9,332 334.2,331.6 325.5,331.3 C314,330.8 301.1,332.9 275.4,339.5 C224.8,352.4 132.7,382.4 69.4,406.6 C39.5,418 13,427.6 8.8,428.5 L5.8,429.2 L3.1,415.4 L0.4,401.6 L12.7,389.2 C19.4,382.4 74.2,329.5 134.4,271.6 C194.6,213.7 247.3,162.8 251.5,158.5 C270.2,139.2 283.5,119.1 314.9,63.2 C328.7,38.7 337.4,25.9 346.8,16.6 C359.5,4.1 369.6,0.1 388.9,5.33223639e-14 C402.3,-0.1 411,1.8 421.9,7.1 C448.8,20.1 473.7,51.9 493.8,98.7 C524.8,171.2 547,279.1 554.4,394.1 C555.3,407.1 555.3,484 554.4,696.1 L553.2,980.6 L562.3,1118.4 C567.3,1194.1 571.4,1259.6 571.4,1263.9 C571.4,1273.6 569.5,1281.5 564.6,1293 C549.4,1328.1 506.2,1373.3 460.5,1401.8 C421.3,1426.3 384.4,1440 349.4,1443.1 C336.7,1444.2 335.8,1444.2 326.4,1443.1 L326.4,1443.1 Z" id="Shape" sketch:type="MSShapeGroup"></path>
        </g>
    </g>
</svg>