<?xml version="1.0" encoding="UTF-8" standalone="no"?>
<svg width="2484px" height="2401px" viewBox="0 0 2484 2401" version="1.1" xmlns="http://www.w3.org/2000/svg" xmlns:xlink="http://www.w3.org/1999/xlink" xmlns:sketch="http://www.bohemiancoding.com/sketch/ns">
    <!-- Generator: Sketch 3.0.4 (8054) - http://www.bohemiancoding.com/sketch -->
    <title>Slice 2</title>
    <desc>Created with Sketch.</desc>
    <defs></defs>
    <g id="Page-1" stroke="none" stroke-width="1" fill="none" fill-rule="evenodd" sketch:type="MSPage">
        <g id="Group" sketch:type="MSLayerGroup" transform="translate(1241.950000, 1200.650000) scale(1, -1) translate(-1241.950000, -1200.650000) translate(0.000000, 0.400000)" fill="#000000">
            <path d="M1091.6,2399.4 C1067.6,2394.8 1050.7,2380.3 1045.4,2359.8 C1043.4,2351.9 1044.3,2345.4 1048.1,2339.5 C1051,2335.1 1054.5,2331.9 1086,2304.8 C1116,2278.9 1121.7,2272.6 1130.3,2255.3 C1144.3,2227.3 1152.9,2187.3 1158.2,2125.4 C1160.1,2103.7 1159.8,1998.4 1157.8,1970.1 C1157,1958.4 1156,1948.6 1155.7,1948.3 C1155.2,1947.7 1145.7,1945.4 1137.5,1943.8 C1129.8,1942.3 858.6,1911.1 838.5,1909.4 C828.6,1908.6 816.1,1907.4 810.6,1906.9 C782,1904 737.7,1908.4 690.3,1918.9 C657.7,1926.1 640.5,1931.6 615.2,1942.8 C593.1,1952.6 584.1,1955.5 569,1957.4 L557.1,1959 L547.8,1953.6 L538.5,1948.3 L537.8,1937.3 C536.8,1923.6 538.4,1902.6 541,1893 C548.2,1867.1 567.7,1846.3 612.9,1816.4 C668.4,1779.7 721.9,1752.3 755.9,1743.2 C761.8,1741.7 769.4,1740.5 775.5,1740.2 C787.3,1739.6 790.1,1740.2 862.7,1758.3 C913.7,1771 943.8,1777.2 1041,1794.9 C1077.6,1801.5 1118.2,1809 1131.3,1811.5 C1144.4,1814.1 1155.4,1815.9 1155.7,1815.6 C1156.4,1814.8 1154.3,1654.3 1153,1611.4 C1152.4,1593.8 1151.5,1572.7 1151,1564.4 C1150,1549.1 1146,1506.6 1145.5,1506.1 C1145.4,1505.9 1138.1,1504.7 1129.4,1503.4 C1120.6,1502.1 965.5,1477.8 784.5,1449.5 C566.3,1415.3 450.8,1397.6 441.5,1397 C388.5,1393.2 334.6,1393.1 315.4,1396.8 C278.9,1403.7 231.8,1423.6 195.3,1447.6 C172.2,1462.8 164.8,1465.3 155.3,1460.9 C140,1454 126.9,1423.3 128.3,1397.9 C129.6,1373.3 141.1,1355.8 179,1320.5 C232.1,1271 252.2,1254.5 280.5,1237.4 C323.6,1211.5 362.7,1201.6 392.1,1209.4 C397.3,1210.7 419.1,1217.7 440.5,1224.9 L479.5,1238 L622.6,1271.4 L765.7,1304.8 L919.5,1332.5 L1073.2,1360.3 L1078.4,1358.5 C1087,1355.5 1098.7,1349.2 1105,1344.3 C1115.1,1336.4 1125.9,1322.8 1142.2,1297.3 C1161.3,1267.5 1167,1251.8 1171.4,1216.9 C1177.9,1165.8 1178.8,1055.3 1174,904.9 C1171.2,819 1161.6,580.1 1160.9,579.5 C1160.7,579.3 1123.2,595.1 1077.5,614.6 C985.6,653.7 980.5,655.8 920.5,678.9 C866,699.9 836,711.8 812.2,721.9 L793,730.1 L797.6,738.8 C821.1,781.9 835.2,801 890.4,863.9 C904.6,880.1 916.9,895 917.8,896.9 C918.7,898.9 919.5,904.6 919.8,910.4 C920.7,930.5 913.3,948.8 895.3,971.1 C890.7,976.7 831.2,1034.1 813.7,1049.8 C788.8,1072 770,1083.5 750,1088.6 C733.6,1092.8 703,1093.4 690,1089.9 C674.1,1085.6 663.1,1073.7 664.2,1061.9 C664.8,1056.4 672.2,1040.4 681.6,1024.9 C688.7,1013 690.2,1009.6 693.5,998.4 C699.8,976.6 702.6,945 699.5,929.9 C692.5,895 663,829.4 622.7,758.9 C560.1,649.4 472,528.7 376.6,421.9 C320.9,359.6 252.6,291.7 191.1,237.5 C137.2,190 72.3,138.7 20.5,102.5 C11.2,96 2.7,89.7 1.8,88.6 C0.4,87.1 0,84.9 0,79 L0,71.3 L18.6,67.5 C41.8,62.8 52.5,62.5 71.6,66.4 C94.8,71.1 118.5,80 150,95.9 C179,110.6 196.1,121.3 241,152.7 C372.2,244.8 451.9,314.2 556.1,426.9 C610.1,485.3 626.1,504.3 705,602.9 C722.4,624.6 733.9,638.3 734.8,638.1 C737.2,637.5 779.1,620.6 803.2,610.5 C815.6,605.3 878.6,576.5 943.2,546.6 L1060.5,492.2 L1219.2,401.6 L1377.9,311 L1517.2,240 L1656.5,169 L1824,93.8 C2008.3,11.1 2017.3,7.2 2029.2,3.3 C2040.4,-0.2 2055.1,-1 2067.5,1.4 C2078.3,3.4 2097.7,8.2 2104,10.4 C2106.5,11.3 2122.2,14.7 2139,18 C2217.4,33.5 2236.2,37.9 2329,63.3 C2410.8,85.7 2421.3,88.8 2451,99.4 C2468.9,105.9 2483.7,111.3 2483.9,111.5 C2484,111.6 2481.8,116.4 2478.9,122 C2471.4,136.4 2466.5,139.8 2435.1,152.6 C2396.5,168.3 2364.2,177.7 2280,197.3 C2257.7,202.5 2185.7,219.6 2120,235.3 C2011,261.4 1990.7,266.6 1888.5,294.5 L1776.5,325.1 L1710,348.5 C1647.3,370.6 1634.1,375.7 1478.8,438.1 L1314,504.3 L1314,535.4 C1314,553 1316.4,633.5 1319.5,721.9 C1324.6,866.8 1325.1,878.7 1327.6,896.9 C1329,907.6 1330.3,916.4 1330.4,916.5 C1330.4,916.5 1341.3,918.6 1354.5,921.2 C1398.7,929.9 1493.4,941.1 1642.5,955.3 C1714,962.2 1778.4,968.3 1785.5,968.9 C1859.9,975.1 1889.2,979.9 1907,988.6 C1918.3,994.1 1928.3,1004.5 1934.3,1016.9 C1940.8,1030.5 1942.4,1037.8 1942.4,1053.4 C1942.4,1068.6 1940.9,1075.2 1934.9,1087.6 C1922.4,1113 1893.1,1133 1851.4,1144.4 C1819.3,1153.2 1778.3,1156.6 1759.5,1152 C1741.5,1147.6 1711.5,1137 1636.9,1108.6 C1593.9,1092.2 1508.5,1073 1414,1058.5 C1376.3,1052.7 1337.1,1047.5 1336.3,1048.2 C1335.7,1048.9 1336.9,1060.2 1344.1,1117.4 C1352,1181.2 1358.5,1224.4 1363.1,1244.2 C1365.4,1253.7 1365.2,1258.9 1362.4,1270.4 C1360.2,1279.2 1351,1297.1 1343.3,1307.4 C1326,1330.5 1294.3,1357.1 1254.2,1382 L1241,1390.3 L1275.2,1395.6 C1294.1,1398.5 1320.5,1402.7 1333.9,1404.9 C1352.3,1408 1396,1412.9 1511.4,1424.9 L1664.5,1440.9 L1779,1446.1 C1884.4,1451 1896,1451.3 1924.5,1450.7 C1941.6,1450.3 1989.5,1449.5 2031,1449 C2072.5,1448.4 2111.8,1447.5 2118.3,1446.9 C2131.4,1445.8 2131.7,1445.8 2211,1435.4 C2272,1427.3 2281.3,1426.7 2298.1,1429.5 C2333.7,1435.5 2363.8,1456.7 2372.1,1481.8 C2380.5,1507 2358.9,1552.7 2328.4,1574.5 C2315.1,1584 2295,1591.6 2248.5,1604.9 C2203.6,1617.7 2138.4,1633.6 2109.5,1638.8 C2080.3,1644 2073.6,1642.9 2018.5,1624.4 C1985,1613.1 1963.7,1607.4 1941,1603.4 C1932.6,1602 1876.8,1596.1 1808,1589.4 C1704.2,1579.3 1667.9,1575.2 1515.5,1556.9 C1355.5,1537.6 1340.1,1535.9 1325.2,1535.9 L1309,1535.9 L1309,1551.2 C1308.9,1559.5 1312,1630.5 1315.7,1708.8 L1322.5,1851.1 L1325,1852.1 C1331.2,1854.5 1371.9,1865.2 1390.3,1869.3 C1435.1,1879.2 1448.9,1881.3 1597.5,1899.8 L1717.5,1914.9 L1772.5,1915.8 C1831.9,1916.9 1840.5,1917.6 1861.2,1922.8 C1898.2,1932.1 1916,1952.6 1916.3,1985.9 C1916.4,1996.9 1914.5,2005 1909.6,2015.6 C1900,2035.8 1883.7,2051.7 1862.8,2061.3 C1847,2068.6 1803.9,2080 1758.5,2088.9 C1731.5,2094.2 1725,2094.9 1715.5,2093.8 C1704.7,2092.6 1696.8,2089.8 1674,2078.8 C1652.5,2068.6 1639.4,2063.5 1618.5,2057.4 C1600.4,2052.2 1335,1988.6 1334.3,1989.3 C1334,1989.6 1335.2,2001.2 1336.9,2015.1 C1338.6,2029 1341.6,2055.5 1343.5,2073.9 C1349.9,2134.2 1349.4,2131.2 1357.6,2162.4 C1367.9,2201.8 1371.9,2219.9 1372.6,2229.4 C1373.2,2236.4 1372.9,2238.4 1370.5,2245.4 C1357.3,2284.7 1296.1,2339.7 1231.5,2370.5 C1190.9,2389.8 1153.8,2399.3 1115.5,2400.4 C1103.9,2400.7 1097.4,2400.5 1091.6,2399.4 L1091.6,2399.4 Z" id="Shape" sketch:type="MSShapeGroup"></path>
        </g>
    </g>
</svg>