<?xml version="1.0" encoding="UTF-8" standalone="no"?>
<svg width="2485px" height="1330px" viewBox="0 0 2485 1330" version="1.1" xmlns="http://www.w3.org/2000/svg" xmlns:xlink="http://www.w3.org/1999/xlink" xmlns:sketch="http://www.bohemiancoding.com/sketch/ns">
    <!-- Generator: Sketch 3.0.4 (8054) - http://www.bohemiancoding.com/sketch -->
    <title>Slice 2</title>
    <desc>Created with Sketch.</desc>
    <defs></defs>
    <g id="Page-1" stroke="none" stroke-width="1" fill="none" fill-rule="evenodd" sketch:type="MSPage">
        <g id="Group" sketch:type="MSLayerGroup" transform="translate(1242.100000, 665.300000) scale(1, -1) translate(-1242.100000, -665.300000) translate(0.100000, 0.800000)" fill="#000000">
            <path d="M1568.9,1327.2 C1549.4,1323 1534.9,1309 1534.9,1294.4 C1534.9,1290.3 1538.5,1275.5 1545,1253.3 C1551.7,1230.2 1552,1223.3 1547.1,1211.4 C1532.4,1175.9 1487.1,1117.1 1430.9,1060.7 C1395.9,1025.7 1364.7,999.1 1334.7,978.7 L1324.6,971.9 L1296.4,999.6 C1235.3,1059.8 1219.6,1070.6 1195,1069.6 C1183.2,1069.1 1176.5,1066.4 1168.4,1058.7 C1157.7,1048.6 1153.4,1037.5 1154.1,1021.9 C1154.4,1014 1155.1,1011 1157.6,1005.2 C1162,994.8 1169.5,984.6 1183.6,969.6 C1199.7,952.6 1243.2,904.3 1277,866.1 C1395.8,731.6 1583,523.1 1689.2,407.1 L1814.9,269.8 L1882.1,204.7 C1952.4,136.7 1960.8,129.1 2025.9,75.8 C2077.4,33.6 2094,21.6 2114.4,11.7 C2134.9,1.8 2150.8,-0.9 2181.4,0.2 C2249.4,2.8 2332,17.3 2406.4,39.7 C2441.4,50.2 2483.9,65.4 2483.9,67.3 C2483.9,67.9 2477.5,74.7 2469.7,82.4 C2450.5,101.2 2440.3,107.7 2405.4,123.6 C2367.8,140.6 2259.8,193 2252.9,197.6 C2250.4,199.2 2216.7,219.4 2177.9,242.3 C2081.5,299.4 2057.1,314.4 2008.9,346.3 C1944.6,388.9 1879.5,437.5 1829.9,479.8 C1800.4,505 1690.3,605.7 1670.5,625.6 C1651.1,645.1 1650.7,645.6 1653,646.8 C1677.2,659.6 1847.3,752.3 1857.4,758.3 C1894.8,780.4 1928,805 1949.4,826.3 C1961.4,838.3 1968.7,847.7 1973.7,857.8 C1977.3,865.2 1977.4,865.5 1977.3,876.8 C1977.2,886.2 1976.7,889.9 1974.5,897.3 C1964,932.2 1936.8,975.3 1906,1005.8 C1887.4,1024.2 1870.6,1035.3 1855.4,1039.2 C1836.3,1044.2 1815.4,1036 1808.1,1020.6 C1805.3,1014.6 1805.2,1004.4 1807.5,979 C1808.4,969.3 1808.9,958.8 1808.6,955.8 C1807.1,938.3 1780.6,896.7 1735.1,840.3 C1683.7,776.6 1619,708.6 1600.6,698.8 C1596.6,696.6 1595.7,696.5 1592.1,697.6 C1589.9,698.3 1585.2,700.9 1581.7,703.5 C1575.1,708.4 1474.3,808.9 1408.6,876 L1370.8,914.7 L1381.1,920.1 C1386.8,923.1 1411.2,935.6 1435.4,948 C1490.9,976.5 1489.6,975.7 1586.4,1033.4 C1703.8,1103.3 1699.7,1100.7 1719,1119.8 C1738.4,1139.1 1744.5,1151.1 1743.6,1168.3 C1742.4,1192.3 1721.1,1227.1 1684.9,1264.2 C1662.3,1287.3 1643.7,1302.7 1623.9,1314.6 C1602.4,1327.5 1586.7,1331.1 1568.9,1327.2 L1568.9,1327.2 Z" id="Shape" sketch:type="MSShapeGroup"></path>
            <path d="M1051.7,1294.8 C1038.5,1290.9 1012.8,1280.1 967.4,1259.3 C950.9,1251.7 932.7,1243.5 926.9,1241.1 C872.2,1217.5 765.5,1191.6 668,1178.3 C637.2,1174 628.6,1174 599.4,1178.1 C585.7,1180 571.3,1181.9 567.4,1182.3 C558.4,1183.1 547.4,1186 515.8,1195.9 C484.2,1205.7 479,1206.9 470.6,1205.8 C451.9,1203.5 443.9,1190.1 445.2,1163.5 C446,1146.7 450.1,1135.3 460.9,1120 C470.9,1105.8 498.5,1079.2 525.5,1057.7 C562.9,1028 582.7,1018.8 609.4,1018.8 C620,1018.8 623.3,1019.6 658.4,1031 C677.2,1037 709.9,1045.7 789.9,1065.9 C848.4,1080.6 896.5,1092.6 896.6,1092.4 C897.2,1091.8 888.8,1065.6 884.9,1055.7 C876.6,1035 864.5,1013.6 841.4,979.3 C822.9,951.8 818.8,945.9 728.8,819.8 C657.9,720.3 650.8,710.8 634,691.6 L615.8,670.8 L613.5,673.6 C612.3,675.1 603.9,685.8 594.9,697.3 C563.5,737.6 561.5,739.7 545.4,750.1 C506.8,774.8 412.2,804 322.9,818.7 C285.6,824.8 267.7,826 254.1,823.2 C241.6,820.6 233,815.6 230.3,809.1 C228,803.7 228.5,801.6 233.7,796.6 C242.4,788.1 254,780.1 332,728.6 C369.5,703.8 371.5,702.3 398.4,678.3 C465.8,618.1 502.5,575.1 505.6,552.7 C506,550.2 505.4,547.8 503.9,544.7 C497.6,532.2 468.8,497.8 425.3,450.8 C395,418 380.5,403.3 293.9,317.8 L210.4,235.4 L116.9,155.3 C50,98.1 21.7,74.4 17.4,72.3 C9.7,68.4 2.4,61.2 1,56.2 C-1.5,47.3 0.9,35.5 5.7,32.9 C9.3,31 12,31.7 29.4,38.7 C75.4,57.2 129,83.7 168.6,107.4 C183.8,116.5 206.2,131.5 306.6,199.4 L381.8,250.3 L457.5,314.3 L533.3,378.3 L620.3,461.4 L707.4,544.5 L749.1,594.4 C786.6,639.3 798.9,655 872,751.8 C944.7,848.2 1004.1,929.5 1074.4,1029.3 C1097.8,1062.5 1107.4,1074 1118.7,1082.5 C1144.5,1101.7 1177.6,1129.5 1188.4,1141 C1200.9,1154.2 1204.9,1163.5 1204.9,1179.8 C1204.9,1189.4 1203.3,1196.1 1198.7,1205.3 C1185.9,1231 1147.7,1262.6 1104.4,1283.4 C1078.7,1295.8 1065.1,1298.7 1051.7,1294.8 L1051.7,1294.8 Z" id="Shape" sketch:type="MSShapeGroup"></path>
        </g>
    </g>
</svg>