<?xml version="1.0" encoding="UTF-8" standalone="no"?>
<svg width="2343px" height="2193px" viewBox="0 0 2343 2193" version="1.1" xmlns="http://www.w3.org/2000/svg" xmlns:xlink="http://www.w3.org/1999/xlink" xmlns:sketch="http://www.bohemiancoding.com/sketch/ns">
    <!-- Generator: Sketch 3.0.4 (8054) - http://www.bohemiancoding.com/sketch -->
    <title>Slice 2</title>
    <desc>Created with Sketch.</desc>
    <defs></defs>
    <g id="Page-1" stroke="none" stroke-width="1" fill="none" fill-rule="evenodd" sketch:type="MSPage">
        <g id="Group" sketch:type="MSLayerGroup" transform="translate(1171.350000, 1096.450000) scale(1, -1) translate(-1171.350000, -1096.450000) translate(0.000000, 0.400000)" fill="#000000">
            <path d="M954.5,2191.1 C939.5,2188.2 930.1,2182.9 925.3,2174.8 C922.9,2170.7 922.5,2168.9 922.5,2162.5 C922.6,2156.2 923,2154.2 925.3,2150 C928,2145.1 943.8,2125.5 968.2,2096.8 C1004.6,2054.1 1013.6,2031.5 1017.1,1974.9 C1018.5,1952.1 1017.7,1676.8 1016.1,1619.5 C1009.2,1376.3 992,1233.5 948.9,1060.1 C907.9,895.4 857.8,768.8 787.2,651.5 C671.8,459.7 501.9,302.7 272,175.5 C242.1,158.9 234.8,155.7 136,115 C65.3,85.9 33.9,72.5 14.8,63.3 L0,56.2 L0,47.8 L0,39.5 L8.9,35.1 C24.2,27.4 27.9,26.5 45,26.5 C101.2,26.5 197.7,48.7 287.5,82.3 C472.1,151.4 638.2,257.5 773,392.5 C907.3,527 1002,675.6 1067.5,854.5 C1087,907.8 1107.4,975 1121.3,1031.5 L1122.6,1036.9 L1126.6,1031.5 C1134.3,1021.1 1191.8,938.7 1263.5,835.5 C1391,651.8 1426.4,601.6 1469.3,543 C1544,441.2 1610.2,357.9 1782.9,148.5 C1848.9,68.5 1870.7,45.8 1894,33.1 C1916.4,20.9 2000.5,10.2 2142.5,1.3 C2172.7,-0.6 2240.5,-0.3 2261,1.8 C2320.4,7.9 2345.4,19 2342.5,38.1 C2341.3,46.2 2333.1,53.5 2302,74.3 C2277.1,90.8 2247.7,109.6 2193.3,143.6 C2052.9,231.4 1971,287.3 1901.5,342.5 C1803.9,420.1 1736.6,489 1577.5,674.5 C1427.6,849.1 1331.3,971.6 1236.5,1108.5 C1218.5,1134.6 1162.7,1217 1159.1,1222.9 C1157.7,1225.2 1158.1,1229.1 1163.4,1269.2 C1182.3,1412.6 1191.1,1492.1 1194,1545 C1194.5,1555.5 1196.6,1604.7 1198.5,1654.5 C1204.5,1809.1 1207.7,1867.7 1212.1,1901 C1212.6,1905.4 1217.3,1928.1 1222.5,1951.5 C1239.8,2029.4 1240.3,2037 1230.4,2057.3 C1218.1,2082.5 1191.4,2102.4 1126.5,2134.5 C1058.3,2168.3 1019,2184.6 993.5,2190 C982.8,2192.3 963.4,2192.8 954.5,2191.1 L954.5,2191.1 Z" id="Shape" sketch:type="MSShapeGroup"></path>
            <path d="M1859.5,1802.2 C1839.9,1795.6 1829.1,1777.9 1834.5,1761.4 C1835.5,1758.4 1843.1,1742.3 1851.5,1725.5 C1868.6,1691.2 1870.5,1686.4 1869.6,1679.7 C1864.6,1643.3 1750.9,1526.5 1619.5,1422.8 C1560.9,1376.6 1529.4,1354.5 1426.8,1287.6 C1370.5,1250.8 1326.4,1219.9 1318.7,1211.7 L1315.8,1208.7 L1324.7,1206 C1339.2,1201.5 1343.3,1200.5 1347.9,1200.5 C1359.3,1200.5 1419.9,1211.6 1439.5,1217.4 C1445,1219 1498.9,1239.2 1559.2,1262.4 L1668.9,1304.5 L1699.2,1321.6 C1715.9,1331 1787.3,1371.6 1858,1411.8 C1928.7,1452 1992.1,1487.5 1999,1490.6 C2005.9,1493.8 2027.7,1503.4 2047.5,1511.9 C2087.1,1529.1 2095.6,1533.9 2105.8,1545.1 C2116.5,1556.7 2121.4,1568.9 2121.4,1584 C2121.4,1599.3 2115.2,1613.5 2099.2,1634.8 C2088.3,1649.4 2057.3,1679.9 2032.5,1700.6 C2021,1710.2 2006.1,1722.6 1999.5,1728.1 C1955.5,1764.7 1916.6,1790.3 1890.5,1799.5 C1879.9,1803.3 1866.3,1804.4 1859.5,1802.2 L1859.5,1802.2 Z" id="Shape" sketch:type="MSShapeGroup"></path>
            <path d="M419,1634.5 C417.6,1634 414,1632.9 410.8,1632 C405.4,1630.5 405,1630.1 401.1,1623.6 L397.1,1616.8 L398.5,1603.4 C401.7,1572.9 405.9,1521.4 408.5,1482 C412.3,1424.9 409.3,1377.9 397.4,1307.5 C394.9,1292.9 391.6,1272.7 390,1262.5 C388.4,1252.3 385.1,1231.9 382.6,1217 C373.2,1159.9 372.3,1151.8 373.9,1135.5 C379.2,1084 401.5,1040.9 431.8,1023.8 C443.4,1017.3 450.9,1015.3 466,1014.8 C481.3,1014.2 490.9,1015.9 502.6,1021.4 C544.6,1041.1 577.3,1102.2 587.6,1180.6 C589.7,1197.2 590.5,1231.2 589.1,1248.8 C583.7,1314.9 560.9,1391.3 521,1476.5 C500.7,1519.8 485,1547 449.7,1600 C425.5,1636.2 425.2,1636.6 419,1634.5 L419,1634.5 Z" id="Shape" sketch:type="MSShapeGroup"></path>
        </g>
    </g>
</svg>