<?xml version="1.0" encoding="UTF-8" standalone="no"?>
<svg width="1495px" height="1948px" viewBox="0 0 1495 1948" version="1.1" xmlns="http://www.w3.org/2000/svg" xmlns:xlink="http://www.w3.org/1999/xlink" xmlns:sketch="http://www.bohemiancoding.com/sketch/ns">
    <!-- Generator: Sketch 3.0.4 (8054) - http://www.bohemiancoding.com/sketch -->
    <title>Slice 2</title>
    <desc>Created with Sketch.</desc>
    <defs></defs>
    <g id="Page-1" stroke="none" stroke-width="1" fill="none" fill-rule="evenodd" sketch:type="MSPage">
        <g id="Group" sketch:type="MSLayerGroup" transform="translate(747.550000, 974.050000) scale(1, -1) translate(-747.550000, -974.050000) translate(0.400000, 0.300000)" fill="#000000">
            <path d="M1278.6,1945 C1273.9,1943.4 1256.3,1936.7 1239.5,1930 C1207.3,1917.2 1202.3,1915.8 1172.5,1910.3 C1126,1901.8 1064.8,1894 934.2,1880.3 C895.1,1876.1 815.6,1867.3 757.6,1860.7 C440.4,1824.6 355.8,1817 283.1,1818 C255.8,1818.4 253.5,1818.6 244.6,1821 C232.5,1824.3 214.3,1831.6 190.1,1843.1 C142.3,1865.6 123,1873.1 101.1,1877.8 C87,1880.9 59.7,1881.7 49.5,1879.4 C30.3,1875.1 19,1864.5 8.7,1841 C2.8,1827.5 -0.8,1816.8 0.2,1815.9 C0.7,1815.5 7.2,1809.7 14.6,1803.1 C84.5,1741.1 106.8,1692.2 112.5,1588.3 C115.4,1536.1 115,1493 104.6,698.8 C97.2,138.9 97.3,155.9 101.7,125.3 C113.6,41.8 147.4,-2.3 197.6,0.1 C210.1,0.7 214.1,1.8 219.8,6.1 C228,12.3 235.1,23.4 256.2,62.7 C270.5,89.4 276,94.7 295,100.2 C318.8,107.1 318,107.1 660.6,139.4 L900.1,161.9 L1033.9,166.3 L1167.7,170.7 L1175.4,168.7 C1191.8,164.6 1207.1,154.5 1218.2,140.4 C1223.5,133.8 1228.4,124.8 1245.1,91.3 C1269.2,42.8 1275.8,31.7 1287.6,19.8 C1300.3,7.1 1310.7,2.8 1329.7,2.8 C1340.1,2.8 1363.2,6.9 1365.2,9.1 C1391.2,36.8 1397.9,50 1411.7,99.8 C1416.9,118.5 1418,124.1 1420.1,142.3 C1422.9,166.3 1429.8,239.9 1432,268.8 C1434.3,299.1 1435.6,507.3 1435.6,841.8 C1435.6,1115 1436,1169.2 1438.6,1262.3 C1444,1456.7 1451.6,1602.2 1459.2,1658.8 C1461.3,1674.6 1464,1685.2 1475,1720.1 C1493.1,1777.5 1495.6,1788.4 1493.9,1800.5 C1491,1820.3 1480.6,1830.5 1405.1,1886.9 C1365.7,1916.4 1345.9,1929.8 1330.2,1937.8 C1317.1,1944.4 1308.5,1946.9 1296.1,1947.4 C1288.2,1947.8 1286.1,1947.5 1278.6,1945 L1278.6,1945 Z M1214.6,1754.4 C1230.1,1751.6 1241.5,1745.8 1252.8,1735 C1261.8,1726.4 1262.6,1723.9 1271.1,1674.8 C1275.6,1649.1 1275.7,1647.4 1276.6,1618.8 C1277.9,1576.6 1277.8,1442 1276.5,1265.3 C1275.8,1181.2 1275.2,1112.2 1275.1,1112.1 C1274.9,1111.7 343.2,1031.1 317.7,1029.3 C306.4,1028.4 290.9,1026.9 283.4,1026 L269.6,1024.2 L269.6,1034.7 C269.6,1040.5 272.5,1168.6 276.1,1319.3 C282.8,1600.7 283.5,1649.7 281.2,1662.6 C280.5,1666.5 280.3,1669.8 280.6,1669.8 C281,1669.8 346.5,1675.2 426.2,1681.8 C550.9,1692.1 614.4,1698 881.6,1724.3 C1052.4,1741.1 1193,1755 1194.1,1755.2 C1198.6,1756 1207.5,1755.6 1214.6,1754.4 L1214.6,1754.4 Z M1272.2,939.6 C1271.9,926.2 1270.7,846.9 1269.5,763.3 C1267.6,621.1 1267.1,601.4 1262,458.3 C1259,374.2 1256.4,305.3 1256.2,305.1 C1256.1,305 1254.4,305.3 1252.5,305.8 C1240.3,309.3 1190.5,311.7 1126.6,311.9 C1063.3,312.1 1120.1,316.1 557.3,271.8 C396.3,259.2 263.8,248.8 262.9,248.8 C261.4,248.8 261.3,255.3 262,328.6 C262.3,372.4 263.1,463.4 263.6,530.8 C264.1,598.2 265.2,686.2 266,726.3 C266.9,766.5 267.8,817.7 268.2,840.1 C268.7,868.2 269.3,881.1 270,881.3 C270.6,881.5 340,888.9 424.1,897.7 L577.1,913.8 L870.1,937.7 C1151.2,960.8 1164.6,961.8 1200.1,962.6 C1220.5,963.1 1245.1,963.5 1255,963.6 L1272.8,963.8 L1272.2,939.6 L1272.2,939.6 Z" id="Shape" sketch:type="MSShapeGroup"></path>
        </g>
    </g>
</svg>