<?xml version="1.0" encoding="UTF-8" standalone="no"?>
<svg width="1094px" height="2274px" viewBox="0 0 1094 2274" version="1.1" xmlns="http://www.w3.org/2000/svg" xmlns:xlink="http://www.w3.org/1999/xlink" xmlns:sketch="http://www.bohemiancoding.com/sketch/ns">
    <!-- Generator: Sketch 3.0.4 (8054) - http://www.bohemiancoding.com/sketch -->
    <title>Slice 2</title>
    <desc>Created with Sketch.</desc>
    <defs></defs>
    <g id="Page-1" stroke="none" stroke-width="1" fill="none" fill-rule="evenodd" sketch:type="MSPage">
        <g id="Group" sketch:type="MSLayerGroup" transform="translate(547.000000, 1136.700000) scale(1, -1) translate(-547.000000, -1136.700000) translate(0.000000, 0.200000)" fill="#000000">
            <path d="M437,2271.7 C413.1,2266.4 393.8,2253.4 385.7,2237.2 C382.9,2231.5 382.5,2229.6 382.2,2220.8 C381.8,2209.5 382.6,2205.6 387.1,2198.9 C388.8,2196.3 406.7,2178.5 426.8,2159.2 C447,2139.9 465.2,2122 467.2,2119.4 C483.1,2099.4 495.6,2026.3 503.4,1907.7 C513.1,1761.7 514.6,1562.5 507.5,1389.7 C501.6,1247 488,1090.4 471.4,972.7 C454.9,856.3 435,770.3 398.8,660.2 C338.5,476.5 247.2,307.2 138.6,177.3 C121,156.2 109.1,143.1 87,120.7 C55.3,88.4 38.9,71.2 30.1,60.6 C22.2,51.2 4.54747351e-13,19 4.54747351e-13,16.9 C4.54747351e-13,15.2 11.1,3.2 14.1,1.7 C18.2,-0.5 22.2,-0.2 32,3.2 C68.2,15.3 136.1,61.3 201,117.7 C258.3,167.6 318,230.1 369.5,294.2 C425.9,364.6 473.3,445.7 513.9,541.9 C543.4,611.7 568.7,689.1 598,799.2 C600.9,809.9 603.4,818.9 603.6,819.1 C604.8,820.4 649.2,777.4 664.6,760 C695.8,724.6 753.8,645.2 805.5,567.2 C830,530.1 834.5,522.3 854.9,480.7 C882,425.7 890.2,411.8 904.4,397.6 C918,384 931.2,379 953,378.8 C963.4,378.8 966.8,379.1 973,381.1 C984.3,384.5 993.3,389.7 1001.6,397.5 C1024.1,418.5 1034.4,448.4 1032.6,487.9 C1030.4,538.5 1015.5,583.1 986.5,626.7 C964.1,660.3 941.3,684.9 886.8,733.9 C780.6,829.4 736.1,863.7 647.8,918.2 C634.1,926.6 623,934.1 623,934.8 C623,935.6 626.8,970.5 631.5,1012.5 C652.4,1200.7 662.5,1318.6 664.8,1400.1 L665.5,1425.5 L688,1435.4 C714.5,1447 755.5,1467 776,1478.4 C819.7,1502.7 868.2,1533.4 990.5,1614.1 C1023.5,1635.9 1054.5,1656 1059.4,1658.7 C1083.4,1672.1 1093.9,1690.3 1094,1718.3 C1094,1748.1 1084.1,1770.5 1055.7,1804.5 C1013.5,1855.1 981.6,1885.1 958.5,1896.3 C940.1,1905.2 917,1905.6 899.5,1897.2 C891.2,1893.3 881,1883.8 877.6,1876.9 C873.8,1869.5 874.2,1863.1 879.6,1838 C885.1,1812.6 885.9,1803.1 883.6,1790.9 C878.9,1765.8 863.4,1734.2 840.3,1702.2 C809.4,1659.5 760.1,1608.7 708,1565.9 C693.4,1554 673.8,1539.1 673.2,1539.6 C672.7,1540.2 674.7,1800 676,1901.7 C677.4,2008.5 678.3,2030.6 682.5,2073.2 C686.8,2116.4 687,2128.1 683.6,2138.7 C678,2156.4 664.2,2173 642,2188.7 C637.9,2191.6 622.4,2200.7 607.5,2209 C534.5,2249.5 504.6,2264 482,2269.9 C470,2273.1 447.3,2274 437,2271.7 L437,2271.7 Z" id="Shape" sketch:type="MSShapeGroup"></path>
            <path d="M133.5,1585.1 C125,1582.7 117.7,1571.7 114.1,1556.2 C110.6,1541.2 109.9,1529.9 109,1471.7 C107.9,1405.5 106.6,1379.8 101.9,1336.2 C97,1290.5 91.8,1265.2 77.5,1217.7 C64.6,1175.2 58.7,1152.4 56.4,1137.2 C52.3,1109.4 57.6,1082.6 73.1,1052.2 C92,1015.1 118.4,997.7 153,999.5 C176.8,1000.8 194.3,1007.9 209.7,1022.5 C219.7,1032 225.9,1040.5 232.4,1053.7 C250.4,1089.9 258,1140.4 256.7,1216.3 C256.1,1256.4 253.2,1280.9 243.4,1329.2 C219.9,1445.3 176.8,1562.7 150.2,1582.9 C146.6,1585.6 145,1586.2 141.2,1586.1 C138.6,1586.1 135.1,1585.6 133.5,1585.1 L133.5,1585.1 Z" id="Shape" sketch:type="MSShapeGroup"></path>
        </g>
    </g>
</svg>