<?xml version="1.0" encoding="UTF-8" standalone="no"?>
<svg width="892px" height="1466px" viewBox="0 0 892 1466" version="1.1" xmlns="http://www.w3.org/2000/svg" xmlns:xlink="http://www.w3.org/1999/xlink" xmlns:sketch="http://www.bohemiancoding.com/sketch/ns">
    <!-- Generator: Sketch 3.0.4 (8054) - http://www.bohemiancoding.com/sketch -->
    <title>Slice 2</title>
    <desc>Created with Sketch.</desc>
    <defs></defs>
    <g id="Page-1" stroke="none" stroke-width="1" fill="none" fill-rule="evenodd" sketch:type="MSPage">
        <g id="Group" sketch:type="MSLayerGroup" transform="translate(445.600000, 732.600000) scale(1, -1) translate(-445.600000, -732.600000) translate(0.100000, 0.100000)" fill="#000000">
            <path d="M714.5,1465 C705.4,1463.5 685.4,1456.9 640.1,1440.5 C588.3,1421.7 581.5,1419.7 551.9,1414.1 C491.7,1402.8 201.7,1356.1 191.8,1356.1 C187.3,1356.1 177.8,1359.1 172.7,1362 C168.1,1364.7 126.6,1381.1 112,1386 C93.2,1392.3 85.4,1393.4 64.9,1392.8 C45.4,1392.3 39.7,1391.2 28.1,1385.5 C12.7,1378 1.3,1363 0.2,1348.9 C-0.3,1342.9 -1.10886994e-13,1342.1 4.4,1333.3 C7.8,1326.5 13.4,1318.7 25.3,1303.8 C34.2,1292.7 44.5,1279.1 48.1,1273.6 C64.2,1249.5 79.3,1211.7 87.3,1176.1 C104.6,1098.2 114.8,973.5 119,788.6 C120.6,717.6 119.2,518.1 115.9,350.6 C114.7,289 114,269.2 109.8,182.6 C106.5,114.3 106.4,92 109.4,74.1 C116.3,32.5 133,8.6 160,1.6 C164.9,0.3 169.5,2.72476486e-13 179.9,0.3 C195,0.8 201.4,2.6 209.2,8.5 C211.5,10.2 224.1,24 237.2,39.1 C264.8,71.1 279.7,87.2 285.2,91.2 C303.5,104.5 401.8,127.6 494.4,140.5 C550.2,148.3 585.1,151.1 623.4,151.2 C668.4,151.2 673.7,148.7 690.9,118.9 C734.7,43.3 738.2,39.6 762.9,39.8 C775.5,39.9 783.6,42.2 792.5,47.9 C819.4,65.4 833.4,105.4 837,174.9 C838,193.7 837.8,207.4 835.6,277.1 C834.1,321.4 832.5,372.5 831.9,390.6 C827.5,528.9 825.6,924.3 828.9,1025.6 C831.3,1099.1 835.1,1144.4 841.9,1179.4 C846.5,1202.8 848.8,1209.1 866.9,1246.6 C876.1,1265.9 885.4,1286.1 887.4,1291.6 C890.8,1300.6 891.1,1302.3 890.6,1308.6 C890,1317.2 886.3,1327.2 880.1,1337.1 C875.1,1345.2 866.1,1354.8 819.4,1402 C766.2,1455.8 754.7,1463.6 726.4,1465.4 C722.6,1465.6 717.2,1465.5 714.5,1465 L714.5,1465 Z M663.3,1303.4 C670.5,1302.5 676.5,1301.7 676.6,1301.7 C676.7,1301.6 679.2,1274.6 682.3,1241.6 L687.7,1181.6 L688.9,1040.6 L690,899.6 L687.4,883.1 C686,874.1 684.6,866.5 684.5,866.3 C684.2,866 259.9,808.1 258,808.1 C255.9,808.1 254.8,845.4 252,1016.1 C249.3,1183.3 249.1,1202.2 250.4,1217.1 C251.2,1226.2 251.9,1234.6 251.9,1235.8 C251.9,1237.8 253.3,1238.5 263.2,1241.6 C287.3,1249.2 342.4,1261.5 370.4,1265.6 C528.3,1288.1 639.7,1304.2 640.9,1304.5 C644.2,1305.3 650.9,1305 663.3,1303.4 L663.3,1303.4 Z M689.9,719.4 C689.9,710.7 689.5,617 688.9,511.1 L687.8,318.6 L685.3,302.6 C683.9,293.8 682.5,285.9 682.3,284.9 C681.5,282 662.3,279.3 604.4,274.1 C578.8,271.8 541.2,266.9 452.9,254.6 C388.3,245.5 333.3,237.4 330.6,236.6 C328,235.7 314.2,233.9 299.1,232.6 C284.4,231.3 269.6,229.9 266.2,229.6 C262.7,229.3 259.9,229.2 259.9,229.3 C259.3,236.9 257.2,656.5 257.8,659.5 C259.5,668.9 263.5,671.9 278.8,675.5 C311.3,683.2 405.8,698.5 554.4,720.1 C652.2,734.3 657.1,734.9 673.2,735 L689.9,735.1 L689.9,719.4 L689.9,719.4 Z" id="Shape" sketch:type="MSShapeGroup"></path>
        </g>
    </g>
</svg>