<?xml version="1.0" encoding="UTF-8" standalone="no"?>
<svg width="1784px" height="1656px" viewBox="0 0 1784 1656" version="1.1" xmlns="http://www.w3.org/2000/svg" xmlns:xlink="http://www.w3.org/1999/xlink" xmlns:sketch="http://www.bohemiancoding.com/sketch/ns">
    <!-- Generator: Sketch 3.0.4 (8053) - http://www.bohemiancoding.com/sketch -->
    <title>Untitled 4</title>
    <desc>Created with Sketch.</desc>
    <defs></defs>
    <g id="Page-1" stroke="none" stroke-width="1" fill="none" fill-rule="evenodd" sketch:type="MSPage">
        <g id="Group" sketch:type="MSLayerGroup" transform="translate(892.100000, 828.300000) scale(1, -1) translate(-892.100000, -828.300000) translate(0.600000, 0.800000)" fill="#000000">
            <path d="M952.6,1570.1 C946.5,1568.3 588.9,1504.8 571.1,1502.3 C562.3,1501.1 532.1,1501.6 519,1503.3 C493.8,1506.4 478.6,1510.4 446.5,1522.7 C416.2,1534.2 410.2,1535.9 396.4,1536.4 C390.1,1536.7 382.2,1536.6 378.9,1536.1 L372.9,1535.3 L369.6,1522.3 C363.2,1497.6 364.1,1480.1 372.8,1463 C391.6,1426 452.9,1378.6 513.8,1354.1 C536.7,1344.9 546.5,1343.9 565.4,1348.8 C586.7,1354.3 616.8,1364.3 654.9,1378.5 C700.2,1395.5 742.2,1407.8 783.1,1416.2 C805.1,1420.7 822.6,1423.1 825.6,1421.9 C833.5,1418.8 843.2,1399.7 850.8,1372.3 C859.6,1340.2 865,1302.5 867.5,1254.8 C868.8,1230.6 867.8,1064.2 864.9,802.8 C863.5,676.4 863.4,672.6 860.7,643.6 L858,614 L840,627.7 C830,635.3 779.6,673.5 727.9,712.7 C676.2,751.9 633.1,784.7 632.2,785.6 C630.7,787.2 632.2,794 655.4,889.5 C669,945.8 680.9,996.7 681.8,1002.7 C684.1,1018.6 683.9,1033.3 681.3,1040.3 C677.9,1049.4 669.7,1060.5 657.4,1072.9 C631.8,1098.5 593.4,1125 551.4,1146.1 C524.4,1159.7 516.9,1162.2 504.4,1162.1 C478,1161.8 453,1147.2 445.1,1127.6 C443.6,1123.6 443,1120 443,1113.2 C442.9,1104.6 443.1,1103.7 446.7,1096.7 C448.7,1092.6 457.9,1079.2 467,1066.8 C495.7,1027.9 501.2,1019 504.5,1006 C513.4,971.2 490.8,848.9 453.3,728.9 C393.9,539 302.1,394.5 176.9,294.3 C150.9,273.4 137.3,264.1 83.8,230.2 C64.1,217.7 37.2,200.5 24.1,192 L0.3,176.6 L0.6,170.4 L0.9,164.3 L9.1,160.2 C21.7,153.9 26.7,152.6 38.6,152 C55.6,151.3 77.1,155.7 110.4,166.7 C204.2,197.8 299.6,258.1 376.5,334.8 C400.2,358.4 414,373.8 433.9,398.8 C491.1,470.4 536.2,549.6 586.9,667.6 C591.2,677.6 595,685.8 595.3,685.8 C596.4,685.8 650,645.3 663.4,634.3 C698.5,605.7 701.3,603.2 926.9,398.3 L1113.9,228.5 L1213.9,145.7 C1326.3,52.5 1329.7,49.8 1351.9,35 C1384.3,13.3 1408.8,4 1442.9,0.7 C1459.7,-0.9 1505.1,0.2 1546.9,3.2 C1675.1,12.5 1721.4,16.1 1731.6,17.4 C1757.1,20.5 1775.7,29.5 1781.5,41.4 C1784.4,47.5 1783.8,57.1 1780.1,64.4 C1772.4,79.5 1752.4,95.5 1723.9,109.4 C1717.9,112.3 1628.1,154.9 1524.4,204.1 L1335.9,293.6 L1239.9,346.3 C1113.8,415.5 1119.2,412.5 1101.4,424.3 C1080.9,438 1051.6,461 1015.3,492 C1013.5,493.6 1013.4,495.4 1013.4,552.5 C1013.4,592.7 1014.7,663.5 1017.4,776.3 C1019.6,867.1 1021.4,943.4 1021.4,946 C1021.4,950.5 1021.5,950.7 1024.7,951.2 C1040.9,953.7 1057.9,956.9 1079.4,961.5 C1138.1,974 1141.3,974.5 1289,994.7 C1381.7,1007.5 1438.5,1015.7 1444.5,1017.2 C1475.1,1025.2 1487.4,1039.8 1487.4,1068.1 C1487.4,1080.1 1485.6,1087.7 1480.3,1097.8 C1467.6,1122.1 1437.3,1143.3 1402.8,1152 C1386.2,1156.2 1353,1154.7 1327.4,1148.7 C1282.8,1138.2 1119.9,1101 1090.9,1094.7 C1039.5,1083.5 1030.7,1083.1 1026.9,1092.1 C1024.7,1097.4 1024.2,1108.4 1025.3,1123.3 C1026.3,1135.6 1029.3,1200.2 1032.4,1275 C1032.9,1288.6 1034.8,1312.2 1036.5,1327.5 C1040.6,1364.3 1041.3,1382.3 1039,1390.3 C1035.5,1402.2 1030.6,1409.7 1010.8,1433.9 C1005.1,1440.8 997.7,1449.5 994.3,1453.2 C990.9,1456.9 988.3,1460 988.5,1460.2 C988.7,1460.3 1035,1468.7 1091.4,1478.7 C1147.8,1488.8 1207.4,1499.5 1223.9,1502.5 C1264.8,1510 1277.6,1511.7 1298.7,1512.7 C1319.5,1513.6 1329.4,1512.8 1335.3,1509.9 C1344,1505.4 1341.5,1497.6 1324.5,1475.8 C1311.4,1458.9 1296.6,1442.7 1244.4,1387.8 C1189.3,1330 1174,1312.8 1165.9,1299.3 C1158.7,1287.3 1162.9,1279.7 1178.3,1276.8 C1186.4,1275.3 1197,1277.7 1238.8,1291 C1256.2,1296.5 1267.1,1301.2 1371.8,1349.2 C1434.6,1378 1488.2,1402.3 1490.9,1403.2 C1493.7,1404 1510.9,1408.4 1529.3,1412.8 C1582.5,1425.5 1594.8,1429.4 1606,1436.7 C1635.2,1455.6 1637.3,1494.6 1611,1527.4 C1596.6,1545.3 1570,1567.9 1519.9,1604.8 C1465.2,1645 1445.2,1654.9 1418.4,1655 C1405.5,1655 1400.1,1654 1344.4,1640.3 L1301.9,1629.8 L1187.5,1610.8 C1124.6,1600.3 1073,1591.9 1072.9,1592 C1072.7,1592.2 954.1,1570.5 952.6,1570.1 Z" id="Shape" sketch:type="MSShapeGroup"></path>
        </g>
    </g>
</svg>