<?xml version="1.0" encoding="UTF-8" standalone="no"?>
<svg width="1462px" height="870px" viewBox="0 0 1462 870" version="1.1" xmlns="http://www.w3.org/2000/svg" xmlns:xlink="http://www.w3.org/1999/xlink" xmlns:sketch="http://www.bohemiancoding.com/sketch/ns">
    <!-- Generator: Sketch 3.0.4 (8053) - http://www.bohemiancoding.com/sketch -->
    <title>Untitled 4</title>
    <desc>Created with Sketch.</desc>
    <defs></defs>
    <g id="Page-1" stroke="none" stroke-width="1" fill="none" fill-rule="evenodd" sketch:type="MSPage">
        <g id="Group" sketch:type="MSLayerGroup" transform="translate(730.600000, 435.000000) scale(1, -1) translate(-730.600000, -435.000000) translate(0.100000, 0.000000)" fill="#000000">
            <path d="M1277.4,867.1 C1265.9,864.1 1244.9,857.2 1201.4,842.2 C1172.8,832.3 1164.7,830.3 1138.9,826.6 C1099.4,820.9 1091.2,820.2 798.9,798 C716.6,791.8 649,785.8 492.4,770.9 L291.4,751.9 L268.4,752.3 C231.4,753 222.2,755.4 194.6,771.9 C155.1,795.4 142,802.3 127.6,807.2 C110.6,813 84.7,812.2 56.6,805.1 C35.1,799.6 20.9,792.8 10.9,783 C3.2,775.5 0.5,769.6 0.1,759.4 C-0.5,746.6 1,744.5 26.8,721 C48.6,701.1 53.4,694.9 61.7,674.8 C75.9,640.6 88.4,583.3 96.3,515 C97.7,503.2 107.2,402.2 117.4,290.7 C127.6,179.2 136.6,84.3 137.5,79.8 C138.3,75.4 140.5,67.1 142.4,61.5 C153.2,28.3 173.2,6.6 197.4,1.5 C216.3,-2.4 231.6,1.7 244.2,14.3 C254.9,25 258.4,31.7 268.8,61.5 C275.2,79.8 278.9,89 280.3,90.2 C287.4,96 327.1,104 403.4,115 C422.7,117.8 442.2,120.7 446.9,121.6 C451.6,122.4 533.7,130.7 629.4,140.1 L803.4,157 L892.9,162.5 C978,167.6 985.9,167.9 1054.4,169 C1159.2,170.5 1173.2,170.5 1179.9,168.4 C1186.4,166.5 1189,163.9 1203.9,145 C1225.4,117.7 1232.5,112 1247.5,109.9 C1256.8,108.6 1272.7,109.4 1281.3,111.6 C1314,120 1334.7,154.9 1350.3,228 C1353,240.6 1402,517.1 1406.8,547.1 C1410.5,569.6 1415.8,596.6 1419.8,612.1 C1421.7,619.6 1428.5,637.8 1439.7,665.5 C1449.1,688.6 1457.7,710.8 1458.9,714.8 C1463.6,730.2 1460.1,744.9 1447.3,764.2 C1438.9,776.9 1413.1,803.1 1395.9,816.4 C1368.2,837.9 1330.3,859.8 1309.9,866.3 C1296.9,870.4 1290.5,870.6 1277.4,867.1 L1277.4,867.1 Z M1220.3,693.1 C1233.9,689.5 1242,683.3 1247,672.6 C1248.6,669.2 1250.4,663.7 1251,660.5 C1252.7,651.6 1251.2,614.6 1247.3,571.3 L1246.7,564 L1215.1,564 C1183.7,564 1182.2,563.9 951.5,546.5 L719.4,529 L497.4,507.6 C375.3,495.8 272.7,486 269.4,485.9 C258.1,485.5 256.1,485.8 252.8,488.8 C249.9,491.4 249.6,492.3 248.8,500.6 C246.4,524.7 242.8,585.2 243.3,592 C244.1,600.7 246.7,616.1 247.8,617.8 C250.2,621.7 457.4,641.8 734.5,665 C937.3,682 937.4,682 1061.4,688.9 C1194.2,696.4 1206.4,696.7 1220.3,693.1 L1220.3,693.1 Z M1227.2,441.8 C1231.2,439.1 1231.5,434.7 1229,415.5 C1223.7,375.7 1210.9,304.3 1208.8,303 C1208.3,302.6 1199.6,302 1189.6,301.6 C1169,300.9 1052.2,295 996.4,292 C959.3,289.9 933.8,288.7 904.9,287.5 C896.4,287.1 778,276.5 641.7,263.9 C403.1,241.9 393.2,240.9 368.7,236.5 C333.1,230.1 304.4,226 290.2,225.3 L278.1,224.7 L276,231.6 C269.5,253.5 264.9,277 262.9,298.5 C261.7,311.2 261.5,363 262.7,363 C263.1,363 348.5,373.1 452.4,385.5 L641.4,408 L801.4,420.1 C943.1,430.7 974.5,432.8 1075.4,438 C1196.6,444.2 1222.4,444.8 1227.2,441.8 L1227.2,441.8 Z" id="Shape" sketch:type="MSShapeGroup"></path>
        </g>
    </g>
</svg>