<?xml version="1.0" encoding="UTF-8" standalone="no"?>
<svg width="2518px" height="1404px" viewBox="0 0 2518 1404" version="1.1" xmlns="http://www.w3.org/2000/svg" xmlns:xlink="http://www.w3.org/1999/xlink" xmlns:sketch="http://www.bohemiancoding.com/sketch/ns">
    <!-- Generator: Sketch 3.0.4 (8054) - http://www.bohemiancoding.com/sketch -->
    <title>Slice 2</title>
    <desc>Created with Sketch.</desc>
    <defs></defs>
    <g id="Page-1" stroke="none" stroke-width="1" fill="none" fill-rule="evenodd" sketch:type="MSPage">
        <g id="Group" sketch:type="MSLayerGroup" transform="translate(1258.700000, 702.300000) scale(1, -1) translate(-1258.700000, -702.300000) translate(0.200000, 0.800000)" fill="#000000">
            <path d="M984.9,1402.3 C953.7,1396.4 941.3,1380.3 951.5,1358.7 C953.1,1355.1 958.7,1345.3 963.7,1337 C974.3,1319.5 977.1,1313.6 982.8,1297.2 C990.9,1273.6 994.3,1248.1 991.8,1229.6 C987.8,1200.2 969.8,1146.4 945.1,1090.3 C935.5,1068.6 920.6,1037.7 913.8,1025.7 C904.7,1009.4 785.4,820.7 763.8,788.3 C738.7,750.6 632.5,606.6 599.4,565.3 C558.2,513.8 515.9,466.8 464.3,415.3 C424.4,375.4 381.4,335.9 358.9,318.3 C355.3,315.6 323.8,287 288.9,254.9 L225.3,196.6 L130.8,122.3 C58.4,65.4 32.1,44.2 18.3,31.4 C8.4,22.2 0.2,14.1 3.16058377e-13,13.5 C-0.3,12.2 17.5,2.8 24.2,0.8 C31.1,-1.4 42.8,-8.31140712e-13 56.9,4.7 C101.7,19.4 178.5,55.6 227.3,85 C291.5,123.7 381.5,181.6 408.8,201.9 C413.5,205.3 460.3,242.6 512.8,284.7 C601.8,355.9 609.7,362.5 628.1,380.7 C680,431.9 767.3,526.2 825.3,593.8 C856,629.5 876,655.6 934.3,735.8 C989,811 996.6,822 1074,938.2 C1119.1,1005.7 1156.3,1060.6 1156.7,1060.2 C1158.6,1058.1 1187.8,1023.8 1192.3,1018.3 C1195.1,1015 1277.4,926.4 1375.3,821.3 C1473.2,716.3 1564.3,618.4 1577.8,603.8 C1631.8,545.5 1683.6,492.1 1726.7,450.6 C1758.4,419.9 2058.1,134.8 2076.2,118.1 C2095.9,99.8 2106.1,95.7 2146.3,90.4 C2173.3,86.7 2374.1,64.8 2386.7,64.1 C2413,62.7 2458.1,69.8 2511.9,83.8 L2515.5,84.8 L2516.7,95.9 C2517.9,106.5 2517.9,107.2 2516.2,108.1 C2515.1,108.7 2452.9,150.1 2377.8,200.1 C2266.8,274.1 2219.3,306.5 2123.8,373.4 L2006.3,455.7 L1845.4,587.3 L1684.4,718.9 L1532.9,851.8 L1381.3,984.6 L1335.8,1031.9 C1310.8,1057.9 1284.9,1084.8 1278.3,1091.8 C1263.5,1107.3 1240.1,1129.6 1229.7,1138 C1225.4,1141.4 1221.9,1144.7 1221.9,1145.1 C1221.8,1145.6 1224.5,1149 1227.9,1152.6 C1242.5,1168.6 1253.4,1185.4 1256.3,1196.3 C1258.4,1204.6 1258.2,1218.8 1255.9,1228 C1248.7,1256 1226.3,1279 1153.8,1333 C1140.9,1342.6 1124.2,1355.2 1116.8,1360.9 C1085.7,1384.8 1064.5,1395.6 1038.1,1400.9 C1024.1,1403.6 995.9,1404.4 984.9,1402.3 L984.9,1402.3 Z" id="Shape" sketch:type="MSShapeGroup"></path>
        </g>
    </g>
</svg>