<?xml version="1.0" encoding="UTF-8" standalone="no"?>
<svg width="2377px" height="1198px" viewBox="0 0 2377 1198" version="1.1" xmlns="http://www.w3.org/2000/svg" xmlns:xlink="http://www.w3.org/1999/xlink" xmlns:sketch="http://www.bohemiancoding.com/sketch/ns">
    <!-- Generator: Sketch 3.0.4 (8054) - http://www.bohemiancoding.com/sketch -->
    <title>Slice 2</title>
    <desc>Created with Sketch.</desc>
    <defs></defs>
    <g id="Page-1" stroke="none" stroke-width="1" fill="none" fill-rule="evenodd" sketch:type="MSPage">
        <g id="Group" sketch:type="MSLayerGroup" transform="translate(1188.500000, 598.800000) scale(1, -1) translate(-1188.500000, -598.800000) translate(0.000000, 0.300000)" fill="#000000">
            <path d="M1102,1195.7 C1079.5,1189.8 1061.8,1172.5 1057.9,1152.5 C1056.2,1143.5 1057.2,1133.3 1060.5,1127.8 C1063.4,1122.8 1072.7,1116.2 1090.4,1106.7 C1107.4,1097.6 1119.9,1084.2 1136.5,1057.4 C1153.4,1030.2 1157,1020.9 1160.9,994.8 C1164.6,970.4 1166.5,945.3 1168,901.8 C1169.8,850.9 1169.2,815.8 1165,714.3 C1161.8,636.5 1160.4,588.9 1158.1,468.3 C1155.1,313.4 1155.1,300.2 1158.5,271.3 C1166.2,206.8 1186.9,154.4 1220.6,114.3 C1249.2,80.4 1286,56.4 1333.9,40.6 C1404.7,17.3 1517.3,3.4 1659.3,0.3 C1700,-0.5 1772.7,0.3 1793,1.8 C1797.1,2.1 1853.1,5.5 1917.4,9.4 L2034.2,16.4 L2050.4,19.8 C2060.4,22 2076.8,24.4 2094,26.3 C2144.9,31.9 2166.5,35.4 2200.5,43.9 C2288,65.8 2336.8,85.9 2360.5,109.8 C2372.9,122.3 2377.7,134.7 2376.7,151.3 C2376.1,160.5 2372.1,185 2370,192.5 C2369.4,194.5 2361,208.4 2351.2,223.5 C2312.8,282.5 2308,291.4 2303.6,312.8 C2301.3,323.9 2299.4,339.8 2293,403.3 C2286.4,468.6 2282.9,498.5 2280,513.8 C2278.9,519.3 2276.3,541.1 2274,562.3 C2268.7,612.1 2266.4,631.2 2264,645.3 C2257.3,683.3 2249.2,696.3 2232.4,696.3 C2220.2,696.3 2212.9,687.9 2211,671.7 C2210.1,663.4 2183.3,481.1 2178,446.8 C2152.5,281.3 2135.7,242.3 2077.5,213.1 C2030.3,189.3 1946.2,174.7 1807.5,166.2 C1780.2,164.5 1674.3,163.9 1640.4,165.2 C1475.3,171.6 1374.7,194.4 1343.3,232.5 C1334.8,242.9 1326.2,263.3 1322.1,282.9 C1316.9,308.4 1314.4,348.1 1315.4,392.8 C1316.1,424.6 1327.3,677.3 1329,699.8 C1332.2,741.9 1337.6,782.7 1349.6,854.8 C1356,893.4 1357.2,898.9 1376,975.3 C1386.2,1016.8 1388.4,1028.3 1388.4,1040.8 C1388.4,1050.5 1388,1052.8 1385.3,1060.5 C1376,1087 1351.7,1110.9 1309.6,1134.9 C1271.4,1156.6 1209.5,1179.3 1155.8,1191.3 C1128.7,1197.3 1113,1198.6 1102,1195.7 L1102,1195.7 Z" id="Shape" sketch:type="MSShapeGroup"></path>
            <path d="M629,1100.6 C608.8,1097.2 589.9,1085.7 583.6,1073.1 C581.5,1068.9 581,1066.5 581,1060.4 C581.1,1048.1 584.5,1041.6 594.9,1033.9 C613.3,1020.4 630.8,994.5 636.2,972.8 C639.5,959.4 639.3,937.3 635.6,911.8 C619.9,803.5 582.8,689.1 527.4,578.3 C492.1,507.9 453.1,444.8 407.4,384.3 C356.4,316.9 292.4,250.2 222.5,191.9 C178.1,154.8 148.5,133.7 105.4,108.5 C56.2,79.8 41.3,70 24.7,55.5 C15.3,47.2 -4.54747351e-13,31.2 -4.54747351e-13,29.6 C-4.54747351e-13,29.1 2.9,25.9 6.5,22.3 L12.9,15.9 L22.7,17.2 C77.9,24.3 151.4,49.4 225,86.2 C357.6,152.6 480,250.5 578.1,368.8 C638.6,441.8 692.7,527.3 732.1,612.3 C748.7,648.2 860.3,910.2 862.6,918.8 C867.2,936.1 867.7,961.2 863.5,973.8 C853.3,1004.6 819.8,1035.9 768.7,1062.3 C733,1080.7 693.1,1094.8 662,1099.8 C653.3,1101.2 635.1,1101.6 629,1100.6 L629,1100.6 Z" id="Shape" sketch:type="MSShapeGroup"></path>
        </g>
    </g>
</svg>