<?xml version="1.0" encoding="UTF-8" standalone="no"?>
<svg width="2441px" height="2148px" viewBox="0 0 2441 2148" version="1.1" xmlns="http://www.w3.org/2000/svg" xmlns:xlink="http://www.w3.org/1999/xlink" xmlns:sketch="http://www.bohemiancoding.com/sketch/ns">
    <!-- Generator: Sketch 3.0.4 (8054) - http://www.bohemiancoding.com/sketch -->
    <title>Slice 2</title>
    <desc>Created with Sketch.</desc>
    <defs></defs>
    <g id="Page-1" stroke="none" stroke-width="1" fill="none" fill-rule="evenodd" sketch:type="MSPage">
        <g id="Group" sketch:type="MSLayerGroup" transform="translate(1220.300000, 1074.100000) scale(1, -1) translate(-1220.300000, -1074.100000) translate(0.100000, 0.200000)" fill="#000000">
            <path d="M1121.6,2146.9 C1096.1,2144.8 1075.6,2135.5 1057.3,2117.7 L1048.8,2109.5 L1058.9,2094.5 C1093.7,2043 1103.6,2024.5 1109.7,1998.7 C1112.2,1988.1 1112.4,1986.3 1112.3,1962.5 C1112.2,1923.4 1106.5,1860.8 1099.8,1824.8 C1095.6,1801.8 1051.2,1651.6 1022.5,1562.9 C1003.9,1505.5 980.5,1442.1 944.4,1351 C795.5,975.3 643.7,707.3 456.5,489.2 C415.2,441.1 387.3,411.2 338.5,362.5 C253.4,277.5 159.3,195.8 40.9,104 C15.4,84.2 6.3,75.6 2.4,67.6 C0.1,62.8 -0.3,61 0.1,55.2 C0.5,47.2 2.9,43.1 9.2,39.7 C12.8,37.8 14.9,37.5 23.9,37.6 C33.8,37.6 35.2,37.9 49.4,42.7 C76.3,51.9 112.1,67.6 157.4,90 C172.9,97.7 189.3,106.3 193.9,109.3 C198.6,112.2 235.7,138 276.4,166.6 L350.4,218.6 L444.4,295.4 L538.4,372.2 L617.9,462.4 C661.6,512.1 701.9,557.8 707.5,564.1 C715.5,573.2 731.5,596 785.6,675.5 L853.5,775.5 L919.4,890.5 C955.6,953.8 986,1006.7 986.9,1008.3 L988.6,1011 L1086.4,917.3 L1184.1,823.5 L1292.7,707 C1388.1,604.6 1434,556.6 1672.5,309.9 C1846.2,130.2 1945.3,28.3 1948.2,26.7 C1957,21.5 1978.6,11 1987.5,7.6 C2000.5,2.6 2014.4,0 2028.1,0 C2040.7,0 2056.7,1.8 2103.9,8.5 C2128.7,12 2288.2,32 2368.9,41.6 C2386.2,43.7 2398.6,46.8 2408,51.5 C2413.7,54.4 2431.7,65.4 2440.2,71.2 C2441.5,72 2433.1,83.7 2426,90.9 C2417.4,99.7 2410.9,103.5 2375.9,120.2 C2348.1,133.4 2327.9,144.4 2234.9,196.7 C2168,234.3 2112.8,266.2 2090.9,279.7 C2071.4,291.8 2013.2,329.2 1961.6,362.9 L1867.9,424.1 L1776.6,498.1 C1693.1,566 1661.6,592.5 1401.9,814.3 C1134.1,1043.1 1091.1,1080.5 1045.5,1124.1 L1042.6,1126.8 L1062.7,1167.2 L1082.9,1207.5 L1133.8,1336.5 C1180.2,1454.1 1189.2,1477.9 1235.4,1605.5 C1263.3,1682.5 1288.9,1752.5 1292.2,1761 C1300.2,1781.2 1313.5,1807.6 1323.1,1822 C1327.3,1828.3 1339.1,1844.3 1349.4,1857.5 C1393.1,1913.9 1399.7,1926.2 1398.7,1950.3 C1398.3,1960.2 1398.2,1960.8 1393.2,1971.3 C1387.4,1983.4 1381.7,1993 1368.6,2013.3 L1359.6,2027.1 L1350.5,2031.7 C1332.8,2040.5 1322,2048.3 1272.4,2088 C1254.8,2102.1 1237.6,2115.5 1234.1,2117.9 C1218,2128.8 1190.6,2139.7 1168.5,2143.9 C1158.8,2145.8 1137.1,2148.2 1132.9,2147.8 C1132.1,2147.8 1127,2147.4 1121.6,2146.9 L1121.6,2146.9 Z" id="Shape" sketch:type="MSShapeGroup"></path>
        </g>
    </g>
</svg>