<?xml version="1.0" encoding="UTF-8" standalone="no"?>
<svg width="2302px" height="2489px" viewBox="0 0 2302 2489" version="1.1" xmlns="http://www.w3.org/2000/svg" xmlns:xlink="http://www.w3.org/1999/xlink" xmlns:sketch="http://www.bohemiancoding.com/sketch/ns">
    <!-- Generator: Sketch 3.0.4 (8054) - http://www.bohemiancoding.com/sketch -->
    <title>Slice 2</title>
    <desc>Created with Sketch.</desc>
    <defs></defs>
    <g id="Page-1" stroke="none" stroke-width="1" fill="none" fill-rule="evenodd" sketch:type="MSPage">
        <g id="Group" sketch:type="MSLayerGroup" transform="translate(1151.000000, 1244.500000) scale(1, -1) translate(-1151.000000, -1244.500000) translate(0.000000, 0.400000)" fill="#000000">
            <path d="M1480,2488 C1454.5,2483.1 1437.9,2462.6 1446.1,2446.3 C1448.3,2442.1 1453.7,2434.5 1466.6,2418.1 C1475.1,2407.2 1478.1,2402.1 1481,2393.6 C1486.5,2377.4 1482,2359.5 1463,2322.2 C1447.5,2291.8 1430.2,2262.9 1399.3,2216.1 C1344.8,2133.8 1271.5,2035.1 1223.4,1979.5 L1215,1969.9 L1208.8,1969.3 C1205.3,1968.9 1188.1,1967 1170.5,1965.1 C1107.6,1958 679.2,1910.6 662,1908.9 C640.2,1906.7 569.4,1906.4 548,1908.4 C507.1,1912.2 479.4,1916.5 452.4,1923.1 C420.6,1930.9 406.4,1936.7 377,1954 C355.8,1966.5 339.6,1974.6 334.5,1975.3 C318.9,1977.3 299.3,1955.5 294.4,1930.6 C292.3,1920.1 293,1905.2 295.9,1895.1 C306.5,1858.8 345,1817.2 399.3,1783.5 C440.9,1757.6 485.1,1740.5 510.4,1740.4 C520.6,1740.3 531.9,1742.9 573.5,1754.7 C599,1761.9 607.6,1763.9 616,1764.7 C628,1765.7 655.9,1769.7 671.7,1772.6 C681.9,1774.5 798.6,1792 896,1806.2 C920.5,1809.7 945.7,1813 952,1813.4 L963.5,1814.2 L975.4,1805.2 C1008.3,1780.3 1017.2,1768.7 1027.6,1737.1 C1043.7,1688.1 1051.9,1620.4 1053.7,1521 L1054.3,1484.9 L1050.9,1484.3 C1044.9,1483.2 982.5,1474.8 949.5,1470.7 C767.4,1447.8 663.9,1439.6 609.9,1443.5 C564.4,1446.9 525,1454.2 491.6,1465.6 C468,1473.6 460.1,1477.8 443.5,1491 C416.1,1512.9 406.1,1519.6 400.7,1519.6 C396.9,1519.6 387.2,1516.7 381.2,1513.8 C344.1,1495.7 348.8,1439 392,1382.6 C428.1,1335.5 491.1,1292.3 537.2,1283 C557.4,1278.9 574.5,1281.6 738,1314.1 C829.6,1332.4 829.9,1332.4 964.9,1350.6 C1020.4,1358.1 1049.6,1362.2 1054.4,1363.2 L1057.3,1363.8 L1056.6,1203 C1056.3,1114.5 1055.7,1031.9 1055.4,1019.4 L1054.8,996.6 L1050.6,996.6 C1034.3,996.6 913,983 649,951.7 C406,922.8 356.7,917.6 324.5,917.6 C269.7,917.6 213.3,927.1 172.2,943.2 C154.9,950 148.2,953.9 120.6,973.4 C90.8,994.3 75.2,1004.5 65.1,1009.3 C58.2,1012.6 57.3,1012.8 49.9,1012.4 C43.4,1012 40.8,1011.3 34.4,1008.2 C25.4,1003.7 14.9,994.2 9,985.2 C-4.3,964.9 -2.7,935.9 13.1,913 C24.3,896.7 71.5,849.2 120.8,804.8 C164.8,765.1 198.4,746.6 226.4,746.6 C231.3,746.6 249.1,749.4 280.1,755.1 C448,786.1 547.1,802.8 712.3,828.1 C836,847 841.9,847.8 949.7,857.1 C1003.7,861.8 1048.2,865.6 1048.5,865.6 C1050.1,865.6 1049.4,826.9 1039,386.1 C1035.9,253 1035.7,234.5 1036.9,199.5 C1039.3,129.1 1044.3,99.6 1060.2,61.1 C1068.8,40.3 1077.1,27.5 1089.5,15.8 C1098.4,7.4 1106.9,2.2 1114.8,0.5 C1135.3,-3.9 1155.9,23.8 1174.4,80.3 C1189.7,127.3 1200.3,177.3 1204.4,221.6 C1209.5,275.7 1210.1,322.9 1209.8,615.8 C1209.6,758.6 1209.7,875.7 1210,875.9 C1210.3,876.2 1287.5,880.1 1381.5,884.5 L1552.5,892.5 L1729.5,887.1 L1906.5,881.7 L2011.5,873.7 C2111.5,866 2117.6,865.5 2139,861.6 C2213.4,848.2 2213.6,848.2 2229.5,848.2 C2243.8,848.1 2244.9,848.2 2253.2,851.2 C2264.9,855.4 2274.7,861.4 2283.4,869.6 C2296.3,881.9 2301.9,894.4 2302,911 C2302,927.3 2297.3,940.4 2286.1,955.3 C2269.4,977.4 2241.9,998 2202.9,1017.5 C2155.5,1041.2 2100.3,1058.1 2060,1061.1 C2047.1,1062.1 2017.8,1059.3 1944,1050 C1911.7,1046 1895.6,1044.7 1765.5,1036.1 C1631.3,1027.2 1610.1,1026.1 1421.3,1017.6 C1310.7,1012.7 1217.8,1008.6 1215,1008.6 L1209.8,1008.6 L1210.4,1046.4 C1213,1194.3 1215,1321.9 1215,1342.7 C1215,1356.2 1215.3,1369.4 1215.6,1371.8 L1216.2,1376.4 L1228.4,1377 C1235,1377.4 1256.7,1378.5 1276.5,1379.6 C1296.3,1380.6 1330.5,1382.3 1352.5,1383.2 C1374.5,1384.1 1419.7,1386 1453,1387.5 C1513.3,1390.1 1513.8,1390.1 1583,1388.8 C1621.2,1388.1 1679.3,1387.5 1712,1387.3 C1764.5,1387.1 1773,1387.3 1784,1388.9 C1825.7,1394.8 1845.6,1408.1 1852.7,1434.6 C1855.3,1444.6 1855.1,1463.1 1852.3,1472.1 C1842.5,1502.9 1806.7,1529.6 1750.4,1547.9 C1713.6,1559.9 1678.7,1565.5 1653,1563.5 C1633.3,1562 1623.4,1559.9 1550,1541.6 C1521.7,1534.5 1493.7,1527.8 1487.9,1526.7 C1477.4,1524.7 1449.2,1521.3 1433,1520.1 C1428.3,1519.7 1378.2,1515.2 1321.6,1510 C1265,1504.8 1218.5,1500.8 1218.3,1501 C1217.7,1501.5 1219.7,1566.4 1221.1,1591.6 C1222.7,1623.3 1223.8,1630.1 1234.5,1674.1 C1239.6,1695.3 1240.3,1703.9 1237.5,1714.8 C1234.1,1727.9 1224.9,1744.2 1211.6,1760.6 C1197.9,1777.6 1169.8,1803.5 1144.8,1822.1 C1136.5,1828.4 1134.6,1830.2 1136.3,1830.4 C1141.6,1831 1235.9,1838.8 1270,1841.5 C1318.1,1845.3 1325.1,1845.7 1483,1851.7 L1615.5,1856.8 L1739.5,1854.1 C1898.9,1850.6 1914.9,1850.9 1938.2,1858.2 C1966.9,1867.1 1981.2,1887.4 1979.7,1917.1 C1978.9,1934 1973.6,1945 1959.1,1960 C1945.9,1973.6 1930.2,1984.5 1906.2,1996.5 C1863.8,2017.8 1801.9,2035.3 1776.5,2033.2 C1759.3,2031.8 1733.1,2027.3 1658,2013.2 C1594.5,2001.2 1570.9,1998.5 1433,1987.6 C1391.5,1984.3 1354.1,1981.3 1350,1981 C1345.1,1980.6 1342.8,1980.7 1343.5,1981.3 C1344.1,1981.9 1352.8,1989.7 1363,1998.7 C1373.2,2007.7 1410.1,2040.7 1445,2072.1 C1602.3,2213.4 1650,2254.4 1673,2268.1 C1686.7,2276.2 1707.7,2290.5 1712.5,2294.8 C1715.3,2297.3 1718.9,2301.8 1720.5,2304.8 C1723.4,2309.9 1723.5,2310.5 1723.5,2323.1 C1723.4,2338.3 1722.1,2342.6 1713.9,2355.1 C1704.4,2369.6 1689.3,2383.9 1646.3,2418.8 C1609.7,2448.4 1595.3,2458.4 1572.5,2469.5 C1546.3,2482.4 1526.1,2487.6 1500,2488.1 C1490.4,2488.3 1481.4,2488.2 1480,2488 L1480,2488 Z" id="Shape" sketch:type="MSShapeGroup"></path>
            <path d="M527.5,2390.6 C526.1,2387.9 525,2385.2 525,2384.6 C525,2384 530.3,2375.4 536.7,2365.3 C544.4,2353.4 552.1,2343 559,2335.1 C608.8,2278.4 625.4,2254.1 695.5,2135.6 C733.5,2071.3 746.8,2049.6 759.1,2032.5 C782.1,2000.3 799.4,1984.5 816.1,1980.7 C818.5,1980.1 825.7,1979.6 832.1,1979.6 C853.2,1979.6 866,1984.5 879.6,1998.1 C898.6,2017 907.6,2043.8 908.7,2085.7 C909.4,2108.4 908,2119.4 902.5,2136.2 C890,2174.5 858.2,2212.4 805.5,2252.1 C779.4,2271.8 737.2,2298.6 703,2317.3 C630.7,2356.9 566.4,2387.2 541.3,2393.7 C530.6,2396.4 530.4,2396.3 527.5,2390.6 L527.5,2390.6 Z" id="Shape" sketch:type="MSShapeGroup"></path>
        </g>
    </g>
</svg>