<?xml version="1.0" encoding="UTF-8" standalone="no"?>
<svg width="1572px" height="2259px" viewBox="0 0 1572 2259" version="1.1" xmlns="http://www.w3.org/2000/svg" xmlns:xlink="http://www.w3.org/1999/xlink" xmlns:sketch="http://www.bohemiancoding.com/sketch/ns">
    <!-- Generator: Sketch 3.0.4 (8054) - http://www.bohemiancoding.com/sketch -->
    <title>Slice 2</title>
    <desc>Created with Sketch.</desc>
    <defs></defs>
    <g id="Page-1" stroke="none" stroke-width="1" fill="none" fill-rule="evenodd" sketch:type="MSPage">
        <g id="Group" sketch:type="MSLayerGroup" transform="translate(786.400000, 1130.000000) scale(1, -1) translate(-786.400000, -1130.000000) translate(0.900000, 1.000000)" fill="#000000">
            <path d="M1374,2257 C1360.5,2255.8 1351.3,2253.1 1295.5,2234.5 C1266.9,2224.9 1238.3,2215.7 1232,2214.1 C1192.3,2203.9 1129.4,2194.5 942.1,2171 C911,2167.1 851.9,2159.5 810.6,2154 C536.6,2117.7 435.1,2105.8 330.6,2097.3 C314.5,2096 298.1,2095.5 269.1,2095.5 C232.9,2095.6 228.4,2095.7 215.1,2097.8 C181.6,2103.1 133.6,2115.5 115.1,2123.7 C100,2130.4 70.4,2141.9 60.1,2145.1 C50,2148.2 41.1,2148.2 35.1,2145.1 C18.6,2136.5 5.1,2118.7 1.4,2100.4 C-3.4,2076.6 10.9,2048.2 45.6,2013.4 C67,1991.9 83.1,1979.5 115.2,1959.7 C136.7,1946.5 176,1924.1 178.9,1923.3 C182.5,1922.4 220.9,1928.4 304.2,1942.9 C345.1,1950 381.3,1956.2 384.6,1956.7 C404.1,1959.4 419.8,1950.3 437.8,1926 C455.9,1901.4 476.2,1866 484.6,1844.2 C497.3,1811.1 501.8,1767 500.8,1684 C500.4,1649 500.1,1643.1 498.2,1632.6 C497,1626 495.9,1620.5 495.8,1620.3 C495.3,1619.9 473.3,1615.4 457.6,1612.6 C384.6,1599.5 262,1586 217,1586 C200.1,1586 197.2,1586.6 144.1,1599.5 C87.9,1613.2 83.5,1613.8 68.8,1610.1 C38,1602.2 13.1,1581.4 11.4,1562 C10.9,1556.9 11.2,1555.3 13.9,1549.6 C18.1,1540.6 29.7,1523.9 50.7,1496.5 C60.4,1483.9 70.8,1469.8 73.8,1465.2 C96.2,1431.2 111.3,1367.2 117.6,1280 C119.7,1249.9 120.1,1231.7 121.6,1076.5 L123,935.5 L107.9,582.5 C91.3,194.2 90.7,173.4 94.8,154.5 C99.2,134.9 109.8,106.2 118.5,90.6 C131.1,68.1 148.5,53.6 167.7,49.5 C177.9,47.3 195.1,47.6 204.5,50 C226.2,55.5 237.2,68.1 253.1,105.5 C267.3,138.9 276,148 301.6,156.3 C322.7,163.2 333.3,164.6 470.6,179.4 L586.6,191.9 L771.6,204.1 L956.6,216.2 L1108.1,215.7 C1204.2,215.3 1263.9,214.7 1271.4,214 C1294.8,211.9 1306,208.6 1313.9,201.5 C1323.2,193.1 1325.6,184 1329.1,143.1 C1330.3,130.2 1332.1,113.5 1333.2,106.1 C1341.5,49.4 1357.9,17 1384.2,5.1 C1392.7,1.3 1399.3,-1.59161573e-12 1410.5,-1.59161573e-12 C1458.9,-1.59161573e-12 1484.8,42.3 1493.1,134.5 C1495.2,158.1 1496.4,201.1 1502.7,477 C1506.2,634 1511.9,855 1515.1,968 L1521.1,1173.5 L1531.1,1317.5 C1544.1,1505.6 1543.4,1499.8 1556.6,1540 C1567.3,1572.7 1571.1,1586.9 1571.1,1594 C1571.1,1608.6 1563.9,1625.2 1548.7,1645.5 C1540.8,1656.1 1516.3,1680.4 1502.6,1691.4 C1467.2,1719.6 1427.3,1740.6 1401.1,1745 C1387.6,1747.3 1372.2,1744.3 1346.1,1734.4 C1316.3,1723 1296.1,1716.7 1275.9,1712.5 C1267.9,1710.9 1223.7,1705.6 1150.2,1697.5 C1087.8,1690.6 1035.9,1685 1034.8,1685 C1032.9,1685 1032.8,1685.5 1033.4,1707.8 C1034.2,1740.7 1038.2,1780.2 1051.6,1888 C1055.7,1920.7 1059.3,1950.9 1059.7,1955 C1061.7,1978.4 1051.6,1997.6 1019.8,2030.8 C1014.9,2035.9 1011.1,2040.4 1011.4,2040.7 C1012.7,2041.9 1117.2,2054 1166.1,2058.5 C1229,2064.2 1235.6,2064.5 1373.3,2066.6 C1427,2067.4 1475.8,2068.5 1481.8,2069 C1531,2073.6 1555.1,2088.9 1561.6,2119.5 C1563.3,2127.8 1563.5,2142.3 1562,2150.6 C1556.7,2179.6 1530.5,2207.3 1488,2228.5 C1466.6,2239.3 1437.9,2249.3 1415,2253.9 C1406.2,2255.7 1386.5,2258.2 1383.7,2257.9 C1383.1,2257.8 1378.7,2257.4 1374,2257 L1374,2257 Z M828.4,2017.5 C836.7,2015.3 841.7,2012.5 848.3,2006.2 C868.3,1987.2 878.5,1951.7 883.2,1885.5 C883.8,1877.3 884.5,1826.4 884.8,1772.5 C885.3,1685.7 885.2,1674.1 883.8,1670.8 C881.4,1665 878.5,1663.8 865.8,1663 C859.6,1662.6 848.3,1661.3 840.6,1660.1 C827.7,1658.1 652,1638.8 651.5,1639.3 C651.4,1639.4 653.5,1666.3 656.2,1699 C669,1857.6 669.4,1868.1 662.5,1889 C656.6,1906.9 649.1,1915.3 610,1948.1 C572.7,1979.4 564.9,1986.1 565.5,1986.7 C565.7,1987 612.2,1993.2 668.8,2000.6 C725.3,2008 775.9,2014.7 781.1,2015.5 C802.8,2018.8 820.5,2019.6 828.4,2017.5 L828.4,2017.5 Z M1324.6,1579.5 C1344.9,1575.9 1354.7,1566.6 1360,1546 C1364.7,1527.6 1365,1504.8 1362.6,1354 C1360.7,1226.7 1360.2,1203.6 1359.5,1196.4 L1358.9,1190.2 L1347.3,1194.1 C1325.4,1201.4 1318.5,1202.5 1293.1,1202.4 C1275,1202.4 1261,1201.5 1221.6,1198 C1176.1,1193.9 1170.3,1193.6 1140.6,1193.6 C1106.7,1193.5 1097.7,1194.4 1082.1,1199.2 C1046.1,1210.3 1030.3,1238.2 1023.2,1303.2 C1020.1,1330.8 1019.2,1349.5 1018,1406.7 C1016.6,1475.9 1017.2,1532.2 1019.5,1540.5 C1021.7,1548.3 1025.2,1558 1025.9,1558 C1026.1,1558 1083.1,1562.9 1152.5,1569 C1221.8,1575 1280.6,1580.1 1283.1,1580.3 C1295.7,1581.3 1316.5,1580.9 1324.6,1579.5 L1324.6,1579.5 Z M877.5,1530.8 C877.8,1524.6 879.7,1462.8 881.6,1393.5 C885.4,1257.4 886.1,1240.8 889.2,1219.6 C904.3,1115.9 970.6,1056.9 1089.6,1041.1 C1133.9,1035.3 1167.4,1035.6 1254.1,1042.8 C1322,1048.5 1350,1050.5 1350.8,1049.7 C1352,1048.5 1354.2,979.6 1354.2,941.5 C1354.3,902.6 1353.5,883.4 1350.6,854.5 C1348.6,835.5 1343.9,799.2 1343.2,798.2 C1342.9,797.8 1274,793.2 1190.1,788.1 L1037.6,778.9 L866.1,762.9 C702.7,747.8 686.8,746.1 531.1,728.1 C302.7,701.6 306.9,702 281.5,702 L265.4,702 L264.7,709.7 C264,718.8 264.1,796.9 265,834.1 L265.6,860.7 L285.6,876.5 C367.6,941.2 416.4,990.4 463.4,1055.7 C500.6,1107.4 536.9,1176.5 564.1,1247.5 C572.9,1270.2 588.9,1318.5 596.6,1345.3 C609,1388.4 623,1448.5 631.7,1495.5 L635.4,1515.5 L675.5,1520.8 C747.7,1530.4 792.1,1535.9 817.5,1538.5 C850.5,1541.8 848.7,1541.6 863.8,1541.8 L876.9,1542 L877.5,1530.8 L877.5,1530.8 Z M482.6,1491.3 C482.3,1489.7 481.2,1480.4 480.1,1470.5 C471.4,1394.1 458.9,1331.2 440.5,1270.3 C411.3,1173.7 367.3,1085.7 310,1009.4 C301.3,997.9 280.5,972.2 272.9,963.6 L268.6,958.8 L268.9,1107.1 C269.2,1296.6 268,1398.9 265.1,1425 C264,1435.2 262.5,1447.2 261.8,1451.7 L260.5,1459.9 L269,1461.4 C298.6,1466.8 473.2,1493.6 480.3,1493.9 C482.8,1494 483,1493.7 482.6,1491.3 L482.6,1491.3 Z M1335.2,651.1 C1338.6,650.2 1340.1,649.3 1340.6,647.7 C1342,643.2 1342.3,597.4 1341.2,563 C1340.6,543.5 1339,498.7 1337.6,463.5 C1335.3,404.9 1334.9,398.2 1332.4,383.8 L1329.6,368 L1326.6,368 C1325,368 1315.5,367.6 1305.6,367 C1295.7,366.5 1267.8,365.3 1243.6,364.5 C1219.4,363.6 1192.2,362.5 1183.1,362 C1174,361.6 1085.4,356.8 986.1,351.5 L805.6,341.9 L530.7,314 C379.4,298.6 255.5,286.3 255.2,286.5 C254.5,287.2 257,450.3 258.1,484 C259.2,514.8 260.9,544.5 261.8,550.3 C262.2,553.1 263,554.4 264.7,555 C268.7,556.5 307.8,562.8 327.1,565 C337.3,566.2 401.4,575 469.6,584.5 C588.8,601.3 598.7,602.5 727.1,616.5 C859.2,630.9 861.9,631.2 984.6,640.5 L1108.6,649.9 L1182.1,651.4 C1266.2,653 1328.2,652.9 1335.2,651.1 L1335.2,651.1 Z" id="Shape" sketch:type="MSShapeGroup"></path>
        </g>
    </g>
</svg>