<?xml version="1.0" encoding="UTF-8" standalone="no"?>
<svg width="1379px" height="2423px" viewBox="0 0 1379 2423" version="1.1" xmlns="http://www.w3.org/2000/svg" xmlns:xlink="http://www.w3.org/1999/xlink" xmlns:sketch="http://www.bohemiancoding.com/sketch/ns">
    <!-- Generator: Sketch 3.0.4 (8054) - http://www.bohemiancoding.com/sketch -->
    <title>Slice 2</title>
    <desc>Created with Sketch.</desc>
    <defs></defs>
    <g id="Page-1" stroke="none" stroke-width="1" fill="none" fill-rule="evenodd" sketch:type="MSPage">
        <g id="Group" sketch:type="MSLayerGroup" transform="translate(689.100000, 1211.900000) scale(1, -1) translate(-689.100000, -1211.900000) translate(0.100000, 0.900000)" fill="#000000">
            <path d="M317.4,2420.5 C299.3,2416.3 285.6,2406.2 278.4,2391.6 C273.9,2382.5 272.9,2375.1 275.3,2368 C278.6,2357.9 287.1,2345.4 321.2,2301.1 C345.6,2269.5 347.3,2267 352.2,2257.4 C363.3,2235.3 370.2,2204.9 387.4,2101.9 C392.7,2070.3 399.4,2030.7 402.4,2013.9 C409.9,1971.8 412.6,1953.6 421.9,1883.4 C436.2,1775.1 434,1788.6 453.8,1686.9 C463.9,1635.7 467,1617 467.6,1604.8 L468.2,1594.2 L464.5,1590.2 C458.7,1583.8 450.6,1580.7 402.4,1566.8 C376.2,1559.2 341.6,1550.7 323.9,1547.5 C295.2,1542.3 285.2,1541.4 254.4,1541.4 C219.9,1541.4 224.4,1540.7 184.9,1553 C174.2,1556.3 168.9,1556.6 163.3,1554.3 C156.9,1551.6 153,1547.9 149.9,1541.5 C145.9,1533.5 145.6,1524.4 148.8,1515.7 C154.1,1501.9 169.1,1481.8 190.9,1459.5 C222.9,1426.7 253.1,1405 276.8,1397.9 C282.9,1396 285.7,1395.7 293.8,1396.2 C310.5,1397.1 342.5,1407.6 425.4,1439.4 C471.3,1457 485.1,1461.9 489,1461.9 C493.3,1461.9 496.4,1458.6 498.2,1452.2 C499.1,1449 502.8,1429.8 506.4,1409.4 C540.1,1219.4 554.8,1156.9 593.4,1039.9 C617.9,965.6 629.5,927.4 630.6,916.9 C631,912.4 630.7,910.2 628.6,905.2 C618.9,881.4 582.4,828.7 531.2,764.7 C392.1,590.6 211.8,415.7 60.9,308.4 C20.7,279.8 -0.1,257.6 -0.1,243.4 C-0.1,238.5 1.6,236.6 7.4,235 C14.9,232.9 20,233.7 36.6,239.3 C68.5,250.2 98.9,262.9 129.4,278.1 C139.3,283 154.6,290.2 163.4,294.1 C205.5,312.6 241.1,332.4 267.9,352.2 C273.1,356.1 317.9,392.6 367.4,433.4 L457.4,507.5 L489.9,539.4 C554.8,603.1 578.1,627.1 625.4,678.8 C680.2,738.8 696.4,756.3 697.5,756.6 C698.7,757 701,752.3 731.5,685.2 C758.6,625.4 752.7,637.3 812.6,523.4 C868,418.2 869.5,415.5 882.7,393.9 C924.5,325.8 985.4,245.2 1044.3,179.9 C1060.6,161.9 1102.5,119.7 1118.1,105.6 C1182.1,48 1238.7,13.7 1288,2.8 C1301.5,-0.2 1326.1,-0.9 1334.9,1.4 C1354.6,6.5 1369.7,22.2 1375.4,43.4 C1376.3,46.7 1377.2,54.6 1377.6,60.9 C1378.6,81 1375.6,91.5 1352.9,148.4 C1338.2,185.2 1337.5,187 1335.5,201.9 C1331.7,228.9 1331,291.3 1333.9,341.9 C1335.8,374.4 1350.9,597.3 1352,609.4 C1353.6,625.7 1352.7,644.5 1350,653.1 C1346.4,664.5 1341.1,668.9 1331.1,668.9 C1319.8,668.9 1311.1,662.3 1304.3,648.4 C1302.5,644.6 1285.9,595 1267.5,538.2 C1249.1,481.5 1232.4,430.9 1230.3,425.7 C1222.5,406.1 1207.1,377.8 1195.4,361.4 C1182.5,343.4 1173.3,335.2 1167.4,336.5 C1154.5,339.2 1131.6,359.2 1102.2,393.6 C1044.1,461.4 958.7,585 911.6,669.4 C885.3,716.5 853.2,787.4 830.1,849.5 C822.7,869.1 814.3,894.2 813.4,899.1 C812.1,906 815.9,917.9 821.4,923.9 C825.8,928.7 950.1,1102.2 956.3,1112.3 C959.8,1117.8 966.6,1128.5 971.4,1135.9 C976.2,1143.3 983.1,1154.1 986.7,1159.9 C998,1178.3 1019.2,1201.2 1057.9,1236.9 C1102.7,1278.3 1117.4,1295.9 1125,1317.5 C1127.9,1326 1128.7,1340.1 1126.5,1346.7 C1119.4,1368 1085.7,1396.8 1030.9,1428.4 C994.8,1449.2 931.8,1479 918.8,1481.4 C910,1483 888.3,1473.9 877.9,1464.2 C864.1,1451.5 863.7,1448.3 871.2,1407.4 C874.3,1390.9 877.3,1373.6 878,1369 C883.4,1331.2 860.9,1270.1 810.8,1186.7 C795.7,1161.7 785.7,1146 762.1,1110.6 L743.6,1082.8 L739.7,1092.1 C729.7,1115.9 723.1,1136.7 712.4,1178.4 C698.1,1233.8 645.1,1458.7 643.8,1468.9 C641.2,1491.2 642.5,1504.3 648.1,1509.9 C655.8,1517.6 700.9,1530 806.9,1553.4 C936.1,1582 960.7,1586.6 1027.4,1594.9 C1141.7,1609.1 1176.8,1618.4 1197.3,1639.8 C1209.8,1653 1214.1,1673.1 1208,1690.4 C1201,1710.1 1177.6,1732 1146.7,1747.5 C1111.6,1765.1 1075.6,1774 1039.4,1774.1 C1021.6,1774.1 1013.7,1773.2 1002.9,1769.7 C993.2,1766.6 942,1747.4 863.4,1717.4 C719.6,1662.6 658,1640.2 636.1,1634.8 C627.9,1632.8 627.1,1632.8 623.6,1634.3 C617,1637 613.2,1648.5 608.5,1680.4 C605.2,1702.4 591.7,1798.9 588.4,1823.4 C568.4,1974.1 561.7,2101 567.7,2211.4 C570.6,2263.8 570.7,2275.6 568.5,2283.4 C563.3,2301.2 552.4,2311.9 521.9,2329.1 C492.9,2345.5 394.6,2399.1 378.4,2407.4 C355.5,2419 348.8,2421.2 334.4,2421.6 C327.5,2421.7 321.1,2421.3 317.4,2420.5 L317.4,2420.5 Z" id="Shape" sketch:type="MSShapeGroup"></path>
            <path d="M723.9,2246.7 C723.9,2238.9 724.4,2235.4 725.8,2232.4 C728.4,2226.6 737.8,2218.4 752.9,2208.8 C771.6,2196.9 780.1,2190.4 790.3,2180.3 C827.3,2143.4 864.9,2085.2 936.7,1953.8 C969.6,1893.4 976.7,1882.7 995.1,1865.4 C1014,1847.6 1031.6,1842 1050.4,1847.9 C1077.3,1856.4 1099.4,1877.1 1110.5,1904.3 C1116.3,1918.5 1118.9,1932 1119.6,1951 C1121.5,2006 1103.4,2055.2 1062.9,2104.8 C1019.7,2157.6 944.3,2209.3 877.4,2231.9 C819.5,2251.5 789.4,2256.8 737.7,2256.9 L723.9,2256.9 L723.9,2246.7 L723.9,2246.7 Z" id="Shape" sketch:type="MSShapeGroup"></path>
        </g>
    </g>
</svg>