<?xml version="1.0" encoding="UTF-8" standalone="no"?>
<svg width="2258px" height="2372px" viewBox="0 0 2258 2372" version="1.1" xmlns="http://www.w3.org/2000/svg" xmlns:xlink="http://www.w3.org/1999/xlink" xmlns:sketch="http://www.bohemiancoding.com/sketch/ns">
    <!-- Generator: Sketch 3.0.4 (8054) - http://www.bohemiancoding.com/sketch -->
    <title>Slice 2</title>
    <desc>Created with Sketch.</desc>
    <defs></defs>
    <g id="Page-1" stroke="none" stroke-width="1" fill="none" fill-rule="evenodd" sketch:type="MSPage">
        <g id="Group" sketch:type="MSLayerGroup" transform="translate(1128.700000, 1185.600000) scale(1, -1) translate(-1128.700000, -1185.600000) translate(0.100000, 0.100000)" fill="#000000">
            <path d="M1490.4,2369.5 C1476.4,2365.3 1457.5,2358.8 1429.8,2348.5 C1400.3,2337.5 1381.2,2331.5 1355.9,2325.1 C1334.5,2319.7 1303.7,2313.3 1286.9,2310.6 C1248.6,2304.7 856.1,2248 847.2,2247.1 C841.8,2246.5 824.6,2245.8 808.9,2245.5 C760.2,2244.4 718,2247.8 693.9,2254.8 C685.6,2257.2 679.7,2259.4 615.9,2283.4 C561.5,2303.9 537,2310.9 523.9,2309.7 C499.1,2307.5 474.3,2292 468.4,2275.2 C466.3,2269 466.4,2256.5 468.7,2252.4 C469.6,2250.7 474.5,2243.3 479.5,2235.9 C496.9,2210.4 506.3,2193.2 515.7,2170.1 C525.3,2146.4 533.8,2122.6 535.3,2115.6 C540.3,2091.6 550.6,1981.6 555.8,1896.1 C557.4,1871.4 562.4,1581.2 561.4,1580.2 C559.1,1578.1 432.2,1563.2 372.9,1558.1 C325,1554 270.4,1556.7 250.6,1564.1 C240.8,1567.8 239.7,1569.2 226.1,1597.1 C207.3,1635.7 207.1,1635.9 189,1652 C166.5,1672 155.4,1680.6 146.5,1685.1 C139.8,1688.6 137.8,1689.1 132.2,1689.1 C128.6,1689.1 123.9,1688.6 121.9,1688 L118.1,1686.8 L118.2,1640.2 C118.4,1601.7 118.1,1591 116.6,1578.6 C111.9,1537.9 102.9,1502.3 85.5,1456.4 C82,1447.2 62.6,1399.3 42.4,1350.1 L5.8,1260.6 L2.8,1236.6 C-0.4,1209.8 -0.8,1196.1 1.4,1182.1 C8.3,1137 31.7,1101.3 60.8,1091.4 C69,1088.6 85.8,1088.2 95.3,1090.7 C129.3,1099.4 153.2,1133.2 182,1213.7 C197,1255.8 211.1,1302.6 223.9,1353.1 C236.8,1403.9 242.5,1425 243.7,1426.3 C244.1,1426.7 259.7,1426.3 278.4,1425.6 L312.4,1424.2 L547.4,1455.7 C767.4,1485.1 1115.9,1529.6 1161.9,1534 C1173.2,1535.1 1201.3,1537.4 1224.4,1539.1 C1279,1543.1 1279.8,1543.2 1413.4,1556.5 L1527.4,1568 L1662.9,1571.6 C1737.4,1573.6 1803.1,1575.2 1808.9,1575.2 C1814.7,1575.2 1829.5,1574 1841.9,1572.6 C1855.2,1571.1 1870.1,1570.1 1878.4,1570.1 C1914.4,1570.1 1922.2,1563.6 1915.9,1539 C1909,1511.9 1887.2,1465.5 1861.1,1422.1 C1857,1415.2 1845.6,1397.5 1835.9,1382.6 C1807.4,1339.1 1803.1,1330.9 1794.6,1304.5 C1787.1,1281 1787.1,1280.9 1790.2,1276.2 C1791.7,1273.9 1793.5,1272.1 1794.2,1272.1 C1795.6,1272.1 1825.6,1280.1 1832.9,1282.4 C1860.2,1291 1894.5,1307.4 1984.9,1354.9 C2077.9,1403.7 2106.7,1417.8 2128.8,1425.1 C2140.5,1429 2143.4,1429.6 2177.3,1435.1 C2207.2,1440 2221.9,1444.5 2233.9,1452.2 C2245.5,1459.7 2252.9,1470 2256,1483.1 C2258,1491.8 2257.5,1508.3 2254.9,1516.6 C2249,1535.2 2234.9,1553.6 2216.4,1566.6 C2212.6,1569.3 2171.8,1599 2125.8,1632.7 C2069.7,1673.8 2039.5,1695.3 2034,1698.1 C2008.9,1710.6 1981.9,1719 1960.9,1720.7 C1949.5,1721.5 1938.7,1719.9 1884.5,1709 L1840.4,1700.2 L1733.7,1692 C1675,1687.4 1626.7,1683.9 1626.5,1684.2 C1626.3,1684.4 1626.7,1700.6 1627.5,1720.1 C1628.7,1750.8 1630.7,1775.7 1642.4,1902 C1652.9,2015.3 1656.5,2051.1 1658.5,2060.5 C1662.2,2077.9 1672.1,2117.4 1686.9,2173.1 C1694,2199.8 1700.1,2223.2 1700.4,2225.3 C1703.7,2243.3 1670.2,2278 1613.2,2315.8 C1581.3,2336.9 1537.8,2360.6 1517.6,2367.9 C1507.6,2371.5 1499,2372 1490.4,2369.5 L1490.4,2369.5 Z M1459.7,2216.5 C1471.2,2213.9 1481.2,2207.8 1486,2200.3 L1488.9,2195.7 L1488.9,2132.7 C1488.9,2070.5 1488.5,2061.4 1485.4,2044.3 L1483.8,2035.6 L1356.6,2015.2 C1286.6,2004.1 1224.5,1994.3 1218.4,1993.5 C1198.3,1990.9 1169.6,1988.2 1155.4,1987.5 C1138.7,1986.7 1136.7,1987 1075.9,2000.1 C1024,2011.2 1011.8,2013.3 999.9,2013.4 C988.3,2013.5 980.3,2011.5 969.1,2005.9 C951.8,1997.3 940.9,1981.1 940.9,1964.2 C940.9,1956.1 948.1,1945.7 976.9,1912.6 C997,1889.4 1000.2,1885.5 1002.2,1881.5 C1009.5,1867.2 1025.2,1770.5 1031.9,1698.6 C1034.3,1673.1 1035.5,1641.2 1034.1,1639.3 C1032.5,1637 1001.3,1633.1 873.4,1619.1 C788,1609.8 737,1604 725.8,1602.2 C722.3,1601.6 719.1,1601.1 718.8,1601.1 C716.8,1601.1 712.4,1753.5 710.9,1875.1 C709.3,2006.5 709.2,2010.5 706.1,2057.6 C704.4,2082.4 702.8,2107.6 702.4,2113.7 L701.8,2124.8 L716.1,2125.9 C724,2126.6 746.4,2127.8 765.9,2128.6 C799.2,2130.1 803.1,2130.4 828.9,2134.6 C844,2137.1 860.9,2139.6 866.4,2140.1 C871.9,2140.7 966,2153.5 1075.4,2168.6 C1184.9,2183.7 1294.9,2198.7 1319.9,2202 C1344.9,2205.4 1381.4,2210.3 1400.9,2213 C1447.2,2219.5 1446.5,2219.4 1459.7,2216.5 L1459.7,2216.5 Z M1483.9,1928.9 C1483.9,1928.2 1483.2,1920.4 1482.4,1911.6 C1481.6,1902.8 1478.6,1854.2 1475.8,1803.6 L1470.6,1711.6 L1466.5,1693.6 L1462.4,1675.6 L1327.9,1663.9 C1253.9,1657.4 1191.8,1652.3 1189.9,1652.4 C1186.7,1652.6 1186.4,1652.9 1185.7,1656.6 C1185.3,1658.8 1184.5,1681.8 1184,1707.6 C1182.5,1775.7 1179.3,1813 1169.8,1868.9 C1169.2,1872.9 1168.9,1876.4 1169.2,1876.8 C1169.8,1877.3 1477.7,1929.7 1482.2,1930 C1483.1,1930 1483.9,1929.5 1483.9,1928.9 L1483.9,1928.9 Z" id="Shape" sketch:type="MSShapeGroup"></path>
            <path d="M1389.4,1426.1 C1247.3,1396.6 1215.7,1390.7 1121.4,1376.7 C979.3,1355.5 887.2,1345.4 845.4,1346.3 C827,1346.8 824.5,1347.1 813.6,1349.9 C807.2,1351.7 796.1,1355.4 789.1,1358.2 C714.7,1388.1 662.4,1407.5 647.4,1410.6 C627.1,1414.8 610.1,1410.1 596.3,1396.6 C584.7,1385.2 581.5,1374.3 586.3,1361.6 C589.8,1352.4 598.3,1336.5 612,1313.4 C618.2,1303.1 624.9,1291.2 627,1287.1 C635.7,1270 642.3,1236.3 646.1,1190.6 C647.8,1169.5 647.8,1051.9 646.1,1014.1 C645.4,999 639,867.8 631.9,722.6 L618.9,458.6 L609.8,338.1 C601.6,228.9 600.8,216.1 601.3,201.1 C603.1,154.9 610.9,113.3 623.8,80.8 C636.4,49.2 655.5,28.1 676.4,22.6 C687.9,19.7 704.2,21.1 713.7,26 C738.2,38.5 755.7,71.7 759.9,113.6 C761.5,130.1 773.7,388.2 774.4,421.6 C775.5,475.8 778.3,549.9 779.2,550.8 C779.3,550.8 794.9,553.9 813.8,557.5 C840.8,562.8 874.5,567.9 972.3,581.6 L1096.4,599.1 L1206.9,608.7 C1267.7,614 1325.7,618.6 1335.8,618.9 C1351.6,619.5 1394.7,618.7 1395.4,617.9 C1395.5,617.7 1396.1,551 1396.8,469.6 L1398.1,321.6 L1395.9,311.6 C1392,293.6 1385.4,275.4 1381.7,272.4 C1379.3,270.5 1364.4,266.3 1353.8,264.5 C1345.7,263.2 1334.3,262.8 1302.9,262.4 L1262.4,261.9 L1217.9,267.5 C1166,274 1150.1,275.5 1144.1,274.7 C1139.9,274.1 1115.9,262.5 1115.9,261.1 C1115.9,259.9 1136.2,236.7 1144.8,228 C1154.2,218.6 1160.1,214.4 1185.4,199.1 C1253.1,158.1 1310.8,117.6 1335.7,93.7 C1340.3,89.2 1349.6,78.9 1356.3,70.6 C1396.5,20.8 1411.2,7.8 1433.8,2 C1442.5,-0.2 1459.6,-0.7 1467.2,1 C1485.2,5.2 1504.8,24 1517.5,49.4 C1540.6,95.1 1555.8,170.4 1560.9,264.1 C1562.6,295 1562,340.5 1555.7,677.6 C1553.4,802.5 1554.3,940.9 1557.9,1021.6 C1562.4,1121 1566.7,1163.2 1578.4,1221.1 C1589.5,1276.6 1591.2,1287.4 1590.7,1301.4 C1590.4,1311.4 1590,1313.3 1587.2,1319.3 C1579.9,1334.7 1559.3,1351.6 1506.9,1384.9 C1485.7,1398.3 1427.9,1434.2 1427.6,1434 C1427.5,1434 1410.3,1430.4 1389.4,1426.1 L1389.4,1426.1 Z M1366.7,1283.7 C1381,1280.1 1388.7,1273.5 1391.3,1262.8 C1393.2,1254.8 1397,1218.5 1398,1198.1 C1398.9,1180.4 1398.9,1167.2 1398,1142.3 C1397.4,1124.3 1396.6,1106.9 1396.2,1103.5 L1395.7,1097.4 L1323,1087.1 C1283.1,1081.5 1155.7,1063.5 1040,1047.2 L829.6,1017.5 L817.1,1018.8 C810.2,1019.5 804.4,1020.3 804.2,1020.5 C804,1020.7 804.3,1066.9 805,1123.2 C805.9,1199.9 806.5,1225.9 807.4,1226.9 C808.1,1227.7 813.2,1228.5 821.5,1229.1 C839.3,1230.4 837.5,1230.1 902.4,1240.1 C963.6,1249.5 984.1,1252.3 1002.9,1254.1 C1009.2,1254.7 1073.4,1261.4 1145.4,1269.1 C1217.5,1276.7 1282,1283.5 1288.9,1284.1 C1295.8,1284.6 1303.2,1285.3 1305.4,1285.5 C1307.6,1285.7 1320.9,1285.7 1334.9,1285.6 C1354.4,1285.4 1361.9,1284.9 1366.7,1283.7 L1366.7,1283.7 Z M1395.9,860.2 L1395.9,746.3 L1388.7,744.7 C1384.7,743.8 1329,737.9 1264.9,731.5 C1152.1,720.4 1143.5,719.4 994.7,700 L840.9,680.1 L812.8,680.1 L784.6,680.1 L785.2,688.4 C785.5,692.9 787.9,740.5 790.5,794.1 C793.1,847.7 795.3,891.7 795.4,891.9 C796,892.8 815.3,898.8 828.5,902.1 C875.1,914.1 912.3,919.9 1058.4,938.1 C1158.2,950.5 1197.8,955 1284.4,963.5 C1342.2,969.2 1390.9,973.9 1392.7,974 L1395.9,974.1 L1395.9,860.2 L1395.9,860.2 Z" id="Shape" sketch:type="MSShapeGroup"></path>
        </g>
    </g>
</svg>