<?xml version="1.0" encoding="UTF-8" standalone="no"?>
<svg width="2303px" height="2314px" viewBox="0 0 2303 2314" version="1.1" xmlns="http://www.w3.org/2000/svg" xmlns:xlink="http://www.w3.org/1999/xlink" xmlns:sketch="http://www.bohemiancoding.com/sketch/ns">
    <!-- Generator: Sketch 3.0.4 (8054) - http://www.bohemiancoding.com/sketch -->
    <title>Slice 2</title>
    <desc>Created with Sketch.</desc>
    <defs></defs>
    <g id="Page-1" stroke="none" stroke-width="1" fill="none" fill-rule="evenodd" sketch:type="MSPage">
        <g id="Group" sketch:type="MSLayerGroup" transform="translate(1151.650000, 1156.700000) scale(1, -1) translate(-1151.650000, -1156.700000) translate(0.300000, 0.300000)" fill="#000000">
            <path d="M1011.2,2312.1 C994.9,2309.8 978.2,2302.8 963.6,2292 C950.7,2282.5 930.8,2265.7 930.7,2264.4 C930.7,2263.7 934.8,2254.9 939.8,2244.8 L949,2226.5 L962.5,2217.6 C1031,2172.3 1049,2152.2 1060.7,2107.7 C1071.6,2066.5 1084.2,1982 1086.3,1936.1 C1087,1922 1086.2,1905.6 1084.9,1903.4 C1084.5,1902.8 1014.9,1891.9 930.2,1879.2 C845.5,1866.4 677.4,1840.7 556.7,1822.1 C436,1803.4 331.9,1787.7 325.4,1787 C317.6,1786.3 299.9,1786.1 273.9,1786.4 C241.1,1786.8 231.6,1787.3 219,1789 C189.7,1793 164.5,1799.3 141.4,1808.3 C123.7,1815.2 110.8,1822 89.5,1835.8 C67.7,1849.8 57,1855.4 46.2,1858.1 C38,1860.2 15.2,1862.9 14.2,1861.9 C13.9,1861.6 10.7,1851.5 7.1,1839.5 C1.7,1821.1 0.6,1816 0.1,1807.6 C-2.3,1764.9 28.4,1724.6 121.2,1648.5 C158.8,1617.7 192.3,1596.5 216.2,1588.5 C222.3,1586.4 226.8,1585.7 235.4,1585.3 C245.6,1584.9 247.5,1585.1 255.3,1587.5 C260,1589 274.8,1595 288.1,1600.8 C339.5,1623.3 404.2,1649 434.5,1659 C470.3,1670.9 468.5,1670.5 636.2,1701.6 C721.3,1717.5 782.3,1728.1 865.5,1741.6 C927.8,1751.8 979.5,1760.1 980.3,1760.1 C982.4,1760.1 1003.9,1741.7 1015.6,1730 C1049.7,1695.7 1066.7,1659.6 1068.4,1618.1 C1069.4,1592.7 1063.5,1563.5 1047.7,1516.1 C1019,1430.2 957.9,1298.3 904.2,1206.6 C890.3,1182.9 887.9,1179.3 805.8,1059.8 L727.9,946.4 L658.7,858.5 L589.5,770.6 L516.3,694.8 L443.2,618.9 L358.4,547.8 C265.7,469.9 277.1,478.6 205.5,431.3 C165.7,405.1 144.3,388 140.2,379.5 C138,374.7 139.5,371.1 145.3,367.3 C154.1,361.4 182.8,354.1 196.9,354.1 C204.5,354.1 224.5,358 248.2,364.1 C346.3,389.3 440.3,436.2 507.2,493.3 C513.3,498.5 526.3,508.7 536.2,516 C566.3,538.4 573.1,544.5 632.7,603 C757.7,725.7 749.4,717.2 795.1,772.1 C807.7,787.2 824.2,806.6 831.8,815.1 C863.2,850.4 880.1,872.7 915.7,925.6 C930.2,947.1 963,995.7 988.7,1033.6 L1035.3,1102.6 L1115.2,1242.2 L1195,1381.8 L1211.6,1374.4 C1286.8,1340.7 1354,1322.7 1425.1,1317.1 C1443.8,1315.6 1480.1,1315.9 1503.7,1317.6 C1525.3,1319.2 1628.2,1328.5 1642.7,1330.1 C1664.3,1332.6 1674.4,1330.6 1682.8,1322.2 C1690.2,1314.9 1691,1309.6 1687.7,1291.5 C1686.6,1285.5 1685,1272.7 1684.1,1263.1 C1683.3,1253.5 1682,1241.6 1681.2,1236.6 C1680.4,1231.7 1666.4,1179.9 1650.2,1121.6 L1620.6,1015.6 L1570.1,858.6 L1519.5,701.6 L1477,606.6 C1432.3,506.7 1420.4,481.3 1404,451.1 C1361.6,373 1320.1,317.4 1283.8,290.5 C1253.7,268.1 1230.5,264.8 1193.1,277.6 C1169.2,285.8 1133.4,302.4 1074.3,332.8 C1009.6,366.1 1003.9,369.3 980.7,384.7 C941.1,411.2 920.5,422.8 911.4,423.8 C906.2,424.4 899.9,421.6 896.8,417.3 C883.6,398.7 905.9,354.5 959.2,293.6 C969.1,282.3 997.1,251.8 1068.3,174.5 C1124.1,114 1117.5,123 1144.2,71.1 C1167.6,25.7 1169.3,22.7 1176.2,16.3 C1188.3,5 1202.1,0 1221.7,0 C1239.8,0 1254.2,3.8 1275.2,14 C1309.5,30.8 1349.8,64.8 1385.9,107.4 C1410,135.9 1459.1,199.3 1471.9,218.6 C1474.4,222.5 1499,266.6 1526.5,316.6 L1576.5,407.6 L1621.3,510.1 L1666,612.6 L1705.3,718.1 C1726.9,776.1 1748.1,832.2 1752.5,842.6 C1773.7,893.1 1773.2,891.9 1784.1,932.1 C1802.6,1000.6 1816.6,1047.9 1832.8,1096.3 C1847.9,1141.5 1863.5,1185 1866.9,1191.1 C1868.6,1194.1 1878,1208.8 1887.7,1223.6 C1915.1,1265.4 1926.8,1285.7 1931.2,1299 C1933.6,1306.4 1932.9,1318.3 1929.4,1326.8 C1921.9,1345.3 1906.5,1361 1829.6,1428.3 C1772.4,1478.4 1762,1486.3 1746.5,1491.9 C1740,1494.2 1737.7,1494.5 1725.7,1494.5 C1706.3,1494.6 1693.8,1491.4 1662.2,1478.6 C1604.9,1455.4 1577.6,1448.1 1532.2,1443.9 C1512.8,1442.1 1394,1442.1 1373.7,1443.9 C1333.9,1447.4 1306.5,1452.4 1278.8,1461.3 C1267.2,1465 1240.5,1474.9 1239.4,1476 C1239,1476.4 1245.8,1491.2 1254.5,1508.8 C1270.9,1541.9 1279,1560.8 1282.9,1575.2 C1285.9,1586.2 1286.1,1606.9 1283.3,1617.6 C1276.9,1642.1 1260.8,1667.5 1234.5,1694.7 C1214.8,1715.1 1193.2,1733.4 1151.5,1765.4 C1133.3,1779.3 1128.2,1783.8 1129.5,1784.3 C1130.4,1784.7 1149.4,1787.7 1171.7,1791.1 C1208.8,1796.6 1227.2,1798.6 1393.2,1814.6 L1574.2,1832 L1715.7,1839.2 C1849.2,1845.9 1858.9,1846.2 1887.7,1845.7 C1929.4,1844.8 1972.2,1843.4 2029.7,1841.1 C2119.2,1837.4 2109.2,1838.4 2163.5,1827.7 C2223.2,1815.9 2224.5,1815.7 2233.7,1816.4 C2254.2,1818 2278.6,1830.9 2290.1,1846.2 C2299.3,1858.5 2302.7,1869.2 2302.7,1886.3 C2302.7,1911.2 2293.1,1931.3 2271.3,1951.8 C2255.6,1966.7 2225.7,1984.5 2202,1993.1 C2179.8,2001.1 2089.9,2028.7 2062.7,2035.8 C2046.4,2040.1 2044.3,2040.4 2032.2,2040.5 C2016.4,2040.6 2015.7,2040.4 1965.7,2023.9 C1938.1,2014.8 1921.7,2010.1 1898.2,2004.5 C1881.2,2000.4 1865.2,1996.6 1862.7,1996.1 C1858.4,1995.2 1849.3,1994.3 1770.2,1986.6 C1750.4,1984.7 1674.8,1975.8 1602.2,1966.7 C1501.1,1954.1 1443.7,1947.5 1356.9,1938.5 C1294.6,1932.1 1243.5,1927 1243.3,1927.2 C1242.9,1927.7 1249,2007.9 1251.2,2029.6 C1253.6,2053.6 1257.4,2079 1260.8,2093.6 C1269.4,2131 1274.7,2159.4 1274.7,2168.8 C1274.7,2186.3 1266.7,2202.4 1249.3,2219.6 C1232.5,2236.3 1214.9,2247.9 1182.2,2264.1 C1150.5,2279.7 1122,2290.6 1084.7,2301.2 C1051,2310.8 1027,2314.4 1011.2,2312.1 L1011.2,2312.1 Z" id="Shape" sketch:type="MSShapeGroup"></path>
        </g>
    </g>
</svg>