<?xml version="1.0" encoding="UTF-8" standalone="no"?>
<svg width="1199px" height="2281px" viewBox="0 0 1199 2281" version="1.1" xmlns="http://www.w3.org/2000/svg" xmlns:xlink="http://www.w3.org/1999/xlink" xmlns:sketch="http://www.bohemiancoding.com/sketch/ns">
    <!-- Generator: Sketch 3.0.4 (8054) - http://www.bohemiancoding.com/sketch -->
    <title>Slice 2</title>
    <desc>Created with Sketch.</desc>
    <defs></defs>
    <g id="Page-1" stroke="none" stroke-width="1" fill="none" fill-rule="evenodd" sketch:type="MSPage">
        <g id="Group" sketch:type="MSLayerGroup" transform="translate(599.500000, 1140.900000) scale(1, -1) translate(-599.500000, -1140.900000) translate(0.000000, 0.900000)" fill="#000000">
            <path d="M594.6,2278.3 C561,2271.7 536.3,2251.3 535.2,2229.4 C534.8,2222.5 534.9,2222.3 539.7,2214.9 C546.1,2205.2 557.7,2191.3 579.8,2167 C589.5,2156.4 598.1,2146.8 598.7,2145.9 C601.4,2142 606.1,2128.5 609.4,2115.3 C613.4,2098.8 616.9,2078.9 621.2,2046.9 L624.4,2023.4 L624.7,1900 C625,1790.9 624.9,1776 623.5,1770.6 C619.8,1756.2 611.7,1752.2 574.5,1746.4 C555,1743.3 523.1,1737.4 427.5,1718.9 C302,1694.7 290,1692.6 276.5,1692.5 C260.9,1692.5 257,1693.5 194,1714.6 C139,1733.1 138.6,1733.2 128.5,1728.5 C121.3,1725.2 111.1,1715.4 107.2,1708.1 C102.4,1699 100.6,1691.7 100.7,1680.4 C100.7,1669.3 103.3,1659.4 109.2,1648.9 C126.7,1617.2 172,1582 235,1551 C244.7,1546.2 258.4,1539.9 265.6,1536.9 C277,1532.1 279.2,1531.5 285,1531.7 C305.3,1532.1 348.4,1543.9 465,1580.6 C511.8,1595.3 534.8,1601.9 541.6,1602.6 C560.1,1604.5 573.1,1583.3 574.7,1548.9 C576.2,1513.6 558.2,1437.9 519.3,1316.9 C481.7,1199.7 418.3,1034.5 374.5,939.4 C305.1,788.6 174.3,575 27.5,372.4 C15.7,356.1 6.7,340.4 2.9,329.7 C0.4,322.3 0,320 0,309.4 C0,294 1.4,290.6 7.7,290.1 C13.1,289.7 20.6,293.4 33.6,303.2 C68.6,329.3 143.3,404.8 225.3,496.9 C250.3,525 363.1,666 376.6,686 C411.4,737.8 484.7,862.8 534.9,955.9 C553.4,990.1 582.7,1048.8 593.3,1072.9 C598.5,1084.7 621.1,1136.9 643.5,1188.9 C666,1240.9 684.7,1283.8 685.1,1284.3 C685.5,1284.8 690,1283.4 695.2,1281.1 C721.1,1269.9 735.4,1267.7 793,1265.9 C856.7,1264 864.4,1263 874.3,1255.4 C879.9,1251.1 884.5,1242.3 886,1232.9 C889.1,1212.6 885.7,1159.9 877.9,1109.9 C857.5,979.5 799.1,775.9 725.8,579.9 C697.8,505.1 666.6,437.2 638.2,389.4 C607.2,337.2 574.4,300.8 545.5,286.4 C532.2,279.9 524,277.9 509.5,277.9 C472.9,277.9 432.5,291.8 385.5,320.4 C329.5,354.6 297.2,373.7 284.3,380.2 C270.1,387.4 248.1,396.9 245.6,396.9 C244.9,396.9 242.1,395.2 239.2,393.2 C233.1,388.7 233.1,389.9 239.5,370.4 C245.6,351.5 247.6,348.2 261.9,332.9 C321.1,269.2 349.6,231.5 371.5,187.9 C378.6,173.7 384.7,159.1 397.5,125.5 C435.5,25.6 445.9,7.6 469.5,1.4 C478.6,-0.9 498.4,-0.7 508.5,1.9 C525,6.1 547.2,18.8 569.5,36.6 C591,53.8 627.2,91.1 653.6,123.4 C690.8,168.8 731.5,227.9 760.4,278.3 C816.2,375.6 891.3,574.4 949.5,778.9 C959.7,814.8 959.9,815.4 1001,973.9 C1019.2,1044 1036.8,1110.6 1040,1121.9 C1049.9,1156.4 1068.7,1226 1075.5,1253.3 C1084.3,1288.3 1084.2,1294.5 1074.7,1307 C1068,1316 1033.9,1354 1017.5,1370.7 C987.8,1401.1 965.1,1417 940.5,1424.5 C932.4,1427 930,1427.3 916,1427.3 C898.2,1427.3 898,1427.3 834.5,1412.9 C776.7,1399.8 765.5,1397.7 750.7,1397.1 C740.2,1396.7 737.1,1397 733.5,1398.4 C727.2,1400.7 726,1402.9 726,1411.7 C726,1431.7 736.1,1457.5 755.3,1486.6 C770.6,1509.8 779.5,1527.4 782.6,1540.4 C786,1554.9 783.5,1573.4 776.3,1587.2 C770.8,1597.7 766.4,1601.8 725.2,1635.4 C714.7,1643.8 713.2,1645.4 714.9,1646.1 C716,1646.5 724.9,1648 734.7,1649.4 C745.4,1651 761.6,1654.4 775.5,1657.9 C814.3,1667.9 859.2,1677.6 898,1684.3 C926.9,1689.3 956.2,1693.1 1051.5,1703.9 C1105,1710 1150.7,1715.6 1153.5,1716.5 C1163.2,1719.6 1173.9,1726 1182.1,1733.7 C1188.5,1739.7 1190.8,1742.7 1194.2,1749.7 C1198.3,1757.8 1198.5,1758.7 1198.8,1768.9 C1199.3,1781 1197.8,1788.4 1193,1798.8 C1177.3,1832.3 1127.7,1862.6 1081.5,1866.8 C1069.6,1867.9 1050.2,1866.7 1034,1864 C1027.7,1863 991.9,1853.9 954.5,1843.9 C917.1,1833.9 879.1,1823.7 870,1821.3 C837.5,1812.7 796.7,1803.3 782.8,1801.3 L778,1800.7 L778,1811 C778.1,1854.4 793.3,1983 802.6,2017.9 C805.2,2027.7 804.5,2026.4 830.7,2071.9 C840.9,2089.4 848.5,2104.8 850,2110.9 C854.3,2128.3 833.8,2161.4 800.1,2191.3 C748.5,2237.2 683.7,2271.4 634.3,2278.8 C624.6,2280.3 603.1,2280 594.6,2278.3 L594.6,2278.3 Z" id="Shape" sketch:type="MSShapeGroup"></path>
        </g>
    </g>
</svg>