<?xml version="1.0" encoding="UTF-8" standalone="no"?>
<svg width="2428px" height="403px" viewBox="0 0 2428 403" version="1.1" xmlns="http://www.w3.org/2000/svg" xmlns:xlink="http://www.w3.org/1999/xlink" xmlns:sketch="http://www.bohemiancoding.com/sketch/ns">
    <!-- Generator: Sketch 3.0.4 (8054) - http://www.bohemiancoding.com/sketch -->
    <title>Slice 2</title>
    <desc>Created with Sketch.</desc>
    <defs></defs>
    <g id="Page-1" stroke="none" stroke-width="1" fill="none" fill-rule="evenodd" sketch:type="MSPage">
        <g id="Group" sketch:type="MSLayerGroup" transform="translate(1214.100000, 201.550000) scale(1, -1) translate(-1214.100000, -201.550000) translate(0.200000, 0.600000)" fill="#000000">
            <path d="M2168.8,401.4 C2158.8,399.8 2145.8,393.2 2118.4,376.1 C2097.9,363.2 2092,360.2 2077.3,355.5 C2039.1,343.3 1990.3,335.5 1930.8,332 C1834,326.4 1578.8,306.3 1237.3,277.5 C1172.4,272 1065.8,263 1000.5,257.5 C870.7,246.6 791.4,239.6 699.8,231 C489.5,211.3 478.3,210.5 401.7,210.5 C321.8,210.5 269.6,214.3 223.3,223.6 C186.8,230.9 163.7,238.6 112.3,261 C64,282 42.9,289.5 32.1,289.5 C23.6,289.5 18.6,287.3 11.4,280.5 C2.1,271.7 -1.6,259.7 0.7,245.9 C2.3,236.4 10.6,220 21.5,204.8 C34.2,187.2 85.6,122.4 104.4,100.5 C117.1,85.5 151,51.7 161.8,43.1 C189,21.5 216,8.4 245.9,2.3 C255.7,0.3 260.3,0 278.3,0 L299.3,0 L324.5,5.3 C338.3,8.1 366.7,14.5 387.5,19.4 C408.3,24.4 438.6,31.5 454.8,35.4 C471,39.2 488.8,43.3 494.3,44.4 C499.8,45.6 571.4,56.2 653.3,67.9 C787,87.2 819.2,91.4 966.8,109.4 L1131.3,129.4 L1329.8,145.4 C1526.6,161.3 1529.3,161.5 1650.8,168 L1773.3,174.5 L1933.8,173.1 L2094.3,171.6 L2222.7,163.4 L2351.1,155.1 L2360.9,156.8 C2380.1,160.1 2394.8,167.5 2407.8,180.5 C2421.2,193.9 2427.8,209.1 2427.8,226.6 C2427.8,237.6 2426.3,243.6 2420.8,255.1 C2414.5,268.2 2406.2,279.1 2391.8,293.5 C2360.9,324.4 2310.3,357 2258.8,379.2 C2221.6,395.2 2185.4,404.2 2168.8,401.4 L2168.8,401.4 Z" id="Shape" sketch:type="MSShapeGroup"></path>
        </g>
    </g>
</svg>