<?xml version="1.0" encoding="UTF-8" standalone="no"?>
<svg width="2271px" height="2391px" viewBox="0 0 2271 2391" version="1.1" xmlns="http://www.w3.org/2000/svg" xmlns:xlink="http://www.w3.org/1999/xlink" xmlns:sketch="http://www.bohemiancoding.com/sketch/ns">
    <!-- Generator: Sketch 3.0.4 (8054) - http://www.bohemiancoding.com/sketch -->
    <title>Slice 2</title>
    <desc>Created with Sketch.</desc>
    <defs></defs>
    <g id="Page-1" stroke="none" stroke-width="1" fill="none" fill-rule="evenodd" sketch:type="MSPage">
        <g id="Group" sketch:type="MSLayerGroup" transform="translate(1135.100000, 1195.100000) scale(1, -1) translate(-1135.100000, -1195.100000) translate(0.100000, 0.100000)" fill="#000000">
            <path d="M927.8,2388.7 C902.7,2383.4 883.2,2369.7 873.8,2350.5 C869.8,2342.7 869.5,2341.1 869.1,2332.8 C868.8,2325.3 869.1,2322.6 870.8,2318.1 C876.5,2302.9 885,2296.9 932,2274.8 C953.9,2264.5 973.6,2249.5 999.9,2223.2 C1028.7,2194.4 1039.9,2179 1053.3,2150.1 C1077.3,2098 1114.6,1984.2 1150.4,1853.6 C1166.6,1794.6 1184.2,1722.9 1182.8,1721.7 C1182.6,1721.5 1172.3,1718.4 1159.9,1714.8 C1137.8,1708.4 1132.3,1707.3 869.9,1659.1 L602.4,1610 L495.4,1594.5 C354.7,1574.1 345.3,1573.1 299.1,1573.1 C241.7,1573.1 194.7,1580.5 146.4,1597 C113.7,1608.3 108.2,1610.4 82.4,1622.1 C48.8,1637.2 42.4,1639.5 34.1,1638.8 C25.9,1638.2 18.5,1634.4 12.2,1627.8 C3.6,1618.8 -0.1,1608.6 -0.1,1594.1 C-0.1,1583.8 1.9,1576.6 8.4,1563.6 C38.5,1503.3 150.9,1418.5 232.9,1394.1 C248.3,1389.6 258.4,1388.1 274.3,1388.1 C302.3,1388.1 330.3,1394 368.4,1408 C382.2,1413.1 405.3,1421.3 419.9,1426.2 C446,1435.1 447.6,1435.5 535.9,1455.1 C601.3,1469.6 705.4,1491.1 922.7,1535.1 C1086.2,1568.2 1220.2,1595.1 1220.3,1594.9 C1220.5,1594.8 1233.1,1543.3 1248.4,1480.6 L1276.1,1366.6 L1322.9,1222.1 L1369.7,1077.6 L1417.7,957.5 L1465.8,837.5 L1513.4,737 C1558.8,641.2 1562,634.8 1583.6,596.6 C1605.4,558.2 1608.7,553 1666.8,466.6 C1700,417.1 1730,373 1733.3,368.6 C1755,340 1804.9,283.9 1848.9,238.7 C1986.9,96.9 2100.7,15.2 2179,1.6 C2190.8,-0.5 2210.3,-0.5 2219.9,1.5 C2243.9,6.5 2261.4,23.4 2268.1,48 C2271,58.4 2271.2,84.5 2268.5,97.1 C2263.9,118.6 2253.3,146.8 2236.7,181.6 C2219.5,217.6 2215.6,227.5 2212.2,243.1 C2210.6,250.5 2210.4,256.5 2210.4,288.6 C2210.5,326.5 2211.6,344.8 2215.9,382.1 C2219,408.9 2244,653.6 2244.9,665.9 C2245.7,677.7 2244.8,696.1 2242.9,704.7 C2239.4,721.2 2232.3,730.1 2222.6,730.1 C2215.2,730.1 2206.5,720.6 2197.2,702.3 C2189.2,686.7 2189.5,687.4 2137.5,554 C2112.6,489.9 2089.7,432.3 2086.7,426 C2062.2,374.5 2031.1,350.2 2002.4,360.1 C1974.3,369.8 1930.4,408.4 1877.6,469.8 C1797.4,563.1 1708.1,696.8 1653.5,805.1 C1647.2,817.5 1620,876.4 1592.9,936.1 L1543.6,1044.6 L1490.4,1200.6 L1437.1,1356.6 L1413.4,1448.6 C1400.4,1499.1 1388.1,1545.7 1385.9,1552.1 C1378.6,1573.6 1367.2,1617.9 1368.2,1620.5 C1369.6,1624.1 1392.5,1629.5 1429.9,1635 C1441.2,1636.7 1520.6,1647.1 1606.4,1658 L1762.4,1678 L1896.4,1679.5 C1970.1,1680.4 2038.1,1681.6 2047.4,1682.2 C2110.9,1686 2138.5,1699.7 2146.5,1731.1 C2148.8,1740.3 2148.1,1760.2 2145,1769.1 C2131.5,1808.4 2078.8,1839.9 1993.9,1859.5 C1941.6,1871.5 1882.3,1876.6 1858.4,1871.1 C1844.9,1868 1819.2,1858.8 1781.7,1843.5 C1744.1,1828.2 1723.6,1822.1 1682.3,1813.7 C1660,1809.2 1351.9,1752.5 1346.5,1751.9 C1343.6,1751.6 1343.6,1751.6 1337.2,1769.6 L1330.7,1787.6 L1315.3,1870.6 C1306.8,1916.3 1293.1,1989.8 1284.9,2034.1 C1273.7,2094.5 1269.7,2118.1 1268.9,2128.6 C1265.9,2168.7 1261.5,2208.6 1258.4,2221.7 C1254.9,2237 1246.8,2253.2 1237.1,2264.6 C1198.6,2309.7 1074.9,2369.6 985,2386.7 C968.2,2389.9 938.7,2390.9 927.8,2388.7 L927.8,2388.7 Z" id="Shape" sketch:type="MSShapeGroup"></path>
            <path d="M1607.3,2355.1 C1599.5,2354.1 1584.3,2349.6 1583.3,2348 C1582.6,2346.8 1587,2340.2 1591.3,2335.8 C1595.3,2331.8 1642.7,2296.5 1674.7,2273.7 C1689.1,2263.3 1705.1,2251.2 1710.2,2246.7 C1743.2,2217.1 1790.5,2161.2 1829.4,2105.6 C1881,2031.8 1901.8,2008.6 1927,1996.6 C1936.7,1992 1946,1990.1 1958.9,1990.1 C1972.3,1990.1 1981.4,1992.1 1991.4,1997 C2017.3,2009.8 2031.7,2038.1 2033.6,2079.6 C2035.3,2119 2025,2158.8 2004.4,2192 C1991.9,2212.2 1970.5,2235.1 1949.4,2250.8 C1935.6,2261.2 1912,2275.3 1896.4,2282.6 C1837.5,2310.3 1724,2343.5 1655.9,2353 C1638.7,2355.4 1617.2,2356.3 1607.3,2355.1 L1607.3,2355.1 Z" id="Shape" sketch:type="MSShapeGroup"></path>
        </g>
    </g>
</svg>