<?xml version="1.0" encoding="UTF-8" standalone="no"?>
<svg width="1654px" height="2238px" viewBox="0 0 1654 2238" version="1.1" xmlns="http://www.w3.org/2000/svg" xmlns:xlink="http://www.w3.org/1999/xlink" xmlns:sketch="http://www.bohemiancoding.com/sketch/ns">
    <!-- Generator: Sketch 3.0.4 (8054) - http://www.bohemiancoding.com/sketch -->
    <title>Slice 2</title>
    <desc>Created with Sketch.</desc>
    <defs></defs>
    <g id="Page-1" stroke="none" stroke-width="1" fill="none" fill-rule="evenodd" sketch:type="MSPage">
        <g id="Group" sketch:type="MSLayerGroup" transform="translate(826.700000, 1118.700000) scale(1, -1) translate(-826.700000, -1118.700000) translate(0.200000, 0.200000)" fill="#000000">
            <path d="M1026.8,2237.1 C1009.6,2235.3 969.2,2225 934.8,2213.7 C899.9,2202.3 843,2186.4 815.7,2180.3 C808.3,2178.6 715.9,2163.1 610.3,2145.7 C504.7,2128.4 403,2111.5 384.3,2108.2 C322.4,2097.3 295.3,2094.2 263.9,2094.2 C241.7,2094.2 225.1,2095.8 203.8,2100.2 C179.1,2105.2 163.9,2110.6 140.4,2122.5 C121.5,2132.1 118.9,2133.2 114.1,2133.2 C100.3,2133.2 85.9,2119.4 81.3,2101.7 C79.4,2094.1 79.4,2081.2 81.4,2071.4 C89.4,2032.6 127.4,1991.1 183.3,1960.3 C196.3,1953.2 213.3,1945.9 223.8,1943 C238.5,1939 247.6,1940.5 326.8,1960.2 C413.9,1981.9 444.5,1988.3 461.4,1988.3 C472,1988.4 477.4,1986.8 481.6,1982.6 L485.1,1979.1 L484.5,1971.4 C482.5,1940.9 453,1894.1 397.8,1833.7 C380.4,1814.6 329.6,1764.6 305.8,1743.1 C254.2,1696.3 195.5,1647.8 144.8,1609.8 C124.3,1594.4 111.3,1585.6 72.4,1560.4 C52.1,1547.3 38.8,1537.5 26.8,1526.9 C18.6,1519.8 7.2,1507.5 7.9,1506.7 C8.7,1506 38.5,1499.3 43.8,1498.7 C63.4,1496.5 130,1516.3 194.4,1543.6 C244.9,1565 334.4,1609.5 377.4,1634.7 L381.5,1637.1 L410.5,1607.9 C460,1557.9 479.2,1532.7 514.6,1471.2 C524.5,1454.1 524.7,1453.7 522.9,1451.7 C521.9,1450.6 515.3,1443.2 508.3,1435.2 C427.5,1343.5 328.3,1255.7 211.8,1172.6 C187.2,1155.1 129.2,1116.4 104,1100.7 C52.9,1068.9 39.8,1058.6 24.7,1038.7 L20.7,1033.4 L22.1,1028.1 C23.1,1023.9 23.9,1022.6 25.9,1022.1 C29.8,1021 61.7,1021.1 68.8,1022.3 C84.2,1024.7 105.1,1030.9 144.8,1044.8 C168.2,1053 179.9,1058 245.3,1088 C345.1,1133.7 366.9,1143.8 376.1,1148.4 C380.4,1150.5 433.9,1184.3 495.1,1223.4 C556.3,1262.5 607.7,1295.4 609.4,1296.4 L612.6,1298.3 L616.5,1292 C623.5,1280.8 625.2,1275.5 631.8,1246.2 C634.1,1236 638.4,1217.8 641.4,1205.7 C648,1179.6 651.8,1162.2 651.8,1158.7 C651.8,1150.3 633.4,1125.7 600.2,1089.7 C572.5,1059.6 495.6,983.2 455.8,946.2 C342.7,840.9 231.2,761.8 75.3,676.2 C18.8,645.2 -0.2,631.7 -0.2,622.9 C-0.2,618.4 3,614.5 7.6,613.2 C17.1,610.6 39.6,612.6 66.2,618.3 C139.3,634.2 275.4,688.8 398.3,751.6 C454.3,780.2 465.7,786.9 550.3,840.6 C643.5,899.7 667,914.3 667.6,913.7 C668.2,913.1 661.7,709.6 659.7,667.2 C656.9,606.1 643.3,520.5 624.7,445.7 C616.5,413.1 599.3,350.8 594,334.7 C574.1,274.7 552.6,250.4 510.4,239.7 C496.1,236.1 482.2,234.9 462.2,235.5 C440.3,236.1 418.9,238.9 324.3,253.7 C308.4,256.2 292.2,258.2 288.3,258.2 C282.1,258.2 259.5,254.2 258.2,252.9 C257.9,252.7 260.7,247.5 264.4,241.6 C284,209.8 289.5,204.7 334.3,176.7 C391.6,140.8 413.7,124.5 428.7,106.9 C432.5,102.4 443.8,87 453.8,72.7 C493.2,16.7 501.9,7 517.6,2.2 C527.6,-0.9 545.9,-0.7 559.3,2.6 C603.9,13.6 649.4,49.7 688.9,105.4 C708.3,132.6 732.4,178.4 747.8,217.2 C803.4,356.7 831.7,550.1 831.8,790.2 C831.8,842.8 830.8,871.4 827.7,911.7 C825.9,935.8 820.4,993.8 819.4,1000.7 C818.9,1003.3 819,1003.5 820.1,1001.9 C841,969.8 879.5,912.4 895.9,888.7 C907.8,871.7 921.2,852.1 925.8,845.2 C934.8,831.7 974.1,775.5 1034.4,689.7 C1113.2,577.7 1146.4,529.3 1171.7,489.8 C1211.1,428.3 1225.8,408.1 1245.7,388.1 C1273.6,360 1299.7,348.2 1345.8,342.8 C1364,340.7 1366.4,340.5 1481.8,336.1 C1591.5,331.9 1610.9,331.7 1622.8,334.8 C1644.2,340.3 1655.8,353.5 1651.8,367.7 C1648.2,380.6 1630.7,395.2 1562.9,442.2 C1478.7,500.4 1430.3,536.8 1369.3,587.8 C1280,662.5 1180.9,758.6 1081.2,867.2 C1046,905.6 1031.4,923.2 911.8,1071.7 C848.9,1149.8 820.9,1184.4 810.1,1197.5 C806.1,1202.3 802.6,1207.2 802.3,1208.5 C801.1,1213.6 794.8,1250.6 795.1,1250.8 C795.3,1251 810.9,1258.3 829.8,1267 C899.3,1299.1 951.5,1324.4 1004.3,1351.5 C1062.6,1381.4 1057.5,1378.5 1155.8,1439.7 C1248,1497.2 1266.6,1508.4 1297.3,1525 C1344.9,1550.7 1359.6,1560 1371.5,1572 C1383.7,1584.3 1389.4,1599.5 1388.6,1616.9 C1388.2,1624.3 1387.7,1626.2 1383.5,1634.5 C1376,1649.7 1362.4,1666.7 1342.1,1686.3 C1323.6,1704.2 1309.1,1716.1 1272.2,1743.7 C1243.7,1765.1 1213.2,1775.3 1182.4,1773.9 C1163.3,1773 1148.5,1767.7 1138.4,1758.2 C1127.4,1747.8 1127.3,1741.4 1137.3,1704.2 C1140.9,1690.7 1144.2,1677.5 1144.6,1674.7 C1146.6,1661.5 1139.6,1645.3 1121.2,1620.9 C1063.5,1544.2 900.6,1415.9 774.5,1347.7 C769.5,1345.1 765.3,1343.3 764.8,1343.8 C764.3,1344.3 755.7,1358.4 745.6,1375.2 C696.8,1456.1 669.9,1496.3 637.1,1537.5 C600.9,1582.9 559.9,1624.9 498.6,1679.6 C484.9,1691.7 473.8,1701.8 473.9,1702.1 C473.9,1702.4 519.8,1742.1 575.9,1790.2 C632,1838.3 681.4,1881.3 685.6,1885.7 C712.5,1913.6 724.1,1941.3 718.3,1963.7 C714.4,1978.6 706.9,1990.1 688.9,2008.4 C682.1,2015.5 676.7,2021.3 676.9,2021.5 C677.1,2021.7 741.4,2030.7 819.8,2041.5 C898.2,2052.4 966.1,2061.8 970.8,2062.4 C983.9,2064.3 1024.8,2063.8 1073.8,2061.3 C1126.8,2058.5 1156,2058.8 1169.8,2062 C1201.2,2069.4 1220.4,2085.9 1226.8,2110.8 C1235.4,2144.1 1215.7,2174.9 1169.8,2200 C1129.6,2221.9 1057.9,2240.5 1026.8,2237.1 L1026.8,2237.1 Z" id="Shape" sketch:type="MSShapeGroup"></path>
        </g>
    </g>
</svg>