<?xml version="1.0" encoding="UTF-8" standalone="no"?>
<svg width="2474px" height="2185px" viewBox="0 0 2474 2185" version="1.1" xmlns="http://www.w3.org/2000/svg" xmlns:xlink="http://www.w3.org/1999/xlink" xmlns:sketch="http://www.bohemiancoding.com/sketch/ns">
    <!-- Generator: Sketch 3.0.4 (8054) - http://www.bohemiancoding.com/sketch -->
    <title>Slice 2</title>
    <desc>Created with Sketch.</desc>
    <defs></defs>
    <g id="Page-1" stroke="none" stroke-width="1" fill="none" fill-rule="evenodd" sketch:type="MSPage">
        <g id="Group" sketch:type="MSLayerGroup" transform="translate(1237.400000, 1092.250000) scale(1, -1) translate(-1237.400000, -1092.250000) translate(0.800000, 0.000000)" fill="#000000">
            <path d="M1032.4,2182.5 C1014.3,2177.7 998.1,2165.1 990.6,2150 C986.9,2142.5 986.7,2141.6 986.8,2133 C986.8,2126.2 987.3,2122.9 988.9,2119.5 C991.4,2114 999.2,2103.5 1003.5,2099.9 C1020.4,2085.7 1038.1,2069 1046.6,2059 C1094.5,2002.9 1104.5,1966.7 1102.9,1854 C1102.1,1799.8 1097.4,1744 1082.6,1614.5 C1074,1538.5 1057,1409 1053.4,1392 L1052.6,1388 L850.2,1354.8 C593.7,1312.8 567.6,1308.7 536.2,1304.9 C515.2,1302.4 452.8,1301.8 430.2,1304 C394.3,1307.4 359.6,1314.7 325.7,1326 C305.1,1332.8 292.2,1338.1 253.9,1355.4 C240.2,1361.6 226.2,1367.3 222.9,1368.2 C202.6,1373.3 186.2,1360.1 182.2,1335.2 C179.6,1318.6 188,1295.8 206.6,1269.1 C235.7,1227.3 294.2,1172.5 348.8,1135.8 C385.5,1111.1 406.5,1101.5 423.3,1101.5 C433.2,1101.5 437.4,1102.5 466,1110.9 C540.7,1133.1 645.6,1158.4 789.2,1188.6 C813.5,1193.7 1005.6,1232.5 1014.8,1234.2 L1018,1234.7 L1015.5,1220.9 C1012.2,1201.8 1005.2,1170.1 998.7,1145 C954.1,971.5 877,790.7 793.4,663.5 C685,498.4 525.2,352.4 323.2,233.8 C276.4,206.3 220.7,176.7 165.7,150.1 C137.8,136.6 128,132.5 89.3,118 C42.9,100.7 13.1,88.9 4.8,84.8 L0,82.3 L0.4,73.6 C1.1,57.7 7.8,48.9 22.6,44.2 C36.3,39.9 57.2,41.4 104.7,50.1 C248.1,76.3 397.9,130.8 512.7,198.8 C688.1,302.6 834.2,439.4 943.1,601.9 C1030,731.5 1091.8,868.2 1155.5,1071 L1159.9,1084.9 L1167.1,1074.5 C1182.8,1051.9 1248.9,952.4 1308.7,861.5 C1419.4,693.1 1482.3,601.4 1584.1,460 C1665,347.6 1821.6,136.5 1855.7,94 C1909.5,26.8 1936.6,9.3 1998.4,1.7 C2011.6,0.1 2029.4,-6.82121026e-13 2225.2,-6.82121026e-13 C2427.8,-6.82121026e-13 2438,0.1 2444.1,1.8 C2453.8,4.6 2459.3,7.8 2464.9,13.8 C2480.6,31.1 2473.8,52.5 2447.1,69.8 C2436.6,76.6 2433.3,78.3 2409.2,88.8 C2244.1,160.9 2070.3,265.6 1932.7,375.9 C1880.3,417.9 1845.1,449.6 1792.3,502.5 C1587.8,707.4 1459.1,864.1 1316.3,1082.3 C1280.2,1137.4 1204.2,1256.8 1203.5,1259.5 C1202.7,1262.5 1205.9,1264.6 1215.4,1267.5 C1230.8,1272.1 1246.3,1275.2 1264.7,1277.4 C1274.1,1278.6 1340.9,1286.3 1413.2,1294.5 L1544.7,1309.6 L1675.2,1316.6 C1804.4,1323.6 1806.1,1323.6 1846.2,1323.2 C1891.8,1322.6 1887.8,1323 1986.2,1310.6 C2060.1,1301.2 2077.4,1299.5 2095.9,1299.5 C2154.5,1299.5 2188.1,1322.7 2188.2,1363.3 C2188.3,1412.7 2137.7,1458.7 2045.6,1492.8 C2003.6,1508.4 1951.6,1521 1919.4,1523.4 C1894.9,1525.2 1878.9,1522.1 1829.2,1506 C1766,1485.5 1710.2,1473.3 1660.2,1469 C1619.5,1465.5 1403.8,1438.9 1282.4,1422.4 C1253.6,1418.5 1229.9,1415.4 1229.8,1415.6 C1229.6,1415.8 1230.3,1422.1 1231.4,1429.5 C1236,1462.2 1258.6,1628.8 1263.6,1667 C1277,1769.1 1280.8,1801.7 1282.7,1832 C1284.6,1860.7 1286.9,1887.1 1288.6,1899.5 C1289.8,1907.7 1290.6,1910 1294.4,1916.5 C1307.9,1939.3 1315.1,1955.4 1317.7,1968.3 C1320.3,1980.8 1319.4,2010.2 1316.2,2020 C1306.8,2049 1286.3,2068.3 1217.7,2112.7 C1156.4,2152.4 1109.4,2174.9 1072.5,2182.4 C1059.3,2185.1 1042.6,2185.2 1032.4,2182.5 L1032.4,2182.5 Z" id="Shape" sketch:type="MSShapeGroup"></path>
            <path d="M1505.7,2047.5 C1495.5,2045.4 1486.7,2040.6 1479.8,2033.6 L1476,2029.7 L1476.4,2016.8 C1477.1,1995.1 1480.5,1990.8 1506,1978.4 C1555.9,1954.2 1606,1915.6 1683.2,1841.9 C1722.3,1804.7 1748.4,1776.6 1774.3,1744 C1815.5,1692.2 1835.7,1668.1 1853.2,1650.1 C1879,1623.5 1892.3,1616.5 1917.2,1616.5 C1956.1,1616.5 1987.6,1642 1994.8,1679.3 C1995.6,1683.4 1996.2,1691.8 1996.2,1698.1 C1996.2,1802.3 1915.3,1901 1768.7,1975.5 C1696.1,2012.4 1609,2040.5 1546,2047.4 C1534.9,2048.7 1511.6,2048.7 1505.7,2047.5 L1505.7,2047.5 Z" id="Shape" sketch:type="MSShapeGroup"></path>
        </g>
    </g>
</svg>