<?xml version="1.0" encoding="UTF-8" standalone="no"?>
<svg width="2231px" height="2295px" viewBox="0 0 2231 2295" version="1.1" xmlns="http://www.w3.org/2000/svg" xmlns:xlink="http://www.w3.org/1999/xlink" xmlns:sketch="http://www.bohemiancoding.com/sketch/ns">
    <!-- Generator: Sketch 3.0.4 (8054) - http://www.bohemiancoding.com/sketch -->
    <title>Slice 2</title>
    <desc>Created with Sketch.</desc>
    <defs></defs>
    <g id="Page-1" stroke="none" stroke-width="1" fill="none" fill-rule="evenodd" sketch:type="MSPage">
        <g id="Group" sketch:type="MSLayerGroup" transform="translate(1115.250000, 1147.650000) scale(1, -1) translate(-1115.250000, -1147.650000) translate(0.000000, 0.300000)" fill="#000000">
            <path d="M703.5,2293.2 C694.1,2290.7 686.7,2286.8 681.5,2281.4 C668.8,2268.3 672.2,2249.6 694.7,2209.1 C698,2203.3 698.3,2202.2 698.2,2194.6 C698.1,2164.1 679.3,2124.3 641.1,2073.2 C622.9,2048.8 610.1,2034 523.3,1936.4 L442.3,1845.2 L353.4,1762.9 C304.5,1717.5 251.1,1668.3 234.8,1653.5 L205.1,1626.4 L102.8,1552 C46.5,1511.1 0.3,1477.5 0.1,1477.3 C-1,1476.5 4.7,1471.9 9.3,1469.9 C14.3,1467.8 15,1467.7 25,1468.8 C59.2,1472.6 117.9,1494.6 204.2,1536.1 C247.2,1556.7 311.2,1590.6 343.5,1609.8 C394.7,1640.2 478.3,1695.1 499,1711.8 C502,1714.3 539.8,1745.6 582.9,1781.4 L661.4,1846.5 L753.4,1937.1 C804.1,1986.9 848,2030 851.1,2032.8 L856.7,2038 L867.1,2036.9 C885.6,2034.8 924.6,2036.9 967,2042 C992.4,2045.1 1003.6,2046.8 1121.7,2065.5 C1182.2,2075.1 1232.6,2083 1233.5,2083 C1234.8,2083 1233.8,2080.5 1229,2071.3 C1209.8,2034.9 1169.5,1969 1138.6,1923.5 C1133,1915.3 1100.8,1871.6 1067.1,1826.5 C1004.1,1742.3 995.1,1731.1 925.5,1649 C886.8,1603.5 863,1576 862.2,1576 C861.8,1576 842.3,1573.1 818.8,1569.5 C795.3,1565.9 713.4,1554.5 636.8,1544 C417.4,1514.2 397.6,1512 339.3,1512 L308.1,1512 L300.8,1514.9 C281,1522.7 260.6,1528 250.1,1528 C237.9,1528 224.8,1521.6 217.8,1512.1 C210.8,1502.5 209.2,1490.9 213.1,1477 C215.9,1466.7 227.5,1437.8 241.9,1405.3 C258.4,1367.8 260.4,1362.7 264.9,1344.8 C271.5,1318.6 274.9,1295.1 277.1,1258.5 C279.6,1216.8 278.5,1153.7 269.5,831.5 L260.9,521.5 L261.3,395 C261.7,264.4 261.7,264 266.1,237 C276.6,171.2 306.4,124 360,88.4 C428.9,42.5 545.8,15.6 720.5,5.5 C786.3,1.7 873.8,0.1 1013.5,6.82121026e-13 C1108.1,6.82121026e-13 1386.3,5.8 1489.5,10 C1643.1,16.3 1760.3,28.2 1927.4,54.6 C2010.2,67.7 2060.1,78.5 2102.5,92.5 C2124.6,99.8 2134.9,103.9 2153.5,113 C2196.2,133.8 2219.8,157.1 2228.2,186.7 C2231.1,197 2231.3,216.5 2228.6,225.5 C2224.2,240.2 2215.1,251.2 2193.4,268 C2168.3,287.4 2159,296.6 2150.8,310.1 C2140.2,327.5 2134,352.2 2130.9,389 C2129.6,404.9 2129.6,454.6 2131.1,587.6 L2132.2,693.7 L2126.6,712.1 C2120.5,731.9 2119.6,733.8 2115.6,735.9 C2104.5,741.9 2090,711.2 2075.1,650.5 C2071.7,636.8 2059.9,585.5 2048.9,536.5 C2022.2,417.4 2016.1,393.2 2003.5,355.5 C1982.7,293.1 1960.4,256.4 1931.8,237.4 C1906.2,220.4 1843.6,203.7 1757.3,191 C1678,179.3 1606.9,173.4 1490.5,169 C1461.4,167.9 1380.2,164.7 1310.2,162 L1182.9,157 L1011.1,157 L839.4,157 L722.4,162.5 C600.1,168.2 585.9,169.2 556.5,174 C525.9,179.1 504.6,185.3 484.4,194.9 C439.1,216.6 419.4,246.7 412.8,304 C410.5,324.2 411.9,435.2 415,478 C415.5,484.3 419,553.9 422.9,632.5 C426.7,711.2 430.2,778.7 430.5,782.5 C430.9,786.4 431.5,804.7 431.9,823.2 C432.3,841.8 432.9,857.2 433.2,857.5 C433.5,857.9 444.8,860.3 458.2,863 C471.5,865.7 494,870.3 508,873.4 C549.6,882.3 626,894.5 713,906 C725.9,907.7 795.9,917.4 868.5,927.5 L1000.5,946 L1176.5,964.5 L1352.5,983 L1468,988.5 C1531.5,991.5 1587.8,994.5 1593,995.1 C1635,999.9 1660.9,1011.9 1670.2,1030.8 C1673.3,1037.1 1673.5,1038.1 1673.4,1048 C1673.4,1057.1 1673,1059.7 1670.1,1067.9 C1666.4,1078.9 1662.7,1086.2 1655.5,1096.6 L1650.4,1104.1 L1666.2,1155.8 C1681,1204.5 1683.8,1214.9 1713.1,1333.5 L1744.2,1459.5 L1751.6,1474.9 C1760.6,1493.6 1773.7,1516.2 1787.6,1537.1 C1793.3,1545.7 1799.3,1555.9 1800.9,1559.7 C1806.7,1573.8 1808.5,1588.8 1805.6,1599.5 C1798.8,1625 1768.5,1653.5 1714.5,1685 C1680.3,1704.9 1667,1708.8 1637.1,1707.6 L1620.8,1706.9 L1608.6,1702 C1564.3,1684.4 1494.9,1666.2 1432.5,1656 C1419.2,1653.8 1041.6,1600.1 1041.4,1600.4 C1041.1,1600.7 1360.1,1940.7 1373.7,1954.5 C1398,1979.2 1410.4,1987.7 1449.9,2006.7 C1473.8,2018.2 1495,2030.1 1505.4,2037.9 C1509.7,2041.1 1519.9,2050.1 1528.1,2057.9 L1543,2072.2 L1543,2083.8 C1543,2104.2 1539.4,2121 1532.9,2131.1 C1528.9,2137.4 1526.2,2139.8 1493.6,2165.9 C1411.8,2231.4 1384.8,2247 1352.9,2247 C1336.2,2247 1331.3,2245.4 1280,2223.5 C1250.9,2211.1 1249.3,2210.6 1217.5,2202.6 C1106.6,2174.9 994.3,2158.2 950.5,2162.9 C938.1,2164.3 924.5,2166.9 912.2,2170.4 L903.8,2172.8 L889.7,2186.7 C835.4,2239.9 782.1,2278.5 746.5,2290.6 C736.5,2294 734.4,2294.4 723,2294.7 C713.4,2294.9 708.9,2294.5 703.5,2293.2 L703.5,2293.2 Z M1551.7,1527.4 C1558.8,1525.4 1563.4,1520.8 1565,1513.9 C1567.4,1503.8 1564.7,1481.6 1555.4,1434.5 C1550.3,1408.6 1481.4,1131.9 1479.9,1130.9 C1477.7,1129.6 1384.8,1118.8 1295,1109.5 C1270.5,1107 1201.5,1099.4 1141.5,1092.7 C1081.6,1085.9 1032.4,1080.7 1032.2,1081.1 C1032,1081.5 1036.9,1122 1042.9,1171.2 C1063.4,1336.8 1066.4,1364.8 1065.7,1382 C1064.7,1404.9 1058,1418.8 1037.6,1439.9 C1032.6,1445 1023.8,1453.3 1018,1458.3 C1012.2,1463.3 1007.4,1467.6 1007.2,1467.9 C1007.1,1468.3 1057.4,1475.7 1119,1484.4 C1198.7,1495.6 1258.9,1503.5 1327.8,1511.6 C1422.2,1522.7 1454.3,1525.8 1496,1528 C1533.1,1529.9 1542.9,1529.8 1551.7,1527.4 L1551.7,1527.4 Z M855.1,1435.4 C881.4,1406.1 891.3,1384.8 896.4,1346 C902.5,1300.8 900.9,1215.3 891.7,1091 L889.5,1061.5 L729.5,1036.8 C641.5,1023.3 553.5,1009.9 534,1007 C514.5,1004.2 484.9,999.8 468.3,997.2 L438,992.4 L438,1000.9 C438,1010.8 440,1056.5 443.5,1130 C444.9,1158.3 447,1201.5 448.1,1226 C451,1285 451.2,1335 448.7,1347.5 C446.5,1358.7 443.5,1368.8 440.5,1375.6 L438.2,1380.7 L455.4,1384.4 C510.6,1396.4 581.9,1410.4 616,1416 C629,1418.1 838.3,1446.7 842.6,1446.9 C844.1,1447 847.8,1443.6 855.1,1435.4 L855.1,1435.4 Z" id="Shape" sketch:type="MSShapeGroup"></path>
        </g>
    </g>
</svg>