<?xml version="1.0" encoding="UTF-8" standalone="no"?>
<svg width="2413px" height="2026px" viewBox="0 0 2413 2026" version="1.1" xmlns="http://www.w3.org/2000/svg" xmlns:xlink="http://www.w3.org/1999/xlink" xmlns:sketch="http://www.bohemiancoding.com/sketch/ns">
    <!-- Generator: Sketch 3.0.4 (8054) - http://www.bohemiancoding.com/sketch -->
    <title>Slice 2</title>
    <desc>Created with Sketch.</desc>
    <defs></defs>
    <g id="Page-1" stroke="none" stroke-width="1" fill="none" fill-rule="evenodd" sketch:type="MSPage">
        <g id="Group" sketch:type="MSLayerGroup" transform="translate(1206.100000, 1013.050000) scale(1, -1) translate(-1206.100000, -1013.050000) translate(0.100000, 0.300000)" fill="#000000">
            <path d="M754.9,2025.1 C734.7,2023.7 705.1,2018.1 667.4,2008.6 C634.3,2000.3 627.3,1997.3 616.8,1986.8 C609.7,1979.8 604.8,1971.5 601.1,1959.8 C598.8,1952.8 595.2,1935.6 594.7,1929.5 L594.4,1925.7 L604.9,1921.2 C619.5,1914.9 633.5,1910.3 645.9,1907.8 C664.7,1904.1 679.2,1899.9 687.7,1895.7 C700.6,1889.4 710.7,1878.6 733.1,1847.3 C743.8,1832.3 754,1814.6 785.3,1756.1 C804.3,1720.7 814.7,1699.7 830.1,1666.1 C841.1,1642 851.5,1619.3 853.3,1615.6 C855,1612 884.1,1556.7 917.9,1492.8 C976.1,1382.9 979.9,1376 988,1365.8 C993.8,1358.6 999.4,1349.9 1004.9,1339.6 C1017.8,1315.8 1041.4,1273.6 1049.6,1260 C1053.6,1253.2 1056.9,1247 1056.9,1246.2 C1056.9,1244.4 1045,1213.6 1037.7,1196.4 C1005.5,1120.8 952.6,1030.8 872.6,915.3 C710.9,682 554.6,500.9 375.9,339.7 C299.6,271 266.8,243.4 176.9,172.3 C115,123.3 75.2,92.7 44.4,70.3 L0.4,38.3 L0.1,32.4 C-0.2,27.6 0.3,25.5 2.6,21 C6.2,13.8 14,5.8 20.4,2.9 C28.3,-0.8 35.1,-1 45,2.3 C78.9,13.5 181.2,63.1 232.4,93.1 C252.4,104.8 257.2,108 351.4,173.2 C442.1,235.9 442.6,236.3 495.4,278.2 C566.1,334.4 595.6,359 637.9,397.2 C707.8,460.4 788.4,541.5 853.3,614.1 C967.9,742.3 1076.4,884.6 1172.4,1032.5 L1186.1,1053.8 L1197.8,1035.7 C1216.8,1006.2 1347.6,832.9 1432.3,724.8 C1504.7,632.6 1511.2,624.7 1619.9,495.8 C1739,354.5 1875,191.7 1893.4,168.3 C1908.2,149.5 1946.2,103.9 1958.3,90.5 C1963.7,84.5 1970.2,78.1 1972.8,76.3 C1978,72.4 1986.3,69.4 1995.9,67.8 C2002.5,66.7 2163.4,63.9 2221.4,63.8 C2251.8,63.8 2305.9,65 2353.4,66.8 C2380.4,67.8 2387.4,69 2402.5,75.5 L2411.4,79.3 L2411.7,85.4 L2412,91.4 L2377.7,119.9 C2358.8,135.6 2247.3,225.4 2129.9,319.5 C1905.6,499.2 1915.3,491.1 1893.4,515.9 C1891.7,517.8 1881.8,526.4 1871.4,535 C1842.9,558.5 1829.5,570.5 1738.8,654 L1655.4,730.7 L1563.5,829.3 L1471.7,927.8 L1407,1018.1 C1371.4,1067.7 1330.1,1124.6 1315.1,1144.6 C1290.6,1177.2 1281.7,1190.3 1226.8,1274.5 C1170.9,1360.2 1164.5,1370.4 1151.7,1394.7 C1134.6,1427.2 1136.4,1424.2 1119.5,1447.8 C1091.4,1487 1074.9,1513.9 1052,1557.3 C1045.4,1570 996.4,1671.1 943.2,1782.2 C856.2,1963.7 845.8,1984.7 840.9,1990.7 C820.2,2015.3 789.7,2027.6 754.9,2025.1 L754.9,2025.1 Z" id="Shape" sketch:type="MSShapeGroup"></path>
        </g>
    </g>
</svg>