<?xml version="1.0" encoding="UTF-8" standalone="no"?>
<svg width="1120px" height="1858px" viewBox="0 0 1120 1858" version="1.1" xmlns="http://www.w3.org/2000/svg" xmlns:xlink="http://www.w3.org/1999/xlink" xmlns:sketch="http://www.bohemiancoding.com/sketch/ns">
    <!-- Generator: Sketch 3.0.4 (8054) - http://www.bohemiancoding.com/sketch -->
    <title>Slice 2</title>
    <desc>Created with Sketch.</desc>
    <defs></defs>
    <g id="Page-1" stroke="none" stroke-width="1" fill="none" fill-rule="evenodd" sketch:type="MSPage">
        <g id="Group" sketch:type="MSLayerGroup" transform="translate(560.000000, 929.000000) scale(1, -1) translate(-560.000000, -929.000000) translate(0.000000, 0.500000)" fill="#000000">
            <path d="M939.5,1856 C921.2,1852.7 885,1841.4 823.5,1820 C734,1788.7 720.2,1784.7 645.5,1768.1 C535.5,1743.8 432.8,1726.8 359.5,1720.9 C333.6,1718.8 283.8,1719.4 268.2,1721.9 C242.5,1726.1 224.5,1732.7 206.5,1744.5 C188.6,1756.2 173.7,1765.1 163.2,1770.2 C154.2,1774.6 153.6,1774.7 146.6,1774.3 C136.9,1773.7 129.6,1770.2 122.1,1762.7 C118.9,1759.5 115,1754.5 113.6,1751.6 C107,1738.7 105.2,1720.8 109,1705.9 C112.8,1691 125.6,1667.8 141.3,1647 C169.6,1609.9 213.5,1571.1 239.1,1560.8 C245,1558.4 246.2,1558.3 257.5,1558.8 C264.1,1559.1 277.8,1560.7 288,1562.4 C312.4,1566.5 320.4,1566.7 326.2,1563.3 C332.9,1559.3 338.8,1553.6 352.2,1538.4 C390.5,1494.5 395.7,1481.4 396.7,1426.5 C397.5,1382 396,1369.6 372.6,1222 C367,1186.4 363.9,1173.3 343.5,1096 C337.3,1072.4 327.4,1034.6 321.5,1012 C309.7,966.5 303.3,943.8 293.6,913.8 C259.9,809 197.1,647.8 138.5,515.5 C104.2,438.2 89.9,409.5 60.6,359 C12,275.5 0,253.9 0,249.5 C0,242.7 6.3,236.5 13.2,236.5 C37.4,236.5 107.8,303.8 160.7,377.5 C174.9,397.3 176.3,399.5 245.1,510 L310.5,615 L346.1,685.9 C365.7,724.9 381.9,756.4 382.2,755.9 C383.3,754.1 387,737.8 388.9,726.5 C393,702.4 396.5,663.8 398,625.5 C399.4,590.5 402.8,535 408.5,455 C409.9,435.8 413.5,360.4 416.5,287.5 C419.6,213.1 422.6,149.4 423.5,142.2 C428.6,99.1 442,63.5 469.1,20.5 L477,7.9 L491.2,4 C503.4,0.6 506.9,1.20792265e-12 515,0.1 C526.9,0.2 531.2,1.7 549.2,12.7 C567.3,23.6 570.4,26 574.5,31.9 C581,41.4 583.9,52.5 592,99.2 C597.4,130.8 598.7,135.8 603.2,142.2 C611.2,154 632.6,162.2 678.9,171.4 C708.2,177.3 808.6,193.6 839.5,197.6 C910.7,206.7 955.1,214.7 968.5,220.9 C979.3,225.9 989.3,235.5 996.3,247.5 C1000.3,254.4 1005.5,268.8 1008.9,282 C1016,310.4 1018,322.9 1054.5,569 C1068.5,663.6 1080.7,744.2 1081.6,748 C1082.5,751.9 1089.2,772.1 1096.5,793 C1120,860.4 1122.5,870.7 1118.6,885.2 C1112.7,907.3 1090.7,932.5 1054.6,958.2 C1028.2,977 993,995.5 968.1,1003.6 C959.5,1006.4 957.3,1006.8 947.4,1006.7 C934.8,1006.6 922.9,1004.5 915.5,1001.1 C912.8,999.8 902.6,993.6 893,987.3 C883.4,981 874,975 872.2,974.1 C870.5,973.2 803.2,958.5 722.7,941.5 C642.3,924.5 574.9,910.1 573,909.5 C571.1,908.9 557.4,906 542.5,903 L515.5,897.5 L480.5,909.1 C461.3,915.5 445.1,921.1 444.7,921.5 C444.3,921.9 461.1,977.9 482,1046.1 L520.1,1170 L554.2,1303.5 L588.2,1437 L587.7,1450 C587.1,1464.1 584.7,1474.8 578.9,1489.3 C571.2,1508.7 563.2,1517.3 501.1,1573.4 L470.7,1600.9 L491.1,1605.2 C569,1621.6 665.7,1640.7 737.6,1653.9 C806,1666.6 828.4,1670.3 857.6,1673.9 C916,1681.2 918.4,1681.4 970,1684 C1048.3,1687.9 1059.9,1689.1 1073.5,1694.4 C1097.1,1703.5 1109,1721 1109,1746.5 C1109,1766 1102.3,1781.5 1086.9,1797.9 C1062,1824.6 1010.6,1849.3 966.2,1856 C954.7,1857.8 948.9,1857.8 939.5,1856 L939.5,1856 Z M924,843.5 C924,841.9 919.9,789.6 915,727.3 L906,614 L889,480 C879.6,406.3 871.7,344.8 871.4,343.4 C870.4,338.1 865.9,336.9 749,311.9 C640.4,288.7 622.2,285.1 598.7,282 C586.1,280.4 574,280 574,281.3 C574,281.7 566.8,383.9 558,508.4 C547.7,654.6 542,740.4 542,750.5 L542,766.1 L581.8,775.4 C633.7,787.5 869.9,840.8 881.5,843 C889.2,844.5 902.9,845.7 919.8,846.3 C923.8,846.5 924,846.4 924,843.5 L924,843.5 Z" id="Shape" sketch:type="MSShapeGroup"></path>
        </g>
    </g>
</svg>