<?xml version="1.0" encoding="UTF-8" standalone="no"?>
<svg width="2300px" height="2127px" viewBox="0 0 2300 2127" version="1.1" xmlns="http://www.w3.org/2000/svg" xmlns:xlink="http://www.w3.org/1999/xlink" xmlns:sketch="http://www.bohemiancoding.com/sketch/ns">
    <!-- Generator: Sketch 3.0.4 (8054) - http://www.bohemiancoding.com/sketch -->
    <title>Slice 2</title>
    <desc>Created with Sketch.</desc>
    <defs></defs>
    <g id="Page-1" stroke="none" stroke-width="1" fill="none" fill-rule="evenodd" sketch:type="MSPage">
        <g id="Group" sketch:type="MSLayerGroup" transform="translate(1149.750000, 1063.750000) scale(1, -1) translate(-1149.750000, -1063.750000) translate(0.100000, 0.600000)" fill="#000000">
            <path d="M2082.8,2125.9 C2066.4,2124.7 2051.2,2122.3 2016.4,2115.4 C1867.2,2085.9 1497,2037 1069.4,1990.4 C809.6,1962.2 636.3,1945.9 594.9,1945.9 C562.2,1946 536.5,1952 506.4,1966.9 C489.9,1975 478.5,1982.5 459.4,1997.5 C444.6,2009.2 428.7,2020.5 423,2023.4 C420.3,2024.7 417.9,2025 412.5,2024.7 C400.5,2023.9 393.3,2018.6 388.8,2007.2 C386.8,2002.1 386.5,1999.7 386.6,1987.9 C386.8,1936.2 418,1873.7 470.3,1820.1 C502.4,1787.2 533.5,1765.6 563.7,1755.1 C574.2,1751.5 574.6,1751.4 589.9,1751.4 C604.3,1751.4 606.3,1751.6 618.9,1754.9 C626.3,1756.8 641.4,1761.4 652.4,1765.2 C694,1779.4 701.9,1781.9 716.9,1785.8 C734.4,1790.4 790.1,1802.9 792.8,1802.9 C796.5,1802.9 813.8,1780.2 820.8,1766.1 C833.5,1740.9 838.4,1714.1 838.4,1670.9 C838.4,1640.7 837.6,1633.3 831.4,1602.4 C822.6,1558.5 803.9,1503.4 777.4,1443.4 C766.2,1418.2 735.5,1356.6 721,1330.7 C664.5,1229 584.8,1105 514.4,1008.9 C406.5,861.7 293.1,733.8 109.3,552 C51.9,495.2 17.2,459.8 9,449.5 C1.8,440.4 -0.5,434.8 0.1,427.9 C1,419 6.2,415.5 18.4,415.6 C46.1,415.7 102.8,449.1 215.9,531.8 C310,600.6 391.9,671.6 479.9,760.5 C554.4,835.8 616.5,907.3 681.9,992.7 C690.8,1004.4 698.2,1013.9 698.4,1013.7 C698.5,1013.5 710.8,997.3 725.8,977.6 C740.8,957.9 755.3,938.3 757.9,934 C774.9,906.6 788,869.8 797.4,823.6 C804.1,790.3 806.7,767.5 816.3,656.8 C824.8,559.5 826.9,531.1 834.9,400.4 C839.9,319.6 844.4,245.8 844.9,236.4 C847.1,200 850.4,161.9 853.5,138.9 C858.1,103.9 869.9,71.5 887.4,45.4 C900.5,25.8 913.7,13.4 929.2,6 C939.8,0.9 946.2,-0.4 957.9,0.1 C965.6,0.4 968.5,0.9 973.2,3.1 C996.4,13.9 1012.5,50.4 1021.5,112.4 C1022.4,119 1023.3,124.5 1023.3,124.6 C1023.6,125.1 1061.4,131.3 1086.4,134.9 C1210.3,152.8 1386.9,170.3 1536.4,179.3 C1658.3,186.7 1756.8,187.8 1900.4,183.4 C1966.7,181.4 2037.2,178.9 2087,176.8 C2141.6,174.5 2155.1,176.9 2170,191.8 C2180.4,202.2 2185,213.7 2187,234.9 C2188.9,253.9 2185.6,271.5 2177.7,284.6 C2167.5,301.6 2147.3,318.4 2119.3,333.1 C2110.2,337.8 2107.9,339.5 2108.4,340.8 C2109.7,344.1 2123.7,396.9 2151.8,503.9 C2192.4,658.6 2224.1,770.6 2244.7,831.9 C2266.3,895.9 2272.2,911.5 2284.9,937.9 C2290.9,950.3 2296.5,963.1 2297.5,966.4 C2303.8,988.5 2293.7,1012.7 2265,1044.4 C2231.4,1081.6 2167.5,1126.5 2121.4,1145.3 C2105.1,1151.9 2095.3,1154.2 2083.9,1154.1 C2073.4,1154 2046.9,1149.8 2025.8,1144.9 C1979.9,1134.4 1965.1,1132.4 1834.9,1119.4 C1583.9,1094.3 1284.1,1060.4 1108.4,1037.4 C1094.1,1035.5 1060.4,1031.1 1033.4,1027.5 C956.3,1017.4 948.4,1016.6 926.9,1017.2 C912.8,1017.6 905.2,1018.3 894.9,1020.3 C871.8,1024.7 862.2,1028 844.9,1037.7 C808.5,1058 783.4,1069.5 760.4,1076.3 C754,1078.2 748.5,1080 748.3,1080.2 C748.1,1080.4 754.4,1090 762.5,1101.5 C822.1,1186.8 902,1313.2 953.3,1403.2 C1011.5,1505.4 1045.8,1580.2 1051.9,1618.2 C1060.1,1669.2 1018.9,1738.9 933.6,1818.6 L920.8,1830.5 L940.1,1833.8 C1157.6,1870.7 1503,1905 1896.4,1928.9 C2034,1937.2 2041.9,1937.4 2114.9,1934 C2170,1931.5 2199,1931.3 2213.8,1933.5 C2226.2,1935.3 2241.4,1940.2 2249.5,1945 C2257,1949.4 2265.7,1958.1 2269.2,1964.6 C2272.9,1971.5 2275.9,1983.7 2275.9,1991.9 C2275.9,2022.5 2246.9,2060.6 2200.4,2091.1 C2160.8,2117.1 2121.5,2128.7 2082.8,2125.9 L2082.8,2125.9 Z M1975.4,984.9 C1998.5,983.5 2008.8,979.9 2018.3,969.9 C2027.1,960.7 2031.9,949 2035.1,929.4 C2036.8,918.3 2036.6,881.2 2034.5,861.9 C2033.6,853.4 2026.1,796.5 2017.8,735.4 L2002.8,624.4 L1983.4,516.4 C1968.2,432 1962.4,402.2 1957,379.9 C1953.2,364.2 1949.3,348 1948.4,343.8 L1946.8,336.2 L1937.6,335.5 C1887.7,332.1 1829.4,329 1692.9,322.4 C1591.1,317.5 1578.9,316.6 1446.4,303.4 C1334,292.2 1239.7,281.8 1143.4,269.9 C1093.5,263.8 1040.5,258.2 1021.3,257.2 L1010.1,256.6 L1009.5,259.5 C1008.2,265.5 1002.9,297.9 1001,310.9 C994.7,354.2 991.2,400 974.4,656.4 C966.4,778.6 959.9,879.8 959.9,881.5 L959.9,884.5 L995.2,889.7 C1154.2,913.4 1270.8,929.7 1350.9,939.4 C1595.8,969.2 1756.6,982.3 1907.9,984.8 C1931.8,985.2 1953.4,985.6 1955.9,985.7 C1958.4,985.8 1967.2,985.4 1975.4,984.9 L1975.4,984.9 Z" id="Shape" sketch:type="MSShapeGroup"></path>
        </g>
    </g>
</svg>