<?xml version="1.0" encoding="UTF-8" standalone="no"?>
<svg width="1343px" height="2083px" viewBox="0 0 1343 2083" version="1.1" xmlns="http://www.w3.org/2000/svg" xmlns:xlink="http://www.w3.org/1999/xlink" xmlns:sketch="http://www.bohemiancoding.com/sketch/ns">
    <!-- Generator: Sketch 3.0.4 (8054) - http://www.bohemiancoding.com/sketch -->
    <title>Slice 2</title>
    <desc>Created with Sketch.</desc>
    <defs></defs>
    <g id="Page-1" stroke="none" stroke-width="1" fill="none" fill-rule="evenodd" sketch:type="MSPage">
        <g id="Group" sketch:type="MSLayerGroup" transform="translate(671.500000, 1041.500000) scale(1, -1) translate(-671.500000, -1041.500000) " fill="#000000">
            <path d="M1093,2083 C1074.8,2081.2 1053.4,2075.8 919.5,2039.6 L806.5,2009.1 L619.3,1973 C472.7,1944.8 429.4,1936.7 419.3,1936 C397.8,1934.4 321.1,1934.8 310.5,1936.5 C291.4,1939.6 253,1950.9 191.3,1971.6 C169.1,1979.1 150.3,1985 149.3,1984.8 C146.7,1984.3 136.6,1969.8 131,1958.5 C122.9,1942.5 122.2,1931.3 128,1916.1 C145.1,1871.9 229.5,1803.6 292.8,1782.9 C300.8,1780.3 304.5,1779.6 314,1779.3 C324.7,1778.9 328.3,1779.3 367.2,1785.9 C414,1793.8 423.4,1795 432.7,1793.8 C458.5,1790.7 470.3,1766.7 463.1,1731.5 C457.2,1702.6 438,1646.3 420,1605 C409.4,1580.7 309,1375.6 302,1363.9 C275.8,1320.3 244.6,1285.4 220.9,1273 C216,1270.4 206,1267 192.4,1263.1 C133.5,1246.3 127,1241.7 127,1216.6 C127,1201.7 130.7,1190 140.1,1174.3 C142.8,1169.8 147.6,1162.9 150.7,1158.8 C160.4,1146.2 187.9,1115.1 202,1100.7 C222.5,1079.7 232.3,1074.1 251,1072.5 C272.9,1070.7 286.7,1075.6 333.1,1101.2 C381.9,1128.3 392.7,1133.3 422,1143 C431.6,1146.2 451.9,1153.4 467,1159 C482.1,1164.6 506.7,1173.7 521.5,1179.2 C561.6,1194.1 578.8,1200 581.9,1200 C589.8,1200 605.5,1187.1 618,1170.5 C636.7,1145.4 653.2,1110.5 658.4,1084.8 C659.8,1078.3 660.2,1058.5 661.5,962.3 C662.3,899.2 662.7,847.4 662.4,847.1 C661.2,845.8 454,800.8 443.5,799.5 C416.7,796.3 373.4,794 337.5,794 C296.4,794 285,796 252,808.8 C217.9,822 210,824.4 199.5,824.4 C191.8,824.5 189.7,824.1 184.7,821.8 C177.5,818.4 168.6,810 165.2,803.5 C159.5,792.4 161.8,767.9 171.1,739 C176.1,723.7 180.3,716.7 190.5,706.4 C210.7,686.2 250.8,664.6 298.5,648.3 C339.7,634.2 356.7,633 395.5,641.1 C416.4,645.5 426,648.1 546.4,682.9 C607.4,700.6 657.4,714.9 657.5,714.8 C657.6,714.6 659.4,642 661.5,553.3 L665.4,392.2 L663.1,372.3 C661.8,361.4 660.4,351.6 659.9,350.4 C658.5,346.6 627.3,335 590.2,324.5 C581.2,322 507.4,300.5 426.2,276.8 C345,253.1 274.9,232.8 270.5,231.7 C263.4,230 260.2,229.8 241,230.3 C211.6,231.1 174.8,235.5 153.9,240.9 C145.9,242.9 143.9,243.7 94.5,262.8 C39.9,283.9 38.4,284.4 30.5,284.5 C15.8,284.5 5.5,274.9 1.4,257.3 C-1.1,246.5 -0.1,222.3 3.4,210.7 C11.9,182.5 32.9,154.4 89.9,95.7 C128.6,55.7 155.5,30.9 173.8,18.2 C192.2,5.5 203.2,1.1 218.7,0.3 C228.1,-0.2 229.7,2.08409678e-12 236.7,2.5 C253.1,8.3 281.9,22.8 329.6,49.3 C352.7,62.1 377.1,74 465.6,115.5 C567.2,163.2 581.6,169.6 712.1,225.5 L850.7,284.9 L968.6,343.5 L1086.5,402.1 L1188.3,462.3 C1254.1,501.2 1292.1,524.2 1295.6,527.4 C1302.4,533.4 1305,538.3 1305,545 C1305,556 1297,563.2 1283.2,564.6 C1274.5,565.6 1261.3,563.4 1250.9,559.4 C1171,528.5 817.7,401.9 816.1,403.6 C815.2,404.5 818.1,734.6 819.1,741 C820.3,748.8 824.2,756.4 828.4,758.9 C830.1,760 838.3,762.2 846.5,763.9 C865,767.6 925.3,777.7 957.5,782.4 C985.8,786.6 1178.9,818.2 1190.5,820.6 C1208.1,824.1 1225.1,832.9 1236.4,844.4 C1248,856 1252.7,867.9 1251.8,883.4 C1251,897.3 1245.5,909 1234,921.3 C1207.1,950.1 1163.2,962.4 1102.5,958.1 C1072.9,956 1061,953 1037,941.5 C1025.9,936.2 1016.9,932.6 1012.5,931.6 C1003.9,929.8 825.2,888.2 822.6,887.4 C820.7,886.8 820.7,887.4 821.4,910.3 C822.1,937 824.3,974.9 826.5,998.5 C830.3,1039.5 830.8,1044.4 835.6,1078.4 C843.6,1135.9 843.9,1152.8 837.5,1166.5 C831.1,1180 815.3,1194.3 757.1,1239.5 L741.8,1251.5 L744.6,1252.6 C751.5,1255.5 1114.5,1410.2 1115.1,1410.5 C1116.1,1411.2 1162.8,1317.4 1173.9,1292.3 C1179.5,1279.5 1190.1,1255 1197.4,1237.8 C1204.6,1220.5 1212.3,1203.9 1214.3,1200.9 C1227.9,1180.4 1248.1,1164.1 1265.6,1159.5 C1273.8,1157.4 1285.4,1157.6 1293.2,1160 C1314.8,1166.6 1331.3,1188.8 1338.6,1220.9 C1345.1,1249.7 1343.8,1295.6 1335.4,1334 C1326.6,1373.7 1307,1410.9 1274,1450.5 C1243.6,1487.1 1184.3,1543.8 1136,1582.6 C1050.9,1650.9 981.9,1695.8 941.3,1709.3 C927.6,1713.9 925.9,1714 926.5,1710.3 C926.8,1708.7 927.4,1702.6 928,1696.5 L929.1,1685.6 L951.9,1655 C1003,1586.5 1032.9,1542.2 1050.3,1509.2 C1053.5,1503 1056,1497.6 1055.6,1497.3 C1054.9,1496.6 998.7,1476.5 962.5,1464 C948.2,1459.1 884.5,1438.2 820.9,1417.5 L705.3,1380 L542.9,1339 C453.6,1316.5 380.5,1298.2 380.4,1298.3 C380.3,1298.4 416.4,1352.5 460.5,1418.4 C510.4,1492.9 544.6,1542.9 550.7,1550.4 C583.1,1590.2 616.3,1629.1 642.5,1657.9 C672,1690.4 683.6,1710.8 684.8,1732.5 C685.5,1747 682.5,1756.4 672.9,1769.8 C666.8,1778.2 633.7,1810.5 615.2,1826 C606.4,1833.4 599.1,1839.7 599.1,1840 C599,1840.3 656.7,1851.5 727.3,1864.8 L855.5,1889.1 L962.5,1903.8 L1069.5,1918.5 L1155.9,1918.2 C1217.4,1918 1243.9,1918.2 1247.9,1919 C1265.9,1922.7 1281.3,1936 1287,1953.1 C1289.7,1960.9 1289.9,1975.5 1287.5,1984.4 C1282.7,2002.6 1267.7,2020.9 1245.5,2035.7 C1216.8,2054.9 1170.3,2072.3 1125,2080.8 C1111.6,2083.4 1102.4,2084 1093,2083 L1093,2083 Z" id="Shape" sketch:type="MSShapeGroup"></path>
        </g>
    </g>
</svg>