<?xml version="1.0" encoding="UTF-8" standalone="no"?>
<svg width="2372px" height="2119px" viewBox="0 0 2372 2119" version="1.1" xmlns="http://www.w3.org/2000/svg" xmlns:xlink="http://www.w3.org/1999/xlink" xmlns:sketch="http://www.bohemiancoding.com/sketch/ns">
    <!-- Generator: Sketch 3.0.4 (8054) - http://www.bohemiancoding.com/sketch -->
    <title>Slice 2</title>
    <desc>Created with Sketch.</desc>
    <defs></defs>
    <g id="Page-1" stroke="none" stroke-width="1" fill="none" fill-rule="evenodd" sketch:type="MSPage">
        <g id="Group" sketch:type="MSLayerGroup" transform="translate(1186.150000, 1059.650000) scale(1, -1) translate(-1186.150000, -1059.650000) translate(0.300000, 0.500000)" fill="#000000">
            <path d="M1928.2,2118.2 C1898.8,2115.6 1820.7,2098.9 1730.7,2076.1 C1689.4,2065.6 1689.1,2065.5 1667.7,2063.7 C1655.9,2062.6 1603.9,2058.2 1552.2,2053.8 C1358.2,2037.2 1069.4,2011.3 912.6,1996.3 C887,1993.9 842.7,1988.9 814.1,1985.3 C617.8,1960.5 585.8,1956.6 550.2,1953.4 C521.2,1950.7 514.6,1950.6 485.7,1952.2 C470,1953.1 445.7,1954.2 431.7,1954.8 C364,1957.5 325,1963.3 287.7,1976.3 C268.1,1983.2 257,1988.9 236.6,2002.6 C225.8,2009.9 213.9,2017.4 210.1,2019.4 C203.8,2022.7 202.6,2023 197.1,2022.5 C185.5,2021.6 172.3,2011.9 166.1,1999.6 C158,1983.5 157.5,1956.3 165,1934.3 C178,1896.3 209.4,1865.6 290.9,1811.1 C320.4,1791.4 337.3,1782 348.2,1779.3 C356.7,1777.2 375.9,1777.4 389.9,1779.7 C396.1,1780.8 431.6,1787.5 468.7,1794.7 C583.9,1816.9 598.4,1819.5 625.2,1823.3 C639.5,1825.3 703.6,1834.3 767.6,1843.4 C839.3,1853.5 885.2,1859.6 887.1,1859.2 C899.7,1856.6 902.6,1849.1 896.7,1834 C882.3,1796.6 815.4,1707.1 722.7,1601.3 C682.4,1555.3 648.1,1518.5 600.4,1470.2 C573,1442.5 569.8,1439.5 559.9,1433.4 C542,1422.2 520.6,1412.4 455.9,1385.7 C438.7,1378.6 422.2,1371.4 419.2,1369.7 C405.2,1361.8 397.9,1351.1 397,1337.2 C396.6,1330.1 396.9,1328.2 400,1318.8 C410.6,1286.7 433.3,1242.1 451.3,1218.2 C464.5,1200.6 479.6,1187.7 490.9,1184.3 C497.6,1182.3 509,1182.4 518,1184.4 C529,1186.9 546.4,1194.2 581.2,1210.8 C609.4,1224.3 636.7,1233.4 669.9,1240.3 C699.5,1246.5 914.6,1281.3 947.7,1285.3 C982,1289.4 984.9,1289.5 990.3,1287.8 C1001.3,1284.2 1020.6,1266.4 1036.8,1244.8 C1049.1,1228.4 1066.3,1202 1070.3,1193.2 C1079.1,1174.2 1086.8,1131 1091.1,1076.8 C1094.3,1037.3 1094.8,1009.5 1094.5,909.1 C1094.2,809.1 1094.2,808.9 1092.1,806.1 C1087.8,800.4 1086.8,800.2 1045.2,796.4 C1023.8,794.4 995.9,792.1 983.2,791.2 C970.6,790.3 904.6,784 836.7,777.1 C768.8,770.3 704.2,764.3 693.2,763.7 C659.5,762.1 614.6,764.7 579.7,770.4 C555.7,774.3 555.3,774.4 491.2,799.3 C465.9,809.1 459.6,812 451.2,817.5 L441.2,824 L434,823.6 C420.9,822.7 409.2,814.7 403.1,802.3 C400.4,796.8 400.2,795.4 400.2,785.8 C400.2,776.6 400.6,774.2 403.5,765.8 C407.6,754.1 414.2,739.9 419,732.8 C435.7,708.1 499.2,652.9 547.4,621.4 C572.9,604.7 590.8,596.8 602.9,596.8 C616.9,596.9 643.3,601.8 690.7,613.3 C752.5,628.3 783.9,634 848.2,641.8 C862,643.5 919.2,650.9 975.5,658.3 C1031.8,665.7 1080.4,671.8 1083.6,671.8 L1089.4,671.8 L1090.8,638.6 C1092.3,602.4 1092.5,539.4 1091.7,353.1 C1091.2,240.6 1091.2,239.8 1089.2,239.8 C1077.3,239.8 829.2,217.9 614.2,197.8 C542.6,191.2 496,187.5 434.7,183.7 C407.3,182 279.3,181.3 262.3,182.8 C228.5,185.6 201.1,192.1 145.6,210.4 C131.6,215 112,222.3 102.1,226.7 C77.7,237.4 58,245.2 47.2,248.3 C23.4,255.3 6.9,245.5 1.1,221.1 C-0.9,212.5 -0.2,193.1 2.6,180.8 C6.8,162.4 15,144.7 24.5,133.6 C33.9,122.6 54.3,104.4 102.7,64.1 C117.3,51.9 134.4,37.6 140.7,32.3 C156.8,18.7 165.4,12.4 174,7.8 C186,1.3 189.1,0.6 209.4,0.1 C239.4,-0.7 259.2,2 437.4,31.3 C506.8,42.7 515.8,43.9 588.7,52.2 C902.6,88 1170.1,106.3 1413.7,108.6 C1570.9,110.2 1672.6,107.9 1985.7,95.7 L2040.2,93.6 L2173.2,74.7 C2264,61.8 2308.9,55.8 2314.7,55.8 C2335.6,55.9 2353.9,68.3 2364.3,89.3 C2369.7,100.3 2371.7,109 2371.7,122.7 C2371.7,135.7 2369.9,143.5 2364.1,155.3 C2350,184.2 2314.7,211.5 2261.7,234.5 C2199.2,261.7 2106.9,282.8 2050.5,282.8 C2032.6,282.8 2019.5,281.2 1959.1,271.8 C1904.5,263.3 1883.1,260.1 1867.6,258.3 C1856.2,257 1823.6,256.5 1673.1,255.3 C1560.2,254.4 1445.9,252.9 1368.9,251.2 C1301,249.8 1245.2,248.9 1244.9,249.3 C1243.1,251.1 1245.1,604.7 1247.3,668.3 L1248,687.4 L1372.1,698.1 C1487.5,708.1 1502.7,709.2 1589.2,713.8 C1640.4,716.6 1687.9,718.8 1694.9,718.8 C1701.8,718.8 1733.1,717.2 1764.4,715.3 C1898.7,707.1 1916.3,706.9 1941.7,712.9 C1960.2,717.3 1974.7,727.7 1979.8,740.3 C1981.9,745.6 1982.2,747.9 1982.2,759.4 L1982.2,772.5 L1977.5,781.9 C1968.2,800.6 1948.7,818 1919.7,833.8 C1871.3,860.1 1795.7,882.1 1754.2,881.9 C1731.9,881.9 1716.7,879.3 1673.2,868.4 C1658.9,864.8 1635.7,859.4 1621.7,856.3 L1596.2,850.8 L1425.8,836.3 C1332.1,828.3 1255.2,821.9 1255,822.1 C1254.6,822.5 1256.5,852.2 1259.7,897.8 C1260.8,912.9 1263.3,966.5 1265.2,1016.8 C1267.1,1067.1 1269.6,1119.1 1270.7,1132.3 C1273.6,1166.8 1274.1,1181.5 1272.8,1196.3 C1271.4,1212.6 1269.6,1220.1 1264.5,1230.7 C1258.1,1244.2 1243.9,1257 1219.7,1271.3 C1216.1,1273.4 1196.1,1283.9 1175.2,1294.5 C1154.3,1305.1 1137.5,1313.8 1137.8,1313.8 C1138.2,1313.8 1222.6,1327.8 1325.3,1344.8 C1428.1,1361.9 1530.9,1378.8 1553.7,1382.3 C1616.6,1392 1678.8,1402 1734.2,1411.3 L1784.2,1419.8 L1789.7,1413.9 C1831.5,1369.3 1844.5,1354.1 1874.4,1314.3 C1914.5,1261 1932.7,1238.7 1948.8,1223.2 C1964.7,1208 1980.4,1198.7 1996.1,1195.3 C2007.6,1192.8 2026.5,1193.6 2036.5,1197.2 C2056.2,1204.1 2071.1,1217.9 2080.8,1238.3 C2099.1,1276.7 2093.4,1327.7 2065.2,1379 C2038.5,1427.3 1993.8,1476.4 1913.2,1545.9 C1891.2,1564.9 1889.5,1566.1 1816.2,1618.9 L1757.2,1661.5 L1670,1715.6 L1582.7,1769.8 L1544,1785.8 L1505.2,1801.9 L1494.3,1800.7 L1483.4,1799.4 L1480.8,1793.9 C1478.7,1789.1 1478.3,1786.8 1478.2,1778.8 C1478.2,1764.3 1479.3,1762.7 1508.6,1736.3 C1540.2,1707.8 1597,1644.5 1647.2,1581.9 C1666.7,1557.6 1693,1522.7 1692.4,1522.1 C1691.6,1521.4 1637.9,1511.1 1613.1,1506.9 C1563.9,1498.6 1513.3,1492.1 1254.2,1460.8 L989.2,1428.8 L838.7,1414.8 C755.9,1407.2 686,1400.6 683.4,1400.3 L678.6,1399.7 L702.4,1421 C813.4,1519.9 868.8,1572.9 965.1,1671.8 C1043.2,1752.1 1076.4,1785.4 1099.7,1806.8 C1143.4,1846.9 1150.6,1856.1 1155.1,1877.7 C1155.9,1881.7 1156.8,1885.2 1157.1,1885.6 C1157.4,1885.9 1244.7,1893 1351,1901.4 C1583.5,1919.8 1645.3,1924 1757.7,1929.4 C1787.2,1930.7 1842.8,1931.4 1862.7,1930.7 C1874.5,1930.2 1919.1,1927.7 1961.7,1925.2 C2046.8,1920.2 2060.9,1920 2078.9,1923.8 C2099.8,1928.2 2112.4,1934.4 2123.8,1945.7 C2136.3,1958.2 2141.6,1972 2141.7,1991.8 C2141.7,2003.4 2140,2010.8 2134.7,2021.3 C2118,2054.5 2067.3,2085.3 1995.1,2106.3 C1968,2114.2 1939.8,2119.2 1928.2,2118.2 L1928.2,2118.2 Z" id="Shape" sketch:type="MSShapeGroup"></path>
        </g>
    </g>
</svg>