<?xml version="1.0" encoding="UTF-8" standalone="no"?>
<svg width="2194px" height="2442px" viewBox="0 0 2194 2442" version="1.1" xmlns="http://www.w3.org/2000/svg" xmlns:xlink="http://www.w3.org/1999/xlink" xmlns:sketch="http://www.bohemiancoding.com/sketch/ns">
    <!-- Generator: Sketch 3.0.4 (8054) - http://www.bohemiancoding.com/sketch -->
    <title>Slice 2</title>
    <desc>Created with Sketch.</desc>
    <defs></defs>
    <g id="Page-1" stroke="none" stroke-width="1" fill="none" fill-rule="evenodd" sketch:type="MSPage">
        <g id="Group" sketch:type="MSLayerGroup" transform="translate(1096.750000, 1220.950000) scale(1, -1) translate(-1096.750000, -1220.950000) translate(0.000000, 0.500000)" fill="#000000">
            <path d="M1015.5,2440.4 C1008.2,2439.5 995.5,2436.1 985.7,2432.4 L980,2430.3 L980,2425.1 C980.1,2412 982.1,2394.1 984.5,2385 C988.7,2368.6 991.3,2351.7 990.5,2344.9 C988.6,2327.1 979.6,2296.8 969.7,2274.8 C962.8,2259.5 955.9,2247.1 945.9,2232.4 C941.6,2226.1 894.9,2167.4 842,2101.9 C767.3,2009.4 741.3,1978.1 725.7,1961.2 C711.8,1946.2 678.8,1914 619.5,1857.4 C536.7,1778.5 533,1775.1 519,1765.6 C494.1,1748.8 485.8,1742.2 472,1728.4 C462.4,1718.8 457.5,1707.8 453.8,1687.4 C451.3,1673.2 450,1626 451.9,1614.7 C455.1,1595.6 467.8,1583.4 490.5,1577.5 C494.9,1576.3 508.9,1574 521.5,1572.4 C567.6,1566.3 593.5,1560.9 621,1551.5 C675.4,1533 733.4,1498.6 830.8,1427.1 C843.5,1417.7 854,1409.8 854,1409.4 C854,1407.9 688.5,1248.9 679.5,1241.7 C608.4,1185.5 570.9,1159.4 536,1141.9 C519,1133.4 506.7,1128.6 469.5,1116.4 C450.8,1110.2 430.4,1103.2 424.2,1100.8 C401.8,1092.2 385.5,1082.3 371,1068.7 L364.7,1062.8 L365.9,1052 C368.7,1027.1 376.8,1009.7 400.4,977.9 C419.9,951.8 442.5,927.6 455.1,919.4 C468.5,910.8 482.1,909.2 503.1,913.8 C526.4,918.9 550.6,926 623,948.9 C649.7,957.4 676.9,965.9 683.5,967.8 C703.5,973.7 972.9,1037.3 981.9,1038.3 C1004.5,1040.8 1021.7,1031.7 1036.5,1009.5 C1062.1,971.1 1075.9,907.9 1076,828.4 C1076,816.6 1073.8,718 1071,609.4 L1065.9,411.9 L1055.9,298.9 C1045.8,186.4 1045.8,185.8 1046.3,162.9 C1047.1,124.1 1053.7,95.2 1068.5,64.9 C1084.4,32.3 1104.2,11.5 1127.8,2.6 C1133.5,0.4 1136.2,-1.2613955e-13 1146,-1.2613955e-13 C1158.4,-0.1 1163.1,1 1174.2,6.5 C1200.1,19.5 1221.5,58 1227.5,102.5 C1228.5,110.4 1230.4,207.6 1235.4,513.4 C1239,733.7 1242.4,918.9 1243,924.9 C1243.5,931 1244.5,940.5 1245.2,946.1 C1246.3,955.9 1246.3,956.8 1244.1,963.4 C1239.2,978.9 1225.6,1001.4 1208.4,1022.9 C1199.7,1033.7 1171.8,1062.6 1163.1,1069.8 C1160.6,1071.8 1158.8,1073.5 1159.1,1073.7 C1159.3,1073.9 1182.7,1080.3 1211,1087.8 C1388.4,1135.3 1492.2,1164.2 1616.8,1200.8 C1689.1,1222.1 1749.4,1239.7 1750.9,1240 C1753.5,1240.6 1754.2,1239.7 1769.5,1214.7 C1813.9,1142.4 1823.6,1126.9 1839.6,1102.9 C1859.8,1072.7 1869.2,1060.3 1881,1048.4 C1910.4,1018.8 1954.1,1001 1978,1008.8 C1988.7,1012.4 1997.1,1017.6 2005.5,1025.9 C2010,1030.3 2015.1,1036 2016.8,1038.6 C2022.4,1046.9 2028.1,1059.4 2030.7,1069.3 C2033,1077.6 2033.3,1081 2033.3,1093.9 C2033.3,1133.6 2017.9,1175.8 1986,1223.4 C1966.1,1253.1 1946.7,1275.9 1912.1,1310.5 C1876.7,1345.8 1851.7,1367.4 1810.5,1398.3 C1716.3,1469 1612.8,1523.5 1562,1529.3 C1548.3,1530.8 1541.3,1528.8 1537.2,1522.1 C1535.3,1519.1 1532,1508.7 1532,1505.8 C1532,1505.2 1536.6,1501.2 1542.3,1496.8 C1572.7,1473.4 1594.4,1451.8 1621.6,1417.9 C1643.1,1391.1 1688.5,1328.5 1687.3,1327.3 C1684.6,1324.7 1579.3,1297.7 1502,1279.9 C1450,1267.9 1420.2,1262.1 1212.1,1223.8 C1002.3,1185.1 994.7,1183.8 870.1,1164.3 C800.1,1153.3 742.5,1144.5 742.3,1144.7 C742.1,1145 776.5,1176.8 818.7,1215.5 L895.5,1285.9 L1074.6,1436.9 C1229.8,1567.9 1280.4,1609.8 1455.8,1752.9 L1658.1,1917.9 L1688,1936.9 C1729.4,1963.2 1744.2,1975.8 1748.7,1988.9 C1751.3,1996.2 1751.3,2024.7 1748.7,2032.1 C1745.1,2042.3 1734.3,2055 1714.8,2071.7 C1702.5,2082.3 1622.7,2145.9 1608.5,2156.5 C1570.8,2184.5 1552.3,2191.5 1518.8,2190.1 C1508.6,2189.7 1503.5,2189 1497,2187.1 C1488.5,2184.6 1467.1,2176 1465.9,2174.6 C1465.2,2173.9 1475.8,2139.4 1478.2,2134.7 C1479,2133.2 1483.8,2124.4 1488.8,2115.2 C1493.9,2106 1499.5,2095 1501.3,2090.7 C1504.3,2083.4 1504.5,2082.1 1504.5,2071.4 C1504.5,2061.8 1504.1,2058.8 1502.2,2053.5 C1496.7,2038.7 1498.6,2040.8 1393.1,1935 C1310.3,1852 1266.5,1809.2 1133,1681.1 C1044.7,1596.4 970.2,1524.9 967.3,1522.1 L962.1,1517.1 L934.7,1536.7 C910.1,1554.2 754.6,1658 726,1675.9 C711.1,1685.2 689.1,1698.2 671.4,1708.1 L657.2,1716 L807.9,1856.4 C948.8,1987.9 963.7,2002 1039,2077 C1117.9,2155.4 1119.9,2157.3 1138,2170.9 C1193.4,2212.5 1203.3,2222.1 1210.2,2241 C1213.1,2249.1 1213.8,2264.1 1211.6,2271.7 C1209.7,2278.4 1202.8,2288.8 1192.9,2300.4 C1146.4,2354.4 1094.5,2408.4 1075.3,2422.7 C1064.2,2430.9 1053.8,2436.4 1044.9,2438.7 C1037.5,2440.7 1024,2441.4 1015.5,2440.4 L1015.5,2440.4 Z" id="Shape" sketch:type="MSShapeGroup"></path>
            <path d="M1629,879.4 C1627.1,879.1 1624.5,878.2 1623.2,877.5 C1620.4,876 1616.1,870.2 1613.5,864.5 L1611.6,860.2 L1629.1,843.7 C1655,819.1 1728.3,745.3 1745.7,726.4 C1764.9,705.5 1780.3,687.5 1789.5,675.4 C1814.8,641.9 1872.5,557.3 1898.2,515.9 C1904,506.6 1935.7,452.1 1968.5,394.9 C2006.2,329.2 2030.7,287.6 2035.1,281.8 C2056,254.2 2084.4,236.5 2108,236.4 C2139.6,236.4 2169.8,256.3 2183.9,286.6 C2205.1,331.9 2190.7,405.8 2146.1,480.7 C2106.4,547.2 2041.8,619.6 1959.9,689 C1865.2,769.4 1751.8,841.8 1676.5,869.9 C1657.7,876.9 1637.5,881 1629,879.4 L1629,879.4 Z" id="Shape" sketch:type="MSShapeGroup"></path>
            <path d="M524.3,820.3 C505.6,818.1 486.1,810.4 476.6,801.4 C469.1,794.4 467,789.5 467,779.6 C467,769.6 469.3,764.8 482.3,747.4 C499,725 500,722.3 500.7,697.9 C501.8,659.9 495,644.4 453.5,590.9 C417.3,544.2 379,503.4 326.3,455.3 C281.3,414.2 279.7,412.9 131.7,299.5 C7.5,204.3 5.8,203 3,197.3 L0,191.5 L4.5,186.1 C6.9,183.1 10.7,179.5 12.7,178.2 C16.2,176.1 17.6,175.9 28.5,176 C42.2,176.1 47.6,177.3 102,193.2 L132.5,202.1 L206.8,233.9 C248.7,251.8 284.6,267.8 289.3,270.5 C293.8,273.2 302.9,279.3 309.5,284 C316.1,288.8 332.3,298.8 345.5,306.4 C457.4,370.5 536.1,430.3 649.9,537.8 C688.9,574.6 707.7,596.5 712.6,610.5 C715.5,618.7 715.2,639.7 712.2,647.8 C707,661.8 694.1,680.2 669.9,708.1 C661.9,717.3 649.1,732.1 641.5,740.9 C600.4,788.4 582.7,805.2 564.6,813.9 C552.2,819.8 538.4,822 524.3,820.3 L524.3,820.3 Z" id="Shape" sketch:type="MSShapeGroup"></path>
        </g>
    </g>
</svg>