<?xml version="1.0" encoding="UTF-8" standalone="no"?>
<svg width="1059px" height="1890px" viewBox="0 0 1059 1890" version="1.1" xmlns="http://www.w3.org/2000/svg" xmlns:xlink="http://www.w3.org/1999/xlink" xmlns:sketch="http://www.bohemiancoding.com/sketch/ns">
    <!-- Generator: Sketch 3.0.4 (8054) - http://www.bohemiancoding.com/sketch -->
    <title>Slice 2</title>
    <desc>Created with Sketch.</desc>
    <defs></defs>
    <g id="Page-1" stroke="none" stroke-width="1" fill="none" fill-rule="evenodd" sketch:type="MSPage">
        <g id="Group" sketch:type="MSLayerGroup" transform="translate(529.300000, 944.600000) scale(1, -1) translate(-529.300000, -944.600000) translate(0.300000, 0.100000)" fill="#000000">
            <path d="M420,1887.6 C398.9,1881.9 378.7,1860.4 378.7,1843.6 C378.7,1838.2 379.4,1836.1 386.1,1822.1 C398.2,1797 404.7,1769.1 404.7,1742.6 C404.7,1701.7 379.3,1622.8 326.5,1499.1 C259.5,1342.1 222,1268.9 180.4,1213.7 C166.4,1195.1 155.3,1182.7 127.1,1154 C111.5,1138.1 99.2,1124.6 96.4,1120.4 C89.5,1110 86.8,1100.7 85.8,1084.3 C84.8,1065.4 86.2,1012 88.1,999.9 C92.8,970.2 102.6,959.6 134.8,949.5 C200.1,929.1 225.4,919.4 257.7,902.4 C305.3,877.3 343.1,849 381.7,809.5 C397.1,793.7 419,768.7 421.7,763.6 C422.7,761.6 416.5,749.7 359.4,645 C258.3,459.5 243.2,432.9 223.4,406.1 C207.3,384.3 158.7,329.2 135.6,306.5 C109.8,281.2 102.4,276.2 71.7,262.6 C15.8,237.8 4.2,228 0.6,202.2 C3.79064835e-13,198 -0.2,192.3 0.1,189.5 C2,172.8 18.5,129.5 36.8,93 C62.1,42.4 87.6,10.1 109,1.9 C115.9,-0.8 126.4,-0.8 133.3,1.8 C140.3,4.5 152,12.7 180.2,34.7 C252.9,91.5 275.7,104.4 347.7,129.9 C384.3,142.8 846.8,300.3 847.1,300 C847.2,299.8 852.9,289.3 859.7,276.6 C886.2,227.1 910,184.4 913.9,179.3 C921.2,169.9 936.5,160.1 949.3,156.7 C958,154.3 973.2,153.6 982.4,155.1 C1018.7,160.9 1047.9,190.2 1055.9,229 C1059.7,247.3 1057.3,276.6 1049.7,303.4 C1039.9,338.4 1018.4,378.8 989.1,417.2 C959.8,455.6 916.7,498.5 872.2,533.6 C795.8,593.7 711.1,635.7 658.1,639.8 L649.7,640.4 L649.7,636.6 C649.7,631 652.8,625.5 661.4,615.4 C706.5,562.9 741.8,510.3 764.3,462 C772.1,445.1 788.1,406.1 787.4,405.5 C787.2,405.3 781.5,402.8 774.7,400.1 C764.6,396 741.8,389.8 647.3,365.7 C534,336.7 530.2,335.8 404.8,308.6 C334.8,293.4 277.3,281.1 277.2,281.3 C277,281.5 311.3,332.5 353.5,394.6 C399.8,462.9 524.5,650.7 669,869.6 C800.5,1068.7 913.5,1239.9 920.2,1250.1 C932.8,1269.1 950.8,1292.2 975.7,1321.1 C1002.7,1352.6 1014,1369.7 1018.3,1385.6 C1019.3,1389.3 1020.1,1397.4 1020.4,1406.6 C1021.3,1435.7 1018.9,1440.4 971.2,1502.1 C939.9,1542.5 938.9,1543.7 921.9,1560.3 C895.7,1585.8 874.5,1599.7 851.1,1606.7 C843.8,1608.8 840.2,1609.3 831.2,1609.4 C817.4,1609.4 809.1,1607.5 796.7,1601.4 C788.7,1597.4 785.8,1595.3 778.2,1587.7 C766.9,1576.3 762.4,1568.2 761.9,1558.1 C761.4,1550.3 763.1,1545.6 769.2,1537.6 C775,1530.1 787.4,1510.4 790.7,1503.6 C794.5,1495.6 795.6,1490.3 795.7,1480.1 C795.7,1452.3 780.5,1398.4 758.8,1349.7 C747.7,1324.8 719.1,1270.6 651.4,1146.6 C591.5,1036.8 558.5,978 528,927.4 L514.1,904.2 L499.6,917.4 C491.6,924.7 477.2,937.8 467.6,946.5 C437.6,974 431,979.1 344.4,1042 L259.9,1103.3 L270.6,1116.5 C308.3,1162.6 335.9,1202.5 384.5,1280.8 C391.8,1292.5 412.8,1328.9 431.4,1361.8 C508.5,1498.7 532,1539 561.8,1585.2 C598.4,1641.9 608.1,1658.5 612.8,1672.6 C615,1678.9 615.2,1681.3 615.1,1696.1 C615,1711.2 614.8,1713.6 612,1724.2 C598.4,1775.8 557.9,1830.5 509.2,1863.3 C491.9,1874.9 470.2,1884.4 453.7,1887.5 C443.6,1889.5 427,1889.5 420,1887.6 L420,1887.6 Z" id="Shape" sketch:type="MSShapeGroup"></path>
        </g>
    </g>
</svg>