<?xml version="1.0" encoding="UTF-8" standalone="no"?>
<svg width="1024px" height="2359px" viewBox="0 0 1024 2359" version="1.1" xmlns="http://www.w3.org/2000/svg" xmlns:xlink="http://www.w3.org/1999/xlink" xmlns:sketch="http://www.bohemiancoding.com/sketch/ns">
    <!-- Generator: Sketch 3.0.4 (8054) - http://www.bohemiancoding.com/sketch -->
    <title>Slice 2</title>
    <desc>Created with Sketch.</desc>
    <defs></defs>
    <g id="Page-1" stroke="none" stroke-width="1" fill="none" fill-rule="evenodd" sketch:type="MSPage">
        <g id="Group" sketch:type="MSLayerGroup" transform="translate(512.000000, 1179.400000) scale(1, -1) translate(-512.000000, -1179.400000) translate(0.000000, 0.400000)" fill="#000000">
            <path d="M450.2,2357.3 C425.8,2354.1 407.7,2338.7 405.4,2319.3 C404.5,2311.5 407.2,2301.7 419.7,2266.4 C436.8,2218 438.5,2210.9 436.1,2195.4 C430.8,2161.1 410.3,2108.8 374,2036.9 C339.4,1968.3 300.9,1902.3 258.5,1838.4 C220.8,1781.7 205.5,1762.2 171.3,1727.1 C144.4,1699.5 135.7,1689.1 130.3,1677.9 C124.2,1665 123.6,1659.9 123.5,1622.4 C123.5,1593.8 123.8,1587.7 125.3,1580.4 C127.8,1568.6 133.9,1556.2 139,1552.5 C146.6,1547 174.2,1534.2 218,1515.7 C243.5,1505 251.8,1500.7 269.2,1489.2 C315.2,1458.9 369.7,1409.5 377.5,1391.2 C378.7,1388.2 378.6,1387.5 376,1382.4 C364,1358.6 301.3,1275 254.8,1220.9 C217.4,1177.3 184.2,1144.2 164,1130.4 C161,1128.4 150.2,1122.1 140,1116.4 C106.5,1097.8 94,1088.4 89,1077.9 C87,1073.6 86.6,1071.1 86.2,1059.4 C85.9,1047.5 86.1,1044.5 88.5,1034.1 C95,1005.3 109.7,971 126.1,946.4 C134.8,933.3 147.7,920.2 155.5,916.4 C162.7,912.9 173.3,912.5 182,915.4 C191.9,918.7 207.6,927.4 228,940.9 C255.3,959 263.5,963.7 285,973.9 C295.7,979 323.2,992.3 346,1003.4 C413.7,1036.3 434.3,1045.5 449.9,1049.5 C462.3,1052.7 461.1,1053.5 469.5,1036.3 C486.3,1002 495,968.7 497.9,927.4 C498.5,919.4 500.2,860.5 501.6,796.4 L504.2,679.9 L500.1,554.4 L496,428.9 L487,290.4 C482.1,214.2 478,149.2 478,145.9 C478,142.6 479.6,124.6 481.7,105.9 L485.4,71.9 L497.4,56.9 C528.3,18.2 540,7.6 557.5,2.1 C563.1,0.4 566.9,9.09494702e-13 576.5,9.09494702e-13 C587.2,9.09494702e-13 589.4,0.4 597,3 C625,12.8 643.2,39.6 648.1,78.1 C649.6,90.1 649,111.1 645.6,163.4 C644.2,184.6 642.6,210 642.1,219.9 C641.3,233.3 641.8,294.4 644,459.9 C647.3,704.4 651,875.1 653.5,897.3 C654.4,904.8 657.3,929.1 660.1,951.4 C665.5,995.6 665.8,1001 663.4,1011.7 C661.4,1020.9 653.6,1036.9 646.8,1045.9 C636.8,1059.1 617.8,1076.6 594.8,1093.9 C590.5,1097 587,1099.9 587,1100.3 C587,1101 590.6,1102.6 624,1116.7 C667.2,1134.9 753.2,1168.4 756.7,1168.4 C757.4,1168.4 758,1167.8 758,1167.1 C758,1165.1 776.3,1105.4 784.1,1082.1 C791.6,1059.5 793.5,1055.8 802.7,1047.3 C823.6,1028 855.4,1028.9 880.9,1049.5 C898.9,1064.1 912.8,1090.7 918.7,1121.7 C921.5,1136.2 921.2,1172.9 918.2,1188.9 C906.9,1249.4 872.6,1308.6 816,1365.4 C784.4,1397.1 751.9,1422.8 716,1444.4 C697.9,1455.3 670.4,1468 658.8,1470.8 C656.3,1471.4 655.8,1471 653.5,1466.4 C652.1,1463.7 651,1461 651,1460.5 C651,1459.1 675.3,1405.4 681.1,1394.1 C686.9,1382.6 692.5,1369.3 702,1344 C712.2,1316.6 730.2,1266.3 729.8,1265.9 C729.3,1265.5 681.2,1247.1 665.9,1241.5 C631.8,1229.1 613.8,1224.1 488.5,1193 C418.6,1175.6 360.6,1161.1 359.6,1160.8 C358.2,1160.3 357.8,1160.6 358.3,1161.7 C360.2,1166.7 436.2,1273.1 463.4,1308.9 C477.1,1326.8 771.6,1687.3 838.5,1767.9 C905.4,1848.5 915.8,1861.4 924.5,1874.4 C936.9,1892.9 938.2,1898.9 933.6,1916.5 C923,1957.2 881.7,2020 838.4,2061.3 C799.9,2098.1 765.5,2114.6 739.1,2109 C721.5,2105.3 703.9,2092.6 696.9,2078.7 C693.8,2072.4 693.5,2071.2 693.5,2062.6 L693.5,2053.4 L710.3,2020.1 C727.7,1985.6 730,1979.5 730,1968.6 C730,1941.8 705.1,1884.6 660.2,1808.4 C641.7,1777.1 631.7,1761.4 548.6,1634.7 L469.8,1514.4 L467.1,1516.5 C465.7,1517.6 453.7,1528.8 440.5,1541.4 C394.3,1585.2 364,1611 315.5,1647.7 C303.4,1656.8 292.5,1665.1 291.2,1666.1 L289,1667.9 L292.5,1673.9 C297.3,1682 308.7,1697.3 315.4,1704.8 C325.1,1715.6 383.3,1792.1 502.6,1951.1 C566.7,2036.4 622.8,2110.7 627.3,2116.1 C631.8,2121.5 639.4,2129.8 644.2,2134.6 C654.4,2144.8 661.5,2155 667.7,2168 C673.1,2179.5 675,2187.9 675,2201.1 C675,2213.9 673.8,2219.9 669.2,2229.4 C660.3,2247.8 625.2,2275.3 553.3,2320.2 C507.1,2349 490.1,2356.2 465,2357.7 C460.3,2358 453.6,2357.8 450.2,2357.3 L450.2,2357.3 Z" id="Shape" sketch:type="MSShapeGroup"></path>
            <path d="M777.3,937.3 C769.9,935.1 763,921.7 763,909.5 C763,899.8 774.6,860.3 798.5,788.9 C823.2,715.2 826.8,699.3 843.5,593.9 C854.6,523.7 864.1,494.6 881.9,476.1 C886.8,471 890.5,468.3 896.5,465.3 C908.5,459.4 915.2,458 931.5,458 C948,457.9 953,458.9 965.7,465 C981,472.3 995.8,488 1005.4,507.1 C1013.6,523.6 1020.3,545.5 1023.2,565.4 C1025,578.8 1024.7,612.5 1022.6,628.9 C1016.1,677.2 996.1,718.3 952.4,772.8 C917,816.9 843.7,895 816.3,917.6 C795.9,934.5 785.5,939.8 777.3,937.3 L777.3,937.3 Z" id="Shape" sketch:type="MSShapeGroup"></path>
            <path d="M191.1,886.3 C183.8,885.1 174.5,880.7 171.5,877.2 C168.1,873.2 167.5,868.6 169.5,861.7 C172.8,850.3 183.6,828.8 194.2,812.5 C200.9,802.3 212.7,778.1 214.5,770.9 C216.4,763.3 216.4,749 214.4,735.5 C208.6,695.4 183.8,606.4 149.1,500.4 C133,451.1 133,451.2 72.5,313.4 C10,171.2 0,146.8 0,136.8 C0,130.8 4,123.2 8.5,120.9 C16.3,116.6 26.4,122.1 46.8,141.9 C69.4,163.7 89.3,187 121.6,229.4 C176.1,301.1 211,355.7 280.5,477.9 C304.8,520.7 301.4,514.5 327.5,564.4 C359.2,625.1 369.6,644 383,665.9 C413,714.8 419,728 419,744.4 C419,762.5 410.2,778.4 388.7,799.1 C362.4,824.3 317.7,851.4 273,869.2 C234.7,884.4 210.5,889.5 191.1,886.3 L191.1,886.3 Z" id="Shape" sketch:type="MSShapeGroup"></path>
        </g>
    </g>
</svg>