<?xml version="1.0" encoding="UTF-8" standalone="no"?>
<svg width="2438px" height="2368px" viewBox="0 0 2438 2368" version="1.1" xmlns="http://www.w3.org/2000/svg" xmlns:xlink="http://www.w3.org/1999/xlink" xmlns:sketch="http://www.bohemiancoding.com/sketch/ns">
    <!-- Generator: Sketch 3.0.4 (8053) - http://www.bohemiancoding.com/sketch -->
    <title>Slice 2</title>
    <desc>Created with Sketch.</desc>
    <defs></defs>
    <g id="Page-1" stroke="none" stroke-width="1" fill="none" fill-rule="evenodd" sketch:type="MSPage">
        <g id="Group" sketch:type="MSLayerGroup" transform="translate(1219.150000, 1183.950000) scale(1, -1) translate(-1219.150000, -1183.950000) translate(1.000000, 0.400000)" fill="#000000">
            <path d="M1074.5,2366.9 C1056.1,2364.2 1048.2,2362.7 1034.7,2359.4 C1020.4,2355.8 990,2346.1 969.5,2338.6 L961.6,2335.7 L960.3,2330.9 C957.7,2320.7 959.1,2313.8 965.1,2307.7 C970.5,2302.3 987,2293.9 1012.6,2283.5 C1070.2,2260.2 1102.5,2237.1 1125.6,2202.5 C1140.9,2179.5 1150.8,2149.9 1155.4,2113.5 C1156.2,2107.2 1157.4,2092.3 1157.9,2080.5 C1159.3,2051.1 1162.2,1665.5 1161.8,1557.6 L1161.5,1470.2 L1150,1466.3 C1139.1,1462.6 1130.9,1461.3 994,1441 C873.9,1423.2 812,1414.7 627.5,1390.5 C505.4,1374.5 399.4,1360.7 392,1359.9 C373.4,1357.8 319.5,1357 293.5,1358.4 C225.9,1362.1 170.6,1370.9 130,1384.5 C120.4,1387.7 95.4,1395.6 74.6,1402 C53.7,1408.4 31.5,1415.6 25.1,1418 L13.6,1422.4 L8.2,1418.2 C5.3,1415.9 2.2,1413.5 1.4,1412.9 C-0.2,1411.6 -0.6,1396.2 0.9,1392.2 C1.4,1390.8 4,1387.5 6.7,1384.9 C12.5,1379.1 23.6,1357.8 35.5,1329.7 C44.2,1309.2 51.5,1296.2 62.5,1281.6 C83.4,1253.9 110.5,1228.9 153.3,1197.8 C181.2,1177.5 195.2,1170 222.3,1161.1 C250,1151.9 273.9,1148 302,1148 L322.5,1148 L437.5,1181.2 L552.5,1214.5 L702,1247.4 L851.5,1280.4 L966.5,1298.5 C1029.8,1308.4 1092.5,1318.4 1106,1320.5 C1128.1,1324.1 1155.3,1327.5 1161.6,1327.5 L1164,1327.5 L1164,1130.8 L1164,934 L1156,694.5 C1151.6,562.8 1146.8,426.9 1145.3,392.5 C1141.3,300.9 1141.7,246.7 1146.6,186.5 C1154.1,93.3 1170.9,31.6 1194.7,9.3 C1203.1,1.6 1206.9,0 1218,0 C1226.7,0 1228,0.3 1233.6,3.2 C1251.1,12.3 1267.2,32.1 1282.9,63.5 C1306,110 1322.3,174.8 1330.4,253 C1335.3,299.8 1335.3,299.8 1335.8,487.5 C1336.1,615.4 1335.9,668.1 1335.1,676 C1334.4,682.5 1332.7,766.8 1331,881.5 C1328.6,1033.9 1328,1105.6 1328,1212.5 L1328,1349 L1371.8,1354.3 C1410.6,1359.1 1430.1,1360.7 1546.6,1369 L1677.7,1378.4 L1895.1,1377 L2112.5,1375.6 L2231.5,1367.6 C2297,1363.2 2353.7,1359.4 2357.5,1359.2 C2374.9,1358.2 2394.7,1361.7 2404.2,1367.5 C2414.2,1373.6 2422.5,1385.6 2427.4,1401.3 C2430.4,1410.9 2434.6,1432.4 2435.6,1443.7 L2436.3,1451.5 L2432.4,1456.2 C2411.7,1481.7 2383.9,1506.4 2351.5,1528 C2315,1552.3 2279.7,1569.7 2239.5,1583 C2217.2,1590.4 2205.8,1592.9 2197.8,1592.2 C2185.8,1591.1 2169.4,1584 2138.2,1566.1 C2115.7,1553.3 2106.2,1549.8 2085.5,1547 C2079.5,1546.1 1978,1538.5 1860,1529.9 C1742,1521.4 1573.1,1508.7 1484.5,1501.6 C1396,1494.5 1323.4,1488.9 1323.2,1489 C1323,1489.2 1325.4,1600.2 1328.5,1735.7 C1334.7,2009.1 1333.5,1983.1 1343,2050 L1348.1,2086 L1362.5,2129 C1370.4,2152.7 1377.8,2175.6 1378.9,2179.9 C1383.1,2195.9 1381.1,2210.9 1373.2,2223.1 C1365,2235.7 1345.6,2252 1316.7,2270.5 C1308.6,2275.7 1295.9,2283.9 1288.5,2288.7 C1220.1,2333 1175.2,2354.5 1130.5,2364.1 C1120.2,2366.3 1115.5,2366.7 1098,2367 C1086.7,2367.2 1076.2,2367.1 1074.5,2366.9 L1074.5,2366.9 Z" id="Shape" sketch:type="MSShapeGroup"></path>
        </g>
    </g>
</svg>