<?xml version="1.0" encoding="UTF-8" standalone="no"?>
<svg width="2066px" height="1714px" viewBox="0 0 2066 1714" version="1.1" xmlns="http://www.w3.org/2000/svg" xmlns:xlink="http://www.w3.org/1999/xlink" xmlns:sketch="http://www.bohemiancoding.com/sketch/ns">
    <!-- Generator: Sketch 3.0.4 (8054) - http://www.bohemiancoding.com/sketch -->
    <title>Slice 2</title>
    <desc>Created with Sketch.</desc>
    <defs></defs>
    <g id="Page-1" stroke="none" stroke-width="1" fill="none" fill-rule="evenodd" sketch:type="MSPage">
        <g id="Group" sketch:type="MSLayerGroup" transform="translate(1032.700000, 857.500000) scale(1, -1) translate(-1032.700000, -857.500000) translate(0.200000, 1.000000)" fill="#000000">
            <path d="M1612.8,1713 C1605,1712 1595.3,1708.6 1588.8,1704.6 C1578.6,1698.2 1545.3,1678.3 1539.8,1675.2 C1512.9,1660.2 1486.5,1656.6 1307.3,1643.5 C1271.9,1640.9 1187.1,1633.4 1109.8,1626 C849,1601.1 713.2,1587.9 701.8,1586.5 C681.4,1584 652.2,1582.7 641.3,1583.9 C628.7,1585.4 623.6,1587.1 579.3,1605.5 C512.4,1633.3 483.3,1641.4 449.8,1641.4 C437.3,1641.4 434.4,1641.1 428.8,1639.1 C423,1637.1 388.5,1619.9 386.5,1618.1 C385.5,1617.1 391,1601.6 395.3,1592.9 C400.5,1582.7 406.4,1576.4 426,1559.8 C436.1,1551.4 448,1540.7 452.6,1536.1 C484.3,1503.8 504.6,1462.5 511.2,1417.5 C513.7,1400.1 513.8,1394.5 515.3,1248.5 L516.7,1105.5 L513.8,982.5 L510.9,859.5 L504.2,748.5 C498,646.6 497.5,634.3 497.4,598.5 C497.3,555.9 498.1,546.7 503.5,529.5 C510.5,507.2 516.2,499.3 546.4,469.5 C567.9,448.2 570.8,445 571.8,441 C574.3,431.6 571.2,421.6 561,406 C518.3,340.6 397.2,241.3 269.2,166.8 C212.8,133.9 177.6,116.3 91.8,78.1 C8.9,41.1 1,36.7 0.1,26.3 C-0.6,17.7 4.3,13 17.4,9.6 C33.1,5.6 68.8,4.8 90.4,7.9 C127,13.3 186.6,29.5 259.8,54 C326.2,76.1 356.1,88.3 410.8,115.7 C464.6,142.6 512.9,169.5 639.8,243.5 C761,314.2 778.4,324.6 789.1,332.8 C803.1,343.5 807,350 807.6,364.1 C808.1,375.8 806.6,381.9 800.8,390.7 C788.2,409.8 759.5,431 690,472.5 C670.7,484.1 654.9,493.8 654.8,494.2 C654.8,494.7 659.4,499.6 665.1,505.3 C685,525.3 704.5,535.1 738.3,542 C750.6,544.5 755.2,545.1 889.3,560.5 L998.3,573.1 L1166.8,585 L1335.3,597 L1422.8,599.5 C1527,602.5 1551.4,602.7 1561.6,600.6 C1577.7,597.2 1587.3,588.6 1608.8,558 C1629.7,528.1 1642.2,511.8 1651.6,501.9 C1665.9,486.8 1674.3,483 1693.2,483 C1712.5,483 1721.8,486.7 1734.3,499.4 C1740.6,505.8 1743.4,509.6 1747.5,517.5 C1765.8,553 1774.7,609.7 1778.8,715.5 C1781.5,786.5 1781,878.2 1775.8,1318.5 C1774.7,1407.1 1775,1418.8 1778.9,1442 C1781.8,1459.3 1784.3,1466.6 1797.8,1497.5 C1821.6,1552.1 1825.2,1561.8 1825.2,1571.5 C1825.1,1584.5 1817.3,1598.4 1799.8,1616.4 C1775.3,1641.6 1738.1,1666.8 1692.4,1689.1 C1654.8,1707.3 1629,1715.1 1612.8,1713 L1612.8,1713 Z M1576.2,1539.7 L1590.2,1537.5 L1592,1529.5 C1594.9,1516.7 1598.6,1494.4 1599.8,1483 C1600.6,1475.5 1600.6,1466.2 1599.9,1450.5 C1598.6,1424.4 1598.6,1394.8 1599.8,1379.5 C1600.2,1373.5 1600.5,1368.4 1600.5,1368.3 C1600.4,1368.2 1535.7,1364.1 1456.8,1359 L1313.3,1349.9 L1155.8,1335 C1055.6,1325.4 945,1314.2 851.7,1304 C744.4,1292.3 701.8,1288 692.9,1288 L680.8,1288 L680.8,1309.8 C680.8,1356.4 683,1462.5 684.1,1463.2 C686,1464.4 718.4,1471.9 730.3,1473.9 C748.9,1477 770.4,1479.6 819.3,1484.5 C844.1,1487 917.6,1494.6 982.8,1501.5 C1089.5,1512.7 1113.6,1514.9 1224.8,1523.5 C1292.7,1528.8 1353.5,1533.5 1359.8,1534 C1376,1535.3 1418,1537.6 1468.8,1540 C1492.7,1541.1 1515.2,1542.2 1518.8,1542.4 C1534.1,1543.3 1562.4,1542 1576.2,1539.7 L1576.2,1539.7 Z M1601.1,1239.8 C1602.4,1234.5 1604.8,1213.3 1605.9,1198 C1607.1,1179.9 1607.4,1096.6 1606.3,1074.9 L1605.6,1061.3 L1582.4,1060.7 C1555.7,1060.1 1528,1057.9 1356.8,1042.9 C1249.5,1033.5 1191.5,1027.8 956.3,1003 C805.1,987.1 679.8,973.8 677.9,973.6 L674.5,973.1 L675.2,1054.8 C675.8,1130.3 676.6,1162.2 678.2,1163.7 C678.5,1164 743.3,1172.1 822,1181.6 C1008.8,1204.1 1048,1207.7 1310.2,1227 L1511.3,1241.8 L1555.9,1241.9 L1600.6,1242 L1601.1,1239.8 L1601.1,1239.8 Z M1608.3,907.8 C1608,890 1607.3,842.5 1606.7,802.1 C1606.2,761.7 1605.7,728.6 1605.5,728.5 C1605.4,728.4 1527,723.1 1431.3,716.6 C1335.6,710.1 1162.6,697.7 1046.8,689 C931,680.2 822.8,672.1 806.3,671 C756.3,667.5 681.7,661 675.1,659.5 L672.8,659 L672.8,678.2 C672.8,699.3 675,857.3 675.3,857.8 C675.9,858.6 699.2,863.2 711.3,865 C735,868.4 828.5,879.2 987.3,896.9 L1139.3,913.9 L1255.8,922 C1332.1,927.2 1378.2,930 1389.4,930 C1399.3,930 1422.4,931.3 1444.4,933 C1465.2,934.6 1491.5,936.6 1502.8,937.5 C1514.1,938.3 1525.3,939.1 1527.8,939.3 C1530.3,939.5 1549.5,939.7 1570.6,939.8 L1608.9,940 L1608.3,907.8 L1608.3,907.8 Z" id="Shape" sketch:type="MSShapeGroup"></path>
            <path d="M1379.6,531.3 C1378.5,528.6 1377.3,523.5 1377.1,519.9 C1376.1,507.7 1378.7,504.9 1414.7,480.3 C1442.3,461.4 1486.8,428.1 1594.8,345.4 L1681.3,279.2 L1787.3,174.8 C1904,59.9 1909.3,54.8 1928.8,38.3 C1961.1,10.9 1983.7,-9.09494702e-13 2007.8,-9.09494702e-13 C2034.9,-9.09494702e-13 2055.2,20.4 2062.3,54.7 C2066.4,74.4 2066.2,103.5 2061.8,127.6 C2050.5,190.3 2009.6,249.8 1945.8,296.2 C1903.9,326.6 1760.6,410.2 1705,436.7 C1690.8,443.4 1501.8,519.4 1490.8,522.8 C1469.2,529.4 1421,536 1394.1,536 L1381.7,536 L1379.6,531.3 L1379.6,531.3 Z" id="Shape" sketch:type="MSShapeGroup"></path>
        </g>
    </g>
</svg>