<?xml version="1.0" encoding="UTF-8" standalone="no"?>
<svg width="1224px" height="2154px" viewBox="0 0 1224 2154" version="1.1" xmlns="http://www.w3.org/2000/svg" xmlns:xlink="http://www.w3.org/1999/xlink" xmlns:sketch="http://www.bohemiancoding.com/sketch/ns">
    <!-- Generator: Sketch 3.0.4 (8054) - http://www.bohemiancoding.com/sketch -->
    <title>Slice 2</title>
    <desc>Created with Sketch.</desc>
    <defs></defs>
    <g id="Page-1" stroke="none" stroke-width="1" fill="none" fill-rule="evenodd" sketch:type="MSPage">
        <g id="Group" sketch:type="MSLayerGroup" transform="translate(612.000000, 1076.700000) scale(1, -1) translate(-612.000000, -1076.700000) translate(0.000000, 0.200000)" fill="#000000">
            <path d="M980,2152.5 C967.5,2150.5 933.7,2141.3 896.5,2129.8 C880.2,2124.7 854.3,2119.4 625.5,2074 C385,2026.2 372,2023.7 361.5,2023.7 L350.5,2023.7 L328.2,2034.5 C316,2040.5 302.8,2046.4 298.9,2047.8 C284.6,2052.8 270,2052.9 253.9,2048.3 C220.3,2038.6 200.3,2016.5 199.9,1988.5 L199.8,1981.3 L212.8,1967.5 C229.2,1950.2 237.5,1940.3 245.6,1928.1 C269.5,1892.3 278.8,1847.3 283,1747.2 C284.2,1718.2 285.7,1612.9 286.6,1495.2 L287.2,1410.7 L282.1,1242.7 C277.8,1102.7 276.1,1057.1 271.5,969.2 C268.5,911.2 265.5,852.9 264.8,839.7 C263.1,806.5 263.1,731.2 264.8,715.2 C270.2,663.6 280.1,635.1 299.5,615.7 C308,607.2 318.1,601 328.8,597.8 C337.7,595.2 353.4,593.9 363.5,595 C374.1,596.1 374.2,596.1 383.4,586.8 C395.4,574.9 401.3,561.7 401.4,546.7 C401.5,534.7 399.3,528.1 386.5,502.7 C369.9,469.8 357,448.8 327.1,406.2 C300.5,368.2 292,356.5 283.6,346.5 C279.1,341 248.1,301.7 214.9,259.2 C181.7,216.7 149.7,176.4 143.9,169.8 C127.3,150.7 103.2,125.6 49.7,71.6 L0,21.4 L0,16.9 C0,12.9 0.5,12 4.4,8.4 C12.3,1.1 15.9,-0.1 27.4,0.5 C35.6,0.9 39.5,1.7 48,4.6 C71.5,12.8 106.5,32.1 149.5,60.7 C224.1,110.1 330.1,193 404.8,260.1 C411.6,266.2 547.6,407.1 553.6,414.1 C556.8,417.9 582.9,439 592,445.2 C601.3,451.5 618.1,468.6 621.1,474.7 C623.3,479.2 623.5,481 623.5,492.2 C623.4,503.9 623.2,505.2 620.2,512.8 C601.1,560.8 541.1,606.8 463.8,632.7 L450.9,637 L455.7,638 C469.1,640.9 588.6,664.7 609,668.6 C630,672.6 927.1,718.8 939.6,719.9 C945.7,720.5 957.3,718.8 964.6,716.3 C967.5,715.2 975.4,710.9 982.1,706.7 C998,696.6 1003.1,694.4 1013.2,693 C1041.4,689.2 1070.1,707.4 1085.8,738.7 C1098.8,764.7 1101.7,784.2 1107,879.7 C1112.1,972.1 1111.9,961.5 1113.5,1308.7 L1115,1636.7 L1120.5,1776.7 C1123.5,1853.7 1126.5,1920.1 1127,1924.2 C1128.8,1936.4 1130.4,1940.9 1141.8,1963.9 C1155.5,1991.8 1156.2,1993.8 1156.8,2008.4 C1157.3,2021.7 1155.6,2029 1149.5,2041.2 C1133.9,2071.9 1090.8,2108.3 1039,2134.2 C1010.7,2148.4 991.4,2154.4 980,2152.5 L980,2152.5 Z M935.9,1999.1 C943.7,1997.5 949.3,1993.3 952.4,1986.9 C957.8,1976 958,1972.6 959.5,1877.7 C960.3,1829.3 961,1774.1 961.1,1755.1 C961.2,1722.1 961.1,1720.2 959.1,1715.8 C956.7,1710.3 952.8,1708.2 944.8,1708.2 C941.9,1708.2 911.8,1703.7 878,1698.2 C844.2,1692.7 799.2,1685.4 778,1682.1 C754.6,1678.4 681,1664.7 590.3,1647.1 C508.2,1631.2 440.4,1618.2 439.5,1618.2 C438.2,1618.2 438,1630.4 438.1,1729 C438.1,1792.6 438.7,1852.8 439.3,1870.6 L440.5,1901.5 L466.5,1908.4 C480.8,1912.1 503.5,1917.7 517,1920.6 C559.5,1930.1 780.4,1973.6 831.5,1982.7 C858.5,1987.5 890.6,1993.3 903,1995.7 C928.5,2000.5 929.1,2000.6 935.9,1999.1 L935.9,1999.1 Z M958.6,1579.6 L961.8,1579 L962.5,1543.3 C963.4,1503.9 962.7,1439 961,1401.2 C958.7,1350.8 956.2,1304.1 955.7,1303.6 C955.5,1303.3 926.3,1298.4 891,1292.7 C719.7,1264.8 624.4,1247.2 475,1215.9 L435.5,1207.6 L434.9,1215.1 C432.8,1240.4 432.9,1288.3 435.4,1385.1 C436.7,1440.3 438.1,1485.6 438.3,1485.8 C439,1486.6 482.2,1497.2 508.6,1503.1 C569.9,1516.8 614.4,1525 795,1555.6 C871.2,1568.5 935.3,1579.6 937.5,1580.1 C941.5,1581.1 952.5,1580.9 958.6,1579.6 L958.6,1579.6 Z M954.8,1169.6 L961,1168.9 L961,1160.3 C961,1155.6 959.7,1109.6 958,1058.2 C956.4,1006.8 954.6,949.2 954,930.2 C952.8,891.1 951.9,881.3 948.2,866.3 L945.5,855.7 L820.5,833.5 C751.8,821.3 676.6,808 653.5,803.8 C630.4,799.7 595.5,793.5 576,790.2 C506.8,778.4 493.6,775.7 467.2,767.9 C452.7,763.6 436.8,760.2 431.1,760.2 L427,760.2 L427.2,913 C427.5,1079.5 427.1,1067.3 433.3,1074 C437.3,1078.1 446,1080.9 459.5,1082.3 C473.4,1083.8 485.5,1086.3 558.3,1102.8 C593.4,1110.7 627.8,1118.3 634.8,1119.8 C641.8,1121.2 710.7,1133.3 788,1146.8 C922.3,1170.1 928.9,1171.1 938.5,1170.7 C944,1170.4 951.3,1169.9 954.8,1169.6 L954.8,1169.6 Z" id="Shape" sketch:type="MSShapeGroup"></path>
            <path d="M796.5,573.3 C789.1,572.4 785.1,569.6 779.7,561.5 L774.9,554.3 L786.6,541 C823,499.8 874.3,435.7 910.2,386.7 C955.8,324.4 986.3,277.2 1013.5,227.2 C1042.6,173.5 1056.9,152.2 1076.6,133.2 C1087.7,122.5 1094.1,118 1106.2,112.2 C1115.9,107.6 1123.1,105.6 1135.5,104.1 C1168.9,100 1198.2,117 1213.4,149.2 C1228.3,180.8 1227.4,221.9 1210.8,263.7 C1186.1,326 1121.7,397.5 1032.5,461.4 C974.3,503.1 913.4,537.3 859.9,558.6 C830.6,570.1 810.3,574.9 796.5,573.3 L796.5,573.3 Z" id="Shape" sketch:type="MSShapeGroup"></path>
        </g>
    </g>
</svg>