<?xml version="1.0" encoding="UTF-8" standalone="no"?>
<svg width="2351px" height="1344px" viewBox="0 0 2351 1344" version="1.1" xmlns="http://www.w3.org/2000/svg" xmlns:xlink="http://www.w3.org/1999/xlink" xmlns:sketch="http://www.bohemiancoding.com/sketch/ns">
    <!-- Generator: Sketch 3.0.4 (8054) - http://www.bohemiancoding.com/sketch -->
    <title>Slice 2</title>
    <desc>Created with Sketch.</desc>
    <defs></defs>
    <g id="Page-1" stroke="none" stroke-width="1" fill="none" fill-rule="evenodd" sketch:type="MSPage">
        <g id="Group" sketch:type="MSLayerGroup" transform="translate(1175.900000, 672.200000) scale(1, -1) translate(-1175.900000, -672.200000) translate(0.900000, 0.700000)" fill="#000000">
            <path d="M1937.1,1342.7 C1930.1,1341.7 1924.4,1339.6 1916.1,1335 C1906.6,1329.7 1891.1,1319.6 1891.1,1318.8 C1891.1,1318.4 1894.9,1309.3 1899.6,1298.7 C1912.2,1270.3 1914.3,1263.8 1914.5,1254.2 C1914.6,1244.4 1913,1240.6 1905.2,1233 C1890.9,1218.9 1792,1157.5 1734.1,1126.7 C1681.7,1098.9 1644.3,1079.3 1610.6,1062.1 L1578.6,1045.8 L1459.1,1001.6 L1339.6,957.4 L1331.5,950.6 C1324,944.4 1323.1,943.2 1319.8,935.5 C1317.9,930.9 1316.1,926.6 1315.9,925.8 C1315.7,924.7 1318.1,923.6 1324.6,921.8 C1332.8,919.5 1335.3,919.3 1351.6,919.4 C1389.9,919.6 1448.7,927.5 1525.1,942.7 C1601.4,958 1684.2,978.9 1736.1,996 C1745.2,999 1823.7,1028.4 1910.6,1061.4 C1997.5,1094.4 2079.9,1125.1 2093.6,1129.6 C2126.4,1140.3 2142.7,1146.8 2147.9,1151.2 C2156.9,1158.9 2160.2,1173.2 2156.7,1189.1 C2152.2,1209.1 2139.8,1224.3 2105.1,1252.2 C2098.8,1257.3 2086.2,1267.9 2077.1,1275.7 C2038.5,1308.8 2010.8,1326.9 1984.3,1336.1 C1968.2,1341.7 1949.1,1344.4 1937.1,1342.7 L1937.1,1342.7 Z" id="Shape" sketch:type="MSShapeGroup"></path>
            <path d="M1038.2,1292.6 C1016.2,1290.9 999.6,1286.8 910.1,1260.7 L858.6,1245.7 L752.1,1224.3 C646.6,1203.1 645.4,1202.9 621.1,1200.8 C607.6,1199.6 578.6,1197.1 556.6,1195.1 C499.3,1190 503,1189.4 452,1212 C428.5,1222.4 424.6,1223.9 412.2,1226.8 C398.8,1230 383.7,1231.7 367.6,1231.6 C330.3,1231.6 317.3,1223.9 302.4,1193.2 L297.8,1183.7 L313.3,1167.9 C321.8,1159.3 331.6,1148.6 335.1,1144.2 C366.5,1104.6 384,1055.1 392,982.2 C395.2,953.2 395.9,938.5 399,834.7 L401.9,736.2 L399.3,630.8 C397.6,563.7 396.2,525.3 395.6,525.1 C392.7,524.2 331.3,514.2 307.3,510.7 C232.2,499.9 202.9,499.1 158.2,506.8 C124.6,512.5 99.8,520.7 70.7,535.6 C46.8,547.8 40.2,550.2 33.9,549.2 C19.9,546.9 8.4,535.6 2.6,518.4 C-3.7,499.4 1.6,476.6 17.9,453.7 C24.3,444.7 41.6,427.1 53.4,417.6 C86.1,391.2 133.1,366.9 167.2,358.7 C186.4,354.1 194.3,355.7 273.2,380.2 C308.4,391.2 323.1,395.3 339.6,398.7 C350.4,401 432.4,414.8 432.7,414.4 C433.5,413.6 420.5,378.6 418.3,375.7 C414.4,370.5 362.3,308.2 342.7,285.2 C333.3,274.2 318.9,257.1 310.6,247.2 C302.4,237.3 290.3,223.8 283.6,217.2 C265.1,198.7 259.9,196.6 225.9,194.2 C196,192 185.1,189.9 174.8,184.5 C167.9,180.8 163.7,176.3 160.2,168.7 C157.8,163.7 157.6,162.1 157.6,150.7 C157.6,138.5 157.7,137.9 162,125.2 C167.1,110.5 181.8,80.4 191.6,64.7 C207.1,40.1 225.8,18.7 240.3,9 C251.2,1.7 257.2,-0.3 267.9,-0.3 C280.7,-0.2 284.9,1.7 319.1,23.5 C348.8,42.5 349.9,42.9 486.6,85.2 C548.7,104.4 621.1,127.8 695.6,152.7 L809.6,190.9 L936.6,243 C1032.6,282.4 1064.8,296 1068.6,298.8 L1073.5,302.6 L1078.9,293.4 C1081.9,288.4 1093.1,268.5 1103.8,249.2 C1114.6,230 1126.4,209 1130.2,202.6 L1137,191 L1145.1,186.8 C1156.4,180.9 1163.3,178.7 1172.8,178 C1188.7,176.8 1201.5,181.4 1213.2,192.4 C1230,208.3 1239.7,233.9 1241.7,268 C1243.8,302.7 1230.3,332 1198.2,363 C1176.2,384.2 1150.5,401.6 1114.6,419.7 C1061.7,446.4 1000.8,465.7 968.1,466.1 L956.6,466.2 L949.4,462.3 L942.1,458.5 L948.4,451.7 C997.6,398.1 1025.2,366.5 1023.9,365.2 C1023.7,365 959.7,346.3 881.7,323.7 L740,282.7 L589.3,247.7 C506.4,228.4 437.7,212.4 436.6,212 C435.5,211.7 444.7,221.9 457.1,234.8 C488.6,267.5 492.3,271.5 541.1,323.7 C564.9,349.3 594.4,380.1 606.7,392.2 C618.9,404.3 630.3,416.4 632.1,419 C636.3,425.3 639.6,433.1 642.7,443.5 C644,448.2 645.3,452.2 645.5,452.4 C645.6,452.6 655.9,455 668.2,457.7 C684.9,461.5 735.5,469.9 867.6,490.8 L1044.6,518.9 L1154.6,527.2 C1241.8,533.9 1266.2,536 1272.1,537.6 C1308,547.2 1328.4,569.8 1326.9,598.2 C1325.8,619.8 1308.7,636.5 1273.4,650.6 C1250.4,659.7 1210.2,668.9 1193.1,668.9 C1182.8,668.9 1155.1,663.1 1103.2,650.2 C1066.3,641 1045,636.6 939.2,616.1 L817.6,592.6 L679.7,571.2 C603.8,559.4 541.6,549.9 541.4,550.1 C540.3,551.2 539.9,583.9 540.6,620.9 C541.3,658.6 541.5,662.7 543,663.2 C546.2,664.2 609.9,674.6 640.6,679.2 C657.6,681.7 690.9,686.3 714.6,689.3 C927.1,716.3 1069.7,734.9 1074.9,736.3 C1095.9,741.8 1109.3,762.9 1105.1,783.9 C1100.1,809.9 1071.2,832 1027.6,843.2 C1012.9,847 995.3,849.2 987.7,848.3 C984.9,847.9 932.4,836.6 871.1,823.2 C779.1,803.1 740.6,795.2 650.8,778.1 C591,766.8 541.8,757.6 541.6,757.8 C541.2,758.3 543.8,872.8 544.3,873.2 C544.5,873.3 602.9,881.4 674.1,891.1 C784.2,906.1 817.5,910.2 896.6,918.7 C947.8,924.2 995,929.2 1001.6,929.7 C1025,931.7 1051.7,934.8 1057.6,936.3 C1073.5,940.2 1086.6,950 1092.8,962.5 C1109.5,995.9 1085.3,1025.7 1028.1,1042.2 C1013.2,1046.5 993,1049.9 982.2,1049.9 C970,1049.9 948,1045.3 846.6,1021.7 C753.9,1000.1 773.5,1003.8 587.1,972.4 L544.6,965.2 L544,994.7 C543.2,1029.7 541,1046.6 534.7,1064.4 C533.3,1068.4 533.3,1068.5 535.9,1070.9 C538.5,1073.3 550.7,1075.3 780.1,1111.1 L1021.6,1148.7 L1060.6,1148.7 C1120.8,1148.7 1143.9,1151.7 1164.4,1162.4 C1173.3,1167.1 1182.1,1176.4 1185.1,1184.4 C1189.5,1196.1 1189.5,1212 1185.1,1224.3 C1174.6,1254.3 1136.1,1280.7 1089.6,1289.7 C1080.7,1291.4 1053.4,1294 1049.6,1293.5 C1049.1,1293.5 1043.9,1293.1 1038.2,1292.6 L1038.2,1292.6 Z" id="Shape" sketch:type="MSShapeGroup"></path>
            <path d="M2022.6,1011.7 C2013.7,1002.8 2013.1,1001.9 2014,999.5 C2015.8,994.8 2025.1,959.3 2027.1,949.3 C2030.1,934.5 2029.9,931.2 2025.2,924.1 C2023.1,920.9 2017.1,913.1 2012,906.8 L2002.6,895.5 L1913.1,842 C1862.1,811.6 1816,784.7 1805.9,779.7 C1785.3,769.3 1746.2,750.7 1684.6,722 C1572.5,669.7 1586.5,675.6 1467.3,631.3 C1407.5,609.1 1356.1,589.9 1353,588.8 L1347.3,586.6 L1336.7,569.3 C1330.9,559.8 1326.1,551.7 1326.1,551.3 C1326.1,550.4 1394.5,551.6 1413.6,552.8 C1446.3,554.8 1516.3,568.5 1601.6,589.4 C1631.1,596.6 1637.7,598.7 1736.6,632.5 L1840.6,668 L1914.6,699.7 C2021.1,745.4 2213.6,830.3 2218.6,833.7 C2228.9,840.8 2239.1,855.9 2240.7,866.6 C2243.3,884.1 2223.9,916.4 2192.5,946.7 C2146.9,990.6 2092.4,1016.7 2037.4,1021 L2032.3,1021.4 L2022.6,1011.7 L2022.6,1011.7 Z" id="Shape" sketch:type="MSShapeGroup"></path>
            <path d="M2125.4,649.8 L2117.3,640.1 L2119.3,634.2 C2122.1,625.9 2132.2,583.4 2132.8,577 C2133.3,572.7 2132.9,570.8 2130.7,566.4 C2118.4,541.2 2059.8,505.6 1959.1,462.2 C1920.4,445.5 1901.5,438 1752.6,380 L1607.6,323.5 L1498.9,291.2 L1390.2,258.9 L1374.1,249.6 L1358.1,240.2 L1358.1,227.8 L1358.1,215.4 L1379.9,216 C1404.9,216.7 1448.5,219 1481.1,221.3 C1504.8,222.9 1512.7,224.2 1586.1,238.2 C1659,252.2 1731.3,267.1 1781.6,278.8 C1798.1,282.6 1865,299.8 1930.2,317.1 L2048.9,348.5 L2161.7,392 C2223.8,415.9 2283.8,439 2295.1,443.2 C2334.7,458 2346.4,465.3 2349.1,476.7 C2350.8,483.9 2349.8,498.3 2347.1,506.7 C2337.9,534.4 2314,561.4 2256.1,609.7 C2224.4,636.1 2213,643.9 2198.3,649.1 C2185.8,653.5 2175.7,655.2 2137,659.1 C2133.6,659.4 2133.1,659.1 2125.4,649.8 L2125.4,649.8 Z" id="Shape" sketch:type="MSShapeGroup"></path>
        </g>
    </g>
</svg>