<?xml version="1.0" encoding="UTF-8" standalone="no"?>
<svg width="2292px" height="2279px" viewBox="0 0 2292 2279" version="1.1" xmlns="http://www.w3.org/2000/svg" xmlns:xlink="http://www.w3.org/1999/xlink" xmlns:sketch="http://www.bohemiancoding.com/sketch/ns">
    <!-- Generator: Sketch 3.0.4 (8054) - http://www.bohemiancoding.com/sketch -->
    <title>Slice 2</title>
    <desc>Created with Sketch.</desc>
    <defs></defs>
    <g id="Page-1" stroke="none" stroke-width="1" fill="none" fill-rule="evenodd" sketch:type="MSPage">
        <g id="Group" sketch:type="MSLayerGroup" transform="translate(1145.600000, 1139.800000) scale(1, -1) translate(-1145.600000, -1139.800000) translate(0.100000, 0.700000)" fill="#000000">
            <path d="M1732.4,2276.3 C1724.7,2275 1702.7,2270.8 1683.4,2266.9 C1662.3,2262.7 1627,2256.7 1594.4,2251.9 C1564.7,2247.5 1518.6,2240.5 1491.9,2236.3 C1465.2,2232.2 1343.1,2214.2 1220.4,2196.4 L997.4,2163.9 L811.4,2145.9 C709.1,2136 615.5,2126.7 603.4,2125.3 C576.3,2122.2 543.9,2121.1 527.7,2122.9 C504.7,2125.4 471.1,2132.2 445.4,2139.6 C438.8,2141.4 423.3,2146.8 410.9,2151.4 C378.8,2163.3 360.3,2168.9 352.5,2168.9 C348.3,2168.9 336.9,2161.8 331.6,2155.9 C329.1,2153.1 326,2148.2 324.8,2145.1 C321.8,2137.3 321.1,2121.4 323.2,2110.2 C328,2085 340.9,2069.1 382.4,2037.2 C425.4,2004.2 461.3,1980.8 485.1,1970.3 C507.4,1960.4 521.8,1957 544.4,1956.2 C558.7,1955.7 562.1,1956 576.3,1958.4 C592.4,1961.1 631.6,1969 693.4,1981.9 C712.1,1985.8 767.9,1996 817.4,2004.5 C866.9,2013 919.6,2022.2 934.4,2024.9 C966.5,2030.7 992.6,2034.8 999,2035 C1009,2035.4 1015.9,2027.1 1025.3,2003.2 C1040.9,1963.5 1058.2,1871.5 1063.8,1798.4 C1065.3,1779.3 1073.2,1466.8 1072.2,1465.9 C1071.8,1465.5 958.7,1450.3 820.9,1432 C636.7,1407.6 545,1396 474.4,1387.9 C373,1376.3 372.9,1376.3 329.9,1369.8 C277.9,1362.1 263.9,1362.9 198.9,1377.4 C154.1,1387.4 135.9,1392.5 101.2,1404.8 C49.4,1423 40.7,1425 28,1421 C16.2,1417.3 7,1409.7 2.7,1400.1 C3.44585471e-14,1394.2 -0.9,1378.2 0.9,1370.1 C8.6,1335.7 49.1,1292.5 112.9,1250.6 C149.2,1226.8 194.3,1203.9 226.9,1192.7 C255.2,1182.9 272.3,1180.9 292.9,1184.8 C308.3,1187.8 344.3,1196.9 383.9,1207.9 C401.8,1212.9 424.7,1219.3 434.9,1222 C445.1,1224.7 514.8,1239.8 589.9,1255.4 L726.4,1283.8 L842.9,1303.4 C941.3,1320 967.8,1324.1 1013.4,1329.8 C1043.1,1333.6 1067.5,1336.6 1067.6,1336.5 C1067.7,1336.4 1068.4,1284.6 1069.1,1221.3 C1070.7,1082.7 1070.5,1074.4 1061.5,736.4 C1053.6,443 1054.4,470.5 1050.7,394.4 C1046.7,312.8 1046.4,272.8 1049.7,245.4 C1066.4,106.3 1094.6,21.5 1130.2,3.2 C1134.2,1.2 1137.3,0.5 1143.6,0.1 C1186.3,-2.2 1210.7,50.2 1221.3,166.9 C1224.9,206.6 1226.6,241.3 1231.9,388.4 L1235.8,497.4 L1239.9,925.4 C1242.1,1160.8 1244.1,1354.3 1244.4,1355.4 C1244.6,1356.5 1245.4,1358.2 1246.1,1359.1 C1247.3,1360.7 1270.8,1362.7 1456.4,1376.8 C1592.4,1387.2 1715.8,1396 1809.8,1402.1 L1954.2,1411.3 L2019.3,1408.6 C2151.2,1403 2173.9,1402 2196.4,1400.8 C2227.1,1399.3 2239.5,1399.8 2247.7,1403.2 C2268.7,1411.7 2284.9,1429.1 2289.4,1448 C2292.5,1461.3 2290.9,1475.7 2284.9,1488.6 C2272.1,1516.3 2235.9,1542.8 2183.1,1563.3 C2148.1,1577 2107.1,1587.4 2078.6,1589.9 C2057.7,1591.7 2038.9,1589.2 1992.2,1578.4 C1967.1,1572.5 1951.4,1569.7 1917.4,1564.9 C1892.5,1561.4 1247.7,1486.8 1247.1,1487.4 C1246.7,1487.7 1250,1710.8 1252,1818 C1253.1,1880.6 1252.6,1898.1 1249,1916.7 C1242.8,1948.7 1227.9,1975 1177,2043.9 C1171.5,2051.3 1168.3,2056.5 1169.1,2056.7 C1169.8,2056.8 1196.7,2061 1228.9,2065.9 L1287.4,2074.9 L1416.9,2085.8 L1546.4,2096.8 L1707.4,2100.9 C1823.4,2103.9 1871.1,2105.4 1877.9,2106.5 C1912.5,2111.7 1934.5,2128.1 1940.4,2153 C1942.3,2161.1 1942.3,2174.6 1940.4,2182.7 C1932.6,2215.6 1892.2,2244.3 1826.8,2263.3 C1802.3,2270.4 1772.4,2276.3 1751.4,2278.2 C1748.5,2278.5 1740.4,2277.7 1732.4,2276.3 L1732.4,2276.3 Z" id="Shape" sketch:type="MSShapeGroup"></path>
        </g>
    </g>
</svg>