<?xml version="1.0" encoding="UTF-8" standalone="no"?>
<svg width="1206px" height="2266px" viewBox="0 0 1206 2266" version="1.1" xmlns="http://www.w3.org/2000/svg" xmlns:xlink="http://www.w3.org/1999/xlink" xmlns:sketch="http://www.bohemiancoding.com/sketch/ns">
    <!-- Generator: Sketch 3.0.4 (8054) - http://www.bohemiancoding.com/sketch -->
    <title>Slice 2</title>
    <desc>Created with Sketch.</desc>
    <defs></defs>
    <g id="Page-1" stroke="none" stroke-width="1" fill="none" fill-rule="evenodd" sketch:type="MSPage">
        <g id="Group" sketch:type="MSLayerGroup" transform="translate(603.400000, 1133.000000) scale(1, -1) translate(-603.400000, -1133.000000) translate(0.900000, 0.500000)" fill="#000000">
            <path d="M602.4,2264.1 C579.1,2259.7 566.6,2249.3 561.5,2230.2 C559.1,2221.2 559.6,2218.3 565.9,2205.1 C573.8,2188.7 578.1,2181.9 589.8,2167.4 C602.5,2151.5 608.6,2142.9 611.2,2137 L613.3,2132.3 L611.1,2121.7 C608.2,2107.4 598.7,2079.1 591.4,2063 C585.2,2049.4 558.8,2002.5 532.3,1958 C522.8,1942 482.9,1881.2 428.8,1800 L340.8,1668 L259.8,1560.5 L178.9,1453 L98.8,1364.5 C54.7,1315.8 14.4,1271.4 9.3,1265.8 L9.09494702e-13,1255.6 L3.1,1245.4 C7.1,1232.5 9.3,1230 15.8,1231 C34.1,1233.7 80.5,1257.5 125.1,1287 C175,1320 238.7,1369.4 299.8,1422.2 C307.7,1429 314.5,1434.5 315,1434.5 C315.5,1434.5 320.1,1430.6 325.3,1425.9 C358.6,1395 381.6,1378.4 409.6,1364.9 C427.6,1356.2 440.8,1351.6 453.1,1349.4 C468.4,1346.8 510.9,1341.6 522.8,1340.8 L533,1340.2 L543.6,1330.5 C593.1,1285.2 603.4,1252.1 601.8,1143.1 C601.4,1114.6 600.8,1101.8 599.2,1088 C598,1078.2 596.8,1069.8 596.3,1069.4 C595.9,1069.1 586.4,1065.3 575.1,1061.1 L554.6,1053.4 L446.6,1030.4 C387.2,1017.7 334.3,1006.7 329.1,1005.8 C322,1004.7 314.9,1004.4 301.1,1004.8 C271.3,1005.6 262.8,1007.6 212.2,1025.6 C139.6,1051.4 130.1,1052.7 115.3,1039 C102,1026.7 98.4,1010.3 104.2,988.5 C116.4,942.7 181.6,888.4 253.1,864.5 C280,855.5 299.7,853.4 319.4,857.5 C338.4,861.4 364.3,868.4 394.6,877.9 C404,880.9 453.1,896 503.9,911.6 C576.5,933.9 596.4,939.6 597.1,938.6 C597.5,937.8 598.4,934.7 598.9,931.6 C600.1,925.5 602.8,394.6 601.7,386.5 C601.4,384 600.6,373.9 600.1,364 C598.9,344.2 597.4,337 593.3,332.5 C591.4,330.3 564.6,317.1 497.1,284.9 C374.7,226.5 357.2,218.8 320.1,206.7 C288,196.3 269.8,193 247.4,193.7 C234.9,194.1 231.5,194.6 225.6,196.7 C214.6,200.6 205.1,205.8 184.6,219 C161.9,233.6 147.5,241.9 133.3,248.8 C123.3,253.7 122.2,254 115.1,253.9 C105.4,253.8 97,250.3 90.8,243.6 C81.7,233.8 77.9,220.9 77.8,199 C77.7,175.7 81.7,158.2 91.5,138.8 C101.6,118.8 110.2,109.2 144,80.5 C209.7,24.7 235.6,7.4 261.3,2.1 C272.5,-0.2 292.7,1.76281212e-12 302.4,2.4 C319,6.7 326.5,10.9 361.8,35.5 C445.4,93.7 543.8,156.7 760.6,290.4 C832.1,334.6 895.7,374 901.9,378.2 C937.4,401.8 984.6,441.5 1006.7,466.3 C1032.7,495.4 1038.2,512.9 1024.7,522.9 C1022.7,524.4 1020.1,525.1 1014.6,525.3 C1005.8,525.8 993.7,522.9 974.9,516 C968.1,513.5 912.4,487.9 851.1,459.1 L739.6,406.8 L739,431.4 C738.7,444.9 738.3,479.8 738.2,508.9 C738.1,556 738.9,583.8 745.1,764.9 C748.9,876.6 752.2,970.4 752.4,973.3 C752.9,980 755.2,983.2 762.2,986.7 C769.7,990.5 863.4,1017.2 903.3,1027 C911.2,1028.9 970.5,1039.5 1035.1,1050.6 C1099.7,1061.6 1155.2,1071.3 1158.5,1072.1 C1174.1,1076 1191.2,1089.9 1198.4,1104.6 C1205.5,1119.1 1206.9,1136 1202.1,1149 C1188.2,1186.1 1129.5,1217.3 1082.6,1212.5 C1063.7,1210.6 1034.6,1204.6 1001.6,1196 C990.7,1193.1 945.3,1177.8 875.1,1153.2 L765.6,1114.9 L763.9,1128.5 C761.8,1145.6 760.1,1168.8 760.1,1181.3 C760.1,1191.9 761.1,1203.6 766.7,1255.5 C768.8,1275.1 770.4,1295.8 770.5,1303.5 C770.6,1316.4 770.5,1317.3 767.8,1322.7 C762.9,1332.6 747.3,1346.5 713.4,1371 C705,1377.1 698.2,1382.2 698.2,1382.5 C698,1384.3 735.7,1394.5 852.1,1424.1 C940.7,1446.6 986.5,1458.6 990.2,1460.5 C998.4,1464.4 1003.7,1469 1009.2,1476.8 C1015.8,1486.3 1018.5,1494.6 1018.5,1506 C1018.5,1517.3 1017,1523.6 1011.7,1535 C1000.3,1559.2 977.1,1577.2 946.3,1585.7 C939.9,1587.5 935.9,1587.9 922.1,1587.9 C893.5,1587.9 885.6,1585.6 753.1,1540.3 C696.7,1521 646.4,1503.9 641.2,1502.3 C636,1500.8 621.1,1497.2 608.2,1494.4 C595.2,1491.7 578.9,1488.1 571.8,1486.4 C555.8,1482.7 534.5,1479 516,1476.9 C496.8,1474.7 421.5,1473.8 402.7,1475.5 C390.9,1476.6 372.3,1480.5 364.8,1483.4 L361.9,1484.5 L365.8,1488.8 C367.9,1491.2 389.9,1515.2 414.8,1542.1 L460,1591 L585.6,1756.4 C654.6,1847.3 713.7,1925.4 716.9,1929.9 C735.8,1956.8 755.4,1976.6 765.2,1979 C769.6,1980.1 777.3,1975.3 799.6,1957.6 C868.3,1903.2 955.2,1816.6 1003.6,1754 C1042.6,1703.5 1070.7,1678 1093.8,1672 C1101.4,1670 1117.6,1670.1 1125.5,1672.1 C1149.5,1678.3 1172.2,1703 1180,1731.3 C1188,1760.4 1182.6,1798.9 1166.6,1826.9 C1159.5,1839.4 1151.8,1849.1 1138.2,1862.5 C1114.4,1886 1089.5,1903.6 1020.1,1945.4 C993.5,1961.5 965.1,1975.9 873.1,2019.9 C833.6,2038.8 811.7,2049.8 811.8,2050.6 C811.9,2051.4 812.9,2056.3 814,2061.5 C820.4,2091.2 813.4,2115.3 788.6,2148.3 C755.5,2192.4 683.8,2246.8 638.6,2262.1 C628.9,2265.4 613.7,2266.2 602.4,2264.1 L602.4,2264.1 Z" id="Shape" sketch:type="MSShapeGroup"></path>
            <path d="M1000.6,1007.4 C983.4,1005.3 966.3,994.1 960,981 C955.8,972.3 956.1,966.1 961.7,940.7 C964.2,929.3 966.5,916.4 966.8,912 C968.1,892.5 957.4,842.9 943.3,803 C933,773.9 926.7,760 892.7,690.8 C856.7,617.4 847.1,596.5 847.1,591.2 C847.1,584.5 856.8,572.2 864.6,568.9 C874.4,564.8 886.5,569.8 910,587.5 C924.7,598.7 938.1,610.4 959.8,631.1 C976.8,647.4 977.9,648.7 1056.3,747.2 C1099.9,802 1136.4,848.2 1137.4,849.8 C1140.4,854.6 1143.8,866.5 1145.1,876.2 C1147,890.2 1146,902.3 1142.2,912 C1131.2,940.2 1095.8,973.1 1053.6,994.2 C1032.5,1004.8 1014.8,1009.2 1000.6,1007.4 L1000.6,1007.4 Z" id="Shape" sketch:type="MSShapeGroup"></path>
            <path d="M182.1,795.9 C174.3,792.5 171.1,787.3 171.1,778.2 C171.1,770.2 173.7,761.7 179.4,750.5 C183.6,742.1 216.8,686.6 228.1,669 C231.3,664.1 257.2,616.4 285.6,563 C353.4,436.1 357.5,429.1 373.6,412.9 C387.8,398.6 399.7,393.7 417.6,394.8 C433.5,395.8 445,401.1 456.6,412.9 C473.7,430.2 480.4,451.9 480.4,489.5 C480.4,534.4 469.9,573.7 448.3,610.2 C428.9,642.9 408.6,664.6 363.6,700.5 C320.3,735 285.6,758.1 248.6,777 C215.7,793.8 192.5,800.4 182.1,795.9 L182.1,795.9 Z" id="Shape" sketch:type="MSShapeGroup"></path>
        </g>
    </g>
</svg>