<?xml version="1.0" encoding="UTF-8" standalone="no"?>
<svg width="2469px" height="2361px" viewBox="0 0 2469 2361" version="1.1" xmlns="http://www.w3.org/2000/svg" xmlns:xlink="http://www.w3.org/1999/xlink" xmlns:sketch="http://www.bohemiancoding.com/sketch/ns">
    <!-- Generator: Sketch 3.0.4 (8054) - http://www.bohemiancoding.com/sketch -->
    <title>Slice 2</title>
    <desc>Created with Sketch.</desc>
    <defs></defs>
    <g id="Page-1" stroke="none" stroke-width="1" fill="none" fill-rule="evenodd" sketch:type="MSPage">
        <g id="Group" sketch:type="MSLayerGroup" transform="translate(1234.350000, 1180.700000) scale(1, -1) translate(-1234.350000, -1180.700000) translate(0.200000, 0.400000)" fill="#000000">
            <path d="M952.8,2360.4 C944,2358.7 933.3,2355.4 927.1,2352.4 C913.8,2346 904.4,2334.8 906.2,2327.3 C907.2,2323.4 914,2312.6 924.9,2298 C941.7,2275.3 947.7,2264.6 951.4,2250.5 C954,2240.8 954.1,2206.7 951.5,2193.9 C946.4,2168.1 935.3,2142.6 904.5,2085 C814.4,1916.5 723.1,1786.3 568.7,1606.5 C501.6,1528.3 445.9,1468.2 379.1,1402 C316.8,1340.1 269.5,1297.4 214.3,1253.1 C173,1219.9 148.4,1201.8 89.3,1161.2 C31.4,1121.4 19.6,1112 5.9,1094.6 C2.5,1090.3 -0.2,1086.6 4.11401815e-13,1086.4 C0.2,1086.3 8.9,1084.4 19.3,1082.4 C50.4,1076.2 62.6,1077.2 96.3,1088.7 C191.2,1121.1 341,1208.5 436.3,1287 C458.7,1305.5 469.4,1315.4 545.2,1388.4 L619.1,1459.5 L713.6,1562 L808.1,1664.5 L889.6,1764.7 L971,1864.9 L1047.5,1983.7 C1089.5,2049 1124.3,2102.9 1124.8,2103.4 C1125.8,2104.4 1251.8,1978.9 1308.9,1920 C1421.3,1804.1 1542,1678.1 1739.4,1470.5 C1823.2,1382.4 1845.5,1359.6 1914,1292.2 C1957.2,1249.7 1995.9,1212.3 1999.9,1209 C2008.7,1201.9 2020.5,1195.9 2030.8,1193.1 C2041.4,1190.2 2312.7,1161.2 2340.8,1159.9 C2361.9,1159 2396.1,1160 2412.8,1162 C2446.3,1166.2 2464.4,1174.3 2467.8,1186.8 C2469.3,1192.5 2467.5,1197.1 2461.1,1204 C2448.4,1217.8 2438.7,1223.8 2325.3,1288.5 C2099.2,1417.4 2081.9,1427.8 2010.3,1478.4 C1923.6,1539.5 1830,1619.2 1216.3,2153.3 C1190.1,2176.2 1187.1,2179.8 1191.8,2182.9 C1202.7,2190 1207.6,2196.3 1210.9,2207.2 C1214.1,2217.5 1213.2,2233.2 1209,2244.8 C1201.1,2266.2 1181.9,2284.6 1151.1,2300.3 C1129.6,2311.2 1060.8,2339.6 1032.1,2349.4 C1005.7,2358.3 995.7,2360.3 973.8,2360.6 C963.6,2360.7 954.2,2360.6 952.8,2360.4 L952.8,2360.4 Z" id="Shape" sketch:type="MSShapeGroup"></path>
            <path d="M1430.3,1536.9 C1400.6,1534.1 1323.4,1515.1 1241.5,1490.5 C1194.2,1476.2 1151.1,1467.4 1072.8,1456.1 C970,1441.2 880.1,1433.3 803.3,1432.3 C743.2,1431.6 728.8,1433.2 680.3,1446.1 C654,1453.1 651,1453.6 642.3,1452.1 C633.7,1450.6 628.7,1448 625.1,1443.4 C622.8,1440.3 622.3,1438.5 622,1432.5 C621.1,1416.2 630.8,1397.6 652.9,1372.9 C680.9,1341.7 733.1,1304.2 762,1294.6 C775.6,1290 785.9,1290.9 859.3,1303.5 C986.5,1325.3 991.1,1325.9 1000.9,1320.9 C1011.8,1315.5 1021.9,1294.6 1031.1,1258.5 C1034.3,1246.2 1034.9,1242.1 1035.8,1225 C1037.7,1187.6 1038.8,1136.1 1038.7,1077 C1038.7,1021.3 1038.1,998.9 1036.5,997.3 C1035.5,996.4 840.4,967.4 822.3,965.6 C801.2,963.4 768.5,961.3 724.6,959.4 C652.1,956.3 620,960.7 569.4,980.7 C556.5,985.8 544.8,989.4 516.3,997 C503.9,1000.3 480.7,1005.2 480.1,1004.6 C479.1,1003.6 479.6,960.7 480.7,953.6 C485.1,925.8 498.2,909.6 533.6,888.3 C542.4,883 593.8,856.7 642,832.9 C669.3,819.4 697.7,811 716.2,811 C721.1,811 772.7,819.7 882.1,839.1 C969.4,854.6 1041.1,867 1041.4,866.7 C1041.8,866.3 1039.8,219.1 1039.4,218.3 C1039.3,218.2 988.5,211.6 926.5,203.6 C817.1,189.4 637.9,169.3 600.3,167 C580.3,165.7 443.7,165.8 426,167.1 C394.9,169.3 366.7,174.9 347,182.9 C322.9,192.6 319.3,194.3 293,208.7 C273,219.7 253.1,229.3 247.3,230.9 C234.3,234.4 223.3,229.3 218.9,217.4 C213.1,202.1 216.6,160.9 225.7,137.5 C235.1,113 253.7,93.8 279.1,82 C283.9,79.8 297.8,72.6 310,65.9 C359,39.2 401.4,19.5 431.3,9.5 C461.6,-0.6 478.3,-2.2 504.8,2.5 C520.9,5.3 562.1,14.4 618.1,27.5 C654.5,36 657.1,36.4 854.6,68 L1054.3,99.9 L1202.8,109.4 C1379.6,120.8 1415.5,122.6 1512.2,125 C1564.6,126.4 1701.1,126.3 1730.3,125 C1780.1,122.7 1835.1,117.6 1907.8,108.5 C1918.5,107.1 1935.9,105.1 1946.3,104 C1956.8,102.9 1977,100.3 1991.3,98.4 C2031.4,92.9 2049,94.1 2068.3,103.7 C2093.5,116.4 2106.7,138.7 2105.6,166.8 C2104.8,186 2098.8,198.3 2081.9,215.1 C2058.4,238.5 2021.7,256.9 1966.7,272.9 C1937.8,281.3 1894.9,290 1882.4,290 C1874.6,290 1870.2,289.2 1840.3,282.5 L1816.3,277.1 L1726.8,271 C1677.6,267.7 1596.1,262.3 1545.8,259 C1495.5,255.8 1394.4,248.9 1321.1,243.8 C1247.8,238.7 1187.7,234.8 1187.4,235.1 C1187.2,235.3 1187.6,323 1188.4,430 C1189.7,613.6 1190,631.9 1193.7,757.3 C1195.9,830.4 1197.9,890.5 1198.3,890.8 C1198.6,891.1 1217.7,894.2 1240.6,897.7 L1282.3,903.9 L1421.3,913.9 L1560.3,924 L1628.8,925 C1714.8,926.2 1725,927.2 1741.6,935 C1755.8,941.7 1765.1,952.5 1770.4,968 C1771.9,972.4 1772.3,976.4 1772.3,988 C1772.2,1000.9 1771.9,1003.3 1769.6,1010.3 C1768.2,1014.6 1765.1,1021.3 1762.7,1025.3 C1757.4,1034.3 1744,1047.8 1733.3,1054.8 C1711.7,1069.2 1678.4,1081.6 1644.2,1087.9 C1615.5,1093.2 1605.4,1093.4 1583.8,1089 C1567.1,1085.6 1511.5,1071.7 1487.8,1065 C1474.3,1061.2 1464,1059.7 1334.8,1042.1 C1258.6,1031.7 1196.1,1023.4 1195.9,1023.6 C1195.6,1023.9 1196.5,1055.7 1199.4,1136 C1200.6,1172.2 1201.4,1183.5 1203.3,1196.5 C1208.3,1229.3 1211.1,1254.6 1211.2,1267.5 C1211.2,1279.2 1211,1281.3 1208.5,1288.4 C1203.9,1301.4 1197,1312 1178.7,1334.2 L1169.9,1344.9 L1175,1346 C1190.7,1349.3 1267.7,1361.8 1325.8,1370.4 C1407.7,1382.5 1444.5,1386.8 1478.8,1388 C1497.3,1388.7 1506.8,1389.5 1513.3,1390.9 C1540.8,1396.7 1555.9,1409 1561.3,1429.7 C1563.2,1437 1563.2,1455.5 1561.3,1463.6 C1555,1490.5 1531.9,1512.6 1495.6,1526.6 C1474.6,1534.7 1449.3,1538.7 1430.3,1536.9 L1430.3,1536.9 Z" id="Shape" sketch:type="MSShapeGroup"></path>
            <path d="M1591.3,872.9 C1581.8,871.9 1571.5,866.6 1555.6,854.5 C1548.5,849.2 1542.8,844.5 1542.8,844 C1542.8,843.6 1547.5,831.8 1553.3,817.9 C1572.7,771.4 1574.2,764.5 1569.9,742.2 C1558.8,684.1 1496.5,556.6 1431.5,459 C1416.4,436.3 1408.7,425.8 1381.3,390.5 C1346.1,345.3 1336.3,330.1 1331.9,314 C1328.6,302.2 1328.4,302.7 1339.2,299.6 L1348.5,297 L1357.4,300.1 C1406.2,317.2 1458.9,353.8 1543.9,429.6 C1557,441.2 1571.2,456.5 1631.3,523 C1682.7,580 1712.5,612 1736.3,636 C1782.6,682.7 1787.6,689.6 1788.5,706.8 C1789,715.3 1788.9,715.6 1784.9,723.8 C1774.6,744.7 1754.3,770.6 1725.4,799.6 C1703.9,821 1690.2,832.8 1672.3,844.9 C1640.4,866.6 1615,875.4 1591.3,872.9 L1591.3,872.9 Z" id="Shape" sketch:type="MSShapeGroup"></path>
            <path d="M397.4,706.2 C396,703.4 394.8,700.7 394.8,700.2 C394.8,699.7 402.8,692.2 412.5,683.4 C476.3,626.2 517.8,577.9 565.3,506 C594.9,461.2 621.3,415.8 655.3,351.5 C688.4,288.9 699.7,274.6 722.4,266.4 C735.4,261.6 757.9,261.4 769.9,265.9 C791.4,274 805.5,297.3 809.7,331.5 C811.1,342.9 811.1,370 809.8,381 C804.4,424.4 786.3,467.4 756.4,507.8 C721.8,554.5 670.5,599.6 614,632.9 C594.4,644.5 539.3,670.9 504.8,685.3 C464.2,702.2 440.4,708.5 410.1,710.6 L400,711.3 L397.4,706.2 L397.4,706.2 Z" id="Shape" sketch:type="MSShapeGroup"></path>
        </g>
    </g>
</svg>