<?xml version="1.0" encoding="UTF-8" standalone="no"?>
<svg width="2218px" height="1600px" viewBox="0 0 2218 1600" version="1.1" xmlns="http://www.w3.org/2000/svg" xmlns:xlink="http://www.w3.org/1999/xlink" xmlns:sketch="http://www.bohemiancoding.com/sketch/ns">
    <!-- Generator: Sketch 3.0.4 (8054) - http://www.bohemiancoding.com/sketch -->
    <title>Slice 2</title>
    <desc>Created with Sketch.</desc>
    <defs></defs>
    <g id="Page-1" stroke="none" stroke-width="1" fill="none" fill-rule="evenodd" sketch:type="MSPage">
        <g id="Group" sketch:type="MSLayerGroup" transform="translate(1109.000000, 799.900000) scale(1, -1) translate(-1109.000000, -799.900000) translate(0.000000, 0.400000)" fill="#000000">
            <path d="M1979.5,1598.3 C1970.6,1597.2 1955.9,1592.4 1945,1587.1 L1936.5,1582.9 L1925.7,1564 C1915.2,1545.6 1915,1545.1 1916.7,1543.1 C1917.7,1542 1931,1528 1946.4,1512 C1990.7,1465.6 2001.5,1452.9 2008.1,1438.9 C2015.9,1422.4 2020.6,1404.8 2023.6,1381.2 C2025.7,1364.2 2026.5,1307.3 2025.1,1277.1 C2024.5,1264 2012.1,1060.8 1997.5,825.6 C1983,590.4 1970.5,388.8 1969.9,377.7 L1968.6,357.5 L1961.6,356 C1956.1,354.8 1925.4,353.7 1823,350.9 C1741.5,348.7 1613.8,344.3 1487,339.3 L1282.5,331.3 L1069.5,312.8 L856.5,294.3 L720.5,277.9 C645.7,268.8 528.3,253.7 459.6,244.4 C390.9,235.1 334.3,227.7 333.9,228 C332.5,228.8 329.2,240.7 328.1,248.5 C326.2,262.6 325.9,287.1 324.4,540.4 C323.6,680.4 322.5,802.3 322,811.4 C321.4,820.5 320.1,840.1 319,854.9 C314,923.1 313,959.2 313,1070.4 C313,1123.2 312.6,1168.9 312,1176.9 C308.7,1221.5 300.9,1259.1 291.2,1276.9 C286.8,1284.9 278.4,1292.5 252,1312.3 C158.2,1382.7 73.4,1413.2 27.9,1393 C20.5,1389.8 10.7,1382.3 6.9,1377.2 C1.9,1370.3 0,1365.5 0,1358.9 C0,1346.1 4.3,1340.6 55.4,1287 C87,1253.9 96.4,1242.1 109.8,1218.7 C122.6,1196.2 132.9,1170 136,1152 C140.6,1124.6 149,1045.4 158.5,938.1 C161.5,904.5 162.9,877.9 167.5,767.6 L172.9,636.9 L171.5,447.4 L170.1,257.8 L163.1,216.4 C159.2,193.6 155.6,170.2 154.9,164.4 C153.7,154.1 153.8,153.6 156.4,144.4 C162.5,123 178.8,87.5 192.4,65.6 C210.3,36.8 231.9,14.3 249.5,5.9 C260,1 264.7,9.09494702e-13 277,9.09494702e-13 C295.9,0.1 299.6,1.9 345.8,32.6 C385.3,58.8 397.5,65.8 416,72.9 C427.5,77.4 427,77.3 541.5,102.8 L642.5,125.3 L774,141.3 L905.5,157.4 L1140,178.4 L1374.5,199.5 L1561,202.4 C1779.9,205.9 1922.7,206.4 1934,203.8 C1944.9,201.3 1947.8,197.2 1953.2,175.9 C1966.2,124.2 1984.3,98.4 2013.5,89.8 C2021.8,87.4 2038.4,87.4 2046.5,89.8 C2066.1,95.7 2083.3,112.8 2095.4,138.5 C2108.6,166.5 2117.7,205.4 2122,251.9 C2122.5,258 2123.7,289.5 2124.5,321.9 C2125.3,354.4 2126.2,383.2 2126.5,385.9 C2126.8,388.7 2136,534.7 2147,710.4 L2166.9,1029.9 L2181.5,1195.9 L2196.1,1361.9 L2204.1,1386.9 C2215.8,1424 2218.3,1434.2 2217.6,1443.4 C2216.3,1460.6 2210.8,1466.5 2155.9,1508.9 C2084.7,1564 2070.4,1574.3 2051.1,1584.1 C2028.7,1595.5 2000.7,1601.1 1979.5,1598.3 L1979.5,1598.3 Z" id="Shape" sketch:type="MSShapeGroup"></path>
        </g>
    </g>
</svg>