<?xml version="1.0" encoding="UTF-8" standalone="no"?>
<svg width="2445px" height="2433px" viewBox="0 0 2445 2433" version="1.1" xmlns="http://www.w3.org/2000/svg" xmlns:xlink="http://www.w3.org/1999/xlink" xmlns:sketch="http://www.bohemiancoding.com/sketch/ns">
    <!-- Generator: Sketch 3.0.4 (8054) - http://www.bohemiancoding.com/sketch -->
    <title>Slice 2</title>
    <desc>Created with Sketch.</desc>
    <defs></defs>
    <g id="Page-1" stroke="none" stroke-width="1" fill="none" fill-rule="evenodd" sketch:type="MSPage">
        <g id="Group" sketch:type="MSLayerGroup" transform="translate(1222.250000, 1216.300000) scale(1, -1) translate(-1222.250000, -1216.300000) translate(0.000000, 0.400000)" fill="#000000">
            <path d="M1419,2431.6 C1411.7,2430.1 1403.2,2427.6 1392.2,2423.5 L1379.9,2419 L1380.5,2410.8 C1381.6,2397.4 1386.6,2372.2 1389.9,2363.5 C1400.1,2336.2 1399.3,2339 1397.6,2335.7 C1392.6,2326.5 1362.7,2311.4 1311.5,2292.2 C1260,2272.9 1228.2,2263.2 1099.5,2227.2 L974.5,2192.3 L845,2164.3 C721,2137.5 709.7,2135.2 579,2111.1 L442.5,2086 L432,2079.5 C426.2,2075.9 421.3,2072.8 421.1,2072.6 C420.9,2072.5 421.6,2069.8 422.5,2066.7 C426.2,2055.2 437.5,2047.1 455.5,2043.3 C475.5,2039 520.1,2033.5 558.5,2030.6 C593.8,2028 622.6,2029.2 747,2038.7 C814.2,2043.9 814.2,2043.9 922.9,2059.6 L1023.3,2074.2 L1033.9,2067 C1070.5,2042.2 1087.2,2025.2 1099,2000.7 C1107,1984 1112.3,1964.2 1115.5,1938 C1117.5,1922.7 1118.5,1875.5 1117.5,1848.2 L1116.8,1827.7 L993.1,1810.4 C925.1,1800.9 806.7,1784.4 730,1773.7 C493.7,1740.6 484,1739.6 422.3,1740.5 C382.7,1741.1 368.5,1742.4 342.9,1747.8 C315.2,1753.6 289.3,1764.8 269.1,1779.6 C243.7,1798.2 235.3,1801.2 207.3,1801.2 L197.1,1801.2 L193.1,1794.4 C187.7,1785.4 182.4,1773 180.3,1764.6 C177.9,1754.5 178.1,1738.9 180.9,1728.2 C190,1693.2 225.4,1649.5 274.3,1612.9 C305,1589.8 340.1,1571.5 368,1564 C372.7,1562.7 380,1561.8 387.5,1561.5 C398.2,1561.1 401.1,1561.4 414,1564.1 C431.2,1567.8 457,1574.7 476.6,1580.8 C485.5,1583.5 522.7,1592 576.6,1603.6 C652.1,1619.8 677.4,1624.7 785.4,1644.2 C853,1656.3 908.4,1666.1 908.7,1665.8 C909.6,1664.9 865.5,1613.8 837.3,1583.1 C752.1,1490.3 640.2,1393.2 481.5,1274.2 C378.4,1196.9 302.8,1148.2 207,1097.2 C181.9,1083.8 118.1,1052.3 78.8,1033.8 C38.9,1015 25.6,1007.5 14.9,997.4 C2.5,985.8 -2.8,972 1.5,962.8 C4.2,957.1 11.7,953.2 20,953.2 C45.3,953.2 155,989.1 245,1026.7 C482.2,1126.1 713.8,1273.2 914,1451.8 C973.9,1505.2 1057.8,1589.1 1106.5,1644 L1116.5,1655.3 L1117.1,1641.5 C1121.1,1555 1120.8,1512.8 1115.1,1338.2 C1110.5,1196.9 1110.4,1194.5 1112.6,1172.1 C1118.9,1105.6 1139.4,1058.2 1168.2,1043.6 C1182.6,1036.3 1202.4,1036.4 1217.7,1043.8 C1240.6,1054.8 1254.8,1083 1261.1,1129.7 C1263.7,1149.1 1264.2,1176.5 1267.1,1451.5 C1268.4,1569 1269.8,1665.2 1270.2,1665.2 C1270.6,1665.2 1281.2,1657.8 1293.7,1648.8 C1316.1,1632.7 1321.5,1628 1570,1406.7 L1823.5,1181.1 L1907,1116.3 C1952.9,1080.7 1996.6,1047 2004,1041.5 C2049.3,1007.8 2071.5,1000.5 2120.9,1003.2 C2142.9,1004.4 2141.7,1004.3 2232,1013.2 C2380.9,1027.9 2407.5,1031.4 2428.1,1039.1 C2439.8,1043.5 2446.6,1052.8 2444,1060.7 C2440.7,1070.8 2417.8,1085.6 2360.5,1114.7 C2342.4,1123.9 2322.8,1134 2317,1137.2 C2311.2,1140.4 2258.6,1168.2 2200,1199 C2105,1248.9 2075.7,1264.8 2029.4,1291.4 C2022.3,1295.5 1969.5,1328 1912.1,1363.7 L1807.7,1428.5 L1696,1509.1 C1604.2,1575.3 1565.2,1602.7 1477.1,1662.7 L1370,1735.7 L1373.7,1736.5 C1375.8,1736.9 1452,1744.8 1543,1754.2 L1708.5,1771.1 L1828,1772.7 C1954.4,1774.3 1957,1774.3 2043,1770.1 C2079,1768.4 2088.3,1768.2 2097,1769.2 C2135.2,1773.4 2159.2,1790.4 2165.6,1817.8 C2167.6,1826.6 2167.5,1844.9 2165.4,1854.2 C2158,1886.7 2132.1,1912.2 2093.3,1925.1 C2070.9,1932.6 1983.7,1953.2 1948.7,1959.2 L1937.9,1961 L1926.8,1958.1 C1912.9,1954.5 1887.6,1947.1 1842.6,1933.6 C1800.1,1920.8 1790.6,1918.8 1725,1908.7 C1696.8,1904.4 1281.7,1849.3 1281.1,1849.8 C1280.9,1850 1281.3,1854.9 1281.9,1860.8 C1282.5,1866.7 1283.5,1881.2 1284,1893.1 C1285.7,1926.7 1286.6,1935.8 1291.1,1963.7 C1296.6,1997.1 1297,2012.1 1292.9,2022 C1288.6,2032 1284,2038.8 1276,2047.1 C1262.7,2060.7 1243.4,2074.7 1207.2,2096.7 L1190.8,2106.6 L1196.2,2107.8 C1252.6,2120.8 1624,2209.5 1635.5,2212.7 C1670.9,2222.7 1684.3,2233.5 1687.1,2254.2 C1689.7,2272.7 1683.1,2289.5 1667.1,2305.2 C1657.4,2314.8 1648.3,2321.5 1617.5,2342.1 C1557.9,2381.8 1514.1,2406.7 1479.5,2420.5 C1459.1,2428.6 1448.1,2431.3 1433.5,2431.7 C1426.9,2431.9 1420.4,2431.8 1419,2431.6 L1419,2431.6 Z" id="Shape" sketch:type="MSShapeGroup"></path>
            <path d="M1701,1080.3 C1691.1,1077.6 1680.9,1073.3 1649.1,1058.2 C1627.7,1048.1 1615.9,1044.4 1589.3,1039.2 C1573.8,1036.2 1537.5,1030.9 1524.5,1029.7 C1520.7,1029.3 1365.2,1011.3 1179,989.7 C992.8,968 830.2,949.3 817.5,948.1 C801.2,946.6 790,946.1 779,946.4 C764.9,946.8 762.7,947.1 754.3,950 C749.3,951.7 733.9,958.7 720.2,965.6 C691.4,980 678.7,985.6 660.5,991.8 C619.3,1006 590.9,1007.9 570.4,998 C561.9,993.9 549.1,981.6 540.5,969.4 L534.7,961 L535.4,953.4 C536.4,941.8 538.5,938.6 554,924.8 C572.6,908.4 588.4,892.1 595.2,882.5 C607.3,865.7 616.9,849.1 619.6,840.8 C627,817.3 636.7,760.4 646.9,680.2 C653.8,626.2 654.8,615.7 663,500.2 C672.4,368.4 692.3,120.9 694.5,107.2 C703,56 730.8,12.4 761.5,2.2 C770.2,-0.7 782.8,-0.7 792,2.1 C810.8,8 825.1,22.4 848.5,59 C853.9,67.3 859.9,75.8 861.9,77.8 C871.2,86.9 892.4,93.2 925.8,96.7 C933.9,97.6 1011.2,106.5 1097.5,116.7 L1254.5,135.1 L1418.5,145.8 C1508.7,151.7 1586.6,156.5 1591.5,156.5 C1605.9,156.5 1613.7,152.1 1619.4,140.6 C1620.8,137.7 1622,134.9 1622,134.2 C1622,133.6 1623.7,130 1625.7,126.4 C1638.9,102.3 1656.4,82.5 1670.2,75.7 C1680.3,70.7 1688.1,70.1 1700.1,73.1 C1730.2,80.7 1754.5,104 1765,135.3 C1769.3,147.9 1780.7,200.5 1791.4,256.7 C1803.2,318.4 1803.2,318.5 1815,447.5 L1826,567.7 L1839.6,661.2 C1858.5,792 1858.6,792.2 1867.3,805.2 C1869.7,808.8 1875,816.7 1879.1,822.7 C1899.7,853.1 1909.4,882.4 1904.9,901 C1892.2,953.5 1761.9,1075.5 1712,1081.5 C1709.2,1081.8 1705,1081.4 1701,1080.3 L1701,1080.3 Z M1660.3,897.8 C1684.6,892.5 1694.9,878.2 1695,850 C1695,831.9 1684.4,703.9 1681.3,685.5 L1678.6,669.3 L1673.6,668.8 C1670.8,668.4 1654.1,667.3 1636.5,666.2 C1618.9,665 1522.2,656.9 1421.5,648.1 C1244.3,632.6 1232.7,631.5 1055.1,612.1 C892.4,594.3 868.3,591.5 841.6,586.8 C812.1,581.7 811.5,581.6 811.3,583.6 C811.1,584.8 810.3,598.3 809.5,613.7 C808.7,629.1 806.4,665.3 804.5,694.2 C800.6,752.6 798,795.7 798,800.6 L798,803.7 L823.8,808 C840.3,810.7 919.9,820.4 1046.5,835.2 C1243.5,858.1 1590.4,897.5 1610.7,899.2 C1625.1,900.4 1651.8,899.6 1660.3,897.8 L1660.3,897.8 Z M1667.5,533.5 C1667.2,531.4 1662.5,483.8 1657,427.7 C1647.9,334.9 1645.8,317.4 1641.9,302.1 L1641,298.6 L1617.8,297.3 C1605,296.6 1505.4,288.3 1396.5,278.7 L1198.5,261.3 L1046.5,242.8 C916.3,227 838.4,218.2 837.5,219.4 C836.5,220.8 830.7,281.1 824.5,356.2 C820.4,406 816.9,448.5 816.6,450.7 L816.1,454.8 L854.8,459.5 C876.1,462.1 978.3,473.4 1082,484.7 C1253.1,503.3 1285.6,506.5 1433.8,519.7 C1575.7,532.3 1607.1,534.9 1636,536.5 C1639,536.7 1647.5,536.9 1654.8,537 L1668,537.2 L1667.5,533.5 L1667.5,533.5 Z" id="Shape" sketch:type="MSShapeGroup"></path>
        </g>
    </g>
</svg>