<?xml version="1.0" encoding="UTF-8" standalone="no"?>
<svg width="2318px" height="2478px" viewBox="0 0 2318 2478" version="1.1" xmlns="http://www.w3.org/2000/svg" xmlns:xlink="http://www.w3.org/1999/xlink" xmlns:sketch="http://www.bohemiancoding.com/sketch/ns">
    <!-- Generator: Sketch 3.0.4 (8054) - http://www.bohemiancoding.com/sketch -->
    <title>Slice 2</title>
    <desc>Created with Sketch.</desc>
    <defs></defs>
    <g id="Page-1" stroke="none" stroke-width="1" fill="none" fill-rule="evenodd" sketch:type="MSPage">
        <g id="Group" sketch:type="MSLayerGroup" transform="translate(1158.600000, 1238.750000) scale(1, -1) translate(-1158.600000, -1238.750000) translate(0.100000, 0.000000)" fill="#000000">
            <path d="M965.4,2476 C931,2468.4 910.9,2444.9 913.2,2414.9 C914.1,2402.9 916.1,2400.6 938.4,2385.5 C961.3,2369.9 974.8,2355 985.8,2332.8 C999.2,2305.9 1007.3,2273.1 1011.9,2226.5 C1015.1,2194.7 1016,2174 1016.6,2117 L1017.2,2063 L805.3,2034.7 C688.8,2019.1 587.6,2005.9 580.4,2005.3 C540.7,2002.1 497.7,2010 455.8,2028.1 C451.2,2030.1 441,2033.9 433.3,2036.6 C425.5,2039.2 408.6,2045.6 395.8,2050.7 C375.8,2058.6 371.6,2059.9 367.1,2059.8 C351.9,2059.4 335.5,2042.6 330.9,2022.6 C329.3,2015.6 330.1,2002.7 332.7,1995.3 C337.8,1981.1 349.2,1962 363.9,1943.5 C374.5,1930 407.2,1897.4 421.4,1886.1 C447.9,1865.1 473.5,1850.7 494,1845.5 C508.5,1841.8 518.3,1842.5 589.1,1852.6 L618.8,1856.8 L623.3,1854.1 C634.5,1847.5 648.7,1817.8 664.2,1768.5 C675.4,1733 742.1,1498.3 741.3,1497.6 C740.8,1497.1 728.3,1493.8 713.4,1490.1 C691.7,1484.8 669,1480.4 597.4,1467.9 L508.4,1452.4 L421.4,1443 C286.5,1428.3 287.7,1428.4 260.4,1427.8 C225.2,1427 197.7,1429.4 168.3,1436 C150.1,1440.1 136.2,1445 107.4,1457.2 C58.8,1478 42.4,1483.7 31.3,1483.7 C15.5,1483.7 5.5,1474.8 1.3,1456.8 C-0.8,1447.8 -0.2,1422.6 2.4,1414.5 C9.2,1392.8 22.1,1377.2 64.4,1339.4 C131.5,1279.7 156.5,1261.8 185.4,1252.8 C194,1250.2 195.3,1250.1 214.9,1250.1 C242.1,1250.1 243.9,1250.5 321.9,1270.3 C343.6,1275.9 402.1,1289.4 451.9,1300.5 C537,1319.5 551.9,1322.4 702.4,1350.6 C790.4,1367.1 868.9,1381.9 876.9,1383.5 C901.7,1388.5 935.5,1392.4 957.5,1392.6 C974,1392.8 978.2,1391.4 986.9,1382.6 C1000,1369.4 1007.9,1348.4 1014.9,1308.2 C1025.4,1247.5 1029.9,1186.4 1029.8,1107 C1029.8,1066.7 1028.3,992.6 1027.5,991.7 C1027.2,991.4 917,975.5 782.7,956.4 C648.3,937.3 532.8,920.8 525.9,919.6 C500.7,915.5 488.8,914.5 465.9,914.5 C441.8,914.5 427.9,915.5 407.7,918.5 C382.1,922.4 374.5,925 322.4,948.3 C269.9,971.6 273,970.5 267.4,969.4 C253,966.7 238.6,952.2 232.2,934 C229.8,926.9 229.5,924.6 229.4,913.5 C229.4,898.2 230.9,892.6 239,876 C247.3,858.8 255.9,847.5 274.4,829 C310.1,793.2 356.9,763.8 402.8,748.3 C421.2,742.1 432.3,740.2 446.4,740.8 C457,741.2 461.5,742.1 485.9,748.3 C501,752.1 524.7,758.4 538.4,762.3 C554.4,766.9 601.8,778.1 669.9,793.4 L776.4,817.3 L885.4,835.9 C945.4,846.1 1000.7,855.1 1008.5,855.8 L1022.6,857.1 L1024,819.5 C1026.8,744.5 1026,701 1017.6,460 C1013.4,339.6 1009.5,231.1 1008.8,219 C1006.1,166.7 1014.2,103.3 1028.4,64.9 C1035.9,44.8 1047.7,25.3 1057.8,16.2 C1064.7,10 1073.8,4.6 1081.4,2.2 C1087.1,0.4 1090.7,6.82121026e-13 1101.4,6.82121026e-13 C1116.2,6.82121026e-13 1122.1,1.2 1132.9,6.2 C1138.7,9 1142.2,11.6 1148.4,17.9 C1173.3,43.1 1183.3,91.4 1186.9,202.5 C1187.5,221.1 1187.9,345.3 1187.9,506 C1187.9,719.8 1188.2,788.8 1189.4,828.4 C1190.2,856.1 1191,878.9 1191.1,879 C1192.5,880 1249.3,886.2 1338.4,895 L1445.4,905.6 L1575.8,907 L1706.3,908.4 L1780.3,900 C1821.1,895.4 1862.5,890.4 1872.4,889.1 C1922.2,882.2 1943.7,880.6 1956.7,882.9 C1987.2,888.2 2007.6,905.7 2014.6,932.5 C2017.1,941.9 2016.8,961.5 2014.1,971.6 C2008.8,991.2 1995.3,1009.9 1974.7,1026.2 C1943,1051.3 1886.7,1074 1831.4,1084 C1797.3,1090.1 1794.9,1089.9 1688.4,1073 C1618.4,1061.9 1639.6,1064.6 1408.4,1038 C1296.2,1025.1 1202.6,1014.2 1200.5,1013.9 L1196.6,1013.3 L1197.3,1087.6 C1198.6,1218.7 1199.6,1261.6 1201.9,1288 C1204.4,1316.9 1204.7,1346.7 1202.6,1357.5 C1199.2,1374.6 1192.5,1386.5 1177.7,1402 L1168.9,1411.3 L1172.1,1411.9 C1181.5,1413.5 1258.2,1424 1289.9,1427.9 C1363.1,1437 1375.7,1438 1515.4,1445 C1575.4,1448.1 1638.2,1451.2 1655.1,1452.1 C1684.5,1453.6 1691.9,1453.6 1823.6,1451.1 L1961.4,1448.4 L2071.4,1434.4 C2131.9,1426.7 2189.3,1419.3 2198.9,1417.9 C2244.8,1411.3 2265.3,1410.1 2277,1413.3 C2293.2,1417.8 2304.9,1429.2 2312.2,1447.5 C2315.6,1456.1 2317,1464.5 2317,1475.9 C2317,1497.2 2308.3,1515.1 2287.9,1535.6 C2275.6,1547.9 2263.1,1557.5 2244.8,1568.6 C2198.5,1596.6 2129.1,1620.1 2086.8,1622.2 C2071.6,1623 2016.6,1618.8 1969.9,1613.4 C1939.7,1609.9 1913.4,1607.6 1884.4,1606 C1869,1605.1 1774.8,1598.9 1675.1,1592.3 C1575.4,1585.7 1493.6,1580.4 1493.4,1580.7 C1493.1,1581 1496.2,1589.1 1500.3,1598.7 C1516.2,1636.4 1526.7,1665.7 1552.3,1744 C1566,1786 1572.2,1803.1 1581.9,1826.5 C1603.3,1878.1 1614,1906.5 1619.1,1925.5 C1621.6,1935 1622,1938.2 1621.6,1944.5 C1620.8,1958.4 1613.6,1971.4 1597.7,1988 L1588.9,1997.3 L1594.1,1997.9 C1597,1998.2 1610.4,1999.4 1623.9,2000.6 C1647.7,2002.7 1650.4,2002.7 1719.4,2001.6 C1807.1,2000.2 1847.9,2000.2 1858.9,2001.5 C1893.4,2005.7 1913.7,2020.8 1919,2046 C1920.6,2053.9 1920.6,2068.6 1918.9,2075.5 C1914,2096.5 1895.8,2117.8 1868.6,2134.4 C1836.3,2154.1 1787.9,2170.4 1752.4,2173.3 C1727.6,2175.4 1689.3,2170.1 1649.1,2158.8 C1601.4,2145.5 1576.5,2139.5 1568.8,2139.5 C1566.9,2139.5 1479,2126.9 1373.4,2111.6 C1267.8,2096.3 1181.3,2083.8 1181.1,2084 C1180.7,2084.4 1182.7,2160 1183.9,2192.5 C1185.4,2229.7 1187.3,2249.7 1192.4,2280 C1200.5,2328.1 1202,2339.3 1202,2351.5 C1201.9,2372.3 1197.5,2384 1184.9,2396.5 C1175,2406.3 1163,2413.6 1129.4,2430.5 C1059.9,2465.5 996.9,2483 965.4,2476 L965.4,2476 Z M1402.1,1978.2 C1409.6,1974.5 1415.5,1967.8 1417.6,1960.6 C1421.6,1946.7 1415.5,1896 1401.8,1829.5 C1386.1,1753.4 1356.4,1637.7 1336,1573 L1334.1,1567 L1304.8,1563.3 C1184.1,1547.9 894.4,1514 889.5,1514.7 C887.7,1515 887.3,1516.9 884.7,1537.5 C873.8,1624.7 843.2,1756.5 824.9,1795.1 C815.6,1814.6 797.9,1837.3 768.5,1867.3 C758.7,1877.3 750.8,1885.7 751,1885.9 C752.6,1887.4 796.1,1894.6 928.3,1915 C1163.7,1951.5 1342.1,1978.5 1356.9,1980 C1364.3,1980.7 1376.3,1981.2 1383.4,1981.2 C1395.5,1981 1396.8,1980.8 1402.1,1978.2 L1402.1,1978.2 Z" id="Shape" sketch:type="MSShapeGroup"></path>
        </g>
    </g>
</svg>