<?xml version="1.0" encoding="UTF-8" standalone="no"?>
<svg width="1621px" height="1345px" viewBox="0 0 1621 1345" version="1.1" xmlns="http://www.w3.org/2000/svg" xmlns:xlink="http://www.w3.org/1999/xlink" xmlns:sketch="http://www.bohemiancoding.com/sketch/ns">
    <!-- Generator: Sketch 3.0.4 (8054) - http://www.bohemiancoding.com/sketch -->
    <title>Slice 2</title>
    <desc>Created with Sketch.</desc>
    <defs></defs>
    <g id="Page-1" stroke="none" stroke-width="1" fill="none" fill-rule="evenodd" sketch:type="MSPage">
        <g id="Group" sketch:type="MSLayerGroup" transform="translate(810.500000, 672.100000) scale(1, -1) translate(-810.500000, -672.100000) translate(0.000000, 0.100000)" fill="#000000">
            <path d="M1409.4,1342.6 C1395.6,1339.6 1371.1,1331.6 1325,1315.1 C1298.2,1305.6 1282.9,1301.1 1243.5,1291.2 C1191.3,1278.2 1171.9,1274.5 977.5,1240.2 L779.5,1205.2 L692.6,1194.6 C644.7,1188.7 599.5,1183.1 592.1,1182 C572.1,1179 529.7,1178.3 508.9,1180.6 C466.6,1185.3 406.2,1198.2 389.1,1206.1 C385.6,1207.8 371,1216.2 356.6,1224.8 C324.2,1244.2 313.8,1249.4 305.3,1249.9 C289.5,1251 276.8,1239.7 272.9,1221.3 C271,1212 272.3,1188.6 275.3,1177.1 C282.7,1149.6 294.9,1130.8 331.4,1091.1 C366.8,1052.5 385,1036.3 402.5,1027.5 C416.2,1020.7 423.2,1019 439.5,1018.4 C459.9,1017.6 470,1019.6 563.6,1042 C639.8,1060.3 663.8,1065.1 678.8,1065.2 C692.6,1065.4 695,1063.2 695,1050.9 C695,1037.3 690.7,1015.4 682.6,988.6 C661.4,917.6 604.3,793.6 545.7,691.1 C419.5,470.2 272,295.6 113.4,179.1 C96,166.3 82.2,156.9 42.5,130.9 C20,116.1 12.5,110.1 7.8,102.9 C4.4,97.7 9.09494702e-13,87.9 9.09494702e-13,85.7 C9.09494702e-13,84.1 12.5,77.6 19.5,75.6 C33.6,71.5 63.5,78.7 110.5,97.6 C196.7,132.1 291,189.9 358.5,249.4 C424.7,307.8 507.9,399.8 582.1,496.6 C619.6,545.6 625.8,554.5 691.2,655.1 L746.7,740.6 L799.9,837.9 C846.6,923.4 855.7,939.2 874.5,968.7 C886.3,987.2 896,1003.3 896,1004.5 C896,1005.7 898.3,1015.7 901.1,1026.7 C907.9,1053 907.8,1054.4 898.1,1081.5 C894.2,1092.4 891,1101.7 891,1102.2 C891,1103.3 897.4,1105.1 922.5,1111 C962.7,1120.5 978.3,1123.4 1156.4,1154.3 C1325.2,1183.6 1336.4,1185.4 1350.5,1185.8 C1367.7,1186.3 1376.3,1185 1386.6,1180.2 C1398.6,1174.6 1406.6,1164.3 1410.1,1150.1 C1412,1142.4 1411.8,1109.6 1409.6,1090.6 C1404.8,1047.1 1405.7,1051.9 1367.4,865.6 L1335,707.6 L1306.5,602.1 C1290.3,541.9 1275.5,488.9 1272,478.6 C1251,417.5 1220.5,345.2 1204.3,318.6 C1189.5,294.1 1170,274.1 1152.3,265.2 C1139.5,258.8 1132.8,257.6 1110,257.6 C1095.3,257.6 1086.2,258.2 1078,259.4 C1026.8,267.4 941,290 857,317.6 C821,329.4 815.7,330.5 783.1,333.6 L777.7,334.1 L778.4,329 C779.4,322 784.1,309.3 788.6,301.9 C794.4,292.5 806,279.1 816.3,270.3 C821.3,265.9 864.2,231.9 911.5,194.7 C983.2,138.3 998.4,125.9 1002.7,120.3 C1011.2,109.5 1020,90.5 1035.4,49.6 C1041.3,34.1 1046.2,25.8 1054.4,17.5 C1067.2,4.7 1080.9,-0.1 1104.5,-6.93489753e-13 C1136.3,0.1 1164.5,9.9 1199,32.7 C1243.2,61.9 1292.7,116.4 1326.6,173.4 C1363.7,235.5 1393.9,316 1438,470.1 C1456.5,534.9 1501,720.4 1534,870.6 C1561.5,995.9 1566.7,1017.9 1572.5,1033.8 C1574.5,1039.2 1584.2,1060 1594,1080.1 C1604.7,1102 1613.1,1120.4 1614.8,1126.1 C1621,1145.6 1622.5,1162.1 1619.4,1175.1 C1617.4,1183.6 1609.8,1199.5 1602.5,1210.1 C1564.6,1265.7 1476.8,1332.6 1428.8,1342.5 C1419.8,1344.4 1417.5,1344.4 1409.4,1342.6 L1409.4,1342.6 Z" id="Shape" sketch:type="MSShapeGroup"></path>
        </g>
    </g>
</svg>