<?xml version="1.0" encoding="UTF-8" standalone="no"?>
<svg width="969px" height="2285px" viewBox="0 0 969 2285" version="1.1" xmlns="http://www.w3.org/2000/svg" xmlns:xlink="http://www.w3.org/1999/xlink" xmlns:sketch="http://www.bohemiancoding.com/sketch/ns">
    <!-- Generator: Sketch 3.0.4 (8054) - http://www.bohemiancoding.com/sketch -->
    <title>Slice 2</title>
    <desc>Created with Sketch.</desc>
    <defs></defs>
    <g id="Page-1" stroke="none" stroke-width="1" fill="none" fill-rule="evenodd" sketch:type="MSPage">
        <g id="Group" sketch:type="MSLayerGroup" transform="translate(484.100000, 1143.000000) scale(1, -1) translate(-484.100000, -1143.000000) translate(0.100000, 1.000000)" fill="#000000">
            <path d="M570.9,2281.7 C561.7,2278.6 555.4,2274.7 547.5,2267.1 C540.2,2260 527.9,2245.5 527.9,2243.8 C527.9,2243.2 529.9,2238.5 532.3,2233.4 C539.6,2218 548.9,2204.7 576.4,2170 C592.9,2149.2 596.9,2143.8 600.8,2136.9 C606.9,2126 611,2109.9 612.4,2090.5 C613.1,2079.6 621.2,1608 620.6,1607.4 C620,1606.8 568,1592.2 533.1,1582.9 C489.2,1571.2 445.5,1561.2 415.3,1556.1 C402.9,1554 374.9,1550.6 374.4,1551.2 C374.2,1551.4 374.5,1561.4 374.9,1573.5 C376.5,1613.2 379.7,1732.1 381.8,1830.5 C382.5,1863 383.3,1875.7 386.3,1907 C395.4,2003.1 396.4,2019.7 393.5,2032.4 C387.4,2058.4 370.1,2070.4 304.9,2094.2 C240.6,2117.5 156.1,2134.2 129.9,2128.6 C119.2,2126.4 109.5,2121.3 102.7,2114.3 C90.9,2102.2 85.4,2088.9 86.1,2074.2 C87,2057.3 93.3,2050.3 122.9,2034 C183.8,2000.4 211.5,1961.5 220.3,1897.5 C224.4,1867.5 224.8,1806.7 221.9,1627 C212.8,1057.6 189.6,771.4 132.8,529 C105.4,412.2 71,307.9 2.1,133.4 L0,128.3 L5.3,117.4 C12,103.5 16.5,99 23.7,99 C30.2,99 35.1,102.3 46.4,114.1 C82.2,151.5 133.8,239.8 178.6,340.5 C249.1,499 304.4,690.7 331.9,872.5 C333.6,883.5 335.4,895.5 336,899.1 L337,905.7 L345.2,907.4 C361.2,910.8 372.8,914 383.5,918 C399.6,924 611.5,985.8 625.4,988.5 C636.9,990.7 652.5,992.6 665.5,993.3 L671.7,993.6 L674.8,977.6 C679.1,955.2 680.7,942.5 682.1,920.5 C683.2,902 683,896.6 674.6,722.5 L665.8,543.5 L652.9,404 L639.9,264.5 L639.9,197.7 L639.9,131 L642.9,116.7 C655.7,56.5 676.4,19.8 705.5,6 C713.9,2 723.2,-9.09494702e-13 734.4,-9.09494702e-13 C755.2,-9.09494702e-13 766.3,6.7 775.8,25 C789.9,52 798.3,107 804.4,212 C805.2,226.6 813.1,370.1 821.9,531 C836.6,799.7 838.1,825.3 840.9,845.5 C850.4,914 851,917.4 864.1,967.5 C873.5,1003.7 877.9,1024.3 877.9,1032 C877.9,1057.9 851.7,1090.9 804.2,1124.8 C772.2,1147.6 726.5,1171.5 707.8,1175 C700.5,1176.4 690.5,1174.5 682.9,1170.4 C679.3,1168.4 667.3,1160.3 656.2,1152.4 C645.1,1144.5 630.7,1134.8 624.2,1130.9 C601.5,1117.2 565.3,1100.5 549.8,1096.5 C542.6,1094.6 406.1,1056.9 375.9,1048.5 C365.2,1045.4 355.6,1043 354.6,1043 C353,1043 352.8,1043.6 353.4,1048.3 C353.7,1051.1 355.3,1071.1 356.9,1092.5 C365,1199.3 371,1306.9 373.5,1389.2 L374.2,1411.9 L405.3,1419.5 C450.8,1430.7 561.3,1453.4 675.9,1475.1 C731.2,1485.5 778.2,1494.5 780.4,1495 C788,1496.7 821.4,1500 866.9,1503.5 C891.9,1505.5 915.7,1507.6 919.8,1508.1 C947.6,1512 964.8,1530.7 967.9,1560.2 C970.2,1583.2 963.5,1599.5 943.5,1619.6 C918.8,1644.3 882,1662 848.3,1665.6 C837.8,1666.7 815.6,1663 784.3,1654.9 C776,1652.8 768.4,1650.7 767.4,1650.4 C765.5,1649.6 765.5,1643.8 768,1758 C769.7,1838.9 770,1842.8 782.4,1964.5 C802.4,2160.2 803.2,2171.2 797.9,2188.3 C794,2200.9 784.9,2211.6 771.2,2219.7 C756.2,2228.7 693.9,2253.3 645.1,2269.6 C603.2,2283.7 585.2,2286.6 570.9,2281.7 L570.9,2281.7 Z" id="Shape" sketch:type="MSShapeGroup"></path>
        </g>
    </g>
</svg>