<?xml version="1.0" encoding="UTF-8" standalone="no"?>
<svg width="2118px" height="2366px" viewBox="0 0 2118 2366" version="1.1" xmlns="http://www.w3.org/2000/svg" xmlns:xlink="http://www.w3.org/1999/xlink" xmlns:sketch="http://www.bohemiancoding.com/sketch/ns">
    <!-- Generator: Sketch 3.0.4 (8054) - http://www.bohemiancoding.com/sketch -->
    <title>Slice 2</title>
    <desc>Created with Sketch.</desc>
    <defs></defs>
    <g id="Page-1" stroke="none" stroke-width="1" fill="none" fill-rule="evenodd" sketch:type="MSPage">
        <g id="Group" sketch:type="MSLayerGroup" transform="translate(1059.050000, 1183.050000) scale(1, -1) translate(-1059.050000, -1183.050000) translate(0.100000, 0.200000)" fill="#000000">
            <path d="M1224.3,2364.5 C1204.2,2359.9 1187.4,2347.1 1179.1,2329.9 C1176,2323.5 1175.4,2321.2 1175.1,2313.7 C1174.7,2306.3 1175,2304.4 1176.8,2300.5 C1180.6,2292.7 1186.5,2287.3 1203.2,2276.2 C1213.9,2269.2 1222,2262.9 1226.9,2258 C1234.2,2250.6 1254.3,2225.8 1258,2219.5 C1263.8,2209.6 1268.1,2178.4 1270.9,2125.9 C1272.9,2090.2 1273.2,1988.8 1271.9,1853.4 L1270.6,1719.4 L1204.5,1708.6 L1138.4,1697.9 L1022.4,1686.4 C877.5,1672.2 886.9,1672.9 840.2,1672.2 C792.5,1671.5 785.6,1672.2 757.7,1680.4 L751.9,1682 L751.9,1775.2 C751.9,1883.5 752.8,1910 758,1965.4 C760.1,1988.3 764.3,2022.2 765.9,2029.7 C766.5,2032.3 771.2,2048.4 776.4,2065.4 C788.9,2106.5 791,2114.8 791.6,2124.9 C793.6,2159 768.4,2188.6 713.9,2215.9 C707,2219.3 686.3,2229.4 667.9,2238.1 C612.1,2264.7 593,2273 576.1,2277.6 C567.1,2280.1 564.9,2280.3 546.9,2280.3 C529.9,2280.2 526.4,2280 519.4,2278.1 C497.9,2272.1 483,2260.9 463.3,2235.6 L454.9,2224.7 L458.1,2221 C475.7,2200.9 489.3,2188.1 514.8,2167.8 C532.2,2154 536,2149.3 546.3,2129 C557.4,2107 570.7,2073.1 572.8,2061.3 C575,2049.1 577.4,2007.9 581.1,1917.4 C582.7,1878.4 582.7,1732.5 581.1,1674.4 C577.4,1545.5 572.8,1466.8 565.8,1415.4 C555.8,1341.7 529.7,1189.7 502.3,1044.9 C495.3,1007.8 491.9,995.6 469.2,924.4 C402.1,713.8 319.2,559.4 192.7,409.6 C174.9,388.5 163.5,376.1 125.3,336.3 C57.7,266 30.1,236 12.8,214.2 C5.7,205.3 -0.6,196.1 -1.7622015e-13,195.5 C0.2,195.3 8.6,194.3 18.6,193.4 C35.6,191.8 37.4,191.8 46.5,193.3 C92.9,201.1 164.8,249.6 255.9,334.5 C276.9,354 331.3,408.6 350,428.9 C390,472.4 427.8,517.7 450.9,549.9 C465.8,570.6 504.2,628.9 517.1,650.5 C558,718.6 581.8,771.9 649.5,946.9 C658.7,970.8 666.4,990.5 666.5,990.7 C666.5,990.8 679.2,985.3 694.5,978.3 C725.7,964.2 745.5,955.9 754.3,953.4 C759.1,952 762.9,951.8 774.3,952.2 C790.3,952.7 800.9,954.7 859.4,968.1 C915.2,980.8 918.1,981.3 1007.3,993.4 C1104.7,1006.7 1108.3,1007.1 1182.9,1013.9 C1254.7,1020.5 1298,1025.2 1340.4,1031 C1381.3,1036.6 1400,1031.4 1408.7,1012 C1415.6,996.3 1417.4,972.3 1416.6,905.9 C1413.3,653.9 1407.7,327.1 1406.4,309.9 C1405.5,299.2 1403.5,274.2 1401.8,254.4 C1398.2,211.8 1397.1,178.4 1398.9,161.3 C1402.7,123.3 1411.7,89.5 1425.5,60.9 C1434.2,43 1441.5,32.2 1452.4,21.4 C1466.7,7.2 1479.1,1.1 1495.6,0.1 C1512.8,-0.8 1526.6,4 1538.4,15.1 C1563.6,38.6 1577.3,85.4 1582.9,166.9 C1584.9,195.3 1585.2,276.1 1583.9,413 C1582.8,522 1582.8,575.3 1583.8,684.5 C1585.4,871.5 1586.4,905.2 1590.5,933.9 C1593.8,956.6 1595.4,960.7 1614.2,993.9 C1628.4,1018.9 1641,1043.6 1643.7,1051.8 C1646.7,1060.8 1646.6,1068.5 1643,1078.5 C1635.5,1100.2 1617,1123.4 1593.2,1141.1 C1581,1150.2 1574.1,1154.1 1534.9,1174.5 C1463.3,1211.6 1446.4,1218.1 1417.9,1219.9 C1406.2,1220.6 1402,1220.5 1395.9,1219.2 C1387,1217.5 1366.4,1209.9 1341.4,1199.4 C1292.3,1178.6 1291.1,1178.2 1268.8,1174.4 C1172.3,1158.2 962.4,1130.9 869.9,1122.5 C825,1118.4 810.8,1117.7 781.9,1118.1 L754.4,1118.5 L740.9,1122.1 C728,1125.6 693.1,1137.3 691.7,1138.7 C691.4,1139.1 693.7,1150.4 697,1163.9 C700.2,1177.4 704,1193.8 705.3,1200.4 C706.6,1207 716.3,1279.7 726.9,1361.9 C737.4,1444.1 746.2,1512.4 746.4,1513.6 C746.9,1515.7 747.2,1515.6 759,1510.7 C776.1,1503.7 787.7,1500.9 800.3,1500.9 C812.7,1500.9 823.8,1502.7 877.9,1513.4 C948.1,1527.3 992.8,1534.6 1039.9,1539.9 C1050.1,1541.1 1142.8,1552.3 1245.9,1564.9 C1368.2,1579.8 1471.3,1591.8 1542.4,1599.4 C1602.4,1605.8 1678.4,1613.9 1711.4,1617.4 C1744.4,1620.9 1776.4,1624.3 1782.4,1624.9 C1802.1,1626.8 1867.7,1627.9 1907.1,1626.9 C1992.4,1624.7 2026.6,1624.6 2040.4,1626.3 C2092.6,1632.6 2117.8,1654.8 2117.9,1694.4 C2117.9,1736.2 2078.4,1781 2027.9,1796.2 C1993,1806.7 1919.4,1819.2 1903.4,1817.3 C1876.7,1814.1 1851.4,1809 1764.9,1789 C1745.9,1784.7 1725.7,1780.2 1719.9,1779 C1705.9,1776.3 1440.1,1740.4 1439.4,1741.1 C1439.1,1741.4 1439.7,1770.4 1440.9,1805.5 C1442,1840.7 1443.4,1889.7 1443.9,1914.4 C1445.2,1977 1446.5,1989.1 1463.4,2094.1 L1471.9,2146.7 L1480.5,2173.6 C1490.1,2203.9 1491.9,2210.4 1491.9,2217 C1491.9,2235.2 1469.9,2270.8 1450.7,2283.5 C1446.7,2286.2 1433.5,2293.4 1421.4,2299.4 C1368.1,2326.2 1303.8,2352.3 1267.3,2362 C1253.1,2365.8 1234.7,2366.8 1224.3,2364.5 L1224.3,2364.5 Z" id="Shape" sketch:type="MSShapeGroup"></path>
        </g>
    </g>
</svg>