<?xml version="1.0" encoding="UTF-8" standalone="no"?>
<svg width="1421px" height="2167px" viewBox="0 0 1421 2167" version="1.1" xmlns="http://www.w3.org/2000/svg" xmlns:xlink="http://www.w3.org/1999/xlink" xmlns:sketch="http://www.bohemiancoding.com/sketch/ns">
    <!-- Generator: Sketch 3.0.4 (8054) - http://www.bohemiancoding.com/sketch -->
    <title>Slice 2</title>
    <desc>Created with Sketch.</desc>
    <defs></defs>
    <g id="Page-1" stroke="none" stroke-width="1" fill="none" fill-rule="evenodd" sketch:type="MSPage">
        <g id="Group" sketch:type="MSLayerGroup" transform="translate(710.500000, 1084.000000) scale(1, -1) translate(-710.500000, -1084.000000) translate(0.000000, 1.000000)" fill="#000000">
            <path d="M1061.5,2164.5 C1047.2,2161.9 1034.3,2157.1 983.8,2135.6 C946.4,2119.7 939.4,2117 919,2110.9 C875.1,2097.6 859.3,2094.5 643,2056.6 L463.5,2025.1 L391.5,2016.5 C351.9,2011.8 303.3,2005.9 283.5,2003.5 C238.1,1997.8 231.1,1997.7 212.5,2002.5 C184.1,2009.8 161.7,2019.5 137.8,2035.1 C113.7,2050.7 110.2,2052.4 103.1,2051.6 C87.3,2049.8 76,2037.3 71.5,2016.6 C65.6,1989.8 77.4,1963.2 109.4,1931.5 C136.7,1904.3 173.9,1878.5 213.5,1859 C236.8,1847.6 247.6,1843.8 258,1843.3 C265.6,1842.9 268.3,1843.3 284,1847.4 C293.6,1849.8 308.2,1853.9 316.4,1856.4 C324.6,1858.9 332.2,1861 333.2,1861 C334.2,1861 336.7,1860.3 338.7,1859.5 C358.6,1851.2 377.8,1809.7 383.1,1764 C386.6,1733.6 378.9,1648.7 361.9,1528 C354.7,1477 293.7,1108.6 272.1,985.7 L251,865.9 L199,637.7 L146.9,409.5 L131.2,378.7 C122.6,361.7 114.6,347.1 113.4,346.4 C112.3,345.6 97.4,339.6 80.4,333.1 C36.9,316.4 31.8,314 23.3,307 C15.1,300.2 7.1,289.5 4,281.2 C-6.6,253 6.8,219.5 39.8,191.9 C76.1,161.6 133,136.4 161.4,138.3 C178.8,139.4 188.9,145.3 229.5,178.5 C239.4,186.5 256.8,199.4 268.1,207 C279.4,214.6 312.7,238.1 342.2,259.3 L395.8,297.8 L611.6,435.5 C730.3,511.2 827.9,573.4 828.4,573.6 C829.1,573.8 832.6,563.3 836.9,548.7 C871.3,431.8 900.2,364.3 944.4,297.5 C979.8,244.2 1023.7,191.2 1072.7,143 C1095.9,120 1104.7,112 1123,96.8 C1214.1,21.5 1309.2,-14.3 1367,5 C1387.3,11.8 1405.2,26.2 1413.9,42.9 C1419.5,53.8 1421.2,61.3 1420.8,73.5 C1420.5,82.9 1420.2,84.1 1416.3,92.2 C1414,96.9 1405,113.1 1396.2,128.2 C1387.4,143.2 1377.8,160.5 1374.7,166.5 C1361.7,192.7 1354.8,218.4 1350.9,256 C1350,264.1 1349.5,312.5 1349,418.5 C1348.3,557.6 1348.1,571.7 1346.2,597.9 C1345,613.5 1343.9,626.4 1343.7,626.6 C1342.9,627.5 1333.5,624.9 1330.4,622.9 C1320.7,616.9 1313,601.1 1309.5,580.1 C1307.9,570.3 1263.5,369.8 1258.9,351.5 C1246.6,302.7 1231.6,269.6 1215,254.6 C1199.1,240.2 1182.7,243.6 1153,267.4 C1143.1,275.3 1121.5,297 1111.1,309.5 C1038.3,396.9 982.7,520.2 953.9,658.3 C936.8,740.2 928.8,833.6 931.9,916 C937.9,1075.9 954.8,1220.6 975.7,1290 C983.5,1316 988.6,1327.2 1002.5,1348.5 C1018.4,1373 1025.1,1384 1029.9,1394 C1034.4,1403.4 1034.5,1403.6 1034.4,1413.5 C1034.4,1422.3 1034,1424.5 1031.2,1431.5 C1023.4,1451.4 992.5,1497.5 954.1,1546.9 C918.7,1592.3 905.4,1605.1 886.4,1611.7 C879.2,1614.1 877.1,1614.4 864,1614.4 C851.2,1614.5 848.6,1614.2 842,1612 C837.9,1610.7 815.4,1600.1 792,1588.5 C768.6,1576.9 743.5,1565.1 736.3,1562.2 C682.4,1540.9 601,1519.4 533.6,1508.5 C525.3,1507.2 518.4,1506.3 518.1,1506.6 C517.8,1506.8 517.4,1512.1 517.2,1518.3 C516.7,1532.4 518.2,1540.6 526,1564 C538.7,1601.9 555.8,1666.7 560.5,1694.3 C564.5,1718 563.8,1727.2 556.5,1749.9 C544.2,1787.9 516.2,1840.4 486.3,1881.5 C482.4,1886.8 482.1,1887.6 483.7,1888.2 C484.7,1888.6 552.8,1900 635,1913.5 C717.2,1927.1 834.5,1946.4 895.5,1956.5 C956.6,1966.7 1035.8,1979.4 1071.5,1984.9 C1183.5,2002.1 1184.5,2002.3 1202.2,2008.6 C1229.9,2018.5 1246.6,2034.9 1250.1,2055.4 C1253.9,2077.7 1244.7,2102.7 1226,2120.9 C1203.4,2143 1161.1,2160.1 1116.8,2164.9 C1103.6,2166.4 1070.2,2166.1 1061.5,2164.5 L1061.5,2164.5 Z M816,1435.1 C822.4,1430.6 826,1421 826,1408.3 C826,1396.9 821.5,1353.2 813,1282.5 C811.2,1267.9 805.4,1196.5 799,1111 C789.6,985.3 788,961.2 788,941.5 C788,887.8 793.8,820.6 809,700 C812.3,673.9 815.2,651.3 815.4,649.9 C815.9,647.5 815.1,646.9 807.2,642.5 C780.9,628.1 717.9,596.9 677,578.3 C651.8,566.7 293.7,414 293.1,414.6 C292.8,414.8 303.3,462.4 316.3,520.3 C352.4,680.6 452.9,1172.2 472.5,1284 C477.6,1313.1 487.8,1350 493.2,1358.8 C495.7,1362.9 497.2,1363.6 509.1,1367.1 C519.5,1370.1 562.7,1379.8 577.5,1382.5 C582.5,1383.4 625,1393.8 672,1405.5 C748.2,1424.5 788.2,1434.1 803.5,1436.8 C809.4,1437.9 812.6,1437.4 816,1435.1 L816,1435.1 Z" id="Shape" sketch:type="MSShapeGroup"></path>
            <path d="M468.5,1108.5 C466.6,1088.6 477.7,1060.6 524.2,967.5 C536.3,943.3 551.6,911.1 558.2,896 C594.4,813.1 609.8,785 630.4,764.4 C641.6,753.2 648.9,748.6 661,744.9 C671.5,741.7 687.7,741.7 697,744.9 C720.9,753.1 738.3,779.4 743.6,815 C747.3,840.2 742.6,863.6 728,893.6 C696.6,957.7 616.5,1034.6 525.5,1088 C511.2,1096.3 472.6,1116 470.4,1116 C469.6,1116 468.9,1113.3 468.5,1108.5 L468.5,1108.5 Z" id="Shape" sketch:type="MSShapeGroup"></path>
        </g>
    </g>
</svg>