<?xml version="1.0" encoding="UTF-8" standalone="no"?>
<svg width="2460px" height="2305px" viewBox="0 0 2460 2305" version="1.1" xmlns="http://www.w3.org/2000/svg" xmlns:xlink="http://www.w3.org/1999/xlink" xmlns:sketch="http://www.bohemiancoding.com/sketch/ns">
    <!-- Generator: Sketch 3.0.4 (8054) - http://www.bohemiancoding.com/sketch -->
    <title>Slice 2</title>
    <desc>Created with Sketch.</desc>
    <defs></defs>
    <g id="Page-1" stroke="none" stroke-width="1" fill="none" fill-rule="evenodd" sketch:type="MSPage">
        <g id="Group" sketch:type="MSLayerGroup" transform="translate(1229.900000, 1152.600000) scale(1, -1) translate(-1229.900000, -1152.600000) translate(0.700000, 0.300000)" fill="#000000">
            <path d="M1841.3,2303.5 C1838.3,2302.8 1831.3,2300.3 1825.8,2298 C1809.8,2291 1789.9,2283.5 1774.8,2278.6 C1761.9,2274.4 1758.7,2273.8 1733.8,2271 C1704,2267.5 1681.9,2264.1 1645.8,2257.4 C1632.6,2254.9 1559.8,2241.9 1484,2228.4 C1348.4,2204.4 1342.5,2203.4 1125,2170.5 L903.8,2136.9 L706.3,2111.5 C597.7,2097.4 503,2085.2 495.8,2084.4 C478.1,2082.2 438.6,2081.3 425.3,2082.8 C404.2,2085.2 387.8,2089.8 370.3,2098.2 C334.1,2115.4 322.6,2120.4 313.8,2122.4 C306,2124.3 290.5,2124.3 282.5,2122.4 C264.6,2118.2 250.4,2105 245.1,2087.6 C242.3,2078.3 242.9,2061.2 246.2,2052.9 C249.3,2045.3 259.4,2030.6 271,2016.8 C276.4,2010.4 284.5,2000.7 289.1,1995.3 C333,1943.2 365.4,1858.2 374.3,1771.9 C375.6,1758.8 376.6,1725.1 379.3,1597.9 L381.5,1497.4 L377.4,1344.9 L373.4,1192.4 L365.4,1119.9 L357.4,1047.3 L337.3,930.9 C314.8,800.6 311,780.1 301.7,737.9 C273.9,612.2 237.1,504.9 187.3,404.4 C152.9,334.9 123.5,287.3 67.4,210.1 C33.2,162.9 13.8,135.1 5.8,121.9 L0,112.5 L5.4,107.5 C12.3,101.2 17.3,98.9 24.6,98.9 C56.4,98.8 135.1,162.8 202.9,244 C284.4,341.5 355.1,464 409,600.9 C419.4,627.2 424.5,642 432.9,669.9 C452.2,734 479.4,845 491.8,910.9 C493.2,918.3 501.6,973.5 510.4,1033.4 L526.5,1142.4 L531.9,1228.9 C537.1,1313.4 537.3,1318.9 541.4,1469 L545.5,1622.5 L537.9,1771.5 C533.7,1853.4 530.1,1923.3 529.8,1926.9 L529.2,1933.4 L536.3,1936.1 C548.5,1940.8 789.8,1985 942.3,2010.4 C1112.6,2038.8 1204.2,2051.4 1414.8,2075.4 C1451.1,2079.5 1500.2,2085.1 1523.8,2087.9 C1662.1,2104 1764.2,2115 1770.3,2114.6 C1788.4,2113.2 1800,2102.8 1801,2087 C1801.3,2082.3 1799.2,2064 1793.4,2022.4 C1784.1,1954.9 1780.1,1925.8 1777.3,1902.9 C1776.2,1893.8 1770.3,1817 1764.3,1732.1 L1753.3,1577.8 L1753.3,1442.4 L1753.3,1307.1 L1764.8,1175.7 C1776.2,1044.9 1778.1,1027.5 1784.9,991.4 C1806.7,874.4 1858.5,683.9 1893.1,593.9 C1973,385.9 2106.9,185.5 2241.8,71.9 C2303.9,19.6 2359.8,-6.4 2393.2,1.4 C2407,4.7 2419,13 2427.8,25.4 C2436.1,37 2442.2,53.2 2442.3,63.5 C2442.3,70.4 2437.8,83.8 2423.8,118.9 C2407.7,159 2405.5,167.6 2402.3,202.4 C2400.7,219.5 2399.9,280.3 2401.1,297.9 C2401.8,307.5 2412.8,388.2 2430.3,511.2 L2458.4,709 L2457,737 C2455.7,764.2 2455.6,765 2453.2,767.5 C2444.5,777.1 2433.8,778.5 2426,771.1 C2419.9,765.4 2415.3,753.9 2402.2,711.5 C2388.9,668.4 2368.2,611.3 2341.8,544.9 C2297.4,433.2 2263.7,366.8 2246.4,357.1 C2242.4,354.8 2242.1,354.8 2237,356.3 C2206.5,365.2 2149.6,446.6 2088.5,568.9 C2039.6,666.6 2011.7,739.2 1982.3,844.9 C1953,950.1 1926.3,1085.3 1913.9,1190.9 C1910,1223.4 1909.5,1234.9 1905.3,1362.4 L1901.5,1480.4 L1904.3,1536.9 L1907.1,1593.4 L1918.7,1690.9 C1933.6,1815.9 1936.2,1834.8 1943.4,1869.9 C1953.2,1917.5 1967.7,1959.9 1984.4,1990.4 C1991.8,2003.8 2005.3,2024.1 2012.8,2032.9 C2026.1,2048.6 2043.1,2070.1 2046.2,2075.3 C2054.6,2089.2 2057.4,2102.6 2055.5,2118.9 C2053.5,2136.3 2047.7,2149 2034.3,2166.1 C2024.1,2179.2 1935.5,2266.3 1915.4,2283.1 C1904,2292.6 1893.7,2299.2 1885.7,2302.1 C1880.7,2303.9 1877.3,2304.3 1863.3,2304.6 C1852.5,2304.7 1844.9,2304.4 1841.3,2303.5 L1841.3,2303.5 Z" id="Shape" sketch:type="MSShapeGroup"></path>
            <path d="M1356.8,2042.5 C1340.1,2038.6 1325.3,2027.7 1319.6,2015.2 C1316.3,2008 1316.7,2005.2 1323.8,1985.4 C1330.6,1966.7 1331.5,1960.3 1328.8,1948.2 C1323.9,1925.8 1307.5,1903.4 1281.6,1884 C1266.4,1872.6 1220.1,1843.9 1186.3,1824.9 C1057.2,1752.3 904.4,1694.5 704.3,1642.4 C628,1622.6 611.3,1615.1 611.3,1601.1 C611.3,1587.2 639,1578.7 688.8,1577.2 C712.1,1576.6 721.2,1577.2 786.8,1584 C833.1,1588.7 882.6,1596.8 963.1,1612.6 L982.3,1616.4 L988.7,1611.7 C1010.5,1595.3 1028.6,1557.6 1038.7,1506.9 C1044.4,1478.4 1047.2,1453.7 1048,1424.8 C1048.6,1403.1 1048.5,1402.1 1046.7,1401.5 C1036.5,1398.4 952.6,1381.8 919.3,1376.4 C866.1,1367.8 839.6,1365.4 798.8,1365.4 C768.9,1365.4 764.7,1365.6 754.3,1367.6 C732.3,1371.9 718.3,1377 688.3,1391.7 C660.7,1405.3 658,1406 632,1406.6 C601.5,1407.4 585.3,1405.3 571.8,1399 C559.8,1393.5 553.8,1385.1 552.7,1372.9 C552.2,1366.8 552.4,1365.9 556.1,1358.4 C558.2,1354 564.9,1343.2 570.9,1334.4 C591.7,1303.6 593.7,1300.5 601.6,1283.5 C619.8,1244.4 631.9,1208.1 638.8,1171.9 C640.2,1164.5 650.3,1094.7 661.3,1016.9 C673.8,928.3 682.2,872 683.7,866.4 C692,835.7 711.9,808.5 736.8,794 C747,788 755,785.6 763.1,786.1 C781.5,787.1 795.1,801.5 814.1,840 L822.8,857.6 L936.5,881.9 C999.1,895.3 1050.4,906.1 1050.5,905.8 C1050.9,905.4 1048.7,590.7 1048.1,553 L1047.8,533.5 L1004.3,520.7 C970,510.6 941.1,503.1 868.3,485.4 C752.6,457.3 746.2,456.2 707,457.2 C683.7,457.8 673.8,459.3 657.6,465 C637.7,472 629.9,477.3 599,505.2 C577.3,524.7 565.2,534.3 557.3,538.2 C551.3,541.2 550.1,541.4 540.9,541.4 L530.9,541.4 L525.2,533.4 C517.3,522.5 508.9,506.2 505.9,495.7 C501.2,479.5 500.6,459 504.3,442.5 C510.4,415.3 533.6,380.9 587.2,319.9 C606,298.5 636.5,268 647.2,260 C657.1,252.7 668.6,246.7 677,244.5 C684.6,242.5 703.9,242.4 710.8,244.3 C722.9,247.6 737.6,255.3 759.8,269.9 C765.6,273.7 780.8,282 793.6,288.3 C816.4,299.6 818.4,300.4 900.8,329.4 C947,345.6 1105.8,401.6 1253.8,453.8 L1522.7,548.6 L1528.6,547.3 C1531.8,546.7 1534.8,545.7 1535.2,545.3 C1535.6,544.8 1557,493.1 1582.8,430.4 C1608.5,367.7 1631.8,312.1 1634.4,306.9 C1646.3,283.5 1663.9,266.5 1682.3,260.8 C1692,257.7 1705.6,257.9 1715.1,261.2 C1732.7,267.3 1746.6,282.6 1756.4,306.6 C1765.2,328 1769.3,351.1 1770.1,382.6 C1770.6,406.1 1769.5,422.5 1765.8,444.5 C1751.3,531 1701.4,618.1 1619.6,699.6 C1590.5,728.5 1564.4,750.5 1517.3,785.6 C1454.6,832.4 1424.8,849 1393.9,854.4 C1385.7,855.8 1362.3,856.5 1362.3,855.4 C1362.3,855.1 1364.3,850.8 1366.8,845.9 C1375.5,828.6 1382.1,819.1 1401.6,795.7 C1421,772.4 1457.2,712.7 1478.4,669 C1482.2,661.1 1485.5,653.7 1485.6,652.5 C1485.8,650.7 1481.9,649.4 1441.8,638.2 C1417.6,631.4 1353,614.4 1298.3,600.3 C1243.6,586.3 1198,574.6 1197.1,574.3 C1195.4,573.8 1195.3,582.7 1195.3,751.7 L1195.3,929.6 L1201.2,931.2 C1217.7,935.8 1260.3,944.1 1296.8,949.9 C1307.3,951.5 1348.9,956.7 1389.3,961.3 C1448.5,968.1 1466.8,969.8 1483.3,970.3 C1545.7,972 1566.2,976.8 1582.3,993 C1601.1,1012.1 1614.1,1044.4 1644.3,1147.4 C1654.3,1181.6 1656,1188.4 1660.9,1215.7 C1673.3,1284.9 1674.7,1289.5 1692.4,1322.3 C1724.7,1381.6 1727.6,1388 1727.5,1400.9 C1727.5,1418 1721.2,1430.2 1702.9,1448.5 C1682.4,1469 1667.9,1477.5 1610.3,1503.4 C1593.5,1510.9 1572.4,1520.7 1563.3,1525.2 L1546.8,1533.4 L1528.8,1533.4 C1512.7,1533.4 1510.1,1533.2 1503.8,1531.1 C1494.7,1528.1 1481.6,1521.5 1459.6,1508.8 C1412,1481.4 1372.2,1465.8 1311.9,1450.8 C1282.7,1443.6 1222.5,1431.9 1214.4,1431.9 L1212,1431.9 L1212.6,1444.2 C1213,1450.9 1215.1,1475.5 1217.3,1498.9 C1222.2,1549.8 1223,1564.9 1221.4,1574.4 C1217.2,1598.5 1200.7,1617.5 1151.2,1655.6 L1135.7,1667.5 L1156.7,1675.3 C1211.4,1695.5 1272.2,1721 1375.4,1766.7 C1448.4,1799.1 1464.5,1806 1488,1814.8 C1517.8,1826.1 1529.9,1832.6 1539.5,1842.7 C1546.2,1849.7 1549,1854.9 1550.9,1863.8 C1553.8,1877.8 1552.3,1888.4 1544.9,1903.4 C1520,1954.1 1443.1,2022.8 1392,2040.1 C1381,2043.8 1366.7,2044.8 1356.8,2042.5 L1356.8,2042.5 Z M1482.2,1353.1 C1492.2,1350.2 1499,1343.3 1502,1333 C1503.2,1328.6 1503.4,1325.1 1502.9,1316 C1500.1,1270.3 1481.8,1149.9 1471.1,1107.4 L1468.8,1098.4 L1337.3,1082.7 C1265,1074.1 1204.7,1067 1203.4,1067 L1201,1066.9 L1201.6,1134.2 C1201.9,1171.1 1202.6,1209.7 1203.2,1219.9 C1205.7,1264.3 1208.6,1309.4 1209,1309.8 C1209.2,1310.1 1257.6,1318.7 1316.6,1329 C1375.5,1339.3 1431,1349.2 1439.8,1350.9 C1466.3,1356 1471.6,1356.3 1482.2,1353.1 L1482.2,1353.1 Z M1052.8,1250.2 C1052.4,1236.5 1051.7,1182.4 1051.4,1129.9 L1050.8,1034.4 L932.3,1006.7 C867.1,991.5 813.4,979.1 812.8,979.3 C811.9,979.5 785.1,1224 785.9,1224.8 C786.5,1225.4 1048.1,1274.7 1051.2,1274.8 L1053.6,1274.9 L1052.8,1250.2 L1052.8,1250.2 Z" id="Shape" sketch:type="MSShapeGroup"></path>
        </g>
    </g>
</svg>