<?xml version="1.0" encoding="UTF-8" standalone="no"?>
<svg width="2459px" height="2306px" viewBox="0 0 2459 2306" version="1.1" xmlns="http://www.w3.org/2000/svg" xmlns:xlink="http://www.w3.org/1999/xlink" xmlns:sketch="http://www.bohemiancoding.com/sketch/ns">
    <!-- Generator: Sketch 3.0.4 (8054) - http://www.bohemiancoding.com/sketch -->
    <title>Slice 2</title>
    <desc>Created with Sketch.</desc>
    <defs></defs>
    <g id="Page-1" stroke="none" stroke-width="1" fill="none" fill-rule="evenodd" sketch:type="MSPage">
        <g id="Group" sketch:type="MSLayerGroup" transform="translate(1229.700000, 1153.400000) scale(1, -1) translate(-1229.700000, -1153.400000) translate(0.700000, 0.900000)" fill="#000000">
            <path d="M1841.3,2303.5 C1838.3,2302.8 1831.3,2300.3 1825.8,2298 C1809.8,2291 1789.9,2283.5 1774.8,2278.6 C1761.9,2274.4 1758.7,2273.8 1733.8,2271 C1704,2267.5 1681.9,2264.1 1645.8,2257.4 C1632.6,2254.9 1559.8,2241.9 1484,2228.4 C1348.4,2204.4 1342.5,2203.4 1125,2170.5 L903.8,2136.9 L706.3,2111.5 C597.7,2097.4 503,2085.2 495.8,2084.4 C478.1,2082.2 438.6,2081.3 425.3,2082.8 C404.2,2085.2 387.8,2089.8 370.3,2098.2 C334.1,2115.4 322.6,2120.4 313.8,2122.4 C306,2124.3 290.5,2124.3 282.5,2122.4 C264.6,2118.2 250.4,2105 245.1,2087.6 C242.3,2078.3 242.9,2061.2 246.2,2052.9 C249.3,2045.3 259.4,2030.6 271,2016.8 C276.4,2010.4 284.5,2000.7 289.1,1995.3 C333,1943.2 365.4,1858.2 374.3,1771.9 C375.6,1758.8 376.6,1725.1 379.3,1597.9 L381.5,1497.4 L377.4,1344.9 L373.4,1192.4 L365.4,1119.9 L357.4,1047.3 L337.3,930.9 C314.8,800.6 311,780.1 301.7,737.9 C273.9,612.2 237.1,504.9 187.3,404.4 C152.9,334.9 123.5,287.3 67.4,210.1 C33.2,162.9 13.8,135.1 5.8,121.9 L0,112.5 L5.4,107.5 C12.3,101.2 17.3,98.9 24.6,98.9 C56.4,98.8 135.1,162.8 202.9,244 C284.4,341.5 355.1,464 409,600.9 C419.4,627.2 424.5,642 432.9,669.9 C452.2,734 479.4,845 491.8,910.9 C493.2,918.3 501.6,973.5 510.4,1033.4 L526.5,1142.4 L531.9,1228.9 C537.1,1313.4 537.3,1318.9 541.4,1469 L545.5,1622.5 L537.9,1771.5 C533.7,1853.4 530.1,1923.3 529.8,1926.9 L529.2,1933.4 L536.3,1936.1 C548.5,1940.8 789.8,1985 942.3,2010.4 C1112.6,2038.8 1204.2,2051.4 1414.8,2075.4 C1451.1,2079.5 1500.2,2085.1 1523.8,2087.9 C1662.1,2104 1764.2,2115 1770.3,2114.6 C1788.4,2113.2 1800,2102.8 1801,2087 C1801.3,2082.3 1799.2,2064 1793.4,2022.4 C1784.1,1954.9 1780.1,1925.8 1777.3,1902.9 C1776.2,1893.8 1770.3,1817 1764.3,1732.1 L1753.3,1577.8 L1753.3,1442.4 L1753.3,1307.1 L1764.8,1175.7 C1776.2,1044.9 1778.1,1027.5 1784.9,991.4 C1806.7,874.4 1858.5,683.9 1893.1,593.9 C1973,385.9 2106.9,185.5 2241.8,71.9 C2303.9,19.6 2359.8,-6.4 2393.2,1.4 C2407,4.7 2419,13 2427.8,25.4 C2436.1,37 2442.2,53.2 2442.3,63.5 C2442.3,70.4 2437.8,83.8 2423.8,118.9 C2407.7,159 2405.5,167.6 2402.3,202.4 C2400.7,219.5 2399.9,280.3 2401.1,297.9 C2401.8,307.5 2412.8,388.2 2430.3,511.2 L2458.4,709 L2457,737 C2455.7,764.2 2455.6,765 2453.2,767.5 C2444.5,777.1 2433.8,778.5 2426,771.1 C2419.9,765.4 2415.3,753.9 2402.2,711.5 C2388.9,668.4 2368.2,611.3 2341.8,544.9 C2297.4,433.2 2263.7,366.8 2246.4,357.1 C2242.4,354.8 2242.1,354.8 2237,356.3 C2206.5,365.2 2149.6,446.6 2088.5,568.9 C2039.6,666.6 2011.7,739.2 1982.3,844.9 C1953,950.1 1926.3,1085.3 1913.9,1190.9 C1910,1223.4 1909.5,1234.9 1905.3,1362.4 L1901.5,1480.4 L1904.3,1536.9 L1907.1,1593.4 L1918.7,1690.9 C1933.6,1815.9 1936.2,1834.8 1943.4,1869.9 C1953.2,1917.5 1967.7,1959.9 1984.4,1990.4 C1991.8,2003.8 2005.3,2024.1 2012.8,2032.9 C2026.1,2048.6 2043.1,2070.1 2046.2,2075.3 C2054.6,2089.2 2057.4,2102.6 2055.5,2118.9 C2053.5,2136.3 2047.7,2149 2034.3,2166.1 C2024.1,2179.2 1935.5,2266.3 1915.4,2283.1 C1904,2292.6 1893.7,2299.2 1885.7,2302.1 C1880.7,2303.9 1877.3,2304.3 1863.3,2304.6 C1852.5,2304.7 1844.9,2304.4 1841.3,2303.5 L1841.3,2303.5 Z" id="Shape" sketch:type="MSShapeGroup"></path>
        </g>
    </g>
</svg>