<?xml version="1.0" encoding="UTF-8" standalone="no"?>
<svg width="2396px" height="2279px" viewBox="0 0 2396 2279" version="1.1" xmlns="http://www.w3.org/2000/svg" xmlns:xlink="http://www.w3.org/1999/xlink" xmlns:sketch="http://www.bohemiancoding.com/sketch/ns">
    <!-- Generator: Sketch 3.0.4 (8053) - http://www.bohemiancoding.com/sketch -->
    <title>Group</title>
    <desc>Created with Sketch.</desc>
    <defs></defs>
    <g id="Page-1" stroke="none" stroke-width="1" fill="none" fill-rule="evenodd" sketch:type="MSPage">
        <g id="Group" sketch:type="MSLayerGroup" transform="translate(1197.100000, 1138.900000) scale(1, -1) translate(-1197.100000, -1138.900000) translate(0.100000, 0.400000)" fill="#000000">
            <path d="M1280.99036,2276.3004 C1267.99958,2274.10165 1254.10945,2264.50713 1249.11299,2254.11307 C1247.11441,2250.11535 1246.91456,2248.11649 1247.21434,2241.12048 C1247.61406,2231.22613 1249.01307,2227.92802 1259.40569,2213.43629 C1278.09242,2187.25124 1287.98539,2164.16442 1288.38511,2145.97481 C1288.48504,2138.77891 1288.18525,2137.27977 1285.28731,2131.38314 C1275.39433,2111.29461 1248.91314,2092.9051 1186.05777,2062.52245 C1040.16137,1992.16262 875.478315,1923.00211 769.353675,1887.62231 C756.462829,1883.32476 713.093626,1869.63258 672.922152,1857.13971 C569.09588,1824.95808 571.19439,1825.55774 335.461786,1747.60225 L223.74112,1710.62336 L202.955879,1698.93004 C176.174897,1683.93859 176.974329,1684.43831 178.673123,1682.33951 C180.571774,1680.04082 202.656092,1665.34921 209.051551,1662.05109 C220.343532,1656.35434 224.140836,1655.5548 242.727637,1655.05508 C269.208832,1654.25554 318.273991,1657.45372 353.648871,1662.35092 C375.933047,1665.34921 389.223609,1667.54795 501.943566,1686.83694 L589.88112,1701.92832 L684.813708,1728.21332 C865.085695,1778.08484 856.891514,1775.98604 859.989314,1774.28701 C866.584631,1770.78901 899.661143,1741.50573 909.054473,1730.71189 C936.734817,1699.22986 947.127437,1672.74499 953.223108,1617.27665 C954.921902,1602.08533 956.220979,1513.93565 955.321618,1472.85911 C954.422257,1430.88307 954.422257,1430.58324 948.226656,1423.48729 C942.530701,1416.991 940.632049,1416.49129 873.779522,1402.7991 C734.878157,1374.21542 679.617398,1364.02124 578.48921,1348.53009 C503.54243,1337.03665 464.769963,1334.23825 419.602037,1336.83676 C397.018074,1338.13602 385.526235,1339.73511 362.642484,1344.53237 C334.662353,1350.52895 322.071294,1355.12632 285.697124,1372.41645 C247.724089,1390.50612 235.432817,1394.90361 226.439204,1393.40447 C217.44559,1391.90532 211.749635,1388.90704 204.754602,1382.01097 C193.762408,1371.11719 189.165672,1358.12461 190.065033,1340.93442 C191.563969,1314.54949 205.853821,1291.16284 252.620612,1239.09257 C275.904078,1213.1074 288.595066,1201.51402 308.181158,1188.32156 C324.769378,1177.12795 343.056393,1168.03314 360.643904,1162.13651 C374.733898,1157.43919 382.428434,1156.43976 395.818926,1157.83896 C412.906791,1159.53799 424.598489,1162.73616 515.03427,1190.82013 C564.299286,1206.1114 558.903118,1204.7122 624.456568,1219.50375 C817.619401,1262.97893 937.734107,1288.9641 945.428643,1288.9641 L949.525734,1288.9641 L948.82623,1238.29303 C948.526443,1210.309 947.727011,1137.35066 947.227366,1076.08563 C946.627791,1012.82175 945.72843,961.05131 945.128856,956.353992 C942.730559,936.265461 935.235881,923.872537 922.644822,918.575561 C907.955253,912.379098 850.895772,898.087258 699.902993,862.607514 C654.335351,851.91362 595.577076,838.021551 569.495596,831.725146 C431.393664,798.644033 378.830989,787.150595 331.664482,779.355045 C289.094711,772.35904 284.497976,772.059211 231.335727,772.558926 C186.467588,772.958697 183.469717,773.05864 167.081354,775.657157 C135.20399,780.554361 127.409525,782.853048 101.827691,794.746258 C57.8589139,815.234561 44.7682097,820.231708 34.5754477,820.231708 C24.8823308,820.231708 18.0871562,817.333363 10.7923363,810.237414 C1.69879367,801.342492 0.499645198,797.844489 0.0999290395,779.554931 C-0.299787119,762.264803 0.399716158,758.367028 6.99503277,744.375016 C23.3833952,709.195102 64.1544434,669.71764 120.914138,633.938068 C166.881496,605.054558 218.344951,582.167625 248.023876,577.370364 C259.815503,575.471448 276.603581,576.57082 290.693576,580.268709 C304.283925,583.766712 312.777894,586.964886 342.157031,599.657639 C375.233543,613.94948 391.821764,619.846113 494.049171,653.926656 C633.949827,700.500066 662.429603,709.394987 800.831323,750.071764 C909.35426,782.053505 931.538506,788.249967 937.034604,788.249967 L939.932546,788.249967 L940.53212,772.059211 C942.130985,734.080894 942.530701,629.840407 941.331552,576.370934 C940.032475,520.103059 940.831907,456.139578 943.230204,413.563885 C948.526443,321.016723 961.31736,255.65404 984.301039,203.883597 C1020.37542,122.330158 1086.32859,68.9606285 1189.35543,38.0782601 C1280.69057,10.6938946 1408.39988,-1.89891586 1571.78386,0.19988588 C1595.6669,0.4997147 1659.52156,1.19931528 1713.6831,1.79897292 L1812.1132,2.79840232 L1906.0465,10.7938375 C1957.70981,15.1913269 2015.66866,20.0885309 2034.85503,21.687618 C2062.73523,24.0862485 2076.32558,25.7852785 2102.80678,30.2827108 C2208.73156,48.0725541 2260.4948,59.6659351 2293.57132,72.7584603 C2340.73782,91.547733 2374.31398,117.532897 2387.70447,145.716806 C2393.20057,157.310187 2394.49965,165.305623 2393.90007,184.094895 C2393.10064,208.980687 2390.70234,215.17715 2375.71299,230.168591 C2370.21689,235.665452 2358.52519,245.759689 2349.73144,252.555809 C2323.94974,272.344511 2317.85407,277.841373 2312.75769,285.437036 C2305.36294,296.630646 2300.36649,312.221744 2298.26798,330.811131 C2297.56848,336.607822 2296.86897,403.16982 2296.2694,509.409165 C2295.66983,605.754159 2294.87039,682.910108 2294.37075,688.40697 C2293.77117,693.703946 2292.37217,700.600009 2291.17302,703.798183 C2286.37642,716.590879 2274.38494,723.287056 2263.99232,718.889567 C2256.29778,715.691393 2248.1036,701.599438 2241.80807,680.811307 C2236.81162,664.420665 2225.7195,622.44463 2196.84001,510.908309 C2164.36307,385.579862 2157.16818,358.695211 2151.77201,342.604398 C2138.78123,304.226309 2124.99103,280.339946 2102.00735,256.753413 C2067.73169,221.473555 2036.55383,206.981829 1959.00889,190.191415 C1885.96076,174.40043 1788.43002,163.206821 1692.19836,159.608875 C1657.72284,158.309617 1550.99862,158.309617 1508.82857,159.608875 C1386.41549,163.306764 1306.57219,173.401001 1247.01448,192.789931 C1202.84585,207.081771 1172.36749,227.670017 1154.68005,254.854497 C1126.20028,298.629504 1105.71482,378.783742 1100.1188,468.932274 C1098.71979,490.819778 1098.81972,815.434447 1100.1188,820.431594 C1102.01745,827.027828 1110.51142,833.024404 1126.10035,838.721152 C1145.18679,845.517272 1160.97558,848.715446 1305.97262,875.100382 C1375.82302,887.793135 1394.20996,890.791423 1426.38711,894.689198 C1447.27228,897.187772 1507.12977,904.383663 1559.29273,910.680068 L1654.22532,922.073564 L1694.19694,923.172936 C1724.67529,924.072422 1750.75677,924.072422 1803.61923,923.172936 C1841.79213,922.473335 1895.55395,921.873678 1923.03444,921.773735 C1972.99896,921.673792 1972.99896,921.673792 1979.49434,923.972479 C2002.37809,932.167801 2026.76078,954.455076 2036.85361,976.34258 C2040.65092,984.338015 2043.44893,996.331168 2043.44893,1003.82689 C2043.349,1035.70869 2012.27107,1069.18957 1971.00038,1081.98227 C1936.82464,1092.57622 1832.3988,1112.16504 1801.62065,1113.76412 C1781.73477,1114.76355 1766.44563,1110.86578 1675.21042,1082.08221 C1622.54781,1065.49168 1608.75761,1062.39345 1423.88888,1025.71439 C1193.0528,979.940526 1112.41007,964.149541 1109.4122,964.149541 C1108.11312,964.149541 1107.11383,964.949085 1106.81404,966.448229 C1105.31511,972.344862 1105.01532,996.531054 1106.01461,1023.61559 C1111.71056,1170.63166 1118.30588,1314.84932 1119.70489,1323.14458 C1120.30446,1326.64258 1120.60425,1326.84247 1126.99971,1328.84133 C1137.49226,1332.23939 1177.06416,1339.83505 1326.45807,1367.31936 L1394.40982,1379.81223 L1524.31757,1395.50327 L1654.22532,1411.09437 L1711.68452,1411.89391 C1773.04095,1412.89334 1783.73336,1413.59294 1801.32087,1418.3902 C1813.812,1421.68832 1821.4066,1424.98644 1829.60078,1430.38336 C1838.49447,1436.27999 1843.69078,1442.27657 1848.88709,1452.87052 L1853.08411,1461.36567 L1853.08411,1480.85454 L1853.08411,1500.34341 L1848.78716,1508.43879 C1834.29745,1535.82316 1800.12172,1559.70952 1746.65968,1579.59817 C1731.47047,1585.29491 1706.88792,1592.69069 1692.698,1595.88886 C1670.91347,1600.78607 1653.1261,1596.38858 1570.28493,1565.80604 C1468.65709,1528.22749 1476.05184,1530.52618 1394.90946,1511.93679 C1273.49568,1483.95277 1123.50219,1450.07212 1123.10248,1450.47189 C1122.5029,1451.17149 1130.49722,1518.33314 1135.19389,1552.11386 C1137.2924,1567.60501 1141.38949,1593.09046 1144.1875,1608.7815 C1155.57941,1672.74499 1156.07906,1675.84322 1156.07906,1687.23671 C1156.07906,1700.52912 1154.58012,1707.02541 1148.68431,1719.21845 C1142.48871,1732.11109 1133.4951,1744.20419 1118.7056,1759.39551 C1099.71908,1779.08427 1079.73327,1795.07514 1042.85946,1820.46065 C1038.66244,1823.359 1035.16492,1826.05746 1035.16492,1826.55717 C1035.16492,1826.95694 1050.35413,1832.65369 1068.94094,1839.14998 C1214.33769,1889.82105 1252.41065,1903.81306 1391.41195,1957.58236 C1417.29357,1967.57666 1448.27157,1979.56981 1460.36298,1984.26713 C1472.4544,1988.96445 1494.139,1996.76 1508.42885,2001.6572 C1596.46634,2031.54014 1612.75477,2042.23403 1614.45356,2071.61726 C1616.05243,2097.00277 1603.76116,2121.08901 1578.67897,2141.97709 C1547.20132,2168.16214 1447.77192,2224.23013 1385.4162,2250.91489 C1340.24828,2270.20388 1301.47581,2279.69846 1280.99036,2276.3004 L1280.99036,2276.3004 Z" id="Shape" sketch:type="MSShapeGroup"></path>
        </g>
    </g>
</svg>