<?xml version="1.0" encoding="UTF-8" standalone="no"?>
<svg width="2451px" height="2366px" viewBox="0 0 2451 2366" version="1.1" xmlns="http://www.w3.org/2000/svg" xmlns:xlink="http://www.w3.org/1999/xlink" xmlns:sketch="http://www.bohemiancoding.com/sketch/ns">
    <!-- Generator: Sketch 3.0.4 (8054) - http://www.bohemiancoding.com/sketch -->
    <title>Slice 2</title>
    <desc>Created with Sketch.</desc>
    <defs></defs>
    <g id="Page-1" stroke="none" stroke-width="1" fill="none" fill-rule="evenodd" sketch:type="MSPage">
        <g id="Group" sketch:type="MSLayerGroup" transform="translate(1225.500000, 1182.900000) scale(1, -1) translate(-1225.500000, -1182.900000) translate(0.000000, 0.400000)" fill="#000000">
            <path d="M1079.5,2364 C1052.8,2358.8 1028,2342.4 1018.9,2323.8 C1016.1,2318.2 1015.5,2315.8 1015.2,2308.5 C1014.9,2302.3 1015.2,2298.9 1016.3,2296.3 C1017.1,2294.4 1025.3,2283.8 1034.6,2272.8 C1070.5,2230.5 1082.3,2214.5 1090.5,2197.2 C1103.6,2169.6 1113,2135.3 1116.4,2102.4 C1119.5,2073.4 1120.2,2050 1120.7,1944.9 L1121.2,1837.9 L1061.4,1825.6 C1028.4,1818.9 940.1,1801.5 865,1786.9 C789.9,1772.3 713,1757.2 694,1753.4 C637,1742 588.4,1734.4 572,1734.4 C549,1734.4 527.2,1744 462.4,1782.7 C427.7,1803.4 417.6,1808.7 404.6,1813.3 C385.6,1820 370.7,1820.8 351.8,1816 C319.6,1807.8 301,1787.4 307.5,1767.3 C310.9,1756.8 322.6,1736.1 349.5,1692.9 C376,1650.6 392.1,1600.7 398.4,1541.4 C405.7,1473.8 401.4,1325.4 387.9,1175.9 C370.3,980.9 339.6,809.5 296.4,665 C265.7,562.5 230.8,473.2 187.3,386.4 C155.1,322 122.2,266.1 85.3,213.5 C69.9,191.5 65.9,186.2 47.9,164.4 C7.2,114.9 0,105.1 0,99.3 C0,92.2 3.7,82.7 8.5,77.7 C12.8,73.2 13,73.1 17.7,73.8 C42.2,77.1 116.7,135.6 176.8,198.7 C279.3,306.2 361.3,436 418.8,581.9 C459.7,685.8 490.3,800.1 525.4,980.4 C530.9,1008.6 531.1,1010.6 549.5,1183.4 L568,1357.9 L574.7,1475.9 C578.3,1540.8 581.5,1594.1 581.7,1594.3 C581.8,1594.5 594.7,1597.7 610.2,1601.5 C637.2,1607.9 1114.5,1701.3 1115.4,1700.3 C1115.6,1700.1 1114.6,1602.7 1113.2,1483.9 L1110.5,1267.9 L1102,1265.6 C1058.8,1254.1 935.3,1238 846.1,1232.3 C820.5,1230.7 786.9,1231.6 771.5,1234.3 C725.4,1242.5 689,1256.3 651.5,1279.9 C632.4,1291.9 630.7,1292.7 624.6,1292 C599.1,1288.7 586.2,1266.8 589.1,1231.8 C591.5,1203.7 605.4,1182.3 636.5,1158.7 C652,1147 733.8,1092.2 753.2,1080.5 C765.4,1073.2 781.3,1065.9 789.1,1064 C797.5,1061.9 815.7,1061.9 827.5,1064 C849.4,1067.8 891.7,1078.5 967.1,1099.3 C1012.9,1111.9 1022.4,1114.1 1249.5,1164 C1474.3,1213.3 1516.9,1222.3 1542.6,1226 C1553.9,1227.6 1554.2,1227.6 1579.3,1224.9 C1593.1,1223.3 1604.7,1221.9 1604.8,1221.8 C1605,1221.7 1597.4,1207.2 1587.9,1189.7 C1534.1,1090.4 1500.9,1034.6 1471.2,993.9 C1459.7,978.1 1355.1,842.8 1335.6,818.4 C1316.5,794.6 1299,774.3 1279.4,753.2 L1262.9,735.6 L1171.7,795.6 C1052.9,873.9 1059.7,869.7 1017,891.7 C933.9,934.6 841.4,971.7 799.6,978.9 C777.7,982.6 751.3,979.2 733,970.2 C714.2,961 705.9,946.1 709,927 C712.3,906 725.2,897.1 773.6,882.5 C784.6,879.2 799,874.2 805.6,871.3 C833.1,859.4 896.4,827.4 917,815 C933.1,805.3 1150.5,654.4 1159.6,646.6 L1168.7,638.8 L1164.4,632.4 C1150.9,612.6 1128.4,586.9 1092.5,550.5 C1031.5,488.7 979.2,442.4 890.5,371.5 C775.8,279.9 695,226.5 599.5,179.4 C545.7,152.9 499.5,133.1 391.3,90 C345.4,71.7 332.4,66 322.9,60.3 C316.4,56.4 298,43.1 298,42.4 C298,41.8 339,35.7 352.4,34.3 C390.9,30.4 499.3,53.5 601.3,87.5 C768.8,143.2 927.7,229 1080.5,346.3 C1148.2,398.3 1207.1,449.4 1297.6,534.7 L1305.7,542.3 L1315.1,536.6 C1336.5,523.6 1389.4,486.4 1431.5,454.8 C1464,430.5 1582.1,330.4 1674.8,248.7 C1739.6,191.6 1765.8,169.3 1837.2,110.7 C1944.8,22.5 1938.4,27.6 1952.3,18.4 C1965.4,9.7 1975.5,5.3 1990,2 C1998.8,0.1 2002.2,-0.1 2037,-9.73089664e-13 C2089.3,0.1 2103.2,1.3 2264,19.5 C2322,26 2375.4,32.1 2382.5,33 C2414,36.8 2433.1,42.9 2443.5,52.5 C2449,57.5 2451,61.8 2451,68.3 C2451,73.1 2450.6,73.9 2446.3,78.5 C2435.6,90 2414.2,100.2 2355,122.4 C2310.1,139.2 2101.4,221.6 2077.4,231.9 C2011.4,260.4 1926.5,300.9 1884.6,323.9 C1844.6,345.9 1768.2,391.5 1740,410.4 C1715.5,426.8 1408.4,638.9 1405.8,641.3 C1405.4,641.6 1425.2,665.6 1449.7,694.4 C1487.7,739 1512.8,770.2 1617.4,902.9 C1774.1,1101.7 1779.3,1108.1 1801.3,1131 C1812.3,1142.5 1812.2,1142.4 1846.4,1167 C1872.8,1185.9 1885.8,1197.1 1889.3,1203.8 C1892.5,1209.9 1892.9,1225.4 1890.2,1236.2 C1885.8,1253.6 1874,1273.1 1857.6,1290.2 C1846.1,1302.1 1840.4,1306.7 1809.5,1328.9 C1778.2,1351.4 1759.1,1365.7 1746.5,1376.4 C1730.3,1389.9 1714.8,1400.9 1704.6,1406 C1696.8,1409.8 1694.1,1410.6 1686.2,1411.4 C1675.1,1412.6 1661.3,1411.4 1651.4,1408.3 C1641.3,1405.2 1623.9,1398.1 1594.5,1385.1 C1580.2,1378.8 1564,1372 1558.5,1369.9 C1532.9,1360.3 1468,1343.7 1304.7,1304.9 C1282.3,1299.5 1263.7,1295.3 1263.5,1295.5 C1262.6,1296.5 1266.2,1451.9 1268.5,1511.4 C1270.8,1569 1278.6,1724.5 1279.3,1725 C1279.4,1725.1 1375.4,1741 1492.5,1760.4 C1609.7,1779.7 1711.1,1796.6 1718,1797.9 C1764.4,1806.6 1832.6,1807 1852.7,1798.8 C1869.3,1791.9 1871.1,1778.2 1859.2,1749.4 C1840.5,1704.2 1800.5,1638 1718,1515.9 C1683.6,1464.9 1678,1456.2 1678,1453.3 C1678,1443.6 1696.2,1440 1715,1445.9 C1732.1,1451.3 1750.8,1462.5 1781.6,1485.6 C1794.3,1495.2 1825.5,1515.7 1887.6,1555.1 C1935.9,1585.8 1977.1,1611.7 1979,1612.8 C1980.9,1613.8 1989.3,1619.5 1997.5,1625.4 C2027.8,1647 2037.1,1651 2082,1661.8 C2117.4,1670.3 2132.6,1675.7 2145.4,1684.1 C2153.8,1689.7 2160.1,1698 2163.1,1707.2 C2166.1,1716.4 2166.9,1741.7 2164.6,1751.6 C2161.5,1764.9 2152.1,1780.1 2134.5,1800.4 C2117.7,1819.6 2068.7,1866.4 2028.7,1901.3 C1973.3,1949.6 1917.2,1982.5 1883.9,1986.3 C1877.2,1987.1 1873.8,1987 1868.1,1985.8 C1858.4,1983.8 1829.6,1973.9 1794.5,1960.4 C1750.6,1943.7 1736.7,1940.4 1581,1910.5 C1525.4,1899.8 1454.9,1887.1 1391.5,1876.4 C1336,1867.1 1290.4,1859.4 1290.3,1859.4 C1290.1,1859.4 1290.2,1861.8 1290.5,1864.7 C1290.8,1867.5 1291.7,1888.1 1292.5,1910.4 C1296.8,2026.4 1300.6,2081 1305.5,2100.4 C1306.8,2105.6 1311.3,2121.4 1315.5,2135.4 C1329.9,2183.5 1331.9,2194.8 1328.5,2207.9 C1324.2,2224.3 1312.4,2237.4 1282.3,2259.2 C1255,2279.1 1181.1,2327.4 1154,2343.2 C1139.2,2351.8 1121.8,2359.9 1113,2362.4 C1103.3,2365.1 1088.6,2365.8 1079.5,2364 L1079.5,2364 Z" id="Shape" sketch:type="MSShapeGroup"></path>
        </g>
    </g>
</svg>