<?xml version="1.0" encoding="UTF-8" standalone="no"?>
<svg width="2077px" height="2300px" viewBox="0 0 2077 2300" version="1.1" xmlns="http://www.w3.org/2000/svg" xmlns:xlink="http://www.w3.org/1999/xlink" xmlns:sketch="http://www.bohemiancoding.com/sketch/ns">
    <!-- Generator: Sketch 3.0.4 (8054) - http://www.bohemiancoding.com/sketch -->
    <title>Slice 2</title>
    <desc>Created with Sketch.</desc>
    <defs></defs>
    <g id="Page-1" stroke="none" stroke-width="1" fill="none" fill-rule="evenodd" sketch:type="MSPage">
        <g id="Group" sketch:type="MSLayerGroup" transform="translate(1038.600000, 1149.700000) scale(1, -1) translate(-1038.600000, -1149.700000) translate(0.600000, 0.200000)" fill="#000000">
            <path d="M1826.4,2296.7 C1809.1,2295.3 1746.1,2291.1 1686.4,2287.2 C1626.7,2283.3 1563.5,2279 1545.9,2277.6 C1414.7,2267.4 1187.1,2242.9 874.3,2205.3 C752,2190.5 568.9,2172.6 399.4,2158.7 C376,2156.8 344.8,2154.3 329.9,2153.1 C280.3,2149 260.9,2150.1 205.4,2159.8 C190.2,2162.5 183.5,2164.1 179.4,2166.2 C153.9,2178.9 100.9,2195.7 73.4,2199.7 C55.2,2202.4 44.3,2201 28.8,2193.7 C22,2190.6 17.9,2187.8 12.6,2182.7 C3.2,2173.9 9.91845495e-14,2167.5 9.91845495e-14,2157.8 C-0.1,2148.9 1.7,2145.4 11.5,2134.6 C52.6,2089.4 67.7,2067.1 76.8,2038.3 C82.5,2020.3 85,2002.3 87.8,1960.2 C94.1,1865.9 95.2,1794 96.9,1327.2 C98.1,994.3 98.1,908.1 96.9,695.2 L95.5,448.7 L88.4,360.2 C80.5,262 79.7,240.9 82.9,212.2 C91.6,133.5 125.5,71.7 167.5,58.2 C189.6,51.1 217.2,59.5 236.4,79.1 C256,99.2 257.7,111.1 265.7,279.7 L269.9,367.7 L264.7,1151.2 C261.9,1582.1 259.5,1949.4 259.5,1967.5 L259.4,2000.2 L262.7,2000.2 C266,2000.2 275.5,2001.6 327.1,2009.7 C362,2015.1 644.3,2050.9 914.7,2084.3 L1109.9,2108.3 L1301.4,2121.7 C1465.5,2133.2 1508.1,2135.8 1599.4,2140.2 C1658,2143.1 1713.5,2145.3 1722.8,2145.3 C1752.3,2145.2 1782.9,2141.8 1805.4,2136.1 C1819.8,2132.5 1828.9,2128.9 1838.7,2123 C1856.2,2112.5 1862.2,2100.7 1864.5,2072.2 C1865.4,2060.5 1864.9,2045 1861.1,1956.2 L1856.6,1853.7 L1860.5,1163.7 C1862.7,784.2 1864.3,451.7 1864,424.7 C1863.5,373.5 1862.7,360.4 1858.5,342.7 C1854.9,327.9 1850.4,320.5 1842.9,317.1 C1834.5,313.3 1798.7,315 1769.7,320.7 C1733.5,327.7 1694.8,340.8 1602.9,377.2 C1552.4,397.2 1535.2,403.6 1526.1,405.7 C1516.7,407.9 1497.2,407.4 1494.7,404.8 C1493.7,403.8 1499.9,387.7 1506.5,374.2 C1517.3,352.4 1532.7,331.2 1546.4,319.3 C1549.5,316.6 1593,284.3 1643,247.6 C1693,210.9 1737.9,177.5 1742.7,173.3 C1765.2,154.2 1779.7,131.6 1828.8,39.9 C1844.7,10.4 1863.2,-2.3 1887.1,0.3 C1901.3,1.8 1915.1,9.8 1930.9,25.7 C1949.2,43.9 1964.7,67 1981.8,101.2 C1998.2,134 2008.5,161 2020.5,202.1 C2032.8,244.6 2037.8,278.3 2040.4,337.2 C2042.5,384.4 2041.4,504.8 2034.7,972.7 L2028,1446.7 L2030.7,1612.2 L2033.4,1777.7 L2043.3,1886.2 C2055.7,2020.5 2055.8,2021.9 2058.9,2037.7 C2060.3,2044.9 2062.5,2056.8 2063.8,2064.2 C2065.2,2071.6 2068.3,2087.6 2070.9,2099.7 C2076.5,2126.6 2076.9,2136.8 2073,2148.5 C2064.5,2173.7 2044.3,2192.9 1973.9,2242.2 C1922.3,2278.4 1902.3,2290.9 1887.9,2295.8 C1876.8,2299.5 1865.3,2299.7 1826.4,2296.7 L1826.4,2296.7 Z" id="Shape" sketch:type="MSShapeGroup"></path>
        </g>
    </g>
</svg>