<?xml version="1.0" encoding="UTF-8" standalone="no"?>
<svg width="963px" height="2295px" viewBox="0 0 963 2295" version="1.1" xmlns="http://www.w3.org/2000/svg" xmlns:xlink="http://www.w3.org/1999/xlink" xmlns:sketch="http://www.bohemiancoding.com/sketch/ns">
    <!-- Generator: Sketch 3.0.4 (8054) - http://www.bohemiancoding.com/sketch -->
    <title>Slice 2</title>
    <desc>Created with Sketch.</desc>
    <defs></defs>
    <g id="Page-1" stroke="none" stroke-width="1" fill="none" fill-rule="evenodd" sketch:type="MSPage">
        <g id="Group" sketch:type="MSLayerGroup" transform="translate(481.500000, 1147.100000) scale(1, -1) translate(-481.500000, -1147.100000) translate(0.000000, 0.100000)" fill="#000000">
            <path d="M785.5,2293.1 C764.3,2289.7 750.6,2277.8 745.5,2258.4 C742.5,2247 743,2245.2 754.1,2223.6 C765.4,2201.5 767.4,2195.4 771,2170.1 C774.7,2144.3 773,2133.5 761,2108.4 C742.6,2069.8 704.1,2018.1 652.1,1962.3 C642.3,1951.8 637.4,1947.3 636.7,1947.9 C636,1948.4 617.7,1960.3 596,1974.3 C492.3,2041.2 483.6,2046.2 443,2062.4 C383.8,2086.1 333.9,2104.2 312.6,2109.8 C292.7,2114.9 284.1,2112.8 269.8,2099.2 L261.7,2091.5 L263,2079 L264.2,2066.5 L276.4,2059.6 C371.7,2005 427.6,1963.2 493.4,1897.6 C504.5,1886.6 519.7,1870.9 527.3,1862.8 L541.1,1848 L516.3,1822.5 C423.7,1727.1 380.9,1694.5 154.5,1547.2 C122.1,1526.1 95.1,1508.4 94.6,1508 C93.9,1507.3 97.1,1482.3 98.6,1476.9 C99.1,1475.2 101.3,1475.1 125.8,1475.1 C155.4,1475.1 164.9,1476.1 183.9,1481.2 C205.7,1487 237.6,1499.9 279,1519.6 C291.4,1525.5 308.7,1533.7 317.5,1537.8 C399.5,1576.4 434.6,1598.3 576,1699.4 C596.8,1714.3 607.9,1721.6 608.6,1721 C610.4,1719.5 620.6,1699.3 625.3,1687.6 C640.4,1650.7 653.3,1601.6 663,1544.6 C668.4,1512.3 669.4,1501.2 668.1,1489.8 C659.5,1418.9 588.5,1296.7 468.1,1145.6 C408.4,1070.6 346.7,1001.1 281,934.7 C228.9,882.1 203.7,859.1 151.8,817 C50.7,734.9 19.5,706.1 4.1,680.8 C1.9,677.1 0,673.9 0,673.7 C0,672.9 19.2,659.9 23.6,657.8 C31.4,653.9 34.9,653.7 43.5,656.6 C53,659.8 76.6,670.3 94,679.1 C101.4,682.9 119,691.6 133,698.4 C169.5,716.3 198.8,734.3 251.9,771.6 C305.6,809.2 381.5,865.2 400.5,881.1 C472.8,941.8 637.2,1107.5 703.8,1186.9 C709,1193 713.5,1198.1 713.9,1198.1 C714.6,1198.1 718.3,1170.8 720.6,1148.1 C722.9,1125.8 722.6,1114.2 718,1034.6 C715.2,987.4 709.6,900.4 706.4,857.6 C703.3,814.8 696.2,763.3 681,673.6 C666.2,585.9 654.1,529.3 638.1,472.9 C607.4,364.9 573.8,303.4 539.5,292.7 C534.7,291.1 531.4,290.9 517.7,291.4 C503,291.8 500.4,292.2 489,295.4 C471.5,300.4 441.1,310.8 379.5,332.9 C301.5,360.8 308,359.1 275.3,359.8 L251,360.3 L251,357.5 C251,356 251.5,349.7 252.1,343.5 L253.3,332.3 L337.8,242.4 C421.6,153.3 422.3,152.5 432.5,137.1 C443.5,120.4 456.1,99.9 482.5,55.4 C500.5,25.1 505.2,19.2 516.2,12.5 C529.2,4.6 546.9,-6.82121026e-13 565,-6.82121026e-13 C580.1,-6.82121026e-13 588.8,1.9 601.5,8.1 C633,23.4 661.6,60.4 697.8,132.6 C768.4,273.8 823.9,472.8 851.9,684.6 C862.5,764.6 868.9,839.9 873.2,936.1 C874.9,973.7 874.9,1131.2 873.2,1169.6 C865.4,1347 848.2,1469 814.5,1585.6 C795.4,1651.6 774.8,1705.3 736.5,1788.3 L723.8,1816 L725.9,1818.7 C734.6,1829.7 858.2,1956.1 887,1983.4 C955.5,2048.4 962.9,2058.6 963,2088.4 C963,2099.9 961.2,2109.4 956.4,2123.4 C946.1,2153.1 925.2,2189.9 900.4,2222.1 C888.8,2237.1 860.2,2265.7 848.5,2274 C837.8,2281.5 825.1,2288.1 815.6,2291 C807.5,2293.5 794.1,2294.4 785.5,2293.1 L785.5,2293.1 Z" id="Shape" sketch:type="MSShapeGroup"></path>
        </g>
    </g>
</svg>