<?xml version="1.0" encoding="UTF-8" standalone="no"?>
<svg width="2343px" height="2420px" viewBox="0 0 2343 2420" version="1.1" xmlns="http://www.w3.org/2000/svg" xmlns:xlink="http://www.w3.org/1999/xlink" xmlns:sketch="http://www.bohemiancoding.com/sketch/ns">
    <!-- Generator: Sketch 3.0.4 (8054) - http://www.bohemiancoding.com/sketch -->
    <title>Slice 2</title>
    <desc>Created with Sketch.</desc>
    <defs></defs>
    <g id="Page-1" stroke="none" stroke-width="1" fill="none" fill-rule="evenodd" sketch:type="MSPage">
        <g id="Group" sketch:type="MSLayerGroup" transform="translate(1171.350000, 1210.000000) scale(1, -1) translate(-1171.350000, -1210.000000) translate(0.200000, 0.500000)" fill="#000000">
            <path d="M1355.3,2418.8 C1342.9,2417.7 1328.2,2412.9 1319.1,2406.8 C1307.8,2399.3 1302.5,2390.5 1302.4,2379 C1302.3,2368.1 1305.2,2364 1322.8,2349.8 C1346.9,2330.3 1366,2303.3 1375.3,2275.1 C1380.4,2259.8 1381.9,2251.4 1382.5,2235 C1383,2221 1382.3,2213.6 1373.3,2126.5 C1368,2075.1 1363.6,2033 1363.5,2032.9 C1363.4,2032.8 1359.5,2031.1 1354.8,2029 L1346.3,2025.3 L1246.4,2017 C1191.5,2012.4 1144,2008.4 1140.9,2008.1 C1137.8,2007.7 1100.4,2003.4 1057.8,1998.5 C1015.2,1993.6 976.9,1989.3 972.8,1988.9 L965.2,1988.3 L963.5,2008.1 C959,2059.9 959,2063.6 963.9,2156 C968.2,2237.3 968.5,2253.2 966.3,2262.9 C964.2,2272.8 957.8,2285.4 950.3,2294.5 C919.7,2331.9 843.4,2362.5 739.3,2379.1 C701.2,2385.2 678.5,2381.4 662.1,2366.1 C647.8,2352.9 643.1,2334.4 650.1,2319.1 C653.6,2311.6 660.1,2305.4 682.3,2288.6 C712,2266.2 722.5,2256.4 736.5,2238.5 C760.8,2207.3 780.1,2150.6 793.2,2072 C798.1,2042.2 803.8,1992.4 803.8,1978.3 L803.8,1974.6 L798.6,1974.1 C795.7,1973.8 759.8,1971 718.8,1967.9 C632.4,1961.3 604.5,1960.3 574.8,1962.9 C530.3,1966.7 494.2,1975.7 464.2,1990.4 C456.5,1994.1 441.2,2002.9 430.1,2009.9 C397,2030.6 388.5,2033.8 367.5,2033.3 L356.3,2033 L348,2018.5 C343.5,2010.5 338.3,2000.4 336.6,1996 C333.7,1988.7 333.4,1986.8 333,1974.4 C332.5,1958.9 333.5,1953 337.9,1944 C345.9,1927.7 363.6,1909 406.8,1870.9 C470.6,1814.8 486.2,1803 504.9,1796.3 C514.2,1793.1 529,1791 536.7,1791.9 C543.8,1792.7 574,1800 626.8,1813.5 C675.9,1826.1 689.6,1829.2 713.8,1833.4 C740.2,1837.9 775.1,1842.2 802,1844.1 L811.7,1844.8 L812.2,1841.4 C813.1,1836.1 835.9,1596.2 835.5,1595.9 C835,1595.4 788.7,1589.3 598.3,1565 C497.1,1552.1 409.4,1540.9 403.3,1540.1 C380.8,1537.1 365.4,1536.5 326.8,1537 C250.4,1538.1 212.5,1541.8 167.8,1552.6 C130.2,1561.6 106.2,1570.9 81,1586.1 C55.6,1601.5 52.1,1603 42.3,1602.9 C32.3,1602.9 25.5,1599.9 17.9,1592.3 C7.1,1581.5 1,1563.8 0.1,1540.9 C-1.3,1504 5.6,1497 111.3,1430 C171.3,1391.9 191.1,1379.9 205.8,1372.5 C230.6,1360.1 247.5,1357.9 273.6,1363.4 C281.1,1365 327.8,1375.6 377.4,1386.9 C506.8,1416.4 513.8,1417.9 610.1,1435 C694.6,1450 701.8,1451.1 841.1,1470.5 C951.4,1485.8 985.4,1490.2 986.9,1489.4 C992.2,1486.6 1014.4,1467.6 1023.9,1457.8 C1045.7,1435.2 1056.3,1413.7 1067.3,1369.6 C1075.2,1337.9 1075.6,1335.4 1076.3,1315 C1076.6,1304.6 1077.3,1293.4 1077.7,1290.1 C1078.2,1286.2 1078.1,1284.2 1077.4,1284 C1076.8,1283.8 1063.7,1281.8 1048.3,1279.6 C1032.9,1277.3 1004.1,1273 984.3,1270 C955.2,1265.6 760.9,1242.2 714.3,1237.5 C694.5,1235.5 669.6,1234.7 655.6,1235.6 C623.6,1237.6 603,1244.8 577.3,1262.9 C542.2,1287.6 517.9,1297.9 482.2,1303.1 C465.5,1305.6 432.6,1305.6 420.5,1303.2 C390.1,1297.1 372.1,1283.1 366.3,1261 C363.4,1249.9 363.7,1249.1 374.1,1239.6 C401.2,1214.7 430.2,1186.9 437.7,1178.4 C442.4,1173 448.3,1165.2 450.7,1160.9 C458.1,1147.6 468.3,1113.7 483.3,1053 C495.5,1003.3 496.7,997 526.8,824 C542.8,732.2 557.2,649.6 558.9,640.5 C574,558.3 587.3,513.5 605,484.7 C612.2,472.9 626,459.1 635.3,454.3 C647.5,448 660,445.8 675.2,447.5 C684.1,448.5 685,448.5 689,446.4 C703.1,439.3 717,426.7 721.5,416.9 C727.9,402.8 720.2,387.8 692.7,361 C631.6,301.4 509.6,228.5 377.8,172.7 C368.7,168.9 314.7,147.7 257.8,125.5 C163.6,88.9 153.4,84.7 143.8,78.8 C138,75.2 133.1,72.1 132.9,71.9 C132.7,71.7 133.2,69 134,65.8 L135.4,60 L146.8,56.3 C174.4,47.5 187.9,45.6 210.8,47.4 C282,53.2 403.1,77.2 496.8,104 C598.9,133.3 677.4,167.1 812.8,240 C846.4,258.1 879.9,277.5 897.8,289.2 C950.5,323.8 966.7,349.4 956.7,382 C945.3,419.2 904.8,457.3 845.6,486.5 C827.2,495.6 810.4,502.6 788.5,510.5 L772.6,516.2 L781.3,517.9 C786.1,518.9 795.5,520.1 802.2,520.6 C808.9,521.1 902.3,532.3 1009.8,545.5 L1205.3,569.5 L1328.8,578.1 L1452.3,586.7 L1499.3,586.1 C1525.2,585.8 1566.3,585 1590.8,584.4 C1649.2,583 1685.7,583.5 1695.8,585.9 C1725.3,592.9 1741.5,612.2 1757.8,660.2 C1760.6,668.3 1770.5,701.6 1779.8,734 C1794.4,785.1 1797.3,796.6 1801.8,820 C1805.7,840.9 1813,870.8 1833.9,951.5 C1848.7,1009 1862.4,1060.7 1864.2,1066.5 C1869.9,1084.5 1881.9,1110.6 1893.9,1131 C1920.8,1177 1935.2,1204.4 1938.9,1216.7 C1940.6,1222.1 1940.9,1224.9 1940.3,1229.9 C1938.7,1244.9 1928.8,1263.9 1916.8,1274.7 C1902.9,1287.3 1860.3,1309 1814.8,1326.5 C1769.3,1344.1 1709.9,1361.5 1695.5,1361.5 C1685.3,1361.5 1660,1356.3 1628.3,1347.6 C1599.8,1339.8 1588.8,1338.2 1520.8,1332 C1493.6,1329.6 1420.6,1322.8 1358.6,1317 C1296.6,1311.2 1244.9,1306.5 1243.8,1306.5 C1241.7,1306.5 1241.6,1306.8 1242.3,1313.8 C1242.7,1317.7 1245.2,1337.4 1247.8,1357.5 C1254.7,1408.8 1255.1,1413.5 1254.5,1426.5 C1253.9,1439.8 1251.8,1447.7 1246.1,1457.5 C1241.5,1465.4 1217.5,1489.8 1201.1,1503 C1195,1507.9 1190,1512.1 1190.1,1512.1 C1190.2,1512.2 1207.6,1514.1 1228.8,1516.4 C1252.1,1518.9 1303.9,1523 1359.8,1527 C1440,1532.6 1458.7,1533.6 1500.3,1534.5 C1526.7,1535.1 1624.4,1537.3 1717.3,1539.5 C1810.3,1541.7 1893.5,1543.5 1902.3,1543.5 C1912.3,1543.5 1936.2,1542.1 1966.3,1539.6 L2014.3,1535.7 L2132.8,1516.9 C2249.8,1498.4 2251.5,1498.2 2266.8,1498.2 C2279.3,1498.2 2283.8,1498.6 2290,1500.3 C2311.4,1506.1 2327.6,1518.3 2335.8,1534.5 C2341.5,1545.9 2342.3,1549.9 2342.2,1565 C2342.1,1577.1 2341.7,1580.2 2339.4,1587.8 C2332.3,1611.3 2316.7,1631 2291.9,1647.7 C2273.5,1660 2261.9,1664.9 2212.4,1681.1 C2137.3,1705.7 2073.9,1719.8 2045.8,1718.2 C2032.4,1717.4 1981.9,1708.8 1855.3,1685.5 C1843.4,1683.3 1828.6,1682.2 1605.9,1667 C1529.8,1661.7 1467.3,1657.7 1467,1658 C1466.6,1658.4 1508.5,1913.5 1509.1,1914.1 C1509.3,1914.3 1559.1,1916.8 1619.8,1919.8 C1737.5,1925.5 1745.7,1925.6 1757.4,1921.6 C1771,1916.9 1792,1914.2 1828.8,1912.4 C1872.4,1910.3 1890.9,1913.1 1909.6,1924.8 C1923.8,1933.6 1932.7,1950.2 1932.8,1967.7 C1932.9,1991.8 1916.7,2017.8 1888.6,2038.6 C1851.5,2066.1 1798.9,2085.5 1760.8,2085.7 C1743,2085.7 1727.9,2083.2 1625.8,2063 C1560,2050 1535.3,2045.6 1534.2,2046.8 C1533.4,2047.6 1535.7,2061.9 1541.4,2092.5 C1548.1,2128 1553.3,2146.1 1573.3,2202.5 C1592.5,2256.9 1593.2,2259.5 1593.3,2272.5 C1593.3,2282.4 1593.1,2283.4 1590,2289.7 C1575.8,2318.7 1531.8,2354 1472.7,2383.6 C1424.9,2407.5 1380,2421 1355.3,2418.8 L1355.3,2418.8 Z M1347,1901.3 C1346.8,1898.4 1342,1840.4 1336.5,1772.5 L1326.3,1649 L1185.8,1636.8 C1056.2,1625.5 1042.8,1624.2 1013.3,1619.6 C995.7,1616.9 981.2,1614.7 981.1,1614.8 C980.8,1615.2 965.1,1869 965.4,1869.4 C965.9,1870 1302.2,1904.3 1317.4,1905.3 C1325,1905.8 1334.9,1906.3 1339.4,1906.4 L1347.5,1906.5 L1347,1901.3 L1347,1901.3 Z M1675.3,1218 C1684,1216.2 1695.3,1210.8 1700.6,1206 C1710,1197.6 1711.4,1189.6 1707.8,1166 C1702.4,1131.3 1683,1039.4 1680.5,1036.9 C1680.2,1036.6 1640.7,1033.9 1592.6,1031 C1515.6,1026.3 1490.5,1024.3 1379.9,1014.1 C1278.7,1004.7 1251.3,1002.5 1237.7,1002.5 L1220.9,1002.5 L1221.3,1005.3 C1221.6,1006.8 1223.8,1031.6 1226.3,1060.5 C1228.8,1089.4 1232.1,1128.7 1233.8,1147.9 C1235.4,1167.1 1236.8,1183.3 1236.8,1184 C1236.8,1184.8 1239.4,1185.5 1244.1,1185.9 C1248,1186.2 1282.4,1190.1 1320.3,1194.5 C1358.3,1198.9 1397.9,1203.3 1408.3,1204.5 C1418.8,1205.6 1476.4,1209.4 1536.3,1213 C1596.3,1216.6 1646.7,1219.7 1648.3,1219.9 C1653.2,1220.5 1667.8,1219.5 1675.3,1218 L1675.3,1218 Z M1080.8,1116.3 C1080.8,1075.2 1079.2,981.7 1078.4,980.8 C1077.9,980.2 675.2,932.9 674.6,933.4 C673.2,934.6 661.9,994.5 652.8,1048.5 C647.8,1078.4 643.5,1103.2 643.2,1103.6 C642.6,1104.6 639.8,1104.1 710.5,1115.6 C757.8,1123.2 958.9,1152 1080.1,1168.4 C1080.5,1168.5 1080.8,1145 1080.8,1116.3 L1080.8,1116.3 Z M1625.8,912 C1633.6,911.5 1655.5,908.1 1656.3,907.3 C1656.9,906.7 1653.5,879 1650.8,862.7 C1646.7,837.7 1638.8,805.2 1629.8,776.5 C1625.4,762.3 1610.1,718.7 1609.2,717.6 C1609.1,717.4 1584.9,716.9 1555.6,716.4 C1526.3,716 1495.3,715.1 1486.8,714.5 C1478.3,713.9 1415.1,707.6 1346.5,700.5 C1277.9,693.3 1220.8,687.5 1219.8,687.5 C1217.8,687.5 1217.8,688.5 1217.8,737.8 C1217.9,765.4 1218.3,798.8 1218.8,812 C1219.3,825.2 1220,846.2 1220.4,858.6 L1221.1,881.3 L1224.7,882.4 C1226.7,883 1280.7,887.8 1344.8,893 C1408.9,898.2 1474.1,903.6 1489.8,904.9 C1517.2,907.3 1587.7,912.2 1602.3,912.8 C1609.5,913 1612.9,912.9 1625.8,912 L1625.8,912 Z M1079.1,854.8 C1080.9,832.8 1082,784.7 1081.5,753.5 C1081,725.2 1079.1,674.5 1078.5,673.8 C1078.4,673.7 1014.2,665.7 935.8,656 C806.2,640 767.2,634.8 726.5,628.4 C718.9,627.2 712.5,626.4 712.3,626.7 C712,627 710,639.5 707.8,654.6 C703.7,683.4 692.2,755.8 686.3,790.4 C684.4,801.6 683,811 683.3,811.3 C685.2,813.3 731.2,819.7 883.8,839.5 C996.4,854.1 1062.7,862.3 1068.9,862.4 L1078.5,862.5 L1079.1,854.8 L1079.1,854.8 Z" id="Shape" sketch:type="MSShapeGroup"></path>
            <path d="M1339.6,508.6 C1337,508.2 1333.6,507 1332.1,505.9 C1329.2,503.7 1320.8,493.9 1320.8,492.7 C1320.8,492.3 1325.4,489.7 1331.1,486.8 C1348.4,477.9 1387.2,456.9 1410.3,443.7 C1528.8,376.4 1623.1,309.4 1696.4,240.7 C1720.8,217.9 1735.1,202.2 1808.3,118.5 C1845.6,75.9 1879.7,37.7 1884.2,33.7 C1902.4,17.2 1915.3,8.5 1929,3.2 C1937,0.1 1937.8,0 1952.8,0 C1965.9,0 1969.5,0.4 1976.3,2.3 C1995.1,7.7 2009.6,19.4 2017.5,35.5 C2025.1,50.9 2027.8,65.5 2027.8,91 C2027.8,126.5 2021.3,156.4 2007.2,185.5 C1988.3,224.5 1960.6,254.2 1903,297.2 C1837,346.5 1783.3,381.1 1736.7,404.2 C1719.1,413 1551.6,479 1543.2,480.6 C1533.7,482.3 1482.7,493.3 1464.8,497.5 C1445.6,502 1416.4,505.2 1364.3,508.5 C1347.2,509.6 1346.8,509.6 1339.6,508.6 L1339.6,508.6 Z" id="Shape" sketch:type="MSShapeGroup"></path>
        </g>
    </g>
</svg>