<?xml version="1.0" encoding="UTF-8" standalone="no"?>
<svg width="2506px" height="2404px" viewBox="0 0 2506 2404" version="1.1" xmlns="http://www.w3.org/2000/svg" xmlns:xlink="http://www.w3.org/1999/xlink" xmlns:sketch="http://www.bohemiancoding.com/sketch/ns">
    <!-- Generator: Sketch 3.0.4 (8054) - http://www.bohemiancoding.com/sketch -->
    <title>Slice 2</title>
    <desc>Created with Sketch.</desc>
    <defs></defs>
    <g id="Page-1" stroke="none" stroke-width="1" fill="none" fill-rule="evenodd" sketch:type="MSPage">
        <g id="Group" sketch:type="MSLayerGroup" transform="translate(1253.450000, 1201.950000) scale(1, -1) translate(-1253.450000, -1201.950000) translate(0.900000, 0.100000)" fill="#000000">
            <path d="M1054.6,2403.1 C1017.1,2399.9 992.1,2387.8 982.4,2368.1 C979.1,2361.4 978.6,2359.6 978.3,2351.2 C977.4,2330.7 982.5,2324.4 1017.1,2303.8 C1034.9,2293.2 1041.9,2287.9 1051.8,2277.5 C1067.3,2261.2 1078.5,2239.9 1085.1,2214.3 C1090.2,2194.6 1091.1,2184.5 1092.1,2140.8 C1093.4,2080.5 1097.6,1675 1097,1674.3 C1090.4,1667.8 761.4,1634.2 548.1,1618.3 C461.2,1611.9 451.5,1611.4 404.1,1611.4 C354.7,1611.3 342.6,1612.1 313.1,1617.4 C275.2,1624.2 252.8,1633.9 219.1,1658 C179.6,1686.2 163.7,1695.3 154.5,1695.2 C147.7,1695.2 140,1690.6 131.7,1681.7 C112.1,1660.5 104.4,1629.7 112.6,1605.1 C119.4,1584.7 131.3,1570.6 185.6,1518 C249.1,1456.5 264.9,1443.3 284.9,1435.2 C298.1,1429.9 302.2,1429.3 324.6,1429.3 C348.9,1429.4 348.2,1429.3 422.1,1444 C528.3,1465.1 569.2,1471.9 677.6,1486.7 C759,1497.8 953.6,1521.6 954.7,1520.6 C955.3,1520 926.2,1461.3 916.8,1444.3 C886.4,1388.8 763.7,1197.3 723.1,1141.8 C566.3,927.7 368.2,703.4 196.1,545.2 C146.7,499.8 109.1,468.6 59.6,431.8 C19.4,402 6.2,390.6 1.9,382.4 C-2.7,373.5 1.4,363.1 11.7,357.8 C16.1,355.5 17.7,355.3 29.1,355.3 C71,355.4 129.9,383.2 236.5,453.2 C377.6,545.9 514.6,666.6 670.6,835.3 C697.9,864.8 727.5,897.5 767.1,941.8 C795.9,974 811.5,994.2 864.7,1067.3 C975.3,1219.3 1064.2,1350.4 1093,1403.8 L1098.1,1413.3 L1098.1,1386.8 C1098.1,1372.2 1098.6,1301.4 1099.2,1229.3 L1100.3,1098.3 L1096.2,876.3 L1092.1,654.3 L1082.5,453.8 C1072.8,249.3 1072.7,245.4 1075.2,216.8 C1077.5,190.6 1088.3,113.9 1092.7,91.8 C1097.2,69.8 1113.3,42.1 1131.9,24.6 C1148,9.4 1164.7,1.4 1182.6,0.1 C1220.1,-2.4 1245.4,28 1255.6,87.6 C1260.5,116.6 1260.4,111.8 1260.8,298.3 L1261.2,473.3 L1258.6,527.8 C1256.2,578.9 1255.9,599.9 1253.5,861.3 C1251,1136.4 1250.8,1278.9 1253,1406.3 L1253.6,1442.3 L1278.1,1412.3 C1306.3,1377.9 1372,1296.9 1511.6,1124.3 C1801.9,765.5 1866.5,687.4 1934,613.3 C2001.4,539.4 2041.2,509.3 2083.1,500.4 C2088.5,499.2 2117.3,497.5 2185.1,494.3 C2237.1,491.8 2285.9,489.3 2293.6,488.8 C2301.3,488.3 2326.7,487.5 2350.1,487.2 C2406.9,486.3 2454.2,488.5 2490.6,493.6 L2502.6,495.3 L2504,502.5 C2504.8,506.5 2505.3,509.9 2505,510.1 C2496.2,517.7 2468.8,539.7 2464,543 C2453.1,550.8 2433.8,561.9 2403.6,577.8 C2364.8,598.2 2375.3,592.1 2268.6,656.9 C2165.1,719.9 2171.4,715.6 2125.1,754.2 C2057.7,810.4 2032.2,833 1909.6,945.9 L1806.6,1040.6 L1629.1,1223.8 C1436.6,1422.3 1429.1,1430.1 1397.7,1464.3 C1364.3,1500.5 1308,1563 1308.4,1563.4 C1309.1,1564.1 1328.8,1565.8 1394.1,1570.8 C1430.1,1573.5 1461.6,1576 1464.1,1576.3 C1478.1,1578 1783.4,1597.8 1795.3,1597.8 C1803.2,1597.8 1869.7,1596.2 1943.1,1594.3 C2101.8,1590.1 2104.9,1590.1 2118.1,1592.8 C2157.3,1600.8 2184.4,1621.5 2191.7,1648.9 C2193.9,1657.4 2193.9,1672.4 2191.7,1680.7 C2185.9,1703 2163.5,1724.8 2130.1,1740.6 C2094.4,1757.6 2046.4,1770.5 1994.6,1777.2 C1949,1783.1 1934.4,1781.6 1862.6,1763.8 C1787.3,1745.2 1774.1,1743.5 1488.2,1715.3 C1362.1,1702.8 1258.6,1692.9 1258.3,1693.2 C1257,1694.6 1275.8,2109 1277.7,2119.3 C1278,2121 1282.3,2142.6 1287.2,2167.4 C1298.2,2223.1 1299,2229.4 1296.7,2240.5 C1292.2,2262.6 1278.7,2283.4 1250.7,2311.3 C1222.5,2339.4 1191.5,2361.6 1154.6,2380 C1117.8,2398.4 1085.8,2405.8 1054.6,2403.1 L1054.6,2403.1 Z" id="Shape" sketch:type="MSShapeGroup"></path>
        </g>
    </g>
</svg>