<?xml version="1.0" encoding="UTF-8" standalone="no"?>
<svg width="2329px" height="2461px" viewBox="0 0 2329 2461" version="1.1" xmlns="http://www.w3.org/2000/svg" xmlns:xlink="http://www.w3.org/1999/xlink" xmlns:sketch="http://www.bohemiancoding.com/sketch/ns">
    <!-- Generator: Sketch 3.0.4 (8054) - http://www.bohemiancoding.com/sketch -->
    <title>Slice 2</title>
    <desc>Created with Sketch.</desc>
    <defs></defs>
    <g id="Page-1" stroke="none" stroke-width="1" fill="none" fill-rule="evenodd" sketch:type="MSPage">
        <g id="Group" sketch:type="MSLayerGroup" transform="translate(1164.500000, 1230.200000) scale(1, -1) translate(-1164.500000, -1230.200000) translate(0.000000, 0.200000)" fill="#000000">
            <path d="M586.9,2458.8 C578,2456.9 569.5,2453.4 559.8,2447.5 C551.7,2442.6 523.8,2422.2 522.6,2420.4 C522.3,2419.8 530,2412.7 539.7,2404.6 C570.6,2379 583,2365.1 583,2355.8 C583,2341.2 550.2,2282.7 500.5,2208.7 C477.6,2174.7 474.9,2171.3 417.3,2103.5 L362.1,2038.7 L305.6,1983.9 C222.7,1903.5 213.1,1895.1 133,1831.6 C113.5,1816.1 94.7,1800.9 91.3,1797.8 C83.7,1790.9 80,1783.9 80,1776.6 C80,1769.6 80.6,1768.5 85.3,1766.1 C116.5,1750.1 252.5,1806.7 365.3,1882.4 C406.7,1910.3 432.8,1931.4 483.1,1977.8 C502,1995.3 543.7,2033.8 575.7,2063.4 C607.7,2093 634.1,2117.2 634.4,2117.2 C634.8,2117.2 640.7,2113.8 647.6,2109.6 C689.1,2084.6 741,2063.4 781.8,2054.8 C815.4,2047.7 837,2047.5 914.5,2053.7 C936.9,2055.5 970.6,2058.9 980.5,2060.3 C987.5,2061.3 1120.7,2086 1298,2119.2 C1402.5,2138.8 1606,2172.6 1652.7,2178.2 C1666.5,2179.8 1682.5,2181.9 1688.2,2182.7 C1702.3,2184.8 1726.4,2190.5 1733.6,2193.5 C1754.3,2201.9 1764,2216.6 1764,2239.7 C1764,2250.4 1762.3,2257.7 1757.6,2266.9 C1741.5,2299 1699.9,2327.1 1653.3,2337.4 C1645,2339.3 1640.3,2339.6 1622.5,2339.6 C1599,2339.7 1591.8,2338.7 1571,2332.7 C1558.6,2329.1 1549.8,2325.9 1493.5,2304.2 C1453.1,2288.6 1412.9,2275.4 1385.5,2268.7 C1372.9,2265.7 1315.9,2253 1259,2240.6 L1155.5,2218.1 L1058.5,2201.7 C952.1,2183.7 953.1,2183.9 928,2181.8 C893.2,2178.8 865.5,2177.9 825.3,2178.5 C778.5,2179.1 752.9,2181.5 718,2188.3 C703.7,2191.1 704.5,2190.5 707.7,2195.4 C716.9,2209.7 725.5,2219.3 755.3,2248.5 C787.4,2279.8 794.4,2287.6 798.7,2297 C806,2312.7 803.3,2332.5 791.3,2350.4 C769.9,2382.7 710.4,2423.4 649.4,2447.5 C620.9,2458.8 602.8,2462.1 586.9,2458.8 L586.9,2458.8 Z" id="Shape" sketch:type="MSShapeGroup"></path>
            <path d="M1472.5,1998.5 C1457.3,1996.5 1436.9,1990.1 1407,1977.7 C1381.4,1967.1 1358.7,1958.8 1346.1,1955.3 C1340.3,1953.7 1266.7,1937 1182.5,1918.2 L1029.5,1884.2 L898,1863.2 C619.5,1818.9 614,1818.2 558.4,1818.2 C508.3,1818.2 498.6,1819.9 429.5,1840.7 C377.2,1856.4 371.7,1857.3 359.1,1852.1 L353.7,1849.8 L354.3,1836.3 C355.2,1815.6 358.4,1806.2 370.1,1789.8 C384,1770.4 444.7,1720.8 485.5,1695.7 C500.4,1686.4 522.6,1675.8 533.4,1672.7 C554.1,1666.8 567.6,1669.1 758,1710.6 C794.6,1718.5 835.5,1727.4 849,1730.2 C862.5,1733 971.8,1752.4 1092,1773.3 L1310.5,1811.2 L1451.5,1830.2 C1529.1,1840.6 1596.3,1850 1601,1851.1 C1612.9,1854 1625.1,1860.3 1632.6,1867.7 C1642.4,1877.3 1647,1888.3 1647,1902.3 C1647,1917.2 1641.7,1928.5 1628.5,1941.7 C1623.6,1946.7 1615.9,1953.1 1611.5,1956 C1589,1970.8 1555.7,1984.3 1520.6,1992.7 C1496.9,1998.4 1483.9,2000 1472.5,1998.5 L1472.5,1998.5 Z" id="Shape" sketch:type="MSShapeGroup"></path>
            <path d="M1751.4,1753.2 C1745.5,1752 1728.9,1745 1704.4,1733.4 C1678.4,1721.1 1660.5,1715.1 1617.1,1704.2 C1561.3,1690.2 1497.7,1678.7 1394,1663.7 C1254.5,1643.6 996.5,1602.7 656.5,1546.7 C443.3,1511.6 290.2,1486.9 282.6,1486.2 C248.5,1483.5 206.5,1486.3 183.6,1492.8 C171,1496.4 145.7,1505.6 90,1527 C34.8,1548.2 36,1547.9 24.6,1542.3 C5.4,1532.9 -3.8,1512.7 1.5,1491.7 C3.6,1483.4 12.5,1465.7 20.9,1453.2 C35,1432 52.2,1412.1 78.7,1386.1 C122.1,1343.7 166.3,1312.7 199.5,1301.7 C209.7,1298.3 222.4,1297.5 239,1299.2 C250.4,1300.4 253.7,1301.2 277.5,1309.4 C294.2,1315.1 336,1327.5 394,1343.8 C481.4,1368.4 487.5,1370 573,1389.7 C640,1405.1 688.6,1415.6 773,1432.6 C883,1454.8 886.9,1455.5 1056.5,1484.1 L1228.5,1513.1 L1370,1530.6 C1447.8,1540.3 1522.3,1549.3 1535.5,1550.7 C1590.7,1556.5 1633.3,1559.9 1663.3,1560.9 C1680.1,1561.4 1683,1561.3 1683,1560.1 C1683,1559.3 1682.3,1553.3 1681.5,1546.7 C1678,1518.3 1659.8,1340.7 1654,1278.4 C1650.9,1245.4 1645.9,1134.1 1645.3,1085.2 C1642,832.7 1700.5,579.6 1806.2,388.4 C1852.2,305.2 1917,220.7 1989.6,149.2 C2078.6,61.5 2162.2,10.9 2233.8,1.2 C2247.7,-0.7 2268.2,-0.2 2277.5,2.1 C2290.4,5.4 2299.3,10.5 2308.5,19.7 C2315.1,26.2 2317.5,29.5 2321.3,37.2 C2326.1,47 2329,56.8 2329,63.6 C2329,69.2 2323.7,84.2 2311.2,113.7 C2305.1,128 2299.2,142.6 2298.1,146.2 C2292.1,165.1 2281.6,233.7 2279,270.6 C2277.9,286 2278.6,305 2281.5,340.2 C2282.3,349.8 2285.7,398.2 2289.1,447.7 C2294.7,530.9 2295.1,539.6 2294.7,562.7 C2294.2,589.3 2293,599.1 2288.5,614.5 C2285.3,625.5 2282,632.2 2276.9,637.7 C2272.1,642.9 2267.6,645.2 2262,645.2 C2250.9,645.2 2242.8,635.7 2235.5,613.8 C2234,609.4 2218.3,546.4 2200.5,473.8 C2164,324.4 2155.6,294.5 2142.5,267.6 C2136.9,256 2132.8,251.2 2128.5,251.2 C2123.3,251.2 2107,264.2 2085.4,285.7 C2021.8,348.9 1958,444.7 1911.7,546.2 C1835.1,714.2 1799.1,901.8 1804.8,1103.1 C1806.1,1147 1806.9,1163.2 1809.5,1197.7 C1818.5,1313.5 1839.2,1418.7 1864.4,1476.5 C1867.3,1483.2 1877.7,1502.7 1887.5,1519.7 C1907.5,1554.3 1926.5,1591.2 1929.8,1601.5 C1933.6,1613.1 1932.3,1622.7 1925.1,1637.1 C1912.4,1662.2 1879.9,1692.9 1837.7,1719.4 C1820.6,1730.1 1793.2,1743.8 1779.5,1748.5 C1770.6,1751.6 1767.3,1752.4 1758,1753.7 C1756.6,1753.8 1753.6,1753.6 1751.4,1753.2 L1751.4,1753.2 Z" id="Shape" sketch:type="MSShapeGroup"></path>
        </g>
    </g>
</svg>