<?xml version="1.0" encoding="UTF-8" standalone="no"?>
<svg width="1101px" height="2308px" viewBox="0 0 1101 2308" version="1.1" xmlns="http://www.w3.org/2000/svg" xmlns:xlink="http://www.w3.org/1999/xlink" xmlns:sketch="http://www.bohemiancoding.com/sketch/ns">
    <!-- Generator: Sketch 3.0.4 (8054) - http://www.bohemiancoding.com/sketch -->
    <title>Slice 2</title>
    <desc>Created with Sketch.</desc>
    <defs></defs>
    <g id="Page-1" stroke="none" stroke-width="1" fill="none" fill-rule="evenodd" sketch:type="MSPage">
        <g id="Group" sketch:type="MSLayerGroup" transform="translate(550.500000, 1154.000000) scale(1, -1) translate(-550.500000, -1154.000000) translate(0.000000, 0.500000)" fill="#000000">
            <path d="M566.8,2306.5 C548.1,2304.3 535.3,2295.1 518.4,2271.8 L510.9,2261.6 L515.5,2250.7 C522.7,2233.6 528,2226.4 550.6,2203.5 C564.8,2189 572.4,2180.4 576.4,2174.3 C595.6,2144.9 610.3,2103.3 614,2067.9 C614.7,2061.2 615,1989.6 614.8,1849.6 L614.5,1641.2 L599.5,1637 C536,1619.2 547.6,1621.6 451.5,1605.4 C402.6,1597.2 350.8,1588.3 336.5,1585.8 C294.6,1578.4 273.6,1578.6 231,1587.1 C211.2,1591 185.7,1597.5 176,1601 C172.4,1602.3 161.9,1606.7 152.5,1610.8 C132.3,1619.7 111.9,1627.4 99,1631.1 C90.4,1633.6 89,1633.7 83.2,1632.7 C59.8,1628.7 43.6,1605.5 45.3,1578.5 C46.5,1559.7 55,1542.5 72.9,1522.4 C77.9,1516.8 84.1,1512.4 112.7,1493.8 C179.7,1450.2 203.6,1435.4 225,1424.6 C250.2,1411.8 259.8,1409.5 288,1409.5 C300.8,1409.5 309.4,1410 315,1411.1 C325.7,1413.1 349.4,1420.8 373.9,1430.2 C402.6,1441.2 419.3,1446.4 464,1458.4 C504.5,1469.2 568.4,1485.5 568.8,1485 C570.2,1483.7 523.1,1344.6 504,1293.5 C500.8,1285 476.6,1228.6 450.1,1168.2 L402,1058.3 L380.7,1019.7 C366.4,993.7 339.7,948.8 299.6,883 C231.2,770.9 225,761 206.3,733.9 C165.1,673.9 129.7,628.6 84.4,577.5 C68.5,559.6 49.9,538.5 43.1,530.6 C19.1,502.9 0,477.9 0,474.3 C0,473.5 1.4,470.9 3.1,468.6 C6.7,463.5 12.7,460.6 19.1,460.5 C46.7,460.4 125.5,515.2 216.2,597.7 C318,690.1 411.6,794.8 477.3,889.8 C483.7,899 512.4,943.8 541.1,989.3 C569.8,1034.8 594,1072.9 594.8,1074 C596,1075.8 596.1,1070.2 595.6,1028.5 C595,976.9 593.5,924.7 592,895.5 C582,706.9 566.6,436.3 565.5,430 C563.6,419.5 553.5,195 554.3,181 C555.4,163.3 560.7,138.7 569.1,112.8 C586.5,59.2 611.4,20.9 637.9,7.2 C649.6,1.1 654.2,-9.09494702e-13 667.5,-9.09494702e-13 C678.5,0.1 679.9,0.3 684.6,2.7 C693,7.1 698.6,14.2 715.5,42 L725.2,58 L727.5,86.5 C729.6,110.9 730.7,145.9 735.4,329.5 L741,544 L741.1,709.5 C741.1,841 741.7,911 743.8,1049.8 L746.5,1224.7 L792.1,1179.3 C852.1,1119.7 859.4,1111.3 895,1060.5 C917.1,1028.9 945.1,991.3 956.7,977.5 C967.9,964.2 985.4,947.7 993,943.2 C1003.9,936.9 1011.4,935 1026.5,935 C1037.6,935 1040.6,935.4 1046.9,937.4 C1069.9,945 1088.1,967.4 1096.4,998.5 C1108.5,1043.6 1095.7,1090.4 1058.3,1137.5 C1049,1149.1 1021.1,1177.1 1007.5,1188.4 C949.5,1236.5 860.9,1286.5 769.1,1323.1 L752,1330 L752.3,1357 C752.5,1374.4 753.2,1388.3 754.2,1396 C756,1408.8 758.1,1441.2 760.5,1493 C762.6,1537.7 762.7,1539.2 765.4,1539.9 C766.5,1540.2 780.3,1542.9 796,1545.9 C875.8,1561.3 896.9,1564 948.5,1565.5 C966.1,1566 985.7,1566.7 992,1566.9 C1014,1567.9 1035.1,1572.9 1051,1580.7 C1059.7,1585 1062.9,1587.3 1069.6,1594 C1083.6,1607.8 1088.6,1621.7 1087.7,1644 C1087,1664 1080.7,1678.5 1066.1,1693.8 C1053.2,1707.3 1038.1,1716.5 1018,1722.9 C988.4,1732.5 948.1,1734.7 923,1728.1 C910.8,1724.9 893.8,1719.2 851,1704 C818,1692.3 793.1,1684.3 779,1681 C768.2,1678.5 769,1677.7 769,1691.8 C769,1736.6 782.3,1967.7 787,2004 C789.9,2026.7 792.1,2036.7 806.1,2092.9 C813.4,2122.4 819,2146.8 819,2149.4 C818.8,2193.8 747.7,2254.7 655,2289.7 C622.5,2301.9 586.5,2308.8 566.8,2306.5 L566.8,2306.5 Z" id="Shape" sketch:type="MSShapeGroup"></path>
        </g>
    </g>
</svg>