<?xml version="1.0" encoding="UTF-8" standalone="no"?>
<svg width="1786px" height="2059px" viewBox="0 0 1786 2059" version="1.1" xmlns="http://www.w3.org/2000/svg" xmlns:xlink="http://www.w3.org/1999/xlink" xmlns:sketch="http://www.bohemiancoding.com/sketch/ns">
    <!-- Generator: Sketch 3.0.4 (8054) - http://www.bohemiancoding.com/sketch -->
    <title>Slice 2</title>
    <desc>Created with Sketch.</desc>
    <defs></defs>
    <g id="Page-1" stroke="none" stroke-width="1" fill="none" fill-rule="evenodd" sketch:type="MSPage">
        <g id="Group" sketch:type="MSLayerGroup" transform="translate(893.000000, 1029.000000) scale(1, -1) translate(-893.000000, -1029.000000) translate(0.500000, 0.000000)" fill="#000000">
            <path d="M1049.8,2057 C1039.7,2055.2 1028.4,2049.6 991.6,2028.6 C963.2,2012.3 949.6,2006.7 918.2,1998.5 C897.3,1993.1 880.4,1990 792,1975.5 C703.4,1961.1 660.4,1953.5 611.4,1944 L580.8,1938 L572.9,1942.6 C558.5,1950.8 531.9,1963.9 514.8,1971.1 C482.6,1984.7 458.5,1992.2 437.8,1995 C424.8,1996.8 403.3,1995.8 393,1993 C369.2,1986.6 353.5,1972.1 353.5,1956.6 C353.5,1948.7 362.5,1934.7 387.5,1903.6 C408.6,1877.5 412.4,1872.1 421.6,1856 C447.9,1810.1 460,1766.7 466,1697.5 C469.4,1657 470,1634.1 470,1532.5 C470,1433.4 469.4,1407.5 466,1336 C455.4,1117.5 426.9,917.5 379.5,729.5 C327.2,521.7 264.3,366.7 180.8,239.5 C142.4,181.1 110.5,142.2 54.5,85.5 C20.2,50.9 14.1,44.1 8.1,34.2 C4.5,28.2 -0.5,15.3 -0.5,11.9 C-0.5,9.8 10.5,3.9 18.9,1.5 C30.2,-1.8 40,0.9 62,13.1 C109.8,39.6 178,95.5 233.8,153.8 C325.3,249.5 403.8,373.5 464.1,518.1 C560,747.9 617,1043.7 628.5,1371 C630.5,1429 630.8,1455.7 631.4,1627.5 C632,1795.9 632.1,1804.7 633.8,1807.3 C639.1,1815.4 656.1,1820.3 700.5,1826.6 C714.5,1828.5 746,1833.1 770.5,1836.6 C825.7,1844.7 972.4,1865.5 982.2,1866.7 C991.4,1867.9 995,1866.7 999.1,1861.4 C1003.5,1855.6 1006.4,1844 1007.7,1826.8 C1008.6,1815.2 1008.5,1805.8 1007.2,1777.5 C1006.2,1758.2 1000.3,1618.1 994,1466 C983.9,1224.1 981.4,1154.7 974,911.9 L965.5,634.3 L965.5,463.9 C965.5,361.8 965.9,287.9 966.5,279.5 C970.6,221.4 986.6,182.3 1018.8,151.4 C1052.6,119 1105.1,98.5 1178,89.1 C1213.7,84.5 1227.8,83.8 1290,83.3 C1416.4,82.2 1523.6,89.3 1614,104.6 C1634.2,108 1649.1,111.2 1673,117.1 C1744.3,135 1774.3,154.2 1783.2,188 C1784.4,192.7 1784.9,198.4 1784.9,208.5 C1784.9,225 1783.5,230.1 1775.7,241.5 C1770.4,249.4 1745.5,275.2 1724.7,294.4 L1710.8,307.3 L1710.1,314.9 C1709.8,319.1 1705,390.2 1699.5,473 C1686.4,670.2 1680.5,750.8 1678.9,756.3 C1678.4,757.8 1677,758 1667.6,758 L1656.7,758 L1653,738.3 C1645.6,698.8 1627.5,609.2 1624.2,595.5 C1622.3,587.8 1612,548.2 1601.2,507.5 C1590.4,466.8 1578.4,421.1 1574.5,406 C1557,338.2 1547.7,312.5 1534.7,296.5 C1511.7,267.9 1467.3,257.2 1354.5,252.9 C1311.9,251.3 1227.4,252.2 1213.2,254.4 C1161.8,262.4 1140.4,281.1 1133.1,324 C1129.8,343.4 1129.5,364.7 1129.5,552.3 L1129.5,739.1 L1143,1043.3 L1156.5,1347.5 L1166.9,1510.5 C1179.8,1710.6 1179.1,1701.5 1181.6,1718.5 C1186.1,1749.9 1195.1,1787.1 1204.7,1813.4 C1206.9,1819.5 1213.9,1836.1 1220.2,1850.3 C1226.5,1864.5 1233.2,1880.9 1235.1,1886.7 C1238.6,1897 1238.7,1897.8 1238.3,1909.4 L1238,1921.5 L1233.3,1931 C1226.9,1943.9 1217.6,1956 1201.5,1972 C1179.3,1994.2 1152.8,2014.6 1124,2031.9 C1089.6,2052.5 1067.2,2060.1 1049.8,2057 L1049.8,2057 Z" id="Shape" sketch:type="MSShapeGroup"></path>
        </g>
    </g>
</svg>