<?xml version="1.0" encoding="UTF-8" standalone="no"?>
<svg width="2308px" height="2281px" viewBox="0 0 2308 2281" version="1.1" xmlns="http://www.w3.org/2000/svg" xmlns:xlink="http://www.w3.org/1999/xlink" xmlns:sketch="http://www.bohemiancoding.com/sketch/ns">
    <!-- Generator: Sketch 3.0.4 (8054) - http://www.bohemiancoding.com/sketch -->
    <title>Slice 2</title>
    <desc>Created with Sketch.</desc>
    <defs></defs>
    <g id="Page-1" stroke="none" stroke-width="1" fill="none" fill-rule="evenodd" sketch:type="MSPage">
        <g id="Group" sketch:type="MSLayerGroup" transform="translate(1154.000000, 1140.250000) scale(1, -1) translate(-1154.000000, -1140.250000) translate(0.000000, 0.400000)" fill="#000000">
            <path d="M1504.5,2277.7 C1483.2,2273.2 1454.2,2264.8 1390,2244.6 C1367.3,2237.5 1313,2222 1262.5,2208.2 C1176.1,2184.6 1173.2,2183.9 1105.6,2169.6 C1045.5,2156.9 1024.3,2152.9 939.6,2138.6 C886.2,2129.6 838.7,2121.7 834,2121.2 C805.6,2117.8 723,2116.8 701.4,2119.6 C682.7,2122.1 665.7,2126.5 644,2134.4 C628.3,2140.2 619,2144.5 586,2161 C532.3,2188.1 520.5,2192.7 507.7,2191.9 C491.7,2190.9 478.2,2178.5 473.4,2160.6 C471.1,2152.2 471.6,2139.1 474.5,2130.5 C487.7,2091.2 537.9,2028.6 589,1987.6 C611.8,1969.2 637.4,1954.7 655.9,1949.5 C664.9,1947 666,1946.9 681.9,1947.4 C697.7,1948 710.2,1949.9 718.4,1953.1 C720,1953.7 809.1,1976.5 916.4,2003.7 L1111.5,2053.2 L1211,2072.1 C1341,2096.7 1372.1,2101 1386,2096.6 C1389.3,2095.6 1393,2090.2 1393,2086.6 C1393,2079.3 1384.8,2063.3 1366,2034.1 C1337.4,1989.6 1320.6,1967.3 1225.7,1847.6 C1127.6,1723.9 1122.2,1717.4 1105,1700.1 C1078.9,1673.9 1060.6,1663.2 1033.9,1658.7 C1025.4,1657.3 1016.3,1656.4 976.5,1653.1 C952.1,1651 935.3,1647 926,1641.1 C917.7,1635.8 914.9,1628.8 917,1618.8 C919,1608.9 925.8,1604.6 960.5,1591.6 C1000.5,1576.6 1029.2,1559.1 1056,1533.4 C1091.9,1499 1116,1452.9 1116,1418.7 C1116,1401.8 1112.5,1399.6 1079.7,1396.1 C961.5,1383.4 831.7,1363.2 676,1333.2 C491.1,1297.6 336.7,1271.7 267.8,1264.6 C236,1261.3 208.4,1263.2 180.7,1270.5 C153,1277.8 140.5,1283.5 102,1306.6 C46.9,1339.6 37.7,1343.3 25.4,1337.5 C12.9,1331.7 0,1308.3 0,1291.5 C0,1269 23.2,1229.4 62,1185.6 C67.4,1179.6 80.5,1166.1 91.2,1155.6 C133.5,1114.1 174.6,1085.3 208,1074 C216.5,1071.1 219,1070.7 231.6,1070.3 C252.8,1069.7 260.6,1072.1 310,1094.4 C341,1108.4 358,1115 389.5,1125.4 C425.8,1137.4 431.1,1138.7 553.5,1167.6 L669.5,1194.9 L788,1217.6 C899.5,1238.9 913.3,1241.3 1023.7,1258.7 C1088.1,1268.8 1141.5,1277.1 1142.3,1277.1 C1143.2,1277.1 1144.6,1273.6 1146.4,1266.1 C1154.8,1232 1162.6,1178 1168.5,1112.6 C1174.7,1043.7 1174.3,1054.7 1174.7,914.2 L1175.1,783.9 L1172.5,746.7 C1170.7,720 1166.4,678.3 1157.4,598.1 C1150.5,536.8 1144.2,481.9 1143.4,476.1 C1138,438.5 1125.2,389.3 1112.3,356.6 C1088.4,295.8 1065.3,270.7 1025.3,262 C1017,260.2 1011,259.8 987,259.4 C955,258.8 947.9,259.5 920.1,265.7 C911.5,267.6 860.6,277.8 807,288.3 C712.6,306.8 709.1,307.4 696.5,307.5 C685.2,307.6 683,307.3 679.6,305.5 C671.3,301.2 669.4,289.7 675.3,278.8 C679.4,271 692.5,257.8 706.4,247.5 C712.2,243.1 767.8,206.8 830,166.7 L943.1,93.9 L949.9,85.5 C953.7,81 964.1,67.4 973.1,55.4 C998.3,21.7 1013.1,8 1030.4,2.5 C1037.1,0.4 1040.3,-6.82121026e-13 1050.5,-6.82121026e-13 C1108.8,-6.82121026e-13 1171.5,46.5 1218,124.4 C1247.5,173.7 1282.8,276.9 1302.4,370.9 C1308.6,400.5 1310.5,414.3 1324.6,526.1 L1338.2,634.6 L1342.3,701.1 L1346.5,767.6 L1345.2,881.6 L1343.9,995.6 L1333,1095.1 C1322.7,1188.8 1321.7,1196.2 1316.6,1222.1 C1309.4,1258.2 1305.1,1283.2 1304.8,1290.6 L1304.5,1296.6 L1317,1298.8 C1323.9,1300 1342.1,1302.8 1357.5,1305 C1415,1313.3 1420.6,1313.7 1561.5,1320.1 L1692.5,1326.1 L1832.7,1326.1 L1973,1326.1 L2097,1311.1 C2169.5,1302.3 2224.7,1296.1 2229.8,1296.1 C2271.7,1296.1 2308,1332.1 2308,1373.5 C2308,1393.7 2299.4,1411.4 2279.6,1432 C2246.3,1466.5 2181.3,1501.2 2116.3,1519.1 C2091.8,1525.8 2076.9,1528.3 2057,1528.8 C2041.1,1529.3 2038.6,1529.1 2030.5,1527.1 C2021.1,1524.8 2007.4,1519.9 1985.5,1511.1 C1960.3,1501 1932,1493.2 1913,1491.1 C1907.8,1490.6 1843,1484.7 1769,1478 C1647.8,1467.2 1616.9,1464 1456.6,1446 C1358.7,1435.1 1277.6,1426.1 1276.4,1426.1 C1274.5,1426.1 1274,1426.8 1273.5,1429.9 C1270.4,1448.6 1262.2,1473.6 1252.9,1492.6 C1233.9,1531.5 1203.2,1566.1 1156.2,1602 C1151.6,1605.4 1148,1608.7 1148.2,1609.1 C1148.4,1609.6 1159.8,1619.8 1173.5,1631.7 C1206.4,1660.3 1247.9,1697.3 1261,1709.7 C1286.1,1733.5 1527.9,1954.9 1535.8,1961.3 C1545.4,1969 1571,1986.2 1583.5,1993.3 C1608.5,2007.5 1641.5,2022.3 1671,2032.6 C1723.3,2050.8 1742.5,2062.3 1751.7,2080.8 C1755,2087.5 1755.5,2089.4 1755.8,2097.5 C1756.3,2108.2 1754.8,2113 1747.3,2124.5 C1718.2,2169.4 1625.3,2242.2 1562.6,2269.1 C1537.4,2279.9 1523.9,2281.9 1504.5,2277.7 L1504.5,2277.7 Z" id="Shape" sketch:type="MSShapeGroup"></path>
        </g>
    </g>
</svg>