<?xml version="1.0" encoding="UTF-8" standalone="no"?>
<svg width="1103px" height="2135px" viewBox="0 0 1103 2135" version="1.1" xmlns="http://www.w3.org/2000/svg" xmlns:xlink="http://www.w3.org/1999/xlink" xmlns:sketch="http://www.bohemiancoding.com/sketch/ns">
    <!-- Generator: Sketch 3.0.4 (8054) - http://www.bohemiancoding.com/sketch -->
    <title>Slice 2</title>
    <desc>Created with Sketch.</desc>
    <defs></defs>
    <g id="Page-1" stroke="none" stroke-width="1" fill="none" fill-rule="evenodd" sketch:type="MSPage">
        <g id="Group" sketch:type="MSLayerGroup" transform="translate(551.600000, 1067.400000) scale(1, -1) translate(-551.600000, -1067.400000) translate(0.600000, 0.400000)" fill="#000000">
            <path d="M885.4,2132.9 C872.7,2129.3 856.4,2121.4 807.9,2095.6 C767.6,2074.1 756.1,2068.8 745.1,2066.9 C729,2064.1 710.1,2058.8 640.1,2037.3 C611.6,2028.5 583.2,2020 577,2018.4 C570.7,2016.7 512.8,2004.8 448.3,1991.9 C318.8,1966 321.4,1966.4 304.6,1970.4 C283,1975.6 258.9,1987 205.3,2017.5 L182.6,2030.4 L158.2,2030.4 L133.8,2030.4 L128.1,2015.4 C120.4,1995.2 118.3,1986.1 118.3,1972.1 C118.3,1948.9 128.1,1928.4 151.1,1903.1 C162.6,1890.5 170.5,1883.2 198.5,1860 C232.3,1831.9 239.4,1825.8 249.4,1816.9 C261.5,1805.9 272,1798.9 279.2,1796.7 C287.3,1794.3 305.1,1794.6 317.4,1797.2 C330.3,1800 347.2,1805.2 363.4,1811.5 C396.2,1824.1 433.7,1836.2 488.9,1851.9 C528.7,1863.3 532,1864.4 545.4,1870.1 C555.3,1874.3 799.1,1953.7 800.6,1953.1 C801,1953 795.6,1944.4 788.6,1933.9 C730.3,1847.2 647.3,1747.3 566,1665.8 C530,1629.8 521.8,1622.5 496.4,1603.6 C471.3,1584.9 458.6,1574.5 450,1565.4 C441.2,1556 438.3,1549.9 437.6,1538.9 C436.6,1521.5 440.3,1515.8 487,1463.4 C498.5,1450.5 510,1437.4 512.5,1434.3 C526.8,1416.7 546.9,1377.1 567.6,1325.4 C580.4,1293.5 596.1,1245.6 594.3,1244 C594.1,1243.8 585.1,1239.2 574.4,1233.9 C548.6,1221 491.6,1191.6 467.9,1179 C443,1165.6 268.5,1081.1 261.4,1078.9 C256.7,1077.4 243.9,1072.5 196.9,1054 L188.9,1050.9 L166.4,1050.9 C138.3,1051 135.1,1051.6 111.6,1062.5 C60.2,1086.2 53.6,1088.5 42.8,1086.7 C28.6,1084.2 16.3,1075.1 5,1058.6 L0.1,1051.4 L-2.72847717e-13,1034.6 C-0.1,1019.3 0.1,1017.4 2.2,1012.1 C5.6,1003.8 12.3,994.2 27.7,975.9 C40.4,960.8 48.5,951.6 85.6,910.2 C117,875.2 131,864.6 154.6,858.2 C162.1,856.1 165.1,855.9 184.9,855.9 C204.8,855.9 207.7,856.1 215.4,858.2 C233.7,863.2 253.5,874.8 273.1,892.1 C295.7,912 335.5,939.9 390.4,974.2 C430.6,999.3 623.8,1117.3 624.2,1116.9 C624.7,1116.4 630.8,1074.5 633.8,1050.4 C643.1,976 646,915.8 645.1,815.9 C644.5,753.9 643.9,736.4 640.9,688.9 C631.1,536.9 603.9,410 565.4,336.6 C555.8,318.4 547,306 535.4,294.3 C526.7,285.5 523.5,283 517,279.8 C509.5,276.2 508.3,275.9 498.6,275.6 C472.7,274.7 409.3,286.2 322.8,307.4 C284.4,316.8 277.1,318.9 263.4,324.4 C245.8,331.4 240.2,332.5 219.3,333.1 L200.7,333.7 L199.5,330.4 C198.9,328.6 198.4,326.3 198.4,325.4 C198.4,324.5 203.3,316.3 209.3,307.3 C234,270.1 245.3,259.3 312.9,207.4 C385.6,151.6 404.8,136.2 419.4,121.4 C432.3,108.3 433.6,106.1 447.9,70.9 C471.7,12.6 483.9,0.4 517.9,0.3 C535.2,0.3 548.4,4 564.8,13.4 C617.2,43.4 672.9,126.8 716.6,240.9 C739.9,301.5 759,377.4 774.8,471.9 C792.1,575.3 799.9,659.1 799.8,741.9 L799.7,786.9 L791.1,921.4 L782.5,1055.9 L767.9,1129.9 L753.4,1203.9 L756.6,1206.7 C764.8,1213.7 776.8,1222.7 787.3,1229.8 C821.5,1253 838.8,1267.8 907.8,1332.3 C913.4,1337.5 923.1,1346.2 929.4,1351.7 C965.8,1383.5 982.8,1402.3 992.3,1421.1 C995.9,1428.4 998.4,1437.1 998.4,1442.7 L998.4,1446.7 L993.3,1446 C971.1,1443 945.4,1436.1 929.4,1428.7 C924.7,1426.5 875.5,1400.5 820.1,1371 C764.6,1341.4 718.9,1317.6 718.4,1318 C718,1318.5 710.2,1337.4 701.1,1359.9 C675.7,1423 665.8,1445 653.7,1464.7 C646.2,1477.2 635.1,1491.9 628.5,1498.2 C622.4,1504.1 601.9,1520.6 582.6,1535.4 C573,1542.8 570.6,1545 571.6,1545.9 C572.3,1546.6 581.5,1553.6 591.9,1561.4 C643.9,1600.8 731.1,1670.8 762.3,1698.2 C767.2,1702.6 804.3,1738.7 844.8,1778.4 L918.3,1850.8 L972.1,1886.2 C1001.7,1905.7 1035.1,1927.3 1046.4,1934.1 C1082.3,1955.9 1092.8,1965.2 1098.8,1980.3 C1101.5,1987.2 1102.6,1999.3 1101.5,2009.5 C1100.1,2022.1 1096.9,2028.8 1088.4,2036.7 C1077.7,2046.9 1064.5,2054.9 1016.4,2080.7 C1004.6,2087 985.2,2097.5 973.4,2103.9 C930.4,2127.2 916.4,2133 900.4,2133.9 C893.5,2134.3 889.4,2134 885.4,2132.9 L885.4,2132.9 Z" id="Shape" sketch:type="MSShapeGroup"></path>
        </g>
    </g>
</svg>