<?xml version="1.0" encoding="UTF-8" standalone="no"?>
<svg width="2336px" height="1634px" viewBox="0 0 2336 1634" version="1.1" xmlns="http://www.w3.org/2000/svg" xmlns:xlink="http://www.w3.org/1999/xlink" xmlns:sketch="http://www.bohemiancoding.com/sketch/ns">
    <!-- Generator: Sketch 3.0.4 (8054) - http://www.bohemiancoding.com/sketch -->
    <title>Slice 2</title>
    <desc>Created with Sketch.</desc>
    <defs></defs>
    <g id="Page-1" stroke="none" stroke-width="1" fill="none" fill-rule="evenodd" sketch:type="MSPage">
        <g id="Group" sketch:type="MSLayerGroup" transform="translate(1167.800000, 816.750000) scale(1, -1) translate(-1167.800000, -816.750000) translate(0.200000, 0.100000)" fill="#000000">
            <path d="M920.8,1632 C912.2,1631 911.3,1630.7 911.5,1628.9 C912.2,1622.8 918.3,1588.3 920.4,1578.5 C928,1543 937.6,1515.7 957.3,1472.9 C968.4,1449 1025.9,1330.1 1046.8,1287.9 C1106.6,1167.6 1157.3,1105.9 1204.7,1095.8 C1218.7,1092.9 1235.8,1094.7 1247.5,1100.4 C1274.8,1113.8 1285.2,1148 1282,1213.1 C1280.6,1241.2 1277.6,1265.5 1271.3,1300.2 C1268.8,1314.1 1267,1326.3 1267.3,1327.3 C1269.3,1333.7 1290.1,1365.6 1306,1386.8 C1310.9,1393.3 1314.8,1398.7 1314.6,1398.9 C1312.6,1400.7 1284.2,1419.2 1279.5,1421.8 C1270.4,1426.9 1257.5,1430.9 1236.9,1434.9 C1216.3,1439 1197.8,1444 1177.8,1450.9 C1162.4,1456.3 1135.1,1467.8 1128.6,1471.7 C1126.3,1473.2 1082,1510.1 1030.3,1553.9 C948.9,1622.8 935.9,1633.4 933.3,1633.3 C931.7,1633.2 926,1632.6 920.8,1632 L920.8,1632 Z" id="Shape" sketch:type="MSShapeGroup"></path>
            <path d="M1866.3,1510.7 C1857.1,1509.5 1851.2,1506.1 1848.3,1500.3 C1846.3,1496.6 1846.4,1487.1 1848.4,1483.2 C1851.4,1477.4 1858.5,1471 1879.8,1454.9 C1911.6,1430.8 1932.6,1412.7 1958.4,1386.9 C1990.6,1354.8 2013.2,1327.3 2037.1,1291.1 C2057.1,1260.7 2066.2,1244.8 2128.2,1130.4 C2152.9,1085 2175.9,1043.5 2179.5,1038.1 C2194.7,1015.3 2215.6,999.9 2238.1,994.9 C2249.5,992.4 2266.4,993.2 2277.4,996.8 C2304.7,1005.6 2324.3,1032.1 2330.4,1068.4 C2331.7,1076.7 2332,1082.4 2331.5,1098.3 C2330.3,1141.1 2320.1,1180.3 2298.9,1223.9 C2277.3,1268.2 2252.2,1302.3 2212.2,1341.4 C2180.2,1372.7 2141.6,1402.1 2105.3,1422.9 C2051,1454 1957.6,1490.6 1891.3,1506.7 C1875.9,1510.5 1870.8,1511.3 1866.3,1510.7 L1866.3,1510.7 Z" id="Shape" sketch:type="MSShapeGroup"></path>
            <path d="M457.4,969.9 C449.8,968.7 443.3,967.2 442.9,966.5 C442.5,965.9 441.6,956.7 441,946 L439.7,926.5 L463.8,867.8 L487.8,809 L557,675.9 C600.4,592.2 628.8,538.7 633.5,531.6 C664.7,484.2 728.4,401.4 766.3,358.9 C779.4,344.2 818.8,305 836.8,288.8 C932.8,202.2 1039.4,139.5 1168.9,93.6 C1226.2,73.2 1280.2,58.9 1357.8,43.4 C1467.8,21.4 1568.6,9.1 1650.3,7.8 C1682.3,7.2 1877.6,11.1 1909.8,12.9 C1976.1,16.6 2075.9,29.8 2137.8,43 C2191.4,54.5 2224.9,65.8 2263.8,85.4 C2283.9,95.6 2296.2,103.8 2307.1,114.3 C2317.1,124 2322.3,131.3 2329.9,146.6 L2335.2,157.2 L2332.1,169.1 C2326.1,192.3 2319,206 2306.5,218.6 C2302.7,222.4 2257.8,256.2 2192.5,304.3 C2094.2,376.8 2077.7,389.4 2004,448.2 C1959.6,483.6 1906.2,526.3 1885.2,542.9 L1847.2,573.3 L1833.2,574.5 L1819.3,575.7 L1815.5,573.3 C1812,571.1 1811.8,570.6 1812.4,567.4 C1814.1,557.7 1819.1,545.1 1824.6,536.7 C1832.1,525.4 1874.9,453.8 1894.7,419.7 C1946.9,329.5 1974.1,272 1976.4,246.4 C1977.2,238.5 1975.3,233.9 1968.9,228.1 C1941.7,203.5 1823.8,187.4 1670.3,187.4 C1615,187.4 1574.7,189.7 1521.8,196 C1318.5,220 1141.2,280.7 1002.9,373.7 C943.7,413.5 848.7,495.7 790.5,557.2 C729.7,621.7 697.1,664.9 629.1,771.4 C614.9,793.7 581.7,845.7 555.3,887 L507.4,962.1 L493.2,967.3 C484.4,970.5 477.6,972.4 475.2,972.3 C473,972.2 465.1,971.2 457.4,969.9 L457.4,969.9 Z" id="Shape" sketch:type="MSShapeGroup"></path>
            <path d="M252.1,844.4 C245.5,842.8 242,839.3 221.4,813.1 C184.7,766.2 159,726.4 136.9,682.4 C118.2,645 106.4,615.8 80.8,543.9 C73.6,523.6 61.3,489.4 53.6,467.9 C18.5,370.2 7.7,328 2.4,266.4 C-8.8,137.9 20.6,34.4 76.2,7 C88,1.2 94.3,-0.1 110.8,6.45173151e-13 C123.7,6.45173151e-13 126.2,0.3 133.3,2.7 C167.6,14.1 188.8,49.8 196.2,108.9 C197.2,116.3 199.9,175.2 203.2,261.4 C209,408.7 210.5,433.9 218.3,520.4 C226.8,613.6 226.6,611.8 240.3,679.9 C247.1,713.5 256.5,759.7 261.2,782.7 C265.9,805.7 269.8,826.8 269.8,829.7 C269.8,840.3 261.9,846.8 252.1,844.4 L252.1,844.4 Z" id="Shape" sketch:type="MSShapeGroup"></path>
        </g>
    </g>
</svg>