<?xml version="1.0" encoding="UTF-8" standalone="no"?>
<svg width="1230px" height="2350px" viewBox="0 0 1230 2350" version="1.1" xmlns="http://www.w3.org/2000/svg" xmlns:xlink="http://www.w3.org/1999/xlink" xmlns:sketch="http://www.bohemiancoding.com/sketch/ns">
    <!-- Generator: Sketch 3.0.4 (8054) - http://www.bohemiancoding.com/sketch -->
    <title>Slice 2</title>
    <desc>Created with Sketch.</desc>
    <defs></defs>
    <g id="Page-1" stroke="none" stroke-width="1" fill="none" fill-rule="evenodd" sketch:type="MSPage">
        <g id="Group" sketch:type="MSLayerGroup" transform="translate(615.000000, 1175.100000) scale(1, -1) translate(-615.000000, -1175.100000) translate(0.000000, 0.600000)" fill="#000000">
            <path d="M587.5,2347.7 C566.5,2342 552.2,2331.9 545.3,2317.8 C542.5,2312.1 541.3,2304.1 542.4,2298.3 C543.2,2293.8 553.7,2277.9 572.6,2252.6 C589.5,2229.8 591.9,2225.5 598.1,2207.8 C613.1,2164.4 620.6,2107.1 623.6,2014.3 C624,2002.9 623.7,1872 623.1,1723.3 C622,1487.9 621.7,1452 620.4,1444.5 L618.8,1435.9 L610.2,1431.8 C602.7,1428.2 584.9,1423.3 481.3,1396.7 C415.3,1379.7 354.3,1364.2 345.8,1362.2 C299.2,1351.4 263,1348.1 201.3,1348.9 C160.9,1349.4 155.7,1349.9 125,1355.7 C99.6,1360.5 90.5,1359 80.3,1348.4 C64,1331.6 66.1,1303.9 85.8,1276 C109.4,1242.5 166.6,1203.8 223.5,1182.6 C249.6,1172.9 258.8,1172.4 280,1179.6 C297.5,1185.5 326.7,1197.4 362.7,1213.3 C379.6,1220.7 402.5,1230.8 413.5,1235.6 C440.6,1247.5 486.6,1264.2 519.2,1274.2 C535.8,1279.2 561.1,1285.8 561.6,1285.3 C562.9,1284.1 550.1,1242.5 539.5,1213.1 C479.7,1047.8 361.5,825.6 232.7,636.6 C194.8,581.2 178.7,559.1 114.8,475.4 C27.1,360.4 0,323.4 0,318.7 C0,311.9 6.5,305.6 15.4,303.6 C21.4,302.3 27.6,303.9 39.3,309.8 C69.6,325 128.7,368.9 192,423.1 C226.5,452.6 226.1,452.2 296.8,535.4 C379.2,632.4 390.1,646.1 439.2,713.6 C499.2,796.2 508,810.1 568.5,917.2 C597.1,967.9 620.6,1009.3 620.7,1009.2 C620.8,1009.2 619.7,891.2 618.3,747.1 L615.9,485.1 L607.9,374.1 C603.5,313.1 599,255.2 598,245.6 C594.8,217 593.6,192.1 594.9,181.9 C601,135.4 614.4,76.4 624.7,51.1 C633.1,30.5 653.9,11 675.8,3.2 C683.8,0.4 685.5,0.1 697.5,0.1 C709.5,0.1 710.9,0.3 716,2.7 C727.5,8.2 736.1,17.4 743.9,32.6 C754.7,53.7 761.8,81.9 765,117.1 C765.8,125.9 765.8,261.6 764.9,624.8 C764.2,897.5 763.9,1120.8 764.2,1121.2 C764.6,1121.5 770.6,1117.2 777.7,1111.5 C829.4,1069.9 869.4,1029.5 902.7,985.1 C915.7,967.8 925.1,953.6 946,919.6 C995.6,839 1013.6,814.3 1027.4,807.6 C1038.2,802.4 1057.7,802.5 1069.4,807.9 C1090.7,817.7 1104.6,845.3 1110.5,890.1 C1112.6,906.3 1112.6,942.7 1110.5,955.1 C1106.3,979.5 1095.3,1001.4 1073.8,1028.5 C1052.5,1055.2 1012.6,1092.3 975.6,1119.8 C925.8,1156.9 876.5,1185.7 798.5,1223.3 C780.9,1231.8 766.4,1238.8 766.3,1238.9 C766.2,1239 765.4,1245.2 764.5,1252.6 C762.5,1268.8 761.6,1306.4 762.7,1327 C763.5,1341.8 763.5,1342 766,1342.7 C767.4,1343 786.1,1348.6 807.5,1354.9 C855.5,1369.1 879.4,1375.1 895.3,1377.1 C902,1378 953.6,1384.3 1010,1391.1 C1121.8,1404.7 1123.1,1404.9 1140,1413.2 C1147.6,1417 1151,1419.4 1157.1,1425.5 C1167.8,1436.3 1172.2,1446.1 1173.6,1462.6 C1176,1490.7 1159.6,1512.6 1126.1,1525.7 C1106.8,1533.3 1081.9,1538 1053.4,1539.5 C1033,1540.6 1030.6,1540.2 986.5,1527.2 C968.9,1522.1 952.9,1517.5 951,1517.1 C949.1,1516.7 943,1515.1 937.5,1513.4 C929.5,1511.1 784.8,1473.8 776.3,1471.9 C773.9,1471.3 774.2,1470.4 771.5,1487.6 C768,1510 766.9,1525.5 766.9,1549.1 C766.9,1562.3 769.2,1635.4 772,1711.6 L777,1850.1 L785,1959.1 C794,2081.4 791.8,2064 805,2118.1 C819,2175.7 819.6,2186.8 810,2210 C806.3,2218.9 800.6,2228.5 793.1,2238.6 C786,2248.2 766.2,2268.6 754,2278.8 C718.3,2308.9 668.3,2336.3 631.1,2346.3 C617.8,2349.8 597.7,2350.5 587.5,2347.7 L587.5,2347.7 Z" id="Shape" sketch:type="MSShapeGroup"></path>
            <path d="M1024.5,2150 C1008.3,2148.4 993.8,2142.5 986.7,2134.6 C980.6,2127.9 978.7,2121.9 979.1,2111.3 C979.5,2103.8 979.9,2102.2 984.1,2094.1 C986.6,2089.1 992.2,2079.4 996.5,2072.6 C1000.8,2065.7 1006.1,2056.3 1008.3,2051.8 C1012,2044.1 1012.4,2042.6 1012.8,2033.1 C1014.6,1992.6 993.9,1935.9 940.2,1834.4 C908.3,1774.1 884.1,1726 879,1713.1 C872.6,1696.7 873.5,1687.5 882,1682.7 C890.2,1678.1 904.4,1681.2 926.9,1692.5 C965,1711.6 999.3,1739.1 1029.2,1774.6 C1034.9,1781.5 1055.8,1806.9 1075.5,1831.1 C1143.9,1915 1154.7,1927.4 1186,1958.6 C1223.8,1996.3 1230.7,2007.4 1229.8,2030 C1229.5,2039.2 1229.1,2040.8 1225.7,2048.1 C1203.1,2095.6 1108.9,2146.9 1038.5,2149.9 C1033,2150.2 1026.7,2150.2 1024.5,2150 L1024.5,2150 Z" id="Shape" sketch:type="MSShapeGroup"></path>
            <path d="M147.6,2013.6 C137.5,2010.4 131.4,1994.1 135.5,1981.5 C139.2,1970.3 144,1961.9 172.2,1917.6 C214.2,1851.5 227.5,1827.7 248.5,1781.6 C271.5,1731.2 281.8,1709 293.4,1685.4 C337.6,1595.8 362.3,1571.6 409.4,1571.5 C424.3,1571.5 433.5,1573.6 447,1580.3 C454.9,1584.1 457.9,1586.4 465.1,1593.5 C472.4,1600.9 474.3,1603.6 478.7,1612.6 C486.1,1627.6 488.1,1636.4 488.7,1656.9 C489.8,1690.3 484.5,1714.2 469.3,1743.9 C449,1783.6 410.2,1826.2 329.9,1897.2 C248.5,1969.2 168.6,2020.2 147.6,2013.6 L147.6,2013.6 Z" id="Shape" sketch:type="MSShapeGroup"></path>
        </g>
    </g>
</svg>