<?xml version="1.0" encoding="UTF-8" standalone="no"?>
<svg width="2508px" height="2350px" viewBox="0 0 2508 2350" version="1.1" xmlns="http://www.w3.org/2000/svg" xmlns:xlink="http://www.w3.org/1999/xlink" xmlns:sketch="http://www.bohemiancoding.com/sketch/ns">
    <!-- Generator: Sketch 3.0.4 (8054) - http://www.bohemiancoding.com/sketch -->
    <title>Slice 2</title>
    <desc>Created with Sketch.</desc>
    <defs></defs>
    <g id="Page-1" stroke="none" stroke-width="1" fill="none" fill-rule="evenodd" sketch:type="MSPage">
        <g id="Group" sketch:type="MSLayerGroup" transform="translate(1254.100000, 1175.050000) scale(1, -1) translate(-1254.100000, -1175.050000) translate(0.300000, 0.100000)" fill="#000000">
            <path d="M1113.7,2348.5 C1099,2345.6 1085.6,2337.9 1072.3,2324.6 C1063.9,2316.1 1049.7,2298.3 1049.7,2296.2 C1049.7,2294.7 1054.6,2284.9 1060,2275.5 C1067.7,2262.1 1075.2,2253.4 1100.2,2228.5 C1117.2,2211.6 1127,2201.1 1130.4,2196 C1144.3,2175.2 1152.1,2152.3 1156.3,2119.8 C1158.3,2104.1 1158.6,2077.9 1160,1729.8 L1161.2,1458 L1153.7,1455.5 C1149.2,1454 1066.9,1438 947.2,1415.6 L748.2,1378.2 L668.2,1366.5 C624.2,1360.1 572.9,1352.6 554.2,1349.8 L520.2,1344.7 L493.7,1344.6 C469.8,1344.5 465.3,1344.8 447.9,1347.3 C405.5,1353.3 368.9,1361.6 339.2,1371.9 C313.3,1380.9 306.2,1383.8 279.6,1396.3 C230.3,1419.5 223.9,1421.2 210.6,1414.5 C186.7,1402.6 182,1370.2 199.2,1336 C219.7,1295.2 273.4,1250.5 353.5,1207.6 C387.4,1189.4 426.4,1172.1 456.7,1162 C466.9,1158.6 471,1157.7 479,1157.3 C495.5,1156.4 502.3,1158.5 576.1,1187.9 C627.7,1208.5 640.9,1212.3 763.2,1242.4 C809.4,1253.7 885,1272.4 931.2,1283.8 C977.4,1295.3 1015.3,1304.5 1015.5,1304.4 C1015.9,1304.2 938.9,1200.7 918.9,1174.5 C876.9,1119.6 844.4,1081 779.2,1008.5 C769.8,998.1 745.5,970.4 725.2,947 C632.1,839.7 591.2,794.6 524.8,725.6 C447.2,645.1 389,592.5 201.2,432.9 C113.1,358 89.8,338.8 61.1,317.2 C29.3,293.4 16,282.5 9.5,275 C4.7,269.5 -1,259.4 0.1,258.3 C1.4,256.9 37.3,257.8 49.2,259.4 C130.3,270.9 226,318 353.2,408.9 C383.8,430.8 387.7,433.7 478.7,503.9 C590,589.8 603.4,601.3 702.6,695.3 L784,772.5 L886.9,882 L989.8,991.5 L1072.5,1090.1 L1155.2,1188.8 L1155.8,1177.1 C1156.2,1170.7 1157.5,1100.9 1158.8,1022 L1161.1,878.5 L1155.9,683.5 C1150.1,470.2 1151.6,505.2 1138.2,288 C1134.2,224.9 1133.4,189.1 1135.6,175.5 C1140,147.5 1159.7,87.7 1174.4,57.8 C1184.1,37.9 1192.5,25.4 1202.5,15.8 C1214.3,4.5 1224.7,0 1238.9,0 C1280.8,0 1305.8,40.6 1315.1,124 C1319.8,165.7 1319.8,177.6 1316.2,602 C1314.4,813.6 1313.7,954.5 1313.9,1060.4 L1314.2,1213.4 L1331.6,1194.4 C1363.6,1159.7 1405.8,1110.5 1437.7,1070.5 C1454.5,1049.5 1474.2,1025.8 1505.2,989 C1547.2,939.2 1554.1,930.8 1597.3,876.5 C1723.4,718.2 1862.8,544.3 1929.1,462.6 C1989.6,388.1 2019.3,361.6 2057,348.6 C2070.6,343.9 2099.8,338 2142.2,331.4 L2164.2,328 L2293.2,324.9 C2364.2,323.3 2429,322.1 2437.2,322.4 C2470,323.5 2499.1,331.4 2505.4,340.9 C2508.9,346 2508.4,347.8 2501.5,354.5 C2488.4,367.1 2469.1,379 2338.2,455.2 L2248.2,507.6 L2148.7,582.9 C2094,624.3 2045.5,661.3 2041.1,665.1 C2036.6,668.9 2023.3,681.3 2011.6,692.8 C1984.8,718.8 1942,757.8 1915.7,780 C1912.2,783 1861.8,831.8 1803.7,888.4 C1728.6,961.7 1647.8,1042.1 1523.2,1167.6 C1385,1306.9 1346.2,1345.5 1338.5,1351.2 C1332.3,1355.7 1329.2,1358.7 1330,1359.1 C1332.2,1360.3 1357,1365.9 1366.7,1367.4 C1379.9,1369.5 1396.9,1371.4 1434.4,1375 C1452,1376.6 1473,1379.2 1480.9,1380.5 C1517.5,1387 1528.8,1388 1700.7,1401.2 L1873.2,1414.5 L2011.2,1415.1 C2160.6,1415.7 2154.2,1415.5 2173.2,1421.1 C2202.2,1429.7 2216.7,1450.4 2216.7,1483.3 C2216.7,1496.2 2214.3,1506 2208.5,1517.3 C2203.1,1527.7 2189.1,1542.2 2176.7,1550.3 C2137.7,1575.5 2077.9,1590.1 2001.9,1592.9 C1959.7,1594.5 1951.4,1593.3 1903.7,1577.9 C1871.1,1567.4 1861.9,1565 1838.9,1560.5 C1823.7,1557.5 1323,1486.9 1321.9,1487.6 C1321.7,1487.7 1321,1505.7 1320.2,1527.6 L1318.9,1567.5 L1326.8,1752 L1334.7,1936.5 L1342.7,2013 C1347.1,2055.1 1351.6,2095.1 1352.7,2102 C1355.7,2121 1358.8,2151.4 1358.9,2162 C1358.9,2170.2 1358.5,2172.9 1355.9,2180.3 C1349.8,2198.1 1336.3,2217.2 1313.2,2240.9 C1277.1,2277.8 1230.1,2312 1186.5,2333 C1155,2348.1 1134.1,2352.6 1113.7,2348.5 L1113.7,2348.5 Z" id="Shape" sketch:type="MSShapeGroup"></path>
            <path d="M1829.1,2236.7 L1817,2235.5 L1806.2,2222.5 C1800.2,2215.4 1794.7,2208.8 1794,2207.9 C1792.8,2206.4 1793.7,2203.9 1802,2187.4 C1807.2,2177 1815.6,2162.2 1820.6,2154.5 C1831.5,2137.8 1838.4,2124.5 1839.7,2117.1 C1841.1,2109.5 1840.9,2090.9 1839.3,2081.9 C1836.7,2067.4 1830.6,2056.6 1808.5,2027.3 C1757.8,1960.1 1610.3,1789.2 1542.5,1719.2 C1519.6,1695.6 1515.7,1690 1515.7,1680.9 C1515.7,1669.7 1529.2,1663 1547.5,1665.2 C1589,1670.1 1677.5,1719.4 1814.7,1813.8 C1836.8,1829.1 2010.1,1951 2030.7,1965.9 C2043.1,1974.8 2055.9,1987.4 2060.5,1995.2 C2068.2,2008.1 2071.1,2022.4 2070.5,2042.9 C2070.1,2053.7 2069.5,2057.9 2067.7,2063.4 C2060.7,2084 2039.3,2109.2 1991.2,2153.5 C1951.7,2189.9 1936.4,2202.7 1917.7,2215.2 C1888.2,2234.8 1865.7,2240.2 1829.1,2236.7 L1829.1,2236.7 Z" id="Shape" sketch:type="MSShapeGroup"></path>
            <path d="M439.4,2007.9 C433.9,2002.6 432.8,1998.3 434.6,1989.6 C437.8,1974.4 450.5,1956 482.1,1921.1 C537.3,1860.2 568.6,1824.1 595.2,1791 C641.8,1732.8 671.4,1688.3 692.8,1644 C713.6,1601 719.4,1591.2 731,1579.3 C747.4,1562.4 764.3,1555.7 791.2,1555.7 C817.3,1555.7 837.3,1562.6 853.2,1577.2 C874.4,1596.6 884.7,1625.5 884.7,1665.7 C884.7,1689.2 881.5,1704.6 872.1,1726.6 C852.3,1773.1 807.5,1823.2 752.2,1860.6 C733.1,1873.6 561.2,1975.8 550.7,1980.5 C514.3,1996.7 471.3,2010.4 452.6,2011.7 L444,2012.3 L439.4,2007.9 L439.4,2007.9 Z" id="Shape" sketch:type="MSShapeGroup"></path>
        </g>
    </g>
</svg>