<?xml version="1.0" encoding="UTF-8" standalone="no"?>
<svg width="1373px" height="2277px" viewBox="0 0 1373 2277" version="1.1" xmlns="http://www.w3.org/2000/svg" xmlns:xlink="http://www.w3.org/1999/xlink" xmlns:sketch="http://www.bohemiancoding.com/sketch/ns">
    <!-- Generator: Sketch 3.0.4 (8054) - http://www.bohemiancoding.com/sketch -->
    <title>Slice 2</title>
    <desc>Created with Sketch.</desc>
    <defs></defs>
    <g id="Page-1" stroke="none" stroke-width="1" fill="none" fill-rule="evenodd" sketch:type="MSPage">
        <g id="Group" sketch:type="MSLayerGroup" transform="translate(686.900000, 1138.500000) scale(1, -1) translate(-686.900000, -1138.500000) translate(0.900000, 0.500000)" fill="#000000">
            <path d="M784.9,2274.5 C772.4,2271.9 738.6,2260.3 684.5,2240.2 C634.9,2221.7 623.8,2218 597.1,2211.6 C491.6,2186 316.7,2161.5 239.1,2161.5 C215.4,2161.5 191,2164.8 169.5,2171 C159.4,2174 154.9,2176.1 129.6,2190 C98.2,2207.1 80,2214.3 61.7,2216.5 C36.7,2219.7 16.9,2212.9 6.5,2197.8 C-5.6,2180.2 -0.5,2164.4 29.1,2127 C46.7,2104.8 56.5,2088.7 64.5,2068.8 C75.7,2040.9 81.4,2011 82.6,1973.2 C82.9,1963.8 84.3,1868 85.7,1760.5 C88.1,1577.6 88.2,1557.1 87.2,1442.5 C86.6,1375.1 84.2,1218.3 82,1094 C78.3,880.3 77.8,860 72.5,721 C69.3,633.1 66.4,569.2 65.6,562 C64.8,555.4 59.4,490.6 53.6,418 C47.9,345.4 42.9,284 42.6,281.5 C41.8,275.9 38.7,263.5 30.6,233.5 C22.6,204 21.7,199.2 22.4,190.2 C24,170.8 40.5,123.1 58.6,86 C80.4,41.2 102.8,13.4 125.7,2.8 C130.9,0.4 132.8,9.09494702e-13 141.6,9.09494702e-13 C151.1,9.09494702e-13 151.9,0.2 158.3,3.5 C172.1,10.6 183.6,21.2 221.4,61.5 C276.3,120 282.8,126.4 319.6,158 C354.1,187.7 369,201 376.5,209 C378.7,211.4 418.4,248.6 464.6,291.6 C510.8,334.7 552.4,374 557.1,378.9 C592.9,417 627.1,471.1 627.1,489.6 C627.1,506.7 610.7,516.2 593.3,509.2 C586.2,506.3 570.4,496.8 554.6,486 C531,469.8 468.5,431.9 416.6,402.3 C382.8,383 207.5,290.7 206.6,291.7 C206.4,291.9 205.6,294.7 204.7,298 C200.3,314.2 200.2,308.1 210.4,686.3 C215.6,881.7 220.1,1041.9 220.4,1042.2 C221.1,1042.8 252.1,1026.9 264.4,1019.6 C285.1,1007.3 304.8,989.7 331.7,959.5 C338.3,952.1 381.8,901.2 428.2,846.5 C497.6,764.8 529.3,726.3 605.6,631.5 C679.3,539.9 719.5,491.1 800.1,395.5 C855.9,329.2 906.8,269.7 913.1,263.1 C951,224.1 987.3,206.4 1042.1,200.4 C1063.1,198.1 1101,199 1215.1,204.3 C1309.7,208.8 1327.4,209.8 1345,212.2 L1365.3,214.9 L1368.4,219.4 L1371.5,223.9 L1357.3,237.6 C1337.9,256.5 1330.3,262.1 1299.9,280.4 C1219.5,328.7 1205.3,338.1 1103.4,409.7 C1045.6,450.3 1005,479.6 991.6,490.3 C973.6,504.7 949.5,527 823.1,646.7 C694.2,768.7 665.7,796.2 597.4,864.6 L519.2,943 L638.7,1002 L758.3,1061 L890.4,1136.4 C987.5,1191.7 1027.8,1214.2 1042.2,1221 C1063.9,1231.2 1076.1,1238.8 1084.5,1247.4 C1092,1255.1 1093.7,1257.3 1097.3,1265.1 C1103.5,1278.3 1102.2,1290.4 1092.7,1310 C1081.2,1333.5 1060.9,1359.8 1032.2,1388.6 C994.7,1426.1 962.7,1447.7 939,1451.4 C922.6,1454 901.4,1443.7 898.1,1431.5 C897.2,1428.2 897,1420.3 897.5,1401.2 C898.2,1376.7 898.1,1375.1 896.2,1369.2 C886.8,1340.9 845,1295.5 766.6,1228 C714.8,1183.5 542.4,1041.1 529.1,1031.9 C515.4,1022.4 468.8,997 466.7,997.8 C465.9,998.1 420.9,1029.4 366.6,1067.4 C312.3,1105.4 263.1,1139.2 257.3,1142.5 C251.4,1145.8 241.8,1150.4 235.9,1152.7 L225.3,1156.8 L224.4,1168.4 C224,1174.8 223.6,1196.4 223.6,1216.5 C223.6,1256.6 224.3,1264 228.9,1268.1 C235.3,1274.1 270.9,1283.4 335.6,1296 C351.6,1299.2 411,1311.4 467.6,1323.1 C580.3,1346.6 570.8,1345 651.1,1353 L698.6,1357.8 L716.8,1345.3 C751.5,1321.4 757.9,1318.6 776.7,1318.5 C791.1,1318.5 798.5,1320.4 807.7,1326.3 C840,1347.4 860.3,1406.4 880.5,1537.5 C888.9,1592.3 898.5,1665.9 925.1,1878.5 C933.3,1944.8 940.6,2001.5 941.2,2004.5 C941.8,2007.5 945.8,2024.9 950.1,2043 C969.6,2124.9 971.1,2135 965.7,2152 C957.9,2176.5 933.8,2202.5 895.2,2228 C868.1,2245.8 831,2264.7 807.1,2272.8 C796.2,2276.4 794.5,2276.6 784.9,2274.5 L784.9,2274.5 Z M755.4,2104.7 C767.2,2098.9 770.1,2092.7 770.1,2073.6 C770.2,2051.2 768.1,1961.7 767,1938.2 C765.3,1900.7 762.5,1888.4 754.4,1883.1 C752.3,1881.7 746.8,1879.5 742.1,1878.2 C731.5,1875.1 677.4,1863.5 575.6,1842.5 C532.7,1833.7 461.6,1819 417.6,1809.9 C373.6,1800.8 316.5,1788.8 290.6,1783.3 C264.8,1777.8 242.6,1773 241.5,1772.8 C238.7,1772.2 238.8,1771.8 236,1802.8 L233.7,1827.7 L235.9,1910.8 C237.2,1956.6 238.4,1999 238.7,2005 L239.3,2016 L260.5,2020.2 C272.1,2022.5 309.5,2030.2 343.6,2037.4 C429.3,2055.3 445.8,2058.5 595.1,2085 C719.2,2107.1 727.2,2108.4 737.6,2108.2 C747.9,2108 749.1,2107.8 755.4,2104.7 L755.4,2104.7 Z M749.1,1738.8 C749,1706.1 744.6,1658.4 733.5,1570.5 C726,1511 724.5,1504.6 716.5,1496.8 C711.7,1492.1 708.9,1491.3 690.1,1489.5 C666,1487.2 406.9,1441.3 376.6,1434 C359.3,1429.8 312.3,1419.8 269.1,1411 C233.9,1403.9 233.5,1403.9 230.7,1409.3 C227.8,1415 227.1,1425.1 227.1,1464.5 C227.1,1503.2 229.7,1623.8 230.7,1632.3 C231.5,1638.5 235.9,1643 244.1,1645.9 C247.7,1647.2 310.5,1662.1 383.6,1679 L516.6,1709.8 L630.6,1729.6 C693.3,1740.4 745.6,1749.4 746.9,1749.4 C749,1749.5 749.1,1749.3 749.1,1738.8 L749.1,1738.8 Z" id="Shape" sketch:type="MSShapeGroup"></path>
        </g>
    </g>
</svg>