<?xml version="1.0" encoding="UTF-8" standalone="no"?>
<svg width="1241px" height="2349px" viewBox="0 0 1241 2349" version="1.1" xmlns="http://www.w3.org/2000/svg" xmlns:xlink="http://www.w3.org/1999/xlink" xmlns:sketch="http://www.bohemiancoding.com/sketch/ns">
    <!-- Generator: Sketch 3.0.4 (8054) - http://www.bohemiancoding.com/sketch -->
    <title>Slice 2</title>
    <desc>Created with Sketch.</desc>
    <defs></defs>
    <g id="Page-1" stroke="none" stroke-width="1" fill="none" fill-rule="evenodd" sketch:type="MSPage">
        <g id="Group" sketch:type="MSLayerGroup" transform="translate(620.200000, 1174.200000) scale(1, -1) translate(-620.200000, -1174.200000) translate(0.200000, 0.200000)" fill="#000000">
            <path d="M487.8,2343 C484.3,2334.9 484,2327.6 487.1,2320.9 C502.4,2287.5 592,2192 675.3,2120.3 C763.6,2044.3 831.2,2005.4 869.2,2008.7 C900.5,2011.4 920.6,2026.2 926.4,2050.9 C928.4,2059.3 927.8,2084.3 925.3,2096.9 C920.2,2123.2 906,2150.1 882.4,2178.3 C860,2205.3 846.4,2214.8 808.5,2230.6 C787.1,2239.5 774.5,2244.2 625.8,2298.6 C552.9,2325.2 492.6,2347.3 491.7,2347.7 C490.5,2348.1 489.5,2347 487.8,2343 L487.8,2343 Z" id="Shape" sketch:type="MSShapeGroup"></path>
            <path d="M967.3,1870.7 C952.5,1866.9 944.9,1863.8 908.3,1846.5 C855.5,1821.5 843.3,1816.2 832.8,1813.6 C817.6,1809.9 724.5,1788.8 685.3,1780.2 C524.5,1745 429.5,1730.2 364.5,1730.2 C325.6,1730.2 267.8,1736.8 245.9,1743.7 C239.1,1745.9 236.8,1747.3 229.1,1753.8 C224.3,1758 217.9,1763.1 214.9,1765.1 C209.5,1768.7 209.4,1768.7 198.9,1768.7 C189.7,1768.7 187.7,1768.4 183.3,1766.3 C169.1,1759.3 162.8,1746.3 162.8,1724.1 C162.8,1702.5 167.5,1685.5 177.1,1672 C181.6,1665.7 185.1,1662.6 203.3,1648.9 C243.8,1618.4 284.7,1592.7 310.1,1581.7 C327.7,1574.1 335.6,1572.2 349.7,1572.2 C370.7,1572.2 384.3,1575.4 497.3,1606.7 C529.8,1615.7 596.1,1634.1 644.8,1647.6 C693.5,1661.1 748.2,1676.4 766.3,1681.6 C817.6,1696.4 870.2,1710.1 871.3,1709 C871.6,1708.8 838.6,1662.5 798.2,1606.1 L724.6,1503.7 L643.3,1404.9 L561.9,1306.1 L456.2,1192.4 C381.5,1112.1 323.8,1051.3 259.9,985.4 L169.3,892 L86.6,818.6 C41.1,778.2 3.6,744.7 3.2,744.1 C2.6,743 -0.4,722.1 0.1,721.6 C0.2,721.5 5,720.8 10.6,720.2 C26.9,718.3 37.3,719.2 50.3,723.6 C62,727.6 92.7,742.1 104.4,749.3 C108.3,751.7 150.8,778.3 198.9,808.4 L286.3,863.1 L392.3,945.2 C490.7,1021.4 499.3,1028.2 511.7,1041 C519.1,1048.5 527.8,1057.8 531,1061.5 C534.3,1065.3 541.3,1071.8 546.6,1075.9 C551.9,1080.1 561.4,1087.7 567.5,1092.9 C578,1101.7 579,1102.3 582,1101.7 C595.5,1098.7 604,1089.3 608.7,1072.2 C614,1052.8 614.9,1035.4 616.9,912.7 C619.5,748 613.6,359.5 607.3,280 C600.4,193 599.6,179.6 600.1,154.2 C600.6,128.8 602.2,115.4 606.7,98.1 C619.6,49.4 648.1,15.8 688.3,2.1 C693.8,0.2 697.2,-0.3 704.3,-0.2 C725.7,0.1 742.1,11.5 752.8,33.5 C763.3,55.2 767.6,78.6 769.9,126.7 C771.4,157.6 771,185 763.8,588.7 L760,802.7 L764,938.7 C766.2,1013.5 768.1,1074.8 768.3,1075 C769.1,1075.9 792.6,1064.5 807,1056.3 C864.9,1023.3 917.2,976.6 958.9,920.7 C980.2,892.1 992.1,871.8 1016,823.1 C1025.6,803.6 1036.3,782.8 1039.7,776.7 C1061.4,739 1079.4,724.8 1108.8,722.3 C1127.5,720.8 1142.8,723.5 1157.3,731 C1165.7,735.4 1179.6,748.8 1184.7,757.4 C1195.6,776.1 1200.7,802.5 1199.5,833.7 C1197.1,892.1 1179.7,934.3 1143.2,970.4 C1124.8,988.6 1105.6,1002.7 1061.3,1030.4 C995.1,1071.8 975.3,1082.5 926.3,1103.1 C913.1,1108.7 900.6,1114 898.4,1115 L894.6,1116.8 L900.9,1120.2 C932.3,1136.7 998.2,1179.8 1071.8,1232.1 C1144.8,1283.8 1196.5,1322 1210.7,1334.4 C1237.9,1358.2 1245.9,1382.6 1234.6,1406.4 C1231.3,1413.4 1222.2,1425.7 1216.1,1431.4 C1212.7,1434.7 1155.4,1465.9 1121.3,1483.2 C1107.6,1490.1 1091.8,1497.4 1086.3,1499.2 C1076.5,1502.6 1075.9,1502.7 1060.3,1502.7 C1046.3,1502.7 1043.4,1502.4 1037.3,1500.4 C1028.4,1497.5 1021.7,1492.6 1018.1,1486.5 C1014,1479.4 1014.3,1470.5 1019.6,1449.7 C1026,1424.4 1026.2,1422.9 1023.8,1413.6 C1016.1,1383.1 973.3,1323.2 909.8,1254.2 C890.9,1233.6 843.1,1185.4 818.6,1162.2 L798.9,1143.5 L788.6,1142.9 C777.4,1142.2 772.2,1142.9 766.8,1145.7 C764.9,1146.7 757.2,1153.7 749.8,1161.2 C731.3,1180 717.7,1189.9 691.6,1203.2 C684.6,1206.8 678.8,1209.9 678.8,1210.2 C678.8,1210.8 1013.1,1594.8 1033.6,1617.7 C1051,1637.2 1080.9,1666.6 1093.3,1676.5 C1099.4,1681.4 1111.9,1689.9 1121.1,1695.5 C1155.5,1716.3 1165.7,1728 1167.5,1748.7 C1168.7,1763.5 1164.7,1774.3 1154.3,1784 C1148.4,1789.6 1122.8,1807.9 1095.8,1825.9 C1057.3,1851.6 1026.3,1866.9 1003.4,1871.6 C992.3,1873.9 978.2,1873.6 967.3,1870.7 L967.3,1870.7 Z" id="Shape" sketch:type="MSShapeGroup"></path>
        </g>
    </g>
</svg>