<?xml version="1.0" encoding="UTF-8" standalone="no"?>
<svg width="2516px" height="2402px" viewBox="0 0 2516 2402" version="1.1" xmlns="http://www.w3.org/2000/svg" xmlns:xlink="http://www.w3.org/1999/xlink" xmlns:sketch="http://www.bohemiancoding.com/sketch/ns">
    <!-- Generator: Sketch 3.0.4 (8054) - http://www.bohemiancoding.com/sketch -->
    <title>Slice 2</title>
    <desc>Created with Sketch.</desc>
    <defs></defs>
    <g id="Page-1" stroke="none" stroke-width="1" fill="none" fill-rule="evenodd" sketch:type="MSPage">
        <g id="Group" sketch:type="MSLayerGroup" transform="translate(1258.300000, 1201.100000) scale(1, -1) translate(-1258.300000, -1201.100000) translate(0.900000, 0.300000)" fill="#000000">
            <path d="M1088.6,2401.2 C1064.9,2397.5 1042.8,2382 1033.2,2362.4 C1028.8,2353.3 1027.8,2348.2 1028.3,2337.2 C1028.8,2326.2 1029.6,2324 1036.2,2316.6 C1041,2311.1 1064.5,2290.6 1073.5,2283.9 C1099.8,2264.6 1122.1,2225.8 1130.6,2184.7 C1134.6,2165.3 1135.3,2146.6 1134.1,2084.4 C1132.2,1980.1 1131.1,1941.5 1129.9,1937 C1128.3,1930.8 1121.1,1923.5 1115.2,1921.9 C1112.7,1921.3 1108.8,1921 1106.5,1921.4 C1103.6,1921.8 1081,1919 1034.4,1912.5 C712.3,1867.3 524.3,1844.8 391.6,1835.4 C339.5,1831.8 290.5,1830.8 270.3,1833 C238.3,1836.4 204.8,1847.4 177.9,1863.2 C155.1,1876.6 141.5,1881.9 130.2,1881.9 C110.3,1881.9 97.5,1871.1 91,1848.7 C88,1838.3 87.2,1812.2 89.5,1798.9 C97.1,1755.1 121.5,1729 182.6,1698.9 C256,1662.9 325.6,1637.1 363.7,1631.9 C376.6,1630.1 398.5,1631.1 408.2,1633.7 C418.7,1636.6 436.7,1643.5 463.1,1654.7 C500.7,1670.6 503.5,1671.6 518.3,1675.9 C566.5,1689.7 676.8,1713.2 798.1,1735.4 C841.6,1743.4 896.2,1752.5 912.8,1754.5 C925.9,1756.1 927.4,1756.1 933.4,1754.6 C945.2,1751.7 951.7,1745.5 954.6,1734.2 C956.5,1727 956.5,1723.8 954.6,1716.4 C947,1687.4 892.5,1607.2 808.4,1501.6 C734.1,1408.2 621,1296.8 411.1,1110.3 C341.6,1048.5 335.2,1043 319.7,1030.6 C300.1,1014.9 225.1,958.8 155.6,907.9 C85,856.1 21.1,808.4 9.4,798.6 C-1.6,789.4 -2.2,787.5 3.8,780.8 C11.2,772.7 23.2,767.7 35.6,767.7 C72.1,767.7 187.4,821.7 313.6,898 C403.4,952.1 488.1,1010.1 606.2,1098.1 C631.1,1116.6 638.2,1121.4 639.5,1120.7 C646,1117 653.6,1086.7 654.7,1059.9 C655.1,1052.5 654.1,997.1 652.7,936.9 C649.1,788.2 642.8,662.5 631.1,507.9 L623.2,402.4 L611.7,356.9 C599,307 592.2,277.9 585.8,247.4 L581.6,227.4 L581.7,205.4 C581.7,185.5 582,182.2 584.4,170.8 C587.9,154.2 591.7,143.4 600.1,126.4 C608.3,109.8 615.7,97.8 633.4,72.9 C668.9,22.7 680.5,8.3 688.9,4 C694.7,1.1 705.2,-0.5 715,0.2 C729.4,1.3 741.2,6.1 753.8,16.1 C761.2,22 765.3,26.7 777.1,43.3 C804.8,82.4 835.6,115.2 897.2,171.4 C906.8,180.2 993.4,256.9 1089.7,341.8 C1248.5,482.1 1267.3,499 1294.1,525.8 C1349.9,581.7 1388.2,624.7 1405.2,650.8 C1415.9,667.1 1417.1,672.9 1411.3,681.7 C1408,686.9 1400.6,690.9 1394.6,690.9 C1385.6,690.9 1358.9,671.6 1271.5,601.8 L1235.5,573 L1142.5,512.4 L1049.6,451.7 L954.1,397.6 C901.6,367.9 850.8,339.1 841.2,333.7 C820.5,321.8 803.7,313.4 796.2,311.2 L790.7,309.6 L788.5,312.2 C787.3,313.7 785.7,317.4 785.1,320.6 C783.7,327.1 783.7,326 788.1,456.9 C791.9,569.6 792,573.8 793.1,663.6 L794.1,740.8 L799.6,814.1 C805.4,892.1 820.1,1046.2 822.7,1056.3 C823.5,1059.7 826.6,1070.7 829.6,1080.9 C839,1113.3 839.4,1115.2 838.7,1125.9 C837.6,1143.4 830.9,1167.3 822.1,1185.4 C816.8,1196.3 812.4,1202 788.7,1229.6 C780.1,1239.6 773.1,1248.4 773.1,1249.1 C773.1,1252 779.7,1258 794.2,1268.4 C821.6,1288 831.2,1296.3 877.5,1340.8 C895,1357.6 914.5,1376.3 920.8,1382.3 L932.2,1393.2 L938.9,1388.6 C942.6,1386.1 950.2,1380.2 955.8,1375.6 C973,1361.4 1121,1219.9 1272.6,1072.6 C1385.8,962.6 1437.2,911.8 1513,835.1 C1621,725.5 1646.2,699.3 1658.1,683.9 C1664.5,675.7 1709,623.2 1722.4,608.2 C1738.2,590.5 1756.3,571 1777.8,548.7 C2033.2,283.3 2020.5,296 2035.6,289.3 C2055.9,280.3 2093.4,276.5 2137.1,278.8 C2157.8,279.9 2382.4,300 2412.1,303.4 C2429.9,305.5 2458.2,309.9 2475.6,313.4 C2492.3,316.7 2513.3,321.9 2514.5,323 C2515.8,324.2 2512.3,341.8 2509.6,347.7 C2508.3,350.4 2505.5,354.5 2503.4,356.6 C2494.1,365.7 2429.3,398.7 2299,460.9 C2257,480.9 2240.3,489.7 2154.1,536.9 L2056.8,590.2 L1959.7,662.1 L1862.6,733.9 L1768.6,811.8 C1693.3,874.2 1642.8,917.3 1514.5,1028.6 L1354.4,1167.6 L1372,1173.8 C1382.2,1177.5 1451.3,1206.9 1535.6,1243.6 L1681.6,1307.1 L1789.1,1361 C1848.2,1390.6 1905.2,1419.7 1915.7,1425.7 C1958.3,1450 1979.6,1467.2 1988.3,1484.2 C1993.2,1493.8 1994.4,1511.4 1991.1,1524.2 C1985.3,1547 1954.5,1592 1900.2,1656.9 C1865.2,1698.6 1843.7,1716.1 1819.3,1722.4 C1797.6,1727.9 1762.5,1725.4 1744.6,1717 C1733.7,1711.9 1728.3,1705.6 1726.1,1695.2 C1725.2,1690.9 1725.4,1689.5 1728,1682.3 C1732.5,1670 1743.7,1633.4 1745.6,1624.7 C1747,1618.2 1747.1,1615.6 1746.2,1607.7 C1742.3,1574.9 1726.3,1539.5 1702.7,1511.1 C1686.4,1491.5 1672,1479.1 1623.1,1442.7 C1532.5,1375.2 1432.7,1308 1367.4,1270.5 C1331.6,1250 1293.6,1232.1 1288.6,1233.3 C1279.9,1235.5 1228.5,1276.7 1092.4,1390.7 L1002.2,1466.3 L1011.4,1476.3 C1057.6,1526.8 1082.8,1552.7 1123.1,1591.2 C1163.2,1629.4 1162.3,1628.5 1169.7,1639.7 C1181.3,1657.1 1185.4,1669.4 1185.3,1686.4 C1185.2,1710.3 1178.7,1726.3 1162.6,1742.4 C1154,1751.1 1143.8,1758.9 1121.2,1774.1 L1103.9,1785.8 L1109.2,1787.3 C1177.8,1807 1416.5,1824.4 1734.1,1832.9 C1833.2,1835.6 1971.6,1835.8 2022.6,1833.4 C2090.9,1830.2 2137.4,1826.6 2165.6,1822.3 C2199.9,1817.2 2246.5,1811.9 2258.2,1811.9 C2280.5,1811.9 2301.2,1823.2 2312,1841.2 C2316.1,1848.1 2320.6,1861.1 2322,1869.9 C2323.5,1879.2 2323.3,1900.2 2321.6,1908.2 C2317.7,1926.7 2302.5,1943.6 2275,1960 C2263.6,1966.8 2212.3,1992.3 2191.6,2001.4 C2144.3,2022.3 2111.2,2031 2090.6,2027.9 C2079.9,2026.4 2049.1,2019.4 2015.3,2011 C1929.1,1989.4 1904.6,1986 1780.6,1978.4 C1749.3,1976.5 1721.4,1974.7 1718.6,1974.4 C1715.9,1974.1 1624.7,1967.8 1516.1,1960.4 C1407.5,1953 1316.2,1946.7 1313.4,1946.4 L1308.1,1945.9 L1308.1,1970.1 C1308.1,2003.2 1310.4,2027.2 1317.7,2070.8 C1321.7,2095.2 1324.5,2108.1 1336.1,2156.4 C1356.6,2241.7 1357.4,2253.2 1345.1,2277.7 C1339.5,2288.8 1330.3,2300.7 1319.9,2310.4 C1284.3,2343.3 1220.7,2373.6 1147.6,2392.4 C1119.4,2399.7 1098.4,2402.8 1088.6,2401.2 L1088.6,2401.2 Z" id="Shape" sketch:type="MSShapeGroup"></path>
        </g>
    </g>
</svg>