<?xml version="1.0" encoding="UTF-8" standalone="no"?>
<svg width="757px" height="2153px" viewBox="0 0 757 2153" version="1.1" xmlns="http://www.w3.org/2000/svg" xmlns:xlink="http://www.w3.org/1999/xlink" xmlns:sketch="http://www.bohemiancoding.com/sketch/ns">
    <!-- Generator: Sketch 3.0.4 (8054) - http://www.bohemiancoding.com/sketch -->
    <title>Slice 2</title>
    <desc>Created with Sketch.</desc>
    <defs></defs>
    <g id="Page-1" stroke="none" stroke-width="1" fill="none" fill-rule="evenodd" sketch:type="MSPage">
        <g id="Slice-2" sketch:type="MSLayerGroup"></g>
        <g id="Group" sketch:type="MSLayerGroup" transform="translate(378.100000, 1076.500000) scale(1, -1) translate(-378.100000, -1076.500000) translate(0.100000, 0.000000)" fill="#000000">
            <path d="M558.5,2153 C544.8,2150.8 539.5,2148.8 494.4,2129.2 C464.6,2116.3 449.6,2111.4 412,2102.5 C399.6,2099.6 381.5,2094.6 371.9,2091.5 C321.2,2075.2 284.9,2065.2 260.4,2060.9 C249.8,2059 243.7,2058.6 226.9,2058.5 C208.5,2058.5 205.5,2058.7 197.5,2060.9 C180.8,2065.3 167.1,2072 151,2083.7 C130.8,2098.4 96.2,2120.6 79.9,2129.3 C54.2,2142.9 39.8,2143.5 14.5,2131.6 L5.2,2127.3 L3.6,2121.4 C-1.1,2104.2 -1.2,2094.2 3.2,2084.6 C4.7,2081.3 13.5,2067.1 22.8,2053.1 C42.6,2023.1 47.9,2013.4 54.8,1994.9 C66.4,1963.5 70.4,1937.4 75.1,1865 C75.9,1852.6 76.3,1713.8 76.6,1390 C77,934 77,931.9 74.4,752.5 L71.8,572.5 L64.8,434 L57.9,295.5 L52.9,265 C45.2,217.4 42.9,198.6 42.9,183.7 C42.9,151.8 51.9,109 65.7,74.8 C82.1,34.1 104.1,8.7 129.3,1.5 C133.6,0.2 137.9,-0.1 145.8,0.2 C155.5,0.5 157.1,0.8 163.2,3.8 C189.9,17 206.3,56.7 213.4,125.5 C215.7,147.9 216.6,191 222,537.5 L226.9,854.5 L226.9,1264 L226.9,1673.5 L231.5,1797.5 C233.9,1865.7 236.5,1925.6 237.2,1930.7 C238.3,1938.5 238.9,1940.4 241.3,1942.9 C244.1,1945.8 250.7,1948.1 259.9,1949.5 C263.6,1950.1 501.6,2000.9 508.6,2002.7 L510.9,2003.2 L508.3,1997.4 C480.3,1933.7 381.9,1767.6 337.8,1709.4 C319.2,1685 310.7,1671 307.4,1659.5 C304.1,1648.2 307.5,1632.3 315.8,1619.8 C319.5,1614.3 327.7,1606 348.7,1586.3 C390,1547.6 426.4,1512.9 434.6,1504.5 C443.6,1495.1 471.7,1461.5 488.1,1440.5 C554,1356 586,1293.1 596.6,1227.8 C599.1,1212.6 599.1,1172.8 596.6,1160.5 C589.2,1123.6 572.8,1099.6 545.3,1085.3 C519.1,1071.6 490,1068.8 450.4,1075.9 C423.4,1080.7 402,1085.2 345.6,1097.7 L292.9,1109.4 L288.9,1105.5 C286.7,1103.3 284.9,1101.1 284.9,1100.5 C284.9,1098.3 307.1,1070 313.1,1064.6 C316.5,1061.5 324.7,1055 331.3,1050.2 C369.6,1022.1 388.1,1004.6 402.1,983.1 C408.7,973 411.3,967.2 421.2,941 C438.1,896.2 443.7,883.8 450.4,876.2 C455.8,870 458.8,869 471.6,869 C497.8,869 544.4,879.4 583.9,894.1 C621.6,908 656,930.1 685.5,959.5 C725.8,999.5 747,1046.1 755.1,1112.5 C757.1,1129.5 756.8,1183.7 754.6,1201.5 C748.9,1246.4 736.6,1286.6 716.3,1327.2 C690.4,1378.9 641.9,1445.2 605.9,1477.9 C600.7,1482.6 566,1512.3 528.9,1543.9 C459.8,1602.8 446.8,1614.6 441.2,1624.1 C437.3,1630.6 434.4,1641.5 435.3,1646.2 C437.5,1658.3 455,1683.8 483.1,1716.1 C487.6,1721.4 519.8,1758.7 554.5,1799.1 C628.6,1885.4 635.1,1892 674.9,1923 C712.4,1952.3 726.1,1967.2 733.6,1987 C741.3,2007.5 740,2032.6 730.5,2046.6 C720.7,2061.1 695.4,2082.8 648.4,2117.1 C614.6,2141.7 602.4,2149 590.8,2151.8 C584.3,2153.4 565.5,2154.1 558.5,2153 L558.5,2153 Z" id="Shape" sketch:type="MSShapeGroup"></path>
        </g>
    </g>
</svg>