<?xml version="1.0" encoding="UTF-8" standalone="no"?>
<svg width="2407px" height="2396px" viewBox="0 0 2407 2396" version="1.1" xmlns="http://www.w3.org/2000/svg" xmlns:xlink="http://www.w3.org/1999/xlink" xmlns:sketch="http://www.bohemiancoding.com/sketch/ns">
    <!-- Generator: Sketch 3.0.4 (8054) - http://www.bohemiancoding.com/sketch -->
    <title>Slice 2</title>
    <desc>Created with Sketch.</desc>
    <defs></defs>
    <g id="Page-1" stroke="none" stroke-width="1" fill="none" fill-rule="evenodd" sketch:type="MSPage">
        <g id="Group" sketch:type="MSLayerGroup" transform="translate(1203.650000, 1197.650000) scale(1, -1) translate(-1203.650000, -1197.650000) translate(0.300000, 0.100000)" fill="#000000">
            <path d="M1581.2,2393.7 C1564.3,2390.5 1554.8,2384.5 1546.5,2371.8 C1542.7,2365.9 1537.7,2352.3 1537.7,2347.8 C1537.7,2346.5 1541.1,2339.2 1545.3,2331.6 C1568.6,2289.2 1571.2,2280.5 1571.2,2246.7 C1571.2,2224.5 1570.6,2219.6 1565.1,2199.8 C1550.3,2146.8 1504.9,2072.7 1436.8,1990.7 C1410,1958.4 1373.9,1917.6 1353.7,1896.9 C1328.9,1871.3 1317,1867.7 1234.7,1861.2 C1202.9,1858.6 1186.5,1857.1 972.7,1836.2 C547,1794.6 404,1781.1 330.7,1775.6 C278,1771.7 236.2,1779.4 193.2,1801 C173.4,1810.9 143.2,1829.5 102.6,1856.7 C84.4,1868.9 65.8,1879 56.3,1881.7 C42.2,1885.8 30.2,1882 17.6,1869.2 C4.6,1856.1 -1,1841.1 0.1,1822.2 C2.3,1783.4 22.4,1749.7 69.1,1706.3 C144.9,1636 181.7,1608.2 212.9,1597.8 C223.5,1594.2 229,1594.4 257.7,1599.6 C271.2,1602 284.7,1604.3 287.7,1604.7 C290.7,1605.1 366.3,1617.9 455.6,1633.3 L617.9,1661.3 L811.8,1688.2 C938.6,1705.9 1008.5,1715.2 1013.9,1715.2 C1025,1715.2 1029,1713.9 1034.2,1708.7 C1040.2,1702.7 1042.7,1694.6 1043.4,1678.7 C1044,1665 1043,1659.2 1037.1,1643.4 C1032.3,1630.6 959.9,1476.3 944.3,1445.7 C919.5,1397.2 901.6,1367.7 892.5,1360.9 C885.9,1355.9 869.1,1351.6 840.6,1347.8 C819,1344.9 791.6,1342.4 770.9,1341.6 C749,1340.6 741.3,1342.5 670.7,1366.3 C600.1,1390.1 582.4,1394.9 568.8,1393.9 C545.6,1392.3 527.7,1376.3 527.7,1357.2 C527.7,1352.3 528.5,1349.9 533.1,1340.6 C536,1334.5 544.4,1319.7 551.7,1307.7 C567.7,1281.1 571.5,1273.6 575.6,1260.9 C584.4,1233.3 592.1,1176.7 595.6,1112.2 C596.2,1102.6 597.2,1041.6 597.9,976.7 L599.1,858.7 L593.8,658.7 C589.8,505 587.3,428 583.1,326.2 C577,180.8 576.8,164.1 580.7,138.7 C592.4,61.8 621.6,11.8 660.6,1.7 C669.9,-0.7 685.8,-0.5 693.1,2.1 C700.1,4.6 711.9,12.4 725.7,23.7 C745.3,39.8 759.2,50.9 763.7,53.9 C775.4,61.8 789.5,66.9 804.2,68.6 C807,69 923.1,78 1062.2,88.7 L1315.2,108.3 L1459.2,114.7 C1538.4,118.3 1607.7,121.2 1613.3,121.2 C1625.5,121.2 1631,119.5 1635.9,114.4 C1637.9,112.4 1644.1,102.8 1649.8,93.2 C1670.3,58.3 1682.4,40.7 1694.2,28.7 C1703.7,19.1 1711.4,13.8 1721.1,10.3 C1727.2,8.1 1729.8,7.7 1740.2,7.7 C1750.6,7.7 1753.2,8.1 1759.3,10.3 C1796.8,23.9 1824.3,79.9 1834.3,163.2 C1837.1,186 1836.6,208.9 1831.9,274.2 C1829.6,305.8 1827.3,339.7 1826.7,349.6 C1826.1,361 1825.7,460.8 1825.7,626.1 L1825.7,884.7 L1832.7,1002.2 C1839.6,1118.3 1841.1,1136 1847.2,1180.1 C1850.7,1205.2 1852.4,1212.9 1861.6,1245.5 C1875.5,1294.5 1877.7,1305.5 1875.7,1315.4 C1871.4,1337.4 1846.8,1368.6 1808.3,1400.6 C1765.4,1436.3 1715.9,1464.3 1689,1468 C1675.7,1469.8 1667.2,1467.8 1581.2,1442.4 C1566.4,1438 1549.3,1433.2 1543.2,1431.7 C1535.1,1429.8 1469.6,1421.4 1291.7,1399.8 C1159.4,1383.6 1051.1,1370.5 1051,1370.6 C1050.9,1370.7 1081.5,1412.4 1119,1463.3 C1190.4,1560.2 1194.9,1565.7 1230.8,1603.7 C1257.3,1631.6 1259.7,1636 1260.5,1657.3 C1261.3,1682.2 1256.7,1694.1 1234.5,1723.7 C1231.2,1728 1228.3,1732.1 1228.1,1732.7 C1227.8,1733.4 1238.4,1735.2 1258.9,1738 C1287.1,1741.9 1307.6,1743.6 1467.2,1755.2 L1644.2,1768.2 L1762.2,1770.8 C1877.5,1773.3 1882.9,1773.3 2002.2,1772.2 C2111.1,1771.2 2126,1770.9 2140.7,1769.1 C2161.5,1766.7 2228.8,1759.7 2246.7,1758.1 C2261.7,1756.8 2316.7,1757.4 2336.7,1759.2 C2367.2,1762 2384.2,1767.7 2394.7,1778.8 C2403,1787.6 2406.7,1798.4 2406.7,1814 C2406.7,1854.7 2365.1,1893.4 2288.7,1923.5 C2252.3,1937.8 2206.3,1950.5 2182.2,1952.7 C2171.3,1953.8 2157,1951.3 2092.7,1937.2 C2070.4,1932.3 2049.3,1927.8 2045.7,1927.2 C2039.6,1926.2 1942.2,1918.3 1639.2,1894.2 C1569.9,1888.7 1512.7,1884.3 1512,1884.4 C1510.9,1884.7 1545.3,1921.1 1670.1,2051.5 C1703.7,2086.6 1738.3,2122.8 1747.1,2132 C1782.3,2169.1 1803.9,2196.9 1810.7,2214.1 C1822.3,2243.7 1785.6,2288.9 1702.2,2347.7 C1694.5,2353.2 1684.2,2360.7 1679.2,2364.5 C1652.5,2385.1 1625.1,2395.4 1597.7,2395.1 C1592.5,2395.1 1585.1,2394.4 1581.2,2393.7 L1581.2,2393.7 Z M1619.5,1303.2 C1641.7,1300.4 1651.3,1291 1655.1,1268.2 C1660.6,1235.1 1661.1,1142.5 1656.1,1071.1 C1655.2,1058.3 1654.4,1047.6 1654.4,1047.6 C1653.9,1047.1 1629.4,1045 1604.2,1043.2 C1588.3,1042 1574.5,1040.9 1573.7,1040.7 C1572.9,1040.4 1415.6,1026.3 1224.2,1009.2 C1032.8,992.2 869.6,977.5 861.5,976.7 C830.6,973.6 797.5,971.1 779.1,970.5 L760,969.9 L759.3,975.3 C757.3,991.7 755.9,1036.6 753.7,1151.7 C753.1,1181.4 752.4,1207.1 752.1,1208.8 C751.4,1212.4 749.8,1211.5 768.2,1217.1 C777.5,1219.9 796.6,1222.1 1059.2,1250.7 C1331.2,1280.3 1344.3,1281.6 1467.2,1292.2 C1537.1,1298.2 1596,1303.3 1598.2,1303.5 C1606.4,1304.3 1611.5,1304.2 1619.5,1303.2 L1619.5,1303.2 Z M1660.4,901.5 C1665,899.4 1667,895.1 1667.5,886.2 C1668.2,873.3 1656,672.6 1654.5,671.7 C1654.3,671.6 1584,666.3 1498.2,659.8 C1313.5,645.9 1097.4,626.4 894.8,605.2 C826.3,598 768.7,592.1 766.8,592 C764.8,592 760.6,592.5 757.5,593.1 L751.7,594.3 L751.7,598.5 C751.7,600.8 751.2,609.2 750.5,617.2 C749.6,629 749.7,641.7 751.1,685.2 C753.5,759.6 754.5,784.7 755.8,806.6 L757,825.4 L761.6,828.8 C770.6,835.4 786.9,839.1 828.6,843.7 C841,845 972.9,856.5 1121.7,869.2 L1392.2,892.2 L1512.7,897.7 C1579,900.7 1634.8,903.4 1636.7,903.6 C1643.3,904.4 1656.9,903.2 1660.4,901.5 L1660.4,901.5 Z M1650.5,535.3 C1655,534.8 1659,534.2 1659.4,533.9 C1659.7,533.5 1660.5,523.9 1661.2,512.5 C1662.3,494.6 1662.1,476.8 1660,383.7 C1658.1,297.8 1657.3,274.2 1656.1,268.6 L1654.6,261.4 L1648.8,259.3 C1630.2,252.5 1617.8,251.2 1572.8,251.2 C1533.3,251.2 1493.5,249.8 1470.2,247.7 C1461.4,246.9 1428.8,244.4 1397.7,242.2 C1366.6,240 1281.8,233.9 1209.2,228.6 C1136.6,223.4 1025,215.3 961.2,210.7 C897.4,206 826.3,200.9 803.2,199.2 C780.1,197.6 758.5,196 755.1,195.8 L749,195.3 L747.8,200.7 C746.8,205 746.8,228.3 747.7,308.4 C748.9,424.7 749.5,440.7 752.4,447.3 C756.3,455.8 762,459.2 776.4,461.2 C780.7,461.8 885.7,471.9 1009.7,483.7 C1173.5,499.3 1284.5,509.3 1415.2,520.1 C1514.2,528.4 1598.1,535.3 1601.7,535.5 C1614.7,536.2 1642.4,536.1 1650.5,535.3 L1650.5,535.3 Z" id="Shape" sketch:type="MSShapeGroup"></path>
            <path d="M530.6,2318.6 C526.7,2309.3 526.3,2310.1 539.9,2294.2 C546.7,2286.2 571.7,2256.7 595.3,2228.6 C728.4,2070.8 735.1,2061.6 773.8,1983.8 C781.5,1968.4 790.6,1951.1 793.9,1945.5 C807.8,1922.2 823.5,1905.3 838,1898.2 C849.6,1892.6 856,1891.1 872.7,1890.5 L887.2,1890 L896.2,1896.8 C919.4,1914.4 928.4,1928.3 933.3,1954.7 C936,1968.8 936,2017.4 933.4,2037.2 C922.5,2118.8 883.6,2164.7 765.7,2234.9 C726.8,2258.1 671.6,2287.8 646.6,2299.1 C610.5,2315.4 588.7,2320.5 545.5,2322.8 L532.7,2323.5 L530.6,2318.6 L530.6,2318.6 Z" id="Shape" sketch:type="MSShapeGroup"></path>
        </g>
    </g>
</svg>