<?xml version="1.0" encoding="UTF-8" standalone="no"?>
<svg width="883px" height="1005px" viewBox="0 0 883 1005" version="1.1" xmlns="http://www.w3.org/2000/svg" xmlns:xlink="http://www.w3.org/1999/xlink" xmlns:sketch="http://www.bohemiancoding.com/sketch/ns">
    <!-- Generator: Sketch 3.0.4 (8054) - http://www.bohemiancoding.com/sketch -->
    <title>Slice 2</title>
    <desc>Created with Sketch.</desc>
    <defs></defs>
    <g id="Page-1" stroke="none" stroke-width="1" fill="none" fill-rule="evenodd" sketch:type="MSPage">
        <g id="Group" sketch:type="MSLayerGroup" transform="translate(441.100000, 502.500000) scale(1, -1) translate(-441.100000, -502.500000) translate(0.100000, 0.000000)" fill="#000000">
            <path d="M676.8,1004.9 C667.7,1003.7 650.4,998.1 637.9,992.2 C573,961.7 426,915.9 303.9,888.1 C257.7,877.6 245.6,876.3 224.4,879.5 C205.1,882.4 201.1,884 153.5,908 C93.7,938 73,946.2 55.9,946.3 C34.9,946.4 14.5,934.1 5.7,915.9 C0.9,906.1 -0.4,899.3 0.1,887.9 C0.7,873 3.3,868.6 40.8,816.7 C53,799.8 64.6,783.3 66.5,780.2 C73.3,768.6 78.5,750.8 83.3,722.5 C86.5,703.6 87.3,697 101.9,575.5 L114,475.5 L125.9,317.5 C138.8,146.8 140.2,128.7 142.5,113.5 C153.7,37 179.1,0 220.5,0 C237.9,0 250.2,7 263,24.2 C277.7,44 291.1,83.4 295.9,121 C296.6,125.7 297.4,129.8 297.7,130.2 C298.1,130.6 310.6,134.1 325.4,137.9 C358.1,146.4 553.4,193.3 563.9,195.1 C573,196.8 603,196.8 617.8,195.1 C623.4,194.5 631.9,192.8 636.6,191.4 C644.1,189 646.1,188.8 655.3,189.2 C684.1,190.7 706.5,208 720,239.1 C728.3,258.2 734,282.8 756.9,396.5 C770.7,465 814.1,663.1 819.4,681.4 C824.9,700.6 829.7,713.5 836.5,727.6 C841.6,738.1 856.6,761.6 866.4,774.5 C877.8,789.4 882.4,805.6 881.7,828.5 C880.8,857.6 874.4,866.8 819.1,919.4 C773.3,962.7 747.3,982.8 719.4,996.1 C703.2,1003.8 690,1006.6 676.8,1004.9 L676.8,1004.9 Z M633.4,834.4 C640.1,832.6 645.2,828.2 648.6,821.2 L651.4,815.5 L651.3,790.5 C651.2,758.8 649.1,728.5 642.3,660 C639.8,634.2 633.3,586.5 618.8,485.1 C607.9,408.5 598.9,345.4 598.9,345 C598.9,344.6 596.3,343.9 593.2,343.6 C578.2,341.8 548.5,334.6 435.4,305.5 C289.9,268.1 289.6,268 289,268.5 C288.5,269 252,728.2 251.9,734.3 L251.9,738 L257.8,738 C264.6,738 276,740 285.1,742.8 C288.6,743.9 335.7,758.9 389.9,776 C444.1,793.2 493.6,808.8 499.9,810.7 C531.4,820 593.8,834 612,835.8 C621.5,836.7 626.3,836.4 633.4,834.4 L633.4,834.4 Z" id="Shape" sketch:type="MSShapeGroup"></path>
        </g>
    </g>
</svg>