<?xml version="1.0" encoding="UTF-8" standalone="no"?>
<svg width="2031px" height="1523px" viewBox="0 0 2031 1523" version="1.1" xmlns="http://www.w3.org/2000/svg" xmlns:xlink="http://www.w3.org/1999/xlink" xmlns:sketch="http://www.bohemiancoding.com/sketch/ns">
    <!-- Generator: Sketch 3.0.4 (8054) - http://www.bohemiancoding.com/sketch -->
    <title>Slice 2</title>
    <desc>Created with Sketch.</desc>
    <defs></defs>
    <g id="Page-1" stroke="none" stroke-width="1" fill="none" fill-rule="evenodd" sketch:type="MSPage">
        <g id="Group" sketch:type="MSLayerGroup" transform="translate(1015.750000, 761.650000) scale(1, -1) translate(-1015.750000, -761.650000) translate(0.500000, 0.600000)" fill="#000000">
            <path d="M1778.2,1521.6 C1766.1,1520.3 1743.1,1514.3 1696.5,1500.1 C1683,1496.1 1659.4,1490.9 1641.5,1488.2 C1630.4,1486.5 1463.2,1472.2 1126.5,1444.2 L628,1402.7 L486,1387.7 C344.7,1372.8 343.9,1372.7 320.4,1372.7 L296.7,1372.7 L289.9,1376.8 C278.9,1383.5 245.4,1399.7 222.3,1409.5 C169.9,1431.8 123.2,1446.9 93.1,1451.3 C60.5,1456.1 31.2,1447.6 11.4,1427.5 C3.2,1419.1 0,1412.2 0,1402.7 C0.1,1397.4 0.6,1394.2 1.9,1391.7 C4.9,1386.2 16.2,1375.7 42.5,1354.3 C78.7,1324.8 97.8,1305 115,1279.2 C124.4,1265.1 130.2,1254.1 136,1239.7 C146.4,1213.9 141.7,1248.3 204,741.1 C260.6,280.5 260.6,280.2 265,223.7 C269.7,164.4 270.5,158.7 277.1,135.7 C289.5,92.6 311.7,46.6 331.5,22.8 C344.2,7.5 366.2,-1.2 388.5,0.1 C411,1.5 425.9,9.8 437.5,27.5 C448.5,44.2 454.2,68.4 456.1,106 L456.8,119.7 L459.9,119.7 C461.6,119.7 465,120.4 467.5,121.2 C470.6,122.3 505.4,125.4 578,131.3 C636.3,136 700.2,141.5 720,143.7 C739.8,145.8 759.4,147.8 763.5,148.2 C772.7,148.9 979.2,159.9 1186,170.7 L1340,178.8 L1450.5,178.4 L1561,178.1 L1577.5,175.5 C1586.6,174 1619.7,168.6 1651,163.4 C1716.5,152.5 1726.5,151.2 1739.2,152.1 C1775.8,154.7 1801.8,173.2 1808.1,201.4 C1810.3,211.5 1809.6,228.6 1806.6,237.1 C1800.2,255 1779.9,280.1 1749.6,307.1 C1743.5,312.6 1738.5,317.7 1738.5,318.5 C1738.5,321.7 1857.6,750 1879.4,824.7 C1897.4,887 1913.8,939.9 1945.9,1040.3 C1969.3,1113.4 1988.5,1174.1 1988.5,1175 C1988.5,1177.6 1991.4,1182.9 2005.7,1206.6 C2026.2,1240.6 2030.5,1250.5 2030.5,1264.1 C2030.5,1288.9 2009.9,1324.5 1967.4,1372.7 C1911.2,1436.6 1863.7,1483.4 1835.7,1502.5 C1812.1,1518.6 1796.9,1523.7 1778.2,1521.6 L1778.2,1521.6 Z M1710.5,1328.1 C1749.2,1324.6 1767.5,1316.7 1775.8,1299.8 C1778.7,1293.9 1779,1292.4 1778.9,1284.7 C1778.8,1279.8 1774.5,1246.5 1768.6,1205.7 L1758.4,1135.2 L1702.4,872.2 L1646.3,609.2 L1620.4,511.7 C1588.9,393.5 1574.4,341.7 1572.9,341.7 C1572.2,341.7 1317.3,322.6 1006.4,299.2 C695.4,275.9 440.7,257.1 440.4,257.5 C439.6,258.4 436.6,272.6 432.5,294.7 C430.6,305 425,352.2 417.5,420.2 C411,480.2 400.2,572.4 393.6,625.2 C385.2,691.9 377,765 366.5,864.7 C358.2,943.6 349.2,1026.7 346.5,1049.2 C343.8,1071.8 340,1103.1 338.1,1118.9 C332.2,1166.9 327.3,1220.9 328.7,1222.3 C329,1222.5 445,1234.2 586.6,1248.2 L844,1273.6 L1000,1285.2 C1085.8,1291.5 1191.3,1299.9 1234.5,1303.7 C1277.7,1307.6 1372.2,1315 1444.5,1320.2 C1516.8,1325.4 1578.3,1329.8 1581,1330 C1593.6,1331 1694.8,1329.5 1710.5,1328.1 L1710.5,1328.1 Z" id="Shape" sketch:type="MSShapeGroup"></path>
        </g>
    </g>
</svg>