<?xml version="1.0" encoding="UTF-8" standalone="no"?>
<svg width="2093px" height="2223px" viewBox="0 0 2093 2223" version="1.1" xmlns="http://www.w3.org/2000/svg" xmlns:xlink="http://www.w3.org/1999/xlink" xmlns:sketch="http://www.bohemiancoding.com/sketch/ns">
    <!-- Generator: Sketch 3.0.4 (8054) - http://www.bohemiancoding.com/sketch -->
    <title>Slice 2</title>
    <desc>Created with Sketch.</desc>
    <defs></defs>
    <g id="Page-1" stroke="none" stroke-width="1" fill="none" fill-rule="evenodd" sketch:type="MSPage">
        <g id="Group" sketch:type="MSLayerGroup" transform="translate(1046.800000, 1111.000000) scale(1, -1) translate(-1046.800000, -1111.000000) translate(0.800000, 0.000000)" fill="#000000">
            <path d="M1894.3,2221.9 C1890.2,2221.4 1884.6,2220.4 1881.8,2219.7 C1879,2218.9 1865.9,2215.3 1852.7,2211.7 C1803,2198.1 1782.2,2193.5 1755.7,2190.6 C1748,2189.7 1676.9,2183.2 1597.7,2176 C1355,2154.1 1247.7,2144 1047.2,2124.5 C788,2099.2 633.9,2083.6 597.7,2078.9 C368.5,2049.7 337.8,2046.5 300.2,2047.3 C259.8,2048.1 235.7,2054.2 169.7,2080.2 C106.1,2105.3 85.8,2110.4 62.8,2107.1 C41.5,2104.1 28.5,2095.3 7.4,2069.6 C1,2061.7 -0.5,2059.3 0.2,2057.9 C0.7,2057 18.2,2038.9 39,2017.9 C80.3,1975.9 83.8,1971.7 93.8,1950.6 C105.9,1924.9 112.4,1894.3 115.2,1849.1 C115.7,1840 116.7,1789.8 117.2,1737.6 C117.8,1685.3 119.2,1568.3 120.2,1477.5 L122,1312.5 L119.6,951 L117.1,589.5 L110.1,377.5 C106.1,258 103.3,161.6 103.7,156.5 C105.3,132.9 112.5,99.4 120.9,76 C138.7,26.4 163.7,-0.1 192.5,1.01181292e-12 C211.4,0.1 222.3,8.7 238.7,36 C254.7,62.7 265.7,80.4 277.5,98.2 C289.7,116.8 288.1,115.5 303.7,119.4 C327.1,125.3 407.5,135.6 486.2,143 C504.1,144.6 582.2,152.1 659.7,159.5 L800.7,173 L983.7,183.5 C1107,190.6 1217.1,196.3 1321.2,201 L1475.7,207.9 L1613.2,205 C1749.1,202.1 1750.8,202.1 1762.3,199.7 C1777.6,196.5 1798.1,189.4 1817.4,180.7 L1833.1,173.7 L1838.7,156.6 C1847.8,129.3 1854.7,114.6 1885.2,59 C1891.8,47 1895.9,41.3 1902.5,35.5 C1913.2,25.8 1925.5,21.6 1943.2,21.7 C1953.1,21.7 1955.8,22.1 1962.7,24.4 C1967.1,25.9 1973,28.5 1975.7,30.2 C2005.1,48.1 2026.2,91.8 2037.2,157.4 C2044.3,200 2044.8,213.6 2046.3,420.5 C2047.6,604.2 2047.7,598.8 2041.1,1190.5 C2039.6,1329.8 2039.5,1486.6 2041,1546 C2045.3,1715.4 2049,1809.7 2054.2,1883.5 C2058.7,1946.9 2061.1,1961.8 2072.2,1996.5 C2092.1,2058.8 2094.8,2071.7 2090.2,2082.4 C2077.3,2112.5 2009.5,2174.7 1958.2,2203.5 C1931.5,2218.5 1912.5,2223.9 1894.3,2221.9 L1894.3,2221.9 Z M1754.7,2046 C1780.6,2045.5 1811.8,2044.6 1824.2,2044 L1846.6,2042.9 L1853.9,2038.4 C1868,2029.6 1875.1,2021.2 1879.1,2008.6 C1880.5,2003.9 1880.7,1950 1880.9,1351.4 L1881.2,699.4 L1877.1,521.4 C1873.8,373.1 1872.3,329.2 1870.8,327.3 C1870.7,327.2 1865.2,328.8 1858.5,331 C1829.6,340.3 1790.9,346.3 1735.2,350.2 C1724.8,350.9 1696.8,351.4 1666.2,351.4 C1618.9,351.4 1600.8,350.8 1444.2,344.2 L1273.7,337 L1071.2,322.5 C959.8,314.5 744.7,298.3 593.2,286.4 C420.6,272.9 314.5,265 309,265.2 C301.7,265.6 299.8,266 296.3,268.3 C291.6,271.4 288.9,276.2 287.3,284 C286,290.6 284.3,496.6 280.7,1061.5 L278.1,1461.5 L283.4,1676.7 C287.7,1850.5 288.5,1892.9 287.5,1896.7 C286.8,1899.3 286.4,1901.6 286.6,1901.7 C286.8,1901.9 300.4,1905 316.8,1908.6 L346.7,1915.1 L487.2,1932.5 C697.7,1958.7 893.3,1980.2 1136.7,2004 L1340.7,2024 L1489.2,2034.6 C1673,2047.7 1672.7,2047.7 1754.7,2046 L1754.7,2046 Z" id="Shape" sketch:type="MSShapeGroup"></path>
        </g>
    </g>
</svg>