<?xml version="1.0" encoding="UTF-8" standalone="no"?>
<svg width="2252px" height="2213px" viewBox="0 0 2252 2213" version="1.1" xmlns="http://www.w3.org/2000/svg" xmlns:xlink="http://www.w3.org/1999/xlink" xmlns:sketch="http://www.bohemiancoding.com/sketch/ns">
    <!-- Generator: Sketch 3.0.4 (8054) - http://www.bohemiancoding.com/sketch -->
    <title>Slice 2</title>
    <desc>Created with Sketch.</desc>
    <defs></defs>
    <g id="Page-1" stroke="none" stroke-width="1" fill="none" fill-rule="evenodd" sketch:type="MSPage">
        <g id="Group" sketch:type="MSLayerGroup" transform="translate(1125.950000, 1106.450000) scale(1, -1) translate(-1125.950000, -1106.450000) translate(0.800000, 0.500000)" fill="#000000">
            <path d="M1049.2,2211.4 C1027.9,2208.7 1010.1,2200.5 998.4,2188.1 C991.3,2180.5 987.9,2172.9 987.4,2163.7 C986.8,2152.3 988.2,2150.3 1020.2,2118.4 C1039.1,2099.6 1049.3,2088.6 1052.5,2083.8 C1062.5,2068.6 1069.1,2052.3 1073.6,2032.3 C1078.5,2010.3 1079.2,1999.2 1080.3,1930.9 C1083,1755.7 1083.1,1771.1 1076,1205.4 L1069.3,670.9 L1073.2,548.9 C1077.7,407.4 1077.9,404.2 1079.8,378.4 C1089.6,246.9 1125.4,156.5 1188,105.2 C1198.9,96.2 1216.5,84.8 1227.1,79.7 C1239.1,73.9 1266.4,64.9 1291.2,58.5 C1345.2,44.5 1416.5,31.7 1452.1,29.4 C1460.7,28.9 1515.4,28 1573.7,27.4 L1679.7,26.3 L1786.2,32.9 L1892.7,39.5 L1999.2,55.4 C2088.5,68.7 2107.2,71.8 2115.2,74.4 C2133.7,80.5 2203.8,106.7 2210.2,109.9 C2227.1,118.4 2239.7,131.9 2245.8,148.1 C2249.4,157.5 2250.3,162.7 2250.3,173.3 C2250.3,190.4 2247.6,194.9 2217.7,225.4 C2205.6,237.8 2194,250.2 2192.1,252.9 C2179.8,270 2168.6,299.9 2163.2,330 C2162.1,336.1 2156.7,391.6 2151.3,453.5 L2141.4,565.9 L2133.4,580.4 L2125.4,594.9 L2113.2,596.2 C2106.5,597 2100.9,597.4 2100.7,597.2 C2100.5,597 2085.5,535.5 2067.3,460.4 L2034.2,323.9 L2028,310.9 C2019.4,292.9 2010.8,277.2 2005,268.7 C1989.3,245.9 1970.6,230.7 1944.7,219.7 C1903.8,202.4 1811.5,188.1 1687.7,179.8 C1655.7,177.7 1554,176.8 1521.5,178.3 C1390.4,184.6 1311.1,208.9 1276.3,253.4 C1248.1,289.3 1230.7,392 1226,549.6 C1225,585.2 1225.1,613.5 1227.5,778.1 C1231.2,1038.7 1231.1,1030.8 1232.6,1040.4 C1234.3,1051.1 1237.1,1058.5 1241.9,1064.9 C1245.7,1069.8 1246.6,1070.4 1317.8,1105.9 C1374.1,1134 1434.5,1165.7 1593.8,1250.8 L1797.7,1359.7 L1899,1419.3 C2007.9,1483.3 2006.9,1482.7 2015.8,1496.1 C2035.5,1525.8 2029.2,1553 1994,1589.9 C1983.6,1600.8 1967.9,1615.2 1942.4,1637.4 C1934.5,1644.3 1925,1652.5 1921.4,1655.7 C1897,1677.1 1864,1699.4 1843.7,1708.2 C1829.5,1714.3 1822.7,1715.9 1810.2,1715.9 C1799.2,1715.9 1798.3,1715.7 1792,1712.6 C1780.8,1707.1 1770.5,1693.5 1763.8,1675.3 L1762.1,1670.8 L1768.1,1657.1 C1778.9,1632.9 1782.1,1619.7 1780.7,1605.4 C1777.4,1572.1 1762,1555.4 1639.2,1452.9 C1618,1435.2 1593.7,1415.2 1585.2,1408.5 C1525.5,1360.8 1434.2,1297.3 1334.5,1234.1 C1287.1,1204.1 1239.6,1175.6 1238.6,1176.6 C1234.4,1180.8 1232.9,1362.8 1236.1,1468.9 C1242.7,1681.5 1253.3,1824.5 1270.6,1931.9 C1272,1940.2 1273.8,1951.6 1274.7,1957.4 C1275.6,1963.2 1279.5,1982.8 1283.4,2000.9 C1290,2031.1 1290.6,2034.9 1290.6,2045.9 C1290.7,2058 1290.7,2058 1286.9,2065.8 C1279.9,2079.9 1258.6,2099.6 1223.4,2124.7 C1200.4,2141 1153.3,2173.1 1136.2,2184.1 C1110.3,2200.7 1098.7,2206.8 1086.7,2210 C1080.5,2211.7 1057.9,2212.6 1049.2,2211.4 L1049.2,2211.4 Z" id="Shape" sketch:type="MSShapeGroup"></path>
            <path d="M60,2039.8 C52.7,2038.1 44.3,2033.9 36.5,2028 C30.5,2023.5 14.1,2006.9 4.8,1996 L0,1990.5 L2.1,1987.8 C3.2,1986.4 15.1,1973.4 28.6,1959 C71.6,1913 78,1905.1 83.6,1891 C103.3,1842.3 114.4,1756.3 116.7,1635.9 C117.1,1618.9 118,1425.4 118.7,1205.9 C119.9,863.3 119.9,789.1 118.7,680.9 C117.2,548.4 117,536.6 114.6,502.9 C107.7,403.1 93.4,305.6 80.1,267.6 C78.4,262.8 68.1,241.4 57.3,219.9 C25.3,156.5 22,147.2 25.3,128.8 C30.8,97.2 56.6,61.7 94.9,33 C123,11.9 150.3,6.82121026e-13 170.7,6.82121026e-13 C188.9,6.82121026e-13 195.2,4.4 236.5,45.8 C270.5,79.9 282.9,90.6 309.3,108.2 C327.9,120.6 549.7,253 588.5,274.8 L631.7,299.1 L725.9,364.1 L820.1,429 L844.3,451.8 C857.5,464.4 869.7,476.5 871.3,478.7 C875.5,484.5 876.4,488.8 875.2,497.5 C874.2,505 871.5,516.4 870.7,517.3 C869.9,518 838.3,513.3 831.2,511.4 C805.9,504.6 737.1,477.7 653.2,441.9 C630.9,432.4 566.8,405.2 510.7,381.4 C454.6,357.6 394.1,332 376.2,324.4 C358.3,316.7 337.5,308.2 329.9,305.4 C316.9,300.7 279.7,289.4 276.9,289.4 C275.4,289.4 271,304 269.1,314.9 C267.7,322.9 268.4,416.6 273.2,896.9 L276.1,1185.9 L278.8,1197.6 L281.5,1209.3 L311.6,1209.6 L341.7,1210 L371.2,1218.1 C387.4,1222.6 439.6,1237.5 487.2,1251.2 C604.5,1285.1 637.7,1293.1 790.7,1324.4 C921.2,1351.1 916.9,1350 926.8,1359.8 C938,1371 942.7,1386.2 941.9,1408.4 C941.3,1423.5 939.7,1431.1 934.6,1442.2 C918.5,1477.4 874.5,1501.2 821.7,1503.1 C787.2,1504.3 771.9,1500.7 726.7,1480.6 C683.9,1461.6 605.6,1430.6 576.7,1421.1 C567.3,1418 368.1,1363.9 350.7,1359.7 C342.2,1357.7 305.7,1356.7 299.7,1358.4 C293.6,1360.1 287,1366.1 284.1,1372.6 C281.4,1378.6 281.4,1375.7 283.1,1474.9 L283.9,1522.9 L295.1,1659.9 C305.8,1792.6 306.3,1797.8 310.9,1824.9 C317.6,1865.2 317.3,1877.2 309.2,1898.1 C301.6,1917.8 282.5,1939.7 257.2,1957.6 C207.2,1992.9 146.3,2025.2 109.7,2035.8 C90.8,2041.3 72.3,2042.8 60,2039.8 L60,2039.8 Z" id="Shape" sketch:type="MSShapeGroup"></path>
        </g>
    </g>
</svg>