<?xml version="1.0" encoding="UTF-8" standalone="no"?>
<svg width="2170px" height="2281px" viewBox="0 0 2170 2281" version="1.1" xmlns="http://www.w3.org/2000/svg" xmlns:xlink="http://www.w3.org/1999/xlink" xmlns:sketch="http://www.bohemiancoding.com/sketch/ns">
    <!-- Generator: Sketch 3.0.4 (8054) - http://www.bohemiancoding.com/sketch -->
    <title>Slice 2</title>
    <desc>Created with Sketch.</desc>
    <defs></defs>
    <g id="Page-1" stroke="none" stroke-width="1" fill="none" fill-rule="evenodd" sketch:type="MSPage">
        <g id="Group" sketch:type="MSLayerGroup" transform="translate(1084.950000, 1140.600000) scale(1, -1) translate(-1084.950000, -1140.600000) translate(0.500000, 0.200000)" fill="#000000">
            <path d="M1689.5,2278.3 C1673.2,2273.7 1558.8,2245 1533,2239.1 C1498.1,2231.1 1473.3,2226.3 1460,2225 C1454,2224.4 1352,2216.3 1233.5,2207 C1018.1,2190.1 1018,2190.1 935.5,2180.6 C890.1,2175.3 784.8,2162.1 701.5,2151.1 C618.2,2140.1 545.5,2130.6 540,2130 C492.4,2125 424.6,2126.6 389,2133.6 C358.4,2139.6 327.6,2150.2 284.5,2169.5 C260.5,2180.3 240.8,2188.1 229.1,2191.4 C198,2200.5 172.6,2194 158.4,2173.4 C151.7,2163.6 149.6,2149.5 153.7,2141.1 C156.3,2135.7 169.1,2122.1 179.5,2113.7 C211.6,2087.6 234.8,2059.2 252.7,2024 C268.9,1992.1 282.7,1946.1 291.1,1896 C292.4,1888 297.1,1852.9 301.5,1818 C305.9,1783.1 310.4,1748.9 311.5,1742 C318.7,1696 357.1,1465.1 360,1450 C377.8,1360 401.8,1318.2 441,1309.5 C446.5,1308.2 451.9,1307.9 461.7,1308.2 C474.2,1308.5 475.4,1308.7 481.5,1311.6 C485.1,1313.4 490.4,1316.9 493.3,1319.5 C498,1323.7 512.8,1340.9 528.8,1360.9 C545,1381.1 577.8,1394.8 632.5,1404.4 C640.5,1405.8 710.4,1415.8 788,1426.5 C923.4,1445.2 947.5,1448.1 947.5,1445.2 C947.5,1444.8 948.2,1436.4 949,1426.5 C953.7,1368.5 953.7,1294.5 949,1236.6 C948.2,1226.7 947.3,1218.5 947.1,1218.2 C946.8,1218 930.5,1215.4 910.8,1212.4 C876,1207.3 871.2,1206.8 732.5,1196 C572.4,1183.5 586.6,1184 543.5,1189.5 C522.2,1192.2 519.5,1192.8 456,1211.4 C399,1228 377.5,1234 374.9,1234 C373.6,1234 370.1,1233.1 367,1231.9 C356.4,1227.9 348.5,1216.9 346.5,1203.3 C343.2,1179.9 358.2,1151.8 393,1116.1 C438.2,1069.8 496.4,1033.5 534.3,1028 C548.6,1025.9 566.2,1029 649,1048.4 C723.4,1065.8 716.8,1064.7 822.7,1077 C930,1089.5 936.9,1090.2 943.2,1089.3 L947.8,1088.7 L947.2,1049.6 C946.1,987.5 941.3,892.5 939.1,890.2 C937,888.2 884.2,879.9 784.6,866 L670,850.1 L543.5,839.9 C404.6,828.8 377.3,827.5 342,829.9 C270,835 209.9,853.9 163.5,886 C138.3,903.4 126.5,911 118,915.2 C110.4,918.9 109.6,919.1 102.5,918.8 C84.8,917.8 72.5,906.7 67.9,887.4 C65.4,877.2 65.7,856 68.4,845.5 C74,824.2 88.1,803 118.7,769.8 C190.6,691.9 223.2,661.8 249.6,649 C267.3,640.4 281.9,639.9 309,646.9 C332.4,653 357.6,660.3 378,667 C412.8,678.4 432.7,683.4 492,695.4 C509.6,699 561.8,709.8 608,719.5 L692,737.1 L890.5,761.1 L1089,785.1 L1209.5,787.8 L1330,790.5 L1493.5,789.2 L1657,788 L1750.5,780 C1801.9,775.6 1852.6,770.9 1863,769.5 C1926.5,761.4 1958,759.8 1973,763.8 C1997.2,770.4 2013.9,786.6 2020,809.5 C2030.9,850.6 2005,885.5 1939.5,918 C1900.6,937.4 1841,957.2 1795.3,965.9 C1781.8,968.5 1785.1,969.1 1712.2,950.9 C1627.3,929.8 1610.1,926.7 1569,925 C1296.2,913.8 1122.9,907 1113.8,907 C1096.9,907 1095.2,908.4 1093.3,923.9 C1091.9,935.1 1092.9,1073.1 1094.5,1088.5 C1095.1,1094.6 1096.4,1101.1 1097.3,1103 C1099.4,1107.2 1105.4,1110.4 1115.4,1112.5 C1124.3,1114.4 1108.1,1113.1 1290,1126.1 L1444,1137.2 L1477,1136.7 C1523.3,1136 1544.3,1134.1 1615.5,1124.3 C1640.5,1120.9 1669.2,1120.4 1679.5,1123.3 C1709.4,1131.6 1727.2,1147.4 1733.1,1171 C1735.3,1179.7 1734.6,1194.4 1731.6,1201.8 C1727.2,1212.9 1718.3,1224.5 1707,1234.2 C1680.4,1257 1633.8,1278.6 1589.5,1288.9 C1571.3,1293.1 1560,1294.3 1543.1,1293.7 C1524.4,1293.1 1521.1,1292.5 1477.5,1281 C1460.7,1276.6 1439.8,1271.4 1431,1269.5 C1422.2,1267.6 1409.1,1264.6 1401.8,1263 C1383.3,1258.8 1160,1233.7 1125.2,1231.9 C1112.2,1231.2 1101.3,1230.9 1101,1231.1 C1099.6,1232.5 1098.4,1286.4 1098.9,1319.5 C1099.9,1373.4 1101.4,1419.8 1102.6,1433.5 C1104.8,1459.4 1108.8,1465.5 1125,1468 C1128.9,1468.5 1195.7,1473.3 1273.5,1478.6 L1415,1488.1 L1474,1486.9 L1533,1485.7 L1560.5,1458.5 C1587.5,1431.7 1588.2,1431.2 1597.5,1426.6 C1608.9,1421 1617.7,1419 1631,1419 C1644.1,1419 1653.1,1421 1663.5,1426.1 C1684.3,1436.4 1703.7,1463.8 1721.3,1507.5 C1730.6,1530.8 1734,1541.5 1772.3,1670.5 C1813.9,1810.3 1809.6,1795.2 1813.4,1815.6 C1817.1,1835.3 1819.4,1843.1 1829.5,1871.5 C1842.5,1907.8 1859,1949 1867.3,1965.5 C1869.2,1969.4 1878.2,1982.4 1887.3,1994.5 C1908.4,2022.4 1918,2037.2 1926.1,2053.5 C1933.7,2069.1 1936.8,2080.2 1936.9,2092 C1936.9,2101.4 1934.9,2107.8 1928.8,2118.2 C1896.3,2173.6 1767.7,2268.3 1709.7,2279.6 C1700.6,2281.3 1699.9,2281.3 1689.5,2278.3 L1689.5,2278.3 Z M1665.1,2103.8 C1672.7,2101 1678.8,2095.2 1683,2086.7 C1687.9,2076.7 1688.9,2068.6 1686.9,2054.5 C1681.8,2017.6 1669,1956.8 1664.5,1948 C1660.4,1940 1651.3,1934.7 1638,1932.6 C1629.1,1931.2 1153.3,1898 1141.9,1898 L1129.7,1898 L1128.6,1901.1 C1126.9,1906 1127.2,1912.3 1131,1950.3 C1136.1,2000.4 1135.8,2011.6 1129.2,2029.1 C1126,2037.6 1119,2051.4 1112.2,2062.5 C1109.1,2067.5 1106.8,2071.6 1107,2071.8 C1107.1,2071.9 1174.9,2078.6 1257.6,2086.6 L1408,2101.1 L1529.5,2103.9 C1596.3,2105.4 1653,2106.4 1655.5,2106.2 C1658,2105.9 1662.3,2104.9 1665.1,2103.8 L1665.1,2103.8 Z M888.1,2049.5 C900.4,2047.4 910.7,2042.2 915,2035.9 C922.8,2024.4 934.2,1979.5 940.9,1933.9 C945.9,1899.6 946.6,1882.8 943,1877.4 C940.7,1873.8 934.4,1871.3 923.4,1869.6 C915.2,1868.3 710,1844.1 625.5,1834.5 C569.9,1828.2 506.8,1822.2 477.8,1820.6 L469.5,1820.2 L468.6,1823.8 C464.2,1840.4 454.8,1889.9 449.1,1926.5 C444.5,1955.8 443.3,1966 443.1,1975.2 C443,1982.3 443.2,1983.1 445.8,1985.8 C447.3,1987.4 450.2,1989.2 452.3,1989.8 C454.3,1990.5 471.1,1993.3 489.5,1996 C535.2,2002.9 563.1,2007.5 581.5,2011.2 C604.1,2015.7 858.9,2050.8 870.1,2050.9 C875.1,2051 883.2,2050.3 888.1,2049.5 L888.1,2049.5 Z M1579,1804.5 C1586.7,1803.7 1602.3,1801.8 1613.8,1800.3 L1634.5,1797.6 L1634.5,1792.8 C1634.5,1775.2 1624.4,1728.5 1608.5,1672.5 C1602.1,1649.9 1592.5,1617.8 1592.1,1617.3 C1591.8,1616.9 1571.1,1615 1557.5,1614 C1537.1,1612.6 1492,1610.4 1436.5,1608 C1362.1,1604.9 1353,1604.3 1267,1597.4 C1192.2,1591.5 1113.3,1586.9 1111.8,1588.4 C1111.1,1589 1115,1736.2 1116.1,1757.2 C1116.6,1765.9 1117.1,1768 1118.4,1768.5 C1119.3,1768.7 1127.2,1770.1 1136,1771.4 C1170.7,1776.8 1189,1778.5 1435.5,1798.4 C1534,1806.4 1553.3,1807.2 1579,1804.5 L1579,1804.5 Z M950.6,1744.3 C950.7,1739.4 951,1721.6 951.4,1704.5 C952.1,1675.7 950.9,1573.1 949.9,1572.1 C948.9,1571.1 858.9,1556.3 776,1543.5 C715.3,1534.1 624.1,1521 591.5,1517 C536.6,1510.3 522.4,1509.5 516.8,1513 C510.6,1516.8 505.3,1528.3 504,1541 C503.6,1544.6 502.2,1552.9 500.9,1559.5 C495.5,1586.8 488.1,1639.7 485,1673.1 C484.2,1681.1 485.7,1687.4 488.8,1689.5 C492,1691.6 500.8,1693.7 518.4,1696.5 C552.9,1702.1 668,1720 682.5,1722.1 C700.5,1724.7 941.2,1752.7 946.8,1752.9 L950.5,1753 L950.6,1744.3 L950.6,1744.3 Z" id="Shape" sketch:type="MSShapeGroup"></path>
            <path d="M1740,585.5 C1737.7,584.7 1733.8,581.8 1730.8,578.6 C1725.7,573.4 1725.5,572.9 1725.5,567.8 L1725.5,562.4 L1740.1,543.5 C1786.5,483.7 1857,388.2 1876.7,358.4 C1880.3,353 1910.8,301.9 1944.5,245 C1978.2,188.1 2008.3,137.9 2011.4,133.5 C2020,121.2 2042,99.6 2054.1,91.7 C2071.5,80.1 2083.7,76.3 2099.9,77.3 C2137.3,79.5 2160.3,109.7 2167.6,166 C2169.6,180.7 2169.2,217.3 2167.1,229.5 C2162,257.8 2149.9,279 2114.6,320.9 C2097.9,340.8 2069.5,373.2 2062.1,380.8 C2053.2,390 2033.6,407.7 2018.5,420.1 C1938.2,486.4 1798.3,574.2 1754.9,585.5 C1747.8,587.3 1745.2,587.3 1740,585.5 L1740,585.5 Z" id="Shape" sketch:type="MSShapeGroup"></path>
            <path d="M1222.1,579.1 C1217.9,576.3 1215.4,571.8 1214.9,565.8 C1214.2,559.5 1213.2,562.5 1241,489.9 C1254,456.1 1274.5,398.6 1302.6,317.3 C1331.8,232.8 1346.2,192.4 1349.7,185.5 C1362.9,159 1380.7,139.7 1400.1,130.9 C1418.3,122.6 1439.7,123 1458.4,132 C1485.3,144.9 1504.9,170.6 1513.3,203.9 C1515.8,213.7 1516,216 1515.9,234.5 C1515.9,257 1514,270.4 1508,292.5 C1496.5,334.5 1470.8,378.9 1432.9,422 C1421.7,434.8 1389.7,466.4 1376,478.1 C1307.8,536.5 1270.5,564.8 1246.5,576.4 C1236.1,581.4 1227,582.4 1222.1,579.1 L1222.1,579.1 Z" id="Shape" sketch:type="MSShapeGroup"></path>
            <path d="M692.4,545.8 C689.3,544 685.5,541.6 684.1,540.5 L681.5,538.5 L703,472 C744,345.6 757.6,293.7 773.9,200.5 C776.4,186.2 779.8,169.1 781.4,162.5 C790.7,124.6 804.6,100.1 824.1,87 C835.8,79.2 842.7,77.5 861.5,77.6 C874.8,77.7 878.4,78.1 886.7,80.3 C918.8,88.8 941,112.6 951,149.3 C959.5,180.5 958.8,220.6 949,258.4 C931.7,325.8 887.6,396 820.5,463 C783.5,500.1 744.8,530.8 718.3,544.3 C706.9,550.1 700.3,550.5 692.4,545.8 L692.4,545.8 Z" id="Shape" sketch:type="MSShapeGroup"></path>
            <path d="M320.3,523.8 C308.3,510.6 294.2,493.6 268.5,461.5 C240.3,426.3 215.9,397.1 197.5,376.5 C176.9,353.4 130.9,307.9 78,258.3 C51.3,233.3 29.5,212 26,207.5 C13.8,192.1 6.5,176.7 2.3,157.9 C0.1,148 0,145.6 0,107.5 C0,64.9 0.7,57.5 5.7,41 C12.2,19.9 25.3,6.3 44,1.5 C52.6,-0.7 67.8,-0.5 75.6,2 C91.3,6.9 108.3,18.9 129.6,40 C153.9,64.2 177,93.2 203,132.5 C229.8,173.1 247.7,204.6 279.4,267.3 C315.2,337.8 326.4,365.1 336.4,405.8 C344.6,439.3 349.5,480.9 349.5,517.6 L349.5,530.8 L342,531.9 C329,533.8 329.7,534.1 320.3,523.8 L320.3,523.8 Z" id="Shape" sketch:type="MSShapeGroup"></path>
        </g>
    </g>
</svg>