<?xml version="1.0" encoding="UTF-8" standalone="no"?>
<svg width="2319px" height="2488px" viewBox="0 0 2319 2488" version="1.1" xmlns="http://www.w3.org/2000/svg" xmlns:xlink="http://www.w3.org/1999/xlink" xmlns:sketch="http://www.bohemiancoding.com/sketch/ns">
    <!-- Generator: Sketch 3.0.4 (8054) - http://www.bohemiancoding.com/sketch -->
    <title>Slice 2</title>
    <desc>Created with Sketch.</desc>
    <defs></defs>
    <g id="Page-1" stroke="none" stroke-width="1" fill="none" fill-rule="evenodd" sketch:type="MSPage">
        <g id="Group" sketch:type="MSLayerGroup" transform="translate(1159.650000, 1243.800000) scale(1, -1) translate(-1159.650000, -1243.800000) translate(0.500000, 0.100000)" fill="#000000">
            <path d="M1013.2,2486.5 C998.7,2484 986,2477.6 979.2,2469.3 C971.9,2460.4 962.8,2436.4 965.2,2432.5 C965.9,2431.5 982.2,2411.5 1001.5,2388 C1025.6,2358.6 1037.6,2343.3 1039.9,2338.7 C1050.4,2317.8 1060.1,2276.1 1065.9,2226.1 C1071,2183.3 1071.8,2160 1068.6,2152.9 C1065.2,2145.4 1057.9,2141.8 1039.2,2138.5 C1027,2136.4 763.4,2107.1 747,2106 C741.5,2105.7 713,2103.4 683.8,2100.9 C625.2,2096.1 608.6,2095.6 581,2098 C526.7,2102.8 470.1,2113 433.8,2124.6 C425.8,2127.2 421.7,2129.5 404.9,2140.6 C373.1,2161.7 362.2,2167.5 354,2167.5 C348.4,2167.5 345.2,2166.3 339.3,2161.7 C329.3,2154.1 322.5,2140.7 322.5,2128.5 C322.5,2119.8 324.5,2113.4 331.6,2099.5 C346.9,2069.4 371.8,2037.1 406,2003 C435.9,1973.1 460.2,1954.4 485,1942.5 C504.1,1933.3 514.7,1930.5 530.3,1930.5 C546.3,1930.5 575.8,1936 665,1955.5 C720.4,1967.6 720.6,1967.6 749.5,1971.9 C826.2,1983.3 1023.1,2009.5 1052.5,2012.3 C1066.2,2013.5 1071.2,2011.9 1076.3,2004.5 C1081.1,1997.4 1081,1999.2 1081,1892.5 C1081,1797.7 1080.9,1791.8 1079.2,1788.7 C1078.2,1786.9 1076,1784.8 1074.2,1784 C1071,1782.7 638.8,1719.3 619.6,1717.4 C613.8,1716.8 598.5,1716.5 585.6,1716.8 C558.4,1717.3 557.6,1717.4 525.7,1728.9 C493.9,1740.4 456.4,1750.3 425,1755.6 C407.4,1758.6 381.3,1758.9 371,1756.1 C354.4,1751.8 341.1,1742.5 335.8,1731.7 C333.5,1727.1 333,1724.7 333,1718.5 C333,1708.1 334.9,1705.1 350.2,1690.9 C373.7,1669 381.7,1661.1 389.7,1651.5 C419.9,1615.6 436.9,1573.8 448.5,1507.1 C455.6,1466.5 460.8,1423.3 477.5,1270 C490.8,1147.8 493,1130.3 499.1,1099.7 C513.8,1025.1 537.3,965.5 565.6,930.8 C585.1,907 608.4,894.5 633.4,894.5 C646.7,894.5 648.1,895.2 695.9,925.4 C720,940.7 724.8,943.2 737,947.3 C761.5,955.4 791.7,961.8 917.5,985.5 C1053.6,1011.1 1055.6,1011.4 1067.2,1008 C1070.7,1007 1073.4,1005.3 1075.8,1002.6 C1081.9,995.8 1082,994.6 1079.1,952.5 C1076.7,918.8 1076.5,909.1 1076.4,856.5 C1076.4,791.2 1075.7,772.8 1073,767.1 C1070.6,762.1 1065.5,758.9 1057.1,757 C1053.2,756.2 985.2,747.2 906,737 C775.9,720.3 746.6,716.2 603.5,694.5 C516.3,681.3 428.1,668 407.5,664.9 C386.9,661.9 348.2,656.1 321.5,652 C294.8,647.9 268.6,644.1 263.1,643.4 C249.3,641.8 222.9,642.8 208.7,645.4 C166.8,653.3 117.1,670.5 85.4,688.1 C61.3,701.5 37.8,712.9 30,715 C24.5,716.5 22.8,716.6 19.5,715.6 C10.8,713 5.3,705 1.9,690 C-0.9,678 -0.6,646.2 2.3,635.2 C5.4,623.9 9.9,616.1 19,606.6 C29.4,595.7 44.2,584.7 81.5,559.9 C109.2,541.6 114.3,537.7 136.5,518.5 C186.4,475.3 203.6,463.2 223,457.9 C231.8,455.5 259,454.8 267.5,456.8 C271.1,457.7 328.5,474.8 395,495 L516,531.6 L628,558.5 L740,585.4 L891.5,607 C1055,630.4 1055.9,630.5 1064.8,626.1 C1069.5,623.8 1073,618.7 1074.5,612 C1076.2,604.7 1075.8,572 1073.4,515 C1071.6,474.1 1071.2,445.2 1070.8,355.5 C1070.3,244.2 1071,204.5 1074,166.5 C1081.6,72.2 1100.7,16.6 1130.2,2.7 C1135.3,0.3 1137.2,0 1146,0 C1155.3,0 1156.4,0.3 1162.7,3.4 C1192.8,18.4 1215.5,75.7 1229.4,172.1 C1235.4,213.3 1238.4,246.2 1242.7,315.5 C1243.4,327 1244,391.1 1244.4,484 L1245,634.1 L1247.6,639 C1252.5,648.7 1257.8,650.2 1298.5,654 C1353.2,659 1520.2,668.3 1571.5,669.2 C1625.9,670.2 1777.5,667.8 1849,664.9 L1913,662.3 L2037.5,639.9 C2106,627.6 2167,616.6 2173,615.5 C2202.7,610 2235.8,607.4 2250.9,609.4 C2278.9,613.2 2303.8,628.4 2312.9,647.3 C2325.5,673.8 2315.3,709.9 2287.1,738.1 C2275.4,749.7 2269.3,753.9 2245.5,766.9 C2172,807.1 2109.1,833.5 2067.1,841.7 C2042,846.6 2026.1,844.5 1904.5,820.6 C1879.5,815.7 1855.4,811.4 1851,811.1 C1846.6,810.8 1818.3,809.4 1788,808 C1748.3,806.2 1708.6,803.5 1645.5,798.5 C1597.4,794.6 1489.4,786.5 1405.5,780.5 L1253.1,769.5 L1250.2,772.3 C1246.9,775.7 1246.3,779 1244,807.5 C1241.2,843.2 1240.4,870.4 1239.9,947 L1239.3,1023 L1241.7,1027.5 C1244.7,1033.3 1251.8,1037 1263.5,1039 C1268.2,1039.8 1325.6,1044.3 1391.2,1049 C1507.9,1057.3 1511,1057.5 1546.2,1057.5 C1592.4,1057.4 1620.4,1056.2 1631,1053.6 C1649.3,1049.1 1657.3,1043.7 1682.5,1018.5 C1703.1,997.8 1710.1,992.3 1719.7,989.3 C1730.7,985.9 1746.4,987.4 1760.2,993.2 C1800.9,1010.4 1832.3,1068.6 1852.9,1165.5 C1861.6,1206.4 1864.8,1230.2 1882.5,1386 C1897.9,1522 1900,1535.8 1909.1,1567.5 C1914.1,1584.7 1919,1596.4 1935.3,1630 C1950.9,1662.3 1957.2,1676.7 1961.7,1690 C1967,1705.6 1965,1715.2 1952.9,1733.5 C1918.4,1785.5 1813.6,1854.5 1758.5,1861.4 C1744,1863.3 1728.5,1860.6 1632.7,1840 C1605.6,1834.2 1576.4,1828.3 1567.7,1826.9 C1555.3,1824.9 1519.7,1822.2 1397.6,1813.9 C1312.7,1808.1 1242.9,1803.8 1242.5,1804.2 C1241.2,1805.6 1237.6,1817.7 1236.1,1826 C1233.5,1839.2 1232.5,1856.4 1232.5,1887 C1232.4,1926.4 1234.4,2012.5 1235.5,2020.4 C1237.2,2032.3 1242.9,2037.2 1260,2041.5 C1283.6,2047.4 1315.1,2050.3 1513,2064.9 L1683,2077.5 L1791.8,2077.5 C1897.5,2077.5 1901,2077.6 1910.7,2079.5 C1940.2,2085.5 1960.9,2101.2 1967.6,2122.4 C1971.9,2136.2 1969.8,2155.5 1962.1,2171.7 C1943.1,2211.7 1895.2,2242.2 1835.2,2252.5 C1819.6,2255.1 1793.5,2256.6 1782,2255.4 C1764,2253.6 1729.3,2246.8 1655.5,2230.5 C1632.7,2225.5 1608.7,2220.3 1602.1,2218.9 C1595.6,2217.6 1514.8,2207.1 1422.6,2195.5 C1330.4,2184 1253.8,2174.3 1252.4,2174.1 C1249.9,2173.6 1249.6,2173.9 1247.4,2181.8 C1242.9,2197.2 1243.9,2203.6 1260.6,2271 C1274,2324.7 1275.6,2336.4 1271.9,2350.8 C1266.8,2370.5 1249,2393 1223,2412.5 C1179.9,2444.9 1103.9,2477.6 1052.5,2486 C1042.5,2487.6 1021.4,2487.8 1013.2,2486.5 L1013.2,2486.5 Z M1691.2,1714.6 C1714.3,1708.8 1727.1,1696.3 1730.5,1676.3 C1732.1,1667.4 1731.4,1639.9 1728.5,1594 C1727.4,1576.4 1726.5,1558.6 1726.5,1554.4 C1726.5,1545.3 1723.4,1532.5 1720,1527.4 C1718.6,1525.2 1715.7,1522.8 1712.8,1521.4 C1708.2,1519.2 1706.9,1519.1 1661.5,1517.9 C1602.5,1516.3 1574.1,1514 1491.5,1504.4 C1410.9,1495 1358.4,1488.2 1328.2,1483.1 C1278.5,1474.6 1274.6,1474.2 1256.3,1474.1 C1234.3,1474 1235.7,1472.7 1233.8,1495.2 C1231.7,1520.1 1232.6,1569.5 1235.9,1610.5 C1237.3,1628.4 1238.8,1649.6 1239.2,1657.7 C1239.5,1665.8 1240.1,1672.9 1240.5,1673.4 C1241.9,1675.8 1294.9,1690.5 1302.1,1690.5 C1305,1690.5 1323.5,1691.8 1343.2,1693.5 C1362.9,1695.1 1389.6,1697.2 1402.5,1698.1 C1415.4,1698.9 1474.8,1703.6 1534.5,1708.5 C1633.2,1716.6 1644.8,1717.4 1663,1717 C1679.1,1716.8 1684.6,1716.3 1691.2,1714.6 L1691.2,1714.6 Z M1071.6,1655.8 C1074.2,1654.4 1078.1,1651.4 1080.3,1649.2 L1084.4,1645 L1085.6,1616 C1087.6,1565.9 1086.2,1523.9 1080.6,1470 L1079,1454 L1032.5,1446.8 C1006.9,1442.8 968,1436.6 946,1433 C903.5,1426.1 704.5,1396.1 693.5,1395 C689.9,1394.6 675.6,1392.8 661.6,1390.9 C647.6,1389 635.3,1387.5 634.3,1387.5 C633.2,1387.5 631.1,1388.8 629.5,1390.3 C625.1,1394.7 622.7,1404.4 621.5,1422.5 C620.9,1431.1 618.5,1455.1 616,1476 C608.6,1538.5 607.9,1547.1 609.3,1558.9 C611.8,1581.5 618.3,1588.7 638.5,1591.5 C652.7,1593.4 681.8,1599.2 727.6,1609 L771.1,1618.4 L912.1,1638.4 C989.6,1649.4 1054.6,1658.6 1056.5,1658.8 C1062,1659.4 1066.6,1658.5 1071.6,1655.8 L1071.6,1655.8 Z M1696.2,1390.9 C1709.2,1389 1708.5,1390 1708.5,1375 C1708.5,1362.2 1706.5,1348.7 1696.5,1296 C1678.2,1198.7 1675.1,1186.8 1666.5,1182.4 C1663.5,1180.8 1631.7,1177.9 1453,1163.2 C1337.5,1153.6 1242.9,1145.9 1242.8,1146 C1242.6,1146.1 1241.9,1153.3 1241.1,1162.1 C1237.9,1196.1 1235.5,1254.9 1235.2,1304.5 C1235,1342.6 1235.5,1346.1 1242.2,1353.6 C1249.5,1361.6 1258.1,1364.2 1282.5,1365.5 C1302.9,1366.7 1366.9,1371.9 1386.5,1374.1 C1393.9,1374.9 1443.2,1378.7 1496,1382.5 C1658.5,1394.2 1669.3,1394.6 1696.2,1390.9 L1696.2,1390.9 Z M1076,1337.2 L1081,1335.9 L1081.6,1324.4 C1083.3,1292.8 1082.2,1209.9 1079.5,1167.2 C1077.4,1134.3 1073.4,1125 1059.8,1120.9 C1057.2,1120.1 980.8,1107.3 890,1092.4 C799.3,1077.6 723.4,1065 721.5,1064.5 C711.1,1061.8 696,1062.6 680,1066.8 L675.1,1068.1 L670.8,1081.3 C658.5,1118.9 645.1,1187.2 641.4,1230.5 C639.5,1252.9 641.6,1263.4 649.1,1269.1 C654,1272.9 665,1276.4 679.3,1278.6 C718,1284.7 810.6,1298.8 826.5,1301 C836.7,1302.5 895.4,1311.4 957,1321 C1018.6,1330.5 1069.5,1338.3 1070,1338.4 C1070.6,1338.4 1073.3,1337.9 1076,1337.2 L1076,1337.2 Z" id="Shape" sketch:type="MSShapeGroup"></path>
        </g>
    </g>
</svg>