<?xml version="1.0" encoding="UTF-8" standalone="no"?>
<svg width="1339px" height="2394px" viewBox="0 0 1339 2394" version="1.1" xmlns="http://www.w3.org/2000/svg" xmlns:xlink="http://www.w3.org/1999/xlink" xmlns:sketch="http://www.bohemiancoding.com/sketch/ns">
    <!-- Generator: Sketch 3.0.4 (8054) - http://www.bohemiancoding.com/sketch -->
    <title>Slice 2</title>
    <desc>Created with Sketch.</desc>
    <defs></defs>
    <g id="Page-1" stroke="none" stroke-width="1" fill="none" fill-rule="evenodd" sketch:type="MSPage">
        <g id="Group" sketch:type="MSLayerGroup" transform="translate(669.600000, 1196.600000) scale(1, -1) translate(-669.600000, -1196.600000) translate(0.600000, 0.100000)" fill="#000000">
            <path d="M580.2,2391.6 C545.9,2385.1 522.4,2363 522.4,2337.2 C522.4,2323.8 528.5,2314.6 557.2,2284.9 C576.1,2265.3 582.9,2257 593.7,2240.6 C628.5,2187.3 644.4,2117.7 644.4,2017.9 L644.4,1996.3 L641.7,1995.7 C590.3,1985.1 491.6,1971.6 425.9,1966.2 C369.9,1961.5 316.3,1960.9 289.9,1964.5 C266.1,1967.8 240.1,1973.9 224.8,1979.6 C185.3,1994.6 164.2,2001.1 155.8,2001.1 C137.5,2001.1 120.2,1987.5 113.8,1968.1 C111.4,1960.6 111.4,1943.9 113.8,1935.6 C117.8,1922.2 129.7,1908.4 158.4,1883.6 C223.8,1827.4 257.5,1809.1 295.9,1809.1 C311.4,1809.1 326.4,1812.4 398.3,1831.7 C445.3,1844.3 449.6,1845.3 479.9,1850.6 C529.3,1859.2 571.5,1864.7 610.4,1867.6 C621.7,1868.4 634,1869.3 637.8,1869.6 L644.7,1870.1 L644.1,1795.4 C643.7,1754.2 643.1,1715.6 642.8,1709.5 L642.1,1698.4 L618.5,1693.2 C597.4,1688.6 583.9,1686.6 490.4,1674.6 C432.9,1667.2 381,1660.2 374.9,1659.2 C362.2,1657 333.3,1653.7 312.5,1652.1 C284.9,1650 268.2,1650.6 229.4,1655 C148.7,1664.4 139.3,1665.1 126.6,1662.8 C106,1659 92.4,1646.7 88.5,1628.3 C85,1611.6 89.2,1603.2 136.7,1532.5 C147.4,1516.6 158.4,1499 161.2,1493.6 C174.6,1466.8 189.6,1413 201.4,1349.1 C204.1,1334.4 206,1311.2 219.4,1138.1 C235.1,935.3 235.3,932.5 241.4,912.2 C248.1,889.5 259.9,870.5 273.4,860.6 C285.6,851.7 297.1,848.1 314,848.1 C326.8,848.1 334.8,850 342.9,855.2 C353.3,861.8 369.4,879.6 390.6,907.7 C397.4,916.7 398.8,918 403.6,919.9 C421.4,926.9 476.6,939.9 572.4,959.6 C598,964.8 622.9,970 627.8,971 L636.7,972.9 L636.1,961.3 C635.7,954.8 634.5,905.9 633.2,852.5 L631,755.4 L590.9,747.3 C453.5,719.2 362.4,705.9 273.4,701.1 C249.6,699.8 179.3,699.8 159.9,701.1 C120.3,703.8 103.4,707 67.9,718.5 C53.6,723.1 39.2,727.4 36,728.1 C25.5,730.3 17.2,727.8 10.3,720.4 C2.1,711.6 -0.1,704.6 7.9580743e-13,688.1 C0.2,673 2.4,663.5 8.6,651.2 C13.2,642 23.7,630 32.7,623.4 C35.6,621.4 46.5,612.8 56.9,604.5 C107.6,564 136.7,547.2 166.5,541.1 C175.2,539.3 179.1,539 190.4,539.4 C207.9,540.1 220.1,543 295.4,564.1 C342.9,577.5 339.9,576.8 448.9,597.1 C505,607.6 565.2,618.9 582.7,622.2 C600.2,625.6 617.5,628.4 621.2,628.4 C627.5,628.6 627.9,628.5 629.2,625.8 C631.4,621.3 631,596.1 626.9,481.1 C626,457.7 624.9,430.5 624.4,420.6 C623.8,410.7 620.3,346.6 616.5,278.1 C609.6,154.4 609.6,153.5 611,136.9 L612.3,120.1 L622.7,94.4 C647.2,33.8 657.6,14.7 670.4,6.6 C678.3,1.6 694,-0.8 705.8,1.1 C730.4,5 747.8,20.9 756.2,47.1 C763.1,68.6 769.7,111.3 772.9,155.6 C776.5,206.5 777.7,249.9 781.4,477.5 C783,574.7 784.5,654.5 784.8,654.8 C786.5,656.5 827,664.8 860.1,670.2 C882.4,673.8 1068,694.8 1088.9,696.1 C1106.6,697.2 1156.9,698.8 1212.9,700.1 C1268.8,701.4 1288.8,704.3 1308,713.6 C1324,721.4 1332.5,731.4 1336.5,747.1 C1343.3,774 1331,797.4 1298.9,819 C1271,837.7 1225.1,855.7 1183.4,864.1 C1160.7,868.8 1155.8,867.7 1082.4,843.1 C1054.6,833.8 1028.5,825.2 1024.4,824.1 C1015.7,821.8 788.5,786.7 787.6,787.5 C786.5,788.7 789.5,975.1 790.9,986.9 C791.6,993.1 792.4,998.4 792.6,998.7 C792.9,998.9 803.7,1000.9 816.7,1003.1 C879.6,1013.6 961.1,1023.6 994.4,1024.8 C1008.8,1025.3 1010.3,1025.2 1015.9,1023.1 C1019.1,1021.8 1030.2,1015.2 1040.4,1008.3 C1070.5,988 1080.7,984.1 1097.6,986.2 C1117,988.6 1135,999.7 1145.8,1015.9 C1151.2,1024.1 1160.4,1042.1 1163.9,1051.6 C1169.2,1065.8 1174,1088.5 1179.4,1124.1 C1183.7,1153.2 1189.1,1194.7 1204.9,1322.8 C1223.7,1474.5 1220.4,1456.1 1241.4,1527.6 C1268,1618.2 1271,1633.1 1266.9,1652.3 C1263.3,1669.5 1253.7,1682.7 1226.4,1707.9 C1173.2,1757.1 1120.1,1791.7 1094.8,1793.8 C1089,1794.3 1086.5,1793.6 1047.8,1780.8 C961.6,1752.2 941.2,1746.4 896.9,1737.6 C866.1,1731.4 800.2,1722 798.7,1723.5 C797.8,1724.4 803.3,1875.3 804.5,1882.6 C806.1,1892.3 808.6,1896.9 813.6,1899 C821.1,1902.3 880.8,1912.4 934.4,1919.6 C987.9,1926.7 1039,1931.7 1086.4,1934.6 C1121.7,1936.7 1134.6,1937.8 1151.6,1940.1 C1205.6,1947.5 1225.4,1963.5 1225.5,1999.7 C1225.6,2009.6 1223.6,2016.4 1218.4,2024.3 C1202.9,2047.7 1161.3,2072 1109.9,2087.6 C1091.4,2093.2 1090.7,2093.2 1061.9,2086.7 C1031.1,2079.9 971,2065.6 877.6,2043.1 C838.4,2033.6 806.1,2026.1 805.9,2026.3 C804.9,2027.3 807.5,2113.4 808.8,2125.1 C809.6,2132 810.7,2141.9 811.3,2147.1 C812,2152.3 815.3,2172.1 818.8,2191.1 C827,2235.2 828,2242.9 826.4,2250.7 C820.7,2278.3 786.2,2313.2 732.7,2345.4 C697.7,2366.4 656.6,2383.8 626.9,2390.1 C613.8,2392.9 591,2393.6 580.2,2391.6 L580.2,2391.6 Z M1055.9,1627.6 C1063,1624 1066.7,1619.1 1068.9,1610.6 C1072.4,1596.8 1069.9,1528 1064.1,1478.6 L1062.9,1468.6 L1054.7,1467.3 C1047.8,1466.2 790.2,1439.1 789.8,1439.5 C789.5,1439.7 794.7,1600.6 795,1600.9 C795.1,1601.1 800.1,1602.4 806.1,1603.8 C813.1,1605.4 852.5,1610.6 918.9,1618.6 C1010.6,1629.7 1022.4,1630.9 1035.5,1630.8 C1049.5,1630.6 1050.3,1630.5 1055.9,1627.6 L1055.9,1627.6 Z M639.8,1562.4 C640.8,1544.2 642.4,1405.7 641.6,1405 C640.7,1404.2 345.1,1354.1 344.5,1354.7 C344.2,1354.9 338.7,1392.4 332.2,1437.9 C321.4,1513.1 320.5,1520.9 321.7,1523.6 C323,1526.3 324.4,1527 336.5,1530.9 C349.4,1535 355,1535.9 479.4,1554.2 C593.6,1571.1 617.8,1574.3 635,1574.9 L639.1,1575.1 L639.8,1562.4 L639.8,1562.4 Z M1043,1345.9 C1042.7,1341.9 1041.2,1324.2 1039.9,1306.6 C1036.7,1266.4 1032.4,1220.4 1028.3,1181.5 L1025,1151.5 L908.5,1135.8 C844.4,1127.1 791.3,1120 790.7,1120.1 C789.7,1120.1 789.4,1140.3 789.4,1217.9 L789.4,1315.7 L800.7,1318.4 C817.3,1322.4 1010.1,1350 1042.3,1353 C1043.4,1353.1 1043.5,1351.7 1043,1345.9 L1043,1345.9 Z M634.2,1285.4 C637.3,1283.5 640,1277.2 641.3,1269.1 C642,1264.9 642.4,1232.1 642.4,1176.8 L642.4,1091 L638.2,1089.1 C626.2,1083.9 605.8,1079.6 516.9,1064 C466.3,1055.1 421.5,1047.2 417.4,1046.5 C405.5,1044.3 380.6,1041.1 375.5,1041.1 L370.8,1041.1 L369.6,1056.4 C368.9,1064.7 367,1097 365.3,1128.1 C363.7,1159.2 361.3,1197.9 360,1214.1 C358.7,1230.3 357.8,1243.7 357.9,1243.9 C358.1,1244.1 609.1,1285.5 621.9,1287.4 C626.2,1288.1 631.5,1287.2 634.2,1285.4 L634.2,1285.4 Z" id="Shape" sketch:type="MSShapeGroup"></path>
        </g>
    </g>
</svg>