<?xml version="1.0" encoding="UTF-8" standalone="no"?>
<svg width="2050px" height="886px" viewBox="0 0 2050 886" version="1.1" xmlns="http://www.w3.org/2000/svg" xmlns:xlink="http://www.w3.org/1999/xlink" xmlns:sketch="http://www.bohemiancoding.com/sketch/ns">
    <!-- Generator: Sketch 3.0.4 (8054) - http://www.bohemiancoding.com/sketch -->
    <title>Slice 2</title>
    <desc>Created with Sketch.</desc>
    <defs></defs>
    <g id="Page-1" stroke="none" stroke-width="1" fill="none" fill-rule="evenodd" sketch:type="MSPage">
        <g id="Group" sketch:type="MSLayerGroup" transform="translate(1025.400000, 442.500000) scale(1, -1) translate(-1025.400000, -442.500000) translate(0.900000, 0.000000)" fill="#000000">
            <path d="M1394.6,881 C1385.3,878.9 1374.3,876.6 1370.4,875.9 L1363.1,874.7 L1351.6,859.3 C1345.2,850.8 1339.8,843.4 1339.5,842.7 C1339.3,842 1345.6,833.6 1353.5,823.9 C1389.4,780.2 1401.2,761.4 1405.6,741 C1407.8,730.8 1408.7,699 1407.2,683.5 C1404.3,653.6 1401,635.2 1385.1,560 C1373.3,504.3 1370.6,490.7 1368.6,477.3 C1366.2,461 1363.5,456.2 1355.2,454 C1351.3,453 1323.6,449.7 1305.6,448 C1290.3,446.7 1252.3,444.5 1193.1,441.5 C1165.3,440.1 1053.1,433.3 943.6,426.5 C834.2,419.6 743.3,414 741.6,414 L738.6,414 L723.7,554.2 C715.6,631.2 708.2,696.6 707.4,699.4 C701.2,720.3 680.5,742.5 645.6,765.8 C612.7,787.7 561.6,812.8 511.8,831.4 C486.2,841 487.4,840.9 476.3,837.1 C452.8,829.2 424.2,815 416.5,807.5 C407.5,798.6 403,785.5 405,774.4 C407,763.7 412.2,758.3 435.1,743 C454,730.4 460.5,725.5 469.6,717 C490.1,697.9 509.3,673 523.3,647.5 C533.4,629.3 538.2,616.5 540.6,601.3 C542.7,588.6 573.9,408 574.5,405.5 C575,403.6 572.6,403.3 485.3,395.7 C436,391.3 394,387.4 392.1,387 C381.7,384.5 294.2,377 275.6,377 C239.2,377 200.2,382.8 176.1,391.7 C151,401.1 138.5,409.4 76.2,458.4 L50.7,478.4 L44.2,476 C13.2,465.1 1.8023083e-13,447.1 -0.1,415.5 C-0.2,397.4 4.3,384 15.3,369.3 C22.9,359.3 102.1,260.3 116.5,243 C137.2,218 137.3,218 153.6,211.3 C161.6,208.1 174.5,205 180.2,205 C185.2,205 203.2,208.2 277.1,222 C328.8,231.7 375.6,240 392.1,242.4 C409.4,245 595.2,266 596.1,265.5 C596.5,265.3 597.1,263.6 597.4,261.8 C598.4,255.9 620.8,154.2 627.5,125 C631,109.3 635.8,87.5 638.1,76.5 C645.8,40.1 651.6,24.6 661.7,14 C668.2,7.1 674.7,3.6 684.6,1.5 C698.5,-1.4 713.3,0.1 722.4,5.5 C735,12.8 744.9,28.5 748.1,46.1 C749,51 749,78.3 748,164.2 C747.3,225.7 747,276.2 747.3,276.5 C749.3,278.5 782.9,281.4 925.6,292 C1059.7,302 1105.6,305 1200.2,310 C1262.7,313.3 1315.9,316 1318.4,316 L1322.9,316 L1321,307.3 C1318.3,295 1307.3,255.6 1293.6,209 C1266.2,116.1 1263.4,104.9 1265,95.1 C1268.5,73.1 1288.7,56 1311.1,56 C1314.8,56 1319.7,56.7 1322,57.5 C1338,63.1 1359.6,86.6 1386.3,127.5 C1410.6,164.6 1418.7,181.4 1455.2,269.9 C1465.1,293.8 1473.2,313.5 1473.4,313.6 C1473.5,313.7 1481.5,314.6 1491.1,315.5 C1506.5,316.9 1525.8,317.1 1651.6,316.8 L1794.6,316.4 L1808.1,314.1 C1815.5,312.9 1844.8,307.6 1873.1,302.5 C1945.9,289.3 1956.2,287.7 1971.6,287.7 C1989,287.6 1999.9,289.9 2013.5,296.7 C2036.2,307.9 2048.5,327.7 2048.6,353 C2048.6,364.6 2047.2,371.4 2043,380.8 C2027.3,415.9 1977.9,449.6 1908.4,472.9 C1880.1,482.4 1854.8,488 1840.7,488 C1832.3,488 1809.1,484.7 1774.6,478.5 C1747.1,473.6 1738.7,472.5 1698.1,468.1 C1654.1,463.3 1530.3,451 1525.4,451 C1523.4,451 1535.6,485.1 1560.9,549.6 C1569.7,572 1574.8,583.4 1586.6,606 C1612.4,655.7 1617.1,667.8 1617.1,685.7 C1617.1,692.4 1616.5,695.5 1614.1,702.1 C1608.2,718.2 1591.5,747.1 1573.8,771.7 C1528.4,834.8 1480,874.4 1437.7,883.1 C1423.9,885.9 1414.5,885.5 1394.6,881 L1394.6,881 Z" id="Shape" sketch:type="MSShapeGroup"></path>
        </g>
    </g>
</svg>