<?xml version="1.0" encoding="UTF-8" standalone="no"?>
<svg width="2338px" height="2279px" viewBox="0 0 2338 2279" version="1.1" xmlns="http://www.w3.org/2000/svg" xmlns:xlink="http://www.w3.org/1999/xlink" xmlns:sketch="http://www.bohemiancoding.com/sketch/ns">
    <!-- Generator: Sketch 3.0.4 (8054) - http://www.bohemiancoding.com/sketch -->
    <title>Slice 2</title>
    <desc>Created with Sketch.</desc>
    <defs></defs>
    <g id="Page-1" stroke="none" stroke-width="1" fill="none" fill-rule="evenodd" sketch:type="MSPage">
        <g id="Group" sketch:type="MSLayerGroup" transform="translate(1168.600000, 1139.200000) scale(1, -1) translate(-1168.600000, -1139.200000) translate(0.100000, 0.200000)" fill="#000000">
            <path d="M1104.3,2276.7 C1088.8,2273.3 1073.8,2264.1 1066.8,2253.8 C1062,2246.7 1060.6,2241.8 1060.5,2232.2 C1060.4,2225.9 1060.9,2223.7 1063.2,2219 C1068,2209.2 1086.3,2192.4 1112.2,2174.1 C1142.1,2152.9 1156.2,2138.5 1169.3,2115.7 C1179.9,2097.3 1184.3,2082.2 1186.4,2057.7 C1189.4,2023 1193.9,1933.8 1192.7,1932.7 C1190.6,1930.6 1133.4,1924 1044.4,1915.7 C1023.5,1913.7 914.2,1902 801.4,1889.6 C688.7,1877.3 587,1866.3 575.4,1865.2 C563.9,1864.1 544.1,1862.1 531.5,1860.7 C507,1858 495.5,1857.7 484.4,1859.2 C471.9,1861 457.3,1865.2 447.5,1869.7 C403,1890.5 341.7,1907.5 298.9,1910.7 C272.9,1912.7 241.4,1900.2 234,1884.9 C232.5,1881.9 231.9,1878.6 231.9,1874.1 C231.9,1860.7 238.3,1853.3 282.8,1814.7 C297.3,1802.1 313.4,1787.8 318.6,1782.8 C353.1,1749.9 362.8,1722.8 367.9,1645.2 C369.7,1619.4 370.3,1491.1 369,1436.7 C359.3,1030 306.7,699.9 210.5,440.8 C181.3,362.4 148.5,290 99.2,195.7 C85.5,169.6 86.5,171.2 44.4,102.7 C26.2,73 8.6,44.1 5.4,38.4 C-6.25981905e-13,28.8 -0.3,27.8 0.2,23.2 C1.1,15.9 4.6,8.7 9.5,4.2 C13.3,0.7 14.4,0.2 18.7,0.2 C28.1,0.2 40.2,8.7 64.3,32.2 C127,93.4 232.4,231.8 278.1,313.2 C281.7,319.5 303.1,361.2 325.6,405.7 L366.7,486.7 L391.7,558.2 L416.8,629.7 L444.8,736.7 C472.1,841.3 473,844.9 483.3,897.2 L493.8,950.7 L505.8,1063.7 L517.8,1176.7 L522.9,1270.2 C529.2,1386.6 532.1,1463.1 535.8,1609 C537.4,1671.9 538.9,1723.5 539.1,1723.6 C540.4,1724.5 661,1740.4 961.1,1779.2 L1308.7,1824.2 L1485.1,1837.7 L1661.4,1851.2 L1835.4,1858.9 L2009.4,1866.7 L2062.4,1865.4 L2115.4,1864.1 L2155.9,1859.2 C2258.8,1846.6 2272.4,1846 2293.6,1852.7 C2312.5,1858.7 2328,1872.9 2334,1889.7 C2336.7,1897.2 2337.6,1910.1 2335.9,1918.5 C2334.5,1925.6 2329.6,1936.9 2324.8,1943.9 C2315.7,1957.1 2295.9,1974.2 2275.6,1986.3 C2231.5,2012.6 2167,2032.9 2118.4,2035.8 C2104,2036.7 2099.2,2035.8 2067.9,2026.6 C2053.9,2022.5 2036.3,2017.9 2028.9,2016.3 C2013.9,2013 1986.1,2008.6 1975.4,2007.8 C1971.6,2007.5 1828.6,1994.5 1657.7,1979 C1486.8,1963.5 1346.7,1951 1346.4,1951.3 C1344.9,1952.9 1349.8,1988.6 1361.4,2059.3 C1376.1,2149 1377,2157.3 1372.9,2170.6 C1370.1,2179.4 1362.5,2190.5 1353,2199.4 C1323,2227.7 1257.3,2253.8 1175.4,2270.1 C1136.5,2277.9 1117.7,2279.6 1104.3,2276.7 L1104.3,2276.7 Z" id="Shape" sketch:type="MSShapeGroup"></path>
        </g>
    </g>
</svg>