<?xml version="1.0" encoding="UTF-8" standalone="no"?>
<svg width="2383px" height="1379px" viewBox="0 0 2383 1379" version="1.1" xmlns="http://www.w3.org/2000/svg" xmlns:xlink="http://www.w3.org/1999/xlink" xmlns:sketch="http://www.bohemiancoding.com/sketch/ns">
    <!-- Generator: Sketch 3.0.4 (8053) - http://www.bohemiancoding.com/sketch -->
    <title>Untitled 4</title>
    <desc>Created with Sketch.</desc>
    <defs></defs>
    <g id="Page-1" stroke="none" stroke-width="1" fill="none" fill-rule="evenodd" sketch:type="MSPage">
        <g id="Group" sketch:type="MSLayerGroup" transform="translate(1191.800000, 689.800000) scale(1, -1) translate(-1191.800000, -689.800000) translate(0.800000, 0.800000)" fill="#000000">
            <path d="M1682.00001,1359.89997 C1700.40001,1321.69997 1698,1273.8 1695.7,1219.8 L1695,1202.3 L1664.8,1195 C1637.7,1188.5 1626.1,1186.4 1549.2,1174.1 C1465.9,1160.8 1463.3,1160.4 1448.2,1160.4 C1429.6,1160.5 1418.4,1162.3 1387.1,1170.2 C1351.7,1179.3 1321.8,1185.8 1315.9,1185.8 C1303.6,1185.8 1291.9,1178.1 1286.7,1166.6 C1284.1,1160.9 1283.8,1159.3 1283.9,1149.8 C1284,1135.6 1285.8,1131.1 1297.2,1117 C1302.1,1110.9 1307.2,1103.8 1308.5,1101.1 C1317.5,1083.2 1324.7,1042.4 1329.4,982.8 C1331,961.9 1331,903.7 1329.4,872.8 C1324.4,780.6 1320.1,741.7 1313.9,735 C1310.7,731.5 1305.3,729 1294.9,726.3 C1276.2,721.4 1242.8,717.1 1215.7,716.1 C1195.8,715.4 1195.5,715.5 1141.4,727.8 C1085.7,740.4 1079.2,741.1 1068.4,735.8 C1058.1,730.6 1052.2,721.6 1050.3,708.2 C1047.5,689 1056.5,669.7 1078.6,646.9 C1104.7,620.1 1145,595.2 1181.5,583.2 C1199.6,577.3 1205.6,577.4 1243.7,584.2 C1260.8,587.3 1288.4,592.2 1305.2,595.2 C1326.5,599 1372.1,605.4 1456.7,616.3 C1523.3,624.8 1578.4,632.1 1579.2,632.3 C1584.5,633.8 1649.8,638.5 1677.8,639.5 L1697.1,640.1 C1698.1,634.5 1698.2,590.2 1698,538.1 L1697.6,443.3 L1689.2,299.1 C1681.1,161.2 1680.8,154.4 1682,140.5 C1684.7,107.8 1693.8,72.6 1705.8,48.7 C1715.4,29.5 1730.2,12.9 1743.5,6.3 C1769.6,-6.5 1798.7,0.4 1816.7,23.9 C1833.6,45.7 1845.1,82.5 1850.7,132.3 C1854.7,168 1854.7,171.5 1854.2,340.3 C1853.9,430 1853.7,535.7 1853.7,575.3 L1853.7,647.3 L1865.2,651.2 L1876.7,655.1 L1925.2,655.5 C1951.9,655.6 1986.3,656.1 2001.7,656.6 C2017.5,657 2076.8,656.8 2138.2,656.1 L2246.7,654.8 L2260.7,652.3 C2318,642 2336.3,641.9 2357,651.3 C2366.5,655.7 2375.2,663.9 2379.4,672.6 C2382.3,678.4 2382.6,680 2382.6,687.7 C2382.4,705.6 2373.8,728.3 2358.1,751.8 C2340.1,778.8 2315.7,798.4 2289.5,807.1 C2268,814.2 2254.6,814.3 2210.2,807.8 C2144.1,798 2127.9,795.8 2115.7,794.9 C2108.6,794.3 2062.4,792.2 2013.2,790.3 C1954.2,788 1920.8,786.3 1915.2,785.3 C1894.9,781.8 1857.7,779 1855.8,780.8 C1855.5,781.1 1854.1,788.4 1852.7,797 L1850,812.7 L1851.5,944.5 C1852.9,1063 1853.2,1076.9 1854.7,1081.8 C1856.9,1089 1859.4,1092.3 1864.5,1095.1 C1868.7,1097.3 1869.1,1097.3 1921.7,1097.6 C1956.6,1097.8 1993.5,1097.4 2029.7,1096.3 C2060,1095.3 2088.1,1094.9 2092.3,1095.2 C2109.5,1096.6 2125.3,1103 2134.5,1112.2 C2148.3,1126 2148.8,1145.4 2135.9,1166.1 C2116.7,1196.8 2079.9,1220.1 2039.7,1227 C2029.2,1228.8 2025,1229 2005.2,1228.5 C1992.8,1228.2 1965.4,1226.8 1944.2,1225.4 C1896.3,1222.2 1871.8,1220.9 1871.3,1221.4 C1870.7,1222 1875.1,1247.9 1879.9,1272.3 C1882.9,1288 1883.6,1293.5 1883.6,1304.3 C1883.7,1316 1883.4,1318.2 1880.8,1326.1 C1877.4,1336.6 1869.4,1349.7 1860.3,1359.9 C1845.1,1376.8 1667.10001,1390.89997 1682.00001,1359.89997 Z M1701.3,1062.1 C1702.4,1055 1702.7,1026.3 1702.7,914.8 C1702.7,786.9 1702.6,776 1701,772.6 C1697.8,765.5 1690.9,763.4 1667.7,762.3 C1642,761.2 1565.6,754.5 1472.5,745.2 L1466.2,744.6 L1466.2,749.9 C1466.2,760.7 1468.2,831.9 1469.2,854.8 C1469.8,867.7 1472,909.1 1474.2,946.8 C1476.4,984.5 1478.4,1021.7 1478.8,1029.6 C1479.6,1046.1 1478.5,1044.6 1492.7,1049.2 C1525.3,1059.7 1608.3,1068.8 1682.7,1070.1 C1690.4,1070.3 1697.4,1070.5 1698.3,1070.6 C1699.7,1070.8 1700.2,1069.1 1701.3,1062.1 L1701.3,1062.1 Z" id="Shape" sketch:type="MSShapeGroup"></path>
            <path d="M1023.2,1295.1 C1016.4,1294 1000.4,1288.7 972.9,1278.7 C931.7,1263.6 918.9,1259.3 903.4,1255.2 C896.1,1253.3 847.7,1243.7 795.9,1233.8 C744.1,1223.9 700.1,1215.3 698.2,1214.8 C691.7,1213 685.1,1213.6 678.7,1216.7 C675.4,1218.2 662.1,1226.3 649.2,1234.5 C602.9,1264.1 590,1271.1 575.5,1274.9 C564.4,1277.8 535.9,1277.8 522.2,1274.9 C498.8,1269.9 487.1,1258.5 481.2,1234.7 L479,1226.1 L489.2,1209.7 C507.2,1180.5 510.6,1171.5 510.6,1152.3 C510.7,1138.3 508.8,1130.2 501.5,1111.8 C472,1037.6 375.9,918.1 254.1,804.2 C221,773.2 210.3,763.9 184.3,743.6 C144,712.2 125.9,696.3 119.6,686.8 C117.4,683.4 117,682 117.4,677.6 C117.9,671.1 122.2,661.5 126.5,657 C131.7,651.5 134.7,650.4 143.7,650.6 C178.4,651.2 248.8,688.3 342.2,755.1 C355.8,764.7 372.6,777.7 379.7,784 C386.8,790.2 398.9,800.9 406.6,807.7 C441.9,838.7 464.7,854.8 473.6,854.8 C478.2,854.8 484.5,852.6 487.7,849.9 C492.9,845.4 509.7,827.3 523.6,811 C534.3,798.6 549.4,777.7 595.7,711.4 C627.9,665.3 654.4,627.2 654.5,626.7 C654.6,626.3 649,618.3 642,609.1 C572.6,516.9 460.6,410.5 328,310.6 C302,290.9 269.7,267.9 247.7,253.2 C229.9,241.4 227.9,240.3 85.8,164.2 L0,118.3 L0.5,111.4 C1.2,103.6 4.2,96.6 8.3,93.6 C12.9,90.1 17.8,89.7 28.2,91.9 C74.2,101.4 189.9,138.9 262.4,167.9 C301.7,183.6 346.5,204 374.3,218.8 C495.6,283.7 620.6,378.1 729.2,486.9 C769.2,527.1 772.4,530.7 843.2,621.3 C899.8,693.6 913.6,711.8 929.6,735.8 C940.2,751.5 985.7,823.9 1030.7,896.8 L1112.7,1029.2 L1127.2,1043.8 C1141.1,1057.7 1168,1081 1184.4,1093.2 C1198.3,1103.5 1203.9,1111.4 1206.7,1124.4 C1209.9,1139.5 1207.8,1151.8 1199.2,1169.3 C1192.5,1182.7 1184.6,1193.8 1170.8,1209.1 C1138.5,1244.7 1080.2,1284.6 1046.9,1293.8 C1040.2,1295.7 1029.9,1296.2 1023.2,1295.1 L1023.2,1295.1 Z M949.6,1141.8 C954.4,1140 960,1133.9 962.2,1128.2 C963.3,1125.2 964.2,1121.8 964.2,1120.8 C964.2,1114.6 950.4,1084.1 929.7,1044.6 C907.8,1002.8 899.7,988.7 841.1,890.6 C787.5,800.8 785.2,797.2 768.9,775.8 C759.6,763.7 751.8,753.8 751.6,753.8 C751.4,753.8 748,760.2 744.1,768.1 C733.7,788.8 727.6,797.7 715.3,809.8 C687.2,837.7 621.2,884.2 582,903.9 C560.8,914.5 552.2,920.9 552.2,926.1 C552.2,929 557.7,936.2 595.4,983.5 C640,1039.4 651.4,1054.8 659.8,1070.5 C668.7,1087 675.6,1094.5 685.2,1097.6 C688.8,1098.8 702.5,1101.6 715.7,1103.8 C750.6,1109.7 929,1140.8 933.7,1141.8 C939.4,1142.9 946.6,1143 949.6,1141.8 L949.6,1141.8 Z" id="Shape" sketch:type="MSShapeGroup"></path>
        </g>
    </g>
</svg>