<?xml version="1.0" encoding="UTF-8" standalone="no"?>
<svg width="1142px" height="2023px" viewBox="0 0 1142 2023" version="1.1" xmlns="http://www.w3.org/2000/svg" xmlns:xlink="http://www.w3.org/1999/xlink" xmlns:sketch="http://www.bohemiancoding.com/sketch/ns">
    <!-- Generator: Sketch 3.0.4 (8054) - http://www.bohemiancoding.com/sketch -->
    <title>Slice 2</title>
    <desc>Created with Sketch.</desc>
    <defs></defs>
    <g id="Page-1" stroke="none" stroke-width="1" fill="none" fill-rule="evenodd" sketch:type="MSPage">
        <g id="Group" sketch:type="MSLayerGroup" transform="translate(570.600000, 1011.800000) scale(1, -1) translate(-570.600000, -1011.800000) translate(0.100000, 0.800000)" fill="#000000">
            <path d="M906.9,2018.9 C892.5,2015.8 845.3,2003.9 827.9,1998.9 C821.7,1997.1 763,1986.1 682.9,1971.8 L548.4,1947.7 L454.4,1935.2 C402.7,1928.3 352.3,1921.6 342.4,1920.3 C313.9,1916.5 294.9,1915.5 264.8,1916.1 C243,1916.5 235,1917.1 225.9,1918.7 C189.9,1925.3 165.1,1937.2 119.4,1969.8 C109,1977.3 99.9,1983.7 99.2,1984.1 C97.8,1985 83.7,1979.8 74.7,1975.1 C65.6,1970.4 58.8,1962.9 55.9,1954.6 C53.1,1946.5 52.1,1927.3 53.9,1916 C60,1878.1 91.5,1834.5 138.7,1798.9 C164.7,1779.3 197.9,1762.9 219.8,1758.8 C231.2,1756.7 237.5,1757.5 278.7,1766.3 C363.7,1784.6 384.5,1788.7 443.4,1798.3 C465.4,1801.9 539,1814.5 606.9,1826.3 L730.4,1847.7 L845.9,1856.3 C909.4,1861 966.1,1865.6 971.9,1866.4 C1015.1,1872.5 1038.6,1887.8 1045.4,1914.3 C1047.8,1923.8 1047.4,1939.1 1044.4,1948.5 C1035.6,1976.5 1005.8,2002 967,2014.8 C944,2022.4 928.7,2023.4 906.9,2018.9 L906.9,2018.9 Z" id="Shape" sketch:type="MSShapeGroup"></path>
            <path d="M882.4,1628.1 C871.2,1626.5 847.9,1619.1 802.9,1602.8 C761.2,1587.7 755.7,1586 725,1578.3 C643.5,1558.1 530.3,1534.8 379.8,1507.2 L327.4,1497.6 L299.9,1498.2 C232.5,1499.6 206.5,1504.5 167.6,1523.2 C144.3,1534.5 131.4,1537.8 111.3,1537.8 C91.5,1537.8 74.8,1531.7 63.5,1520.4 C56.1,1513 51,1503.7 50.2,1496.5 C49.7,1491.8 50.1,1490.5 54.1,1482.7 C59.4,1472.5 69.7,1457 88,1431.8 C112.3,1398.5 115.4,1392.9 124.4,1365.6 C138.1,1323.9 147.5,1277 159.4,1190.3 C180.7,1035.5 192.4,975.9 209.4,935.2 C216.1,919.2 222.3,909.5 231.9,899.7 C245,886.4 256.4,881.8 276,881.8 C288.9,881.8 296.6,883.9 305.7,889.8 C313.5,894.8 315.1,897.3 332.2,931.3 C347.7,962.1 352.2,969.5 357.6,973.2 C379.9,988.4 515.2,1019.5 673.9,1045.8 C742.6,1057.2 786.3,1062.8 820.4,1064.8 C848.2,1066.4 875.4,1068.6 888,1070.4 C924.2,1075.4 942,1086.2 954.2,1110.3 C964.2,1130.3 979.4,1182.5 1008.7,1298.3 L1020.7,1345.3 L1035.1,1377.8 C1056.6,1425.9 1069.5,1458.5 1074,1476.1 C1076.5,1486 1076.2,1495.6 1073,1504 C1061.8,1533.3 1012.8,1573.3 948.9,1605.3 C916,1621.8 893.2,1629.6 882.4,1628.1 L882.4,1628.1 Z M855.4,1470.7 C865.4,1468.8 872.9,1462.2 872.9,1455.3 C872.9,1453.5 872,1447.6 870.9,1442.2 C869.7,1436.7 861.4,1384.2 852.4,1325.4 C838.1,1232.7 835.5,1217.4 832.8,1209.9 C828.8,1198.8 826.3,1194.9 822.5,1193.3 C818.7,1191.7 792.3,1187.2 781.4,1186.2 C777,1185.9 678.9,1166.5 563.4,1143.2 C358.9,1101.9 353.1,1100.8 341.9,1100.8 L330.3,1100.8 L326.6,1112.2 C323,1123 322,1129.7 308.3,1229 C294.6,1328.1 289.8,1369.2 291.6,1370.8 C292,1371.2 368.2,1386.6 460.9,1405.1 C605.1,1433.9 642.5,1441 719.9,1454.2 C806.6,1469.1 821.2,1471.4 832.4,1472.1 C838.9,1472.5 849.1,1471.9 855.4,1470.7 L855.4,1470.7 Z" id="Shape" sketch:type="MSShapeGroup"></path>
            <path d="M753.5,1013.3 C741.3,1010.2 730.2,1002.5 725.5,993.8 C719.1,982 720.6,973.9 739.9,918.3 C759.7,861.3 760.4,858 757.5,836.1 C750,779.3 708.3,604.9 681.3,517.5 C672.9,490.2 654.5,444.6 639.8,414.4 L636.4,407.4 L574.6,378.5 C540.6,362.6 512.7,349.7 512.5,349.9 C512.1,350.3 509.8,364.8 485.4,522.8 C479.1,563.8 473,601.8 471.8,607.3 C462.7,651.1 444.1,686 406.8,729.3 C361.5,782 335,805.7 311.4,814.8 C306.8,816.6 303.3,817.2 296.4,817.2 C288.4,817.3 286.7,817 281.6,814.4 C273.4,810.4 265.6,802.4 261.6,794.1 C255.1,780.3 257,771.8 291.9,653.3 C323.8,544.9 351.1,437.9 365.3,365.3 C372.7,327.4 378.8,286.2 377.2,284.8 C376,283.7 323.9,263.2 294.9,252.5 C250.4,236 216,225.1 194.7,220.8 C162.7,214.2 131.3,223.7 95.4,250.8 C86.6,257.5 76.2,264.5 72.3,266.4 C53.8,275.6 35.6,272.6 20.8,257.9 C2.8,239.9 -4.4,211.9 2.7,187.8 C10.5,161.4 30.3,131.6 62.8,97.6 C103.9,54.7 163.2,12.1 196.3,1.9 C204.7,-0.7 218.1,-0.9 226,1.4 C229,2.3 234.8,4.8 238.9,7 C243,9.3 291.9,41.3 347.4,78.3 L448.5,145.6 L743.4,305.8 C916.8,400 1043.7,469.5 1051.4,474.5 C1101.8,507.5 1136,537.4 1139.9,551.9 C1144.1,567.5 1128.6,575.5 1101.2,571.7 C1078.5,568.6 1057.9,561.4 909.9,504.4 C842,478.2 786.1,456.9 785.7,457 C784.8,457.4 790.3,470.1 807.2,506.5 C814.7,522.6 822.5,539.7 824.5,544.5 C829.2,555.6 917.2,745.1 932.6,777.3 C953.3,820.6 954.4,823.7 953.6,836.7 C952.7,852.1 945.9,868.4 931.6,890.2 C919.8,908 908.8,921 888.5,941.3 C853.2,976.6 818.3,1000.9 788.8,1010.9 C777.4,1014.8 763.2,1015.7 753.5,1013.3 L753.5,1013.3 Z" id="Shape" sketch:type="MSShapeGroup"></path>
        </g>
    </g>
</svg>