<?xml version="1.0" encoding="UTF-8" standalone="no"?>
<svg width="2268px" height="2108px" viewBox="0 0 2268 2108" version="1.1" xmlns="http://www.w3.org/2000/svg" xmlns:xlink="http://www.w3.org/1999/xlink" xmlns:sketch="http://www.bohemiancoding.com/sketch/ns">
    <!-- Generator: Sketch 3.0.4 (8054) - http://www.bohemiancoding.com/sketch -->
    <title>Slice 2</title>
    <desc>Created with Sketch.</desc>
    <defs></defs>
    <g id="Page-1" stroke="none" stroke-width="1" fill="none" fill-rule="evenodd" sketch:type="MSPage">
        <g id="Group" sketch:type="MSLayerGroup" transform="translate(1133.900000, 1054.350000) scale(1, -1) translate(-1133.900000, -1054.350000) translate(0.300000, 0.700000)" fill="#000000">
            <path d="M1608.5,2106.9 C1592.5,2105.3 1553,2097.7 1500.8,2086.4 C1486.8,2083.3 1440,2074.4 1396.8,2066.4 L1318.2,2052 L961.2,2009 C764.9,1985.4 600.2,1965.8 595.2,1965.4 C572.6,1963.8 524.7,1970.3 483.2,1980.6 C459,1986.7 455.9,1987.8 426.6,2002 C396.1,2016.9 379.4,2024.3 368.3,2028 C362,2030.1 360.1,2030.2 348.8,2029.7 C338,2029.2 310.1,2025.7 309.1,2024.7 C307.9,2023.5 304.5,1997 304,1985.5 C303.4,1968.4 304.7,1961.5 311.3,1948.3 C331.6,1907.9 397.3,1853.1 470.2,1816 C496.6,1802.5 519,1794.4 534.7,1792.5 C537.7,1792.1 544,1792.4 548.6,1793 C558.9,1794.4 601.3,1804.9 627.7,1812.5 C667,1823.9 719.2,1835.9 808.2,1854 L897.2,1872.1 L1125.7,1897.4 L1354.2,1922.8 L1399.7,1924 C1470.8,1925.8 1516.4,1925.4 1594.2,1922 C1626.3,1920.6 1632.1,1919.9 1672,1913.5 C1814.4,1890.4 1819.2,1890 1841.4,1900.6 C1869.5,1914 1887.6,1945.5 1883.7,1974.1 C1881.5,1990.1 1875.8,2001.4 1863.3,2014.7 C1855.1,2023.5 1842.6,2032.5 1830.3,2038.7 C1803.2,2052.3 1685.1,2092.4 1639.7,2103.3 C1622.4,2107.5 1618.6,2107.9 1608.5,2106.9 L1608.5,2106.9 Z" id="Shape" sketch:type="MSShapeGroup"></path>
            <path d="M1630.2,1672.5 C1614.8,1669.7 1592.5,1663.4 1533.7,1645 C1478.8,1627.9 1479.1,1627.9 1398.7,1619 C1383.6,1617.3 1280.5,1603.8 1169.7,1588.9 L968.2,1561.9 L827.2,1546.9 C749.7,1538.7 681.5,1531.3 675.7,1530.6 C627.4,1524 584.5,1527.1 528.2,1541 C465.2,1556.5 428.1,1564 413.7,1564 C397.9,1564 383,1558.1 372.3,1547.6 C364,1539.3 360.5,1532 359.9,1521.5 C359.1,1506.4 362,1501.5 386.9,1474.8 C418.3,1441.2 429.2,1426.8 440.6,1403.5 C456.1,1372.1 461.7,1352.6 486.7,1241 C492.8,1213.8 502.8,1171.3 508.9,1146.5 C554.7,960.4 555.7,956.4 564.1,934.6 C573.5,910.4 583.2,894.5 596,882.3 C610.4,868.7 624.5,863 643.8,863 C658.8,863 659.5,863.3 678.3,877.4 C685.2,882.6 712.5,904.4 722.7,912.8 C726.2,915.7 726.8,915.8 881.7,939.8 L1037.2,963.9 L1158.7,976 L1280.2,988.2 L1338.2,987.7 C1393.9,987.3 1396.9,987.2 1414.7,984.7 C1506.1,971.9 1499.9,972.6 1521.2,972.6 C1538.9,972.5 1542.1,972.8 1549.3,974.8 C1571.1,980.7 1587.9,991.1 1605.2,1009.2 C1625.5,1030.3 1636.3,1048.6 1667.1,1113.5 C1677.8,1136.1 1705.5,1191.9 1728.7,1237.5 C1751.9,1283.2 1775.3,1329.3 1780.7,1340 C1800.6,1379.3 1813.9,1400.3 1836.7,1428 C1854.8,1450.1 1861.1,1459.3 1863.7,1467.9 C1866.1,1475.7 1866.3,1488.2 1864.2,1496.5 C1857.8,1521 1831.9,1548.1 1769.7,1595.6 C1706,1644.2 1677.2,1662.9 1654.5,1670.4 C1644.9,1673.5 1638.7,1674.1 1630.2,1672.5 L1630.2,1672.5 Z M1603.9,1499.6 C1609.6,1497.5 1614.2,1492.5 1615.8,1486.8 C1617.3,1481.1 1616.4,1454.1 1614.2,1443.2 C1613.3,1438.6 1611.5,1431.2 1610.2,1426.7 C1607.9,1418.7 1522.5,1191.1 1515.3,1173.7 C1505.5,1150 1495.4,1133.6 1487,1127.8 C1479.7,1122.8 1475.3,1122 1456.1,1122 C1429.2,1122 1360.9,1117.6 1260.2,1109.4 C1227.9,1106.8 1015.8,1082.8 902.7,1068.9 C866.7,1064.5 827.5,1059.8 815.7,1058.5 C803.9,1057.2 776.2,1053.8 754.2,1051.1 C732.2,1048.4 710.7,1045.8 706.5,1045.4 L698.8,1044.7 L697.7,1049.1 C697,1051.5 682.7,1129.1 665.8,1221.5 C639.4,1366.3 635.3,1389.6 636.7,1390.2 C637.5,1390.6 761.1,1408.9 911.2,1430.9 L1184.2,1470.9 L1278.2,1481 C1329.9,1486.5 1376.2,1491.7 1381.1,1492.5 C1386,1493.3 1395.1,1494 1401.3,1494 C1411.3,1494 1506.7,1498.7 1542.7,1501 C1550.1,1501.4 1565.9,1501.7 1577.7,1501.5 C1595.1,1501.3 1600.1,1501 1603.9,1499.6 L1603.9,1499.6 Z" id="Shape" sketch:type="MSShapeGroup"></path>
            <path d="M1433.5,945 C1416.8,942 1404.5,934.7 1385.2,916.7 L1376.3,908.4 L1381.6,898.9 C1388.9,886 1396.1,875.9 1409.2,860 C1424.1,842 1428.4,836 1433.3,826.4 C1438.9,815.6 1441.1,805.4 1440.4,793.6 C1440,785.1 1437.7,777.5 1406.7,678.5 C1388.5,620.2 1370.4,562.6 1366.6,550.5 C1347.8,490.4 1288.8,331.3 1267,281.8 C1261.9,270.3 1260,266.9 1258.3,266.5 C1256,266 1233.7,263.1 1209.2,260 C1041.3,239.2 732.4,214.8 410.7,197 C231.7,187.1 217.5,187.4 169.3,201.2 C151.5,206.3 143.8,209.3 112,223.4 C52.2,249.9 38,254 26.9,248.1 C9,238.8 -3.8,207 1.1,184 C6.9,156.6 37.7,120.8 87.9,82.9 C133.2,48.8 190,17.2 228.7,4.5 C243.2,-0.3 255.8,-1.2 271.8,1.5 C294.9,5.3 342.5,15.7 413.2,32.5 C422.2,34.6 499,47.3 605.7,64.4 L783.2,92.8 L936.7,108.9 L1090.2,125 L1308.7,139.5 L1527.2,153.9 L1677.8,152.5 L1828.4,151.1 L1884.8,146 L1941.2,140.9 L2061.7,122.9 C2180.6,105.1 2182.4,104.9 2195.2,105.3 C2211,105.9 2220.6,108.2 2233.5,114.5 C2249.4,122.4 2260.6,135.9 2265.3,153 C2268,162.7 2267.8,185.7 2264.9,196.3 C2258.2,220.8 2240.1,239.5 2207.6,255.3 C2146.3,285.1 2028.2,326 1979.3,334.5 C1960.6,337.7 1952.1,336.1 1890.2,317.9 C1875,313.5 1863.9,311 1843.7,307.6 C1816,302.9 1788.1,298.9 1771.2,297 C1761.2,295.9 1382.6,274.7 1382.1,275.2 C1382,275.4 1387.6,283.6 1394.7,293.5 C1405.5,308.8 1418.8,331.3 1482.9,443.5 C1540.9,544.8 1568.9,592.6 1603.5,649.2 C1677.8,770.7 1678.7,772.4 1678.7,791.5 C1678.7,807.7 1670.6,822.3 1650.2,842.5 C1608.2,884.3 1524.8,930.8 1469.7,943 C1459.2,945.4 1440.8,946.4 1433.5,945 L1433.5,945 Z" id="Shape" sketch:type="MSShapeGroup"></path>
            <path d="M583.3,797.8 C580,785.6 577.7,773.4 578.2,771 C579.6,764.8 598,737.5 646.2,670 C676.7,627.4 679.2,623.7 693,600.4 C715.9,561.8 725,545.7 735.7,524.5 C755.9,484.6 767.4,450.9 780.6,392.9 C791.5,345.1 793.1,339 797.9,324.5 C806.4,298.6 815.4,283.1 829.1,270.3 C842.1,258.1 856.2,252.8 875.7,252.7 C893.3,252.6 905.1,257.4 917.8,270 C929.6,281.7 937.8,295.7 945,316.5 C959.7,359.1 961,412.7 948.2,457 C926.2,533.3 866.7,604 749.2,693.6 C739.9,700.8 719.6,716.3 704.2,728.1 C646.6,772.1 628.6,783.5 598.5,794.4 C584.6,799.4 583.8,799.6 583.3,797.8 L583.3,797.8 Z" id="Shape" sketch:type="MSShapeGroup"></path>
        </g>
    </g>
</svg>