<?xml version="1.0" encoding="UTF-8" standalone="no"?>
<svg width="1352px" height="2418px" viewBox="0 0 1352 2418" version="1.1" xmlns="http://www.w3.org/2000/svg" xmlns:xlink="http://www.w3.org/1999/xlink" xmlns:sketch="http://www.bohemiancoding.com/sketch/ns">
    <!-- Generator: Sketch 3.0.4 (8054) - http://www.bohemiancoding.com/sketch -->
    <title>Slice 2</title>
    <desc>Created with Sketch.</desc>
    <defs></defs>
    <g id="Page-1" stroke="none" stroke-width="1" fill="none" fill-rule="evenodd" sketch:type="MSPage">
        <g id="Group" sketch:type="MSLayerGroup" transform="translate(676.000000, 1209.100000) scale(1, -1) translate(-676.000000, -1209.100000) translate(0.000000, 0.600000)" fill="#000000">
            <path d="M682.5,2416.6 C664.9,2414.6 649.4,2407.9 639.3,2398 C632.2,2391 628.4,2383.8 626.8,2374.3 C624,2357.7 631.4,2346.2 662.7,2318.3 C716.8,2270.2 729.7,2233.8 733.9,2118.1 C734.5,2103.3 735.2,2046.6 735.5,1992.1 C736.1,1883.6 736.6,1851.5 741,1630.6 C745.8,1386.9 746,1373.9 746,1258.6 C746,1155.4 745.9,1147.9 744.2,1144.6 C743.3,1142.7 741.1,1140.4 739.4,1139.4 C731.6,1134.9 672.8,1124.1 539.7,1102.6 C515.5,1098.7 477.7,1092.2 455.7,1088.1 C275.2,1054.9 191.5,1042.1 145,1041 C122.2,1040.4 127.5,1039.7 74.5,1050.2 C53.4,1054.4 48.9,1054.9 37,1055 C24.2,1055.1 23.2,1055 18.5,1052.4 C12.4,1049.3 5.5,1042 3,1036.3 C-4.8,1018.4 4,998.4 31.7,971.5 C64.7,939.4 124.3,904.1 167.5,891 C175,888.7 178.5,888.2 188,888.2 C198.4,888.1 201.1,888.5 216,892.3 C241.1,898.7 301.2,915.2 342.5,927.1 L379.5,937.7 L548,969.7 C715.8,1001.6 732.4,1004.5 741.1,1004.6 L745.6,1004.6 L747.3,981.4 C751.3,926.7 751.3,924 748.6,717.7 C745.9,522.5 745.9,521.8 740.3,373.1 C734.3,212 734.3,211 738.6,173.9 C749.6,78.7 775.5,18.7 811.8,4.1 C835,-5.2 857.2,1.4 873,22.4 C895.2,51.6 908.7,106.2 915,192.1 C917.2,221.2 917.1,302.2 914.6,653.1 C913.2,851.7 912,1016.6 912,1019.7 L912,1025.4 L918.8,1027 C932.4,1030.2 939.4,1030.8 1044,1038.7 C1102.6,1043.1 1154.3,1047.1 1159,1047.6 C1163.7,1048.1 1189.8,1049 1217,1049.6 C1244.2,1050.1 1269.7,1051 1273.5,1051.6 C1303.6,1055.8 1322.6,1063.3 1335.6,1076.1 C1346.9,1087.2 1351.9,1100.4 1352,1118.7 C1352.1,1158.3 1318.2,1189.2 1257.9,1204.5 C1238.9,1209.3 1223.7,1211.6 1205.5,1212.3 C1192.1,1212.8 1190.8,1212.7 1175,1209.2 C1165.9,1207.3 1142.8,1201.8 1123.5,1197.1 C1087,1188.2 1061.7,1183.6 1014.5,1177.1 C978,1172.1 933.3,1166.7 921.9,1166 L912.3,1165.3 L910.6,1171.5 C909.6,1174.9 908.5,1181.6 908,1186.4 C907.4,1191.5 907,1324.2 907,1504.1 L907,1813.1 L910.1,1948.1 C911.7,2022.4 913.5,2086.7 914.1,2091.1 C914.6,2095.5 917.3,2116.4 920,2137.6 C927.8,2198 928.2,2202.2 928.1,2218.7 C928,2263.4 917.6,2286.8 885,2316.3 C871.5,2328.6 838.3,2355.2 822.8,2366.2 C790.7,2389.1 760.7,2404.5 734.9,2411.5 C718.5,2416 696.1,2418.2 682.5,2416.6 L682.5,2416.6 Z" id="Shape" sketch:type="MSShapeGroup"></path>
            <path d="M226.2,2036.5 C223.3,2035 221.1,2032.9 219.2,2029.7 C216.8,2025.6 216.5,2024.2 216.6,2016.1 C216.6,2008.6 217.2,2005.7 219.8,1998.7 C223.7,1988.3 229.3,1978 238.1,1965.1 C290,1888.7 419.2,1782 487,1759.5 C510.8,1751.6 531.5,1755.7 546,1771.2 C556.5,1782.5 560.5,1794.1 560.4,1813.1 C560.2,1836.2 551.4,1862.2 534.2,1890 C516.8,1918.2 489.2,1946.7 464.7,1962 C455.9,1967.5 437.9,1974.1 361,2000 C284.6,2025.8 242.6,2038.6 234.6,2038.6 C232.3,2038.6 228.6,2037.6 226.2,2036.5 L226.2,2036.5 Z" id="Shape" sketch:type="MSShapeGroup"></path>
            <path d="M121.7,1589.5 C118.4,1585.7 118,1584.6 118,1579.6 C118,1575.3 118.8,1572.4 121.5,1566.8 C140.1,1527.8 222.2,1442.6 304.2,1377 C365,1328.3 417.2,1297.1 454.6,1287 C462.3,1285 467,1284.3 475.5,1284.2 C487.6,1284.1 492.5,1285.5 504.8,1292.7 C512.2,1297.1 528.5,1313.5 532.9,1320.9 C546.2,1343.5 544.7,1367.6 528,1402.4 C509.5,1440.9 476.4,1475.4 442.5,1491.6 C437.9,1493.8 369.2,1517.5 289.8,1544.3 L145.5,1593 L135.4,1593.4 L125.3,1593.8 L121.7,1589.5 L121.7,1589.5 Z" id="Shape" sketch:type="MSShapeGroup"></path>
        </g>
    </g>
</svg>