<?xml version="1.0" encoding="UTF-8" standalone="no"?>
<svg width="2199px" height="1315px" viewBox="0 0 2199 1315" version="1.1" xmlns="http://www.w3.org/2000/svg" xmlns:xlink="http://www.w3.org/1999/xlink" xmlns:sketch="http://www.bohemiancoding.com/sketch/ns">
    <!-- Generator: Sketch 3.0.4 (8054) - http://www.bohemiancoding.com/sketch -->
    <title>Slice 2</title>
    <desc>Created with Sketch.</desc>
    <defs></defs>
    <g id="Page-1" stroke="none" stroke-width="1" fill="none" fill-rule="evenodd" sketch:type="MSPage">
        <g id="Group" sketch:type="MSLayerGroup" transform="translate(1099.300000, 657.500000) scale(1, -1) translate(-1099.300000, -657.500000) translate(0.300000, 0.500000)" fill="#000000">
            <path d="M1360.2,1313.9 C1359.1,1313.6 1354.6,1312.5 1350.2,1311.4 C1337.8,1308.3 1321.8,1303.2 1290.7,1292.4 C1262.6,1282.7 1260.1,1282 1115.7,1246.6 C992.7,1216.4 952.6,1207 865.4,1188 C775.1,1168.3 758.9,1165.1 740.9,1163 C729.5,1161.6 715.8,1160.5 710.3,1160.5 C694.7,1160.5 669.2,1166.3 644.4,1175.5 C632,1180.1 604.6,1193.1 592.2,1200.2 C582.6,1205.7 562.4,1219.1 554.4,1225.2 L548.7,1229.6 L536.6,1227.6 C510.9,1223.2 497.7,1215.5 491,1200.8 C481.8,1180.8 488.2,1155.9 511.5,1120.4 C545.3,1069.1 600.7,1019.2 643.7,1001.5 C666.8,992 685.3,992.1 724.9,1002.1 C746.8,1007.6 765.4,1013.5 865.7,1047 L960.2,1078.5 L1061.7,1106.9 L1163.2,1135.3 L1197.2,1140.9 C1261.4,1151.4 1266.1,1152 1267.2,1148.5 C1268.3,1145.1 1263.1,1131.7 1252.8,1110.8 C1236.7,1078.2 1216.2,1044.4 1193.4,1012.5 C1178.1,991 1036.6,809.6 1024.3,795.6 C1012.5,782.2 967.5,732.7 956.1,720.7 L948.2,712.4 L907.7,736.8 C885.4,750.2 812.7,795.7 746,837.8 C679.3,880 620,917.2 614.1,920.5 C591.3,933.1 578.5,937.2 557.1,938.5 C540.8,939.5 509.6,938.4 501.7,936.5 C490.3,933.7 475.8,921.9 460.4,902.8 L454.6,895.6 L458.2,887.3 C465.8,869.9 473.2,860.4 485.2,852.2 C488.4,850 506.7,840.1 525.7,830.2 C586.8,798.5 586.5,798.7 668.7,743.2 C705.3,718.5 763.7,679.2 798.4,655.7 L861.7,613.1 L854.9,606.1 C851.2,602.2 836.5,586.7 822.2,571.6 C806.6,555.2 792.4,541.2 786.7,536.7 C764,518.6 703.9,468.7 667.2,437.4 C651.6,424.2 480.7,290.4 465.6,279.7 C448.8,267.7 382.2,227.8 312.7,188 C242.9,148.1 255,153.7 135.7,106.6 C77.1,83.4 27.8,63.8 26,63 C22.9,61.6 1.3,45.2 0.2,43.5 C-0.1,43 0.6,42.3 1.9,42 C3.2,41.7 12.5,39.4 22.7,36.8 C40.1,32.4 41.9,32.1 53.4,32.3 C110.3,32.9 239.5,68.4 359.7,116.3 C412.4,137.3 416.2,139.2 536.2,202.5 L637.2,255.7 L735.6,324.9 L834,394 L907.6,455.8 C948.1,489.8 981.7,517.9 982.3,518.1 C983,518.4 1063.1,460 1160.3,388.3 C1310,278 1357.2,242.6 1467.2,158 C1538.7,103 1602.8,53.8 1609.7,48.6 C1634.5,29.8 1657.6,15.9 1675.2,9.1 C1691.5,2.9 1692.8,2.8 1765.7,1.6 C1802.3,1 1836.9,0.3 1842.7,6.97032709e-13 C1850.9,-0.3 1875.2,1.6 1955.2,9.1 C2054.9,18.4 2058.6,18.8 2117.7,27.5 C2151,32.5 2179.2,36.7 2180.4,37 C2182.8,37.6 2197.1,49.1 2197.5,50.9 C2197.9,52.5 2184.3,63.4 2175.7,68.4 C2172.1,70.5 2165.4,73.9 2160.7,75.9 C2145.6,82.2 2028,128.6 1923.2,169.5 C1830,205.8 1812.5,213 1720.7,252.9 L1620.2,296.6 L1463.2,382.5 C1334.9,452.6 1289.9,477.8 1217.2,520.2 C1134.7,568.3 1080.7,600.9 1080.7,602.8 C1080.7,603.2 1084.4,607.7 1088.8,612.8 C1093.3,617.9 1106.3,633.3 1117.6,647 C1155,692.5 1168,707.8 1187.7,729.5 C1213.9,758.4 1225.8,772.1 1235.3,784 C1268,825.4 1453.1,1051.2 1461.1,1059.5 C1466.7,1065.3 1485.8,1084 1503.5,1100.9 C1547.2,1142.7 1554.9,1152.2 1557.8,1168 C1559.6,1177.5 1558.5,1191.9 1555.6,1199 C1545.9,1222.6 1514.1,1250.5 1467.4,1276.5 C1440.9,1291.2 1408.2,1305.2 1386.5,1311 C1377.5,1313.5 1364.2,1314.9 1360.2,1313.9 L1360.2,1313.9 Z" id="Shape" sketch:type="MSShapeGroup"></path>
        </g>
    </g>
</svg>