<?xml version="1.0" encoding="UTF-8" standalone="no"?>
<svg width="1521px" height="2058px" viewBox="0 0 1521 2058" version="1.1" xmlns="http://www.w3.org/2000/svg" xmlns:xlink="http://www.w3.org/1999/xlink" xmlns:sketch="http://www.bohemiancoding.com/sketch/ns">
    <!-- Generator: Sketch 3.0.4 (8054) - http://www.bohemiancoding.com/sketch -->
    <title>Slice 2</title>
    <desc>Created with Sketch.</desc>
    <defs></defs>
    <g id="Page-1" stroke="none" stroke-width="1" fill="none" fill-rule="evenodd" sketch:type="MSPage">
        <g id="Group" sketch:type="MSLayerGroup" transform="translate(760.900000, 1029.200000) scale(1, -1) translate(-760.900000, -1029.200000) translate(0.900000, 0.500000)" fill="#000000">
            <path d="M1291.6,2056.8 C1282.8,2055.5 1261.4,2049.5 1217.9,2036 C1196.6,2029.5 1173.7,2022.7 1166.9,2021 C1147.6,2016.1 883.6,1978.4 689.6,1952.9 C597.8,1940.8 516.2,1930 508.5,1928.9 C475.3,1924.3 400.7,1917.2 344.6,1913.3 C313.5,1911.2 239.9,1910.3 225,1911.8 C202.1,1914.2 182.3,1920 137.7,1937.4 C110.6,1947.9 103.3,1950.1 89.6,1951.8 C76.8,1953.4 55,1953.2 46.6,1951.4 C36,1949.2 26.3,1944 19.9,1937 C14.2,1930.9 7.5,1918.9 2.7,1906.4 L0,1899.4 L15.3,1883.9 C36.6,1862.4 49.9,1844.3 61.5,1821.1 C89.5,1765.4 104.1,1684.9 108.6,1562.4 C109.6,1535 122.1,880.8 122.1,854.9 C122.1,830.3 113.4,448.6 110.6,351.4 C108.4,273.3 107.4,255.4 102.5,210.4 C98.2,171 98.2,159.4 102.5,143.4 C112.8,104.9 133.7,62.1 155,35.7 C162.9,25.9 176.3,13.4 183.5,9 C194.7,2.3 200.5,0.5 213.2,0.1 C246.6,-1 263.4,13 278.9,54.9 C281.7,62.3 284.5,70.3 285.2,72.7 C285.9,75 286.7,76.9 287.1,76.9 C287.5,76.9 337.5,84.1 398.2,92.9 C501.9,107.9 514.5,109.5 606.1,119.4 C704,129.9 963.5,155.1 1013.1,158.8 C1074.3,163.4 1110.5,164.8 1142.6,163.7 C1182.7,162.4 1204.1,157.8 1231.7,144.4 L1244.7,138.1 L1247.5,130.7 C1255.8,109.1 1273.9,76.5 1293,48.8 C1307.5,27.8 1314.6,22.8 1335.1,19.2 C1346.3,17.2 1365.5,18 1376.6,20.8 C1423.3,32.9 1451.8,81.3 1458.1,158.9 C1461.9,206.6 1463.1,289.9 1467.1,780.9 C1470.1,1151.9 1470.1,1154 1474.1,1303.9 C1477.9,1446.2 1485.3,1674.2 1486.6,1689.4 C1488.9,1714.8 1501.4,1786.1 1512.2,1834.9 C1519.8,1868.8 1520.3,1871.9 1519.9,1880.4 C1519.2,1896.9 1512.6,1906.6 1480.7,1938.4 C1448.5,1970.5 1393.2,2018.1 1368.3,2035 C1350,2047.5 1331.7,2054.9 1315.1,2056.4 C1301.8,2057.6 1297.4,2057.7 1291.6,2056.8 L1291.6,2056.8 Z M1239.6,1874.9 C1264.6,1873.3 1282.2,1869.9 1292.1,1864.9 C1298.2,1861.8 1302.3,1852 1305.6,1833.4 C1309.1,1813.2 1310.2,1794.6 1310.7,1749.9 C1311.1,1711.6 1310.6,1689.3 1307.3,1590.1 C1305.1,1526.7 1303.1,1474.6 1303,1474.4 C1302.8,1474.2 1279,1472.9 1250.1,1471.4 L1197.6,1468.8 L1070.1,1452.8 C1000,1444.1 931.6,1435.3 918.1,1433.4 C857.1,1424.8 726.9,1408.2 702.1,1405.9 C686.3,1404.4 478.5,1375.7 459.1,1372.4 C418.5,1365.3 288.2,1349.6 279,1350.7 L276.3,1351 L275.8,1497.2 C275.3,1634.8 274.7,1672.2 272,1732.2 C271.4,1745.9 271.1,1757.3 271.4,1757.5 C271.6,1757.8 288.7,1760.9 309.2,1764.4 C341.8,1770.1 386.3,1775.8 653.1,1809 C1027.3,1855.4 1196.1,1875.6 1212.1,1875.8 C1218.4,1875.8 1230.8,1875.4 1239.6,1874.9 L1239.6,1874.9 Z M1299.4,1332.3 L1311.1,1331.7 L1311.1,1302.1 C1311.1,1266.4 1306.4,926.7 1305.8,918.8 C1305.5,915.8 1304.4,911.4 1303.2,909 C1299,900.8 1330.2,904.3 945.6,868.9 C443.8,822.7 281.8,807.8 281.5,808.1 C280.9,808.8 278.9,983.1 278.4,1089 L277.8,1208.6 L284.2,1209.7 C287.7,1210.3 344.8,1219.4 411.1,1229.8 L531.6,1248.8 L781.1,1280.9 L1030.6,1312.9 L1150.6,1322.8 C1216.6,1328.3 1272.6,1333 1275.1,1333.2 C1277.6,1333.4 1281.4,1333.4 1283.6,1333.3 C1285.8,1333.1 1292.9,1332.7 1299.4,1332.3 L1299.4,1332.3 Z M1304.8,756.4 C1305.9,750.5 1305.1,714.1 1299.4,516.9 C1295.8,389 1292.7,284.3 1292.6,284.1 C1292.4,283.9 1289.5,285.7 1286,287.9 C1266.3,300.7 1243.3,307.4 1214.6,308.8 C1197.8,309.6 1163,308.5 1136.1,306.4 C1125.4,305.6 980.5,290.3 814.1,272.5 C579.3,247.3 489,238 410.4,230.9 C332.9,224 306.3,221.9 296.5,222.1 L283.7,222.4 L282.7,225.4 C282,227.5 281.5,297.5 281.4,448.1 L281.1,667.9 L283.3,668.4 C311.3,674.7 509.5,695.3 838.1,725.9 C1086.3,749.1 1263.7,763.9 1290.6,763.6 L1303.6,763.4 L1304.8,756.4 L1304.8,756.4 Z" id="Shape" sketch:type="MSShapeGroup"></path>
        </g>
    </g>
</svg>