<?xml version="1.0" encoding="UTF-8" standalone="no"?>
<svg width="812px" height="1981px" viewBox="0 0 812 1981" version="1.1" xmlns="http://www.w3.org/2000/svg" xmlns:xlink="http://www.w3.org/1999/xlink" xmlns:sketch="http://www.bohemiancoding.com/sketch/ns">
    <!-- Generator: Sketch 3.0.4 (8054) - http://www.bohemiancoding.com/sketch -->
    <title>Slice 2</title>
    <desc>Created with Sketch.</desc>
    <defs></defs>
    <g id="Page-1" stroke="none" stroke-width="1" fill="none" fill-rule="evenodd" sketch:type="MSPage">
        <g id="Group" sketch:type="MSLayerGroup" transform="translate(405.600000, 991.000000) scale(1, -1) translate(-405.600000, -991.000000) translate(0.100000, 1.000000)" fill="#000000">
            <path d="M612.9,1977.1 C599.2,1972.4 581.8,1964.1 542.8,1943.9 C522.7,1933.5 503.5,1923.9 500.1,1922.5 C482.5,1915.4 380.8,1888.4 322.8,1875.5 C278.3,1865.6 265.4,1863.6 242.4,1863.6 C220,1863.5 216.4,1864.1 198.4,1871.1 C186.9,1875.6 181,1878.5 145.4,1897.2 C116.2,1912.6 99,1920.2 81.4,1925.5 C70.8,1928.7 68.6,1929.1 62.4,1928.6 C48.8,1927.5 36.7,1923.1 16.3,1911.8 L5.2,1905.6 L2.5,1891.6 C-0.5,1875.4 -0.8,1867.6 1.5,1859.9 C2.4,1856.9 9.3,1842.1 16.9,1827 C24.5,1811.9 31.9,1795.9 33.4,1791.5 C50.6,1739.2 62.5,1635.7 69.9,1474 C71.3,1445.2 72.6,1315 73.4,1131.8 L74.1,987.5 L69,714 L63.9,440.5 L58.3,338.5 C55.3,282.4 52.5,226.6 52.2,214.5 C50.8,162 57.6,111.5 71,73.4 C82.5,40.8 100.9,16 121.1,6.2 C132,0.9 138.2,-0.5 150.4,-0.4 C165.8,-0.3 174.3,3.1 183.1,12.9 C191.5,22.2 196.7,33.3 209.9,70.5 C219.1,96.2 221.4,101.4 226.4,106.9 C234.3,115.6 244.8,119 282.6,125 C296.3,127.1 349.5,135.7 401,143.9 C497.8,159.5 608.8,175.6 609.9,174.3 C610.3,173.8 618.5,161.9 628.3,147.8 C638.2,133.4 647.8,120.5 650.2,118.5 C658.7,111.1 669.5,107.1 683,106.3 C694.9,105.6 702.7,106.8 719.8,112.2 L733.3,116.5 L739.5,129.6 C755.3,162.8 760.6,178.6 765.2,205 L767.3,217.5 L767.9,845 L768.5,1472.5 L774.2,1597.5 C779.3,1709.8 780.1,1723.9 782.3,1736.5 C786.4,1759.7 789.5,1771.9 797.9,1797.8 C807.8,1827.9 811.3,1841.7 810.4,1847 C808.7,1857.3 797.8,1873.1 782.1,1888.1 C738.8,1929.7 658.4,1977.5 628.4,1979.6 C622.4,1980 620.1,1979.6 612.9,1977.1 L612.9,1977.1 Z M580.8,1797 C589.6,1793.1 593.6,1785.9 595.9,1769.4 C597.3,1759.3 598.5,1725.3 601.6,1617 C604.6,1505.7 605,1460.8 603,1432.5 L601.5,1412.5 L416,1378 L230.4,1343.4 L229.7,1380 C228.2,1465.7 226.9,1587.4 226.9,1652.7 L226.9,1722.9 L230.7,1723.9 C232.7,1724.4 276,1734.6 326.9,1746.5 C377.8,1758.4 439.4,1773 463.9,1779 C500.5,1788 537.9,1796.7 550.9,1799.3 C552.3,1799.6 558.4,1799.7 564.4,1799.6 C573.5,1799.4 576.3,1799 580.8,1797 L580.8,1797 Z M603.9,1154.3 C603.9,1080.6 604.5,1007.1 605.4,960.6 C606.3,919.4 606.7,885.5 606.5,885.2 C605.8,884.6 570.3,877.1 496,861.9 C450.2,852.5 231.1,812.6 230.1,813.5 C229.9,813.7 229.1,856.6 228.4,909 C227.2,990.4 227.2,1019 228.4,1106.2 C229.2,1162.3 230,1208.4 230.3,1208.7 C230.5,1209 282.9,1220.6 346.6,1234.5 C453.6,1257.9 464.3,1260.1 487.4,1262.9 C533,1268.5 575.9,1272.4 596.7,1272.9 L603.9,1273 L603.9,1154.3 L603.9,1154.3 Z M606.4,667.8 C606.1,629.7 605.4,534.9 604.9,457.1 C604.4,379.4 603.7,315.5 603.4,315.1 C603,314.8 516.5,299.6 411.1,281.4 L219.4,248.3 L219.1,262.4 C218.9,270.2 220,365.2 221.5,473.7 L224.3,670.9 L240.9,676.9 C282.2,691.7 303.6,695.7 455.9,717.5 C528.2,727.9 594.2,736.5 603.7,736.9 L607,737 L606.4,667.8 L606.4,667.8 Z" id="Shape" sketch:type="MSShapeGroup"></path>
        </g>
    </g>
</svg>