<?xml version="1.0" encoding="UTF-8" standalone="no"?>
<svg width="2227px" height="2219px" viewBox="0 0 2227 2219" version="1.1" xmlns="http://www.w3.org/2000/svg" xmlns:xlink="http://www.w3.org/1999/xlink" xmlns:sketch="http://www.bohemiancoding.com/sketch/ns">
    <!-- Generator: Sketch 3.0.4 (8054) - http://www.bohemiancoding.com/sketch -->
    <title>Slice 2</title>
    <desc>Created with Sketch.</desc>
    <defs></defs>
    <g id="Page-1" stroke="none" stroke-width="1" fill="none" fill-rule="evenodd" sketch:type="MSPage">
        <g id="Group" sketch:type="MSLayerGroup" transform="translate(1113.800000, 1109.350000) scale(1, -1) translate(-1113.800000, -1109.350000) translate(0.600000, 0.200000)" fill="#000000">
            <path d="M1709.4,2217.5 C1690,2216.2 1671.3,2211.6 1575.9,2184.6 C1515.5,2167.6 1488.8,2161.3 1455.4,2156.1 C1446.3,2154.7 1345.8,2143.4 1231.9,2131 C1068.7,2113.3 977.6,2104 801.4,2087.1 C479.1,2056.1 462,2054.5 427.4,2053.8 C367.3,2052.5 311.2,2062.3 253.9,2084 C236.1,2090.8 231.7,2092.8 222.5,2098.2 C212,2104.4 200.2,2113.9 186.5,2127 L174.8,2138.4 L157.1,2135.7 L139.4,2133 L135.4,2122 C128.6,2103.5 127.3,2096.9 126.7,2078.5 C125.6,2043.2 133.4,2025.4 162.8,1995.9 C181,1977.7 193.3,1967.8 229.4,1942.5 C270.1,1913.8 291.3,1900.2 306.9,1892.5 C325.9,1883.1 335.3,1880.4 351.9,1879.8 C367.2,1879.2 371.1,1879.8 425.9,1892.5 C444.6,1896.8 463.5,1901.1 467.9,1901.9 C484.4,1905.1 760.6,1952.5 776.9,1954.9 C809.6,1959.7 909.5,1971.5 918.1,1971.5 C921.2,1971.5 922.7,1970.4 931.3,1961.7 C941.5,1951.3 947.5,1942.4 950.1,1933.5 C962.3,1891.9 883,1721.7 783,1575 C764.2,1547.3 665.3,1407.6 661.8,1403.7 C661.7,1403.5 637.3,1400.2 607.7,1396.4 C578.1,1392.6 500.4,1382.5 434.9,1373.9 C369.5,1365.4 310.5,1357.8 303.9,1357 C297.3,1356.2 282.5,1354.4 270.9,1353 C225.1,1347.5 202.5,1350.7 160.9,1368.5 C113.3,1388.9 76,1400.5 58,1400.5 C42.7,1400.5 31.8,1395.9 9.6,1380.2 C0.2,1373.4 0.1,1373.2 -1.16599438e-14,1359.5 C-0.1,1346 1,1344 24.9,1314 C64.6,1264.3 93,1203.1 103.4,1145 C106.4,1127.7 106.4,1128.2 127.5,853 L147.4,592 L156.9,378.7 C162.1,261.5 167.1,158.9 167.9,150.7 C174.3,88.7 190.7,44.6 216.6,20 C221.2,15.6 227.9,10.3 231.4,8.2 C254,-5 279.2,-2.1 299.3,16 C309.6,25.4 320.5,44.2 326.4,63.3 L329.9,74.4 L340.4,76.9 C428.9,98.1 456.2,102.4 709.1,135.5 C880.9,157.9 1031.8,172.7 1235.4,187 C1435.5,201.1 1611.6,207.7 1676.4,203.5 C1719.9,200.8 1762.6,195.1 1794.8,188 L1802.1,186.4 L1804.3,178.1 C1810.9,153.2 1838.2,112.6 1869.9,80.9 C1890.1,60.6 1894,58.2 1909.4,56.3 C1945,52.1 1971.9,69.6 1992.2,110.1 C2005.4,136.5 2016.1,173.9 2026.9,231 C2033.2,264.1 2039.9,306.6 2107.4,739 C2143.7,971.7 2175.4,1172.2 2177.9,1184.5 C2187.3,1231 2188,1233.3 2202.9,1263.7 C2210.3,1278.5 2217.8,1294.6 2219.7,1299.4 C2234.7,1336.7 2225.2,1366.6 2183.9,1412.5 C2136.9,1464.7 2046.5,1525.8 1997.4,1538.6 C1981.6,1542.7 1973.2,1541.6 1919.4,1528.5 C1855.4,1512.9 1840.6,1511 1742.9,1506 C1492.4,1493.1 1167.1,1465.1 870.5,1430.9 C839.5,1427.4 814,1424.6 813.7,1424.8 C813.5,1425 821.1,1434.6 830.6,1446.1 C840.1,1457.6 867.9,1492 892.4,1522.6 C930.5,1570.2 945.7,1590.4 997.9,1662.1 C1065.7,1755.4 1096.3,1796.5 1108,1810.1 C1112.4,1815.1 1122.6,1826.8 1130.8,1836.1 C1157.8,1866.7 1168.8,1881.5 1173.2,1893.5 C1176.5,1902.3 1177.4,1923.5 1175,1933.9 C1170.9,1951.4 1158.5,1966.4 1132,1986.1 C1126.5,1990.2 1122.4,1993.5 1122.7,1993.5 C1123,1993.5 1144.1,1995.7 1169.6,1998.5 C1222.6,2004.1 1252.8,2007 1276.4,2008.5 C1285.5,2009.1 1360.6,2014.3 1443.4,2020.1 L1593.9,2030.7 L1711.4,2027.9 C1851.6,2024.6 1883.7,2024.4 1901.4,2026.8 C1951,2033.7 1973.3,2053 1973.4,2089.1 C1973.4,2109.9 1965.5,2126.5 1947.2,2144.1 C1929.1,2161.5 1904.5,2175.4 1868.4,2188.7 C1840.3,2199.1 1798.5,2209.5 1764.9,2214.4 C1752.3,2216.3 1725.2,2218.7 1721.4,2218.3 C1720.6,2218.3 1715.2,2217.9 1709.4,2217.5 L1709.4,2217.5 Z M1844.8,1374 C1921.5,1372.9 1960.9,1369.7 1974.2,1363.5 C1982.6,1359.6 1991.3,1351.2 1995.8,1342.5 C2009.1,1317.3 2007.9,1294.1 1983.4,1090 C1975.7,1026.2 1958.6,891.4 1945.5,790.5 L1921.5,607 L1902,489.5 C1891.3,424.9 1881.6,367 1880.4,360.8 C1878.7,351.5 1872.3,328.1 1871.2,327 C1871,326.8 1866.6,328.1 1861.3,330 C1840.1,337.4 1818.9,340.3 1779.4,341.4 C1738.2,342.5 1678.8,341.2 1581.4,337 C1512.8,334 1437,329.9 1432.7,329 C1430.7,328.5 1430.4,328.9 1430.4,331.8 C1430.4,333.7 1436.9,444.3 1444.9,577.6 L1459.4,820 L1476.9,978.5 C1486.5,1065.7 1494.8,1140.4 1495.4,1144.5 C1495.9,1148.6 1497.5,1163.5 1498.9,1177.5 C1505.1,1240.7 1505.5,1250.7 1502.4,1268.9 C1498.3,1292.9 1486.5,1321.3 1471,1344.4 C1466.8,1350.7 1463.6,1356 1463.7,1356.2 C1464.6,1357 1608.8,1367.4 1676.9,1371.5 C1742.1,1375.4 1742.3,1375.4 1844.8,1374 L1844.8,1374 Z M1292.5,1341.2 C1296.6,1335.5 1305.9,1318.3 1310,1308.8 C1322,1280.6 1327.1,1251.4 1328.1,1204 C1328.6,1179.6 1327.2,1121.4 1325.8,1105.8 L1325.2,1099.6 L1321,1099.1 C1318.8,1098.8 1307,1097.6 1294.9,1096.4 C1271.5,1094.1 1037.6,1065.1 988.9,1058.5 C928.5,1050.2 880.7,1045.5 857.5,1045.5 L843.8,1045.5 L844.2,1101.8 C844.9,1193.8 842.1,1222.6 830,1247.9 C824.8,1258.9 818.7,1267.3 806.5,1280.5 C801.4,1286 797.5,1290.5 797.7,1290.5 C798,1290.5 838.3,1295.2 887.4,1301 C1041.5,1319.1 1111.1,1326.6 1236.4,1338.4 C1264.7,1341.1 1288.6,1343.3 1289.4,1343.4 C1290.2,1343.4 1291.6,1342.4 1292.5,1341.2 L1292.5,1341.2 Z M635.8,1259.9 C639.9,1255.2 645.4,1248.1 648,1244.2 C669.7,1211.3 682.1,1154.9 687.8,1063 C690,1027.4 690,1026.8 695.9,829.5 L701.4,647 L701.4,453.5 L701.4,260 L568.7,246.7 C460.6,235.8 361.8,226.1 329.8,223.1 L324.7,222.7 L324,236.3 C323.6,243.9 322.2,267.6 320.9,289 C319.6,310.5 318,338.8 317.4,352 C316.7,365.2 309.1,507.2 300.3,667.5 C286.9,914.2 283.1,978.6 275.4,1086.3 C270.5,1156.3 266.4,1214 266.4,1214.5 C266.4,1215 267.6,1215.6 269.2,1215.9 C270.7,1216.2 281.8,1218.4 293.9,1220.9 C338.7,1229.9 337.9,1229.8 465.9,1246.9 C513.2,1253.3 567.9,1260.7 587.4,1263.4 C606.9,1266.1 624.1,1268.3 625.6,1268.4 C627.8,1268.5 629.7,1266.9 635.8,1259.9 L635.8,1259.9 Z M1319.1,962.1 C1319.6,961.6 1312.2,798.2 1309.7,754.3 L1309.1,744.5 L1302.9,744.5 C1299.5,744.5 1294.2,744 1291.3,743.5 C1288.3,742.9 1265.7,739.5 1240.9,735.9 C1204.3,730.7 1166.2,726.4 1037.4,713 C865.1,695.2 857.7,694.5 848,694.5 L841.4,694.5 L841.6,803.2 L841.9,911.9 L845.4,912.7 C873.6,918.9 908.6,924.4 939.9,927.5 C961.7,929.7 1195.5,955.2 1224.4,958.5 C1233.5,959.5 1247.2,960.9 1254.9,961.5 C1262.6,962.1 1270.9,962.7 1273.4,962.9 C1280.8,963.5 1318.4,962.9 1319.1,962.1 L1319.1,962.1 Z M1300.9,598.8 C1300.6,593.9 1298.1,537.8 1295.4,474 C1289.4,332.6 1290,343 1287.3,329.6 C1285.1,318.6 1285.1,318.5 1282,318.1 C1280.3,317.8 1257.8,315.7 1231.9,313.5 C1147.9,306.1 992.8,291.1 883.4,279.6 C863.3,277.5 846.8,275.9 846.6,276 C845.9,276.6 844.4,371.4 843.8,459.6 L843.1,557.2 L852.2,557.9 C865.3,559 871.6,559.9 966.9,575 L1052.9,588.5 L1163.9,597.1 C1225,601.8 1276.9,606 1279.4,606.4 C1281.9,606.9 1287.9,607.3 1292.7,607.4 L1301.5,607.5 L1300.9,598.8 L1300.9,598.8 Z" id="Shape" sketch:type="MSShapeGroup"></path>
        </g>
    </g>
</svg>