<?xml version="1.0" encoding="UTF-8" standalone="no"?>
<svg width="2132px" height="2474px" viewBox="0 0 2132 2474" version="1.1" xmlns="http://www.w3.org/2000/svg" xmlns:xlink="http://www.w3.org/1999/xlink" xmlns:sketch="http://www.bohemiancoding.com/sketch/ns">
    <!-- Generator: Sketch 3.0.4 (8054) - http://www.bohemiancoding.com/sketch -->
    <title>Slice 2</title>
    <desc>Created with Sketch.</desc>
    <defs></defs>
    <g id="Page-1" stroke="none" stroke-width="1" fill="none" fill-rule="evenodd" sketch:type="MSPage">
        <g id="Group" sketch:type="MSLayerGroup" transform="translate(1066.000000, 1236.750000) scale(1, -1) translate(-1066.000000, -1236.750000) translate(0.000000, 0.400000)" fill="#000000">
            <path d="M957.8,2472.1 C938.1,2468.6 924.5,2458.5 906.4,2434.1 C901.8,2427.9 898,2422.4 898,2422 C898,2420.9 914.8,2402.2 928,2388.6 C947.6,2368.4 951,2362.9 951,2350.6 C951,2316.4 923,2266.5 866.1,2199.3 C857,2188.4 822.1,2146.8 788.6,2106.7 L727.7,2033.8 L702.6,2034.4 C668.1,2035.2 654.7,2037.2 642,2043.5 C638.4,2045.3 623.1,2054.6 608,2064.2 C532.4,2112.4 521.2,2117 483.7,2115.8 C463.6,2115.2 456.6,2113.4 437.8,2104.4 L424,2097.8 L424,2093.7 C424,2089.2 427.4,2067.6 429,2062 C430.4,2057.2 437.9,2045.4 452.9,2024.3 C487.7,1975.6 513.7,1914.7 523,1860.1 C529.5,1822.1 530,1805.8 530,1618.1 L530.1,1453.6 L520.8,1242.4 L511.5,1031.3 L507.5,1030.7 C505.3,1030.3 485.2,1025.3 462.9,1019.5 C377,997.4 330.6,989.2 266.8,985 C244.3,983.5 205.6,984.4 194,986.5 C166.7,991.7 141.9,1002.9 127.5,1016.7 C125.3,1018.9 116,1028.7 106.8,1038.6 C83.3,1064 74.2,1071.1 52.7,1080.8 L42.8,1085.3 L31,1073.6 C20.3,1062.9 18.9,1061.1 14,1051.3 C4.7,1032.5 0,1016.8 0,1004.3 C0,971.7 29.8,905.5 77.7,831.7 C89.5,813.5 101.6,797.6 111.8,787 C127.8,770.2 147.8,757.3 166,752 C175.2,749.4 199.6,748.2 208.1,750 C216.9,751.9 228.2,758.3 254.6,776.2 C269.3,786.2 283.8,795.2 290,798.2 C302,804 347.7,823.5 365.5,830.4 C372.1,833 438,854 512,877 L646.5,919 L901,989.5 L1155.5,1060 L1286.5,1102.4 C1358.6,1125.7 1417.6,1144.7 1417.7,1144.7 C1417.7,1144.6 1417.2,1137.2 1416.5,1128.3 L1415.2,1111.9 L1403.4,1099.9 C1362.4,1058.3 1364,1059.6 1228.9,957 L1128.5,880.7 L1011.5,801.6 L894.5,722.4 L765,647.1 C679.7,597.5 604.6,554.8 545,521.8 C463.5,476.8 445.6,467.4 364.5,426.9 C285.3,387.2 266.5,378.3 207.5,352.1 C170.7,335.8 135.3,320.2 128.9,317.5 L117.2,312.6 L116,303.3 C115.2,297.9 115.1,293.6 115.6,293.1 C116.1,292.6 122.8,291.3 130.5,290.2 C150.3,287.3 167.9,287.4 188.9,290.7 C243.6,299.2 340,322.8 400,342.3 C410.2,345.6 468.9,367 530.5,389.8 L642.5,431.2 L676.5,447.5 C695.2,456.5 758,487.9 816,517.2 L921.5,570.7 L1047.7,650.4 L1173.9,730.1 L1295.5,817.2 C1362.4,865.1 1417.3,904.1 1417.5,903.9 C1417.7,903.8 1416.5,850.3 1415,785.1 C1411.9,659.2 1405.8,480.9 1404,465.1 C1403.3,459.9 1402.5,433.3 1402,406.1 C1401.5,378.9 1400.6,351.7 1400,345.6 C1396.9,313.4 1389.4,292.1 1378.1,283.2 C1366.4,274 1358.3,272.7 1317.6,273.4 C1255.4,274.5 1219.2,281.2 1115.2,310.7 C1096.9,315.9 1081.2,320.1 1080.4,320.1 C1078.6,320.1 1086,305.6 1094.5,292.6 C1108,272 1120.7,260.8 1190.5,208.5 C1240.6,170.9 1256.1,159.9 1282.7,143.1 C1345.5,103.6 1348.8,100.2 1381.8,44.3 C1400.2,13.1 1408.1,4 1419,1.1 C1424.9,-0.5 1441.9,-0.2 1448.7,1.5 C1477.1,8.9 1505.4,36.9 1525.9,78 C1552.4,130.9 1567.4,201.2 1572,294.1 C1572.6,307.1 1573.6,458.6 1574.5,677 C1575.7,968 1576.2,1038.7 1577.2,1039.7 C1577.9,1040.3 1588.9,1049.3 1601.5,1059.7 C1655.3,1103.7 1646.4,1095.6 1822,1258.6 C1992,1416.4 1989.7,1414.2 2006.5,1429 C2028.6,1448.5 2043.1,1459.5 2072.3,1479 C2126.9,1515.5 2132,1521.8 2132,1552.1 C2132,1564.7 2130.1,1575.8 2125.9,1587.9 C2110,1633.4 2059.2,1684.4 1992.5,1722.2 C1968.5,1735.8 1943.1,1745.9 1928.2,1748 C1913.7,1749.9 1904.3,1746.7 1892.6,1735.7 L1886,1729.6 L1898,1682.6 C1911.8,1629.1 1911.8,1629 1906.1,1614.6 C1893.9,1583.3 1851,1526 1794.3,1465.5 C1757.8,1426.7 1597.9,1265 1585.1,1254.1 L1578.7,1248.6 L1579.3,1294.6 C1580.1,1345.3 1581.4,1393.4 1583,1422.6 C1583.6,1433.1 1585.8,1483.7 1588,1535.1 C1591.6,1619.5 1592.6,1637.4 1599,1719.1 C1607.7,1830.6 1609.8,1848.1 1618.7,1882.6 C1628.1,1919.3 1637.8,1941.6 1660.8,1979.9 C1673.3,2000.5 1677.2,2009.3 1679,2020.1 C1682.6,2041.6 1674.6,2062.5 1655.5,2081.7 C1629.7,2107.7 1544.2,2160.9 1500,2178.4 C1482.2,2185.5 1473.2,2187.6 1461.5,2187.5 C1452.8,2187.5 1450.4,2187 1443,2184.3 C1431.4,2179.9 1410.3,2169.2 1381,2152.6 C1350,2135.1 1347.4,2133.9 1318.8,2124.2 C1254,2102.3 1229.5,2097.6 1014.1,2065.6 C927,2052.7 855.5,2042.2 855.3,2042.4 C854.6,2043.2 890.4,2077.3 906.6,2091.2 C929.1,2110.6 965.3,2139.5 991.4,2159 C1003,2167.7 1054.6,2203.3 1106,2238.1 C1157.4,2272.8 1199.6,2301.4 1199.8,2301.6 C1200.5,2302.2 1213,2345.6 1213,2347.2 C1213,2349.4 1193.4,2376.1 1184.8,2385.5 C1171,2400.7 1162,2405.6 1117.5,2422.6 C1102.1,2428.5 1070.8,2440.6 1048,2449.6 C992.1,2471.5 989.5,2472.3 974.5,2472.7 C967.9,2472.8 960.4,2472.6 957.8,2472.1 L957.8,2472.1 Z M1429.7,1989.6 C1430.4,1985.2 1432.1,1971 1433.6,1958.1 L1436.3,1934.6 L1435.1,1899.6 C1434.5,1880.4 1434,1860.7 1434,1856 L1434,1847.3 L1427.8,1846.2 C1424.3,1845.6 1405.3,1843.1 1385.5,1840.6 C1365.7,1838.1 1261.8,1823.6 1154.5,1808.5 C989.2,1785.2 939.1,1777.8 825.9,1759.6 C752.4,1747.8 692,1738.1 691.7,1738.1 C691.3,1738.1 691,1776.4 691,1823.1 L691,1908.1 L712.8,1908.1 L734.5,1908.1 L928.5,1934.6 C1075.5,1954.7 1159.2,1965.6 1274,1979.5 C1357.3,1989.6 1426.2,1997.8 1427,1997.7 C1428.1,1997.6 1428.8,1995.3 1429.7,1989.6 L1429.7,1989.6 Z M1431.6,1702.4 C1433.9,1664.3 1431,1554.8 1427.6,1551.4 C1427,1550.7 1401.6,1545.7 1363.5,1538.6 C1350.2,1536.2 1320.5,1531.5 1297.5,1528.2 C977.4,1482.3 899.6,1470.1 696.1,1433.7 L682.8,1431.4 L683.3,1495 C683.7,1543.2 684.2,1561.5 685.3,1570.6 C687.6,1588.8 691.1,1613.5 691.4,1613.9 C691.6,1614 794.7,1630.3 920.6,1650.1 L1149.5,1686 L1237.5,1695 C1285.9,1700 1336.8,1705.5 1350.5,1707.2 C1382.2,1711 1419,1714.9 1425.6,1715 L1430.8,1715.1 L1431.6,1702.4 L1431.6,1702.4 Z M1426.4,1408.9 C1427.3,1392.3 1426.1,1293.2 1424.9,1282.9 C1424.5,1278.6 1423.2,1273.4 1422.1,1271.2 C1416.2,1259.8 1399.2,1251.9 1351.2,1238.7 C1296.8,1223.7 1191.7,1197 1088,1172 C1024.5,1156.6 908.2,1127.9 829.5,1108 C699.1,1075.1 671.4,1068.4 670.3,1069.5 C669.5,1070.2 667.1,1138.9 667,1159.2 C667,1170.6 667.5,1187.9 668,1197.7 C670,1232.9 675.2,1296.6 676.1,1297.1 C676.6,1297.5 690.6,1300.3 707.2,1303.5 C723.9,1306.7 747.4,1311.3 759.5,1313.7 C771.6,1316.1 865.7,1333.7 968.5,1352.7 L1155.5,1387.3 L1289,1404.6 C1362.4,1414.1 1423.2,1421.9 1424.1,1422 C1425.5,1422.1 1425.8,1420.1 1426.4,1408.9 L1426.4,1408.9 Z" id="Shape" sketch:type="MSShapeGroup"></path>
        </g>
    </g>
</svg>