<?xml version="1.0" encoding="UTF-8" standalone="no"?>
<svg width="1297px" height="2344px" viewBox="0 0 1297 2344" version="1.1" xmlns="http://www.w3.org/2000/svg" xmlns:xlink="http://www.w3.org/1999/xlink" xmlns:sketch="http://www.bohemiancoding.com/sketch/ns">
    <!-- Generator: Sketch 3.0.4 (8054) - http://www.bohemiancoding.com/sketch -->
    <title>Slice 2</title>
    <desc>Created with Sketch.</desc>
    <defs></defs>
    <g id="Page-1" stroke="none" stroke-width="1" fill="none" fill-rule="evenodd" sketch:type="MSPage">
        <g id="Group" sketch:type="MSLayerGroup" transform="translate(648.300000, 1172.300000) scale(1, -1) translate(-648.300000, -1172.300000) translate(0.300000, 0.800000)" fill="#000000">
            <path d="M1102.2,2343.1 C1085,2340.6 991.5,2318.2 911.1,2297.3 L843.2,2279.6 L650.7,2242.2 L458.2,2204.7 L383.2,2193.8 C301.6,2181.9 263.3,2176.7 240.5,2174.3 C204.8,2170.6 168.8,2173.8 137.2,2183.3 C122.2,2187.9 113.5,2191.8 90.7,2204.2 C66.2,2217.5 57,2221.2 50.3,2220.4 C40.2,2219.2 32.1,2211.6 27.3,2198.6 C21.2,2182.4 19.6,2157.5 23.6,2142.3 C26.4,2131.5 36.2,2112.3 44.4,2101.3 C64.9,2074 105.9,2039.9 125.7,2033.7 C129.3,2032.6 149.5,2027.2 170.7,2021.7 C220.2,2008.9 221.3,2008.5 227.7,2004.1 C256.3,1984.1 275.8,1914.3 285.6,1796.8 C292.8,1711.1 293.7,1639.9 291.2,1353.8 C288.8,1067.2 284.1,705.5 282.7,698.9 C280.2,687.1 276.7,683.4 260.3,675.4 C242.1,666.6 220.2,658.7 198.7,653.3 C174.1,647.2 167.4,646.3 142.7,646.3 C110.6,646.3 101.3,648.6 68.7,664.7 C46.9,675.5 43,676.8 32.3,676.8 C16.7,676.8 8.1,668.9 2.7,649.7 C-1.7,633.8 -0.7,610.4 5.2,592.3 C13.3,567.8 28,545.6 68.3,497.3 C103.5,455.1 118.6,441 132.9,436.7 C138.6,434.9 141.7,434.7 152,435 C166.7,435.5 168.5,436.2 194.2,451.8 C269.6,497.6 278.8,502.7 312.6,517.3 C325.6,523 368.4,542 407.7,559.6 C588.8,640.7 876,768.8 876.3,768.5 C876.5,768.4 875.9,616.4 875.1,430.8 C874.3,245.2 873.9,86.8 874.2,78.8 C876.5,23.6 887.3,4.6 918.7,0.7 C926.9,-0.4 929.2,-0.3 935.7,1.2 C963.4,7.4 993.9,35.6 1010.2,70 C1018.8,88.3 1024.7,109.6 1027.8,134.3 C1029.4,147.3 1029,211.9 1026.7,309.8 C1020.6,562.8 1020.5,849 1026.2,1202.8 C1030.7,1477.8 1041,1842.1 1047.8,1967.8 C1050.6,2019.3 1050.8,2047.9 1048.4,2056.8 C1045.7,2067 1039.6,2078.5 1031.6,2088.8 C1023.1,2099.8 998.5,2124.8 970.9,2150.3 C960.3,2160.1 952,2168.4 952.4,2168.8 C953.2,2169.6 998.6,2173.8 1032.7,2176.3 C1072,2179.1 1108.5,2180.8 1152.2,2181.8 C1176.4,2182.3 1200.9,2183 1206.5,2183.3 C1240.4,2185 1269.8,2194.2 1283.2,2207.2 C1298,2221.7 1299.6,2244.1 1287.4,2265.7 C1282.4,2274.7 1269.5,2288.1 1258.7,2295.7 C1230.6,2315.4 1189.8,2330.9 1144.7,2339.2 C1128.8,2342.1 1108.2,2344 1102.2,2343.1 L1102.2,2343.1 Z M794.5,2141.3 C804.1,2140.1 813,2133.2 821.7,2120.3 C834.1,2101.8 855.6,2060.3 860.7,2045.1 C868.5,2021.5 874.6,1983.6 879.4,1928.8 C882,1898.4 881.8,1845 878.9,1820.9 C877.7,1810.8 876.6,1802.4 876.4,1802.3 C876.3,1802.1 861.8,1797.9 844.2,1792.9 C808.2,1782.5 772.5,1775 606.2,1742.7 C492,1720.5 493.5,1720.8 477.6,1720.1 L463.9,1719.5 L463.2,1728.4 C462.7,1733.3 462.7,1762.7 463.1,1793.8 C463.7,1844.6 463.6,1853.6 461.8,1882.8 C460.6,1900.7 459.3,1922.5 458.8,1931.3 C458.1,1944.1 457.4,1948.6 455.5,1953.8 C450.3,1967.9 434.7,1988 385.5,2044 C372.9,2058.3 371.9,2059.8 373.9,2060.3 C384.4,2062.8 622.9,2112.7 672.7,2122.8 C736.7,2135.8 760.8,2140.2 775.3,2141.7 C783.1,2142.5 785.9,2142.4 794.5,2141.3 L794.5,2141.3 Z M877.3,1665.2 C879.7,1664.6 879.6,1665 881.8,1638.8 C883.2,1621.1 883,1555.4 881.2,1485.8 C880.4,1453.1 879.7,1412.1 879.7,1394.8 C879.7,1353.2 878.5,1345.6 870.7,1338.1 C865.6,1333.2 860.1,1331.8 842.2,1330.7 C821.8,1329.6 806.8,1327.7 773.2,1322.2 C743.5,1317.3 733.2,1315.4 635.2,1297.3 C516.3,1275.3 485.2,1270.2 449.5,1266.4 C447.4,1266.2 445.7,1266.1 445.7,1266.1 C445.6,1266.2 445,1272.6 444.3,1280.3 C443,1292.8 443.1,1302.5 445.3,1373.3 C446.7,1416.8 448.2,1478.4 448.7,1510.3 C449.5,1568.4 450.5,1582.8 453.8,1590.1 C457.4,1598 485.4,1606 545.2,1616.2 C562.8,1619.2 598.8,1625.5 625.2,1630.2 C678,1639.5 825.5,1662.2 851.7,1665.1 C857.6,1665.7 875.1,1665.8 877.3,1665.2 L877.3,1665.2 Z M858.3,1203.7 C861.5,1203.2 865.9,1202.2 867.9,1201.7 L871.6,1200.8 L872.2,1189 C872.5,1182.6 873,1119.5 873.3,1048.8 C873.8,917.8 873.6,904.6 870.1,885.6 L868.5,876.9 L861.4,872.2 C839.3,858 806.2,845 739.5,824.3 C609.4,783.9 446.3,733.8 446,734.2 C445.6,734.6 442.6,1134.1 443,1134.4 C443.7,1135 476.9,1144.4 490.7,1147.8 C531.9,1158.1 596.3,1168.9 748.2,1190.8 C771.3,1194.1 799.9,1198.4 811.7,1200.3 C842.3,1205.2 848,1205.6 858.3,1203.7 L858.3,1203.7 Z" id="Shape" sketch:type="MSShapeGroup"></path>
        </g>
    </g>
</svg>