<?xml version="1.0" encoding="UTF-8" standalone="no"?>
<svg width="2201px" height="2324px" viewBox="0 0 2201 2324" version="1.1" xmlns="http://www.w3.org/2000/svg" xmlns:xlink="http://www.w3.org/1999/xlink" xmlns:sketch="http://www.bohemiancoding.com/sketch/ns">
    <!-- Generator: Sketch 3.0.4 (8054) - http://www.bohemiancoding.com/sketch -->
    <title>Slice 2</title>
    <desc>Created with Sketch.</desc>
    <defs></defs>
    <g id="Page-1" stroke="none" stroke-width="1" fill="none" fill-rule="evenodd" sketch:type="MSPage">
        <g id="Group" sketch:type="MSLayerGroup" transform="translate(1100.400000, 1161.800000) scale(1, -1) translate(-1100.400000, -1161.800000) translate(0.100000, 0.100000)" fill="#000000">
            <path d="M1910.4,2320.1 C1900,2318.2 1866.7,2311.8 1836.4,2305.7 C1806.2,2299.6 1778.3,2294.2 1774.4,2293.6 C1770.6,2293 1706,2285.3 1630.9,2276.5 L1494.4,2260.4 L1283.9,2242 C1168.1,2231.9 997.4,2216.8 904.4,2208.5 C702.6,2190.5 367.9,2160.9 348.9,2159.4 C332.6,2158 298.6,2158.8 280.4,2161 C234,2166.5 196,2178.4 164.2,2197.3 C150.9,2205.3 141.2,2212.5 124.7,2226.9 C94.2,2253.6 80.6,2260.6 54.7,2263.4 C38.9,2265.2 40.4,2265.7 32.3,2254.7 C21.1,2239.4 17.1,2233.1 12.3,2223.2 C0.4,2198.4 3,2180.2 22.8,2150.3 C49.4,2110.1 107.4,2053.6 171.2,2005.8 C204.7,1980.7 226.2,1973.1 253.9,1976.4 C262,1977.4 421.2,2013 449.4,2020.1 C466.8,2024.5 488.2,2028.6 494,2028.6 C519.2,2028.6 543.6,1994.5 557.9,1939.3 C565.9,1908.2 565.7,1910.2 570.4,1805.5 C575.7,1688.5 575.9,1722.7 568.5,1432 C562.3,1184.5 561.6,1163 555.2,1015.8 L548.4,860.7 L526.9,855.1 C505.7,849.6 503.6,849.2 388.9,833.3 L272.4,817.2 L247.9,817.1 C214.7,817 194.1,819.6 172.5,826.5 C161.2,830.1 152.9,834.9 116.9,858.3 C83.8,879.8 65.7,891.1 57.1,895.4 L50.9,898.5 L44.2,894.4 C6,871.1 -5.5,850.9 2.3,820.4 C9.5,791.9 35.2,740.3 63.7,697 C105.9,632.7 149.7,591.1 184.5,582.1 C191.4,580.3 206.1,580 212.9,581.5 C227.5,584.8 249.4,592.4 278.9,604.6 C337.6,628.8 358,636 395.7,645.4 C422.5,652.1 460.9,659.8 656.9,697.5 C788.9,722.9 825,729.5 831.3,729.5 C837.6,729.5 909.8,742.7 1178.2,793.1 C1364.6,828 1517.4,856.3 1517.7,856 C1518.1,855.7 1516,753.6 1513,629.2 C1506.5,351.2 1502.9,181.9 1502.9,153.5 C1502.9,114.6 1509.7,83.1 1524.9,52 C1537.3,26.4 1553.5,10.1 1574.1,2.7 C1580.5,0.4 1582.9,0.1 1593.9,0 C1606.5,0 1606.5,0 1614.2,3.8 C1653,23 1679.3,104 1683.9,218.5 C1684.8,240.8 1684.5,266.5 1682,380.7 L1679.1,516.4 L1683,697.7 C1685.1,797.4 1686.9,882.5 1686.9,886.8 L1686.9,894.5 L1690.2,896 C1691.9,896.8 1747.9,911.4 1814.4,928.5 L1935.4,959.4 L1997.5,984.3 C2031.6,998.1 2065,1011.3 2071.7,1013.8 C2093.7,1022.1 2114.3,1036.5 2129.9,1054.6 L2134.8,1060.1 L2133.3,1071 C2132.6,1076.9 2131.8,1081.9 2131.7,1082.1 C2131.5,1082.2 2119.9,1081.9 2105.9,1081.5 C2078.8,1080.6 2063.7,1079.2 2031.4,1074.5 C1987.8,1068.2 1693.3,1024.5 1691.2,1024 L1688.9,1023.5 L1688.9,1141.2 C1689,1223.9 1689.9,1318.2 1691.9,1457.5 L1694.9,1656 L1706.7,1815.5 C1719.5,1988.4 1719.5,1988.6 1715,2005 C1710.5,2021.2 1708.3,2024.4 1679.4,2057 C1651.1,2088.8 1635.5,2105.8 1620,2121.8 L1610.5,2131.5 L1617,2131.5 C1620.5,2131.5 1665.7,2133.1 1717.4,2135 C1769.1,2136.9 1816.6,2138.5 1822.9,2138.5 C1829.3,2138.5 1879,2135.4 1933.4,2131.5 C1987.9,2127.7 2039.6,2124.1 2048.4,2123.5 C2057.2,2122.9 2074.5,2121.5 2086.9,2120.3 C2124.7,2116.8 2141.8,2117.4 2160.4,2123.2 C2188.7,2132 2202.4,2148.8 2200.4,2172.4 C2196.6,2218.5 2158.7,2257 2087.8,2287 C2060.1,2298.7 2019.9,2310.9 1987,2317.5 C1951.2,2324.7 1939.3,2325.1 1910.4,2320.1 L1910.4,2320.1 Z M1425.9,2122.4 C1429.5,2121.9 1433.5,2120.8 1434.8,2120.2 C1437.7,2118.8 1444.5,2110.3 1476.8,2067.5 C1497.2,2040.5 1501,2034.8 1503.7,2028 C1515.2,1998.2 1521.9,1938.8 1521.9,1866.3 C1521.9,1841.2 1521.6,1835.4 1520.5,1834.2 C1517.8,1831.6 1480.1,1824.6 1443.9,1820.1 C1411.7,1816 1387.4,1813.8 1329.5,1809.5 C1258.3,1804.2 1212.5,1800.2 1105.4,1789.9 C1056.5,1785.3 995,1779.4 968.9,1776.9 C921,1772.4 748.2,1756.5 746.6,1756.5 C746.1,1756.5 745.9,1778.4 746.1,1805.3 L746.6,1854 L751.2,1898.5 C753.7,1923 756.1,1947.7 756.5,1953.5 C758.5,1985 745.3,2013.4 712.4,2048.3 L704.8,2056.4 L708.1,2057 C709.9,2057.3 786.1,2066.8 877.4,2078.1 L1043.4,2098.7 L1218.9,2111 C1315.4,2117.7 1400,2123.3 1406.9,2123.4 C1413.8,2123.4 1422.3,2123 1425.9,2122.4 L1425.9,2122.4 Z M1528.2,1677.3 C1528.1,1669.4 1527.5,1605.6 1526.8,1535.5 C1526.2,1465.4 1525.6,1407.8 1525.4,1407.6 C1525.2,1407.5 1443.7,1401.3 1344.2,1394 C1205.6,1383.8 1155.3,1379.7 1128.9,1376.6 C1028.3,1364.8 992.9,1361.4 862,1351 C788.7,1345.2 728.5,1340.6 728.4,1340.7 C727.8,1341.4 744.1,1621.1 744.7,1621.6 C745.8,1622.5 981.2,1647.5 1153.2,1665 L1306.1,1680.6 L1415.7,1685.9 C1476,1688.9 1526.1,1691.3 1526.9,1691.4 C1528.2,1691.5 1528.4,1689.4 1528.2,1677.3 L1528.2,1677.3 Z M1525.5,1254.8 C1524.1,1243.3 1520.9,1086.9 1520.9,1029.8 L1520.9,994.5 L1518.7,994 C1517.4,993.7 1457.5,984.1 1385.4,972.5 C1261.6,952.7 1240.6,949.7 1002.8,917 C755.5,883.1 751,882.5 734.6,882.5 L717.9,882.5 L717.9,887.8 C717.7,902.2 725.3,1194.1 725.8,1194.7 C726.1,1195.1 759.9,1200.1 800.9,1206 L875.5,1216.5 L1085.9,1235.5 L1296.4,1254.4 L1396.9,1256.8 C1452.2,1258.1 1503.9,1259.3 1511.7,1259.4 L1526.1,1259.5 L1525.5,1254.8 L1525.5,1254.8 Z" id="Shape" sketch:type="MSShapeGroup"></path>
        </g>
    </g>
</svg>