<?xml version="1.0" encoding="UTF-8" standalone="no"?>
<svg width="2389px" height="2300px" viewBox="0 0 2389 2300" version="1.1" xmlns="http://www.w3.org/2000/svg" xmlns:xlink="http://www.w3.org/1999/xlink" xmlns:sketch="http://www.bohemiancoding.com/sketch/ns">
    <!-- Generator: Sketch 3.0.4 (8054) - http://www.bohemiancoding.com/sketch -->
    <title>Slice 2</title>
    <desc>Created with Sketch.</desc>
    <defs></defs>
    <g id="Page-1" stroke="none" stroke-width="1" fill="none" fill-rule="evenodd" sketch:type="MSPage">
        <g id="Group" sketch:type="MSLayerGroup" transform="translate(1194.900000, 1150.250000) scale(1, -1) translate(-1194.900000, -1150.250000) translate(1.000000, 0.500000)" fill="#000000">
            <path d="M1594,2299 C1583.5,2297.2 1566.9,2291.3 1519.2,2272.3 C1447.3,2243.7 1446.5,2243.6 1139,2201.9 C1016.7,2185.4 947.9,2176.6 861,2166.5 C797.5,2159.1 743.3,2152.6 740.5,2152.1 C730.1,2150.1 696.4,2147.8 687,2148.4 C675.9,2149.1 655.7,2153.1 607.5,2164.1 C515.9,2185.1 502.3,2187.3 487.5,2183.5 C471.9,2179.4 460,2166.9 458.3,2153 C457.3,2144.1 463,2135.5 493,2100.5 C512.9,2077.2 514.9,2074.4 524.6,2055.6 C549.3,2007.6 564.4,1949.5 570.5,1878.4 C571.3,1868.5 574.5,1815.9 577.5,1761.4 C583.8,1647.6 583.6,1661.2 581.9,1478 L580.8,1356.5 L572.9,1175.2 C568.6,1075.5 565,989.5 565,984.2 C565,957.9 573.6,920.8 585,898.2 C596.1,876.3 611.1,862.5 628.1,858.9 C636,857.2 652.3,858.3 659.2,860.9 C666.7,863.8 675.1,869.4 683.8,877.5 L690.8,884 L699,881.1 C717.7,874.2 729.8,864.4 736.3,851 C746,830.8 745.1,805.3 733.6,772.4 C713.4,714.6 662.2,629.7 586.5,528.5 C540.7,467.3 511.3,433.2 463.4,386 C372.2,296 262.7,215.2 119,131.7 C63.6,99.5 38.3,83.6 21.5,70.5 C13.1,63.9 0,50.8 0,48.8 C0,46.4 6.5,37.6 10.4,34.8 C25.4,24 56.9,28 129.5,50 C271.9,93.3 414.9,164.2 512.5,239.8 C550.3,269.1 559.5,278 702.8,423.6 L760,481.6 L839.1,582.1 C882.7,637.3 923.8,689.5 930.6,698 C954,727.7 968.2,751.4 973.5,769.6 C978.1,785.5 976.3,797.7 966.5,817.5 C958.8,832.9 949.5,845.5 935,860 C901.9,893.2 854.1,919.9 794.4,938.5 L781.4,942.6 L925.4,959.9 C1004.7,969.5 1072.8,977.7 1076.9,978.1 C1080.9,978.5 1095.5,979 1109.4,979.2 L1134.5,979.4 L1140.6,976.2 C1161.3,965 1189.6,925.8 1199.5,894.7 C1208.6,866.1 1215.3,821.9 1219.2,765.5 C1221.5,732.4 1220.7,659.4 1216,479.5 C1210.4,259 1210.3,235.1 1215.6,199 C1223.9,142.2 1250.3,100.3 1297,69.8 C1359.1,29.2 1459.1,7.5 1614.5,1 C1646.2,-0.4 1772.8,-0.4 1815.2,1 C1960.8,5.6 2065.1,18.4 2165.5,44 C2240.6,63.2 2294.8,81 2329.5,98 C2367.7,116.6 2385.4,135.5 2387.6,159.9 C2388.9,173.6 2384.4,188.2 2370.5,216 C2354.5,248 2344.3,278.8 2338,314 C2336.9,320.3 2327.9,387.8 2318,463.8 C2303.5,575.5 2299.7,602.6 2298.3,604.4 C2297.3,605.6 2290,614.1 2282.1,623.3 C2270.4,636.8 2267.4,639.8 2266.4,638.8 C2265.7,638.1 2261.4,632.6 2256.7,626.7 L2248.3,615.8 L2230.1,510.7 C2209.5,391.7 2205.6,370.2 2199.9,347.2 C2177.8,256.8 2138.1,213.1 2057,190.1 C2005.7,175.4 1913.1,163.9 1797.5,157.6 C1735,154.1 1711.2,153.5 1643.5,153.5 C1567.8,153.5 1557.7,154 1519,159.6 C1484.6,164.5 1452.5,173.3 1430.7,183.8 C1402.5,197.5 1381.5,217.9 1374.1,239 C1369.7,251.6 1368.1,286.1 1368,368.5 C1368,429.7 1368.1,431.7 1373.5,540.5 C1377.5,619.8 1379.6,654.7 1381.1,665.5 C1384.9,693.7 1392.5,727.2 1400.5,752 C1415.1,797 1422.9,825.9 1423.7,838.5 C1424.4,849.4 1422.2,858.8 1415.8,871.8 C1400.1,903.9 1367.9,938.4 1315.9,978.6 C1307.7,985 1301.2,990.6 1301.7,991.1 C1305.5,994.8 1474.1,1008.4 1524.5,1009.1 C1544.7,1009.3 1543.9,1009.5 1548.5,1004.7 C1551.8,1001.2 1554.2,996.5 1561.4,979 C1575.3,945.4 1580.2,936.5 1590.2,927.4 C1601.5,917.1 1613.5,913.5 1634,914.3 C1645.1,914.7 1648.8,915.2 1654.8,917.3 C1684.9,927.9 1707.2,959.2 1720.1,1008.9 C1723.8,1023.3 1727.5,1044.8 1729,1060.5 C1729.9,1070.6 1755.7,1825.3 1757.5,1896.5 C1758.4,1931.3 1759.9,1957.2 1761.6,1967.9 C1763.2,1978.3 1764.3,1981.2 1778.8,2011.5 C1805.2,2067 1810.6,2085.9 1805,2104.1 C1797.9,2127.6 1777.2,2154.1 1718.9,2214.6 C1666,2269.3 1635.6,2294.3 1617.5,2297.9 C1609.9,2299.4 1599,2299.9 1594,2299 L1594,2299 Z M1554.5,2116.4 C1557.7,2115.6 1562,2114 1564,2113 C1569.1,2110.4 1575.4,2103.2 1577.6,2097.4 C1579.4,2092.7 1579.5,2088.4 1579.5,1990.2 L1579.5,1887.8 L1577.2,1885.9 C1572.5,1882.2 1562.2,1880.1 1526.5,1875.9 C1516.6,1874.8 1492.5,1871.4 1473,1868.4 C1451.1,1865 1305.7,1847.1 1092.1,1821.5 C902.2,1798.7 746.2,1780 745.4,1780 C744.7,1780 743.1,1782.6 741.9,1785.8 C739.7,1791.4 739.6,1792.7 738.9,1849 C738.1,1908.3 737.2,1924.3 733,1954 C730.2,1972.8 731.2,1984.5 737.1,2004.2 L739,2010.9 L746.8,2013.8 C759.9,2018.9 770.1,2022 780.5,2024 C795.1,2026.9 1099.1,2066.3 1320.5,2093.9 C1426.1,2107.1 1514.5,2118.1 1517,2118.3 C1525.7,2119.2 1548.4,2118.1 1554.5,2116.4 L1554.5,2116.4 Z M1569.5,1747 L1577.7,1747 L1578.9,1735.3 C1580,1724.9 1579.7,1713.1 1576.6,1636 C1571.7,1516.1 1572.3,1525.1 1569.1,1523.9 C1555.9,1518.8 1533.4,1514.8 1494.5,1510.5 C1481.9,1509.1 1344.2,1494 1188.5,1476.9 C944.8,1450.2 899.7,1445 863.5,1439.5 C796.8,1429.3 771.6,1426.1 754,1425.7 L744.6,1425.5 L741.8,1447 L739.1,1468.5 L739,1554.2 L739,1639.8 L741.5,1642.9 C746.8,1649.1 750.1,1649.7 881.5,1668 C1031.5,1689 1208.5,1711 1396,1732 C1522,1746.2 1538.8,1747.9 1549.4,1747.5 C1556,1747.2 1565,1747 1569.5,1747 L1569.5,1747 Z M1561.5,1389 C1563,1388.4 1564.7,1386.6 1565.6,1384.4 C1566.9,1381.2 1566.5,1371.2 1560.6,1272.2 C1552.7,1140.5 1553.1,1145.3 1549.7,1142.4 C1548.2,1141.2 1544.7,1139.7 1541.8,1139.1 C1538.9,1138.5 1428.7,1129.7 1297,1119.5 L1057.5,1100.9 L898.5,1083.6 C811.1,1074 739.4,1066.3 739.3,1066.4 C739.2,1066.5 738.6,1071.7 737.9,1077.9 C736.7,1089.3 736.8,1100.9 738.9,1226.5 C739.7,1274.7 739.9,1277 744,1285 C747.6,1292 756.3,1298.4 765.5,1300.9 C767.7,1301.4 829.8,1310.3 903.5,1320.5 L1037.5,1339.1 L1274.5,1363.6 C1404.9,1377.1 1515.3,1388.5 1520,1389 C1532.9,1390.1 1558.5,1390.1 1561.5,1389 L1561.5,1389 Z" id="Shape" sketch:type="MSShapeGroup"></path>
        </g>
    </g>
</svg>