<?xml version="1.0" encoding="UTF-8" standalone="no"?>
<svg width="1609px" height="2337px" viewBox="0 0 1609 2337" version="1.1" xmlns="http://www.w3.org/2000/svg" xmlns:xlink="http://www.w3.org/1999/xlink" xmlns:sketch="http://www.bohemiancoding.com/sketch/ns">
    <!-- Generator: Sketch 3.0.4 (8054) - http://www.bohemiancoding.com/sketch -->
    <title>Slice 2</title>
    <desc>Created with Sketch.</desc>
    <defs></defs>
    <g id="Page-1" stroke="none" stroke-width="1" fill="none" fill-rule="evenodd" sketch:type="MSPage">
        <g id="Group" sketch:type="MSLayerGroup" transform="translate(804.450000, 1168.300000) scale(1, -1) translate(-804.450000, -1168.300000) translate(0.000000, 0.200000)" fill="#000000">
            <path d="M619.8,2335 C596.4,2330.8 580.9,2320.6 567.5,2300.5 C558.7,2287.2 558.3,2286.1 560.6,2283.1 C561.7,2281.7 572.6,2269.9 584.9,2256.8 C635.9,2202.5 647.9,2187.4 652.6,2170.9 C654.7,2163.3 654.1,2144.1 651,2127.7 C643.1,2084.2 619.5,2018.9 583.5,1940.9 C561.4,1892.9 517.9,1808.9 509.1,1797.6 C507.9,1795.9 505.2,1794.7 499.6,1793.4 C484.7,1789.8 434.7,1783.9 377,1778.9 C313.8,1773.5 304.2,1773 268.5,1772.9 C235.7,1772.9 232.8,1773.1 223,1775.2 C200.8,1780.1 182.2,1787.4 129,1812.4 C91.4,1830.1 88.9,1830.8 69.5,1830.1 C50.9,1829.4 39.6,1826 12.8,1813.2 L0,1807.1 L0,1796.3 L0,1785.6 L9.4,1771.7 C14.5,1764.1 26.4,1746.9 35.9,1733.4 C54,1707.5 57.5,1701.3 64,1683.8 C79.7,1641.9 89.9,1586.3 94.5,1518.4 C97.4,1474.6 98,1435.1 98,1272.8 L98,1108.8 L84.4,707.8 C68.5,237.2 68.4,232.1 74.6,177.9 C79.4,135.9 90.3,90.7 105.4,50.3 C117.3,18.5 115,22 128.1,14.8 C148.9,3.3 159.1,0 174,0 C200.4,0.1 215.2,10 233.6,39.6 C236.7,44.7 245,59.9 251.8,73.4 C258.7,86.9 264.4,98 264.5,98.2 C264.6,98.3 275.7,100.7 289.1,103.4 C313.4,108.3 314.5,108.5 486,125.9 L658.5,143.4 L830.5,154.4 L1002.5,165.5 L1116,165.1 L1229.5,164.8 L1241.7,162.1 C1276.4,154.4 1301.9,142.2 1320.6,124.2 C1327.5,117.5 1331.9,111.9 1343.4,94.4 C1366.9,59 1377,46.4 1387.6,38.8 C1397.3,31.8 1403,30.2 1420.1,29.7 C1437,29.1 1446.1,30.8 1458.5,36.9 C1496.2,55.6 1527.3,114 1538.1,186.9 C1539.9,199.3 1540.1,212.6 1541.5,496.9 L1543,793.9 L1548.5,1044.4 L1554,1294.9 L1562,1422.9 L1569.9,1550.9 L1575.5,1579.4 C1581.5,1610.7 1583.4,1617.7 1598.6,1668.6 C1610.1,1706.9 1610.5,1709.4 1606.9,1721 C1599,1746.9 1572.4,1778.3 1528.9,1813.2 C1480.3,1852.2 1410.7,1893 1368.3,1907.3 C1343.9,1915.6 1345.5,1915.8 1275.5,1895.9 C1233.6,1883.9 1189.7,1874.6 1127.5,1864.5 C1103.7,1860.6 712.1,1814.6 685,1812.4 C670.4,1811.3 656.3,1810.1 653.5,1809.8 L648.6,1809.2 L665.7,1827 C696.5,1859.3 700.3,1864.1 781.8,1971.4 L842.9,2051.9 L857.8,2063.6 C872.9,2075.4 880.7,2083.6 888.8,2096.3 C904.2,2120.3 907.1,2145.6 897.3,2169.1 C889.4,2187.8 872.1,2205.5 837.5,2230.1 C814.8,2246.2 727.6,2305.5 714.1,2313.9 C698.7,2323.5 684.1,2330.6 673.5,2333.5 C663.3,2336.2 632.1,2337.1 619.8,2335 L619.8,2335 Z M1328.7,1739.2 C1336.3,1736.4 1347.6,1728.6 1354.6,1721.3 C1369.6,1705.7 1378.6,1688.4 1384.2,1664.4 C1387.3,1650.8 1387.4,1630.1 1384.6,1513.4 C1383.2,1453.7 1382,1403.1 1382,1401 L1382,1397.1 L1374.8,1397.8 C1370.8,1398.1 1356,1399.8 1342,1401.5 C1326.8,1403.3 1311.3,1404.5 1303.5,1404.5 C1282.6,1404.6 1227,1398.8 871.5,1359.4 L610.5,1330.4 L488.5,1320.9 C421.4,1315.7 359.8,1310.9 351.5,1310.3 C330.8,1308.7 293.5,1309.7 275.5,1312.3 C267.8,1313.4 261.1,1314.4 260.5,1314.4 C259.3,1314.4 259.5,1344.5 261,1393.4 C262.7,1447.6 269.7,1634.5 270.2,1634.9 C270.4,1635.1 280.9,1635.8 293.5,1636.4 C313.9,1637.4 335.9,1640.2 488.5,1660.5 L660.6,1683.4 L876,1705.9 L1091.5,1728.5 L1203,1735.4 C1264.3,1739.1 1316.5,1742 1319,1741.7 C1321.5,1741.4 1325.8,1740.3 1328.7,1739.2 L1328.7,1739.2 Z M1381.1,1244.7 C1381.1,1242 1381.7,1229.2 1382.3,1216.1 C1383.3,1196 1383.1,1169.3 1380.8,1043.1 C1379.4,961 1378.1,893.2 1378.1,892.3 C1378,890.9 1376.3,891.2 1366.2,894.4 C1351.8,899 1338.7,901.9 1325.8,903.3 C1313.5,904.7 1282,904.7 1263,903.4 C1255,902.8 1083.1,887.7 881,869.8 C678.9,852 505.4,836.7 495.5,835.9 C442.4,831.6 376.5,828.5 324.5,827.7 C284,827.1 281.9,827.2 266.8,829.4 C258.1,830.7 250.5,832.1 249.8,832.5 C248.2,833.5 253.4,1152.6 255.2,1161.5 L256.3,1167.1 L303.9,1167.7 C362.6,1168.4 368.2,1168.8 457.5,1180.5 C579.2,1196.3 582.3,1196.6 804.5,1216.4 L1018.5,1235.5 L1137.5,1240.9 C1203,1243.9 1260.8,1246.6 1266,1247 C1274.8,1247.6 1326.9,1248.8 1364.8,1249.2 L1381,1249.4 L1381.1,1244.7 L1381.1,1244.7 Z M1250.5,759.9 C1258.8,759.7 1273.6,758.7 1283.5,757.9 C1304.1,756.1 1377,748.7 1381.5,747.9 L1384.5,747.4 L1383.3,642.2 L1382.1,536.9 L1375.4,410.9 C1371.7,341.6 1368.6,284.8 1368.5,284.6 C1368.3,284.4 1363.3,287 1357.3,290.3 C1337.5,301.2 1314.9,310 1295.2,314.4 C1271.8,319.6 1236.8,321.5 1188,320.2 C1133.8,318.9 1122,317.9 657.2,275.3 C434.2,254.9 251.7,238.4 251.5,238.6 C251.3,238.7 250,275.4 248.5,319.9 L245.9,400.9 L247.1,541.9 C247.7,619.5 248.6,683.2 248.9,683.5 C249.2,683.9 254.6,683.1 260.8,681.8 C280,677.9 292.7,677.1 324.4,677.7 C343.4,678.1 362.7,679.1 380,680.8 C394.6,682.2 499,694.8 612,708.8 L817.5,734.3 L951,744.8 C1041.6,751.9 1091.9,755.4 1107.5,755.8 C1120.2,756.1 1147.8,757.2 1169,758.3 C1213.2,760.7 1222.4,761 1230,760.7 C1233,760.6 1242.3,760.2 1250.5,759.9 L1250.5,759.9 Z" id="Shape" sketch:type="MSShapeGroup"></path>
        </g>
    </g>
</svg>