<?xml version="1.0" encoding="UTF-8" standalone="no"?>
<svg width="2459px" height="2329px" viewBox="0 0 2459 2329" version="1.1" xmlns="http://www.w3.org/2000/svg" xmlns:xlink="http://www.w3.org/1999/xlink" xmlns:sketch="http://www.bohemiancoding.com/sketch/ns">
    <!-- Generator: Sketch 3.0.4 (8054) - http://www.bohemiancoding.com/sketch -->
    <title>Slice 2</title>
    <desc>Created with Sketch.</desc>
    <defs></defs>
    <g id="Page-1" stroke="none" stroke-width="1" fill="none" fill-rule="evenodd" sketch:type="MSPage">
        <g id="Group" sketch:type="MSLayerGroup" transform="translate(1229.500000, 1164.250000) scale(1, -1) translate(-1229.500000, -1164.250000) translate(0.000000, 0.400000)" fill="#000000">
            <path d="M1051.4,2327.1 C1030.7,2323.4 1014.4,2313.5 1001.8,2296.9 C995.6,2288.8 983,2268.8 983,2267 C983,2264.1 997.6,2243.1 1008.4,2230.6 C1012.1,2226.2 1022.9,2214.3 1032.4,2204.2 C1042.2,2193.7 1051.4,2182.9 1053.9,2178.7 C1068.5,2155.2 1078.9,2120.6 1083.5,2080.6 C1087.3,2047.6 1087.3,2034.6 1083,1881.1 C1078.9,1737.2 1078.9,1735.6 1077.5,1500.1 C1074.3,958.9 1067.3,394.2 1063.5,377 C1060.1,361.5 1052.8,346.5 1045.7,340.5 C1038.6,334.5 1035.2,333.8 1017.6,334.4 C994.9,335.2 969.9,339.3 933.5,348.1 C870.5,363.5 783.5,393.7 732,418.1 C721.8,423 708.5,428.5 702.5,430.4 C692.5,433.6 673.5,437.1 665.9,437.1 C662.8,437.1 662.8,437.1 663.5,432.9 C665.4,421.5 671.7,408.1 682.9,391.4 C694,374.9 705.5,361.5 726.5,340.6 C760.1,306.9 812.3,263.8 861.3,229.1 C902.5,199.9 931.8,170.1 945.8,143.3 C948.5,138 956.1,120.6 962.5,104.6 C995.1,23.8 1005.4,8.4 1031.5,1.6 C1040.6,-0.7 1061.4,-0.5 1071.2,2 C1107.3,11.3 1144.2,48.6 1176.9,108.8 C1209.1,168.2 1235.2,249.1 1241,308.1 C1242.8,327.2 1239.5,602.2 1235,802 L1231,979.6 L1231.2,1165 L1231.5,1350.4 L1242.9,1333.5 C1267.4,1297.4 1288.5,1268.8 1309.4,1243.6 C1322.1,1228.3 1324.8,1225.2 1438.9,1094.1 C1542.8,974.8 1535.3,983 1705.3,804.6 C1779,727.4 1804.2,701.8 1882.8,624.3 C1946.7,561.4 1976.7,532.5 1981.7,529.2 C1994.9,520.2 2007.4,517.6 2042.8,516.1 C2068.6,515.1 2103.5,515.6 2259.5,519.6 C2364.1,522.2 2375.7,522.8 2396.6,526.6 C2419.3,530.8 2459,543.7 2459,546.8 C2459,548.1 2458,552.6 2454.9,564.2 C2454.2,567.1 2452,569.3 2443.3,576.3 C2412.9,600.3 2391.1,615 2346.9,640.9 C2315.4,659.4 2283.1,676.5 2185,726.6 C2137.7,750.8 1941.2,855.3 1926.4,864.2 C1899.2,880.5 1778.1,973.4 1707.3,1032.3 C1672.2,1061.5 1500.1,1220.4 1408,1308.6 C1358.2,1356.3 1315.6,1397.1 1313.3,1399.4 L1309.1,1403.6 L1319.8,1408.5 C1325.7,1411.2 1337.8,1416 1346.7,1419.2 C1358.2,1423.3 1368.8,1428.1 1383.7,1436 C1399.4,1444.3 1426.7,1456.5 1494.5,1485.6 C1544,1506.9 1603.9,1533.2 1627.5,1544.1 C1662.1,1560 1706.3,1578.5 1854,1638.9 C1954.9,1680.1 2044.5,1716.9 2053,1720.6 C2098.5,1740.3 2118.3,1752.8 2128.9,1768.6 C2137.5,1781.4 2141.1,1799 2139.1,1817.4 C2137.4,1832.5 2133,1842.9 2123.2,1855.2 C2106.3,1876.5 2079.1,1896.7 1971.1,1968.3 C1932.9,1993.7 1917.7,2002.8 1906.2,2007.5 C1898.6,2010.6 1898.2,2010.6 1882,2010.5 C1870,2010.5 1862.1,2009.9 1853,2008.3 L1840.5,2006.2 L1836.4,2001.7 C1827.6,1992.1 1823.2,1980.5 1824.5,1970.2 C1824.9,1967.1 1827.9,1951.8 1831.2,1936.1 C1838.1,1903.6 1838.7,1895.8 1835.1,1880.7 C1831.3,1864.6 1824.3,1852.6 1810.6,1838.3 C1800.9,1828.2 1792.8,1821.3 1762.5,1797.5 C1696.8,1745.9 1621.1,1692 1575.5,1664.4 C1559.9,1654.9 1279.5,1500.9 1262.3,1492.3 L1246.9,1484.6 L1245,1487.1 C1243.9,1488.5 1241.5,1492.8 1239.5,1496.6 C1233.7,1508.1 1233.3,1513.9 1235.3,1557.9 C1241.1,1686.3 1242,1699.4 1251.5,1813.1 C1262.5,1943.6 1263.2,1949.1 1274.1,1992.3 C1278.9,2011.4 1281.9,2021.2 1298.9,2074.1 C1309.5,2106.8 1312.8,2119.9 1313.6,2131.3 C1316.4,2171.1 1293.6,2198.1 1202,2263.7 C1147.7,2302.6 1121.9,2318 1099.5,2324.7 C1091.5,2327.1 1088.5,2327.4 1073.5,2327.7 C1064.2,2327.8 1054.2,2327.6 1051.4,2327.1 L1051.4,2327.1 Z" id="Shape" sketch:type="MSShapeGroup"></path>
            <path d="M768,1643.7 C751.9,1638 726,1621.9 693,1597.1 C679.4,1586.9 674.7,1584.1 658,1576.6 C587.8,1544.8 456.9,1501.1 378,1483.2 C339.7,1474.5 315.9,1471.1 292.5,1471.1 C260.5,1471.1 243.2,1476.6 212,1496.8 C187,1512.8 123.9,1550.3 122.6,1549.8 C120.7,1549 109.6,1528 107,1520.1 C104.2,1511.9 103.1,1497.7 104.1,1482.3 C106.3,1446.4 117.5,1421.5 150.9,1378.1 C193.3,1323.1 219.8,1299.3 247.5,1291.5 C256.6,1288.9 287.8,1288.4 299.5,1290.6 C311.9,1292.9 318.7,1295.6 362,1315.4 C402.1,1333.7 650,1439.5 650.8,1438.6 C652.5,1436.9 613.1,1331 594.8,1288.1 C527.2,1129.9 420.6,964.1 278.7,796.3 C217.7,724.1 164.7,667.2 63.4,565.1 C33.7,535.1 7.2,507.7 4.7,504.2 C1,499.3 0,497 0,494 C0,486.8 9.8,479.1 19.1,479.1 C37.6,479.1 82.2,498.7 150.5,536.8 C214.6,572.6 223,578 259.7,607.1 C296,635.9 358.2,688.6 379.1,708.2 C386.3,714.9 532.9,872.5 540.3,881.5 C549.5,892.5 675.8,1083.6 692.7,1112.1 C700.4,1125 734.3,1183.8 767.9,1242.6 C860.5,1404.3 859.6,1402.8 875.5,1418.6 C885,1428.1 905.8,1444.4 939.7,1469 C957.2,1481.7 959.1,1484.4 970.5,1512.8 L976,1526.4 L970.9,1536 C959.9,1556.5 951.2,1567.6 938.8,1577 C924.5,1587.8 872.6,1615.8 844.3,1628 C806.3,1644.4 783.3,1649.2 768,1643.7 L768,1643.7 Z" id="Shape" sketch:type="MSShapeGroup"></path>
        </g>
    </g>
</svg>