<?xml version="1.0" encoding="UTF-8" standalone="no"?>
<svg width="2266px" height="2287px" viewBox="0 0 2266 2287" version="1.1" xmlns="http://www.w3.org/2000/svg" xmlns:xlink="http://www.w3.org/1999/xlink" xmlns:sketch="http://www.bohemiancoding.com/sketch/ns">
    <!-- Generator: Sketch 3.0.4 (8054) - http://www.bohemiancoding.com/sketch -->
    <title>Slice 2</title>
    <desc>Created with Sketch.</desc>
    <defs></defs>
    <g id="Page-1" stroke="none" stroke-width="1" fill="none" fill-rule="evenodd" sketch:type="MSPage">
        <g id="Group" sketch:type="MSLayerGroup" transform="translate(1132.750000, 1143.650000) scale(1, -1) translate(-1132.750000, -1143.650000) translate(0.200000, 0.500000)" fill="#000000">
            <path d="M601.8,2285.7 C581.9,2283.2 571.3,2277.1 550.1,2255.6 L540.8,2246.3 L543.4,2242.3 C554.4,2225.8 567.6,2208 578.2,2195.4 C593.8,2176.7 596.1,2172.4 596.6,2160.8 C599.1,2108.3 549.3,2000.7 462.9,1872.3 C415.8,1802.2 360.7,1731 307,1670.8 C288.4,1649.9 126.3,1487.5 99.3,1462.7 C88.9,1453.1 68.7,1434.7 54.4,1421.8 C32.2,1401.8 28.2,1397.7 26.3,1393.4 C22.7,1385.1 13.5,1356.7 14.3,1356 C14.6,1355.6 18.8,1356.3 23.5,1357.6 C60.2,1367.1 133,1408.1 222.2,1469.5 C264.1,1498.4 310.5,1532.6 322.8,1543.6 C325.8,1546.3 360,1575.6 398.8,1608.8 C441.3,1645.1 482.6,1681.4 502.8,1700.2 C521.2,1717.4 538.1,1733 540.4,1735.1 L544.5,1738.7 L562.9,1729.4 C598.3,1711.5 625.3,1702.8 659.8,1698.2 C674.7,1696.2 708.4,1695.9 723.3,1697.7 C728.8,1698.3 779.5,1706 835.9,1714.8 C892.3,1723.6 939.1,1730.8 939.9,1730.8 C941.6,1730.8 959.6,1708.6 970.5,1693 C990.3,1664.7 1000.3,1642.2 1003.8,1618 C1004.4,1613.9 1005.2,1561.1 1005.7,1493.1 C1006.3,1428.3 1007,1351.9 1007.3,1323.3 L1007.9,1271.2 L996.2,1270 C984.1,1268.7 953.1,1264.6 871.3,1253.4 C806,1244.4 805.5,1244.4 567.3,1220.2 C362,1199.3 353.3,1198.5 327.5,1198 C274,1197.1 219.7,1202.8 172.9,1214.4 C154.1,1219 125.7,1228.7 58.8,1253.4 C40.4,1260.3 24.8,1265.6 24.1,1265.4 C22.2,1264.6 9.8,1246.7 6.2,1239.3 C-14.9,1196.5 18.3,1141 96.7,1088 C155.8,1048 229.4,1017.8 267.9,1017.8 C283.8,1017.8 301.4,1021.9 377.8,1043.3 C396.2,1048.4 417.6,1054.2 425.3,1056.2 C433.4,1058.2 510.2,1071.6 608.3,1088.2 L777.3,1116.8 L893.5,1131.3 C957.4,1139.3 1009.9,1145.8 1010.1,1145.8 C1010.3,1145.8 1010.8,1034.8 1011.1,899.1 C1011.5,763.3 1012.1,574.6 1012.5,479.7 L1013.1,307.1 L1008.2,306.5 C1005.5,306.1 976.1,303.4 942.8,300.3 C909.5,297.3 872.9,293.4 861.3,291.8 C849.8,290.1 763.8,277.3 670.3,263.4 C576.8,249.5 500.2,238.2 500,238.3 C498.7,239.4 486.8,586.2 486.8,621.8 C486.8,642.9 488.6,685.5 489.9,693.3 C490.4,696.6 492.6,709.7 494.8,722.3 C503.1,771.1 503.6,779.3 499.2,792.8 C490.2,819.8 460.1,852.4 418.3,880.3 C377.3,907.7 337.4,922.8 306.3,922.8 C271.1,922.8 243.2,907.6 236.4,884.8 C232.3,871.1 234.7,866.6 269.8,821.8 C282.4,805.8 285.8,799.9 291.9,784.4 C312,732.7 325,650 332.3,527.3 C344.6,318.3 347,272 346,264.8 C344.6,254.7 338.8,235.3 334,224 C326.9,207.6 322.1,200.2 310.3,187.9 C290.7,167.4 285.8,159.8 285.8,149.7 C285.8,131.5 306.6,100.7 342.9,65.3 C359.2,49.3 367.2,42.3 381.5,31.5 C409.2,10.5 433.7,-1.2 447.1,0.1 C456.3,0.9 475.8,12.5 514.3,39.9 C551.7,66.6 556.4,69.2 588.8,82.3 C633.4,100.3 686.8,117.3 749.3,133.3 C771.3,139 817,149.5 826.8,151.2 C828.7,151.5 891.7,158.3 966.8,166.3 L1103.3,180.9 L1244.3,188.9 L1385.3,196.9 L1474.3,194.9 C1659.5,190.5 1660.4,190.5 1669.4,182.6 C1674.4,178.2 1675.9,174.1 1680.2,153.3 C1696.5,74.8 1711.2,42.7 1736.8,29.9 C1750.2,23.2 1768.6,22 1782.7,26.8 C1818.2,39.2 1845.6,91 1863.7,180.3 C1865.4,188.6 1887.7,316.1 1913.4,463.8 L1960,732.3 L1968.8,767.3 C1983.4,824.9 1984.8,834.1 1980.8,850.3 C1967.6,905 1890.7,990.9 1827.3,1021.8 C1807.9,1031.2 1795,1034.8 1780.4,1034.8 C1759.6,1034.8 1746.4,1027.5 1714.1,997.8 L1707.7,992 L1716.1,977.1 C1743,929.8 1756.5,893.5 1764.3,847.6 C1772.2,800.8 1773.6,754.2 1768.8,700.8 C1765.6,664.9 1760,605.9 1758.3,590.3 C1757,579.2 1721.9,331.7 1721.4,331.1 C1721.4,331.1 1652.9,329.8 1569.3,328.4 C1469.2,326.6 1374.2,324.4 1290.9,321.7 C1221.4,319.5 1164.4,317.9 1164.1,318.2 C1163.9,318.4 1164.8,372.5 1166.2,438.5 C1167.8,512 1169.4,626.2 1170.3,733.8 L1171.8,909.3 L1176.7,1035.1 C1179.4,1104.4 1181.9,1161.2 1182.2,1161.5 C1182.5,1161.8 1271,1167.4 1379,1173.9 L1575.3,1185.7 L1738.8,1188.9 L1902.3,1192.1 L2013.3,1182.4 C2074.4,1177.1 2131.1,1172.1 2139.3,1171.3 C2156.8,1169.6 2187.7,1169.4 2199.8,1170.8 C2229.5,1174.5 2250.4,1186.5 2259.1,1204.8 C2263.6,1214.3 2265.1,1221.8 2265.1,1233.8 C2265.1,1249.2 2260.9,1261.5 2250.8,1276.2 C2244.9,1284.8 2228.7,1300.8 2217.6,1309.1 C2172.1,1343.1 2094.8,1369.9 2042.3,1369.9 C2026.3,1370 2005.5,1368.1 1931.8,1359.8 C1875.4,1353.5 1186.3,1292.9 1185.1,1294.1 C1184.8,1294.5 1187,1343.1 1190.2,1402.1 L1195.9,1509.3 L1202.3,1554.2 C1210.3,1610.6 1211.2,1619.4 1210.4,1633.8 C1208.6,1666.9 1195.2,1695.9 1161.9,1738.6 C1155.2,1747.2 1151.3,1753 1152,1753.2 C1152.7,1753.5 1238.1,1764.3 1341.8,1777.3 L1530.3,1801 L1554.8,1799.8 C1584.2,1798.3 1715.8,1799 1736.8,1800.7 C1771.3,1803.6 1791.8,1807.7 1806.1,1814.7 C1826.2,1824.4 1834.6,1840 1833.6,1866.2 C1833,1880.4 1831.3,1885.9 1823.7,1897.3 C1807.7,1921.2 1769.3,1943.6 1720.3,1957.6 C1682,1968.6 1643.9,1973.8 1615.8,1971.8 C1600.9,1970.7 1591.5,1968.4 1550.8,1955.8 C1513.7,1944.3 1497.2,1940 1468.4,1934.3 C1455.8,1931.8 1362,1916 1259.9,1899.2 L1074.3,1868.7 L946.8,1851.6 L819.3,1834.6 L783.8,1834.5 C748.6,1834.5 724.6,1835.5 692.8,1838.4 C674.6,1840 642.5,1843.8 641.9,1844.3 C641.7,1844.6 679.3,1895.4 753.9,1995.3 C766.2,2011.8 776.5,2020.9 816.8,2051.1 C857.4,2081.4 865.6,2091.4 866.6,2111.8 C867.2,2123.7 865.2,2133.3 860.3,2143.7 C848.7,2167.8 826.5,2188.2 770.3,2226 C715.7,2262.8 683.7,2278.6 653,2283.9 C639.6,2286.1 612.9,2287.1 601.8,2285.7 L601.8,2285.7 Z" id="Shape" sketch:type="MSShapeGroup"></path>
        </g>
    </g>
</svg>