<?xml version="1.0" encoding="UTF-8" standalone="no"?>
<svg width="2044px" height="2245px" viewBox="0 0 2044 2245" version="1.1" xmlns="http://www.w3.org/2000/svg" xmlns:xlink="http://www.w3.org/1999/xlink" xmlns:sketch="http://www.bohemiancoding.com/sketch/ns">
    <!-- Generator: Sketch 3.0.4 (8054) - http://www.bohemiancoding.com/sketch -->
    <title>Slice 2</title>
    <desc>Created with Sketch.</desc>
    <defs></defs>
    <g id="Page-1" stroke="none" stroke-width="1" fill="none" fill-rule="evenodd" sketch:type="MSPage">
        <g id="Group" sketch:type="MSLayerGroup" transform="translate(1021.700000, 1122.200000) scale(1, -1) translate(-1021.700000, -1122.200000) translate(0.000000, 0.300000)" fill="#000000">
            <path d="M1814.5,2236.7 C1782.4,2228.5 1760.4,2222.5 1746,2218.1 C1719.6,2209.9 1711,2208.5 1524,2181.6 L1367.5,2159 L961,2111.5 C737.4,2085.4 547.8,2063.3 539.5,2062.4 C520.6,2060.3 469.5,2060 453.9,2061.9 C444.3,2063 441.9,2063.8 429.3,2069.6 C408.5,2079 357,2100.9 328.7,2112.3 C280.3,2131.6 250.8,2141.7 239.5,2142.8 C223.9,2144.2 205.5,2135.1 190,2118.4 C186.1,2114.1 182.5,2109.9 182,2109.1 C181.6,2108.2 182.4,2103.8 183.9,2098.4 L186.5,2089.2 L217,2058.4 C268.1,2006.9 276.9,1996.3 290,1970.1 C311.6,1926.9 324.6,1885.1 330.6,1838.9 C332.5,1823.8 333.4,1791.5 336.6,1613.1 L339.3,1461.6 L333.6,1343.1 L327.9,1224.6 L317,1116.1 C310.9,1056.4 303.7,989.6 301,967.6 C296,928 295.7,926.5 274.4,822.6 C262.5,764.9 251.6,712.4 250,706.1 C239.5,664.4 206.8,569.2 180.8,504.6 C164.4,464.1 91.5,296.7 80.1,273.6 C73.1,259.3 58,230.1 46.5,208.6 C26.4,171 0,119.5 0,117.8 C0,116.5 15.9,109.4 22.5,107.6 C29.3,105.9 33.7,105.7 39.9,107.2 C93.9,119.6 220.4,285 304.4,452.9 C327.2,498.5 331.2,507.9 372.5,614.1 C406.6,701.7 408.4,707.1 426.6,775.6 C429.8,787.7 432.5,797.7 432.6,797.9 C432.7,798 434.8,797.7 437.3,797.1 C446.6,795.1 465.3,794.1 477.5,795 C484.1,795.5 501,797.9 515.1,800.4 C566.9,809.6 624.8,817.9 827.9,845 C963.6,863.1 1035.6,872.4 1035.8,871.7 C1035.9,871.1 1032.4,785.3 1028,681.1 C1019.7,484.7 1019,455.8 1021,412.1 C1028.2,261.2 1050.3,170 1083.5,154.5 C1091,151 1099.9,151.2 1106.5,155 C1121.1,163.4 1136.9,186.7 1149.3,218.1 C1169.9,270.4 1183.9,348.9 1188.9,440.6 C1190.9,476.5 1191.2,489.8 1194,691.5 C1195.6,804.1 1197,896.4 1197.2,896.6 C1197.4,896.7 1236.7,902.3 1284.5,909 C1366.2,920.4 1379.4,922 1501,934.6 L1630.5,948 L1706.5,951.6 C1748.3,953.5 1788.4,955.8 1795.6,956.6 C1802.8,957.4 1812.9,958.1 1818.1,958.1 L1827.5,958.1 L1827.3,935.4 C1827.1,922.8 1826.6,832.1 1826,733.6 L1824.9,554.6 L1819.9,444.6 C1817.2,384.1 1814.3,328.6 1813.5,321.3 C1810.6,296.4 1805.3,282.2 1795.6,273.4 C1782.2,261.1 1771.4,262 1694,281.5 C1629.7,297.8 1602.4,305.5 1582,313 C1558.5,321.7 1504.9,339.7 1489.1,344.1 C1475.1,348.1 1471,347.9 1466.3,342.7 C1463.3,339.5 1463,338.5 1463,333.1 C1463,317.4 1478.3,294.4 1505,270.2 C1510.8,264.9 1551.3,233.2 1595,199.7 C1683.4,131.9 1698.8,119.9 1713.9,106.7 C1732.9,90.1 1744.7,74.7 1762.5,43.1 C1767.3,34.6 1772.8,25.3 1774.7,22.4 C1785.1,6.8 1800.7,-6.82121026e-13 1826.4,-6.82121026e-13 C1840.4,-6.82121026e-13 1850.2,2.1 1861.8,7.6 C1918,34.2 1964.4,127.6 1978.9,243.1 C1986.5,303.4 1991,375 1993.5,474.1 C1993.9,488.3 1993,569.1 1991.4,666.6 L1988.7,834.6 L1989.9,1230.6 L1991.1,1626.6 L1999,1778.6 C2008.2,1955.1 2005.6,1931.6 2024.4,2009.1 C2043,2086 2043.4,2088 2043.4,2105.6 C2043.5,2120.2 2043.4,2120.8 2040.7,2126.1 C2034.3,2138.5 2025.2,2146.6 1977.8,2182.2 C1939.7,2210.9 1933.2,2215.2 1914.7,2224.1 C1891.6,2235.2 1867.8,2242.7 1852,2243.6 C1843.9,2244.2 1842.3,2243.9 1814.5,2236.7 L1814.5,2236.7 Z M1747.9,2064.1 C1788.5,2061.9 1804.5,2057.9 1815.9,2046.8 C1832.6,2030.7 1834.9,2008.9 1833.1,1885.1 C1832.5,1845.8 1831.8,1789.3 1831.5,1759.6 C1831.2,1729.9 1830.7,1694.3 1830.4,1680.5 L1829.8,1655.5 L1820,1654.2 C1814.6,1653.6 1801.7,1651.2 1791.3,1649.1 C1775.8,1645.8 1744.6,1641.8 1616,1626.1 C1469.2,1608.3 1451.9,1606 1336.5,1588.8 C1268.9,1578.7 1213.4,1570.5 1213.2,1570.6 C1213.1,1570.7 1215.9,1631.1 1219.5,1704.7 C1223.9,1796.2 1226.6,1843.7 1228,1854.6 C1234.4,1905.9 1235.1,1918.6 1232.5,1933.4 C1228.3,1957.6 1216.2,1976.5 1190.6,1999 C1184.8,2004.2 1180.1,2008.5 1180.3,2008.7 C1180.5,2008.9 1207.6,2012.5 1240.6,2016.7 C1279.3,2021.7 1369.3,2031.5 1495,2044.6 C1709.3,2066.9 1702.7,2066.4 1747.9,2064.1 L1747.9,2064.1 Z M1010.2,1978.3 C1027,1960.9 1036.2,1943.5 1043.5,1915.6 C1051.5,1885.2 1054.9,1851.6 1055,1804.1 C1055.1,1784 1050.1,1547.3 1049.6,1546.4 C1049.5,1546.3 995.9,1538.3 930.5,1528.7 C812.9,1511.3 810.5,1511 725,1502.2 C605.8,1489.8 605.6,1489.8 575,1489.7 C549,1489.7 539.6,1490.4 517.6,1493.8 L506.8,1495.5 L507.4,1500.1 C507.7,1502.6 508.2,1530.5 508.6,1562.1 C509.7,1657.4 505.6,1818.8 499.7,1912 L499.5,1915.5 L523.5,1920.8 C564.9,1930 596.1,1936 608,1937.1 C614.3,1937.7 704.3,1949.2 808,1962.6 C911.7,1975.9 997.7,1986.9 999.1,1987 C1001.1,1987.1 1003.6,1985.2 1010.2,1978.3 L1010.2,1978.3 Z M1829.7,1425.4 C1829.3,1378.7 1828.7,1287.2 1828.3,1221.9 C1827.7,1114.3 1827.5,1103.1 1826.1,1103.1 C1825.2,1103.1 1820.7,1103.8 1816,1104.5 C1806.5,1106.1 1800.3,1105.6 1774.5,1101.6 C1747,1097.2 1730,1095.2 1496,1068.5 C1314.6,1047.8 1256.3,1040.9 1230.8,1036.7 L1198,1031.5 L1198,1049 C1198,1083.8 1203,1363.4 1204.2,1399 C1205,1422.4 1205.8,1435.5 1206.4,1435.7 C1207,1435.9 1299.8,1448 1412.5,1462.7 C1606.5,1487.8 1623,1489.8 1719.5,1499.5 C1775.6,1505.2 1823.5,1509.9 1825.9,1510 L1830.3,1510.1 L1829.7,1425.4 L1829.7,1425.4 Z M1049.6,1391.4 C1049.2,1378.8 1048.1,1306.7 1047,1231.1 C1045.3,1115.1 1042.7,1011.5 1041.5,1010.3 C1041.3,1010.1 992.9,1003 933.9,994.5 C840.8,981.1 647.8,956.1 575.5,948.1 C541.4,944.3 486,940.8 469.4,941.3 L459.4,941.6 L461.7,958.6 C463,968 467,995 470.5,1018.6 C477.6,1066.4 481.1,1092.8 483.4,1116.6 C486.1,1144.3 499,1336.2 499,1348.5 C499,1357.5 499.3,1360.1 500.3,1359.7 C507.2,1356.9 522.6,1352.6 532.4,1350.8 C543.5,1348.8 547.7,1348.6 581,1348.6 C621.3,1348.7 627.2,1349.1 676,1356.1 C691.1,1358.2 732.8,1363.9 768.5,1368.6 C824.1,1376 848.9,1379.9 940,1395.6 C998.6,1405.6 1047.3,1413.9 1048.3,1414 C1050.1,1414.1 1050.2,1413 1049.6,1391.4 L1049.6,1391.4 Z" id="Shape" sketch:type="MSShapeGroup"></path>
        </g>
    </g>
</svg>