<?xml version="1.0" encoding="UTF-8" standalone="no"?>
<svg width="2081px" height="2367px" viewBox="0 0 2081 2367" version="1.1" xmlns="http://www.w3.org/2000/svg" xmlns:xlink="http://www.w3.org/1999/xlink" xmlns:sketch="http://www.bohemiancoding.com/sketch/ns">
    <!-- Generator: Sketch 3.0.4 (8054) - http://www.bohemiancoding.com/sketch -->
    <title>Slice 2</title>
    <desc>Created with Sketch.</desc>
    <defs></defs>
    <g id="Page-1" stroke="none" stroke-width="1" fill="none" fill-rule="evenodd" sketch:type="MSPage">
        <g id="Group" sketch:type="MSLayerGroup" transform="translate(1040.400000, 1183.400000) scale(1, -1) translate(-1040.400000, -1183.400000) translate(0.400000, 0.400000)" fill="#000000">
            <path d="M1865.6,2365.3 C1860.3,2364.5 1821,2353.7 1800.3,2347.3 C1776.1,2339.8 1745.9,2333.6 1585.6,2302.9 C1435.7,2274.2 1412.3,2270 1383.1,2266.3 L1350.1,2262 L1342,2263.7 C1337.6,2264.6 1322.5,2268.8 1308.5,2272.9 C1262.9,2286.5 1257.7,2287.5 1240.6,2285.4 C1222.5,2283.2 1205.9,2277.1 1193.3,2268 C1182.2,2260.1 1182.3,2260.3 1182.8,2247.2 C1183.2,2237.1 1183.6,2235.1 1186.3,2229.4 C1190.2,2221.1 1195.8,2213.6 1208.2,2200 C1233.6,2172.2 1239.1,2165.2 1248.8,2147.9 C1267.3,2115 1279.7,2068.9 1281.2,2027.4 C1281.5,2018.9 1282.4,1964 1283.1,1905.4 L1284.3,1798.9 L1280.5,1656.4 C1278.5,1578 1276.5,1508.1 1276.2,1501 C1275.7,1486.6 1276.9,1467.8 1279.2,1457.1 C1282.9,1439 1291.6,1419.2 1303.8,1401 L1311.1,1390.1 L1322.1,1385.8 C1336.3,1380.2 1344.1,1378.9 1352.9,1380.4 C1360.8,1381.8 1372.4,1387.2 1383,1394.3 C1391.5,1400.1 1394.9,1404.2 1418.6,1437.4 C1427.1,1449.2 1434.5,1459.2 1435.1,1459.6 C1437.7,1461.5 1458.3,1468.9 1472,1472.8 C1525.3,1488.2 1600,1500 1703.1,1509.4 C1756.6,1514.2 1824.3,1518.6 1867.9,1520 C1887.8,1520.7 1888.6,1520.6 1888.6,1518.8 C1888.6,1516 1893.9,1269.3 1900.9,943.4 L1907.1,658.9 L1905.9,505.4 C1905.3,421 1904.3,346.3 1903.7,339.4 C1901.5,312.1 1893.5,294.4 1880.8,288.2 C1877.1,286.4 1874.6,286 1868.6,286.1 C1850.3,286.5 1795.5,300 1705.1,326.4 C1633.9,347.2 1582.9,360.4 1574.3,360.4 C1568.3,360.4 1561.5,358.2 1560.6,356.1 C1560.2,354.9 1558.9,351.6 1557.8,348.7 L1555.7,343.6 L1581.4,323.7 C1595.5,312.7 1649,274.1 1700.1,237.9 C1751.3,201.7 1794.5,170.9 1796.3,169.5 C1804.1,163.1 1821.4,139.1 1834.1,117 C1841.6,103.8 1852.1,82.7 1858.5,67.9 C1876.6,26.1 1892.6,8 1916.6,1.7 C1925.5,-0.6 1947.5,-0.5 1957.1,1.8 C1972.6,5.5 1989.5,16.4 2000.6,29.8 C2013,44.8 2027.1,69.9 2035.6,92.4 C2037.4,97.1 2042.1,108.6 2046.1,117.9 C2060.6,151.8 2064.7,170.5 2068.8,221.4 C2069.6,231.5 2070,297.4 2070.3,438.9 L2070.7,641.9 L2061.5,999.4 L2052.4,1356.9 L2050.8,1586.8 L2049.1,1816.6 L2054.3,1966.8 L2059.5,2116.9 L2067,2153.4 C2071.2,2173.5 2075.7,2196.2 2077.2,2203.9 C2080.2,2220 2081.3,2237.7 2079.8,2245.1 C2072.7,2278.2 2037.5,2308.6 1976.5,2334.5 C1957.2,2342.7 1919.3,2355.2 1897.1,2360.7 C1875.9,2365.9 1872.9,2366.4 1865.6,2365.3 L1865.6,2365.3 Z M1878.6,2221.1 C1889.5,2215.8 1893.6,2195.5 1893.6,2147 C1893.6,2117.8 1889.1,2030.3 1886.8,2013.8 L1886.1,2008.9 L1869.9,2006.2 C1861,2004.7 1814.6,1997.8 1766.9,1990.9 C1719.2,1984 1672,1977 1662.1,1975.4 C1648.1,1973.1 1443.8,1935.7 1430,1932.8 L1426.9,1932.2 L1426.2,1940.6 C1425.5,1950.6 1424.8,1982.7 1423.6,2068.4 C1423.1,2103.9 1422.3,2139 1422,2146.4 L1421.3,2159.9 L1430.5,2161.2 C1435.5,2161.9 1463.4,2167.1 1492.4,2172.8 C1521.4,2178.6 1553,2184.6 1562.6,2186.3 C1572.2,2188 1603.8,2193.6 1632.8,2198.8 C1661.8,2204.1 1695.1,2209.7 1706.8,2211.3 C1749.4,2217.3 1798.9,2222 1834.6,2223.4 C1862,2224.5 1872.8,2223.9 1878.6,2221.1 L1878.6,2221.1 Z M1885.6,1765.1 L1885.6,1646.7 L1866.9,1646 C1812.2,1644 1795.3,1642.4 1598.8,1619.3 C1505.2,1608.4 1428.1,1599.4 1427.6,1599.4 C1425.6,1599.4 1426.7,1740.3 1429.2,1800 L1429.8,1814.1 L1437.4,1816.7 C1455.2,1822.8 1488.8,1830.8 1531.6,1839.3 C1551.5,1843.2 1587.1,1848.3 1693.1,1862.3 C1822.6,1879.5 1830.4,1880.5 1857.1,1881.8 C1872.5,1882.5 1885.2,1883.2 1885.4,1883.3 C1885.5,1883.3 1885.6,1830.1 1885.6,1765.1 L1885.6,1765.1 Z" id="Shape" sketch:type="MSShapeGroup"></path>
            <path d="M647,2280.3 C639.4,2279 629.1,2275.1 610.6,2266.4 C587.4,2255.5 578,2252.2 515.1,2233.4 L478.1,2222.4 L397.6,2206.4 C353.3,2197.7 300.7,2187.3 280.6,2183.4 L244.2,2176.3 L234.6,2177.4 C209.6,2180.2 186.1,2189.1 150.1,2209.6 C106.4,2234.4 85.1,2245.2 69.3,2250.7 C52.2,2256.5 35.7,2254.6 21.6,2245.2 C10.6,2237.9 2.7,2226 0.5,2213.8 C-0.4,2208.5 -0.3,2207 1.6,2201.3 C4.7,2191.9 14,2174.8 34.9,2139.8 C61.6,2095 69.1,2079.2 75.6,2054 C85.1,2017.5 88.1,1974.1 90.1,1844.4 C90.4,1823.2 91.8,1735.9 93.1,1650.4 C95.4,1505.8 95.6,1471.6 95.6,1163.4 L95.6,831.9 L90.6,700.9 C86.1,581.5 85.4,567.5 82.6,542.9 C80.9,528.1 76.6,477.2 73,429.9 C64.1,313.8 63.5,282.5 69.7,231.9 C80,147.3 105.9,75.1 137.9,41.7 C154.2,24.7 169.8,18.4 188.7,21.3 C198.2,22.8 205.4,26.3 211.5,32.5 C229.9,51.2 241.1,103.2 245.6,191.4 C246.1,202.7 246.8,214.8 247.1,218.4 C247.4,222 248,327.5 248.5,452.9 C249,599.3 249.8,693.1 250.6,714.9 C251.6,743.9 251.4,791.1 249.1,1037.9 C247.7,1196.9 246.6,1330.9 246.8,1335.8 L247.1,1344.8 L255.6,1346.6 C260.3,1347.6 290.9,1354.5 323.6,1361.9 C422.7,1384.2 616.1,1424.4 624.4,1424.4 L631.5,1424.4 L632.1,1420.7 C633.2,1413.5 637.4,1396.9 639.6,1391.1 C640.8,1387.9 644,1381.9 646.8,1377.8 C657.1,1362.4 671.8,1354.8 694.6,1352.9 C706.4,1352 715.3,1353.6 725.3,1358.4 C747.8,1369.4 763.1,1400 767.6,1443 C768.4,1450.9 788.7,1904.7 792.6,2000.4 C793.9,2034.1 796.7,2049.9 806.6,2079.4 C816.3,2108.5 827.5,2144.2 828.6,2150.1 C829.3,2153.5 829.7,2159.8 829.5,2164.1 C829.2,2170.8 828.5,2173.1 825.4,2179.5 C818.7,2192.9 806.6,2205.4 786.5,2219.6 C761,2237.7 722,2257.6 685.1,2271.6 C673.7,2275.9 654.6,2281.6 652.7,2281.3 C652.4,2281.2 649.8,2280.8 647,2280.3 L647,2280.3 Z M619.2,2130.9 C625.1,2128.5 629.2,2120.9 632.1,2107.4 C636.4,2086.5 639,2036.6 639.1,1971.4 C639.1,1922.3 638.3,1898.2 636.7,1895.5 C635.3,1893.3 583.9,1881.1 512.6,1866 C426.1,1847.7 416.3,1845.9 355.1,1836.5 C324,1831.7 244.6,1820.4 242.2,1820.4 C240.7,1820.4 240.6,1823.5 240.6,1854.7 C240.7,1873.5 241,1917 241.5,1951.4 C241.9,1985.8 242,2022.8 241.7,2033.6 L241.1,2053.4 L246,2057 C248.7,2059 252.3,2061 254,2061.5 C255.7,2061.9 320.6,2076.5 398.1,2093.9 C548.2,2127.6 563.2,2130.5 599.1,2132.7 C606.3,2133.2 615.6,2132.3 619.2,2130.9 L619.2,2130.9 Z M636.6,1656.5 L636.6,1542.7 L624.3,1539 C589.3,1528.8 493.7,1507.5 439.1,1497.9 C430.9,1496.4 388.1,1488.5 344.2,1480.3 C274.3,1467.3 262.9,1465.4 254,1465.4 L243.8,1465.4 L243.3,1470.7 C242.7,1477.4 240.2,1700.3 240.8,1700.9 C241,1701.1 245.3,1701.8 250.4,1702.4 C255.4,1702.9 270.3,1705.5 283.3,1708 C310.2,1713.3 630.9,1770.1 634.4,1770.3 L636.6,1770.4 L636.6,1656.5 L636.6,1656.5 Z" id="Shape" sketch:type="MSShapeGroup"></path>
        </g>
    </g>
</svg>