<?xml version="1.0" encoding="UTF-8" standalone="no"?>
<svg width="1396px" height="2133px" viewBox="0 0 1396 2133" version="1.1" xmlns="http://www.w3.org/2000/svg" xmlns:xlink="http://www.w3.org/1999/xlink" xmlns:sketch="http://www.bohemiancoding.com/sketch/ns">
    <!-- Generator: Sketch 3.0.4 (8054) - http://www.bohemiancoding.com/sketch -->
    <title>Slice 2</title>
    <desc>Created with Sketch.</desc>
    <defs></defs>
    <g id="Page-1" stroke="none" stroke-width="1" fill="none" fill-rule="evenodd" sketch:type="MSPage">
        <g id="Group" sketch:type="MSLayerGroup" transform="translate(698.000000, 1066.800000) scale(1, -1) translate(-698.000000, -1066.800000) translate(0.000000, 0.800000)" fill="#000000">
            <path d="M475.3,2130.3 C467.7,2128.2 457.7,2122.9 439,2111 C429.9,2105.2 422.2,2100.2 421.8,2099.9 C421.4,2099.6 421.7,2092.6 422.5,2084.5 L423.9,2069.7 L432.4,2058.5 C478.9,1996.5 505.9,1918.3 508.7,1837.4 C509.3,1819.5 507.8,1782.1 505.9,1767.8 C497.2,1703.7 417.2,1411.4 311.4,1056.8 C276.2,939.1 275.3,936.2 225.2,794.3 C149.7,580.6 118.9,499.9 90.5,442.3 C71.2,403.1 57.4,381.5 23.4,337.2 L10.3,320.1 L5.5,306.2 C-2.4,283.4 -1.8,277.4 10.5,246.3 C18.2,227 48.1,157.6 55.4,142.3 C75.7,99.8 98.3,76.9 120.1,76.8 C132.1,76.8 156.8,90.8 186,114.3 C222.5,143.7 230.4,148.1 274.5,163.8 C307.3,175.5 413.7,215.6 728,334.8 C808,365.1 901.2,400.3 935,413 C1009.4,440.8 1021.5,445.4 1039.5,452.8 C1055.2,459.3 1083.7,472.1 1094.1,477.4 C1097.9,479.3 1101.5,480.8 1102.2,480.8 C1104.9,480.8 1121,434.5 1133,392.3 C1136.9,378.5 1143.4,353.8 1147.5,337.3 C1160,286.9 1164.8,264.3 1185.9,157.8 C1197.5,99.1 1206.5,67.5 1218.1,44.4 C1234.4,12 1257.3,-1.5 1293,0.1 C1314.7,1 1332.1,9 1349,25.8 C1364.4,41 1375,59.2 1383.4,84.8 C1392.5,112.5 1396.3,139.9 1396.4,177.3 C1396.4,204.5 1395.4,215.2 1389.9,243.8 C1370.3,345.2 1307.9,505.7 1221,678.3 C1169.7,780.1 1120,865.8 1091.8,900.9 C1078.1,917.9 956.6,1054.4 941.1,1070.1 C906.4,1105.4 878.2,1128.6 858.4,1138.5 C850.8,1142.2 848.1,1143.1 843.3,1143.2 C837.1,1143.3 826,1139.6 826,1137.4 C826.1,1133.8 838.2,1112.3 872.6,1054.7 C903.6,1002.6 914,984.7 919.8,973.2 C922,968.7 942.6,916.3 965.4,856.7 C988.2,797.1 1008.8,744 1011.1,738.8 C1013.4,733.6 1019,718 1023.6,704.2 C1028.3,690.2 1034.7,673.4 1038.1,666.2 C1055.4,629.6 1062.5,610.1 1068.8,581.5 L1070.8,572.8 L1063.1,567.7 C1046.4,556.6 1010.4,540.8 966,525 C905.1,503.4 784.4,467.2 716.9,450.3 C532,404 221.7,331.7 196.8,329.1 C191.6,328.6 190.5,328.7 189.4,330.3 C188.6,331.4 188,333.2 188,334.4 C188,340.1 223.7,432.7 303,632.3 C363.6,784.9 405.4,891.9 443.7,992.8 L498.3,1136.3 L536.7,1250.3 C570.3,1350 689.3,1718.5 715.5,1804.3 C732.3,1859 736.6,1881.9 735.7,1910.3 C735.3,1923.8 734.8,1927.7 732.6,1935.2 C727.2,1953.4 716.9,1969.3 697.3,1989.8 C675.8,2012.3 575,2087.5 533.3,2112.1 C517.8,2121.3 509.4,2125.4 499.1,2128.8 C489.3,2132.1 483.4,2132.5 475.3,2130.3 L475.3,2130.3 Z" id="Shape" sketch:type="MSShapeGroup"></path>
        </g>
    </g>
</svg>