<?xml version="1.0" encoding="UTF-8" standalone="no"?>
<svg width="2395px" height="2402px" viewBox="0 0 2395 2402" version="1.1" xmlns="http://www.w3.org/2000/svg" xmlns:xlink="http://www.w3.org/1999/xlink" xmlns:sketch="http://www.bohemiancoding.com/sketch/ns">
    <!-- Generator: Sketch 3.0.4 (8054) - http://www.bohemiancoding.com/sketch -->
    <title>Slice 2</title>
    <desc>Created with Sketch.</desc>
    <defs></defs>
    <g id="Page-1" stroke="none" stroke-width="1" fill="none" fill-rule="evenodd" sketch:type="MSPage">
        <g id="Group" sketch:type="MSLayerGroup" transform="translate(1197.500000, 1201.000000) scale(1, -1) translate(-1197.500000, -1201.000000) translate(0.000000, 0.100000)" fill="#000000">
            <path d="M934.5,2400.8 C915.4,2398.4 899.3,2391.3 888.4,2380.4 C879,2371 876.5,2365.8 876.5,2355.4 C876.5,2348.5 876.9,2346.8 879.2,2342.9 C882.1,2337.9 907.7,2308.4 925.4,2289.6 C969.9,2242.4 993.1,2194.5 1001.6,2132.4 C1004.5,2111.4 1003.7,2051.1 999.9,2002.9 C999.3,1995.5 998.7,1989.3 998.5,1989.1 C997.7,1988.3 979.9,1986.3 911.5,1979.4 C870.3,1975.3 829.5,1971 821,1969.9 C808.9,1968.4 777.4,1966.9 678,1963.3 C568.7,1959.4 548.5,1958.9 536.5,1959.8 C509.3,1961.9 481.5,1967.7 434.7,1981 L406.8,1989 L383.7,2000.9 C359.1,2013.5 348.9,2017.9 343.9,2017.9 C335.5,2017.9 321.9,2007.3 317.3,1997.2 C315,1992.2 314.5,1989.7 314.2,1979.7 C313.7,1966.2 315.4,1947.7 318.1,1936.9 C319.1,1932.8 322,1925.2 324.6,1920.1 C328.3,1912.5 330.7,1909.2 337.8,1902 C346.7,1893.1 349.1,1891.2 391.9,1860.4 C455.6,1814.6 480.9,1800.2 503.5,1796.9 C524.4,1794 546.2,1796.8 654,1816.9 C718.5,1828.9 742,1833.1 760.5,1835.8 C775,1838 987.4,1857.9 996,1857.9 C1002,1857.9 1001.7,1859.1 1003,1832.9 C1005.3,1787.5 1003.3,1721.6 998.9,1696 C997.4,1687.9 995.3,1685.7 986.4,1682.9 C968.1,1677.3 909.1,1669.4 863,1666.3 C857.8,1666 799.6,1661.5 733.7,1656.3 C588.4,1644.9 581.4,1644.5 549,1645.3 C501.8,1646.4 462.5,1651.2 425,1660.5 C408.2,1664.7 406.7,1665.2 376.1,1679.8 C341.2,1696.5 331,1700.3 322.5,1700.4 C310.2,1700.4 301.3,1693.7 294.1,1678.9 C290.5,1671.4 290.5,1671.3 290.5,1658.4 C290.6,1644.2 292.2,1636.3 298.1,1622.6 C311.7,1590.4 346.6,1556.1 395.3,1526.6 C426.6,1507.7 464.6,1490.3 492.2,1482.4 C512.2,1476.6 515,1476.9 585.5,1492.9 C607,1497.8 628.1,1502.4 632.5,1503.3 C648.5,1506.4 992,1558.9 996.4,1558.9 L1001,1558.9 L1000.8,1471.2 L1000.5,1383.5 L984.5,1379.8 C970.6,1376.5 928.1,1370.9 653.5,1335.9 C350.4,1297.3 324.3,1294.2 284.6,1291.9 C261.5,1290.6 202.7,1290.6 190.2,1291.9 C156.4,1295.5 133.8,1303.8 55,1341.2 C40.4,1348.1 27.9,1353.9 27.3,1354.1 C25.3,1354.6 11.4,1335.3 6.5,1325.4 C-2.5,1307.2 -2.3,1295.8 7.6,1274.2 C18.8,1249.5 44.3,1214.8 66.6,1193.9 C103.3,1159.4 163.2,1124.3 210,1109.8 C219.2,1107 222,1106.5 232,1106.5 C245.3,1106.4 243.2,1105.9 371.5,1139.9 C411.1,1150.4 461.5,1163.5 483.5,1168.9 L523.5,1178.9 L632.6,1196.9 C751.3,1216.4 761.2,1217.9 773,1217.9 C803.4,1217.9 818,1201.2 819.7,1164.3 C820.6,1145.2 817.8,1133.7 806.4,1110 C796.3,1089.1 784.4,1070.1 765.6,1045.1 C670.3,918.8 473,751.8 268,624.2 C238.1,605.6 221.6,595.7 184,573.9 C146.9,552.4 134.8,544.6 128.7,538 C121.9,530.7 120.2,522.8 124.3,516.9 C135.4,500.5 158.9,499.4 201.7,513.5 C254.1,530.8 353,576.3 422,614.8 C518.2,668.6 629.5,736.6 716.4,794.6 L754.3,819.9 L793.9,793.7 C914.9,713.8 1002.2,653.7 1021.7,636.8 L1024.8,634.1 L995.7,605.2 C967,576.8 948,559.2 921.1,536 C832.1,459.4 725.8,383 609.5,312.2 C585.1,297.4 564.1,285.7 480.6,240.7 L391.7,192.8 L221.1,122.2 C51.4,52 50.4,51.5 38.5,43.6 C31.9,39.2 26.4,35.5 26.2,35.4 C26.1,35.3 26.9,32.1 28.1,28.3 C34.3,8.1 41.3,2.9 62.3,2.9 C101.6,2.9 218.5,26.2 317,53.6 C363.9,66.6 421.8,85.3 472.5,103.7 C645.7,166.7 815.4,254.8 936,344.2 C955.8,358.9 960.3,362.5 1082.8,462.2 C1169.5,532.7 1172.3,534.9 1176.3,534.9 C1180.3,534.8 1185.9,530.9 1272.1,467.1 C1342.7,414.9 1368.3,395.3 1384.1,381.7 C1398.6,369.2 1442.5,335.2 1535.5,264.8 C1648.9,178.9 1677,158.2 1744.5,110.4 C1831,49.2 1855.8,32.1 1871.7,22.2 C1892,9.7 1908.8,3.1 1926.2,0.9 C1941,-0.9 1976.5,-1.71489559e-12 2042,3.9 C2051.1,4.4 2110.9,7.4 2175,10.4 C2239.1,13.4 2296.9,16.3 2303.5,16.9 C2328.4,19.2 2351.8,25.5 2369.5,34.8 C2380.2,40.4 2395,49.8 2395,50.9 C2395,52 2386,59.6 2379.9,63.7 C2372.2,68.9 2355.8,77.2 2330.5,88.7 C2301.5,101.9 2286,108 2203.9,138.3 C2121.5,168.7 2133.2,164 2010.7,216 L1904.5,261.1 L1797,316.1 C1737.9,346.4 1680.3,376.6 1669,383.2 C1641.8,399.2 1293.1,612.5 1281.2,620.4 L1272,626.6 L1379.2,730 C1510.3,856.4 1498.5,844.7 1534.6,883.9 C1574.2,926.7 1573.3,925.9 1597.1,944.6 C1619.5,962.3 1632.2,974.6 1636,982.4 C1638.1,986.7 1638.4,988.9 1638.5,997.4 C1638.5,1007 1638.3,1007.7 1634.8,1014.9 C1629.6,1025.3 1622.5,1034.5 1609,1047.9 C1563.4,1093.5 1480.5,1141.1 1428,1152 C1414.9,1154.7 1394.5,1154.9 1381.3,1152.4 C1369.6,1150.2 1343.7,1141.5 1310,1128.4 C1275.4,1114.9 1269,1112.7 1250.5,1107.9 C1201.6,1095.1 1113.3,1081.6 1054.6,1077.8 C1037.2,1076.7 1032.5,1076.9 1024.9,1078.9 L1021.3,1079.9 L1023.2,1087.7 C1026,1099.3 1026.6,1113 1024.5,1120.9 C1017,1149.8 985.8,1188.5 941,1224.3 C934.7,1229.4 927,1235.3 923.9,1237.5 L918.3,1241.5 L961.4,1249.8 C1008.3,1258.9 1044.1,1265.1 1059,1266.8 C1064.2,1267.4 1127.7,1272.2 1200,1277.4 L1331.5,1286.8 L1474,1291.9 C1552.4,1294.6 1622.8,1296.9 1630.5,1296.9 C1638.2,1296.9 1702.1,1295.3 1772.5,1293.4 L1900.5,1289.8 L2011,1279.9 C2071.8,1274.4 2128.3,1269.4 2136.5,1268.8 C2172.4,1266.1 2191.3,1271.2 2208.1,1288 C2214.4,1294.2 2216.6,1297.3 2220.3,1305 C2225.9,1316.8 2227.4,1322.9 2227.4,1334.9 C2227.5,1347.5 2224.6,1356.4 2216.8,1368 C2194.9,1400.7 2137.4,1430.6 2056.5,1451.4 C2037.3,1456.3 2011.6,1461.4 1999,1462.8 C1987,1464.1 1973.2,1462.5 1916,1453.3 C1855.7,1443.7 1843,1442.7 1449.5,1419.4 C1288.9,1409.9 1157.4,1402.2 1157.4,1402.3 C1156.8,1402.8 1155,1491.3 1155,1517.9 C1155,1548.4 1156.2,1575.4 1157.5,1576.7 C1159.5,1578.7 1198.7,1583.6 1307.5,1595.4 L1432.5,1608.9 L1604,1618.4 C1785,1628.4 1785.8,1628.4 1801.5,1630.1 C1849.2,1635.1 1871.3,1651.3 1873.6,1682.9 C1875.9,1713.4 1853.7,1738.8 1809,1757.1 C1781.5,1768.3 1741.4,1777.2 1707.3,1779.8 C1687.2,1781.3 1680.6,1780.3 1591.5,1762.4 L1529.5,1750 L1347,1724.4 C1246.6,1710.4 1163.5,1698.6 1162.3,1698.4 L1160,1697.9 L1160,1730.6 C1160,1766.3 1161.3,1811.8 1163,1835.4 C1164.1,1849.5 1166.5,1869.5 1167.6,1872.2 C1168.3,1874 1221.8,1880.4 1393.5,1899 L1541.5,1915.1 L1640.5,1919.2 C1722.4,1922.7 1743.9,1923.3 1765,1922.8 C1853.7,1920.6 1860.9,1920.5 1871,1922.7 C1882.7,1925.2 1889.8,1927.8 1897.8,1932.7 C1911.3,1940.8 1919.7,1950.7 1924.2,1963.6 C1927.3,1972.7 1927.5,1991.4 1924.6,1999.9 C1918,2019.1 1905.4,2034.2 1883.9,2048.5 C1841.1,2077.1 1767.9,2097.2 1718.2,2093.9 C1694.3,2092.3 1674.8,2087.8 1615,2069.9 C1566.7,2055.4 1588.3,2058.9 1356.8,2028.9 C1260,2016.4 1190.8,2007.9 1185.9,2007.9 L1177.7,2007.9 L1178.4,2031.5 C1179.7,2076.2 1183.1,2101.6 1194.5,2149.4 C1212.9,2227.2 1213.5,2234.3 1202.5,2256.4 C1191.2,2279.2 1167.3,2302.7 1130,2327.6 C1071.1,2366.8 983.6,2402.5 947.8,2401.8 C944.3,2401.7 938.4,2401.3 934.5,2400.8 L934.5,2400.8 Z M1348.3,986.3 L1352.9,985.6 L1350.8,981.5 C1337.2,954.8 1266.5,871.7 1187.6,789.9 C1166.1,767.6 1129.5,731.9 1123.9,727.9 L1121.3,726 L1094.9,740.8 C1080.4,748.9 1053.4,764.1 1035,774.6 C1016.6,785 994.8,797.3 986.5,801.8 C870.1,866.5 836,886 836,887.9 C836,889 866.3,916.8 894.5,941.8 C906.1,952 918.8,963.6 922.9,967.5 L930.2,974.6 L944.9,968.7 C952.9,965.4 971,958.4 985,953.1 C1018.5,940.4 1011.5,940.3 1089.5,955.4 C1134.4,964.1 1129.4,963.3 1174.9,968.9 C1296.1,983.7 1337,987.8 1348.3,986.3 L1348.3,986.3 Z" id="Shape" sketch:type="MSShapeGroup"></path>
        </g>
    </g>
</svg>