<?xml version="1.0" encoding="UTF-8" standalone="no"?>
<svg width="2085px" height="2254px" viewBox="0 0 2085 2254" version="1.1" xmlns="http://www.w3.org/2000/svg" xmlns:xlink="http://www.w3.org/1999/xlink" xmlns:sketch="http://www.bohemiancoding.com/sketch/ns">
    <!-- Generator: Sketch 3.0.4 (8054) - http://www.bohemiancoding.com/sketch -->
    <title>Slice 2</title>
    <desc>Created with Sketch.</desc>
    <defs></defs>
    <g id="Page-1" stroke="none" stroke-width="1" fill="none" fill-rule="evenodd" sketch:type="MSPage">
        <g id="Group" sketch:type="MSLayerGroup" transform="translate(1042.300000, 1126.850000) scale(1, -1) translate(-1042.300000, -1126.850000) translate(0.100000, 0.200000)" fill="#000000">
            <path d="M904.4,2251.5 C892.5,2249 885.6,2246.4 872.9,2239.9 C854.2,2230.2 843.1,2219.2 842.1,2209.4 C841.7,2205.2 842.1,2203.8 844.4,2200.2 C848.3,2194.3 859.1,2183.4 874.4,2169.7 C902,2145 908.8,2137.8 917.7,2124.1 C937.6,2093.4 948.7,2042.4 952.4,1964 C953.1,1950.3 958.9,1673.2 958.5,1672.8 C958.2,1672.4 477.2,1632.6 454.4,1631 C423.7,1628.9 383.6,1627.5 355.8,1627.5 C333.4,1627.5 331.6,1627.6 323.3,1630.1 C307.8,1634.5 260.3,1651.4 228.9,1663.5 C194.1,1677 172.3,1684 155.4,1687.1 C131.8,1691.4 101.8,1685.3 81.9,1672 C69.8,1664 64,1655.5 63.9,1646 C63.9,1636.5 68.3,1630.5 99.3,1598.6 C112,1585.6 125,1571.2 128.2,1566.8 C155.2,1529 173.7,1475.4 192.3,1381.2 C195.9,1363 217.8,1249.2 240.9,1128.5 C263.9,1007.8 283.8,906.3 284.9,903 C290.7,886.1 303.5,865.1 315.8,852.2 C330.1,837.2 343.6,830.5 359.3,830.5 C372.3,830.5 382.4,834 400.7,844.9 L411.4,851.3 L426.1,870.3 C434.2,880.7 441.4,889.7 442.2,890.3 C442.9,890.9 527.5,901.6 630.2,913.9 C732.8,926.3 820.7,937.2 825.5,938 C830.3,938.8 838.7,939.5 844.3,939.5 C854,939.5 879.6,941.3 930.8,945.6 C944.2,946.7 955.3,947.4 955.5,947.2 C955.7,947 955.5,938.3 954.9,927.9 C954.4,917.5 953.5,895.3 952.9,878.5 C948.9,763.2 948.6,746.1 947.9,543.5 C947.4,399.5 946.8,336.9 946,332 C945.4,328.2 944.4,322 943.8,318.3 C943,313.5 942.3,311.4 941.1,311.1 C940.1,310.8 912.4,304.7 879.4,297.6 C830.1,286.9 798.3,280.8 700.9,263.4 C584.3,242.7 580.1,242 439.9,221.8 C278.6,198.6 293.2,200 258,205.1 C222.5,210.2 197.9,217.1 176.1,228 C148.1,242 125.5,260.7 101.4,290 C76.6,320.1 64,328.7 47,327.1 C25.1,325.1 8.6,303.6 1.8,268.3 C-2.3,247 0.4,227.1 10.3,204.6 C22.2,177.4 41.2,149.6 83.4,97.5 C141.4,25.9 158.9,7.8 176.1,1.9 C180.6,0.3 184.5,-1.07023591e-12 200.9,-1.07023591e-12 C223.6,-1.07023591e-12 217.8,-1 278.9,14.5 C311.6,22.9 406.9,44.5 599.9,87.4 L874.4,148.4 L1100.9,206.4 C1313.8,260.9 1340,267.8 1536.4,322 L1745.4,379.6 L1747.7,376.8 C1759.8,362.2 1795.2,309.9 1820.6,269 C1827.8,257.5 1857.6,206.8 1886.9,156.5 C1952.5,43.7 1948.9,49.7 1957.9,40.4 C1970.3,27.7 1982,23.2 2001.9,23.2 C2041.1,23.2 2067.8,48.8 2078.9,97 C2089.2,141.7 2084.8,195.6 2067.4,240.1 C2039.8,310.2 1976.7,385.6 1859.9,488.1 C1813,529.2 1736.9,591.6 1701.9,617.6 C1646.4,658.9 1576.2,703.6 1529.3,727.5 C1493.6,745.7 1476.2,750.1 1468.4,742.9 C1465.9,740.6 1465.7,739.8 1466.1,735 C1466.5,730.5 1467.5,728.2 1473.1,719.8 C1480.4,708.9 1496.5,688.2 1505,679 C1511.4,672.1 1627.1,531.5 1638.5,516.8 C1642.7,511.4 1651.2,501 1657.3,493.7 C1663.4,486.4 1668.5,480.1 1668.6,479.7 C1668.8,479.3 1647,473.1 1620.1,465.8 C1580.9,455.2 1526.8,442.3 1342,399.5 C1215.9,370.3 1112.5,346.6 1112.3,346.8 C1109.7,349.4 1108.9,456.5 1110.9,534 C1112,575 1119.9,949.9 1119.9,958.9 L1119.9,964.1 L1165.7,968.3 C1204.4,972 1234.9,973.9 1365.9,980.7 C1450.9,985.2 1526.9,989 1534.8,989.2 C1553.2,989.7 1570.2,987.7 1592.5,982.4 C1658.3,966.8 1665.1,965.4 1680,964.8 C1689.7,964.4 1694.4,964.6 1700.1,965.9 C1726.6,971.8 1743.9,991.4 1763.8,1038.1 C1773,1059.8 1775.4,1066.3 1849.9,1268 C1888.3,1372 1921.8,1462.2 1924.4,1468.5 C1932.1,1487.3 1937.7,1498 1947.4,1512.5 C1967.3,1541.9 1981.7,1568.6 1987.4,1586.5 C1990.7,1596.7 1991.8,1610.6 1989.9,1618.6 C1985.8,1636.9 1965.7,1664.7 1939.4,1688.8 C1889.1,1734.7 1823.6,1773.1 1786.3,1778.5 C1778.2,1779.7 1778.1,1779.7 1737.8,1772 C1715.6,1767.8 1653.5,1755.6 1599.9,1745 L1502.4,1725.6 L1397.6,1714 C1340,1707.7 1285.8,1702 1277.1,1701.5 C1268.5,1701 1234.5,1698.4 1201.6,1695.9 C1168.8,1693.3 1141.6,1691.5 1141.2,1691.9 C1140.8,1692.2 1141.7,1719.4 1143.2,1752.3 C1145.8,1811.1 1160,2012.4 1164.9,2060.5 C1168.1,2091.8 1167.5,2098.6 1160.3,2113 C1151,2132 1127.9,2155.1 1096.2,2177.1 C1051.3,2208.5 976.4,2243.5 937.2,2251.4 C924.9,2253.9 916.2,2254 904.4,2251.5 L904.4,2251.5 Z M1735.9,1600.9 C1746.8,1596 1751.8,1588.6 1751.9,1577.5 C1751.9,1553.4 1728.1,1450.8 1700.5,1356.3 C1695.1,1337.8 1632.8,1136.3 1632.3,1135.6 C1632,1135.2 1122.5,1100.7 1122.1,1101 C1121.9,1101.2 1124.2,1204.3 1127.1,1330.1 L1132.4,1559 L1138.9,1559.8 C1149.8,1561.1 1231.9,1569.4 1240.4,1570 C1244.8,1570.4 1298.8,1575.4 1360.4,1581.1 L1472.4,1591.6 L1595.4,1598.3 C1683.3,1603.1 1720.1,1604.8 1724.4,1604.2 C1727.7,1603.7 1732.9,1602.2 1735.9,1600.9 L1735.9,1600.9 Z M961.3,1539.3 C963.3,1511.2 962.8,1461.8 959.1,1276.7 C956.9,1169.8 954.9,1082.2 954.7,1081.9 C954,1081.3 553.9,1037.2 491.5,1031 C461.4,1027.9 434.8,1025 432.5,1024.5 C426.8,1023.2 426.1,1023.3 425.4,1025.3 C422.9,1033.5 413.2,1094.9 397.9,1200.5 C392.4,1238.7 380.5,1318.8 371.5,1378.5 C362.6,1438.2 355.4,1487.2 355.6,1487.5 C356.1,1488 949.3,1548.2 956,1548.4 L960.6,1548.5 L961.3,1539.3 L961.3,1539.3 Z" id="Shape" sketch:type="MSShapeGroup"></path>
        </g>
    </g>
</svg>