<?xml version="1.0" encoding="UTF-8" standalone="no"?>
<svg width="1996px" height="1884px" viewBox="0 0 1996 1884" version="1.1" xmlns="http://www.w3.org/2000/svg" xmlns:xlink="http://www.w3.org/1999/xlink" xmlns:sketch="http://www.bohemiancoding.com/sketch/ns">
    <!-- Generator: Sketch 3.0.4 (8054) - http://www.bohemiancoding.com/sketch -->
    <title>Slice 2</title>
    <desc>Created with Sketch.</desc>
    <defs></defs>
    <g id="Page-1" stroke="none" stroke-width="1" fill="none" fill-rule="evenodd" sketch:type="MSPage">
        <g id="Group" sketch:type="MSLayerGroup" transform="translate(998.100000, 942.050000) scale(1, -1) translate(-998.100000, -942.050000) translate(0.200000, 0.100000)" fill="#000000">
            <path d="M991.8,1882 C975.9,1876.2 964.8,1862.4 964.8,1848.1 C964.8,1839.5 967.8,1831.1 986,1788.5 C1010,1732.5 1014.8,1719.2 1014.8,1708.2 C1014.8,1673.6 987.9,1593.8 943.8,1497.5 C932.1,1471.9 896.3,1399.8 881.8,1372.5 C725.7,1079.2 508.8,771.3 280.4,518.5 C220.7,452.5 201.9,433.5 148.3,384.6 C46,291.5 11.4,256.4 2.1,236.2 C-1.81188398e-13,231.7 -0.3,229.9 0.2,225.8 C2.1,211.8 12.6,202.3 28.8,200 C37,198.8 42.3,200.2 56.2,207.2 C122.4,240.3 235.9,325.9 342.3,423.1 C386.7,463.6 467.3,543 508.4,586.5 C647.9,734.7 782.6,900.9 911.9,1084.3 L922.3,1099.1 L924.8,1096.2 C969.5,1044.6 981.4,1032.4 996.1,1022.6 C1001.3,1019.1 1008.5,1015.4 1013.6,1013.6 C1022,1010.6 1022.9,1010.5 1038.8,1010.5 C1055.1,1010.5 1055.5,1010.5 1071.3,1014.8 C1080.1,1017.2 1106.9,1025.6 1130.8,1033.5 C1186.4,1051.9 1215.8,1059.5 1287.3,1074 C1414.5,1099.8 1572.7,1123.6 1669.3,1131.6 C1689.1,1133.2 1726.9,1134.9 1727.8,1134.2 C1728.8,1133.5 1722.4,1117.1 1716.8,1105.8 C1705.6,1083.5 1688.3,1055.2 1664.5,1020.5 C1543.2,843.8 1293.4,552.7 1207.8,488.4 C1199.2,481.9 1187.2,475 1184.6,475 C1181.9,475 1141,500 1102.8,525 C1059.8,553.1 1007.6,585.1 965.3,609.2 C879.7,657.9 823,682 793.3,682.3 C785.5,682.4 783.5,682.1 778.3,679.7 C763.6,672.9 757.5,663.3 759.8,650.8 C762.1,639.1 772.7,626.9 795.3,610 C845.7,572.5 923.1,507.6 989.5,447.2 C1136.8,313.2 1254.6,183.4 1328.1,74 C1345.9,47.5 1355.4,35.2 1366.7,24 C1384.7,6.2 1398.5,6.82121026e-13 1420.3,6.82121026e-13 C1431.4,6.82121026e-13 1439.2,1.3 1447.8,4.7 C1480.6,17.6 1503.5,55.4 1509.9,107.3 C1511.7,122.3 1510.6,145 1507.4,157.8 C1500.3,185.9 1485.1,215.6 1461.8,246.5 C1424.4,296.1 1366.4,349.6 1315.3,381.5 C1306.6,387 1297.5,393.3 1295.2,395.5 C1283.5,406.6 1290.6,418.9 1320.3,438.9 C1360.3,465.8 1409,506.3 1529.3,612.6 C1573.9,652 1592,670.4 1706.8,794 C1811.4,906.6 1848.2,945.4 1886.3,983.6 C1917.8,1015.1 1928,1024.3 1944,1035.1 C1963,1047.9 1978.1,1059.4 1983.3,1065.2 C1991.9,1074.7 1995.8,1085.9 1995.8,1100.7 C1995.8,1111.2 1993.7,1118.5 1986.3,1133.5 C1955.4,1196.6 1865.6,1287.9 1827.8,1294.8 C1821.5,1296 1825.9,1297.1 1759.4,1277.4 C1703.4,1260.7 1706.2,1261.2 1594.8,1244.5 C1410.7,1216.8 1228.5,1192.7 1133.8,1183.3 C1112.1,1181.2 1075.5,1180.9 1064.8,1182.8 C1042.2,1186.8 1024.2,1193.6 1015,1201.5 C1012.7,1203.6 1009.6,1207.5 1008.2,1210.3 C1004.4,1217.7 1005.1,1221 1014.3,1237.5 C1045.8,1294.3 1150.5,1467.2 1182.1,1514.5 C1189.5,1525.5 1195.3,1532.8 1203.9,1541.7 C1223,1561.5 1231,1573.5 1236.7,1590.5 C1240.9,1603.2 1242.2,1613.7 1241.5,1629.9 C1240.9,1644.4 1238.9,1655.1 1234,1669.7 C1204.3,1758 1095.7,1866.7 1021.3,1882.5 C1011.2,1884.6 998.6,1884.4 991.8,1882 L991.8,1882 Z" id="Shape" sketch:type="MSShapeGroup"></path>
        </g>
    </g>
</svg>