<?xml version="1.0" encoding="UTF-8" standalone="no"?>
<svg width="2104px" height="657px" viewBox="0 0 2104 657" version="1.1" xmlns="http://www.w3.org/2000/svg" xmlns:xlink="http://www.w3.org/1999/xlink" xmlns:sketch="http://www.bohemiancoding.com/sketch/ns">
    <!-- Generator: Sketch 3.0.4 (8054) - http://www.bohemiancoding.com/sketch -->
    <title>Slice 2</title>
    <desc>Created with Sketch.</desc>
    <defs></defs>
    <g id="Page-1" stroke="none" stroke-width="1" fill="none" fill-rule="evenodd" sketch:type="MSPage">
        <g id="Group" sketch:type="MSLayerGroup" transform="translate(1052.300000, 328.100000) scale(1, -1) translate(-1052.300000, -328.100000) translate(0.800000, 0.100000)" fill="#000000">
            <path d="M914.2,655.1 C896,653.4 881.3,649.2 868.2,641.8 C857.3,635.7 842.8,620.9 832.7,605.6 L824.9,593.7 L830.3,588.8 C844.4,576 861.2,563.4 887.2,546.1 C920.5,523.9 931.9,512.7 942.6,491.3 C955.1,466.4 962.5,425.7 966.2,361.6 C967.5,337.8 969.2,288.2 969.2,270.5 L969.2,256.5 L947.5,253.7 C935.5,252.2 840.4,241.2 736.2,229.1 C632,217 504.6,202.2 453.2,196.2 C401.8,190.1 353.9,184.5 346.7,183.7 C292.8,177.4 249.7,175.6 226.7,178.5 C182.8,184.1 126.2,205.8 79.1,235.2 C60.9,246.5 50.3,250.3 31.7,252.1 C25.7,252.6 18.4,253.3 15.6,253.6 L10.4,254.1 L7.3,242.8 C1.9,223.5 0.1,211.9 -4.54747351e-13,197.6 C-4.54747351e-13,186.4 0.4,183.3 2.6,175.6 C9.1,153.3 24.1,129.5 42.3,112.7 C54.8,101.2 118.7,56.9 151.7,36.9 C182.3,18.4 206.8,6.4 223,1.9 C233.9,-1 243.5,-0.3 272.7,6 C300.5,12 351,24.2 359.7,27.1 C368.4,29.9 577.9,75.4 601.7,79.6 C773.7,110.1 1264.8,170.4 1513.2,191.6 C1607.6,199.6 1643.5,201.5 1744.7,203.6 L1810.7,205 L1884.7,199.6 C2052.2,187.4 2045.5,187.7 2059,192.4 C2085,201.5 2103.2,227.6 2103.2,255.7 C2103.2,304.4 2047,346.8 1943.2,376.5 C1899.2,389 1848.5,398.9 1811.7,402 C1786,404.2 1763.7,399 1726.3,382.1 C1703.2,371.6 1682,365.7 1642.7,358.7 C1557.6,343.5 1130.1,276.9 1128.4,278.6 C1128.1,278.9 1128.8,301.7 1130.1,329.4 C1131.3,357 1132.5,387.3 1132.8,396.6 C1133.3,411.2 1134.1,417.3 1138.3,440.1 C1147.8,490.7 1148.6,496.4 1148.6,512.6 C1148.7,525.3 1148.4,528.8 1146.4,535.4 C1138.4,563.1 1119.1,582.1 1078.7,602.1 C1060.8,610.9 975.3,647.7 965.2,650.9 C961.6,652 956.4,653.4 953.7,654 C946.2,655.5 925,656.1 914.2,655.1 L914.2,655.1 Z" id="Shape" sketch:type="MSShapeGroup"></path>
        </g>
    </g>
</svg>