<?xml version="1.0" encoding="UTF-8" standalone="no"?>
<svg width="2376px" height="2370px" viewBox="0 0 2376 2370" version="1.1" xmlns="http://www.w3.org/2000/svg" xmlns:xlink="http://www.w3.org/1999/xlink" xmlns:sketch="http://www.bohemiancoding.com/sketch/ns">
    <!-- Generator: Sketch 3.0.4 (8054) - http://www.bohemiancoding.com/sketch -->
    <title>Slice 2</title>
    <desc>Created with Sketch.</desc>
    <defs></defs>
    <g id="Page-1" stroke="none" stroke-width="1" fill="none" fill-rule="evenodd" sketch:type="MSPage">
        <g id="Group" sketch:type="MSLayerGroup" transform="translate(1187.600000, 1184.900000) scale(1, -1) translate(-1187.600000, -1184.900000) translate(0.000000, 0.200000)" fill="#000000">
            <path d="M1612,2367.7 C1601.5,2365.4 1589.7,2361 1561.5,2348.9 C1529.6,2335.1 1490.3,2322.2 1459,2315.2 C1440.5,2311.1 947.5,2238.1 908,2233.6 C856.5,2227.8 842.3,2226.6 824.1,2226.6 C793,2226.7 781.1,2229.4 728.6,2248.7 C661.1,2273.6 651.2,2276.6 635.4,2276.6 C624.4,2276.6 616.6,2275.3 608,2271.9 C588,2263.9 575.5,2249.1 575.5,2233.1 C575.5,2226.8 575.9,2225.5 579.2,2220.1 C584.2,2211.9 592.3,2202.3 619.1,2173 C656.4,2132.1 658,2129.8 664,2108.6 C679.3,2053.9 688,1978 691.2,1870 C692.2,1834.7 692,1788.1 689.6,1537.3 L686.8,1245.6 L684.1,1233.4 L681.4,1221.1 L621.4,1209.4 L561.5,1197.7 L457,1184.2 C356.4,1171.1 350.1,1170.5 288.9,1165.6 C253.9,1162.9 219.7,1160.6 212.9,1160.6 C184.7,1160.7 151.6,1168.2 125.6,1180.5 C119.9,1183.2 105.4,1192 92.5,1200.7 C79.9,1209.1 64.8,1218.5 59,1221.5 C48.6,1226.8 48.4,1226.8 41.6,1226.3 C15.2,1224.1 0,1196.8 0,1151.6 C0,1134.8 1.2,1128.8 6.8,1118.2 C13.7,1104.9 39.5,1081.2 95.7,1036.3 C131.2,1007.9 143.9,998.8 158.5,991.6 C173.2,984.3 179.5,982.5 193,981.9 C202.1,981.5 206.6,982 227.5,985.6 C240.7,987.9 256.7,990.8 263,992.2 C269.3,993.6 349.9,1009.5 442,1027.7 C593.8,1057.5 609.6,1060.5 610.5,1059 C611.1,1058.1 617.1,1049.6 624,1040.2 C654.6,998.1 658.2,992.8 663.9,981.1 C679.9,948.7 686,907.7 684.7,841.6 C682.5,733.6 675.6,540.1 668.6,390.1 C664.4,302.7 660.8,228.8 660.5,225.9 C659.8,219.7 655,209.7 642,186.6 C623.3,153.6 619,141.9 619,124.8 C619,113 620.8,106 627.1,92.6 C647.1,50.7 692.7,7.5 724,1 C737,-1.7 748.9,0.9 758.5,8.6 C768.9,16.9 800.8,39.9 807.5,44 C811.4,46.3 837.2,59.5 865,73.3 C966.4,123.8 1049.7,171.4 1161.5,242.9 C1275.2,315.6 1346,367.8 1383.5,406.7 C1401.8,425.6 1410.3,439.6 1410.3,450.5 C1410.3,463.3 1401.5,470.3 1386.6,469.4 C1377.9,468.8 1368.6,464.7 1345,450.9 C1307.9,429.2 1256.2,402.8 1164,358.6 C1075.4,316 1024.5,294.1 957.5,269.8 C908.8,252.1 841.1,230.4 834.2,230.4 C826.7,230.4 821.6,238.4 819.8,253.3 C818.4,265.2 827.3,503.7 837.5,726.6 C844.8,885.3 845.1,891 848.7,920.6 C853.4,959 853.7,975.5 850.1,986.1 C843.8,1004.7 831.1,1023.2 811,1043.4 C795.1,1059.3 774.1,1076.1 758.6,1085.2 C755,1087.3 752,1089.3 752,1089.6 C752,1089.9 769.9,1093.1 791.8,1096.9 C824.9,1102.5 884.5,1110.4 1153,1144.6 C1469.1,1184.8 1476.4,1185.7 1587.5,1197 C1649.7,1203.4 1702,1208.8 1703.9,1209 L1707.3,1209.5 L1703.7,1205.8 C1698.1,1200 1695,1192.4 1695,1184.3 C1695,1180.2 1695.6,1176.4 1696.5,1174.6 C1697.3,1173 1702.3,1166.8 1707.6,1160.9 C1719.1,1148 1720.9,1144.5 1721,1135.4 C1721,1126.4 1719.5,1119.6 1715.4,1110.8 C1705.7,1089.6 1687,1071.8 1628,1027.5 C1566.9,981.6 1484.3,923.9 1425.5,886.1 C1401.4,870.6 1350.5,838.8 1349.1,838.3 C1348.7,838.2 1336.7,847.6 1322.4,859.2 C1308.2,870.8 1267.5,903.6 1232,932.1 C1152.7,995.9 1131.8,1012.9 1121.5,1022.1 C1102.8,1038.9 1088.1,1047.1 1069.8,1051.2 C1061,1053.2 1039.7,1053.5 1032.5,1051.7 C1017.5,1048 1007.3,1038.2 996.7,1017.1 L993.2,1010 L1001.3,999.2 C1009,988.9 1013.5,984.8 1110.4,899.4 C1207.2,814.1 1218.1,804.1 1366,665.6 C1504.2,536.2 1935.5,139.2 1965.5,113.9 C1983.6,98.5 2000.9,88 2016.7,82.7 C2032.8,77.3 2031.7,77.3 2165.5,76.9 L2289.5,76.5 L2319.4,79.5 C2335.8,81.2 2351.9,83.3 2355.2,84.2 C2361.7,86 2369.2,91.9 2373,98.2 L2375.2,101.6 L2365.8,110.4 C2329.5,144.7 2343.4,134.6 2208,224.4 C2085.5,305.5 2083.6,306.8 1970.5,375.6 L1856.5,445 L1766,511.5 C1677.3,576.7 1673.1,580 1555.3,674.2 L1435.1,770.3 L1475.3,791.6 C1497.4,803.3 1595.4,855.2 1693,906.9 C1790.6,958.5 1874.6,1003.3 1879.7,1006.2 C1904.3,1020.6 1914.9,1032.2 1918,1048.4 C1919.7,1056.7 1918.8,1070.5 1916.1,1078.1 C1908.7,1099 1892.3,1122 1865,1150 C1840.3,1175.3 1814.8,1196.2 1793.1,1209 L1782.7,1215.1 L1799.6,1217.3 C1827.6,1221 2029,1229.9 2167,1233.6 C2270.1,1236.3 2280.3,1236.7 2289.5,1238.6 C2307.4,1242.3 2322.4,1250 2332.3,1260.6 C2352,1281.5 2353.4,1315.7 2335.6,1341.6 C2310.9,1377.8 2239.2,1405.3 2143,1415.6 C2089.5,1421.3 2068.6,1418.3 1996.1,1394.5 C1959.6,1382.5 1932.6,1374.8 1921,1373 C1915.8,1372.2 1849.6,1364.2 1774,1355.1 C1669.4,1342.5 1545,1328.8 1254,1297.6 C996.7,1270 867.4,1255.8 859.1,1254.1 C852.3,1252.7 846.3,1251.6 845.8,1251.6 C845.4,1251.6 845,1299.3 845,1357.6 C845,1415.9 845.2,1463.6 845.4,1463.6 C845.6,1463.6 850,1464.5 855.1,1465.5 C871,1468.8 894.8,1472.5 910,1474.1 C918,1474.9 1079.3,1493.1 1268.5,1514.5 C1457.7,1535.9 1622,1554.1 1633.6,1555 C1659.1,1557 1678.9,1559.1 1689,1561.1 C1711.9,1565.5 1731.4,1584 1736.6,1606.2 C1738.8,1615.6 1738.1,1629.9 1735,1638.1 C1726.8,1659.9 1704.3,1677.9 1667.4,1692.2 C1648.4,1699.5 1624.3,1705.9 1602.3,1709.5 C1589.5,1711.6 1581.2,1711.3 1569.3,1708.2 C1562.4,1706.4 1527.1,1694.5 1502.5,1685.6 C1456.5,1669.1 1408.8,1658.9 1344,1651.7 C1333.8,1650.5 1237.3,1640.4 1129.5,1629.1 C1021.7,1617.8 921.8,1607.3 907.5,1605.7 C873.5,1601.8 864.7,1601.2 855.6,1602.1 L848,1602.8 L848,1686 L848,1769.3 L860.5,1771.5 C867.3,1772.7 891.3,1775.6 913.7,1778.1 C936.1,1780.5 1106.6,1800 1292.5,1821.5 C1478.4,1842.9 1647.5,1862.3 1668.3,1864.5 C1708.3,1868.9 1713,1869.8 1722.1,1875.7 C1730.7,1881.2 1741.4,1893.6 1746.5,1903.9 C1752.7,1916.5 1754.4,1923.8 1753.8,1935.4 C1753.3,1943.9 1752.9,1945.5 1749,1953.3 C1741.5,1968.4 1726.3,1981.6 1703.1,1993.1 C1665,2012 1613.1,2022.2 1586.5,2016.1 C1576.4,2013.7 1522.4,1995.3 1484.2,1981.2 C1468.4,1975.3 1446,1969.2 1429,1966.1 C1407.6,1962.1 909.2,1903.1 876.5,1900.6 C861.1,1899.5 847.7,1898.3 846.8,1898 C845.2,1897.5 845,1898.2 845,1902.8 C845,1905.7 843.9,1947 842.5,1994.6 C841.1,2042.2 840,2082.9 840,2085.2 L840,2089.3 L849.3,2091.4 C861.3,2094.2 874.1,2096.2 891.5,2098.1 C899.2,2099 1074.5,2123.7 1281,2153.1 C1487.5,2182.5 1675.2,2208.8 1698,2211.6 C1720.8,2214.4 1743.9,2217.6 1749.2,2218.7 C1781.6,2225.2 1803.8,2243.3 1810.6,2268.6 C1812.7,2276.7 1813,2294 1811.1,2301.6 C1806,2322.4 1789.2,2339.5 1764.1,2349.5 C1749,2355.5 1734.1,2359.8 1716.5,2363.1 C1691.7,2367.8 1681.8,2368.8 1650.5,2369.2 C1623.9,2369.5 1619.5,2369.4 1612,2367.7 L1612,2367.7 Z" id="Shape" sketch:type="MSShapeGroup"></path>
        </g>
    </g>
</svg>