<?xml version="1.0" encoding="UTF-8" standalone="no"?>
<svg width="2461px" height="1819px" viewBox="0 0 2461 1819" version="1.1" xmlns="http://www.w3.org/2000/svg" xmlns:xlink="http://www.w3.org/1999/xlink" xmlns:sketch="http://www.bohemiancoding.com/sketch/ns">
    <!-- Generator: Sketch 3.0.4 (8054) - http://www.bohemiancoding.com/sketch -->
    <title>Slice 2</title>
    <desc>Created with Sketch.</desc>
    <defs></defs>
    <g id="Page-1" stroke="none" stroke-width="1" fill="none" fill-rule="evenodd" sketch:type="MSPage">
        <g id="Group" sketch:type="MSLayerGroup" transform="translate(1230.200000, 909.200000) scale(1, -1) translate(-1230.200000, -909.200000) translate(0.200000, 0.200000)" fill="#000000">
            <path d="M1797.3,1816.7 C1794,1816 1783,1812.4 1772.8,1808.7 C1762.6,1805 1748.9,1800.1 1742.2,1797.7 C1718.8,1789.3 1677.8,1782.1 1525.3,1759.7 C1470.9,1751.7 1422,1744.1 1416.6,1742.7 C1410.4,1741.1 1360.2,1733.9 1273.1,1722.2 C1110.8,1700.5 1106.9,1700 1080.8,1702.2 C1049.8,1704.7 1032.7,1711.5 1014.3,1728.4 C1004,1737.9 986.5,1753.1 971.3,1765.8 C936.9,1794.6 919,1804.2 899.9,1804.5 C889.7,1804.6 883.6,1802.8 874.9,1797.2 C866.3,1791.6 852.8,1778.5 852.8,1775.7 C852.8,1774.4 855.8,1762.7 859.4,1749.6 C880,1674.4 880.5,1671.6 877.3,1646.7 C874,1621.4 866.8,1588.3 857.8,1557.1 C855.1,1547.7 839,1505.5 811.2,1435.2 C769.1,1328.5 768.5,1326.9 720,1218.2 L671.2,1108.7 L666,1108 C645.1,1105 570,1095.1 530.3,1090.2 C458.8,1081.3 406.3,1075.8 349.8,1071 C329,1069.3 257.2,1069.2 242.3,1071 C188.6,1077.3 156.6,1089.3 124.3,1115.3 C119.9,1118.8 106.8,1131 95.2,1142.4 C71.9,1165.1 64.1,1171.4 56.5,1173.7 C44.2,1177.3 34.2,1174.6 23.7,1164.5 C8,1149.5 -1.2,1124.2 0.1,1099.1 C1.4,1072.7 10.3,1058.8 73.3,983.7 C122.5,925 143.8,903.8 173.7,884 C194.1,870.5 210.3,864.3 226.8,863.5 C236.1,863 238.5,863.3 247.1,865.6 C258.5,868.7 276.7,874.9 309.1,886.8 C337.4,897.2 443.3,928.3 469.9,934.1 C512.7,943.5 592.7,958.8 594.8,958 C595.4,957.7 503.6,800.1 493.5,784.2 C491.6,781.2 479.8,765.7 467.3,749.7 C442.7,718.4 440.2,715 436.8,708.2 C423.2,681.3 422.5,630.4 435.3,594.6 C440.5,580.1 446,571 455.8,561.1 C465.2,551.7 472.8,547.1 485.8,543 C492.5,540.9 495.1,540.7 511.3,540.8 C530,540.8 559.5,543.3 597.8,548 C616.5,550.3 624,550.6 655.3,550.9 C691.1,551.3 722.9,550.1 898.3,541.7 C942.3,539.6 972.2,536.4 1030.6,527.6 C1078.8,520.4 1219,497.2 1235.8,493.7 C1286.6,483 1336.8,468.5 1414.1,442 C1435.1,434.8 1477.5,420.6 1508.3,410.5 C1539.1,400.3 1564.6,391.7 1565,391.4 C1566.5,389.8 1548,348.3 1536,326.5 C1515.7,289.1 1494.4,263.1 1476.5,253.6 C1469.7,250 1468.7,249.7 1458.8,249.4 C1438.4,248.7 1410.5,256.8 1320.3,289.7 C1293.7,299.4 1285.3,303 1261.3,315 C1226.3,332.5 1215.9,336.6 1206.8,336 C1202.7,335.8 1198.4,334.7 1195,333.2 L1189.7,330.7 L1271,225.1 C1315.7,167.1 1357.1,113.7 1363,106.6 C1372.6,94.8 1374,92.6 1377.3,83.6 C1388.5,53.3 1403.4,30 1420,16.7 C1443.6,-2.1 1472.2,-5.1 1502.7,7.9 C1530.7,19.8 1566.3,46.3 1597.3,78.3 C1621.3,103.1 1637.3,126.6 1660.7,171.3 C1682.2,212.5 1710.8,280.2 1720.7,313.1 C1722.4,318.8 1724,323.7 1724.3,324 C1724.8,324.6 1770.9,302 1785.3,294 C1834.6,266.8 1884.6,232.7 1929.3,195.6 C1958.7,171.3 1970.2,163.2 1986.3,155.6 C2000.3,148.9 2008.9,146.9 2023.8,146.9 C2038.7,146.8 2046.3,148.4 2058.8,154.5 C2084.6,167 2096.8,194.6 2093.8,233.6 C2092.1,256.3 2087,274.2 2076.7,294.2 C2067.5,312 2059.3,322.8 2040.8,341.3 C2017.7,364.4 1995.2,380.9 1958.5,401.6 C1917.2,424.9 1850.2,453.3 1790.8,472.7 C1784.5,474.8 1779,476.8 1778.5,477.1 C1778.1,477.5 1783,496.2 1789.3,518.8 C1799.1,553.4 1804.9,577.2 1826.8,674.2 C1850.9,781.2 1854.2,797.1 1877.3,916.7 C1892.3,994.7 1903.7,1051.4 1906.5,1062 L1911.1,1079.2 L1990.2,1079.2 C2076.8,1079.1 2094.4,1078.6 2124.3,1074.7 C2135.3,1073.3 2179.4,1067.8 2222.3,1062.7 C2265.2,1057.5 2308.9,1052.1 2319.3,1050.6 C2342,1047.5 2378.1,1046.3 2392.4,1048.1 C2430.7,1053.1 2452.6,1068.9 2458.3,1095.7 C2465.4,1129.3 2448.6,1158.1 2405.3,1186.4 C2370.4,1209.3 2309.6,1232.8 2251.8,1245.7 C2223.8,1252 2220.7,1251.8 2163.4,1239.6 C2106.3,1227.5 2079.5,1222.2 2065.7,1220.3 C2049.7,1218.1 1997.2,1216.2 1952.6,1216.2 L1926.8,1216.2 L1926.8,1221.3 C1926.8,1224.1 1937,1308.8 1949.4,1409.6 L1971.9,1592.7 L1981.8,1610.2 C1993.9,1631.7 2000.3,1644.8 2002.3,1652.7 C2004.3,1660.5 2004.2,1675.3 2002.2,1682.3 C1998.1,1696.3 1987.5,1711.5 1970.2,1728.3 C1931.9,1765.3 1865,1804.2 1820.9,1815.1 C1810.2,1817.8 1804.2,1818.2 1797.3,1816.7 L1797.3,1816.7 Z M1731.3,1658.7 C1758,1656.9 1778.5,1645.4 1787.2,1627.2 C1794.2,1612.7 1794.3,1611.3 1794.2,1548.7 C1794.1,1478.5 1792.1,1438.4 1786.3,1391.2 C1782.7,1362.3 1760.7,1210.8 1759.9,1210.1 C1759.4,1209.6 1372,1186 1366.6,1186.2 C1365.1,1186.2 1365.2,1186.9 1367.5,1193 C1372.1,1205.2 1383.7,1237.7 1408.8,1309.2 C1422.4,1348 1438.3,1391.6 1444.1,1406.2 C1464,1456.6 1466.8,1465.7 1467.5,1483.2 C1468,1493.8 1467.7,1497.1 1466,1503.8 C1459.3,1530.2 1433.8,1563.1 1391.1,1600.4 C1380.9,1609.4 1379.3,1611.1 1381.1,1611.5 C1382.3,1611.8 1410.8,1616.1 1444.3,1621.1 C1530.9,1634 1533.5,1634.5 1571.8,1641.6 C1616.4,1649.9 1703.9,1660.6 1719.3,1659.5 C1721.5,1659.4 1726.9,1659 1731.3,1658.7 L1731.3,1658.7 Z M1239.7,1591.2 C1249.1,1584 1261,1571.6 1265.6,1563.9 C1270.8,1555.3 1275.6,1543.3 1278,1533.1 C1280,1524.7 1280.2,1521 1280.2,1498.2 C1280.2,1471.1 1279,1456.9 1274.2,1426.7 C1264.7,1367.4 1247.3,1301.9 1212.7,1195 C1206.2,1174.9 1203.3,1167.2 1202,1166.8 C1193.2,1164.1 1121.6,1155.9 974.8,1140.7 C929.4,1136 878,1130.6 860.5,1128.6 C842.9,1126.7 828.4,1125.3 828.1,1125.5 C827.4,1126.3 895.1,1263.2 936.3,1344.2 C956.3,1383.5 991.3,1451.3 1014.1,1494.7 L1055.5,1573.7 L1139.9,1585.3 C1186.3,1591.8 1226,1597 1228,1597.1 C1231,1597.2 1233.1,1596.1 1239.7,1591.2 L1239.7,1591.2 Z M1740.8,1071.5 C1740.8,1068.2 1713.2,917.8 1703.2,866.7 C1701.2,856.8 1688.2,802.1 1674.2,745.2 C1651.8,654.1 1646.8,635.2 1632.6,587.7 C1623.7,558 1616.4,533.6 1616.3,533.5 C1616.3,533.4 1558.2,546.8 1487.3,563.3 C1362.9,592.3 1354.4,594.2 1247.3,615.2 C1173.1,629.7 1136.4,637.3 1136.6,638.1 C1136.7,638.7 1156.9,682.3 1181.4,735 C1219.6,816.9 1232.7,846.4 1272.5,939.7 C1298.1,999.6 1319.1,1048.8 1319.2,1048.9 C1319.3,1049 1350.3,1052.1 1388.2,1055.7 L1457,1062.4 L1595.6,1067.7 C1671.9,1070.6 1735.8,1073 1737.6,1073.1 C1740,1073.2 1740.8,1072.8 1740.8,1071.5 L1740.8,1071.5 Z M1157.2,1023.5 C1140.8,978.1 1094.7,857 1085,833.6 C1077.6,816 1004.7,651.8 1004,651.1 C1003.6,650.7 978.3,652.4 947.8,654.7 C917.3,657.1 829.7,663.6 753.1,669.3 L614,679.7 L616.3,685.7 C622.5,702.1 648.8,758.8 685.8,835.7 C738.9,945.9 746.3,961.3 750.4,970.2 L754.7,979.7 L762.8,981.5 C785.7,986.4 846.3,997.1 891.7,1004.3 C906.3,1006.5 964.5,1013.9 1021.2,1020.7 C1115.2,1031.9 1125.9,1033 1142.5,1033.1 L1160.7,1033.2 L1157.2,1023.5 L1157.2,1023.5 Z" id="Shape" sketch:type="MSShapeGroup"></path>
        </g>
    </g>
</svg>