<?xml version="1.0" encoding="UTF-8" standalone="no"?>
<svg width="2410px" height="1085px" viewBox="0 0 2410 1085" version="1.1" xmlns="http://www.w3.org/2000/svg" xmlns:xlink="http://www.w3.org/1999/xlink" xmlns:sketch="http://www.bohemiancoding.com/sketch/ns">
    <!-- Generator: Sketch 3.0.4 (8053) - http://www.bohemiancoding.com/sketch -->
    <title>Untitled 4</title>
    <desc>Created with Sketch.</desc>
    <defs></defs>
    <g id="Page-1" stroke="none" stroke-width="1" fill="none" fill-rule="evenodd" sketch:type="MSPage">
        <g id="Group" sketch:type="MSLayerGroup" transform="translate(1205.000000, 542.800000) scale(1, -1) translate(-1205.000000, -542.800000) translate(0.000000, 0.800000)" fill="#000000">
            <path d="M840.2,1065.81404 L846.6,1057.61624 C858.4,1042.92019 862.7,1032.8229 863.7,1017.82692 C865.5,991.733925 846,955.743586 806.1,911.155555 C788.6,891.660788 770.9,874.96527 682,794.486872 C604.1,723.905819 587.4,709.309737 542.7,672.619585 C498.5,636.4293 482,623.632735 415.7,574.845831 L339.4,518.660912 L170.5,420.187346 C77.5,366.101864 1.2,321.313886 0.8,320.714047 C0.4,320.214182 0,317.814826 0,315.515443 C0,304.518395 18.5,295.120917 37.5,296.620515 C81.6,300.119576 154,323.513296 255.7,367.101596 C334.2,400.692579 406,435.383267 480,475.372532 L519.5,496.666816 L607,556.450768 C675.9,603.438156 697,618.334157 706.4,626.63193 C728.5,646.026724 752.2,661.72251 762.5,663.721974 C768.6,664.821678 789.2,657.423664 866.5,626.431983 L912.5,607.936948 L1006,553.3516 C1057.4,523.359651 1100.2,498.36636 1101.2,497.766521 C1102.5,496.766789 1100,494.467407 1084.7,482.670573 C1045.5,452.478678 993.3,410.190029 973.5,392.694726 C967.7,387.496121 939.1,368.701166 869.5,324.213108 L773.5,262.929558 L655,204.245311 L536.5,145.661037 L442,109.770671 C390,90.0759575 347.3,73.7803318 347.1,73.6803586 C346.5,73.1804928 355.6,60.9837668 358.6,58.084545 C364,52.9859136 367.8,52.1861283 384.5,52.1861283 C418.7,52.3860746 468.7,60.1839814 539,76.379634 C617.4,94.3748036 730.5,128.06576 773,145.960956 C791.5,153.758863 983,248.933315 1014.4,265.928753 L1046.2,283.224111 L1141.9,348.406614 L1237.5,413.489144 C1247.3,410.889841 1288.2,385.596631 1424,300.119576 C1520.5,239.335892 1609,183.150973 1620.5,175.15312 C1646.6,157.157951 1867.7,21.2944206 1882,14.3962722 C1902.4,4.59890215 1919.2,1.3997609 1954,0.599975585 C1974.9,0.200082928 1991.1,0.899895078 2100,7.19820442 C2226.5,14.4962454 2246.6,15.9958429 2302.5,21.7942864 C2364.5,28.3925152 2373.5,29.8921127 2396.5,37.5900463 L2406.4,40.9891339 L2408.2,46.8875506 C2409.2,50.0866919 2410,53.8856721 2410,55.2852964 C2409.9,73.4804123 2364.8,97.8738643 2288.5,121.067638 C2277.5,124.466726 2213.6,143.86152 2146.5,164.256045 L2024.5,201.346089 L1939.5,233.737394 C1856.3,265.428888 1851.1,267.528324 1696,334.010478 L1537.5,401.99223 L1440.5,452.378705 C1387.2,480.171244 1341.4,503.964857 1338.9,505.264508 L1356.8,532.657155 C1369.2,546.453452 1412.9,593.640786 1453.9,637.628978 C1495,681.61717 1533.7,723.206006 1540,730.004182 C1568.3,760.59597 1584.9,771.692991 1631.1,790.887839 C1656.5,801.484994 1664.8,805.48392 1675.5,812.582015 C1685.5,819.180244 1692.3,826.378312 1695.8,833.876299 C1698.1,838.874957 1698.4,840.774447 1698.3,848.872274 C1697.9,875.265189 1691.5,882.463257 1608.5,951.244794 C1550.4,999.331886 1545,1003.13087 1530.1,1005.2303 C1516.4,1007.22977 1504,1004.23057 1413,976.737951 C1377.5,966.040822 1376.2,965.740903 1341,960.142405 C1278,950.245062 1200.5,941.147504 1151.1,937.948363 C1127.5,936.448766 1088,937.348524 1071,939.847853 C1056.7,941.847316 1057.7,940.647638 1060.4,953.244257 C1062.8,964.741171 1062.5,971.539346 1059,982.536394 C1050.9,1007.72963 1031.8,1046.51922 1013.9,1074.01184 L1007.1,1084.50902 L840.2,1065.81404 Z M1413.9,854.9 L1415,850.9 L1403.2,833.6 C1388.1,811.5 1359.8,769.1 1339.7,738.3 C1321.6,710.5 1314.6,701.5 1294,679.2 C1273.2,656.8 1199.4,585.8 1196.9,585.8 C1196.2,585.8 1178.6,593.3 1157.6,602.4 C1024.3,660.6 925.5,701 848.2,728.8 C844.7,730.1 842.3,731.4 842.7,731.8 C843.1,732.2 855.7,744.2 870.6,758.4 C913.7,799.7 931.2,815.3 943,822.8 C948.4,826.2 948.6,826.3 960.7,826.6 C967.4,826.8 983.5,826.2 996.4,825.4 C1028.3,823.2 1031.1,823.3 1068.7,827.2 C1086.7,829.1 1112.1,831.6 1125,832.8 C1137.9,834 1199.8,840.3 1262.5,846.8 C1359.8,856.8 1379.2,858.6 1394.6,858.7 L1412.7,858.8 L1413.9,854.9 L1413.9,854.9 Z" id="Shape" sketch:type="MSShapeGroup"></path>
        </g>
    </g>
</svg>