<?xml version="1.0" encoding="UTF-8" standalone="no"?>
<svg width="2444px" height="1657px" viewBox="0 0 2444 1657" version="1.1" xmlns="http://www.w3.org/2000/svg" xmlns:xlink="http://www.w3.org/1999/xlink" xmlns:sketch="http://www.bohemiancoding.com/sketch/ns">
    <!-- Generator: Sketch 3.0.4 (8054) - http://www.bohemiancoding.com/sketch -->
    <title>Slice 2</title>
    <desc>Created with Sketch.</desc>
    <defs></defs>
    <g id="Page-1" stroke="none" stroke-width="1" fill="none" fill-rule="evenodd" sketch:type="MSPage">
        <g id="Group" sketch:type="MSLayerGroup" transform="translate(1222.100000, 828.600000) scale(1, -1) translate(-1222.100000, -828.600000) translate(0.200000, 0.200000)" fill="#000000">
            <path d="M1705.4,1654 C1695.3,1650.2 1683.7,1644 1657.5,1628.3 C1628.3,1610.8 1614.8,1605.5 1575.6,1596 C1547.2,1589.2 1509,1582.8 1476.8,1579.5 C1468.3,1578.6 1370.2,1570.5 1258.8,1561.5 C1062.5,1545.5 1052.6,1544.6 935.3,1532 L814.3,1519 L750.3,1519 C684.9,1519 673.9,1519.5 642.8,1523.5 C593.4,1529.8 536.9,1543.1 498.8,1557.2 C491.4,1560 470.9,1569.1 453.3,1577.5 C405.4,1600.3 393.4,1604.8 383,1603.6 C372.4,1602.4 363.9,1597.8 347.4,1584.6 L338.6,1577.5 L339.2,1568.6 C339.5,1563.7 340.3,1556.7 340.9,1553.1 C342.1,1546.7 342.3,1546.3 349.7,1539 C358.4,1530.5 364.8,1522.1 387.8,1489 C410.8,1455.8 414.8,1450.9 436.8,1428.9 C478.8,1386.8 521.1,1359.3 563.1,1346.6 C580.7,1341.3 590.4,1340 613.2,1340 C651.7,1340 690.6,1344.9 736.3,1355.5 C758.7,1360.7 833.1,1373.9 876.8,1380.4 C882.6,1381.3 986.5,1392.1 1107.8,1404.5 C1365.4,1430.7 1349.7,1429.5 1539.7,1436.1 L1657.3,1440.1 L1761.8,1438.9 C1876.3,1437.6 1894.7,1437.8 1908,1440.9 C1938.7,1448 1958.9,1465.3 1965.3,1490 C1967.8,1499.6 1967,1515.2 1963.4,1524.4 C1949.8,1560 1898.2,1597.4 1818.4,1629.6 C1797.5,1638.1 1770.6,1647.1 1751.1,1652.2 C1738.5,1655.4 1733.1,1656.3 1724.3,1656.6 C1714,1657 1712.8,1656.8 1705.4,1654 L1705.4,1654 Z" id="Shape" sketch:type="MSShapeGroup"></path>
            <path d="M2157.6,350.6 C2148.9,348.1 2140.4,343.4 2121.7,330.8 C2111.5,323.9 2100.4,317.2 2097.2,316 C2092.2,314.1 2087,313.5 2063.8,311.9 C2030.9,309.7 1955.6,305.5 1852.8,300 C1811.3,297.8 1766.1,295.1 1752.3,294 C1552.5,278.4 1468.2,273.5 1218,263 C1073.2,256.9 1046.2,255.4 890.3,244 C604.4,223.1 529,218.4 421.8,214.9 C374.7,213.4 297.6,214.2 277.3,216.4 C227.7,221.8 181.9,231.7 133.7,247.3 C120,251.7 113.7,254.5 98.2,262.8 C77.2,274.1 63,280.9 55,283.5 C28.6,292.1 -2.4,263.8 0.1,233.5 C1.2,220.9 7.4,205.1 17.3,189.5 C26.8,174.6 46.7,149.5 67.4,126.4 C72.8,120.3 86.1,105.4 96.9,93.4 C127,59.8 144.4,44.1 166.9,30.4 C199.5,10.5 238.1,0 278.6,0 C295.3,0 300.1,0.8 347.3,12 C363.8,15.9 383.2,20.4 390.4,22 C408.7,26.1 524.5,45.3 607.3,57.9 C626.3,60.8 729.5,72.8 880.3,89.4 C1179.7,122.6 1295.4,130.9 1500.8,133.9 C1603,135.5 1950.3,136.3 1977.8,135 C2008.5,133.7 2057,129.9 2176,119.5 C2360.2,103.5 2393.8,101.6 2407.6,105.8 C2420.1,109.8 2430.9,119.8 2437.4,133.5 C2449.7,159.5 2444.4,186.3 2420.5,218.7 C2413.3,228.3 2387.4,254 2374.3,264.4 C2325.1,303.5 2255.9,337.5 2202,349.1 C2189.5,351.7 2164.5,352.6 2157.6,350.6 L2157.6,350.6 Z" id="Shape" sketch:type="MSShapeGroup"></path>
        </g>
    </g>
</svg>