<?xml version="1.0" encoding="UTF-8" standalone="no"?>
<svg width="2384px" height="1675px" viewBox="0 0 2384 1675" version="1.1" xmlns="http://www.w3.org/2000/svg" xmlns:xlink="http://www.w3.org/1999/xlink" xmlns:sketch="http://www.bohemiancoding.com/sketch/ns">
    <!-- Generator: Sketch 3.0.4 (8053) - http://www.bohemiancoding.com/sketch -->
    <title>Group</title>
    <desc>Created with Sketch.</desc>
    <defs></defs>
    <g id="Page-1" stroke="none" stroke-width="1" fill="none" fill-rule="evenodd" sketch:type="MSPage">
        <g id="Group" sketch:type="MSLayerGroup" transform="translate(1192.000000, 836.500000) scale(1, -1) translate(-1192.000000, -836.500000) translate(0.000000, 0.000000)" fill="#000000">
            <path d="M890.821379,1510.44819 C890.470314,1510.44452 890.126483,1510.44268 889.789961,1510.44268 C813.372363,1510.44275 774.008039,1467.29275 778.7,1461 C792.7,1442.3 799.6,1427.7 805.6,1404.5 C818.9,1352.5 823.4,1290 821.3,1187.2 C820.7,1159 820,1135.7 819.8,1135.4 C819.2,1134.9 817.2,1134.5 779.2,1128.5 C763.6,1126 712.5,1117.7 665.7,1109.9 C460.7,1076.2 365.2,1061.4 288.5,1051.3 C270.2,1048.9 264.1,1048.5 241.5,1048.5 C217.5,1048.5 214.3,1048.8 199.6,1051.3 C166.3,1057.2 140.9,1066.8 118.5,1081.8 C113.5,1085.1 103.4,1093.3 96,1099.9 C88.6,1106.5 80.1,1113.3 77.2,1115.1 C72.4,1118 70.9,1118.4 62.2,1118.8 C42.6,1119.7 24.9,1114.2 15,1104 C8.6,1097.4 3.4,1086.8 1.4,1076 C-1.1,1062.8 -0.1,1038.4 3.4,1026.5 C9.8,1005.1 23.4,987.1 52.8,960.7 C71.5,944 88.3,930.1 108,914.9 C141.9,888.7 161.6,875.8 185.5,864 C210.4,851.8 227.2,847 245.6,847 C262.1,847 279.3,851.8 361.5,879 C431.1,902.1 461.2,910.8 535.7,929.4 C625.2,951.8 687.4,964.8 800.8,984.5 C803.2,979.2 796.7,931.4 789,875 C774.8,771.2 768.4,729.2 761,692 C729,531.6 677.5,392.9 606.5,276 C566.6,210.3 516.7,148.2 473,109.6 C445.9,85.8 433.2,72 428.3,61.4 C426.1,56.6 425.8,54.8 426.2,49.1 C426.8,41.7 428.5,37.7 433.1,33.1 C438.7,27.5 441.5,26.5 452,26.6 C460,26.6 463,27.1 470.9,29.8 C553.1,58.1 716.9,225.1 802.5,368 C816.1,390.7 836.4,430.8 847.3,456.6 C897.3,574.3 937.9,735 978.9,977.9 C982.8,1000.7 986.1,1019.5 986.3,1019.7 C987.6,1020.9 1085.3,1037.5 1135,1044.9 C1190.2,1053.1 1211.7,1055.5 1323.5,1065.4 C1382.4,1070.7 1432.1,1075.2 1434.1,1075.5 L1440.4,1043.2 C1443.1,1010.6 1443.1,1010.1 1444.3,869.5 L1445.5,728.5 L1440.2,483 C1434.6,219.2 1433.8,160.2 1435.8,137 C1442.6,58.8 1462.5,15.9 1498,3.3 C1507.9,-0.2 1527,-1.1 1537,1.4 C1548.7,4.3 1557.7,9.5 1566.5,18.4 C1588.4,40.5 1600.5,78 1606.7,142.5 C1608.3,159.1 1608.4,195.7 1608.7,624.5 L1609,1088.6 L1766.3,1092.3 C1852.7,1094.4 1928.7,1096.1 1935,1096 C1941.3,1096 2001.2,1093.1 2068,1089.5 C2186.2,1083.2 2190.3,1082.9 2218,1079 C2295.9,1068.2 2305.5,1067.8 2327.5,1074.7 C2355.7,1083.5 2376.3,1103 2382.4,1126.7 C2384.3,1133.8 2384.5,1148.6 2382.9,1156.2 C2378.5,1176.9 2360.8,1198.3 2332.8,1216.7 C2289.4,1245.2 2216.2,1269.8 2139,1281.7 C2130.4,1283 2121.8,1283.5 2105,1283.5 C2085.2,1283.4 2080.6,1283.1 2066.8,1280.7 C2047.5,1277.4 2031.1,1273.8 1998,1265.5 C1966.9,1257.8 1930.8,1249.5 1922,1248 C1917.2,1247.3 1605.9,1226 1599.4,1226 C1598.8,1226 1597.3,1231.3 1595.9,1237.8 C1593,1251.7 1592.9,1266.5 1595.4,1301.5 C1599.5,1357.8 1602,1379.6 1609.1,1422 C1613.1,1445.4 1616.4,1468.1 1616.7,1474 C1617.1,1483.3 1616.9,1485.5 1614.5,1493.5 C1609.2,1511.8 1594,1538 1577.1,1558.2 C1568,1569 1543.4,1592.8 1533.7,1600.1 C1524.4,1607.1 1500.8,1621.4 1454.8,1648 C1432.4,1660.9 1414.1,1671.8 1414,1672.1 C1414,1672.30215 1402.42704,1663.552 1355.63884,1641.69651 C1343.35614,1633.22033 1334.09676,1625.61495 1337.5,1622.9 C1353.7,1609.8 1374.9,1582.3 1398.2,1544 C1417,1513.1 1417.6,1508 1428.5,1287.3 C1430.4,1248.2 1432,1215.2 1432,1214.1 C1432,1212.3 1431.4,1212 1427.2,1212 C1420.2,1212 1363.8,1207.5 1319.5,1203.5 C1292,1201 1019.8,1171.1 993.9,1167.7 C992.3,1167.5 991.4,1167.8 991.6,1168.4 C992.5,1171 996.7,1223.9 999,1261.5 C999.4,1269.2 1001,1283.7 1002.4,1293.7 C1006.8,1325 1012,1374.1 1012,1385 C1012,1408.4 1004,1426.2 984.9,1445.1 C969.7,1460.1 943.6,1478.4 895,1507.9 C893.565512,1508.77414 892.173224,1509.62316 890.821379,1510.44819 Z" id="Shape" sketch:type="MSShapeGroup"></path>
        </g>
    </g>
</svg>