<?xml version="1.0" encoding="UTF-8" standalone="no"?>
<svg width="953px" height="2203px" viewBox="0 0 953 2203" version="1.1" xmlns="http://www.w3.org/2000/svg" xmlns:xlink="http://www.w3.org/1999/xlink" xmlns:sketch="http://www.bohemiancoding.com/sketch/ns">
    <!-- Generator: Sketch 3.0.4 (8054) - http://www.bohemiancoding.com/sketch -->
    <title>Slice 2</title>
    <desc>Created with Sketch.</desc>
    <defs></defs>
    <g id="Page-1" stroke="none" stroke-width="1" fill="none" fill-rule="evenodd" sketch:type="MSPage">
        <g id="Group" sketch:type="MSLayerGroup" transform="translate(476.200000, 1101.100000) scale(1, -1) translate(-476.200000, -1101.100000) translate(0.200000, 0.100000)" fill="#000000">
            <path d="M756.7,2201 C739.2,2199.2 721.5,2192.8 691.1,2177.7 C666.6,2165.4 643.1,2154.9 634.3,2152.2 C630.5,2151 585.9,2143.5 535.3,2135.5 C484.7,2127.5 437.7,2119.9 430.8,2118.6 C423.9,2117.3 411.3,2115.5 402.7,2114.6 C377.6,2112 374.2,2113.1 342.2,2134.2 C320.5,2148.6 311.6,2152.9 292.1,2158.5 C258,2168.3 225.7,2169.1 208.5,2160.5 C190.4,2151.4 181.1,2137.8 170.1,2104.3 C167.2,2095.3 164.8,2087.4 164.8,2086.8 C164.8,2086.1 168.4,2084.5 172.7,2083.2 C194.4,2076.7 209.6,2069 220.4,2058.8 C229.1,2050.7 234.7,2042.8 241.2,2029 C251.6,2007.1 259.9,1976 265.2,1938.6 C270.7,1899.7 272.7,1813.3 273.5,1570.1 C274.3,1313.9 272,1204.7 262.8,1069.6 C242.6,774.1 182.1,491.1 90.6,264.6 C67.5,207.5 47.9,166.7 25.9,130.1 C6.7,98.1 0.5,85.9 0.1,78.4 C-0.4,70.9 1.9,66.5 7.9,63.3 C14.5,59.7 21.6,60.6 33.2,66.5 C89.3,94.6 180.6,225 250.3,376.6 C330.6,551.2 383.7,746.8 403.8,942.4 C405.5,959 406.2,963 408.3,967.1 C410.3,971.1 411.4,972.1 414,972.6 C425.3,974.7 712.4,1019.8 712.6,1019.6 C713.3,1018.9 704.8,368.7 703.9,349.6 C701.4,300.7 693,282.2 670,275.1 C657.1,271.1 631.6,273.1 573.8,282.6 C535.1,289 528.8,290.6 488.3,304 C468.5,310.6 449.4,316.5 445.8,317.2 C433.3,319.4 421.2,314.5 418.7,306.1 C416.6,299.1 418.6,295 429.7,284 C445.5,268.3 478.7,244.8 539.3,206.6 C583.8,178.5 608.3,160.5 626.3,142.6 C632.4,136.6 639.5,128.5 642,124.6 C644.5,120.8 652.3,105.7 659.3,91.1 C682.9,41.6 693.3,23.6 704.5,13 C714.8,3.1 723.6,0.1 741.8,6.82121026e-13 C754,6.82121026e-13 759.2,0.8 768.4,4.2 C820.6,23.8 847.4,108.9 857.2,286.1 C861.7,366 862.4,413.9 865.8,838.6 C868.6,1186.2 869,1216.4 872.8,1384.6 C876.2,1534.7 883.2,1775.3 885.3,1810.6 C886.6,1832 894.3,1875 903.8,1913.6 C910.8,1942 913,1947.9 928.6,1983.2 C949.3,2029.8 952.5,2039.1 951.3,2049.1 C949.8,2060.7 943.6,2072.1 932.7,2083.1 C922.3,2093.7 857.7,2146.8 832.6,2165.5 C815.7,2178 799.6,2188.5 788.8,2194.1 C779.7,2198.7 769.4,2202.3 765.8,2202 C765,2201.9 760.9,2201.5 756.7,2201 L756.7,2201 Z M717.7,2026.5 C723.3,2025.5 727,2019.1 729.5,2006.1 C732.2,1991.8 732.2,1949 729.2,1800.1 L726.4,1655.6 L686.8,1648.3 C665.1,1644.3 630.4,1638 609.8,1634.2 C569,1626.7 510.3,1616.7 483.3,1612.7 C465.5,1610 429.5,1605.1 427.8,1605.1 C427.1,1605.1 426.8,1671 426.8,1793.6 L426.8,1982.1 L429.1,1982.6 C430.3,1982.9 478.1,1990.7 535.3,2000.1 C592.5,2009.4 642.5,2017.7 646.3,2018.5 C652.2,2019.8 669,2022.3 702.8,2027 C709,2027.8 711.3,2027.8 717.7,2026.5 L717.7,2026.5 Z M723.2,1503.9 C722.9,1495.5 720.5,1414.2 717.8,1323.3 C715.2,1232.3 712.8,1157.8 712.6,1157.5 C712,1156.9 419.7,1106.8 419.3,1107.3 C419.1,1107.4 420.7,1177.4 422.8,1262.6 C426.5,1409.3 426.8,1419 429.4,1444.1 L432.2,1470.7 L565.2,1494.8 C691.5,1517.7 699,1518.9 711.1,1519 L723.8,1519.1 L723.2,1503.9 L723.2,1503.9 Z" id="Shape" sketch:type="MSShapeGroup"></path>
        </g>
    </g>
</svg>