<?xml version="1.0" standalone="no"?>
<!DOCTYPE svg PUBLIC "-//W3C//DTD SVG 20010904//EN"
 "http://www.w3.org/TR/2001/REC-SVG-20010904/DTD/svg10.dtd">
<svg version="1.0" xmlns="http://www.w3.org/2000/svg"
 width="2130.000000pt" height="2399.000000pt" viewBox="0 0 2130.000000 2399.000000"
 preserveAspectRatio="xMidYMid meet">
<metadata>
Created by potrace 1.11, written by Peter Selinger 2001-2013
</metadata>
<g transform="translate(0.000000,2399.000000) scale(0.100000,-0.100000)"
fill="#000000" stroke="none">
<path d="M9440 23966 c-139 -32 -257 -85 -357 -160 -101 -76 -182 -191 -183
-259 0 -41 47 -128 186 -345 69 -106 149 -236 180 -289 187 -324 334 -698 380
-967 45 -267 19 -896 -61 -1440 -63 -424 -127 -722 -266 -1232 l-72 -261 -346
-37 c-335 -36 -4673 -519 -5666 -630 -864 -97 -1107 -100 -1287 -12 -77 37
-282 167 -483 306 -408 283 -538 359 -670 395 -91 25 -312 31 -412 12 -211
-40 -358 -178 -379 -357 -9 -79 19 -153 194 -516 82 -170 157 -329 167 -354
144 -370 292 -982 325 -1350 62 -694 93 -2579 62 -3735 -7 -247 -17 -628 -22
-845 -6 -217 -17 -575 -25 -795 -19 -501 -40 -1173 -60 -1865 -31 -1111 -39
-1280 -156 -3610 -85 -1690 -90 -1811 -84 -2075 13 -613 32 -730 167 -1065
180 -446 430 -792 651 -904 65 -33 89 -40 156 -44 167 -10 299 54 467 223 136
137 224 297 269 491 21 92 33 578 95 4054 56 3121 69 3720 170 7647 l50 1941
30 259 c39 332 69 571 76 605 8 42 -23 35 995 243 544 111 594 119 1345 225
1701 238 3363 446 3724 465 63 3 130 8 148 11 43 7 42 -1 -19 -160 -225 -573
-532 -1115 -1059 -1866 -562 -800 -1003 -1322 -1571 -1857 -430 -404 -757
-666 -1404 -1123 -143 -101 -359 -254 -480 -339 -263 -187 -340 -256 -350
-319 -14 -89 35 -181 118 -221 106 -52 271 -17 682 144 826 323 1808 875 2605
1463 748 553 1411 1195 1885 1827 145 193 263 369 455 677 178 286 195 308
243 308 152 0 761 -349 1682 -963 736 -491 882 -600 2115 -1575 694 -549 679
-535 1224 -1102 361 -375 524 -549 872 -930 531 -581 622 -643 944 -644 93 0
140 4 185 18 303 91 500 392 545 831 17 160 8 444 -19 595 -93 532 -384 988
-915 1432 -375 314 -1208 860 -1971 1290 -427 241 -1148 607 -1630 827 -697
318 -1608 687 -2483 1006 -56 20 -105 41 -108 46 -5 8 54 119 338 634 55 99
106 186 113 194 16 17 6 16 915 81 2937 209 3716 259 4493 290 1178 46 1564
55 1768 42 429 -28 685 -117 861 -299 119 -123 181 -263 220 -498 17 -104 15
-604 -6 -1630 -9 -423 -43 -2055 -76 -3625 l-60 -2855 -85 -1860 c-146 -3197
-141 -3100 -191 -3404 -41 -249 -111 -465 -196 -608 -49 -83 -152 -189 -222
-228 -115 -64 -155 -70 -486 -70 -558 1 -840 54 -1930 362 l-374 106 -53 -59
c-61 -68 -63 -80 -28 -183 63 -186 192 -390 405 -642 107 -127 226 -226 1115
-929 421 -333 550 -449 647 -580 30 -41 152 -228 271 -415 270 -426 319 -496
437 -615 179 -181 333 -260 512 -260 215 0 457 138 656 375 302 359 549 945
692 1640 139 680 312 2073 370 2985 11 184 25 972 45 2720 22 1917 31 2301 85
3980 45 1400 54 1588 125 2745 19 308 48 783 65 1055 33 550 49 737 86 1010
52 389 87 543 221 975 252 811 288 972 249 1124 -20 79 -93 221 -156 303 -76
100 -374 386 -505 484 -378 284 -837 547 -1187 678 -156 58 -118 62 -1024
-114 -742 -145 -1031 -195 -1474 -254 -588 -79 -987 -118 -1830 -181 -481 -35
-3218 -226 -3858 -268 l-194 -13 7 41 c10 65 252 1102 315 1350 32 127 113
408 179 625 240 790 285 993 248 1137 -22 86 -84 205 -159 304 -78 104 -269
303 -407 422 -407 351 -997 696 -1387 813 -107 32 -311 42 -404 20z"/>
<path d="M9327 13859 c-222 -29 -410 -165 -464 -335 -16 -51 -16 -57 0 -106 9
-29 49 -109 88 -178 208 -367 252 -509 229 -736 -15 -143 -63 -289 -173 -526
-468 -1004 -1869 -2734 -3142 -3878 -244 -220 -343 -302 -1225 -1010 -731
-587 -858 -696 -900 -774 -12 -24 -11 -30 23 -79 20 -29 52 -68 71 -86 32 -31
41 -34 110 -39 350 -22 992 229 1831 716 756 439 1720 1114 2222 1555 65 57
343 333 618 613 275 280 568 578 650 662 l151 154 190 -87 c349 -158 1145
-584 1654 -883 184 -108 236 -144 1215 -843 l810 -579 392 -337 392 -338 538
-565 c943 -990 1092 -1128 1301 -1208 60 -23 82 -26 202 -27 116 0 144 3 203
23 213 74 349 260 424 579 15 66 18 121 18 368 0 280 -1 294 -29 420 -122 563
-428 1016 -1021 1511 -233 194 -643 481 -961 672 -481 289 -1696 878 -2401
1162 -118 48 -622 220 -1243 426 -575 190 -1049 350 -1054 355 -22 20 130 305
246 459 96 128 235 294 371 442 263 288 391 441 469 563 93 145 113 218 113
415 0 124 -3 156 -23 220 -124 395 -582 851 -1130 1124 -142 71 -322 137 -433
159 -99 20 -248 27 -332 16z"/>
</g>
</svg>
