<?xml version="1.0" encoding="UTF-8" standalone="no"?>
<svg width="799px" height="2288px" viewBox="0 0 799 2288" version="1.1" xmlns="http://www.w3.org/2000/svg" xmlns:xlink="http://www.w3.org/1999/xlink" xmlns:sketch="http://www.bohemiancoding.com/sketch/ns">
    <!-- Generator: Sketch 3.0.4 (8054) - http://www.bohemiancoding.com/sketch -->
    <title>Slice 2</title>
    <desc>Created with Sketch.</desc>
    <defs></defs>
    <g id="Page-1" stroke="none" stroke-width="1" fill="none" fill-rule="evenodd" sketch:type="MSPage">
        <g id="Group" sketch:type="MSLayerGroup" transform="translate(399.300000, 1144.000000) scale(1, -1) translate(-399.300000, -1144.000000) translate(0.300000, 0.500000)" fill="#000000">
            <path d="M549.2,2276.8 C544.8,2271.5 539.3,2264.7 536.9,2261.9 L532.6,2256.7 L535.1,2250.8 C536.5,2247.5 541,2235 545.2,2222.9 C549.4,2210.9 555.2,2194.2 558.2,2185.9 C568.5,2156.8 571.6,2142.4 572.4,2119 C573,2100.6 571.8,2089.7 566,2064 C551.7,1999.4 506.9,1871.3 454.2,1744 C434,1695.4 428.8,1683.5 412.7,1651 C333.6,1491.3 198.8,1271.6 48.6,1057.9 C24.2,1023.2 5,994.3 2.7,989 C1.7,986.8 0.6,983.4 0.3,981.4 C-0.3,978 -0.1,977.6 3.7,975.1 C5.9,973.7 8.3,972.5 9.2,972.5 C11.5,972.5 30,979.7 40.8,984.7 C99.1,1012 189.5,1088.6 273.5,1181.8 C309.9,1222.3 315.6,1230 381.7,1328.2 L437,1410.5 L440.5,1404.7 C461.2,1370.5 467.9,1336.9 470.7,1253.4 C471.6,1227.3 471.5,1192.7 470.2,1090.6 L468.6,961 L459.2,710 L449.7,459 L436.1,340.5 L422.6,222 L423.6,208.5 C426.6,171.1 437.5,115.9 447.8,85.7 C456,61.8 464.8,47.1 480.1,31.9 C491,21.1 498.6,15.6 511.3,9.5 C540.6,-4.6 568.2,-3.4 583.8,12.6 C602.5,31.8 611.4,73.9 614.7,159 C615.3,174.3 615.7,356.8 615.7,627.9 C615.7,1015.2 615.9,1075.2 617.2,1098.4 C618.5,1120.1 618.7,1145.8 618.5,1238.5 L618.2,1352 L615.3,1360.5 C609.9,1376.5 598.4,1396.3 584.2,1414 C565.1,1437.9 531.8,1470 500,1495.3 C495.4,1498.9 491.7,1502.2 491.7,1502.6 C491.7,1503 497.7,1513.6 505.1,1526.2 C512.5,1538.7 541.2,1591.8 568.9,1644.1 L619.3,1739.2 L682.2,1873.1 C739.4,1995.1 746.4,2009.5 761,2035 C789.3,2084.6 797.7,2102.9 797.7,2114.8 C797.6,2128.3 791.1,2140.8 775.7,2156.8 C763,2170.1 748.8,2182.2 717.6,2206.7 C678.8,2237.1 647.9,2258.3 625.3,2270.1 C603.7,2281.3 591.5,2284.8 568.7,2286 L557.2,2286.5 L549.2,2276.8 L549.2,2276.8 Z" id="Shape" sketch:type="MSShapeGroup"></path>
        </g>
    </g>
</svg>