<?xml version="1.0" encoding="UTF-8" standalone="no"?>
<svg width="1878px" height="1094px" viewBox="0 0 1878 1094" version="1.1" xmlns="http://www.w3.org/2000/svg" xmlns:xlink="http://www.w3.org/1999/xlink" xmlns:sketch="http://www.bohemiancoding.com/sketch/ns">
    <!-- Generator: Sketch 3.0.4 (8054) - http://www.bohemiancoding.com/sketch -->
    <title>Slice 2</title>
    <desc>Created with Sketch.</desc>
    <defs></defs>
    <g id="Page-1" stroke="none" stroke-width="1" fill="none" fill-rule="evenodd" sketch:type="MSPage">
        <g id="Group" sketch:type="MSLayerGroup" transform="translate(939.000000, 547.100000) scale(1, -1) translate(-939.000000, -547.100000) translate(0.500000, 0.600000)" fill="#000000">
            <path d="M1522,1092.5 C1504.3,1091.2 1473.8,1085.7 1461,1081.6 C1444.7,1076.5 1448.7,1077.2 1320,1054.6 L1206,1034.6 L797.5,997.5 C572.8,977.2 380.9,960.1 371,959.6 C322.1,957.2 270.2,964.9 223.5,981.5 C216.8,983.9 196.8,993.3 175.9,1003.8 L139.8,1022.1 L133.9,1020.8 C125.1,1019 117.7,1014.9 110.9,1008.2 C97.1,994.4 93.2,975.2 99.9,954.1 C116.7,901.4 200.4,819.1 258,798.6 C264.9,796.1 269.3,795.2 276.7,794.9 C287.8,794.3 292.5,795 313.5,800.7 C329.5,805.1 351.4,808.8 410.5,817 C492.5,828.5 533.1,833.6 542,833.6 C550.3,833.6 552.1,831.6 557.9,816.2 C567,792.1 583,635.1 577.2,627.2 C576,625.5 557.5,623.2 421.4,607.5 C336.5,597.7 259.6,589.1 250.5,588.5 C232.3,587.3 214.1,587.8 201.3,590.1 C196.7,590.9 184.7,594 174.5,597.1 C139.1,607.8 104.9,617.4 93.4,620 C70.7,625.1 47.7,625.2 34.4,620.4 C26,617.3 18.9,612.5 8.6,603 L0.3,595.3 L0.7,580.2 C1.1,562.9 1.4,561.9 8.7,558.6 C32.3,548 60.3,485 89.4,377.3 C103.3,326 105.4,315.1 123,203 C132.1,145.3 140.3,95.4 141.1,92.1 C147.7,66.5 162.1,40.6 179.4,23.5 C195.4,7.7 209.7,0.7 228.1,-0.2 C241.4,-0.8 250.8,1.8 259.8,8.6 C263.2,11.1 275.4,20.3 286.8,29 C298.3,37.6 309.7,45.6 312.2,46.7 C326.8,53 409.5,71.5 479.3,84.1 C487.2,85.6 552.7,94.1 624.8,103.2 L756,119.6 L967,133.1 L1178,146.5 L1291,147.8 C1353.2,148.5 1409,148.8 1415.2,148.4 C1427.8,147.6 1441.7,144.9 1453.2,141.1 C1467.4,136.4 1482.6,128 1509,110.4 C1546.6,85.3 1552.6,82.6 1569.6,82.6 C1591.2,82.6 1611.9,92.6 1634.1,113.8 C1665.5,143.9 1694,189.8 1723.3,257.6 C1766.1,356.8 1806.5,448.6 1812.6,460.7 C1824.3,484.2 1838.2,509 1848.8,525.6 C1863.3,547.9 1872.2,563.1 1874.6,569.5 C1877.5,577.2 1877.5,588.9 1874.6,597 C1861.6,633.2 1797.1,692.7 1739.7,721.4 C1716,733.2 1699.8,737.7 1687.9,735.5 C1684.7,734.9 1656.1,729.6 1624.5,723.6 C1559.8,711.3 1534.3,706.7 1514,703.7 C1506.3,702.5 1458.2,698.4 1407,694.6 C1355.9,690.8 1305.9,686.9 1296.1,686 C1279.8,684.5 1263.3,684.3 1262.2,685.6 C1262,685.9 1262.6,693.8 1263.6,703.1 C1269.5,758.7 1275.6,803.1 1281.4,832.6 C1283.5,843.3 1286,858 1287,865.2 C1289,880.3 1288.5,885.3 1283.6,899.9 C1282,904.7 1281,908.8 1281.5,909.1 C1281.9,909.3 1286,910.6 1290.6,911.8 L1299,914 L1468.5,914.6 C1624.9,915.1 1638.5,915.3 1644.5,916.9 C1674.6,924.9 1692.9,936.8 1703,955 C1709.6,966.9 1711,973.2 1711,990.6 C1711,1004.3 1710.7,1006.9 1708.7,1012.6 C1695.3,1050.2 1646.4,1077.5 1571,1089.5 C1559.4,1091.3 1535.6,1093.8 1533,1093.4 C1532.5,1093.4 1527.5,1093 1522,1092.5 L1522,1092.5 Z M1095.1,893.1 L1098.1,892.4 L1101.8,875.3 C1103.8,865.8 1106.1,854.1 1106.7,849.1 C1108.5,836.2 1108.2,789.3 1106.2,757.6 C1105.2,743 1104.1,721.6 1103.6,710 C1102.7,686.3 1101.8,683 1095.6,678.9 C1090.8,675.7 1086.7,674.8 1071.5,673.5 C1064.1,672.9 1040.9,670.7 1020,668.5 C870.2,653.1 781.2,645.6 749.3,645.6 L736.5,645.6 L736.5,717.9 C736.5,796.8 736.4,798.5 730.5,819.6 C727.9,829 720.8,851.5 719,855.8 C718.5,857 719.1,857.6 721.2,858 C725.6,858.9 760.4,863.2 804,868.1 C826,870.6 855.7,874 870,875.7 C884.3,877.4 929.3,882.3 970,886.7 L1044,894.5 L1068,894.1 C1081.2,893.9 1093.4,893.4 1095.1,893.1 L1095.1,893.1 Z M1625.3,578.1 C1633.6,575.5 1640.6,571.2 1642.6,567.4 C1646.3,560.4 1636.8,521.1 1614.6,452.1 C1593.1,385.1 1564.4,308.3 1550.5,280.7 L1545.5,270.6 L1532.2,270.6 C1525,270.6 1500.1,271.1 1477,271.6 C1403.9,273.3 1373.7,273 1300.5,269.6 C1263.4,268 1221.4,266.3 1207.2,265.9 L1181.3,265.3 L1181.9,268.7 C1182.2,270.6 1182.7,277.1 1183,283.1 C1183.3,289.2 1185.1,301.6 1187,311.1 C1188.9,320.5 1200.4,378.3 1212.5,439.6 C1224.6,500.9 1235,552.5 1235.5,554.2 C1236.7,557.7 1241.6,562.6 1246.2,565 C1251.7,567.8 1261.4,569.4 1279,570.6 C1288.4,571.2 1303.2,572.3 1312,573.1 C1360.3,577.4 1370.5,577.8 1464,579 C1515.7,579.7 1571.4,580.4 1587.7,580.4 C1616.8,580.6 1617.6,580.5 1625.3,578.1 L1625.3,578.1 Z M1083.6,525.6 C1082.3,507.7 1081.6,503.3 1060,375.6 C1043.5,277.6 1042.4,271.8 1039.3,265.6 C1036.3,259.7 1035.6,259 1031.5,257.9 C1027.6,256.8 751.5,233.6 742.7,233.6 C740.3,233.6 738.3,234.6 735.2,237.6 C728,244.1 728.2,239.3 729.5,386.4 C730.1,457.2 730.9,516.1 731.1,517.3 C731.6,520.1 737.1,523 744.5,524.4 C753.1,526.1 763.5,527 865.4,535.6 C917.9,540 961.8,543.9 962.9,544.1 C967.1,545.1 1046,549.7 1077.5,550.9 L1084,551.1 L1084.3,545.6 C1084.5,542.6 1084.2,533.6 1083.6,525.6 L1083.6,525.6 Z M576.4,506.6 C579.9,506.1 583.1,505.2 583.5,504.6 C585.4,501.5 586.8,476.7 589,402.1 C590.4,357 592.2,300.7 593.1,276.9 C593.9,253.2 594.3,232.1 593.9,229.9 C592.3,220.9 588.5,217.9 575.5,215.3 C566,213.3 292.6,179.2 291.9,179.8 C291.7,180.1 279.6,243.3 265.2,320.2 C242.8,439.3 239.1,460.2 240.4,460.5 C241.3,460.7 312,471.5 397.5,484.6 C563.3,509.9 557.6,509.2 576.4,506.6 L576.4,506.6 Z" id="Shape" sketch:type="MSShapeGroup"></path>
        </g>
    </g>
</svg>