<?xml version="1.0" encoding="UTF-8" standalone="no"?>
<svg width="542px" height="1834px" viewBox="0 0 542 1834" version="1.1" xmlns="http://www.w3.org/2000/svg" xmlns:xlink="http://www.w3.org/1999/xlink" xmlns:sketch="http://www.bohemiancoding.com/sketch/ns">
    <!-- Generator: Sketch 3.0.4 (8054) - http://www.bohemiancoding.com/sketch -->
    <title>Slice 2</title>
    <desc>Created with Sketch.</desc>
    <defs></defs>
    <g id="Page-1" stroke="none" stroke-width="1" fill="none" fill-rule="evenodd" sketch:type="MSPage">
        <g id="Group" sketch:type="MSLayerGroup" transform="translate(270.900000, 916.900000) scale(1, -1) translate(-270.900000, -916.900000) translate(0.400000, 0.400000)" fill="#000000">
            <path d="M106.2,1829.3 C105.8,1827.4 105.1,1822.8 104.6,1819 L103.7,1812.1 L186.6,1705 L269.6,1597.9 L327.2,1513.9 C358.9,1467.7 387.8,1425.4 391.4,1419.9 C408.2,1394.2 432,1380.4 459.6,1380.4 C500.1,1380.4 529.4,1408.6 538.7,1456.6 C545.5,1491.5 539.6,1529.3 521.6,1565.9 C494.3,1621.5 439.7,1674 352.6,1728.1 C321.7,1747.3 257.2,1783.2 224.6,1799.3 C178.6,1822.1 152.4,1830.3 119.2,1832 L106.7,1832.7 L106.2,1829.3 L106.2,1829.3 Z" id="Shape" sketch:type="MSShapeGroup"></path>
            <path d="M499.2,901.2 C487.6,882.4 450.4,812.1 380.3,676.4 L294.9,510.9 L233.8,405.1 C196.9,341.2 170.6,296.6 167.3,292.6 C156.9,279.7 139.6,267.7 121.3,260.5 C102.2,253.1 105,252.9 80.4,262.8 C47.1,276.2 39.2,277.6 27,272 C16.6,267.2 6.2,253.4 2.2,239.4 C-4,217.1 2.9,191.4 23.8,159.9 C41.5,133 98.8,61.3 119.5,40.2 C146.1,12.8 162.9,2.8 186,0.3 C226.1,-4 247.2,17.9 277.9,95.4 C282.6,107.2 319.8,201.3 360.6,304.4 L434.9,491.9 L469.6,605.4 C488.7,667.8 504.8,721.4 505.4,724.4 C506,727.4 506.7,735.1 507,741.4 C507.6,752.1 509,762 518.1,819.7 C523.6,853.7 523.8,868.6 519,889.4 L517.5,896 L510,899.7 C505.9,901.7 502.1,903.4 501.6,903.4 C501.1,903.4 500,902.4 499.2,901.2 L499.2,901.2 Z" id="Shape" sketch:type="MSShapeGroup"></path>
        </g>
    </g>
</svg>