<?xml version="1.0" encoding="UTF-8" standalone="no"?>
<svg width="1682px" height="2098px" viewBox="0 0 1682 2098" version="1.1" xmlns="http://www.w3.org/2000/svg" xmlns:xlink="http://www.w3.org/1999/xlink" xmlns:sketch="http://www.bohemiancoding.com/sketch/ns">
    <!-- Generator: Sketch 3.0.4 (8053) - http://www.bohemiancoding.com/sketch -->
    <title>Untitled 5</title>
    <desc>Created with Sketch.</desc>
    <defs></defs>
    <g id="Page-1" stroke="none" stroke-width="1" fill="none" fill-rule="evenodd" sketch:type="MSPage">
        <g id="no" sketch:type="MSLayerGroup" transform="translate(0.000000, 210.000000)" fill="#000000">
            <g id="Page-1" sketch:type="MSShapeGroup">
                <g id="Group" transform="translate(839.500000, 943.700000) scale(1, -1) translate(-839.500000, -943.700000) translate(0.000000, -0.300000)">
                    <path d="M1400.8,1859 C1402.1,1838.2 1388.1,1794.7 1358.1,1727.3 C1322.1,1646.1 1250,1502.5 1157.7,1328.2 C1081.9,1185 1011,1069 923.1,944.7 C845.2,834.5 748.7,715.2 662.6,622.7 C540.7,491.7 434,387.1 339.5,306.1 C266.2,243.2 197.6,190.6 69,98.9 C35.6,75.1 10,53.4 3,42.9 C3.68059749e-13,38.5 -0.2,37.8 0.2,30.7 C1.2,14.2 10.2,3.9 26.8,0.7 C41.9,-2.3 59.7,2.9 108.5,24.4 C130.3,34 187,62.1 206.5,73 C214.8,77.6 265.9,109.8 320.2,144.5 L419,207.6 L490.7,264.4 C530.2,295.6 572.6,329.5 585,339.6 C724.1,453.4 815.9,547.3 942.1,704.7 C968.2,737.2 1009.9,790.9 1031.1,819.2 C1045.8,838.7 1123.5,944.5 1143,971.5 C1147.1,977.1 1150.8,981.6 1151.2,981.5 C1152.6,981 1221.2,1105.9 1221.2,1105.9 L1227.5,1115.6 C1270.2,1181.7 1375.5,1367.6 1579.9,1738.1 C1602.1,1778.1 1620.9,1812.2 1621.8,1813.7 C1622.8,1815.2 1630.6,1824.3 1639.2,1833.8 C1666.2,1863.9 1675.3,1875.6 1679.1,1885.6 C1682.2,1893.6 1399.8,1874.7 1400.8,1859 Z" id="Shape"></path>
                </g>
            </g>
        </g>
    </g>
</svg>