<?xml version="1.0" encoding="UTF-8" standalone="no"?>
<svg width="1288px" height="2431px" viewBox="0 0 1288 2431" version="1.1" xmlns="http://www.w3.org/2000/svg" xmlns:xlink="http://www.w3.org/1999/xlink" xmlns:sketch="http://www.bohemiancoding.com/sketch/ns">
    <!-- Generator: Sketch 3.0.4 (8054) - http://www.bohemiancoding.com/sketch -->
    <title>nogihen 2</title>
    <desc>Created with Sketch.</desc>
    <defs></defs>
    <g id="Page-1" stroke="none" stroke-width="1" fill="none" fill-rule="evenodd" sketch:type="MSPage">
        <g id="Group" sketch:type="MSLayerGroup" transform="translate(643.600000, 1215.200000) scale(1, -1) translate(-643.600000, -1215.200000) translate(0.100000, 0.200000)" fill="#000000">
            <path d="M945.4,2427.7 C939.4,2426.4 931.7,2424.8 928.4,2424 L922.4,2422.7 L922.1,2417.7 C921.6,2410.8 923.6,2385.7 925.5,2374.2 C926.4,2369 928.6,2360.8 930.5,2356 C932.3,2351.3 935.9,2340.5 938.5,2332.2 C943.9,2314.5 943.9,2311.5 939,2301.9 C927.6,2279.7 884.8,2241.4 841.6,2214.8 C835.7,2211.1 792.1,2187.5 744.6,2162.3 C697.2,2137.1 656.7,2115.4 654.7,2114 C652.6,2112.6 649.3,2111.1 647.2,2110.7 C639.1,2109.2 616,2098.9 533.4,2060 C428.2,2010.3 411.4,2003 377.4,1991.8 C363.7,1987.3 315,1971.5 269.3,1956.7 L186.2,1929.7 L183.5,1918.8 C182.1,1912.8 181,1907.8 181.1,1907.6 C181.7,1907.1 210.3,1901.4 220.9,1899.7 C234.8,1897.4 292.3,1896.5 312.4,1898.1 C348,1901.1 411.5,1910.6 433.3,1916.1 C439.4,1917.7 487.8,1928.3 540.8,1939.8 L637.1,1960.6 L644.5,1956.8 C653.2,1952.3 663.8,1942.8 671.8,1932.3 C681.9,1919.1 708.6,1878.1 713.2,1868.7 C725.1,1844.6 731.3,1815.8 733.9,1771.7 C735.2,1749 735.2,1693.2 733.8,1647.7 C732.5,1604.9 734.3,1610.4 718.9,1602.3 C704.5,1594.8 691.4,1590.9 653.8,1582.8 C543.1,1558.9 500.9,1549.1 347.4,1512.2 C308.2,1502.7 269.3,1494.5 235.9,1488.5 C222.6,1486.2 217.7,1485.8 200.9,1485.7 C178.7,1485.7 168.9,1487 143.6,1493.3 C129.1,1497 126.1,1498.2 105.9,1508.2 C68.1,1526.9 58.2,1529.8 48.4,1525.3 C35.4,1519.4 29.7,1504.5 29.5,1476.2 C29.5,1463 29.8,1459.4 31.8,1451.7 C38.7,1425.3 54.1,1400.9 80.9,1374.1 C96.5,1358.5 108,1348.9 125.4,1337 C159.1,1313.8 191.6,1300.2 212.9,1300.2 C226.1,1300.2 237,1303.5 260.9,1314.6 C275.6,1321.3 306.8,1333.5 370.3,1357.2 L459.2,1390.4 L571.3,1424.4 C633,1443 684.2,1458.5 685.1,1458.8 C686.5,1459.2 685.7,1456 681,1442 C599.9,1203.1 447.9,962.1 223,715.7 C178.1,666.5 116.5,603.6 35.8,524.7 C5.6,495.1 0.8,489.3 0.1,480.9 C-0.7,471.1 3.5,462.5 10.6,459.6 C24.2,453.9 51.8,465.5 98.4,496.5 C123.1,513 134.8,522 218.9,588.7 C284.9,641 305.8,658.2 335.1,684.3 L370.8,716 L450.5,802.4 C524,881.9 534,893.1 577.2,945 L624.2,1001.4 L675.6,1076.4 L726.9,1151.5 L726.9,1069.6 C726.9,1000.3 726.3,964.4 722.9,836.2 L718.9,684.7 L710.9,562.7 C704.3,462.1 700.9,417.8 691.5,310.2 C685.1,238.4 679.5,175.4 678.8,170.2 C677.4,157.8 678.9,148.9 686.3,125.2 C690.4,112.2 693.9,103.7 699.7,92.2 C704,83.7 711.2,67.3 715.8,55.7 C725.2,31.7 724.3,32.8 742.4,20.7 C769.5,2.6 789.4,-3.7 802.2,2 C821.3,10.5 839.1,45 851.9,98.6 C858.6,126.6 859.9,139.6 861.9,203.2 C865.6,319.9 866.7,383.1 868.4,570.2 C873.4,1115.9 874.8,1257.4 875.2,1257.9 C876.2,1258.8 903,1235.2 917.4,1220.7 C942.7,1195.4 961.2,1173.2 1061.1,1048.2 C1128.3,964.2 1140.4,949.9 1152.1,940.7 C1166,929.7 1175.4,926.7 1194,927.4 C1205.1,927.8 1206.1,928 1213.2,931.5 C1235.2,942.4 1244.9,968.7 1244.9,1017.3 C1244.9,1026.6 1244.4,1038.6 1243.9,1044 C1238.6,1093 1217.6,1135 1178.4,1174.8 C1163.6,1189.8 1152.9,1198.9 1130.4,1215.7 C1045.3,1279.2 977.5,1319.5 900.4,1352.6 L878.4,1362 L877.8,1368.4 C877.4,1371.8 876.8,1391.1 876.4,1411.2 C875.7,1447 876.2,1461.3 879.1,1492.3 L880.2,1505 L887.4,1507.1 C892.8,1508.6 1012.2,1541.2 1095.4,1563.8 C1103.9,1566.1 1136.6,1571.8 1180.9,1578.7 C1204.3,1582.3 1228.3,1586.4 1234.3,1587.7 C1261.2,1593.7 1277.5,1608 1285.1,1632.2 C1287.1,1638.7 1287.4,1641.7 1287.3,1654.7 C1287.3,1668 1287,1670.5 1284.7,1677.4 C1276.9,1700.8 1258.8,1719.3 1229.4,1734 C1215.1,1741.1 1193.1,1747.8 1176,1750.3 C1156,1753.1 1142.9,1749.1 1077.4,1720.2 C1038.8,1703.2 1028.5,1699 1001.9,1690 C977.6,1681.8 885.6,1653.2 883.5,1653.2 C882.5,1653.2 882.8,1706.1 883.9,1719.7 C885.2,1735.5 887.5,1747.6 898.3,1795.6 C910,1847.5 911.1,1855.8 908.9,1875 C905.4,1905.9 891.6,1927.1 860.9,1948.7 C844.6,1960.1 816.5,1975.5 774.3,1996.1 C762.9,2001.7 753.8,2006.4 754,2006.6 C754.2,2006.8 840.6,2046.3 945.9,2094.2 C1051.2,2142.2 1139.8,2182.5 1142.8,2183.9 C1150.7,2187.7 1159.9,2197.3 1164.4,2206.5 C1169.4,2217.1 1171.2,2226.4 1170.5,2238.2 C1168.6,2269.1 1155.5,2288.9 1108.9,2331.6 C1099.8,2339.9 1083.4,2355.2 1072.4,2365.7 C1025.2,2410.5 1008.5,2422.8 987.5,2428.2 C976.4,2431 960.1,2430.8 945.4,2427.7 L945.4,2427.7 Z" id="Shape" sketch:type="MSShapeGroup"></path>
        </g>
    </g>
</svg>