<?xml version="1.0" encoding="UTF-8" standalone="no"?>
<svg width="1431px" height="561px" viewBox="0 0 1431 561" version="1.1" xmlns="http://www.w3.org/2000/svg" xmlns:xlink="http://www.w3.org/1999/xlink" xmlns:sketch="http://www.bohemiancoding.com/sketch/ns">
    <!-- Generator: Sketch 3.0.4 (8054) - http://www.bohemiancoding.com/sketch -->
    <title>Slice 2</title>
    <desc>Created with Sketch.</desc>
    <defs></defs>
    <g id="Page-1" stroke="none" stroke-width="1" fill="none" fill-rule="evenodd" sketch:type="MSPage">
        <g id="Group" sketch:type="MSLayerGroup" transform="translate(715.500000, 280.000000) scale(1, -1) translate(-715.500000, -280.000000) translate(0.000000, 0.000000)" fill="#000000">
            <path d="M1153,558.9 C1146,556.9 1136.2,552.9 1125,547.3 L1113.5,541.5 L1112.3,532 C1110.6,517.8 1110.8,507.5 1113,494.9 C1119.4,458.4 1119.4,458.9 1118.3,451.2 C1115.1,428.8 1096.6,410 1053.9,385.4 C1037.9,376.2 993.1,353.9 966,341.6 C831.6,280.7 613.9,204.6 362.5,130.5 C240.6,94.6 123.4,63.3 84.3,56.1 C78.1,54.9 67.9,53.1 61.8,52 C44.7,48.9 28.4,44.3 19.3,40 C4.9,33.3 0,28.1 0,19.5 C0,15.2 0.4,14.3 4.3,10.5 C12.5,2.3 28.6,-0.6 61.5,0.3 C154.4,3 342.6,28.1 522.5,62 C664.7,88.8 793.1,118.7 907.3,151.5 C954.2,164.9 976.8,172.2 1061,201.1 C1156.3,233.6 1247.4,264 1281,274.4 C1294.5,278.6 1321.5,286 1341,290.9 C1360.5,295.8 1380.8,301.3 1386,303 C1420.4,314.5 1431.4,328.1 1431.4,359 C1431.4,368.2 1431,372 1429.1,378 C1426.2,387.5 1421.5,396.6 1414.8,405.5 C1409.6,412.3 1408,413.5 1351.2,451.5 C1319.1,473 1286.2,495.3 1278.2,501.1 C1257.5,516.1 1225.3,537.6 1213.3,544.4 C1201.2,551.2 1188.8,556.6 1180.5,558.6 C1173.8,560.1 1158.3,560.3 1153,558.9 L1153,558.9 Z" id="Shape" sketch:type="MSShapeGroup"></path>
        </g>
    </g>
</svg>