<?xml version="1.0" encoding="UTF-8" standalone="no"?>
<svg width="2327px" height="1277px" viewBox="0 0 2327 1277" version="1.1" xmlns="http://www.w3.org/2000/svg" xmlns:xlink="http://www.w3.org/1999/xlink" xmlns:sketch="http://www.bohemiancoding.com/sketch/ns">
    <!-- Generator: Sketch 3.0.4 (8053) - http://www.bohemiancoding.com/sketch -->
    <title>Group</title>
    <desc>Created with Sketch.</desc>
    <defs></defs>
    <g id="Page-1" stroke="none" stroke-width="1" fill="none" fill-rule="evenodd" sketch:type="MSPage">
        <g id="Group" sketch:type="MSLayerGroup" transform="translate(1163.500000, 638.000000) scale(1, -1) translate(-1163.500000, -638.000000) translate(-0.000000, 0.000000)" fill="#000000">
            <path d="M745.201091,1242.42562 C740.067588,1229.75522 751.273436,1216.63068 755.073741,1208.23234 C761.674271,1193.93517 764.174472,1183.03732 764.27448,1166.64057 C764.474496,1138.34616 755.673789,1113.65105 730.671781,1072.05928 C707.169893,1033.06699 628.563579,926.887992 580.859748,869.699304 C558.057916,842.404703 548.457145,832.10674 495.252872,777.217597 C384.243955,662.840222 339.640373,622.548192 246.832918,552.761996 C205.129569,521.368206 107.621737,449.682386 99.8211101,444.783355 C96.2208209,442.48381 81.6196481,433.885511 67.3184994,425.787113 C25.0151015,401.691879 11.4140091,392.893619 3.81339859,384.695241 C-0.186922726,380.296111 -0.386938791,379.89619 0.313117438,375.497061 C1.21318973,369.298287 2.91332629,366.1989 7.8137199,362.099711 C13.4141697,357.20068 20.314724,355.201075 33.3157683,354.601194 C47.1168768,353.901332 58.7178086,355.800957 73.5189974,361.199889 C92.1204915,367.898564 278.435457,451.28207 289.336332,457.780784 C318.93871,475.377304 378.043457,516.269215 473.851153,585.255569 C528.955579,624.847737 604.161619,689.634922 683.567997,765.919832 C697.069082,778.917261 704.26966,785.116035 705.069724,784.616134 C707.669933,783.01645 991.392722,585.055608 992.392803,584.155786 C994.392963,582.156182 977.491606,567.359109 924.087316,524.267633 C884.884167,492.473922 870.182987,481.476097 843.380834,463.379677 C758.974054,406.49093 664.366455,354.201273 468.850751,256.520595 L383.343883,213.729059 L195.628805,147.342191 L8.01373596,80.8553428 L6.81363957,73.1568656 C6.11358334,68.857716 5.81355924,64.7585269 6.11358334,64.0586653 C6.6136235,62.6589422 20.6147481,52.7609001 29.8154871,47.361968 C36.4160173,43.4627393 46.4168205,39.5635106 53.2173668,38.2637677 C60.9179853,36.7640644 86.7200578,37.1639853 102.921359,38.8636491 C203.0294,49.7614934 380.843682,91.253286 498.853161,131.245375 C554.057595,149.841697 560.158085,152.541163 694.868905,215.528703 L798.377219,264.019112 L880.68383,313.209382 L962.990441,362.399651 L1050.49747,427.386796 L1138.10451,492.473922 C1146.90521,486.675069 1156.20596,479.876414 1164.40662,473.77762 C1172.70729,467.578846 1238.31256,422.587746 1310.31834,373.797397 L1441.12885,285.214919 L1659.84641,151.641341 C1780.05607,78.1558768 1881.76424,16.4680791 1885.86457,14.5684548 C1910.06651,3.37066983 1964.97092,-2.828104 2009.97454,0.771184031 C2059.87854,4.77039296 2124.68375,11.6690284 2171.48751,17.9677824 C2194.18933,20.9671891 2212.09077,23.8666156 2261.89477,32.4649148 C2292.1972,37.6638864 2310.49867,45.1624031 2320.59949,56.6601288 C2324.69982,61.2592191 2327,66.7581314 2327,71.8571227 C2327,73.8567272 2325.7999,75.7563514 2323.09969,78.255857 C2304.39818,95.5524356 2188.68889,147.542152 2036.47666,207.130365 C2016.67507,214.928822 1949.16965,241.223621 1886.46462,265.618795 C1784.1564,305.510904 1760.35449,315.208986 1655.24604,360.200086 C1590.74086,387.694648 1536.73652,410.89006 1535.2364,411.689901 C1533.73628,412.389763 1466.7309,450.982129 1386.42445,497.172992 C1255.0139,572.958001 1232.91212,586.155391 1232.91212,589.254778 C1232.91212,589.654699 1242.91292,598.652919 1255.1139,609.350803 C1270.21512,622.548192 1291.31681,642.844178 1320.91919,672.738264 C1344.92112,696.933478 1403.42582,756.02179 1450.92963,804.112278 C1512.83461,866.599917 1540.73685,893.994498 1548.9375,900.593193 C1564.43875,912.990741 1591.84095,933.986587 1605.94208,944.18457 C1630.84408,962.280991 1650.34565,979.97749 1655.24604,988.97571 C1660.74649,999.173693 1662.34661,1011.97116 1659.34637,1022.26912 C1654.04595,1040.66549 1633.24428,1068.85991 1601.94176,1100.2537 C1561.63853,1140.74569 1526.33569,1165.14086 1508.13423,1165.14086 C1501.33368,1165.14086 1482.63218,1160.64175 1453.92987,1152.14343 C1432.62816,1145.84468 1280.31593,1110.25172 1255.41393,1105.85259 C1184.00819,1092.95514 1069.79902,1079.55779 1022.39521,1078.45801 C996.793156,1077.85813 993.892923,1078.15807 979.29175,1082.75716 L971.291108,1085.25667 C976.091493,1099.45386 976.491525,1107.05235 974.491365,1113.35111 C968.190859,1132.54731 949.789381,1159.34201 927.287573,1181.6376 C906.185878,1202.63345 883.484055,1219.43012 845.08097,1242.42558 C816.078641,1259.82213 808.738018,1277.42889 782.375934,1275.61901 C756.013849,1273.80914 750.334593,1255.09601 745.201091,1242.42562 Z M1376,985.199717 C1376,983.199088 1348.29488,942.986442 1330.29156,918.978893 C1253.17731,816.146556 1161.16031,714.514596 1108.0505,673.701762 L1100.74915,668.1 L1097.54856,670.000598 C1053.64045,696.508934 1025.43524,714.11447 939.419348,769.131771 C873.407153,811.345046 820.997471,844.255395 799.39348,857.159453 C791.692057,861.660868 784.790782,865.962221 784.090653,866.662441 C782.99045,867.562724 791.592039,876.265461 827.098598,910.376187 C851.503107,933.783548 877.007818,958.591349 883.809075,965.49352 L896.111347,978.097483 L905.913158,970.695156 C932.218018,950.788896 945.920549,944.18682 961.423413,944.18682 C969.524909,944.18682 992.329122,946.987701 1019.43413,951.289053 C1032.03646,953.389714 1093.94789,959.691696 1202.96803,970.194998 C1293.48476,978.897735 1369.39878,985.999969 1371.79922,986.1 C1374.09965,986.1 1376,985.799906 1376,985.199717 L1376,985.199717 Z" id="Shape" sketch:type="MSShapeGroup"></path>
        </g>
    </g>
</svg>