<?xml version="1.0" encoding="UTF-8" standalone="no"?>
<svg width="2397px" height="2356px" viewBox="0 0 2397 2356" version="1.1" xmlns="http://www.w3.org/2000/svg" xmlns:xlink="http://www.w3.org/1999/xlink" xmlns:sketch="http://www.bohemiancoding.com/sketch/ns">
    <!-- Generator: Sketch 3.0.4 (8053) - http://www.bohemiancoding.com/sketch -->
    <title>Untitled 4</title>
    <desc>Created with Sketch.</desc>
    <defs></defs>
    <g id="Page-1" stroke="none" stroke-width="1" fill="none" fill-rule="evenodd" sketch:type="MSPage">
        <g id="Group" sketch:type="MSLayerGroup" transform="translate(1198.500000, 986.000000) scale(1, -1) translate(-1198.500000, -986.000000) translate(1.000000, 0.000000)" fill="#000000">
            <path d="M986.4,1952.2 C973.6,1941.9 967,1930.4 967,1918.5 C967,1906.1 973.9,1895.7 1000.7,1867.9 C1010.1,1858.2 1019.7,1847.2 1022.2,1843.4 C1041.4,1814.4 1055,1771.9 1056.7,1735.5 C1057.2,1723.9 1052.3,1513.9 1051.4,1513.1 C1050.5,1512.2 1000.8,1505.1 963.9,1500.5 C909.6,1493.9 865.1,1489.8 811,1486.4 C777.2,1484.3 690.1,1483.4 673.3,1484.9 C636.7,1488.4 613.9,1495.3 572.1,1515.4 C556.9,1522.8 539.1,1531 532.5,1533.6 C521.1,1538.3 520.1,1538.5 511,1538.5 C502.2,1538.5 501,1538.3 494.6,1535.1 C481,1528.2 471.2,1515.2 469,1500.8 C466.5,1484.8 473.9,1461.9 487.7,1442.3 C494.6,1432.5 500.6,1426.1 515.6,1412.4 C567,1365.6 607.6,1337.5 639.2,1326.8 C646.6,1324.3 650.7,1323.6 659,1323.2 C671.4,1322.7 679.6,1323.8 724.5,1332.1 C750.2,1336.9 783,1341.4 891.9,1355.5 C966.3,1365.1 1029.3,1373 1031.9,1373 C1034.4,1373 1040,1372.5 1044.2,1371.8 L1051.9,1370.7 L1053.7,1361.1 C1055,1354.3 1055.5,1346.8 1055.5,1335.5 C1055.5,1321.8 1044.3,1076.9 1043.6,1076.3 C1043.5,1076.2 1015.8,1074.2 982,1072 L920.6,1068 L665.5,1038.9 L410.5,1009.8 L393.5,1010.4 C354.9,1011.7 296.7,1016.6 272.9,1020.5 C207.2,1031.3 169.1,1048.9 124,1089.3 C119.3,1093.5 115,1097 114.4,1097 C112.7,1097 96.2,1083.5 87.2,1074.6 C68.8,1056.7 61,1040.3 61,1020.1 C61,1009.3 63,1000.9 67.9,990.6 C78.6,968.1 99.6,946 153,901.3 C199.9,861.9 228.4,843.9 255.5,836.3 C267.8,832.9 292.7,832 311,834.4 C345.7,838.9 401.7,848.8 508,869 C655.3,897 804.9,919.2 1003,942.4 C1099,953.7 1278,971.8 1282.6,970.8 C1284.1,970.4 1170.6,855.6 1147.5,834.3 C968.2,668.3 831.8,559.8 621.5,415.8 C372.2,245.2 246.4,166.9 95.3,88.4 C26.6,52.7 5.4,40.4 1.8,34.2 C-0.5,30.4 -0.7,18.2 1.5,14.1 C3.7,9.7 10.4,4.5 16.3,2.5 C19.8,1.3 25.7,0.6 34.7,0.2 C49.5,-0.3 56.8,0.9 82.4,8.1 C125.6,20.3 216.9,54 275,79.2 C286.9,84.4 347.5,115 431,158 L567.5,228.3 L677,295 L786.6,361.8 L901,440.7 C964,484.1 1016,519.9 1016.7,520.3 C1018.3,521.3 1158,636.4 1158,636.8 C1158,638.1 1168.3,647.7 1196.5,673 C1210.3,685.3 1225.2,698.9 1229.7,703.1 C1244.6,717 1311.2,773.7 1324.2,783.5 C1327.5,786 1365.3,823.6 1408.2,867.2 C1509.9,970.7 1511.5,972.2 1517.5,975.2 C1530.5,981.8 1546.6,984.5 1583,985.9 C1595.9,986.4 1679.5,989.9 1768.7,993.7 L1930.9,1000.5 L2076.2,996.7 C2228.2,992.7 2226.3,992.8 2280,986.4 C2318.8,981.7 2337.9,981.3 2348.4,984.8 C2368,991.4 2381.1,1002.6 2389.1,1019.5 C2393.8,1029.5 2395.3,1036.9 2395.3,1049 C2395.3,1056.9 2394.8,1059.9 2392.3,1067.2 C2385.4,1087 2367.2,1107.1 2339,1126 C2307.9,1146.8 2259.5,1168.1 2219.5,1178.5 C2183.8,1187.8 2184.6,1187.9 2102,1171.5 C2019.6,1155.2 1955.8,1144.9 1912,1141 C1901.9,1140.1 1669.9,1129 1669.3,1129.4 C1669.2,1129.4 1686.3,1147.7 1707.1,1170 L1745.1,1210.5 L1878.3,1376 C1951.5,1467 2014.8,1545 2019,1549.4 C2023.1,1553.7 2037.6,1567.6 2051.2,1580.2 C2090,1616.1 2097,1626.5 2097,1648.2 C2097,1669.9 2081,1697.4 2049.1,1730.3 C2002.4,1778.6 1939.6,1818.6 1898,1826.4 C1863.1,1833.1 1829.6,1815.5 1827.3,1789.3 C1826.8,1783.9 1827.4,1781.9 1834.9,1761 C1845.9,1730.9 1847.4,1724.3 1847.4,1706 C1847.5,1689.9 1846,1682.6 1838.4,1662.3 C1824.4,1624.7 1791.1,1568 1745,1503.4 L1733.5,1487.3 L1732.9,1498.4 C1732.2,1511.2 1730.1,1517.7 1723.5,1528 C1706.6,1554.1 1666.2,1575.3 1611.1,1587 C1592.5,1591 1575.8,1593.1 1562,1593.2 C1547.7,1593.3 1537.1,1591 1475,1574.4 C1407.7,1556.5 1400.8,1555.1 1344,1548.1 C1317.9,1544.8 1231.9,1535 1229.6,1535 C1228.5,1535 1229,1545.6 1233,1597.8 C1235.2,1626.8 1237.6,1661.1 1238.4,1674 C1239.6,1691.9 1241.4,1706.9 1245.9,1737 C1252.8,1782.4 1256.6,1810.4 1257.5,1824 C1258.1,1832.2 1257.9,1834.4 1256.1,1839.7 C1242.9,1878.8 1162.9,1939.1 1093.2,1962.6 C1071.1,1970 1046.1,1973.4 1030.5,1971 C1015.2,1968.6 997.4,1961 986.4,1952.2 Z M1644.5,1365.8 L1587.9,1289.5 L1508.7,1204.2 C1465.1,1157.3 1428.6,1117.7 1427.4,1116.4 L1425.3,1113.9 L1315.4,1104.6 C1255,1099.5 1205.4,1095.4 1205.2,1095.5 C1205,1095.7 1205.4,1101.3 1205.9,1108.1 C1207.4,1125.3 1209.3,1166.9 1214,1278 C1216.1,1330.5 1218.1,1376 1218.4,1379.1 C1218.9,1385.9 1220.3,1388.4 1225,1390.4 C1230.2,1392.6 1232.3,1392.9 1251.7,1394.5 C1268.8,1396 1297.1,1400 1318.1,1404 C1325.5,1405.4 1372,1408.6 1499.3,1416.5 L1670.5,1427.2 L1685.5,1435 C1693.7,1439.3 1700.7,1442.7 1700.8,1442.5 C1701,1442.3 1675.7,1407.8 1644.5,1365.8 L1644.5,1365.8 Z" id="Shape" sketch:type="MSShapeGroup"></path>
        </g>
    </g>
</svg>