<?xml version="1.0" encoding="UTF-8" standalone="no"?>
<svg width="1158px" height="2043px" viewBox="0 0 1158 2043" version="1.1" xmlns="http://www.w3.org/2000/svg" xmlns:xlink="http://www.w3.org/1999/xlink" xmlns:sketch="http://www.bohemiancoding.com/sketch/ns">
    <!-- Generator: Sketch 3.0.4 (8054) - http://www.bohemiancoding.com/sketch -->
    <title>Slice 2</title>
    <desc>Created with Sketch.</desc>
    <defs></defs>
    <g id="Page-1" stroke="none" stroke-width="1" fill="none" fill-rule="evenodd" sketch:type="MSPage">
        <g id="Group" sketch:type="MSLayerGroup" transform="translate(579.000000, 1021.000000) scale(1, -1) translate(-579.000000, -1021.000000) translate(0.500000, 0.000000)" fill="#000000">
            <path d="M493.7,2041 C480.9,2038.6 470.6,2033.2 462.9,2024.7 C458.4,2019.7 450.7,2005.2 448.5,1997.5 L447.3,1993.4 L463.1,1966 C493.1,1913.6 501.2,1895.5 506.3,1869.5 C507.7,1861.9 508,1854.7 507.9,1823 C507.9,1760.3 506.9,1752.3 481,1595.3 C461.7,1478 459.6,1466.4 442,1379.9 C431.8,1329.6 422.9,1286.7 422.3,1284.5 C421.8,1282.3 418.9,1269.3 415.9,1255.6 C413,1242 410.4,1230.5 410.1,1230.2 C409.1,1229.2 326.6,1206.5 291,1197.5 C212.1,1177.4 165.4,1170.7 137.9,1175.5 C124.1,1177.9 113,1182.1 86.5,1195 C55.7,1209.8 51.4,1211.3 41.5,1210.8 C35.6,1210.4 32.8,1209.7 28.6,1207.5 C17.7,1201.5 7.4,1187.3 2.3,1171 C0.4,1164.9 0,1161.3 0,1151.5 C0,1137.6 1.4,1129.4 6.2,1115.5 C21.6,1070.8 68.4,1021.1 119,995.5 C135.3,987.3 142.9,984.9 154.6,984.3 C171.7,983.4 173.9,984.2 269,1026 C324.5,1050.4 374.4,1071.4 375.1,1070.7 C376,1069.9 365.4,1024.4 363,1018.6 C362.3,1016.9 350,973 335.6,921 C310.9,831.3 304.1,808.6 296.4,789 C290.8,774.6 279.4,753.2 268.5,736.5 C255.9,717 249.2,704.6 246.9,696 C244.6,687.7 244.3,659.2 246.4,648 C251,622.4 262.5,602.9 277.2,595.4 C282.7,592.7 283.7,592.5 295,592.5 C302.3,592.5 320.8,594.1 342,596.4 C376.5,600.3 377.2,600.3 392.5,599.2 C433.5,596 466.1,584.4 517.4,554.5 C526.5,549.3 534.1,544.8 534.3,544.5 C536,542.9 472.9,451.7 442.6,412 C387.2,339.3 361.2,310 217.7,157.7 C146.3,81.9 140.8,76.4 130.3,68.8 C107.6,52.7 94,40.4 84.3,27.6 C78.6,20.1 71.5,7.1 71.5,4.4 C71.5,2.4 77.5,0.8 87,0.3 C98.6,-0.4 103.7,1.3 133.7,15.5 C158.8,27.4 177,37.1 199,50.3 C336.3,132.7 479.5,260.5 601.4,409.5 C612.3,422.8 640.7,459 646,466.3 L648,469 L664,455.7 C713.9,414.1 766.9,360 801.6,315 C805.2,310.3 844.1,259.9 888,203 C977.5,87 985.1,77.5 997.6,65.6 C1009.2,54.6 1017.3,50.4 1030,49 C1052.6,46.5 1071.6,52.7 1087.6,67.8 C1103.5,82.7 1114.2,104.7 1118.1,130 C1124,169.8 1108.8,215.7 1070.5,273 C1032.3,330.1 969.4,397.5 896.7,459.3 C846.2,502.2 789.5,543.7 738.7,575.2 C730.6,580.2 723.9,584.4 723.7,584.5 C723.6,584.6 727.4,591.4 732.1,599.6 C764.4,655.5 803.5,735.6 827.1,794 C831.6,805.3 856.2,869 881.8,935.5 C926.4,1051.6 1012.8,1286.9 1020.5,1313.5 C1022.3,1319.6 1025,1330.5 1026.5,1337.9 L1029.2,1351.3 L1046.1,1362 C1098.1,1394.7 1128.3,1418.2 1142.8,1437.3 C1148.3,1444.5 1156.5,1458.4 1156.5,1460.7 C1156.5,1461.3 1152.4,1462.8 1146.9,1464.1 C1138.9,1465.9 1135.5,1466.2 1125.7,1465.7 C1106.7,1464.9 1090,1459.8 1003.4,1428.5 L999.9,1427.2 L990.4,1435.7 C974.8,1449.7 963,1457.2 909.6,1487.4 L880.2,1504 L837.3,1512.1 C813.7,1516.5 794.2,1520 794,1519.8 C793.5,1519.2 796.6,1496.4 798.6,1486.5 C801.9,1470.1 807.5,1458.7 825.5,1432 C837.9,1413.4 839,1410.7 839,1398 C839,1392.2 838.4,1384.3 837.7,1380.4 L836.4,1373.3 L820.7,1368.7 C812.1,1366.1 801.2,1363 796.5,1361.7 C791.8,1360.4 739.4,1342.1 680.1,1321.1 C620.8,1300.1 572.1,1283.1 571.9,1283.2 C571.8,1283.4 573.4,1290.3 575.6,1298.5 C590.1,1353.5 606.8,1422.7 650.5,1608.7 C662.9,1661.5 668.7,1682 690,1746.9 C708.5,1803.6 710.1,1811.1 709.2,1836.9 C708.6,1854 706.9,1862.3 701.5,1875.4 C692,1898.1 674.6,1919.8 621.1,1975.4 C579.8,2018.4 560.4,2033.1 537.8,2039.1 C528.9,2041.5 502.7,2042.6 493.7,2041 L493.7,2041 Z M811.5,1248.6 C811.5,1248.4 806.8,1229.4 801.1,1206.3 C790.9,1165.2 790.1,1162.6 752.2,1047.5 L713.7,930.5 L673.6,830.2 C633.7,730.6 633.4,729.7 614,691 C603.3,669.5 594.3,652 594,652 C592.7,652 520.6,680.3 476.3,698.2 C432.1,716.1 426.5,718.6 425.5,721 C424.7,723 424.8,727.1 425.8,737.1 C427.2,749.8 430,760 479.5,934.5 C508.2,1035.7 532.6,1121.9 533.6,1126 C534.7,1130.1 535.9,1134.6 536.3,1136 C537,1138.2 551.1,1144.2 673.5,1193.7 C748.6,1224 810.3,1248.9 810.8,1248.9 C811.2,1249 811.5,1248.8 811.5,1248.6 L811.5,1248.6 Z" id="Shape" sketch:type="MSShapeGroup"></path>
        </g>
    </g>
</svg>