<?xml version="1.0" encoding="UTF-8" standalone="no"?>
<svg width="2415px" height="2304px" viewBox="0 0 2415 2304" version="1.1" xmlns="http://www.w3.org/2000/svg" xmlns:xlink="http://www.w3.org/1999/xlink" xmlns:sketch="http://www.bohemiancoding.com/sketch/ns">
    <!-- Generator: Sketch 3.0.4 (8054) - http://www.bohemiancoding.com/sketch -->
    <title>Slice 2</title>
    <desc>Created with Sketch.</desc>
    <defs></defs>
    <g id="Page-1" stroke="none" stroke-width="1" fill="none" fill-rule="evenodd" sketch:type="MSPage">
        <g id="Group" sketch:type="MSLayerGroup" transform="translate(1207.700000, 1152.300000) scale(1, -1) translate(-1207.700000, -1152.300000) translate(0.600000, 1.000000)" fill="#000000">
            <path d="M1061.8,2301.2 C1051.8,2298.8 1043.6,2292.1 1038.4,2282.3 L1036.1,2278 L1045.9,2252.6 C1066,2200.1 1073.4,2177.5 1077.3,2157.4 C1085,2117.5 1081.7,2064.9 1066.9,1990.1 C1061.1,1961 1059.4,1955.9 1015.4,1836.1 L971.6,1717.1 L918.4,1590.1 C889.1,1520.3 863.6,1458.2 861.6,1452.1 C858.3,1441.7 843.3,1410.4 838.3,1403.5 C833.9,1397.2 822.4,1394 787.4,1389.1 C777.2,1387.7 722.8,1381.2 666.4,1374.6 C563.9,1362.6 563.9,1362.6 451.4,1354 C348.6,1346.2 337.4,1345.5 321.4,1346.1 C261.5,1348.2 186.4,1359.8 142.8,1373.7 C137.4,1375.4 118.6,1382.6 101.1,1389.8 C53.5,1409.2 43.5,1412 20.9,1412.8 L10,1413.1 L5.7,1401.1 C-1.5,1380.3 -1.5,1381.1 3.4,1366.3 C8.7,1350.5 23.7,1319.8 33.3,1305.4 C42.9,1290.9 49,1284.6 68.4,1269.1 C114.6,1232 169.9,1195.1 207.2,1176.3 C236.5,1161.5 252.4,1156.6 271.4,1156.6 C291.6,1156.6 302.8,1159.4 388.4,1185.6 C436.9,1200.5 444.5,1202.3 495.4,1211 C533.7,1217.6 760.6,1252.7 761.1,1252.2 C762.1,1251.3 756.1,1232.7 751.5,1222.5 C743,1203.5 630.5,990.7 622.9,979.1 C609.3,958.7 588,934.5 568.3,916.9 C542.5,894 536,881.4 533.3,849.8 C531.9,833 532.7,794.2 534.8,779.9 C539.5,748 549.9,728.4 566.3,720.3 C572.3,717.4 573.6,717.1 581.9,717.2 C590.1,717.3 593.4,718 617.4,725.1 C680.5,743.6 684,744.5 703,745.3 C723.2,746.2 749.1,742.9 797.3,733.5 C884.6,716.3 983.8,689.3 1050.9,664.4 C1103,645 1133.2,627.9 1138.8,614.4 L1140.4,610.8 L1136,604.9 C1117.1,579.8 1056.1,518.3 1011.9,479.6 C922.7,401.5 775.1,306.9 648.8,246.8 C615.7,231 620.6,232.9 511.9,193.4 L411.9,156.9 L293.7,121.5 L175.4,86.1 L175.4,77.5 L175.4,68.8 L189.8,65.2 C212.4,59.6 220.4,58.6 243.9,58.6 C288.9,58.6 348.3,65.4 471.7,84.6 L509.9,90.5 L594.4,113.5 C680.5,136.9 689,139.4 721.4,151.8 C868.5,208 999.1,280.9 1133.4,381.9 C1192.3,426.3 1219.3,449.2 1255.4,485.6 C1285.1,515.6 1298.9,527.9 1304,529.2 C1307,530 1309.2,529.1 1320.4,522.4 C1357.7,500.2 1432.7,447.6 1495.9,399.3 C1580.4,334.7 1651.2,273.5 1698.4,224.1 C1706.3,215.9 1745.8,170.4 1786.2,123.1 C1826.6,75.8 1862.5,34.3 1865.8,30.8 C1878.6,17.5 1899.1,4.4 1912.5,1 C1927.7,-2.9 1953.8,4.4 1974.4,18.2 C1983.9,24.6 1996.1,37.6 2000.6,46.2 C2007.7,59.8 2008.9,65.7 2008.9,87.1 C2008.8,107.9 2007.4,119.6 2002.4,139.6 C1988.4,195.3 1954.5,250.2 1901.3,303.7 C1878.4,326.6 1814.5,381.8 1772.4,415.1 C1681,487.3 1590,546.9 1419.9,645.9 C1402,656.3 1392.4,662.7 1392.4,663.9 C1392.5,665.4 1407.8,687.2 1412.3,692.3 C1414.2,694.4 1418.3,700.2 1421.4,705.1 C1424.5,710.1 1435.6,727.6 1446,744.1 C1502,832.5 1509.9,846.8 1577.8,982.6 L1636.1,1099.1 L1682.9,1212.9 L1729.7,1326.6 L1734.8,1328.1 C1749.3,1332.3 1751.5,1332.3 1941.9,1330.6 L2056.9,1329.5 L2127.9,1324.6 C2167,1321.8 2221.4,1318 2248.8,1316.1 C2293.7,1312.9 2300.3,1312.7 2313.8,1313.6 C2341.8,1315.5 2358.1,1319.3 2376.4,1328.3 C2386.3,1333.2 2389,1335.1 2396,1342 C2410,1356 2415,1369.8 2414.1,1392.1 C2413.4,1411.3 2408.8,1421.2 2394.1,1435.3 C2384.2,1444.8 2367.1,1456.3 2339.6,1472 C2287.7,1501.7 2250.1,1516.4 2219.4,1519.1 C2212.7,1519.7 2207.3,1518.9 2169.9,1512.1 C2146.8,1508 2121.4,1503.4 2113.4,1502.1 C2105.4,1500.8 2089.7,1498.1 2078.4,1496.2 C2067.1,1494.3 2053.6,1492.2 2048.4,1491.7 C2043.2,1491.1 1968.7,1487 1882.8,1482.4 L1726.8,1474.2 L1720.8,1476.6 C1716.1,1478.4 1712.6,1481.1 1703.9,1489.5 C1648,1543.4 1588.5,1577.3 1540.6,1582.7 C1504.5,1586.8 1467.1,1570.3 1465.6,1549.6 C1465.2,1544.4 1465.5,1543.7 1470.2,1536.5 C1472.9,1532.4 1479.8,1523.1 1485.6,1516 C1508.2,1488 1515.4,1477.1 1515.4,1470.5 C1515.4,1466.6 1510.5,1461.6 1504.8,1459.8 C1502.7,1459.1 1396.1,1448.4 1267.9,1436 C1036.7,1413.6 1020.3,1412.3 1017.3,1415.3 C1016.6,1416 1021.6,1429.7 1033.4,1459.2 C1049.1,1498.5 1054.5,1510.3 1096.9,1599.1 C1125.2,1658.4 1162.3,1738.4 1192.3,1804.9 C1238.4,1907.2 1242.3,1915.4 1257.3,1941.9 C1296.3,2011.2 1300.4,2021 1300.4,2043.6 C1300.4,2058.4 1296,2072.7 1283.4,2099.1 C1260.2,2147.9 1221.1,2203 1181.9,2242.1 C1158.6,2265.5 1139.2,2280.3 1118.7,2290.5 C1097.7,2301 1076.9,2304.9 1061.8,2301.2 L1061.8,2301.2 Z M1519.9,1318.4 C1519,1313.8 1475.5,1183.4 1470.6,1170.6 C1466.8,1160.6 1391.5,992.2 1380,968.1 C1377,961.8 1367.9,943.9 1359.8,928.4 C1294.9,803.9 1248,733.2 1232.6,737.1 C1231.1,737.4 1214.6,744.1 1195.9,751.8 C1177.2,759.6 1157.2,767.7 1151.4,769.8 C1145.6,772 1134.4,776.3 1126.4,779.3 C1071.7,800.3 1036.7,810 861.7,853.2 L752.4,880.1 L752.4,883.7 C752.4,892.4 759.4,908.4 793.9,978.6 C808.9,1009.1 846,1085.5 876.4,1148.3 C928.7,1256.4 931.8,1262.6 935.5,1265.1 C947.2,1272.8 980,1279.4 1039.4,1286 C1051.8,1287.4 1135.5,1295.3 1225.4,1303.5 L1389,1318.6 L1444.4,1319.9 C1474.9,1320.7 1504.5,1321.4 1510.2,1321.5 L1520.6,1321.6 L1519.9,1318.4 L1519.9,1318.4 Z" id="Shape" sketch:type="MSShapeGroup"></path>
        </g>
    </g>
</svg>