<?xml version="1.0" encoding="UTF-8" standalone="no"?>
<svg width="1986px" height="2140px" viewBox="0 0 1986 2140" version="1.1" xmlns="http://www.w3.org/2000/svg" xmlns:xlink="http://www.w3.org/1999/xlink" xmlns:sketch="http://www.bohemiancoding.com/sketch/ns">
    <!-- Generator: Sketch 3.0.4 (8054) - http://www.bohemiancoding.com/sketch -->
    <title>Slice 2</title>
    <desc>Created with Sketch.</desc>
    <defs></defs>
    <g id="Page-1" stroke="none" stroke-width="1" fill="none" fill-rule="evenodd" sketch:type="MSPage">
        <g id="Group" sketch:type="MSLayerGroup" transform="translate(992.950000, 1070.000000) scale(1, -1) translate(-992.950000, -1070.000000) translate(0.200000, 0.200000)" fill="#000000">
            <path d="M1480.4,2138.2 C1467.6,2135.7 1444.9,2127.6 1385.8,2104.5 C1335.4,2084.8 1310.9,2077.4 1268.3,2068.9 C1236.3,2062.5 1030.3,2040.4 772.7,2015.9 L563.3,1995.9 L442.3,1990.3 C375.8,1987.2 310.5,1984.2 297.4,1983.6 C249.1,1981.4 222.6,1985.2 160.3,2003.3 C141.1,2008.8 135.5,2010.9 116.9,2019.7 C66.1,2043.8 52.2,2048.5 40.9,2045.8 C29.2,2043 21,2033.9 16.7,2018.6 C14.5,2010.9 14.3,2008.6 14.3,1986.8 C14.4,1965.9 14.6,1962.5 16.5,1955.6 C19.5,1944.9 25.2,1934 32.4,1925 C42.3,1912.7 52.7,1904 101.3,1867.7 C159.2,1824.5 177.1,1813.4 199.8,1806.6 C209.4,1803.7 230.1,1803.1 244.3,1805.3 C266.7,1808.7 325.4,1821.3 356.8,1829.3 C369.7,1832.6 382.8,1834.1 649.7,1861.8 C830.2,1880.6 964.9,1895.1 1030.2,1902.8 L1131.3,1914.7 L1241.3,1921.4 C1340.9,1927.4 1352.2,1928 1361.1,1926.9 C1404.4,1921.6 1421.7,1902.2 1415.8,1865.3 C1411.6,1838.4 1397.1,1764.4 1381.8,1690.6 C1376.9,1667.2 1362.5,1605.3 1349.8,1553.1 L1326.8,1458.3 L1319.1,1440.3 C1314.9,1430.4 1311.2,1422 1310.9,1421.6 C1309.9,1420.5 1212.9,1406.1 1191.3,1403.9 C1150.9,1399.8 1093.4,1394.9 949.3,1383.3 C897.6,1379.1 851.7,1375.3 847.3,1374.8 C842.9,1374.3 822.7,1371.9 802.3,1369.4 C635.3,1348.9 447,1328.7 355.8,1321.4 C308.3,1317.6 294.2,1316.8 272.7,1316.8 C243.3,1316.8 234.4,1319 202.9,1333.8 C137,1364.7 105.3,1378.1 89.9,1381.4 C75.3,1384.5 45.8,1382.4 30.7,1377.3 C8.1,1369.6 -1.7,1353.3 0.2,1326.5 C1.3,1310 4.2,1303.7 30.3,1260.3 C48.9,1229.3 50.6,1226.2 54.1,1215.3 C62.5,1189.6 67.6,1155.6 69.9,1110.8 C71.5,1079.1 70.9,1064.3 61.4,902.3 L52.9,758.3 L50.1,638.8 C44.8,409 46.6,341.4 60,275.3 C75.7,197.3 107.7,146.4 170.4,99.1 C225.7,57.5 268.1,38.4 335.4,24.9 C397.9,12.4 476.1,6.2 628.3,1.7 C682.7,0.1 1064,-0.6 1152.3,0.7 C1374.1,4.1 1536,12.6 1691.8,28.9 C1856.3,46.1 1938.7,69.1 1969.1,106.3 C1975.1,113.6 1981.1,125.9 1983.1,135.3 C1986.7,151.6 1986.1,174.9 1981.7,188.1 C1978.4,198.1 1971.4,208.1 1958.6,221.3 C1948.3,232 1944.4,235.2 1929.4,245.2 C1901.4,263.9 1895.7,270.9 1891.2,292.3 C1890,298.4 1887.6,309.4 1885.9,316.8 C1882,334.6 1878.8,355.4 1873.3,399.8 C1868.8,436.8 1843,623.8 1840.2,640.3 C1836.9,659.8 1832.3,673.4 1826.1,681.5 C1824.7,683.3 1821.2,685.9 1818.2,687.4 C1813.6,689.6 1811.8,690 1805.9,689.6 C1800.3,689.3 1798.4,688.8 1795.3,686.4 C1789.7,682.1 1786.2,673.6 1784.8,661.3 C1784.2,655.8 1777.9,606.8 1770.7,552.3 C1763.6,497.9 1756.6,444.5 1755.2,433.8 C1746.8,368.7 1740.2,334.5 1731.3,308.9 C1713.9,259.1 1685.2,232.6 1628.1,213.8 C1576.8,196.9 1481.8,181.3 1384.3,173.8 C1329.5,169.6 1268.6,165.9 1202.8,162.8 C1135.6,159.6 1116.4,158.9 1065.3,157.7 C1017.9,156.6 1015.8,156.6 894.3,160.7 C826.7,162.9 747.5,165.5 718.3,166.3 C552.5,171.1 475.7,176.3 407.2,187.3 C354.9,195.8 319.9,206.3 293.8,221.6 C281.7,228.6 263.3,246.7 253.9,260.7 C229.7,296.5 216.4,346.3 214.3,408.9 C214,419 215.1,498.4 216.7,585.3 L219.7,743.3 L234.1,955.6 C242.1,1072.4 248.8,1168.1 249,1168.3 C249.2,1168.5 292.8,1173.5 345.9,1179.3 C398.9,1185.1 452.9,1191.2 465.8,1192.9 C529.1,1201 590.4,1209.4 610.8,1212.8 C622.9,1214.8 652.3,1217.7 801.8,1231.3 C1047.8,1253.7 1183.4,1264.7 1215.4,1264.9 C1230.3,1264.9 1238.7,1263.6 1291.8,1252.9 C1345.7,1242 1348.9,1241.5 1365.8,1242.1 C1382.3,1242.7 1389.3,1244.2 1401.6,1249.9 C1436.8,1266.2 1458.8,1303.7 1482.4,1387.8 C1484.9,1396.9 1509.9,1496.2 1537.8,1608.6 C1565.8,1721 1590.3,1818.8 1592.3,1825.9 C1600.2,1854.5 1608.2,1873.3 1618,1886.3 C1620.9,1890.2 1631.9,1901.9 1642.4,1912.3 C1663.3,1933.1 1668,1938.8 1673,1949.3 C1676.3,1956.2 1676.3,1956.5 1676.3,1970.3 C1676.2,1986 1675.1,1991.3 1669.1,2003.3 C1659.8,2022.1 1643,2038.7 1593.8,2078.2 C1553.3,2110.7 1523.5,2130.3 1504.4,2137 C1495.5,2140.1 1490.8,2140.3 1480.4,2138.2 L1480.4,2138.2 Z" id="Shape" sketch:type="MSShapeGroup"></path>
        </g>
    </g>
</svg>