<?xml version="1.0" encoding="UTF-8" standalone="no"?>
<svg width="1419px" height="2355px" viewBox="0 0 1419 2355" version="1.1" xmlns="http://www.w3.org/2000/svg" xmlns:xlink="http://www.w3.org/1999/xlink" xmlns:sketch="http://www.bohemiancoding.com/sketch/ns">
    <!-- Generator: Sketch 3.0.4 (8054) - http://www.bohemiancoding.com/sketch -->
    <title>Slice 2</title>
    <desc>Created with Sketch.</desc>
    <defs></defs>
    <g id="Page-1" stroke="none" stroke-width="1" fill="none" fill-rule="evenodd" sketch:type="MSPage">
        <g id="Group" sketch:type="MSLayerGroup" transform="translate(709.100000, 1177.900000) scale(1, -1) translate(-709.100000, -1177.900000) translate(0.100000, 0.900000)" fill="#000000">
            <path d="M844.1,2352.9 C836.5,2351.5 827.2,2348.2 820.9,2344.6 C809.4,2338.1 796.9,2322.4 796.9,2314.5 C796.9,2312.4 799.6,2307.4 806.3,2297.5 C815.2,2284.2 816,2282.7 819.4,2270.9 C828.6,2239.1 828.1,2220 817.4,2191.7 C776.4,2083.5 591,1888.7 391.5,1744.4 L376.5,1733.6 L369,1734.8 C361.3,1736.1 343,1735.2 325.4,1732.8 C289.6,1728 273.7,1717.7 269.9,1697 C269.1,1692.5 269.1,1689.3 269.8,1685.8 C272,1675.8 280.7,1660 293.8,1642.5 C307.4,1624.3 315.9,1609.9 324.5,1590.8 C348,1538.5 360,1476.9 364,1387.9 C365.3,1359 364.6,1222.4 362.9,1174.9 C355.3,961 335,805.7 293.3,642.1 C272.5,560.5 243.6,485.7 197.3,393.9 C146.4,292.8 88.8,200.6 19.2,109 C5.9,91.4 1.2,83.1 0.3,75.3 C-1,64.6 5.3,60.1 20.2,61.2 C44.1,62.9 72.6,80.6 106.1,114.6 C119.7,128.4 251.3,272.8 258.6,281.9 C277.6,305.8 317.2,368.5 347.4,422.4 C360.8,446.4 382.1,489.3 393.3,514.6 C458.8,663.4 498.6,838.1 513.4,1041.4 C515.3,1068.4 517.6,1112.3 523.5,1233.9 C526.1,1288.1 528.3,1332.5 528.4,1332.6 C528.4,1332.7 543.9,1332.2 562.9,1331.4 L597.3,1330 L665.3,1344.4 C702.8,1352.3 735.2,1359.1 737.4,1359.4 C739.6,1359.8 750.4,1362.4 761.4,1365.1 C774.9,1368.4 782.5,1369.9 784.8,1369.5 C804.2,1366.4 844.3,1307.3 858.9,1260.4 C865.2,1239.9 864.7,1250.8 869.2,1063.9 L873.4,892.5 L868.2,691.9 C863.3,502.6 862.7,485.3 857.4,381.4 C851.9,273.9 851.8,270.8 852.9,244.9 C856.9,143.6 867.2,84.3 887.4,47.4 C899.8,24.7 916.4,8 932.7,1.9 C940.7,-1.1 951.2,-0.6 958.8,3.3 C995.9,22.3 1021.7,116 1031,265.4 C1031.9,280.1 1031.9,307.4 1030.9,385.9 C1029.6,487.6 1030,717.6 1031.9,963.4 L1032.7,1066.4 L1036.8,1137.4 C1043.4,1253.2 1043.9,1267.1 1041.8,1290.2 C1039.4,1318.4 1030.8,1337 1012.8,1353.1 C1008.7,1356.7 996.9,1366.4 986.4,1374.4 C968.1,1388.6 951.4,1402.3 950.4,1403.9 C950.1,1404.4 952.3,1405.2 955.1,1405.9 C969.7,1409 1083.3,1428.4 1139.9,1437.4 C1166.5,1441.6 1173.5,1442.3 1245.4,1447.4 C1328.6,1453.3 1340,1454.5 1357.2,1458.8 C1388.1,1466.6 1405.8,1478.6 1414.6,1497.5 C1417,1502.6 1417.4,1505 1417.7,1514.5 C1418.2,1527 1416.9,1533.1 1411.7,1543.3 C1396.8,1572.9 1353.2,1598.9 1294.4,1613.5 C1273.4,1618.7 1255.1,1621.1 1236.9,1621 C1212.1,1621 1194.4,1616.7 1158.7,1601.8 C1138.1,1593.3 1107.1,1582.9 1021.9,1555.9 L958.4,1535.9 L808.4,1502.4 C633.9,1463.4 632.9,1463.2 585.9,1462.3 C561.8,1461.8 559.6,1461.9 545.9,1464.3 C527.8,1467.4 521.8,1468.7 519.9,1469.9 C516.8,1471.8 517.5,1487 522.3,1526.4 C524.8,1546.8 527.3,1568.4 527.8,1574.4 C528.8,1586.3 527.9,1605.7 525.9,1612.9 C521.3,1629.9 508,1643.1 467.1,1671 L454.8,1679.4 L458.1,1680.8 C473.4,1687.5 510.3,1706.5 523,1714.1 C541.4,1725.3 587.5,1756.2 678.4,1818.5 C689.4,1826.1 724.9,1853.7 770,1889.6 L843.5,1948.4 L931.3,2026.9 C979.6,2070.1 1022.1,2107.6 1025.8,2110.2 C1029.4,2112.8 1038.1,2118.6 1045,2123 C1065.4,2135.8 1070.8,2143.5 1071.7,2160.9 C1072.1,2168.6 1071.7,2172 1070,2178.3 C1064.2,2199.4 1045.8,2225.9 1017.2,2254.5 C974.4,2297.1 914.8,2338 877.9,2350.1 C867.4,2353.5 853.9,2354.6 844.1,2352.9 L844.1,2352.9 Z" id="Shape" sketch:type="MSShapeGroup"></path>
        </g>
    </g>
</svg>