<?xml version="1.0" encoding="UTF-8" standalone="no"?>
<svg width="1477px" height="2296px" viewBox="0 0 1477 2296" version="1.1" xmlns="http://www.w3.org/2000/svg" xmlns:xlink="http://www.w3.org/1999/xlink" xmlns:sketch="http://www.bohemiancoding.com/sketch/ns">
    <!-- Generator: Sketch 3.0.4 (8054) - http://www.bohemiancoding.com/sketch -->
    <title>Slice 2</title>
    <desc>Created with Sketch.</desc>
    <defs></defs>
    <g id="Page-1" stroke="none" stroke-width="1" fill="none" fill-rule="evenodd" sketch:type="MSPage">
        <g id="Group" sketch:type="MSLayerGroup" transform="translate(738.100000, 1148.300000) scale(1, -1) translate(-738.100000, -1148.300000) translate(0.100000, 0.800000)" fill="#000000">
            <path d="M1264.4,2295.1 C1244.5,2293.3 1205.4,2284 1164.4,2271.3 C1137.4,2263 1110.1,2255.5 1095.4,2252.4 C1091.5,2251.6 1010.7,2241 915.9,2228.9 L743.4,2206.8 L642.9,2200.3 C523.9,2192.6 508.2,2191.8 466.9,2191.8 C396.3,2191.8 338.9,2197.3 311.2,2206.9 C307.5,2208.1 294.5,2216.1 275.4,2228.7 C243.1,2250.1 227.9,2259.2 215.8,2264.5 C197.8,2272.3 181.5,2266.8 173,2250.1 C169.3,2242.7 167.6,2233.3 167.6,2219.3 C167.6,2187.1 179.4,2156.8 203.6,2126.8 C211.9,2116.6 231.3,2097.8 242.9,2088.8 C274.6,2064.3 318.1,2042.7 343.8,2038.9 C353.6,2037.4 360.1,2038.2 447.4,2052.8 C594.5,2077.5 607.4,2078.7 632.8,2070.7 C649.6,2065.4 662.3,2055.8 667.5,2044.5 C670.1,2039 670.4,2037.3 670.3,2028.8 C670,2000.5 648.5,1950.4 596.6,1857.2 C568.5,1806.6 561.7,1796.3 552.1,1789.4 C543.5,1783.1 539.2,1782.3 513.9,1782.4 C494.7,1782.4 489.9,1782.8 481.3,1784.6 C455.6,1790.1 432.5,1800.6 377.9,1831.6 C363.9,1839.6 349.7,1847.4 346.3,1849 C333.7,1854.9 321,1854.9 308.4,1848.9 C296.8,1843.5 285.4,1829.4 276.9,1809.9 L273.7,1802.6 L275.9,1797.4 C282.3,1782.5 301.4,1752.3 322.4,1723.8 C328.3,1715.8 335.1,1705.3 337.6,1700.3 C349.9,1675.9 358.1,1636.4 362.4,1580.8 C366,1533.8 366.4,1511.8 366.4,1380.8 C366.4,1239.8 364.3,1129.1 359.9,1027.3 C358.7,999.8 355.6,908.7 353.3,835.3 C351.2,770.9 351,685.6 352.7,663.8 C356.9,610.5 365.3,579.1 381.7,554.5 C388.5,544.3 397.9,535.4 412.5,525.4 C429.8,513.4 437.9,507 447.4,497.4 C463,481.8 471.6,464.4 470.7,450.5 C469.5,430.4 442.9,395.7 382.9,335.7 C290.8,243.6 169.3,144.1 63.9,74.6 C23.9,48.2 8.2,35.3 2.5,24.1 C-0.8,17.5 -1,11.1 2.1,7.9 C7,2.5 21.9,-0.9 34.8,0.2 C57.5,2.3 98.9,14.3 161.4,36.9 C216.5,56.8 213.1,55.2 289.9,98.7 C334.5,123.9 364.4,141.5 373.4,147.8 C381.1,153.2 428,187.2 477.7,223.5 L567.9,289.5 L603.7,324.5 C623.3,343.7 649.8,368.4 662.4,379.3 C692,405 704.7,417.7 708.5,425.4 C711.2,430.9 711.4,432.1 711.4,442.8 C711.3,453 711,455 708.7,460.6 C695.6,491.6 649.4,520.6 572.4,546.3 C558,551.1 543.7,555.4 512.1,564.4 L506.9,565.9 L507.5,570.1 C510.8,592.3 515.6,604.7 523.7,611.9 C533.7,620.8 552.9,627.4 585,632.7 C612.4,637.3 641.8,640.8 774.9,655.2 L899.4,668.7 L955.9,669.8 C987,670.4 1024.6,670.9 1039.4,670.9 C1097.6,670.9 1105.9,666.3 1124,623.8 C1132.2,604.6 1150.2,576.8 1163.2,563.2 C1176.8,548.9 1189.2,540.9 1203,537.3 C1212.6,534.8 1230,535.6 1239.8,539.1 C1279.8,553.2 1300.2,605.7 1306.9,711.8 C1308.9,743.7 1313.9,1078.6 1316.3,1344.8 C1317.9,1514.6 1319.2,1622.9 1319.9,1628.8 C1320.5,1634 1324.5,1654.5 1328.9,1674.3 C1340.7,1728.4 1341.1,1731 1339.8,1744 C1337.6,1765.6 1326.4,1784 1301.4,1806.8 C1292.2,1815.2 1250,1849.3 1237.4,1858.5 C1215,1874.8 1196.6,1882 1177.4,1882 C1164.3,1882 1154.8,1879.7 1131.2,1870.7 C1087.3,1854 1062.7,1847.3 1018,1839.7 C987.1,1834.5 709.6,1796.8 701.9,1796.8 L695.9,1796.8 L706.8,1813.1 C716.6,1827.5 727.2,1840.2 805,1929.3 C852.9,1984.3 893.7,2031.6 895.5,2034.4 C897.4,2037.2 899.5,2041.9 900.1,2045 C901.6,2052 900.7,2056.7 893.3,2083.3 C890.4,2093.7 888.1,2102.3 888.3,2102.5 C889.5,2103.7 913.9,2106.1 1024.9,2115.7 L1151.4,2126.7 L1258.1,2128.3 C1316.8,2129.2 1368.5,2130.3 1372.9,2130.8 C1411.9,2135.2 1431.9,2148 1439.5,2173.3 C1442.1,2181.9 1441.9,2200 1439.2,2208.5 C1429.8,2237.3 1398,2262.2 1348.4,2279.4 C1318.4,2289.9 1281.8,2296.7 1264.4,2295.1 L1264.4,2295.1 Z M1104.9,1723.3 C1135.1,1718.8 1146.8,1709.7 1151.3,1687.3 C1155.6,1666.2 1158.3,1615.7 1157.7,1567.8 C1157.4,1540.2 1157.3,1538 1155.3,1533.7 C1150.9,1524.2 1143.4,1520.8 1126.8,1520.8 C1107.5,1520.8 1064.2,1517.4 978.4,1509.3 C864.3,1498.4 673.6,1478.4 596.9,1469.3 C567.1,1465.8 523.8,1461.5 523.3,1462.1 C523,1462.3 522.2,1500.4 521.4,1546.7 C520.3,1606.6 520.2,1632.8 520.9,1637.5 C523.3,1652.2 530.6,1659.1 548.5,1663.7 C561,1666.9 573.1,1668.6 706.3,1686.4 C828.3,1702.6 833.8,1703.2 941.8,1713.8 C1041.1,1723.5 1054.6,1724.6 1073.9,1724.7 C1088.1,1724.7 1098.6,1724.3 1104.9,1723.3 L1104.9,1723.3 Z M1147.3,1400.7 C1152.4,1399.3 1155.5,1396 1157,1390.7 C1158.4,1385.3 1157.6,1278 1155.9,1250.8 C1154.8,1232.5 1151.3,1191.9 1150.3,1185.7 L1149.8,1182.1 L1132.6,1179 C1123.1,1177.2 1111.4,1175.4 1106.4,1174.9 C1101.5,1174.3 1095.1,1173.5 1092.3,1172.9 C1083.9,1171.3 1038.6,1167.2 969.4,1161.8 C933.7,1159 897.4,1156.1 888.9,1155.3 C880.4,1154.4 806.6,1144.6 724.9,1133.3 C544.7,1108.5 539.1,1107.8 533.9,1107.8 C526.6,1107.8 521.1,1112.2 517.7,1120.7 C515.5,1126.2 515.4,1127.4 515.1,1171.3 C514.7,1219.6 516.3,1301.7 518,1321.3 C519.1,1334.3 519.9,1336.5 525.9,1340.5 C535.1,1346.8 568.8,1354.4 608.9,1359.3 C615.8,1360.1 712,1369.8 822.7,1380.8 C1016.4,1400 1025,1400.8 1047.2,1400.9 C1060,1401 1078.3,1401.4 1087.9,1401.8 C1109.9,1402.8 1142.2,1402.2 1147.3,1400.7 L1147.3,1400.7 Z M1140.9,1045.1 L1150.7,1042.4 L1151.3,1036.5 C1152.2,1027.2 1152,963.7 1150.9,929.3 C1148.8,865.9 1145.8,807.4 1144.6,806.2 C1143.7,805.3 1131.7,804.2 1077.9,800.4 C1051.2,798.4 999.3,794.1 962.4,790.8 C925.6,787.5 873.4,782.8 846.4,780.3 C814.4,777.4 748.4,770 656.4,758.9 C578.9,749.5 515.2,742.2 514.8,742.6 C513.5,744.1 507.8,762.6 507.3,767.4 C507,770.1 507.4,787.4 508.3,805.8 C509.2,824.2 510.3,857.3 510.9,879.3 C511.8,916.5 513.4,943.5 516.2,973.8 L517.4,986.2 L542.9,992.9 L568.4,999.7 L704.9,1015.7 C803.6,1027.3 851.1,1032.5 876.4,1034.4 C902,1036.3 1065.2,1044.9 1128.3,1047.7 C1129.9,1047.7 1135.6,1046.6 1140.9,1045.1 L1140.9,1045.1 Z" id="Shape" sketch:type="MSShapeGroup"></path>
            <path d="M945.9,532.4 C944,531.6 940.7,530 938.5,528.8 C934.7,526.5 934.7,526.4 935.2,521.6 C936.7,509.5 942.5,502.3 964.9,484.3 C1031.4,431.4 1131.7,329.9 1192.9,253.9 C1213,228.8 1220.4,218.1 1266.1,148.8 C1325.5,58.6 1328.9,53.8 1344,39.2 C1356.9,26.8 1367.6,20.4 1381.8,16.6 C1392.7,13.7 1414.3,13.7 1425.2,16.6 C1443.9,21.7 1457.9,33 1466.1,49.8 C1473.3,64.3 1475,72.1 1475.6,92.9 C1475.9,103.6 1475.7,114.6 1475,120.9 C1464.4,214.1 1390.3,308.2 1258.9,395.3 C1218.6,422 1186.2,440.6 1136.9,465.2 C1075.9,495.7 1016.9,519.6 976.4,530.3 C962.3,534.1 952.3,534.7 945.9,532.4 L945.9,532.4 Z" id="Shape" sketch:type="MSShapeGroup"></path>
        </g>
    </g>
</svg>