<?xml version="1.0" encoding="UTF-8" standalone="no"?>
<svg width="962px" height="2269px" viewBox="0 0 962 2269" version="1.1" xmlns="http://www.w3.org/2000/svg" xmlns:xlink="http://www.w3.org/1999/xlink" xmlns:sketch="http://www.bohemiancoding.com/sketch/ns">
    <!-- Generator: Sketch 3.0.4 (8054) - http://www.bohemiancoding.com/sketch -->
    <title>Slice 2</title>
    <desc>Created with Sketch.</desc>
    <defs></defs>
    <g id="Page-1" stroke="none" stroke-width="1" fill="none" fill-rule="evenodd" sketch:type="MSPage">
        <g id="Group" sketch:type="MSLayerGroup" transform="translate(481.100000, 1134.900000) scale(1, -1) translate(-481.100000, -1134.900000) translate(0.600000, 0.900000)" fill="#000000">
            <path d="M791.9,2264.5 C776.8,2260.6 766.5,2257.5 723.2,2243.4 C686.8,2231.5 679.1,2229.5 648.9,2224 C519.7,2200.4 331.3,2179.9 242.5,2179.9 L223.2,2179.9 L216,2184.3 C200,2194.4 172.5,2206.2 138.9,2217.5 C88.8,2234.5 62.7,2239 42.9,2233.9 C25.5,2229.5 10.3,2218.7 4.4,2206.6 C0.8,2199.1 -1.1,2190.4 -0.2,2185.3 C1.4,2176.9 12.2,2158.7 41.6,2114.9 C56.4,2092.7 58.2,2089.5 60.7,2081.4 C68.6,2054.8 73.4,2012.6 77.5,1932.4 C78.2,1918.4 78.8,1846.1 79.1,1734.4 L79.5,1558.4 L70,1145.9 C64.7,919 58.6,640.5 56.3,526.9 C52.5,337.2 52.2,317.2 53.3,281.4 C55.3,212.8 59.6,162.8 67.4,116.9 C78.8,50.3 94.6,13.3 115.9,2.8 C121.5,0.1 123.1,-0.3 128.6,0.1 C137,0.6 143.1,3.7 151.6,11.7 C184.5,42.7 206.4,118.3 212.4,221.4 C212.9,230.8 217,570.7 221.4,976.9 C229.1,1688.5 229.5,1721.7 233.5,1887.4 C235.7,1982 237.7,2059.5 237.8,2059.7 C238,2059.8 252.4,2061.2 270,2062.9 C287.5,2064.5 347.4,2070.4 402.9,2075.8 C595.4,2094.9 638.8,2098.7 676.8,2099.6 C701.9,2100.2 702.6,2100.2 702.1,2098.3 C701.8,2097.3 699.7,2089.2 697.4,2080.5 C684.7,2030.9 662.9,1983.2 619.2,1909.4 C614,1900.6 572.9,1832.2 527.9,1757.4 C482.3,1681.6 443.5,1616.1 440.3,1609.4 C434.2,1596.6 429.8,1584.3 426.8,1571.6 C422.3,1552.5 430.6,1533.3 450,1517.9 C454,1514.7 464.6,1507.7 473.6,1502.4 C579.6,1439.1 658.3,1358.3 708.5,1261.4 C747.3,1186.5 767.1,1106.3 769.1,1016.9 C770.6,945.7 759,875.8 738.3,832 C727.3,808.7 711.6,790.3 695.9,782.3 C674.8,771.4 644.2,766.4 604.9,767.2 L583.9,767.6 L473.4,793.3 C412.6,807.4 362.4,818.7 361.7,818.4 C361,818.2 357.7,815.8 354.4,813.2 C348.9,808.8 348.4,808.1 349,805.4 C350.5,797.4 354.4,792.1 368.9,778.2 C383,764.6 383.5,764.2 405.1,751.7 C439.2,732 506.9,693.8 528.4,682.2 C539.1,676.4 551.3,669.8 555.4,667.5 C565.6,661.9 574.4,653.1 577.2,645.7 C579.9,638.6 582.8,623 584.4,608 C589.1,563.3 606.5,537.2 636.9,529.4 C645.7,527.2 666.1,527.4 678.4,529.9 C705.7,535.5 737.4,551.6 768.1,575.5 C800.4,600.7 846.3,648.5 860.9,672 C888.2,716.1 910.4,788.5 922.3,872.7 C928.8,917.9 930.9,951.1 930.1,993.4 C929,1046.4 922.9,1089 909.2,1137.9 C878.8,1246.8 813.2,1350 720,1435.9 C677.4,1475 668.3,1482 568.4,1552.7 C552.7,1563.8 538.6,1574 536.9,1575.3 L533.9,1577.7 L550.3,1599.5 C571.2,1627.1 580.2,1638.4 593.4,1653.4 C618.2,1681.6 655.5,1727.5 685.4,1766.8 C693.9,1777.9 724,1818.7 752.3,1857.2 C862.3,2007.5 859.7,2004.4 897.7,2030 C943,2060.5 953,2068.5 958.2,2078.4 C960.7,2083 960.9,2084.4 960.9,2095.4 C960.9,2109.6 959.5,2114.7 950.4,2133.7 C926.7,2182.9 878.5,2238.9 842.3,2259.2 C825.1,2268.7 813.4,2270 791.9,2264.5 L791.9,2264.5 Z" id="Shape" sketch:type="MSShapeGroup"></path>
        </g>
    </g>
</svg>