<?xml version="1.0" encoding="UTF-8" standalone="no"?>
<svg width="2452px" height="2458px" viewBox="0 0 2452 2458" version="1.1" xmlns="http://www.w3.org/2000/svg" xmlns:xlink="http://www.w3.org/1999/xlink" xmlns:sketch="http://www.bohemiancoding.com/sketch/ns">
    <!-- Generator: Sketch 3.0.4 (8054) - http://www.bohemiancoding.com/sketch -->
    <title>Slice 2</title>
    <desc>Created with Sketch.</desc>
    <defs></defs>
    <g id="Page-1" stroke="none" stroke-width="1" fill="none" fill-rule="evenodd" sketch:type="MSPage">
        <g id="Group" sketch:type="MSLayerGroup" transform="translate(1225.900000, 1229.000000) scale(1, -1) translate(-1225.900000, -1229.000000) translate(0.200000, 0.600000)" fill="#000000">
            <path d="M1073.3,2456.4 C1050.5,2454.4 1035.2,2446.9 1030.3,2435.2 C1028,2429.4 1028.3,2418.9 1031.2,2412.9 C1035.1,2404.5 1045,2392.4 1064.9,2371.8 C1092.6,2343.2 1101.1,2331.6 1113.4,2305.9 C1120.9,2290.2 1125.6,2276.7 1130.2,2257.4 C1140.3,2215.2 1143.3,2171.2 1142.5,2077.4 C1142.1,2015.3 1141.8,2012.5 1135.8,2003.1 C1132.3,1997.6 1125.3,1993.9 1115.3,1992.4 C1099.7,1990.1 771.2,1956.2 757.3,1955.5 C695.7,1952.3 622.3,1968.6 548.7,2001.7 C525,2012.4 515.4,2016.7 491,2027.8 C478.2,2033.6 466.5,2038.4 465,2038.4 C453.8,2038.3 438.2,2020.8 434.7,2004.4 C433,1996.4 434.1,1989.7 439.2,1977.8 C450.9,1950.6 477.8,1908.2 504.4,1875 C547.8,1821 590,1788.6 627.1,1780.8 C638.4,1778.5 649.5,1779 670.4,1783 C712.2,1790.8 716.9,1788.1 730.1,1747.9 C752.5,1679.9 783.8,1567.6 797.6,1505.4 C805.4,1470.7 812.8,1428.1 811.4,1426.7 C809.8,1425.1 760.5,1418 653.8,1403.9 C540.2,1388.9 532.4,1388 418.8,1376.9 C354.2,1370.6 295,1365.2 287.3,1364.8 C263.8,1363.8 230.7,1366.5 199.8,1372 C151.5,1380.7 89,1402.4 47.8,1424.8 C29.8,1434.6 24.3,1436.7 18.9,1436 C10.9,1434.9 5.5,1428.8 2.1,1416.9 C0.1,1409.9 -0.7,1382.1 0.7,1368.6 C4.2,1334.8 18,1311.4 63.2,1262.4 C89.5,1234 123.4,1199.4 129.3,1194.9 C149.6,1179.7 191.8,1168.3 222.2,1169.7 C235.7,1170.3 251.3,1174.1 309.9,1190.9 C359.2,1205.1 371.8,1207.9 480.3,1229.5 C527.6,1238.9 630.2,1259.8 708.3,1276 L850.3,1305.5 L888.8,1310 C910,1312.4 1054,1327.9 1208.8,1344.3 L1490.3,1374.3 L1634.3,1376.9 L1778.3,1379.6 L1934.3,1374.4 L2090.3,1369.2 L2201.8,1353.8 C2329.2,1336.2 2334.4,1335.6 2360.8,1334.8 C2388.4,1333.9 2403,1336.7 2418.3,1345.6 C2432.5,1353.9 2443.3,1368.4 2449,1386.4 C2452.4,1397.4 2452.1,1415.3 2448.4,1427.8 C2445.4,1437.9 2440.7,1447.6 2434.6,1456.7 C2429.2,1464.8 2411.4,1482.5 2401.4,1489.9 C2372.8,1510.9 2331.8,1529.3 2282.8,1543.3 C2254.6,1551.3 2215,1559.4 2204.1,1559.4 C2197.2,1559.4 2167.9,1555.6 2123.3,1548.9 L2087.3,1543.5 L2045.3,1542.4 C2004.8,1541.2 1995.8,1540.6 1793.9,1523.8 C1678.7,1514.2 1584.3,1506.5 1584.2,1506.7 C1584,1506.9 1615.5,1576.8 1654.2,1662.1 L1724.5,1817.1 L1723.1,1826.5 C1718.9,1855.7 1712,1869.7 1685.8,1903.4 C1679.7,1911.2 1674.9,1917.8 1675.1,1918 C1675.7,1918.7 1703.6,1924.1 1718.3,1926.4 L1732.2,1928.7 L1813.8,1927.5 C1923.4,1926 1939.9,1926 1947.3,1927.9 C1969.2,1933.5 1985.9,1949.6 1991.5,1970.5 C1993.7,1979.1 1993.7,1995.8 1991.4,2004.3 C1982,2039.2 1943.3,2069.6 1880.8,2091.2 C1852.7,2100.8 1821.9,2107.5 1804.8,2107.6 C1785.8,2107.7 1751.4,2100.9 1646.8,2076.4 C1556.7,2055.3 1578.3,2059 1399.7,2034.1 L1319.1,2022.8 L1317.4,2036.9 C1311.6,2086.1 1312.7,2113.9 1324.4,2201.9 C1326.1,2215.4 1327.5,2222.3 1334.9,2257.4 C1342.7,2294.5 1342.1,2302.5 1330.3,2320.5 C1324,2330 1307.2,2347.3 1293.8,2358.1 C1251.9,2391.7 1180.6,2429.4 1122.8,2448.4 C1100.6,2455.8 1088.7,2457.7 1073.3,2456.4 L1073.3,2456.4 Z M1498.8,1906.4 C1516.6,1903 1527.2,1891.4 1528.5,1874.1 C1530,1854.9 1521.8,1807.1 1510.3,1767.2 C1504.1,1745.4 1475.5,1659.9 1465.9,1634.1 C1440.3,1565.2 1419.4,1527 1393.6,1501.7 L1387.3,1495.5 L1361.3,1492.5 C1296.8,1485 1149.6,1469 1079.3,1461.9 C1027.6,1456.7 987.9,1453.4 976.8,1453.4 C959,1453.4 956.5,1455.9 954.8,1474.7 C954.3,1480.3 953.9,1492.1 953.8,1501 C953.8,1518.1 951.8,1536.1 945.2,1578.9 C935.3,1642.8 925,1690.3 916.1,1712.9 C905.9,1739 889.1,1763.7 855.4,1802.7 L843,1817.1 L862.6,1821.2 C873.4,1823.5 956.8,1837.8 1047.8,1853 L1213.3,1880.6 L1343.3,1893.9 C1414.8,1901.2 1477.9,1907.2 1483.4,1907.3 C1489,1907.4 1495.9,1906.9 1498.8,1906.4 L1498.8,1906.4 Z" id="Shape" sketch:type="MSShapeGroup"></path>
            <path d="M1603.7,1191 C1560.5,1180.1 1533.3,1175.5 1427.3,1160.9 C1349.3,1150.2 1278,1141.1 1206.8,1132.9 C1166.9,1128.2 1069.6,1116.4 939.3,1100.5 C824.5,1086.4 831.9,1086.9 813,1091.4 C800.7,1094.3 776.2,1102.5 751.8,1111.9 C701.6,1131.1 680.3,1136.1 652.9,1135.1 C630.7,1134.3 616.6,1129.9 606.9,1120.9 C600.2,1114.6 598.1,1109.2 599.7,1102.1 C601.8,1092.5 610.4,1076.9 635.6,1036.9 C643.6,1024.3 651.6,1010.8 653.4,1006.9 C663.4,985 670.4,955.8 674.7,917.8 C682.7,847.8 686.8,667 686.8,385.4 C686.8,250.8 687.4,218.9 690.4,183.4 C697.5,98.5 715,41.9 741.7,17.2 C753,6.8 763.5,2.5 778,2.4 C791.5,2.4 800.9,6.5 812.7,17.8 C820.4,25.2 822.4,28.2 841,59 C865.8,99.9 875.3,113.7 881.1,117.3 C906.5,133 1148.1,163.6 1327.8,173.9 C1411.5,178.6 1484.7,178.8 1513.8,174.3 C1548,169 1561.2,159.1 1568.9,133 C1578.5,100.1 1593.7,65.8 1608.6,43.4 C1617.3,30.1 1633,13.8 1642.1,8.5 C1653.2,2 1660.1,0.1 1672.3,0 C1681.5,0 1684.2,0.3 1688.8,2.3 C1705.7,9.3 1720.4,25.9 1732.9,51.8 C1740.1,66.9 1742.2,73.6 1744.8,89.4 C1753.8,146.3 1763.6,323.8 1767.8,506.9 C1772.3,705.8 1774.9,752.5 1790.3,909 C1793.5,941.2 1794.3,946.8 1800.8,978.5 C1809.8,1022 1814.8,1051.5 1814.8,1060.2 C1814.8,1068.5 1812.9,1075.8 1808.4,1084.9 C1798.8,1104.3 1774.9,1129 1745,1150.3 C1708.5,1176.4 1663.7,1198 1644.3,1199.1 C1638.1,1199.4 1633.2,1198.4 1603.7,1191 L1603.7,1191 Z M1552.8,1038.3 C1568.5,1035.7 1586.8,1031 1593.4,1028 C1608.9,1020.9 1617,999.6 1620.7,955.9 C1623.7,921.9 1620.6,842.8 1614.8,802.4 C1612,783.2 1611.7,781.4 1610.5,781.4 C1610,781.4 1534.5,774.9 1442.9,766.9 L1276.3,752.3 L1077.3,725.9 C967.9,711.3 873.7,698.7 868.2,697.9 C862.6,697.1 854.6,696.4 850.5,696.4 L842.9,696.4 L841.9,700.2 C838.8,711.8 838.5,721.5 838.1,826.5 C837.8,905.3 838,934.3 838.8,937.5 C840.5,943.7 848.4,951.2 856.8,954.6 C864.8,957.8 881.9,961.7 900.3,964.4 C908,965.6 920.6,967.8 928.3,969.4 C958.6,975.6 1025.6,987 1057.3,991.3 C1065.6,992.5 1116.5,998.8 1170.6,1005.5 C1255.4,1015.9 1286.1,1019.1 1395.1,1029.4 C1531.6,1042.3 1530.3,1042.2 1552.8,1038.3 L1552.8,1038.3 Z M1610.1,643.6 C1614.4,639.2 1614.4,639.1 1608.9,481.4 C1603.4,321.5 1603.1,317.4 1598.5,317.4 C1597.3,317.4 1572.5,316.3 1543.3,314.9 C1510.5,313.3 1442.1,308.7 1363.8,302.9 C1239,293.6 1234.8,293.2 1051.3,274.4 C934.3,262.4 863.8,255.6 861.3,256 C852.8,257.4 849.3,264.2 844.2,289.3 C841.8,301.1 841.6,304.3 840.8,351.3 C839.5,420.3 839.6,530.3 840.9,538.3 C843,551.3 848.6,559.3 857.9,562.7 C860.3,563.6 931.4,574.7 1015.8,587.4 C1211.4,616.7 1231.9,619 1412.3,632.4 C1478.9,637.3 1538.8,642.1 1545.5,642.9 C1573,646.6 1606.7,646.9 1610.1,643.6 L1610.1,643.6 Z" id="Shape" sketch:type="MSShapeGroup"></path>
        </g>
    </g>
</svg>