<?xml version="1.0" encoding="UTF-8" standalone="no"?>
<svg width="1178px" height="2182px" viewBox="0 0 1178 2182" version="1.1" xmlns="http://www.w3.org/2000/svg" xmlns:xlink="http://www.w3.org/1999/xlink" xmlns:sketch="http://www.bohemiancoding.com/sketch/ns">
    <!-- Generator: Sketch 3.0.4 (8054) - http://www.bohemiancoding.com/sketch -->
    <title>Slice 2</title>
    <desc>Created with Sketch.</desc>
    <defs></defs>
    <g id="Page-1" stroke="none" stroke-width="1" fill="none" fill-rule="evenodd" sketch:type="MSPage">
        <g id="Group" sketch:type="MSLayerGroup" transform="translate(589.100000, 1091.000000) scale(1, -1) translate(-589.100000, -1091.000000) translate(0.600000, 0.500000)" fill="#000000">
            <path d="M48.3,2179.6 C33.2,2176.3 15.3,2166.3 8.1,2157 C6.5,2155.1 4.1,2151.1 2.6,2148.3 C0.2,2143.6 -0.1,2142 -0.1,2133 C-0.1,2123.9 0.2,2122.4 3,2116.5 C4.7,2112.9 15.5,2095.8 27,2078.5 C60.4,2028.2 77.8,1997.5 82.8,1980.1 C92.4,1946.9 97.4,1882.5 99.5,1763.5 C100.6,1700.2 100.6,1695.6 96.5,1516 C93.3,1371.5 91.6,1261.7 88.3,993.5 L84.3,654 L85.6,534 C86.7,435.1 86.7,408.6 85.6,383.5 C82.9,321.6 85.4,284.1 94.5,246.9 C112.4,173.1 155.9,112.6 222.9,67.8 C288.5,24 345.6,9.4 482.9,1.4 C511.8,-0.3 653.8,-1 690.7,0.4 C796.6,4.3 882.9,14.2 958.2,31.1 C1057.3,53.3 1130.1,88.3 1160.5,128.5 C1167.3,137.5 1174.1,151.5 1176,160.5 C1181.4,186 1168.9,217.1 1143.2,242 C1137.5,247.5 1126.6,257.8 1118.9,264.9 C1100.6,281.8 1093,290.4 1090.5,297 C1080.7,323.2 1068.9,433.7 1058.9,594 C1057.5,616 1055.9,637.8 1055.3,642.4 C1052.3,667.2 1046.4,681.5 1037.1,686.9 C1028.1,692.1 1018.6,691.1 1012.2,684.4 C1004.7,676.6 1004.8,676.8 981.9,478.5 C974.4,413.9 967.6,356.5 966.8,351 C959.3,303.9 938.4,256 909.9,221 C898.4,206.8 887.6,196.3 879.9,191.7 C853.4,176.1 800.8,165.3 723.9,159.5 C683.7,156.5 661.4,156 578.9,156 C487.3,156 476.9,156.4 436.4,161.6 C395.4,166.8 357.8,177.4 333.4,190.7 C312.3,202.2 290.4,221.5 279,238.8 C258.4,269.9 247.4,310.7 245.6,362.5 C244.8,384.2 246.7,696.5 248.3,812 C252.6,1116.7 262.5,1442.4 272.4,1602.5 C276.7,1671.2 279.5,1700.4 286.5,1748.5 C308.3,1898.9 310.2,1913.1 311.1,1936.5 C312,1959.9 308.6,1978.9 299.8,2000.5 C290.4,2023.7 271.8,2048.2 250.1,2066.2 C245.6,2069.9 232.5,2081.1 220.9,2091 C169.3,2135.4 141.9,2155.4 113.9,2169.1 C95.4,2178.2 86.1,2180.7 69.9,2181.1 C59.9,2181.4 54.9,2181 48.3,2179.6 L48.3,2179.6 Z" id="Shape" sketch:type="MSShapeGroup"></path>
        </g>
    </g>
</svg>