<?xml version="1.0" encoding="UTF-8" standalone="no"?>
<svg width="1350px" height="1292px" viewBox="0 0 1350 1292" version="1.1" xmlns="http://www.w3.org/2000/svg" xmlns:xlink="http://www.w3.org/1999/xlink" xmlns:sketch="http://www.bohemiancoding.com/sketch/ns">
    <!-- Generator: Sketch 3.0.4 (8054) - http://www.bohemiancoding.com/sketch -->
    <title>Slice 2</title>
    <desc>Created with Sketch.</desc>
    <defs></defs>
    <g id="Page-1" stroke="none" stroke-width="1" fill="none" fill-rule="evenodd" sketch:type="MSPage">
        <g id="Group" sketch:type="MSLayerGroup" transform="translate(675.000000, 645.500000) scale(1, -1) translate(-675.000000, -645.500000) translate(0.500000, 0.000000)" fill="#000000">
            <path d="M587.9,1288.5 C571.5,1283.6 551.8,1275.1 493,1247.3 C472.1,1237.4 449.8,1227.2 443.5,1224.7 C405.2,1209.7 326.3,1187.1 259.5,1172.1 C196.2,1158 161.4,1153.6 142.5,1157.5 C130.9,1159.9 102.4,1168.2 64.8,1180 C47.5,1185.5 31.8,1190 29.9,1190 C20,1190 8.6,1181.7 3.1,1170.4 C-2.7,1158.7 -1.5,1145.9 7.1,1128.1 C29.1,1082.1 89.3,1026 132.5,1010.9 C141.4,1007.8 158.2,1007.1 169.7,1009.5 C186.1,1012.8 202,1018.5 236.5,1033.5 C248.3,1038.7 260.8,1043.6 264.3,1044.5 C267.8,1045.4 302.6,1057.3 341.8,1070.9 C381,1084.6 417.2,1096.9 422.2,1098.4 C437.1,1102.6 454,1106 460.5,1106 C465.7,1106 467,1105.6 469.1,1103.4 C471.3,1101.3 471.6,1100.3 471,1097.2 C469.3,1088.1 459.6,1068.7 449.5,1054.5 C429,1025.5 418.9,1008.1 357.4,895.9 C293.2,778.7 285.5,764 270,728.5 C195.7,558.3 153.3,396 156.9,295.6 C160.3,201.2 198.6,135.3 280,84.1 C293.1,75.8 327.2,59.1 340.5,54.4 C414.4,28.3 533.6,8.5 656,1.8 C689,7.27529148e-13 926.3,7.27529148e-13 946.5,1.8 C1028.5,9 1119.4,21.5 1193.5,35.6 C1238,44.1 1267.8,53.1 1292.4,65.5 C1329.1,83.9 1348.4,108.9 1348.5,138.1 C1348.5,150.4 1343.6,165.1 1317,231.5 C1307.2,255.9 1299.1,277.7 1297,285.4 C1290.4,309.6 1280.3,363.2 1260,482.5 C1250,540.9 1239.5,600.2 1239.1,600.7 C1238.8,601 1225.1,603.9 1224.9,603.7 C1222.9,601.3 1212,577.1 1210.1,571 C1208.7,566.3 1196.5,511.9 1183,450 C1169.2,386.6 1156.1,329.2 1153.1,318.4 C1137.4,263 1118.9,234.1 1080.9,205.5 C1066.6,194.7 1052.4,188.7 1025.5,182.1 C989.7,173.4 943,167.6 878.9,164 C853,162.6 776.9,161 761.5,161.6 C754.6,161.9 707.8,163.2 657.5,164.5 C559.8,167.2 542.2,168 514,171.1 C471.2,175.9 437.3,183.9 407,196.4 C371,211.3 342.4,237 330,265.8 C321.2,286.1 318.1,304.4 318.1,336 C318.1,365.7 320.8,389.5 328.1,425.5 C346.4,514.9 388.9,631.7 449,758 C459.8,780.7 550.5,952.7 560.8,970 C575.9,995.4 590.5,1014.1 612.5,1036 C636.6,1060.1 653.9,1073.6 687.3,1094.2 C697.4,1100.4 713.1,1110.4 722.3,1116.4 C752.9,1136.3 757,1140.7 757,1154 C757,1160.7 756.6,1162.4 752.9,1170 C736.9,1203 680,1257 636.5,1280.3 C616.9,1290.8 603.4,1293.1 587.9,1288.5 L587.9,1288.5 Z" id="Shape" sketch:type="MSShapeGroup"></path>
        </g>
    </g>
</svg>