<?xml version="1.0" encoding="UTF-8" standalone="no"?>
<svg width="1024px" height="1852px" viewBox="0 0 1024 1852" version="1.1" xmlns="http://www.w3.org/2000/svg" xmlns:xlink="http://www.w3.org/1999/xlink" xmlns:sketch="http://www.bohemiancoding.com/sketch/ns">
    <!-- Generator: Sketch 3.0.4 (8054) - http://www.bohemiancoding.com/sketch -->
    <title>Slice 2</title>
    <desc>Created with Sketch.</desc>
    <defs></defs>
    <g id="Page-1" stroke="none" stroke-width="1" fill="none" fill-rule="evenodd" sketch:type="MSPage">
        <g id="Group" sketch:type="MSLayerGroup" transform="translate(512.400000, 926.000000) scale(1, -1) translate(-512.400000, -926.000000) translate(0.900000, 0.000000)" fill="#000000">
            <path d="M773.7,1851 C756.6,1848.3 736.3,1840.8 674.1,1814.2 C653.5,1805.4 629.4,1795.5 620.6,1792.2 C580.9,1777.4 525.2,1760.5 473.6,1747.6 C455.4,1743.1 264.8,1701.2 249.1,1698.3 C236.3,1695.9 213.2,1696.2 200.5,1698.8 C175.3,1704.2 146,1714.7 112.1,1730.7 C81.2,1745.3 65.5,1752.3 51.6,1757.5 C38.7,1762.4 31.3,1762.7 22.9,1758.8 C0.2,1748.2 -6.9,1715.8 7.4,1687.5 C25.2,1652 76.8,1608.3 141.1,1574.2 C164.8,1561.7 193.9,1550.1 210.9,1546.5 C229.4,1542.6 239.6,1544.5 331.6,1568.5 C343.2,1571.5 354,1574 355.7,1574 C360.4,1574 373.9,1570.3 380.9,1567 C396.3,1559.8 413.8,1544.2 425,1527.7 C444.5,1498.9 455.7,1459.2 457.6,1411.5 C458.8,1382.1 463.1,1153.3 463.1,1119.5 L463.1,1085.1 L454.9,1082.6 C381.9,1060.4 341.2,1050.8 297.1,1045.3 C285.4,1043.9 275.4,1043.5 245.1,1043.6 C221.7,1043.6 205.9,1044 203.1,1044.7 C200.6,1045.3 193.7,1047.1 187.6,1048.8 C163.3,1055.6 154,1057.3 143.1,1057.4 C134.5,1057.5 131.9,1057.1 128.6,1055.5 C113.8,1048.2 105.2,1026.3 111.1,1010.8 C117.8,993 140.3,971.1 176,947.6 C225,915.3 288.5,887 311.9,887 C318.5,887 328.4,889.6 377.5,904.5 C437.4,922.6 455.9,927.4 460.9,926.1 C462.7,925.6 464.3,924.1 465.6,921.5 C467.6,917.5 467.6,915.2 467.9,631.3 L468.1,345 L462.6,334 L457.1,323 L438.3,313.6 C421.7,305.3 409.3,300.5 326.1,270 C214.6,229.1 213.2,228.6 201.2,226.6 C187.7,224.3 170.4,224.5 160.5,227 C139.8,232.3 122.6,244.1 90.6,275.2 C73.5,291.7 69,295.1 60.4,298.1 C55.1,299.9 39.1,302 30.5,302 C25.4,302 25.5,302.1 17.3,282 C7.8,258.5 5.3,243.2 8.6,228.4 C15.8,195.7 44.1,136.8 73.6,93 C96.5,59.1 121.8,31.5 143.5,16.9 C162,4.4 171.6,0.9 189.3,0.3 C211.4,-0.6 212.1,-0.3 294.1,54.5 C323,73.8 351.1,92.4 356.6,95.7 C362.1,99.1 466.5,157.7 588.6,226 L810.6,350.3 L885.1,396.8 C926.1,422.4 961.6,444.4 964.1,445.8 C970.7,449.4 986.6,460.5 994.6,467 C1010.4,479.9 1023.1,495.8 1023.1,502.6 C1023.1,513.1 1011.5,517.3 994.6,513.1 C968.3,506.5 904.5,484.1 742.4,424.9 C674.5,400.1 618.7,380.1 618.3,380.4 C617.2,381.5 616.3,406.7 615.6,456.5 C614.9,504.9 617.7,969 618.7,974.7 C619,976.4 620.3,978.7 621.4,979.8 C624.8,983 691.4,1003.2 720.6,1009.9 C746.4,1015.9 795.2,1024.1 818.4,1026.4 C874.9,1032.1 902.7,1047.6 911.7,1078.5 C914.4,1088.1 914,1103.6 910.7,1113.4 C901.9,1139.4 874.6,1161.1 833.8,1174.5 C805.8,1183.6 788.6,1185.4 772.6,1180.6 C759.6,1176.7 738.6,1168.4 708.2,1155.3 C644.7,1127.8 622.8,1119 621.5,1120.3 C620.6,1121.1 624.6,1237.7 625.6,1242.7 C625.9,1243.9 629.3,1290.7 633.1,1346.7 C637,1402.7 640.8,1457.1 641.6,1467.5 C644.8,1508.2 642.9,1521.1 631.8,1534.5 C629.9,1536.8 605.1,1554 565.8,1580.2 C522,1609.4 503.2,1622.5 504.2,1623 C507.4,1624.8 537.1,1634.2 552.7,1638.4 C574,1644.1 590.7,1648 637.9,1658.1 C746.2,1681.2 790,1690 814.1,1693.5 C863.8,1700.7 873.7,1702.8 885.5,1708.7 C912.8,1722.4 926.4,1743.7 924.8,1770.5 C923.8,1786.2 919.5,1797.9 910.1,1810.3 C895.4,1829.7 870,1843 834.9,1849.7 C825.2,1851.5 783,1852.4 773.7,1851 L773.7,1851 Z" id="Shape" sketch:type="MSShapeGroup"></path>
        </g>
    </g>
</svg>