<?xml version="1.0" encoding="UTF-8" standalone="no"?>
<svg width="1181px" height="2322px" viewBox="0 0 1181 2322" version="1.1" xmlns="http://www.w3.org/2000/svg" xmlns:xlink="http://www.w3.org/1999/xlink" xmlns:sketch="http://www.bohemiancoding.com/sketch/ns">
    <!-- Generator: Sketch 3.0.4 (8054) - http://www.bohemiancoding.com/sketch -->
    <title>Slice 2</title>
    <desc>Created with Sketch.</desc>
    <defs></defs>
    <g id="Page-1" stroke="none" stroke-width="1" fill="none" fill-rule="evenodd" sketch:type="MSPage">
        <g id="Group" sketch:type="MSLayerGroup" transform="translate(590.100000, 1160.500000) scale(1, -1) translate(-590.100000, -1160.500000) translate(0.100000, 0.000000)" fill="#000000">
            <path d="M549.9,2319.5 C540.4,2317.4 524.6,2309.2 517.3,2302.6 C505,2291.5 499.4,2279.3 500.1,2265.5 C500.4,2260.5 501.2,2256.2 502.4,2254 C504.1,2250.6 517.6,2236.9 544.5,2210.9 C559.3,2196.6 567.6,2185.2 575.8,2167.9 C597.2,2122.6 610.4,2069.9 616.4,2007 C618.4,1985.2 620.2,1938.9 619.6,1923.9 C618.8,1901.8 614.9,1897.6 588.3,1889.5 C581.7,1887.5 564.9,1882.3 550.9,1878 C450,1846.8 387.9,1836 308.3,1836 C276.4,1836 279.9,1835.3 223.9,1852 C206.5,1857.1 196,1859.2 188.1,1859.2 C179.4,1859.1 170.6,1854.8 162.3,1846.6 C145.5,1829.7 143.7,1806.2 157.2,1779.4 C167.4,1759.1 191.3,1735.9 220,1718.4 C241.9,1705 274.1,1691.6 294.1,1687.6 C303.6,1685.6 321.5,1685.6 328.9,1687.4 C331.9,1688.2 382.8,1702.8 441.9,1720 C544,1749.6 607.1,1766.3 609,1764.2 C609.4,1763.8 611.4,1760.2 613.4,1756.1 L617.2,1748.8 L616.5,1722.6 C614.7,1649.9 610.5,1570.2 607.8,1554.3 C606.8,1548.7 606.4,1548 603.3,1546.5 C581.1,1536 483.5,1515.4 413.9,1506.6 C379.8,1502.2 358.5,1500.8 335.5,1501.2 C316,1501.6 313.8,1501.9 306.4,1504.3 C296.9,1507.4 284.5,1513.7 265.9,1524.7 C247.6,1535.5 237,1541.1 227.1,1545.1 L218.8,1548.4 L212.3,1546.7 C187.5,1540.2 178,1526.6 177.9,1497.9 C177.9,1479.5 181.7,1467.8 193.2,1451.1 C197.2,1445.4 203.6,1439.1 222.2,1422.6 C281.5,1370.3 297.7,1359.1 320.8,1354.5 C331.6,1352.3 371.6,1352.9 385,1355.4 C389.8,1356.3 440.8,1369.2 498.5,1384 C556.1,1398.8 603.5,1410.8 603.7,1410.6 C606.3,1407.9 607.1,1350.9 605,1318.5 C603.3,1292.4 600.2,1256.3 597.9,1234.5 C596.3,1220.2 595.4,1215.2 594.3,1214.3 C591.2,1212 574.3,1205.1 565.5,1202.5 C560.6,1201.1 546.9,1197.9 535,1195.4 C523.1,1192.9 465.9,1180.5 407.9,1167.9 C292.9,1142.8 288.5,1141.9 264.6,1139.4 C242.7,1137.2 209.7,1137.9 191.9,1140.9 C167.1,1145.2 142.9,1152.1 114.9,1163 C105.3,1166.7 90.9,1171.9 82.9,1174.6 C69.9,1178.9 67.4,1179.4 59.4,1179.5 C51.7,1179.5 49.6,1179.1 44.8,1176.9 C29.4,1169.7 21.9,1154.8 23.2,1134.5 C25.1,1107.3 38.4,1085.8 66.9,1064.2 C71,1061.1 83.4,1051.3 94.4,1042.6 C135.1,1010.3 153.8,997.3 172.4,988.4 C189.5,980.1 199,977.9 219.4,977.3 C245.5,976.5 254.4,978.7 303.8,998.2 C326.5,1007.1 338.3,1010.9 416.1,1033.6 C480.3,1052.4 505.9,1059.5 514,1060.6 C520,1061.5 525.2,1062 525.5,1061.8 C526.2,1061 521,1047.3 513.3,1030 C500,999.9 416.8,835.3 386.6,779.5 C317.2,650.8 197.4,487.9 82.4,365.9 C76,359.1 56.2,339.1 38.4,321.5 C9.3,292.6 5.8,288.8 2.9,282.7 C-0.2,276.4 -0.3,275.5 0.2,268.2 C0.5,264 1,259.8 1.3,258.9 C1.7,258.1 4.5,255.9 7.6,254 C14.4,249.8 21,249.1 32.5,251.3 C72,258.8 139.4,303.6 225.4,379.5 C313,456.9 412.4,561.8 456.1,623 C460.2,628.8 493.7,677.8 530.5,732 C606.5,844 599.8,836.2 595.8,806.9 C593.6,791.1 593.5,786.4 592.9,685 L592.2,579.5 L587.1,468 C582.8,375 581.3,349.1 578,312 C567.7,198.9 567.4,187.4 572.5,152 C582.3,84.4 614.1,23.5 648.9,6 C658.5,1.2 665,-0.3 675.8,0.2 C688.3,0.7 694.7,3.6 704,13 C721,30.2 730.5,64.1 733.9,119.2 C734.5,129.9 735.5,288.5 736.4,538 C737.6,849.6 738.2,940.7 739.2,944.8 L740.4,950.2 L770.4,920.7 C800.4,891.3 821.5,869.3 868.7,818.3 L893.9,791.1 L948.9,707.8 C1010.1,615.3 1011.1,613.9 1026,606.6 C1037,601.3 1044.5,599.6 1057.9,599.5 C1070.8,599.5 1075.3,600.7 1084.8,606.7 C1101.3,617.2 1113.4,638.8 1115.8,662 C1116.9,673.1 1115.7,701.3 1113.5,717 C1107.5,759.6 1092.2,795.9 1069,822.8 C1052.3,842.1 990.8,894.8 941.4,932.1 C885.6,974.2 842.1,1002.5 782.4,1035.5 C743,1057.3 739.7,1059.8 738.3,1068.5 C737.6,1073.7 738.1,1076.7 743.3,1096.5 C745.4,1104.2 747.5,1112.2 748,1114.2 C748.9,1117.7 749.3,1118 755.7,1119.9 C779.5,1127 807.2,1132.5 946.8,1157.5 L1055.3,1177 L1080.5,1177 C1094.4,1177 1109.2,1177.5 1113.4,1178.1 C1148.8,1183 1171.4,1200 1178.5,1227.1 C1181,1236.6 1180.8,1251.7 1178.1,1260.5 C1167.8,1293.8 1129,1316.7 1071.9,1323 C1056.8,1324.7 1021.9,1324.5 1007.8,1322.6 C985.8,1319.6 972.2,1315.2 933.7,1298.7 C867.9,1270.4 810.7,1254.3 751.7,1247.5 L745.9,1246.9 L745.9,1313.2 C745.9,1381.5 746.6,1403.5 749.5,1432 C750.4,1441.1 751.2,1448.6 751.3,1448.7 C751.7,1449.2 787.5,1459.9 804.6,1464.5 C869.9,1482.3 932.9,1492.9 1006.4,1498.5 C1029.7,1500.3 1037.4,1502.1 1050.3,1508.7 C1057.6,1512.5 1061.2,1515.2 1068.5,1522.5 C1082.6,1536.5 1087.6,1548.4 1086.7,1566 C1086.4,1572.9 1085.7,1575.7 1083.1,1581 C1071.5,1605.2 1035.8,1628.4 994.2,1638.8 C979.8,1642.5 963.6,1644.4 955.4,1643.5 C938,1641.6 909.7,1632.1 830.9,1601.5 C774.6,1579.6 765.3,1576.5 761.7,1577.9 C754.9,1580.5 753.3,1587.9 755.3,1607 C756.1,1615 757.3,1631.4 757.9,1643.5 C758.5,1655.6 759.4,1673.4 760,1683 C760.5,1692.6 761.4,1718.7 761.9,1741 C762.8,1778.1 763.4,1785.7 766.4,1803.5 L767.1,1807.6 L816.2,1817.3 L865.4,1827 L977.1,1840 C1059.3,1849.6 1090.4,1853.6 1095.1,1855.1 C1118.2,1862.7 1136.3,1880 1141.4,1899.5 C1143.6,1907.9 1143.4,1921.3 1140.9,1929.2 C1131.9,1958.5 1091.6,1983.3 1038.2,1992.5 C1016.4,1996.2 981.7,1996.2 960.4,1992.5 C943,1989.5 924.2,1983.7 893.9,1972 C874.9,1964.7 848.6,1955.9 828.9,1950.3 C817.7,1947.2 778.1,1938 775.7,1938 C774.7,1938 774.9,1942.1 777.5,1977.5 C781.2,2028.2 782.2,2034.8 790.9,2067.5 C806.3,2125.7 807,2132.6 799.8,2152.4 C783.5,2197.6 715.1,2258.3 636.3,2297.8 C597.3,2317.3 570.9,2323.9 549.9,2319.5 L549.9,2319.5 Z" id="Shape" sketch:type="MSShapeGroup"></path>
        </g>
    </g>
</svg>