<?xml version="1.0" encoding="UTF-8" standalone="no"?>
<svg width="2124px" height="612px" viewBox="0 0 2124 612" version="1.1" xmlns="http://www.w3.org/2000/svg" xmlns:xlink="http://www.w3.org/1999/xlink" xmlns:sketch="http://www.bohemiancoding.com/sketch/ns">
    <!-- Generator: Sketch 3.0.4 (8054) - http://www.bohemiancoding.com/sketch -->
    <title>Slice 2</title>
    <desc>Created with Sketch.</desc>
    <defs></defs>
    <g id="Page-1" stroke="none" stroke-width="1" fill="none" fill-rule="evenodd" sketch:type="MSPage">
        <g id="Group" sketch:type="MSLayerGroup" transform="translate(1062.200000, 306.100000) scale(1, -1) translate(-1062.200000, -306.100000) translate(0.700000, 0.600000)" fill="#000000">
            <path d="M1682,606.5 C1680.6,604.1 1678.9,600.8 1678.4,599.3 C1676.6,594.6 1677.1,586.9 1679.4,582.3 C1684.2,573 1697.9,554.1 1710.1,539.9 C1729.1,517.9 1789.5,433.6 1823.5,381.6 C1829.8,372 1863,316.9 1897.3,259.1 C1988,106.1 1985.5,110.1 2003.2,92.6 C2020.1,75.9 2031.3,70.6 2051.4,69.8 C2060.4,69.5 2064.3,69.7 2068.9,71.1 C2092.3,77.8 2112.2,100.8 2119.9,130.1 C2122.2,138.7 2122.6,142.2 2122.6,155.6 C2122.8,179.2 2119.2,199.2 2110.4,224.7 C2087.7,290.3 2031.6,364.5 1949.8,437.1 C1936.2,449.2 1863.3,510.9 1838.4,531.5 C1784.9,575.5 1759.2,592.7 1734.3,601 C1724.2,604.4 1702,609 1690.2,610.3 L1684.5,610.9 L1682,606.5 L1682,606.5 Z" id="Shape" sketch:type="MSShapeGroup"></path>
            <path d="M1110.8,602 C1108.1,598.5 1105.7,595.2 1105.5,594.7 C1105.3,594.2 1122.9,567.3 1144.6,534.9 C1181.8,479.4 1187.2,470.8 1239.5,382.6 C1292.6,293.1 1295.6,287.7 1310.2,257.1 C1340.1,194.4 1350.1,176.7 1361.7,165.9 C1369.2,158.8 1376.1,155.2 1385.8,153.1 C1404.2,149.2 1421.9,154.1 1435.7,166.8 C1449.8,179.7 1458.1,196.2 1462.9,220.6 C1465.4,233.7 1465.5,268.6 1463,283.1 C1459.1,305.6 1452.9,324.4 1442.1,346 C1425.1,379.9 1402.8,409.2 1364.8,447.1 C1341,471 1326.4,483.9 1292,511.9 C1221.6,569.1 1180.1,593.6 1135.3,604.4 C1114.8,609.4 1116.6,609.6 1110.8,602 L1110.8,602 Z" id="Shape" sketch:type="MSShapeGroup"></path>
            <path d="M267.7,587.1 C263.8,583.2 257,567.7 241.8,528.6 C213.8,456.3 196.9,420.4 169.5,374.6 C142.6,329.6 110.2,284 62.3,223.6 C8.4,155.7 2.8,143.9 0.3,92.2 C-1.1,65.2 0.5,53.2 7.3,38 C16.9,16.6 33.4,3.4 54.1,0.5 C64.5,-0.9 71.3,0.5 83.8,6.6 C122.6,25.7 176.8,87.8 218.7,160.9 C267,245.2 297.1,335.2 307,424.6 C308.4,437.8 308.8,448.9 308.8,480.6 C308.7,516.4 308.5,521.4 306.5,534.3 C300.6,572.1 290.5,589.5 274.5,589.6 C271.2,589.6 269.6,589 267.7,587.1 L267.7,587.1 Z" id="Shape" sketch:type="MSShapeGroup"></path>
            <path d="M661,570.9 C657.7,568.6 657.3,567.9 657.8,565.2 C658,563.5 658.7,557.2 659.3,551.3 L660.4,540.4 L687.3,471.8 C702,434 736.5,344.4 763.8,272.6 C791.1,200.8 814.9,139.4 816.6,136.1 C825.8,118.8 843.7,108 864.8,106.9 C882.4,106 894.6,110.8 907.3,123.6 C922.1,138.6 932.5,162.4 937.8,193.4 C941.5,214.9 941.5,248.2 937.8,267.4 C931.2,302.1 911.9,333.4 858.2,396.8 C798.9,466.7 765.5,504.3 744.7,524.6 C726.8,542 715.1,550.8 698.3,559.5 C686.5,565.6 667.9,573.6 665.9,573.5 C665.3,573.5 663.1,572.3 661,570.9 L661,570.9 Z" id="Shape" sketch:type="MSShapeGroup"></path>
        </g>
    </g>
</svg>