<?xml version="1.0" encoding="UTF-8" standalone="no"?>
<svg width="1340px" height="2241px" viewBox="0 0 1340 2241" version="1.1" xmlns="http://www.w3.org/2000/svg" xmlns:xlink="http://www.w3.org/1999/xlink" xmlns:sketch="http://www.bohemiancoding.com/sketch/ns">
    <!-- Generator: Sketch 3.0.4 (8054) - http://www.bohemiancoding.com/sketch -->
    <title>Slice 2</title>
    <desc>Created with Sketch.</desc>
    <defs></defs>
    <g id="Page-1" stroke="none" stroke-width="1" fill="none" fill-rule="evenodd" sketch:type="MSPage">
        <g id="Group" sketch:type="MSLayerGroup" transform="translate(670.000000, 1120.100000) scale(1, -1) translate(-670.000000, -1120.100000) translate(0.500000, 0.100000)" fill="#000000">
            <path d="M641.5,2239.5 C631.7,2238.6 616.1,2235.9 610.9,2234.1 C592.4,2227.7 585.5,2218.8 585.5,2201.7 C585.6,2184.9 590.4,2179.1 617.5,2162.6 C646.1,2145.1 654.8,2138.9 664.5,2129.2 C688.6,2105.1 702.2,2074.1 706.6,2033.6 C709.3,2008.4 705.1,1933.4 697.9,1880.1 C695.8,1864.2 661.9,1697.7 647.4,1631.6 C638.8,1592.5 633.2,1580.7 619.8,1573.7 C614.8,1571.2 601.5,1568.4 586,1566.6 C578.3,1565.7 545.5,1560.6 513,1555.1 C431.3,1541.4 419.2,1539.7 403,1540.4 C378.4,1541.3 368.1,1546.8 319.4,1584.6 C303.8,1596.7 297.5,1601.1 296,1600.7 C294.9,1600.4 288.8,1599.2 282.5,1598 L270.9,1595.8 L264.7,1578.2 C255.2,1551.3 253.6,1541.7 255.4,1524.3 C261.2,1469.3 295.2,1402.7 331.8,1374.7 C335.8,1371.7 342.6,1367.5 347,1365.4 C354.8,1361.7 355.3,1361.6 368,1361.3 C389.5,1360.7 398.1,1363.1 510.4,1400.2 C558.1,1415.9 597.1,1428.4 597.3,1428 C597.5,1427.5 592.9,1410.6 587.1,1390.4 C506.5,1108.9 389.5,817.8 272.7,607.6 C244.2,556.4 219.6,515.7 190,471.1 C155.8,419.6 136.6,393.9 89.8,336.8 C38.3,274.2 10.3,238.6 2.7,226.1 C-0.2,221.3 -0.6,219.9 -0.2,215.3 C0.4,206.5 6.4,202.1 17.5,202.1 C26.3,202.1 31.5,203.6 45,210.1 C68.7,221.4 101.3,245.4 141,280.6 C173.4,309.3 223,358.7 244.3,383.6 C247.6,387.5 282.6,431.8 321.9,482.1 C387.4,565.7 395.8,576.9 419.4,611.6 L445.2,649.6 L502.3,756 L559.5,862.3 L590.4,939 C609.9,987.3 637.4,1058.5 664.9,1131.9 L708.6,1248.3 L745.6,1367.4 C766,1433 783.2,1487.1 783.8,1487.8 C785.7,1489.6 805.6,1495.5 833.4,1502.5 C902.4,1519.9 1071.6,1554.1 1088.7,1554.1 C1096.1,1554.1 1106.8,1552.2 1116.9,1549 L1123.2,1547.1 L1124.8,1541.4 C1127.8,1530.7 1128.5,1522.7 1128.5,1499.6 C1128.5,1458.7 1123.9,1400.6 1115,1329.8 C1110.2,1292.1 1108.8,1282.6 1092.1,1176.6 L1077.6,1084.6 L1049.6,946.6 L1021.7,808.6 L993.1,699.6 C955.3,555.7 952.4,545.8 934.4,497.5 C893,385.9 843.9,313.1 795,290.5 C781.9,284.5 773.2,282.8 758,283.4 C747.8,283.8 742.4,284.5 733,287 C692,297.8 640.2,320.5 573,357.2 C557.1,365.9 539.6,374.9 534.2,377.2 L524.4,381.5 L517.3,374.4 L510.2,367.3 L566.7,285.5 C630,193.7 640,179 650.7,161.1 C666,135.8 675.6,115.6 696.1,66.3 C710.6,31.4 712.3,28.3 721.5,19.1 C731.3,9.3 741.7,3.8 756,1 C764.1,-0.7 789.5,-0.2 796.7,1.7 C805.5,3.9 816.7,10 826,17.5 C852.3,38.6 904.5,100.2 936.2,147.7 C981,214.6 1031.6,313.5 1074.7,418.6 C1093,463.1 1096.2,473.1 1125.5,576.6 L1153.5,675.5 L1183,811.1 L1212.4,946.6 L1247.9,1153.6 C1267.4,1267.5 1285.2,1371.6 1287.4,1385.1 C1295.2,1432.7 1300,1451.2 1311,1475.1 C1327.7,1511.6 1336.1,1533.7 1338.5,1547.7 C1340.5,1559 1339.3,1578.5 1336,1589.6 C1326,1623.5 1293.4,1665.7 1251,1699.6 C1240.1,1708.4 1222.9,1719.6 1213,1724.3 C1204.5,1728.4 1203.6,1728.6 1195.5,1728.5 C1182.1,1728.3 1172.3,1724.5 1086.4,1686.5 C1059,1674.4 1037.4,1666.7 1021,1663.1 C1008.8,1660.4 816.1,1622.4 815.8,1622.6 C815.5,1622.7 888.9,1991.1 896.1,2025.6 C898.6,2037.7 903.4,2060.7 906.7,2076.6 C915.8,2120.2 915.5,2127.2 903.3,2145.8 C893.2,2161.2 871.9,2179.7 847.4,2194.2 C809.8,2216.4 765.4,2231.2 716.3,2237.7 C704.6,2239.3 653,2240.5 641.5,2239.5 L641.5,2239.5 Z" id="Shape" sketch:type="MSShapeGroup"></path>
        </g>
    </g>
</svg>