<?xml version="1.0" encoding="UTF-8" standalone="no"?>
<svg width="865px" height="2263px" viewBox="0 0 865 2263" version="1.1" xmlns="http://www.w3.org/2000/svg" xmlns:xlink="http://www.w3.org/1999/xlink" xmlns:sketch="http://www.bohemiancoding.com/sketch/ns">
    <!-- Generator: Sketch 3.0.4 (8054) - http://www.bohemiancoding.com/sketch -->
    <title>Slice 2</title>
    <desc>Created with Sketch.</desc>
    <defs></defs>
    <g id="Page-1" stroke="none" stroke-width="1" fill="none" fill-rule="evenodd" sketch:type="MSPage">
        <g id="Group" sketch:type="MSLayerGroup" transform="translate(432.100000, 1131.900000) scale(1, -1) translate(-432.100000, -1131.900000) translate(0.100000, 0.900000)" fill="#000000">
            <path d="M321.9,2260.5 C303.8,2256.6 289.6,2247.2 283.3,2234.7 C275.6,2219.6 279.2,2210.9 319.1,2147.1 C340.3,2113.1 343.1,2108 348.9,2092.4 C362.6,2055.8 373.9,2002.5 376.9,1960.4 C377.5,1952.2 380.9,1871.2 384.5,1780.4 C390.2,1634.2 391.1,1603.6 392.5,1512.4 C393.9,1419.4 393.9,1397 392.5,1280.9 C391.6,1210.2 390.9,1106.7 390.9,1050.9 C390.9,864.1 388,664.4 383.9,559.4 C383.3,545.7 380.4,495.3 377.4,447.4 C362.1,203.8 361.8,183.9 372.5,136.2 C385.8,76.7 411.2,31.4 442.7,10.8 C455.3,2.5 467.4,-0.8 481.2,0.2 C515.9,2.6 539.5,35.4 547.4,92 C550.7,115.9 552.1,219.5 553.9,546.9 C554.4,650 555.1,772.4 555.4,818.9 C555.9,899.9 555.4,1009.2 552.8,1438.9 C551.6,1634.7 552.1,1726.8 554.9,1855.4 C557.2,1958.8 557.7,1970.2 560.9,2001.9 C569.8,2090.2 569.9,2098.3 562.1,2116.7 C553.5,2137.2 530.7,2159.2 480.4,2195.5 C433,2229.7 394,2251.1 365.4,2258.9 C355.1,2261.7 331.7,2262.5 321.9,2260.5 L321.9,2260.5 Z" id="Shape" sketch:type="MSShapeGroup"></path>
            <path d="M609.3,1784.7 L606.8,1779.4 L616.4,1755 C659.3,1646.1 674,1589.5 686.4,1484.4 C693.3,1425.8 708.9,1395 738.4,1381.4 C748.4,1376.7 758.3,1374.8 771.9,1374.8 C785.7,1374.7 794.1,1376.5 805.3,1381.8 C833.3,1394.9 854.5,1427.3 861.4,1467.4 C870.8,1521.9 850.7,1583.4 803.1,1646.3 C755.7,1708.9 680.9,1768.2 626.4,1786.5 C612.7,1791.1 612.4,1791 609.3,1784.7 L609.3,1784.7 Z" id="Shape" sketch:type="MSShapeGroup"></path>
            <path d="M142.9,1635.2 C134.4,1632 129.4,1621.1 127,1600.3 C126.4,1595.3 125.5,1574.8 124.9,1554.8 C122.6,1468 112.7,1403.4 92.4,1342.4 C79.7,1304.1 71.9,1288.1 41,1236.9 C6.4,1179.7 -1.2,1155.6 0.2,1108.4 C1.1,1081.1 4.6,1059.8 12,1037.5 C24.6,999.9 45.1,973.5 68.5,964.6 C73.4,962.8 76.4,962.4 86.4,962.4 C96.8,962.5 99.4,962.8 105.7,965.1 C141,977.9 172,1022.6 197.1,1096.9 C221.6,1169.6 238.9,1267 240.6,1340.9 C241.6,1386.6 237.2,1429.1 226.2,1478.4 C210.2,1550.3 179.8,1619.2 158,1633.1 C153.6,1635.8 147.1,1636.8 142.9,1635.2 L142.9,1635.2 Z" id="Shape" sketch:type="MSShapeGroup"></path>
        </g>
    </g>
</svg>