<?xml version="1.0" encoding="UTF-8" standalone="no"?>
<svg width="824px" height="2378px" viewBox="0 0 824 2378" version="1.1" xmlns="http://www.w3.org/2000/svg" xmlns:xlink="http://www.w3.org/1999/xlink" xmlns:sketch="http://www.bohemiancoding.com/sketch/ns">
    <!-- Generator: Sketch 3.0.4 (8054) - http://www.bohemiancoding.com/sketch -->
    <title>Slice 2</title>
    <desc>Created with Sketch.</desc>
    <defs></defs>
    <g id="Page-1" stroke="none" stroke-width="1" fill="none" fill-rule="evenodd" sketch:type="MSPage">
        <g id="Group" sketch:type="MSLayerGroup" transform="translate(412.000000, 1188.600000) scale(1, -1) translate(-412.000000, -1188.600000) translate(0.000000, 0.100000)" fill="#000000">
            <path d="M584.2,2376 C564,2372.6 545,2359.8 538,2344.9 C533.9,2336.1 532.4,2325.4 533.8,2315.2 L534.9,2307.2 L544.2,2295.9 C555.5,2282.1 570.7,2261.6 578.4,2249.8 C604.3,2210.2 622.1,2135.3 629.5,2035.6 C633,1988.1 633.2,1974.8 634,1670.6 C634.4,1502.3 635.1,1302.5 635.5,1226.6 C636.4,1077.3 635,746.4 632.4,492.6 C630.8,322.9 631.1,328.9 624,314.5 C617.4,301.1 605.8,292.5 588.5,288.5 C579,286.3 537.4,285.5 514,287 C463.4,290.4 383.9,300.3 356,306.8 C329.4,312.9 328,313 315.9,309.6 L306,306.8 L306,301.2 L306,295.6 L321.7,277.6 C348.3,247.2 361.7,234.7 383.5,220.1 C395.7,212 419.8,197.5 442,185.1 C509.5,147.1 525.9,133.9 548.2,99.4 C553.3,91.4 561.8,78.5 567,70.6 C593.4,30.7 617,6.7 634.8,1.7 C642.8,-0.5 660.1,-0.6 669.3,1.5 C687.1,5.6 703.9,17.2 718.6,35.5 C752.3,77.3 782.1,167.2 790.4,252.1 C794.5,293.5 796.3,367.8 795.3,456.6 C795,488 793.5,699.5 792.1,926.6 L789.4,1339.6 L793.1,1598.6 C799,2011.3 798.9,2005.5 802,2049.1 C804,2077.3 805.2,2086.9 810,2112.6 C820.4,2168 824,2190.1 824,2200.1 C824.1,2231.4 785.6,2275.2 719,2319.8 C674.9,2349.3 625.9,2372.3 599.5,2376.1 C591.6,2377.2 591.4,2377.2 584.2,2376 L584.2,2376 Z" id="Shape" sketch:type="MSShapeGroup"></path>
            <path d="M56,2123.1 C39.9,2121.1 25.4,2113.1 7.9,2096.3 L-0.2,2088.6 L0.3,2075.1 C1,2056.7 1.9,2053.7 8.3,2048.2 C57.2,2006.7 89.2,1962.2 96.6,1925.2 C101.9,1898.6 105.7,1849 108,1774.1 C109.5,1725.2 109.3,1694.8 105,1449.1 C101.1,1225.9 100.9,1217.3 97,1136.6 C94.3,1080 92.2,1045.8 90.4,1029.1 C87.6,1002.4 87.6,990.8 90.5,976.6 C98,940.2 120.7,908.5 147.3,897.3 C152.8,895 154.8,894.7 165,894.7 C178.3,894.8 188.1,897.4 198.5,903.6 C221.6,917.5 239,949.3 247.5,993.2 C253.7,1025.9 253.3,1008.5 254,1275.1 L254.6,1518.6 L260.7,1648.1 C264.1,1719.3 267.2,1782.1 267.5,1787.5 C268.2,1799.4 272.4,1823.3 281.8,1869.6 C291.9,1918.9 293.4,1928 293.4,1940.6 C293.5,1950 293.1,1952.6 290.9,1958.7 C279.5,1989.8 238.7,2030.5 179.5,2069.6 C135.3,2098.8 93,2119.4 70,2123.1 C66.4,2123.6 63.3,2124 63,2124 C62.7,2123.9 59.6,2123.5 56,2123.1 L56,2123.1 Z" id="Shape" sketch:type="MSShapeGroup"></path>
        </g>
    </g>
</svg>