<?xml version="1.0" encoding="UTF-8" standalone="no"?>
<svg width="1768px" height="2232px" viewBox="0 0 1768 2232" version="1.1" xmlns="http://www.w3.org/2000/svg" xmlns:xlink="http://www.w3.org/1999/xlink" xmlns:sketch="http://www.bohemiancoding.com/sketch/ns">
    <!-- Generator: Sketch 3.0.4 (8054) - http://www.bohemiancoding.com/sketch -->
    <title>Slice 2</title>
    <desc>Created with Sketch.</desc>
    <defs></defs>
    <g id="Page-1" stroke="none" stroke-width="1" fill="none" fill-rule="evenodd" sketch:type="MSPage">
        <g id="Group" sketch:type="MSLayerGroup" transform="translate(884.400000, 1115.500000) scale(1, -1) translate(-884.400000, -1115.500000) translate(0.900000, 0.000000)" fill="#000000">
            <path d="M1012.8,2229.9 C1000.1,2228.2 987,2221.5 941.7,2193.2 C910.3,2173.6 901.7,2170 866.6,2161 C811.8,2147 695.4,2129.4 625.1,2124.5 C608.1,2123.3 600.8,2125.8 573.8,2142.2 C549.6,2156.8 533.2,2163.4 508.4,2168.7 C497.1,2171 493.2,2171.3 475.6,2171.4 C454.3,2171.5 448.9,2170.8 439.6,2166.4 C432.2,2163 426.6,2157.7 423.4,2151.2 C420.9,2146.2 420.6,2144.4 420.6,2136 C420.6,2124.6 421.5,2122.6 437.1,2099.1 C465.9,2055.7 474.3,2033.3 479.3,1987.5 C481,1971.4 481,1883.6 479.3,1857 C470.3,1720.6 445,1606.1 399.5,1495.3 C383.4,1456 374.1,1437.5 356.7,1409.6 C319.9,1350.5 312.5,1334.4 317.6,1323.6 C320.3,1317.9 324.1,1316.5 337.1,1316.5 C348.5,1316.5 348.7,1316.5 356.1,1320.3 C394.6,1340 460.3,1410.5 509.4,1484.8 C553.1,1550.8 581.3,1610.4 601.6,1679.5 C625.4,1760.5 642.6,1870.4 647.2,1971.4 C647.8,1984.6 648,1996.6 647.7,1998.2 C647.4,1999.7 647.3,2001 647.5,2001 C647.7,2001 713.8,2011.6 794.3,2024.5 C945,2048.8 955.7,2050.4 972.5,2051.4 L982.3,2052.1 L981.6,2042.8 C981.3,2037.7 979.2,2013 977,1988 C971.9,1928.2 971.7,1924.2 967.1,1814.5 C962.8,1713.1 962.8,1713.3 966.7,1662.5 C971.2,1603.1 974.2,1587.2 985.1,1564.2 C1014.3,1503 1074,1468.9 1172.3,1457.4 C1190.5,1455.3 1264.9,1454.4 1300.6,1455.9 C1414.9,1460.8 1501,1474.9 1550.4,1497 C1574.1,1507.6 1589.6,1520.1 1596.7,1534.4 C1600.3,1541.9 1600.6,1543 1600.9,1552.9 C1601.5,1569.9 1597.9,1581.6 1585.3,1604.1 C1575.6,1621.4 1568.6,1635.7 1566.2,1642.8 C1565,1646.2 1561.9,1663 1559.2,1680.2 C1556.6,1697.4 1547,1758.2 1538,1815.3 L1521.6,1919 L1517,1919 L1512.3,1919 L1506.1,1904.3 C1489.4,1864.7 1471.1,1815.6 1461.6,1785 C1451.2,1751.1 1439.9,1717.9 1433.1,1700.7 C1406.4,1633.3 1379.8,1611 1315.7,1602.3 C1304.6,1600.8 1295.2,1600.5 1255.1,1600.5 C1222.3,1600.5 1204.2,1600.9 1196.6,1601.8 C1150.9,1607.2 1132.2,1619.6 1124.6,1649.2 C1120.2,1666.8 1119.6,1677.5 1119.7,1737 C1119.8,1829.9 1124.5,1887.1 1137.6,1956.5 C1141.9,1979.4 1141.5,1977.7 1155.6,2022.5 C1175.1,2083.8 1177.1,2093.2 1173.6,2104.1 C1164.3,2132.9 1123.8,2179.8 1085.6,2205.9 C1065.2,2219.9 1046.8,2227.9 1030.1,2229.9 C1025.5,2230.5 1021.2,2230.9 1020.6,2230.9 C1020.1,2230.8 1016.5,2230.4 1012.8,2229.9 L1012.8,2229.9 Z" id="Shape" sketch:type="MSShapeGroup"></path>
            <path d="M1126.1,1339.4 C1118.6,1337.4 1105.8,1332.2 1084.1,1322.2 C1040.6,1302.3 1036.9,1300.8 1021.5,1296.9 C947.6,1277.9 671.8,1225.5 582.6,1213.5 C551.6,1209.3 525.5,1210.5 489.9,1217.9 C460.5,1224 447.7,1228.5 428.9,1239.2 C402.9,1253.9 399.4,1254.9 388.7,1250.9 C381.3,1248.2 374.2,1240.4 371.5,1232.4 C368.5,1223 369,1210 373,1197.9 C387.4,1153.7 444.1,1090.2 490.3,1066.6 C506,1058.5 509.9,1057.6 525.6,1058.3 C546.2,1059.2 562.6,1063.7 612.6,1082.5 C646.9,1095.4 663.5,1100.9 677.1,1103.9 C682.3,1105.1 759.7,1120 849.1,1137 C938.5,1154.1 1014.7,1168.7 1018.6,1169.5 C1032.6,1172.6 1045.9,1174.1 1059.7,1174.2 C1071.9,1174.2 1074.4,1173.9 1078.5,1172.2 C1088.6,1167.7 1088.5,1156.7 1078.2,1126.8 C1067.6,1096.2 1050.5,1057.6 1016.5,987.5 L997.6,948.5 L943,859.5 L888.5,770.5 L862.4,737 C848,718.6 834.9,702 833.4,700.1 L830.5,696.7 L681.3,809.9 C599.3,872.1 528.8,925.1 524.5,927.6 C503.6,939.9 471.5,954.3 453.3,959.5 C435.6,964.6 421.8,962.1 410.9,951.6 C393.4,934.9 388.5,908.3 398.8,887 C402.4,879.4 414.4,867.9 425.8,861 C451.8,845.4 465.2,836.8 478.7,827.1 C486.9,821.3 546.9,773.8 612.1,721.7 C717.5,637.4 731.5,625.9 738.9,617.4 L747.1,607.8 L742.5,601.9 C720.8,574.3 660.1,512 607.1,462.9 C484.4,349.3 346.3,245.2 211.6,164.8 C170.8,140.5 148,127.9 87.1,96.2 C31.4,67.2 17,58.6 4.7,46.7 C-0.8,41.4 -1.2,40.7 0.6,40 C4.3,38.4 38.5,34.8 49.1,34.8 C64.8,34.7 84.9,39.4 129.1,53.2 C181.4,69.5 315,119.3 361.6,139.7 C371.9,144.2 545.9,241.6 562.6,252.2 C594.4,272.4 665.5,324.7 718.4,366.9 C750.7,392.7 794,432.2 841.7,479.3 L865.8,503.1 L870.7,499.2 C873.4,497 937.9,434.8 1014.1,360.9 C1146.2,232.8 1157,222.6 1245.1,142.5 C1353.3,44.2 1352.8,44.6 1365.8,34.3 C1388.6,16.1 1408.5,6.9 1434.6,2.4 C1466.2,-3.1 1546,1.2 1671.6,15.1 C1724.5,20.9 1721,20.1 1740.8,31.3 C1750.1,36.5 1759.8,41.9 1762.5,43.2 L1767.4,45.7 L1758.5,55 C1753.6,60.1 1746,67.2 1741.6,70.7 C1722.5,86.2 1666.6,120.8 1589.6,165 C1498.1,217.5 1505.8,212.8 1356.4,309.1 L1231.3,389.8 L1091.9,494.5 C1015.3,552 952.5,599.5 952.3,600 C952.1,600.5 975.8,632.7 1004.9,671.7 C1090.1,785.8 1122.6,831.6 1151.1,877.5 C1159.2,890.5 1285.1,1122.2 1303,1157 C1317.1,1184.4 1325.7,1206.5 1326.8,1217.7 C1328.5,1236.2 1310.3,1258.2 1273.1,1282.2 C1230,1310.1 1166.9,1336.8 1136.1,1340.3 C1133.6,1340.6 1129.1,1340.2 1126.1,1339.4 L1126.1,1339.4 Z" id="Shape" sketch:type="MSShapeGroup"></path>
        </g>
    </g>
</svg>