<?xml version="1.0" encoding="UTF-8" standalone="no"?>
<svg width="1266px" height="2152px" viewBox="0 0 1266 2152" version="1.1" xmlns="http://www.w3.org/2000/svg" xmlns:xlink="http://www.w3.org/1999/xlink" xmlns:sketch="http://www.bohemiancoding.com/sketch/ns">
    <!-- Generator: Sketch 3.0.4 (8054) - http://www.bohemiancoding.com/sketch -->
    <title>Slice 2</title>
    <desc>Created with Sketch.</desc>
    <defs></defs>
    <g id="Page-1" stroke="none" stroke-width="1" fill="none" fill-rule="evenodd" sketch:type="MSPage">
        <g id="Group" sketch:type="MSLayerGroup" transform="translate(632.900000, 1076.300000) scale(1, -1) translate(-632.900000, -1076.300000) translate(0.400000, 0.800000)" fill="#000000">
            <path d="M51.7,2148.8 C37.7,2145.1 24.4,2136.4 9.4,2121.1 L1.7,2113.3 L0.7,2100.5 C-1.1,2079.1 -1.8,2081.4 8.7,2072.8 C20.2,2063.4 42.3,2040.7 50.2,2030.3 C71.8,2001.9 86.2,1971.5 94.5,1936.8 C99.1,1917.7 101.5,1898.6 102.6,1872.8 C103.1,1859.9 104,1761.6 104.6,1654.3 L105.7,1459.3 L101.7,1122.3 C99.4,937 97,694.4 96.2,583.3 C94.5,359 94.2,377.5 101.2,320.8 C107.6,268.7 111.8,248 121.6,219.3 C168.8,81.3 263.7,20 454.6,4.3 C516.6,-0.8 598.5,-1.1 753.1,3.1 C859.6,5.9 871.4,6.5 901.1,10.4 C945.3,16.1 1039.3,33.8 1108.5,49.3 C1163.8,61.7 1177,65.5 1198.5,75.9 C1216,84.3 1226.4,91.5 1238.1,103.3 C1251.7,117 1258.8,129.5 1263.3,147.4 C1265.5,156.3 1265.8,185.6 1263.7,193.8 C1259.2,212 1249,222.1 1200.7,256.6 C1183,269.3 1180.1,271.8 1178.4,275.4 C1174,285.4 1172.5,304.3 1161.6,489.3 C1157.2,563.6 1153.2,627.9 1152.6,632.3 C1148.7,661.2 1136.6,684 1123.3,687.7 C1118.4,689.1 1111.1,688.7 1107.6,686.8 C1102.8,684.2 1099.7,673 1094.1,637.3 C1082.7,565.3 1051.1,381.3 1047.5,366.8 C1034.4,313.2 1014.1,270 991.5,247.8 C955.1,211.9 855.6,188.2 695.6,177.2 C663.9,175.1 574,174.2 540.5,175.7 C407.7,181.8 323.7,205.1 290.7,245 C275.3,263.6 265.3,299.5 258.1,361.8 C254.4,394.2 253.5,420.7 250.7,566.8 L247.8,715.3 L255.7,932.3 C260,1051.7 263.6,1150.9 263.6,1152.8 L263.6,1156.3 L273.7,1158.7 C319,1169.1 426.5,1210.6 546.1,1263.8 C676.7,1321.8 806.3,1386.1 935.6,1457.1 C1004.4,1494.8 1022,1506.1 1039.1,1523.2 C1054.2,1538.3 1058.7,1547.5 1060.1,1566.3 C1061.2,1579.9 1055.8,1595.7 1041.5,1620.8 C1019.8,1658.9 993.4,1693.3 960.2,1726.3 C932.5,1754 912,1769.1 889.3,1778.7 C869.9,1787 853.4,1788 841.8,1781.8 C833.2,1777.3 825.3,1769 820.8,1760 C814.9,1748 815.3,1745.2 826.9,1710.8 C838.9,1675.5 839,1674.7 837.2,1665.9 C833,1646 815,1624.6 772.6,1589.1 C767.4,1584.7 750.3,1570.8 734.6,1558.2 C718.9,1545.6 696.9,1527.8 685.6,1518.7 C615.1,1461.8 537.9,1406.7 464.6,1361.1 C433.3,1341.6 420.8,1334.3 340.6,1288.9 L270.1,1249 L269.8,1307.2 C269.6,1363.5 269.8,1370.6 276.1,1533.8 C281.3,1667.4 283.8,1720.8 288.1,1791.8 C291.1,1841 294,1884.2 294.5,1887.8 C296.1,1898.6 297.8,1928.3 297.9,1944.8 C298,1958.9 297.7,1961.1 295.2,1969.3 C281.8,2013.9 233.1,2068.5 169.6,2110.3 C137.6,2131.4 109.6,2144.3 85.4,2149.2 C74.9,2151.4 60.9,2151.2 51.7,2148.8 L51.7,2148.8 Z" id="Shape" sketch:type="MSShapeGroup"></path>
        </g>
    </g>
</svg>