<?xml version="1.0" encoding="UTF-8" standalone="no"?>
<svg width="1537px" height="954px" viewBox="0 0 1537 954" version="1.1" xmlns="http://www.w3.org/2000/svg" xmlns:xlink="http://www.w3.org/1999/xlink" xmlns:sketch="http://www.bohemiancoding.com/sketch/ns">
    <!-- Generator: Sketch 3.0.4 (8054) - http://www.bohemiancoding.com/sketch -->
    <title>Slice 2</title>
    <desc>Created with Sketch.</desc>
    <defs></defs>
    <g id="Page-1" stroke="none" stroke-width="1" fill="none" fill-rule="evenodd" sketch:type="MSPage">
        <g id="Group" sketch:type="MSLayerGroup" transform="translate(768.500000, 477.300000) scale(1, -1) translate(-768.500000, -477.300000) translate(0.000000, 0.800000)" fill="#000000">
            <path d="M653.5,952.4 C636.5,949.6 623.8,943.7 613.9,933.8 C600.9,920.9 596,904.7 601,891.5 C604.1,883.3 612.8,874.4 629.7,862.3 C656,843.5 663.8,835.9 676.5,816.8 C693,792.1 696.9,782 701,754 C705.5,722.7 706.4,704.7 706.5,641.6 C706.5,608.8 706.3,581.8 706,581.5 C704.1,579.7 648.2,573.3 483,555.8 C379.3,544.8 284.4,534.5 272,532.8 C223.1,526.3 210.8,526.2 189.7,532.2 C172.4,537 150.8,545.4 131.5,554.8 C119,560.8 112.1,565 100,573.8 C69.9,595.8 59.7,601.7 47.5,603.9 C31.4,606.9 14,598.3 5.8,583.2 C0.2,572.9 -1.6,555.8 1.6,543.6 C9.1,514.3 44.3,463.8 82.8,426.7 C122.6,388.3 161.1,366.8 190.1,366.8 C200.7,366.8 206,367.8 252,378.3 C272.1,382.9 327.7,394.8 375.5,404.7 L462.5,422.8 L583.9,437.3 C650.7,445.3 705.5,451.7 705.6,451.5 C705.8,451.3 707.1,441.1 708.6,428.7 L711.2,406.3 L707.1,320.3 C704.8,273 702.4,229.6 701.8,223.8 L700.7,213.2 L668.6,207.5 C650.9,204.3 577.6,193.4 505.5,183.2 C310.3,155.7 312.3,155.9 294.8,159.8 C282.3,162.5 259.3,169.5 232,178.7 C210.4,185.9 207.1,187.4 192.5,195.8 C165.2,211.5 144.7,223 140.4,224.9 L136.3,226.8 L122.9,222.8 C115.6,220.6 109.3,218.4 108.9,218 C108.5,217.6 105.3,212.1 101.6,205.8 C89.9,185.4 88.3,176.8 93.7,164.1 C103.7,140.6 132.7,102 163,71.8 C209.5,25.4 256.7,-0.2 295.7,-0.2 C310.8,-0.2 325,3.8 379.5,23.5 C408.3,33.9 408.9,34 470,48.3 C543.2,65.4 536.6,64.4 747,92.8 C788,98.4 828.7,104 837.5,105.3 C938.2,120.5 978.9,125.2 1026.5,126.8 C1041.9,127.3 1098.6,128.2 1152.5,128.8 C1206.4,129.4 1252.1,130.1 1254,130.4 C1259.1,131.1 1296.5,129.3 1348.5,125.7 C1404.2,121.8 1426.2,121.5 1437.3,124.6 C1458.8,130.5 1473.2,144.1 1480.6,165.3 C1483.1,172.3 1483.4,174.8 1483.4,184.8 C1483.4,194.7 1483.1,197.2 1480.8,203 C1474.1,220.7 1460.3,236.2 1438,251.3 C1405.7,273.1 1348.7,294.1 1318,295.5 C1307.5,296 1305.4,295.8 1294,293 C1287.1,291.3 1263.1,284.3 1240.5,277.3 C1161.9,253.1 1167,254 1070.5,247.3 C1035.9,244.9 974.3,240.6 933.7,237.7 C893.2,234.9 859.7,232.8 859.3,233.2 C858.9,233.5 859.8,278.5 861.3,333.1 C863.9,426.8 864.1,433.3 866.6,449.8 C868,459.4 869.3,467.5 869.6,467.7 C872.5,470.6 1004.9,485.9 1086,492.7 C1092.3,493.3 1149.3,494.5 1212.5,495.4 C1339.3,497.3 1337.5,497.3 1438.5,491.2 C1483.4,488.5 1487.8,488.7 1501.7,493.3 C1523.9,500.8 1535.5,516.4 1536.7,540.9 C1537.3,553 1536.1,561.7 1532.3,572 C1522.5,598.5 1492,623.7 1449.3,640.7 C1422.1,651.5 1387.3,660.5 1358.3,664.3 C1334.2,667.5 1329,666.7 1234.5,645.8 C1207.6,639.9 1181.7,634.3 1177,633.4 C1164,631 894.5,599.8 886.8,599.8 L880,599.8 L880,611.6 C880,625.6 881.5,661.8 883,684.8 C883.8,696.8 884.9,704.7 887.1,713.8 C893.2,738.9 906,805.5 906,811.9 C906,830.1 896.5,844.9 872.5,863.9 C848.2,883.3 798.8,913.8 766.5,929.4 C742.7,940.8 722.8,947.4 700.5,951.3 C687.9,953.5 663.5,954.1 653.5,952.4 L653.5,952.4 Z" id="Shape" sketch:type="MSShapeGroup"></path>
        </g>
    </g>
</svg>