<?xml version="1.0" encoding="UTF-8" standalone="no"?>
<svg width="2276px" height="2174px" viewBox="0 0 2276 2174" version="1.1" xmlns="http://www.w3.org/2000/svg" xmlns:xlink="http://www.w3.org/1999/xlink" xmlns:sketch="http://www.bohemiancoding.com/sketch/ns">
    <!-- Generator: Sketch 3.0.4 (8054) - http://www.bohemiancoding.com/sketch -->
    <title>Slice 2</title>
    <desc>Created with Sketch.</desc>
    <defs></defs>
    <g id="Page-1" stroke="none" stroke-width="1" fill="none" fill-rule="evenodd" sketch:type="MSPage">
        <g id="Group" sketch:type="MSLayerGroup" transform="translate(1137.800000, 1087.200000) scale(1, -1) translate(-1137.800000, -1087.200000) translate(0.200000, 0.400000)" fill="#000000">
            <path d="M956.6,2173 C932.6,2168.7 914.3,2153 906,2129.8 C903.8,2123.7 903.4,2120.7 903.4,2111.8 C903.3,2102.5 903.6,2100.8 905.4,2098.3 C908.8,2093.8 916.2,2088.7 934.9,2078 C953.5,2067.4 958.6,2063.2 968.9,2049.5 C981.9,2032.4 998.2,2005.4 1004.9,1989.9 C1016.1,1964 1019.2,1933.1 1021.8,1820 C1023.6,1739.5 1026.6,1450.3 1027.1,1307 L1027.3,1241.5 L1016.3,1239.8 C929.6,1226 404.9,1167.8 279.4,1157.9 C261.1,1156.5 229.9,1157.2 216.8,1159.5 C187.8,1164.4 159.1,1175.2 131,1191.8 C123.9,1196 111,1205.4 98.3,1215.6 C73.1,1235.9 65.8,1241.2 55.8,1246.3 C48.9,1249.9 47.9,1250.2 42.5,1249.6 C21,1247.4 1.7,1221.8 0.1,1193.5 C-3.4,1130.9 91.4,1013.3 180.3,970 C213.9,953.6 233.9,950.7 263.8,957.9 C285.1,963.1 322.2,973 376.3,988 C477.1,1016 589.5,1036.7 750.3,1056.9 C824.3,1066.2 1026.8,1089.3 1027.6,1088.5 C1027.8,1088.3 1028.6,1061.4 1029.3,1028.8 C1030.3,977.5 1030.2,920.7 1028,609 C1026.6,410.7 1025.4,248.4 1025.4,248.4 C1025.3,248.3 1015.2,247.2 1002.8,246.1 C934.2,239.5 885.2,233.9 812.4,224.6 C631.8,201.3 607.9,199.1 535,198.3 C481.9,197.7 462.5,198.4 434.1,202 C393.4,207.2 366.3,215 336.8,230.1 C325.2,236.1 321,239 306.3,251.2 C275.4,276.8 257.3,289.4 249.4,290.7 C247.4,291 243,290.7 239.6,290 C221.4,286.5 207.2,272 199.6,249.5 C196.2,239.3 196.4,222.1 200.1,209.9 C205.6,191.7 216.1,171.5 229.6,153.3 C240.6,138.5 320.4,59.2 349,34.7 C379,9 397.3,0 419.6,0 C427,0 434.8,1.2 456.3,5.5 C490.1,12.2 672.7,50.1 723.8,61 C905.5,99.4 1048.4,115.2 1267.8,121 C1317.6,122.3 1479.9,122.3 1526.3,121 C1643.4,117.7 1723.9,110.5 1860.8,91 C1960.1,76.9 1975.8,75.5 1992.1,79.9 C2017.4,86.6 2035.4,104.8 2044.1,132.5 C2047.8,144.4 2049.1,154.4 2048.5,166.7 C2047.6,186.1 2041,200 2025.4,215.5 C2004.9,235.8 1974.3,251.2 1916.3,270.6 C1862.5,288.5 1807.1,302.5 1785.2,303.7 C1777.9,304.1 1772.5,303.8 1765.7,302.6 C1753.3,300.3 1720.6,292.8 1704.3,288.5 C1679.3,282 1644.8,277.2 1599.3,274 C1584.1,272.9 1192.7,266.8 1191.8,267.6 C1191.3,268.1 1195.5,979.7 1196.5,1055.1 L1197.1,1104.7 L1206.7,1107.4 L1216.3,1110 L1380.3,1116.5 C1541.5,1123 1546.4,1123.1 1665.3,1124.5 L1786.3,1125.9 L1970.3,1109.8 C2162.3,1093.1 2184.5,1091.6 2204.4,1093.9 C2236.3,1097.7 2257.6,1110.2 2267.6,1131.1 C2273.3,1143.1 2275.3,1152.7 2275.2,1168.5 C2275,1187.9 2270.6,1201.7 2259.3,1217.5 C2253.8,1225.2 2240.1,1238.4 2231.9,1244 C2218.2,1253.2 2188,1266 2150.4,1278.6 C2091.3,1298.3 2007.1,1319.2 1980.7,1320.7 C1968.1,1321.4 1965.1,1320.8 1929.8,1310.8 C1916.3,1307 1899.9,1302.5 1893.3,1300.9 C1881.4,1298 1877.3,1297.7 1545.8,1275.5 C1361.3,1263.2 1207.6,1252.9 1204.4,1252.6 L1198.5,1252 L1199.1,1280.2 C1199.5,1295.8 1200.6,1326.1 1201.7,1347.5 C1204.3,1398.7 1204.1,1391.8 1210.3,1586.5 C1216.5,1778 1216.8,1782.9 1226.2,1840 C1230.4,1865.6 1237.7,1914.7 1241.4,1942.5 C1244.7,1966.9 1245,1985.3 1242.4,1995 C1238,2011.3 1228,2027.6 1212.3,2043.8 C1194.7,2062.2 1187.5,2067.6 1131.3,2104.7 C1055.6,2154.7 1033.5,2166.5 1006.1,2171.6 C996.9,2173.3 963.4,2174.3 956.6,2173 L956.6,2173 Z" id="Shape" sketch:type="MSShapeGroup"></path>
        </g>
    </g>
</svg>