<?xml version="1.0" encoding="UTF-8" standalone="no"?>
<svg width="2036px" height="2274px" viewBox="0 0 2036 2274" version="1.1" xmlns="http://www.w3.org/2000/svg" xmlns:xlink="http://www.w3.org/1999/xlink" xmlns:sketch="http://www.bohemiancoding.com/sketch/ns">
    <!-- Generator: Sketch 3.0.4 (8054) - http://www.bohemiancoding.com/sketch -->
    <title>Slice 2</title>
    <desc>Created with Sketch.</desc>
    <defs></defs>
    <g id="Page-1" stroke="none" stroke-width="1" fill="none" fill-rule="evenodd" sketch:type="MSPage">
        <g id="Group" sketch:type="MSLayerGroup" transform="translate(1017.750000, 1136.750000) scale(1, -1) translate(-1017.750000, -1136.750000) translate(0.000000, 0.200000)" fill="#000000">
            <path d="M1765.9,2272.3 C1750.5,2270.5 1730,2262.8 1716.5,2253.8 C1701.6,2243.9 1694,2232.8 1694,2220.9 C1694,2208.9 1699.7,2200.9 1723.1,2179.9 C1742.5,2162.5 1756,2149.3 1762.9,2140.8 C1796.4,2100.3 1809.2,2048.7 1814,1935.3 C1815,1912.4 1813.7,1784.4 1812.4,1772.8 C1812.1,1770.1 1811.5,1476.4 1811.1,1120.3 C1810.4,538.7 1810.1,469.9 1808.6,443.8 C1806.3,403.1 1805.5,324.8 1806.9,278.9 C1809.1,207.1 1812,176 1820.6,133.3 C1826.4,104.4 1830,90.3 1836.1,72 C1848.5,34.7 1863.6,10.5 1879.2,2.9 C1889,-1.9 1901.5,-0.6 1911.3,6.2 C1952.3,34.4 1981,158.8 1987.2,334.4 C1988.3,365.9 1987.9,401.3 1982.7,732.9 C1975.1,1221.5 1973.2,1513.5 1977,1619.8 C1981.1,1736.4 1986,1808.6 1994.1,1872.8 C1997.9,1903.7 2001.2,1920.6 2008.2,1946.3 C2018.4,1983.8 2028.5,2023.8 2032.2,2041.4 C2038.8,2073.1 2035.9,2089.7 2019.5,2114.8 C2003.5,2139.4 1979.5,2162.8 1922,2209.8 C1892.7,2233.8 1888.2,2237.3 1876.7,2244.7 C1858.5,2256.6 1834.3,2266.1 1813,2269.7 C1805.3,2271 1775.1,2273.6 1773,2273.1 C1772.7,2273.1 1769.5,2272.7 1765.9,2272.3 L1765.9,2272.3 Z" id="Shape" sketch:type="MSShapeGroup"></path>
            <path d="M1016.1,2152.2 C994.3,2149.5 978.6,2142 954.3,2122.6 L945,2115.3 L945,2104.7 L945,2094.1 L949.3,2088.2 C951.6,2085 953.9,2082.3 954.4,2082.3 C956.6,2082.3 973.2,2073.7 980.7,2068.7 C990.6,2062.1 1005.5,2048.2 1014.2,2037.4 C1050.9,1992 1076.2,1912.2 1080.5,1828.8 C1080.9,1822.2 1081.8,1748.6 1082.5,1665.3 C1083.9,1516.5 1083.9,1510.5 1081.4,1327.3 L1078.8,1140.8 L1068.8,977.3 C1057.8,799.2 1056.6,766.3 1058.9,723 C1063.2,644 1075.9,580.4 1096.1,537.5 C1114.3,498.7 1137.1,479.3 1164.5,479.3 C1208.7,479.4 1236.6,525.5 1242,607.5 C1242.5,615.9 1243.5,628.2 1244.1,634.8 C1245.5,651 1245.3,788.8 1243.5,958.3 C1242.3,1074.3 1242.3,1122.3 1243.6,1307.3 C1245.3,1573.3 1247.7,1785.8 1249.1,1798.3 C1251.5,1820.9 1256.3,1849.6 1261.9,1873.8 C1273.8,1926 1275.4,1936.5 1273.1,1949.7 C1267,1984.9 1236.2,2032.1 1194,2071.1 C1148.2,2113.4 1098.1,2142.2 1055.9,2150.4 C1043.9,2152.7 1026.2,2153.5 1016.1,2152.2 L1016.1,2152.2 Z" id="Shape" sketch:type="MSShapeGroup"></path>
            <path d="M343.5,2109.7 C331.1,2107.7 319.7,2103 308.3,2095.1 C301.1,2090.1 276.9,2066.9 271.2,2059.5 L268.7,2056.2 L283.6,2041.2 C293.9,2030.8 304,2022 316.3,2012.6 C355.6,1982.6 367.5,1970.2 378.7,1947.8 C393.7,1918 399.3,1888.1 404.5,1810.8 C409,1743.4 409.3,1732.9 409.7,1577.3 L410.1,1426.8 L400.5,1301.3 C395.3,1232.3 389.9,1165 388.5,1151.8 C369.4,970 325.5,793 263.7,649.8 C242.5,600.7 209.8,536.9 181.3,488.9 C127.5,398.7 64.4,313.2 13.8,261.9 C0.6,248.5 0,247.8 0,243.8 C0,240.2 0.6,239.1 5.4,234.4 C10.8,229.1 10.9,229.1 15.5,229.7 C23.6,231 41,236.2 54.5,241.5 C89.1,255.2 125.1,278.2 164.5,311.9 C182.3,327.1 233,377.5 256,402.8 C284.8,434.6 334.3,491.5 342.1,501.8 C386.9,561.1 434.1,659.1 472.1,771.3 C526.7,932.3 559.5,1107 568.9,1286.8 C570,1307.4 570.5,1324.9 572.1,1397.3 C575.3,1551.1 583.7,1689 594.6,1766.8 C599.6,1802.3 601.2,1808.8 615.4,1852.1 C629.9,1896 634,1909.5 636.4,1921.5 C638.4,1931.1 638.4,1933.8 636.5,1944.8 C631.5,1973.3 613.2,1993.7 569.4,2019.2 C534.3,2039.8 466.4,2074.8 436.6,2087.7 C401,2103.1 379.5,2109.3 359.5,2109.8 C352.4,2110 345.2,2109.9 343.5,2109.7 L343.5,2109.7 Z" id="Shape" sketch:type="MSShapeGroup"></path>
        </g>
    </g>
</svg>