<?xml version="1.0" encoding="UTF-8" standalone="no"?>
<svg width="1111px" height="2222px" viewBox="0 0 1111 2222" version="1.1" xmlns="http://www.w3.org/2000/svg" xmlns:xlink="http://www.w3.org/1999/xlink" xmlns:sketch="http://www.bohemiancoding.com/sketch/ns">
    <!-- Generator: Sketch 3.0.4 (8054) - http://www.bohemiancoding.com/sketch -->
    <title>Slice 2</title>
    <desc>Created with Sketch.</desc>
    <defs></defs>
    <g id="Page-1" stroke="none" stroke-width="1" fill="none" fill-rule="evenodd" sketch:type="MSPage">
        <g id="Group" sketch:type="MSLayerGroup" transform="translate(555.400000, 1111.400000) scale(1, -1) translate(-555.400000, -1111.400000) translate(0.400000, 0.900000)" fill="#000000">
            <path d="M691.6,2220.4 C690.8,2220.2 686.8,2219.5 682.7,2218.9 C674.9,2217.6 665.8,2214.7 649.4,2208.4 L639.6,2204.6 L639.6,2191 L639.6,2177.4 L652.1,2162.5 C674.1,2136.2 681.7,2123.9 685.6,2108.5 C689.7,2092.2 687.7,2081.4 676.7,2060.3 C652.5,2014.1 586,1930.8 500.7,1839.6 C485.2,1823 473,1811.9 396.6,1745 C349,1703.4 283.6,1646.4 251.1,1618.4 C194.3,1569.5 192.1,1567.4 190.9,1563 C190.2,1560.5 189.3,1555.4 189,1551.7 C188.4,1545.5 188.5,1544.9 190.9,1542.5 C193.3,1540.1 194.2,1539.9 201.3,1539.9 C251.4,1539.9 357.8,1587.5 517.9,1681.6 L545.7,1697.9 L625.6,1761.9 C669.5,1797.2 711.5,1831.4 718.8,1838.1 C726.1,1844.8 769.1,1885.3 814.3,1928.2 C903.9,2013.1 899.7,2008.6 903.2,2023.4 C905.4,2033 904.7,2049.2 901.8,2057.2 C897.3,2069.5 887.9,2081.2 868.3,2098.7 C845.9,2118.6 784.3,2170.1 751.6,2196.3 C727.8,2215.3 718.9,2219.6 702.1,2220.4 C697.2,2220.6 692.4,2220.6 691.6,2220.4 L691.6,2220.4 Z" id="Shape" sketch:type="MSShapeGroup"></path>
            <path d="M762.4,1590.9 C738.8,1588 727,1576.6 725.9,1555.9 L725.4,1547.4 L739.7,1524.4 C755.8,1498.5 765.6,1480.3 768.2,1471.4 C770.5,1463.9 770.7,1444.5 768.7,1434.4 C765.8,1419.6 758.1,1401.8 747,1383.7 C712.1,1327.4 575.5,1183.6 453.1,1074.5 C358.3,990 267.3,919.8 196.6,876.6 C166.4,858.2 155.5,849.2 150.1,838.1 C145.1,828 145.8,815 151.6,810.8 C160.4,804.3 182.4,807.3 221.4,820.4 C306.8,849.2 429.2,912.2 526.6,977.4 C575.5,1010.2 589.6,1021.1 704,1114.3 L799.1,1191.7 L878.1,1272 C921.6,1316.1 963.3,1358.7 970.9,1366.7 C987.4,1383.9 989.6,1387.6 989.6,1399 C989.6,1423.4 973.6,1444.9 913.6,1501.4 C858.2,1553.5 835.1,1572.5 815.1,1582.3 C808.9,1585.4 801,1588.4 797.1,1589.3 C788.1,1591.2 771,1592 762.4,1590.9 L762.4,1590.9 Z" id="Shape" sketch:type="MSShapeGroup"></path>
            <path d="M912.1,929.1 C907.8,927.6 901.9,924.5 896.8,921.1 C895.7,920.4 897,914 903,889.3 C907.1,872.3 911.5,853 912.7,846.4 C914.9,835 914.9,834.2 913.4,826.9 C908.5,803.9 884.7,764.5 845.7,714.9 C823.7,686.9 809.5,671.5 731.3,590.7 L651.1,507.8 L553.5,420.9 L455.8,334.1 L366.5,268.9 C292,214.5 267.5,197.2 219.6,165.4 C124.6,102.2 82.4,75.3 51.6,58.4 C25.3,44 17.3,38.5 7.8,28.4 L-0.2,19.9 L1.3,14 L2.8,8.1 L14.9,4.6 C21.6,2.6 29.8,0.7 33.2,0.3 C56.1,-2.2 109.3,14.3 187,48.1 C199.7,53.6 249.4,77.4 297.3,101 C383,143.1 385.4,144.3 430.3,170.7 C467,192.3 498.7,212.3 590.1,271.8 L704.1,346 L796.1,420.3 L888.1,494.7 L953.1,556.4 C1045.2,643.9 1044.1,642.9 1062.7,656.1 C1095.2,679.3 1105.3,689.8 1108.5,704 C1110.1,710.7 1109.8,730.4 1108.1,737.8 C1106.3,745.4 1100.7,757.6 1093.5,769.7 C1086,782.2 1035.5,857.7 1027.5,868.4 C1004.8,898.7 980.4,917.9 954.1,926.2 C938.9,931 921.1,932.2 912.1,929.1 L912.1,929.1 Z" id="Shape" sketch:type="MSShapeGroup"></path>
        </g>
    </g>
</svg>