<?xml version="1.0" encoding="UTF-8" standalone="no"?>
<svg width="624px" height="2085px" viewBox="0 0 624 2085" version="1.1" xmlns="http://www.w3.org/2000/svg" xmlns:xlink="http://www.w3.org/1999/xlink" xmlns:sketch="http://www.bohemiancoding.com/sketch/ns">
    <!-- Generator: Sketch 3.0.4 (8054) - http://www.bohemiancoding.com/sketch -->
    <title>Slice 2</title>
    <desc>Created with Sketch.</desc>
    <defs></defs>
    <g id="Page-1" stroke="none" stroke-width="1" fill="none" fill-rule="evenodd" sketch:type="MSPage">
        <g id="Group" sketch:type="MSLayerGroup" transform="translate(312.000000, 1042.700000) scale(1, -1) translate(-312.000000, -1042.700000) translate(0.000000, 0.700000)" fill="#000000">
            <path d="M153.8,2084 L146.2,2083.6 L143.6,2077.1 C142.2,2073.6 141,2070.3 141,2069.8 C141,2069.4 142.9,2067.7 145.3,2066.2 C152,2061.7 185.8,2034.4 206.5,2016.7 C250.4,1979 284.9,1947 326.5,1905.3 C372.6,1859.1 402.8,1825.4 433.8,1785.7 C467.8,1742.2 477,1732.3 489,1726.4 C495.2,1723.3 495.9,1723.2 508,1723.2 C518.9,1723.3 521.4,1723.6 527.8,1725.9 C538.4,1729.7 545.3,1734.2 553.9,1742.8 C567.2,1756.1 575.9,1774.1 579.5,1795.6 C581.8,1809.4 581.1,1836.6 578.1,1850.9 C569.3,1891.8 544.9,1926.6 503.2,1957.6 C477.2,1976.9 436.5,1998.9 381.5,2023.1 C298.9,2059.6 251.7,2075.8 209,2082.2 C198.4,2083.8 167.9,2084.8 153.8,2084 L153.8,2084 Z" id="Shape" sketch:type="MSShapeGroup"></path>
            <path d="M8.5,1445.2 C2.1,1442.9 0,1439.7 0,1432.2 C0,1420.4 4.9,1411.6 17.4,1401.1 C20.8,1398.3 39.9,1383.5 60,1368.2 C80.1,1352.9 102.7,1335.4 110.2,1329.3 C125.4,1316.9 267.1,1193.7 276.5,1184.6 C279.8,1181.5 287.5,1175.1 293.7,1170.5 C321.5,1149.8 351,1134.9 373.4,1130.3 C407.8,1123.2 440.7,1140.3 452.7,1171.5 C457.2,1183.4 456.9,1204.2 451.9,1224.1 C440.7,1268.4 403.5,1308.9 342.3,1343.6 C313.2,1360.1 256.3,1384.6 216.6,1397.8 C177.3,1410.9 104.6,1429.3 42.2,1442.1 C18.2,1447 14.6,1447.4 8.5,1445.2 L8.5,1445.2 Z" id="Shape" sketch:type="MSShapeGroup"></path>
            <path d="M592.3,916.7 C581.9,912 571.1,896.8 556.2,866.2 C500,750.5 474.4,702.2 413.5,596.7 C301.3,402.7 246.9,317.7 212.2,282.3 C190,259.7 179.1,257.5 137,267.1 C89.3,278.1 82,278.8 71.5,273.9 C60.8,268.8 51.6,256.3 47.4,241.1 C45.3,233.2 44.5,214.1 45.9,204.8 C50.4,175.7 68.4,150.1 119.6,99.7 C173.6,46.6 215.9,11.2 235.1,2.9 C241.2,0.3 242.3,0.2 257,0.2 C270.5,0.2 273.3,0.5 278.2,2.4 C290.4,7 300.7,16.5 309.2,31.1 C315.9,42.5 319.4,51.1 326.8,73.7 C354,157.1 344.9,134.4 422.5,312.7 L493.2,475.2 L551.2,644.7 C583.1,737.9 610.9,819.6 613,826.2 C626.1,867.6 627.5,901.8 616.7,913.6 C611.8,918.9 600.3,920.4 592.3,916.7 L592.3,916.7 Z" id="Shape" sketch:type="MSShapeGroup"></path>
        </g>
    </g>
</svg>