<?xml version="1.0" encoding="UTF-8" standalone="no"?>
<svg width="2380px" height="1381px" viewBox="0 0 2380 1381" version="1.1" xmlns="http://www.w3.org/2000/svg" xmlns:xlink="http://www.w3.org/1999/xlink" xmlns:sketch="http://www.bohemiancoding.com/sketch/ns">
    <!-- Generator: Sketch 3.0.4 (8054) - http://www.bohemiancoding.com/sketch -->
    <title>Slice 2</title>
    <desc>Created with Sketch.</desc>
    <defs></defs>
    <g id="Page-1" stroke="none" stroke-width="1" fill="none" fill-rule="evenodd" sketch:type="MSPage">
        <g id="Group" sketch:type="MSLayerGroup" transform="translate(1190.050000, 690.750000) scale(1, -1) translate(-1190.050000, -690.750000) translate(0.300000, 0.500000)" fill="#000000">
            <path d="M1936.7,1379.4 C1916.3,1374.8 1814.1,1355.6 1787.7,1351.5 C1776.2,1349.7 1684.6,1342.6 1433.7,1324 L1095.2,1299 L783.2,1280.1 C536.4,1265.2 469.6,1261.4 463.6,1262.1 C449.6,1263.7 428,1272 415.1,1280.7 C387.5,1299.4 346.9,1317.3 323,1321.5 C288.7,1327.5 271.1,1316.8 256.4,1281.2 L252.6,1271.9 L270,1252.7 C304.1,1215.1 322.2,1193.3 330.2,1180.5 C335.5,1172.1 338.4,1162.4 343.7,1136 C355.3,1078 367.4,989.6 374.2,912.5 C375.7,895.2 423.7,193.7 423.4,193.3 C423,193 175.9,180 169.8,180 C148.7,180 122.7,194.4 65.2,238 L43.2,254.6 L36.3,253.3 C22.5,250.8 13.3,243.9 7.7,231.7 C-0.1,215.1 -2.2,188.6 2.3,165 C7.2,138.8 24.1,107.1 47.5,80 C82.2,39.8 132.6,8.7 174.6,1.6 L184.1,-6.82121026e-13 L191,4.1 L198,8.3 L326.6,32.1 L455.2,56 L610.7,69.5 L766.2,82.9 L974.2,94.9 L1182.2,107 L1465.2,113.6 L1748.2,120.2 L1885.7,115 L2023.2,109.8 L2154.2,94.7 C2280.1,80.2 2286,79.7 2304.7,79.7 C2321.3,79.7 2325.3,80 2331.8,81.8 C2348.4,86.3 2359.9,95.1 2366.9,108.5 C2370.6,115.6 2376.5,133.5 2378.8,144.6 C2380,150.6 2380,150.7 2375.8,162.1 C2367.9,183.2 2359.9,195.6 2347.8,205.3 C2338.6,212.7 2337.2,213.7 2320.2,223.1 C2272.7,249.4 2217.7,271.3 2178.3,279.6 C2161.7,283.1 2140.9,283.8 2118.2,281.5 C2108.9,280.6 2081.9,277.5 2058.2,274.5 C2034.6,271.5 2009.1,268.6 2001.8,268.1 C1985.3,266.8 1938.8,266.7 1936.8,267.9 C1935.5,268.7 1945.4,327.4 2001.1,651.2 C2045.8,910.9 2068,1037.3 2070.3,1045.5 C2076.4,1068 2084.7,1085.4 2101.3,1111 C2116,1133.5 2132.5,1161.3 2136.7,1170.5 C2141.4,1180.6 2142.7,1186 2142.7,1195.5 C2142.7,1218 2122.9,1249.4 2083.2,1289.9 C2047.2,1326.6 2009,1356.1 1978.2,1371 C1960,1379.8 1948.5,1382.1 1936.7,1379.4 L1936.7,1379.4 Z M1894.5,1208.7 C1900.5,1205.6 1904.7,1200.3 1907.4,1192.7 C1910.5,1183.7 1909.6,1166.3 1902.4,1095 C1898.7,1059.5 1895.3,1024.9 1894.7,1018 C1894,1011.1 1880.5,913 1864.6,800 L1835.7,594.5 L1807.6,427.5 C1792.2,335.7 1779.4,260.4 1779.2,260.2 C1778.9,259.8 1461.3,249 1461.1,249.3 C1461,249.4 1463.6,274 1466.8,304 C1480.8,435.1 1488.2,512.8 1495.7,608 C1506.7,747.9 1526.9,973.1 1531.2,1003.8 C1532,1009.4 1535.1,1023.2 1538.2,1034.3 C1549.1,1074.2 1550.3,1082.8 1547.1,1095.9 C1541.8,1117.3 1526.7,1138.7 1491.4,1174.6 L1470.7,1195.8 L1477.9,1196.4 C1481.9,1196.7 1527.3,1199.7 1578.7,1203.1 L1672.2,1209.1 L1763.2,1210.5 C1813.3,1211.2 1862.1,1211.7 1871.7,1211.6 C1888.7,1211.4 1889.4,1211.4 1894.5,1208.7 L1894.5,1208.7 Z M1315.2,1182.1 C1316,1180.5 1323.7,1169.3 1332.3,1157.3 C1352,1129.9 1359.5,1118.8 1361.4,1114.2 C1363.8,1108.3 1364.7,1075.9 1363.7,1023.5 C1362.4,954.7 1362.7,961.4 1347.1,715.5 C1332.9,490.8 1332.6,487.3 1321.7,364.5 C1315.6,296.3 1310.4,240 1310.3,239.5 C1309.9,238.5 1009,227.4 1008,228.4 C1007.4,229 1007.1,270.3 1007.5,333.5 C1007.7,383.8 1006.9,467.2 1004.7,596.6 C1004.2,628.5 1003.5,725.9 1003.1,813.1 C1002.4,990.3 1001.7,966.6 1009.6,1036 C1013.8,1073.2 1014.3,1082 1012.3,1090.3 C1008.2,1107.7 998.2,1120.1 965.8,1147.9 L953.5,1158.5 L958.8,1159.2 C967.7,1160.3 1299.3,1184.6 1309.4,1184.9 C1313.1,1185 1313.8,1184.6 1315.2,1182.1 L1315.2,1182.1 Z M786.3,1143.8 C808.7,1127.1 826,1093.2 831.1,1056 C835.4,1025.5 839.7,938.8 841.7,845 C842.3,818.3 845.4,671.4 848.7,518.6 C852,365.7 854.7,235.2 854.7,228.6 L854.7,216.5 L717.5,208.7 C642,204.4 579.5,200.9 578.7,200.9 C577.4,201 577.2,205.1 577.5,232.7 C577.8,257.6 577.4,271.2 575.8,295 C574.6,311.8 568.3,407.9 561.7,508.5 C551.1,671.1 548.3,708.7 536.7,846 C524.9,985.3 523.4,1006.3 520.9,1059.8 C519.4,1092.3 518.2,1119 518.2,1119.1 C518.2,1119.1 577.4,1125.1 649.7,1132.4 C722,1139.8 781.7,1145.8 782.3,1145.9 C782.9,1145.9 784.7,1145 786.3,1143.8 L786.3,1143.8 Z" id="Shape" sketch:type="MSShapeGroup"></path>
        </g>
    </g>
</svg>