<?xml version="1.0" encoding="UTF-8" standalone="no"?>
<svg width="1224px" height="2009px" viewBox="0 0 1224 2009" version="1.1" xmlns="http://www.w3.org/2000/svg" xmlns:xlink="http://www.w3.org/1999/xlink" xmlns:sketch="http://www.bohemiancoding.com/sketch/ns">
    <!-- Generator: Sketch 3.0.4 (8054) - http://www.bohemiancoding.com/sketch -->
    <title>Slice 2</title>
    <desc>Created with Sketch.</desc>
    <defs></defs>
    <g id="Page-1" stroke="none" stroke-width="1" fill="none" fill-rule="evenodd" sketch:type="MSPage">
        <g id="Group" sketch:type="MSLayerGroup" transform="translate(612.000000, 1004.100000) scale(1, -1) translate(-612.000000, -1004.100000) translate(0.000000, 0.100000)" fill="#000000">
            <path d="M983,2007.9 C975.6,2006.7 950.4,1998.2 923,1987.6 C883.4,1972.3 866.8,1966.1 858.6,1963.6 C853.9,1962.2 765.5,1946.9 651,1927.7 C541.3,1909.3 448.6,1893.7 445,1893.1 C441.4,1892.5 427.7,1889.3 414.5,1886.1 C391,1880.3 382.7,1878.8 348.5,1873.6 C287.9,1864.4 236.4,1858.4 209.5,1857.5 C188.3,1856.7 179,1857.9 135.5,1866.5 C94.9,1874.7 88.6,1875.5 70.8,1874.9 C58.6,1874.5 55.3,1874 48.5,1871.7 C37.4,1867.9 30.5,1863.8 23.5,1856.6 C12.9,1845.9 8.5,1832.6 11.5,1820.9 C14.1,1810.7 19.7,1803.3 35.5,1789.1 C59.9,1767.1 68,1754.2 95.1,1694.2 C111.6,1657.9 112.1,1655.8 130.5,1553.7 C135.2,1527.8 140.8,1496.9 143,1485.1 C146.4,1466.8 150.3,1432.5 169.5,1251.1 C182,1133.4 193,1034.1 194.1,1028.6 C199.9,1000.3 213.6,971 229,953.9 C235,947.1 246.7,939 254.2,936.5 C260.9,934.1 279.7,933.9 285,936 C294.9,940 301.7,947.5 324.2,979.4 C338.9,1000.3 339.2,1000.6 344.3,1002.4 C353,1005.4 365.1,1008 383.2,1010.5 C406.7,1013.9 572.9,1032.3 574.5,1031.8 C577.6,1030.6 578,1016.3 579.3,888.1 L580.5,759.5 L508,746.7 C468.1,739.7 418.1,730.8 396.8,727 C350.9,718.8 340.2,717.7 315.6,719 C305.6,719.6 268.5,720.6 233.1,721.2 C181.5,722.2 167.6,722.2 162.6,721.2 C149.8,718.6 138.5,709.8 133.2,698.3 C129.5,690.2 129.6,678.5 133.4,668.7 C149.9,625.8 220,582.8 288.4,573.6 C307.9,571 343.8,571.9 360.7,575.5 C376.5,578.9 400.6,586.8 430,598.2 C475.4,615.8 495,622 524.5,628.1 C537.4,630.8 579.7,638.1 582.2,638.1 C582.6,638.1 582.9,568.7 582.8,483.9 L582.5,329.7 L573.5,324.4 C563,318.3 541.6,309.6 517.5,301.8 C497.4,295.2 265.3,223.9 253,220.5 C242.4,217.6 222.2,213.9 200.9,210.9 C187.3,209 180.1,208.6 159,208.7 C134.5,208.7 133.1,208.8 123.7,211.4 C118.2,212.8 106,217.6 96.2,222.2 C65.3,236.4 42,245.1 34.9,245.1 C33.5,245.1 29.9,244.4 27,243.5 C12.6,239.2 0,215.9 0,193.7 C0,162 26.8,117.2 73.9,70 C108.7,35.2 141.5,12 170,1.9 C175.8,-0.1 178.3,-0.4 192.5,-0.4 C217,-0.4 207.6,-4.5 341.7,65 L430.5,111 L596,182.4 C782.2,262.8 922.2,324.7 955.3,341.2 C1011.3,369.2 1076.4,405.5 1103,423.5 C1115.2,431.8 1124.8,440.8 1128,447.1 C1131.2,453.3 1131.4,463.9 1128.4,469.6 C1123.8,478.5 1111.1,484.2 1096,484.3 C1078.2,484.4 1030.8,470.6 945,440.5 C914.4,429.8 724,367.7 723.5,368.3 C723.1,368.7 725.8,662.3 726.2,662.6 C726.4,662.7 771.7,668.3 827,675.1 C1023.3,699 1019.6,698.5 1041.3,705.2 C1074,715.2 1093.3,732 1099.5,755.6 C1101.9,764.6 1101.7,780 1099.1,788.2 C1091.9,811 1066.2,832.3 1032.9,842.9 C1016.7,848.1 1007.2,849.5 989.5,849.5 C975.4,849.5 972.4,849.2 964,846.9 C958.8,845.5 913.3,832.5 863,818.1 C776.9,793.5 770.2,791.7 748.5,788 C735.9,785.9 724.9,784.1 724.3,784.1 C722.5,784.1 722.4,1052.7 724.2,1056.5 C724.9,1058.2 726.3,1059.2 728.4,1059.5 C730.1,1059.8 755.4,1063 784.5,1066.6 C908.8,1082.1 905.3,1081.8 913.4,1078.2 C916.5,1076.9 924.1,1070.2 937.9,1056.8 C959.8,1035.5 968.6,1028.3 977,1024.9 C981.9,1022.9 984.2,1022.6 997,1022.7 C1009.9,1022.8 1012.4,1023.1 1019.5,1025.4 C1030.7,1029.1 1038.9,1034.3 1049.1,1043.9 C1070,1063.7 1085.7,1096.4 1093.9,1137.2 C1095,1142.9 1108.1,1256.5 1123,1389.6 C1137.9,1522.7 1150.7,1635.2 1151.6,1639.6 C1155.3,1659 1165.4,1694.1 1177,1728.6 C1182.7,1745.4 1186.8,1755.2 1197.5,1777.1 C1218.4,1820.2 1224,1834.5 1224,1844.6 C1224,1863.8 1206.8,1886.4 1176,1907.7 C1171.3,1910.9 1159.9,1919 1150.5,1925.6 C1067.8,1984.6 1011.2,2012.4 983,2007.9 L983,2007.9 Z M979.9,1848.5 C992.4,1843.3 1000.6,1828 1004.5,1803.1 C1009.5,1770.7 1005.5,1680.8 996.9,1631.7 C994,1615.3 992.1,1609.9 989,1609 C984.9,1607.7 729,1566.8 728.5,1567.3 C727.5,1568.3 726,1627.3 726,1668.6 C726,1724.1 724.6,1739.8 718.3,1757.6 C714.9,1767 706.6,1782.9 697.1,1798.1 C692.8,1805 689.6,1810.7 689.9,1810.8 C693.7,1812.2 872.3,1843.8 886.5,1845.6 C927.5,1850.7 971.2,1852.1 979.9,1848.5 L979.9,1848.5 Z M506.8,1767.6 C529.7,1757.3 547.5,1716.5 557.4,1652.1 C562,1621.7 565,1586.8 565,1562.2 C565,1545.7 564.1,1543.8 554.2,1538.3 C546.2,1533.9 539,1532.7 467,1523.1 C396.9,1513.8 388.6,1512.6 368.5,1508.5 C346.6,1504.1 320.2,1499.6 307.4,1498.1 C294.8,1496.6 289.8,1497.7 287,1502.4 C283.2,1508.6 282.8,1511.2 269.5,1627.6 C265.1,1666.1 261.3,1704.4 260.4,1719.2 L259.7,1730.9 L268.6,1732.9 C308.5,1742.1 451,1766.3 489,1770.4 C494.8,1771.1 501.2,1770 506.8,1767.6 L506.8,1767.6 Z M980.7,1475.1 C984.9,1472.6 986.4,1467.1 985.5,1458.1 C984.5,1447.7 979.1,1409.6 977,1397.6 C975.9,1391.6 971,1356.1 966,1318.9 C956.7,1248.8 954.4,1234.4 951,1224.5 C946.9,1212.7 940.8,1207 928.1,1203 C921.4,1201 724.4,1174.4 723.3,1175.4 C723,1175.7 722.4,1183.1 721.8,1191.8 C720.6,1211.5 721.5,1417.8 722.8,1430.8 C724.7,1449 728.5,1451.3 762,1454.6 C770.5,1455.5 810.6,1460 851,1464.6 C974.1,1478.8 974.7,1478.8 980.7,1475.1 L980.7,1475.1 Z M570.4,1414.4 C572.5,1396.3 575,1269.7 575,1179 L575,1153.4 L567.8,1151.3 C552.3,1146.8 504.5,1139.1 457.5,1133.5 C454.8,1133.2 443.1,1131.2 431.5,1129 C389.1,1121.2 367.7,1118 353.5,1117.4 L339.5,1116.8 L336.4,1119.4 C332.5,1122.7 331.4,1126.9 329.5,1145.5 C328.7,1153.2 326.9,1167.9 325.5,1178.1 C314.2,1260.4 305,1347.6 305,1372.9 L305,1385.1 L320.3,1385.2 C334.9,1385.2 339.7,1385.9 443.5,1402.1 C520.8,1414.1 554.1,1418.9 560.7,1419 L569.8,1419.1 L570.4,1414.4 L570.4,1414.4 Z" id="Shape" sketch:type="MSShapeGroup"></path>
        </g>
    </g>
</svg>