<?xml version="1.0" encoding="UTF-8" standalone="no"?>
<svg width="2265px" height="2132px" viewBox="0 0 2265 2132" version="1.1" xmlns="http://www.w3.org/2000/svg" xmlns:xlink="http://www.w3.org/1999/xlink" xmlns:sketch="http://www.bohemiancoding.com/sketch/ns">
    <!-- Generator: Sketch 3.0.4 (8054) - http://www.bohemiancoding.com/sketch -->
    <title>Slice 2</title>
    <desc>Created with Sketch.</desc>
    <defs></defs>
    <g id="Page-1" stroke="none" stroke-width="1" fill="none" fill-rule="evenodd" sketch:type="MSPage">
        <g id="Group" sketch:type="MSLayerGroup" transform="translate(1132.500000, 1066.200000) scale(1, -1) translate(-1132.500000, -1066.200000) translate(0.500000, 0.400000)" fill="#000000">
            <path d="M1866.5,2129.1 C1859.1,2127.5 1844,2123.9 1833,2121.2 C1815.8,2116.8 1804.9,2115 1755.5,2108 L1698,2099.9 L1391,2080 C1087.8,2060.3 1082.5,2059.9 966.3,2049.5 C801.9,2034.9 522.3,2011.8 502.4,2011.3 C484.3,2010.8 468.5,2012.2 444.5,2016.6 C429,2019.5 420.9,2021.5 370,2035 C305.2,2052.1 281.2,2057.1 263.8,2057.1 C235.4,2057 220.8,2048.8 201.2,2022.1 C193.7,2012 193.6,2011.7 195.3,2009.6 C210.2,1991.2 219.3,1979.4 227.5,1967.9 C275.5,1900.3 303,1833.5 317.5,1749.5 C318,1746.2 329.5,1658.7 342.9,1555 C365.4,1381.7 368.8,1357.1 385.5,1250 C404.8,1125.4 410,1093.8 414,1078.7 C420.6,1053.3 430.9,1035.1 450,1015.2 C476.6,987.3 506.4,978.2 529.9,990.8 C532.7,992.3 538.8,997.3 543.5,1002 C551.6,1010.1 556.3,1016.6 569.6,1038.3 C579.2,1054 589.3,1063.4 605.2,1071.4 C630.2,1083.9 670.8,1092.8 737,1100.4 C758.8,1102.9 1024.6,1126.3 1024.9,1125.8 C1025.3,1125 1022.3,755.5 1021.9,755.1 C1021.7,754.8 912.4,742.6 779.2,727.8 C511.4,698.3 524.6,699.4 486,702.5 C433.8,706.7 404,713.2 357.8,730.3 C319.9,744.4 313.6,746.4 306,746.4 C295.7,746.4 285.6,740 278.4,728.9 C266.1,709.7 270,683.4 289.4,654.3 C318.5,610.8 385.9,558.6 441.5,536.6 C459.2,529.6 468.6,527.7 482.5,528.3 C495.3,528.8 506,530.9 561.5,544.1 C579.9,548.5 599.1,553 604,554.1 C625.7,558.8 1015.5,611.3 1017.1,609.7 C1017.2,609.6 1016.1,527 1014.7,426.3 L1012.1,243 L981.1,243 L950,243 L920.5,238.5 C904.3,236 890.4,233.7 889.6,233.4 C888.8,233.2 824.5,227.1 746.6,220 C551.7,202.1 379.2,185.5 354.6,182.3 C336.2,179.9 330.7,179.6 304,179.5 C272,179.5 265.9,180.1 238.5,185.6 C195.9,194.3 131.5,214.3 94.5,230.5 C52,249 44,251.6 35.2,250 C20.7,247.2 7.5,233.2 1.9,214.4 C-0.6,206.4 -0.6,187.1 1.8,178 C6.6,159.7 16.5,146.7 59.9,101 C124.4,33.1 177.3,0 221.2,0 C236.9,0 264.5,5.5 378.5,31.1 L435.9,44 L571.5,63.1 L707,82.1 L895,98.1 L1083,114 L1192.5,118.1 L1302,122.2 L1533,121 C1660.1,120.4 1800.5,119.2 1845,118.4 L1926,116.9 L1991.5,107 C2027.5,101.5 2074.1,93.8 2095,89.9 C2167.1,76.5 2178.1,74.9 2195.5,74.7 C2216.6,74.6 2229.1,79.5 2243.1,93.5 C2249.7,100.1 2252.1,103.4 2255.9,111.1 C2262.7,125 2264,130.8 2264,148 C2264,162 2263.9,162.7 2260.9,169.7 C2252.3,189.4 2235.4,207 2207.4,225.3 C2174,247.2 2130.2,265.7 2085.7,276.9 C2044.9,287.1 2029.5,287.7 1978,281.2 C1935.2,275.8 1933.7,275.7 1815.5,269.9 L1715,265 L1445.7,260.9 C1297.6,258.6 1176.2,257 1175.9,257.2 C1175.1,258.1 1177.9,621.7 1178.8,622.6 C1180.7,624.5 1291.1,634.6 1322.7,635.8 C1341.3,636.5 1613.3,634.8 1673,633.6 C1689,633.3 1720.7,632.1 1743.5,631 C1862.9,625.4 1887.4,624.9 1901.3,628.4 C1923.3,633.9 1934.9,648.3 1937,672.7 C1937.9,682.7 1936.2,689.8 1929.4,703.9 C1910.7,743.2 1874.9,775.1 1831.5,791.3 C1809.9,799.3 1787.2,803.7 1762,804.7 C1743,805.4 1730.8,804.1 1671.5,794.9 C1650.3,791.6 1625.8,787.8 1617,786.5 C1603.7,784.4 1566,782 1391.6,772 C1276.4,765.4 1182,760.2 1181.7,760.5 C1180.8,761.4 1183.5,1036.9 1184.6,1056 C1186.1,1082.2 1191.1,1141.9 1191.8,1142.6 C1192.8,1143.5 1259.5,1146.5 1321,1148.6 C1391,1150.9 1407.4,1151.1 1501.5,1150.8 L1605,1150.4 L1625.5,1147.7 C1672.7,1141.3 1679.5,1138 1696.1,1113.5 C1724,1071.8 1753.4,1051.9 1786.9,1052 C1827.6,1052.1 1858.3,1086.5 1881.3,1158 C1890.9,1187.8 1899.1,1222.8 1910,1280.5 C1933.5,1404.8 2012.1,1811.1 2015,1823.5 C2022.7,1855.6 2035.7,1888.8 2050.6,1914.5 C2055.1,1922.2 2061.6,1933.5 2065.1,1939.6 C2074.5,1955.9 2076.7,1961.8 2077.3,1972.6 C2077.8,1983.4 2076.6,1989.7 2071.9,1999.6 C2062.2,2020.1 2039.1,2044.7 2006,2069.5 C1971.4,2095.5 1930,2119.2 1903.5,2128.1 C1890.3,2132.5 1883.4,2132.7 1866.5,2129.1 L1866.5,2129.1 Z M1764,1974 C1804.3,1971.4 1831.1,1962.3 1838.2,1948.6 C1841,1943.2 1838.6,1898.8 1834,1869 C1831.7,1854.6 1800.3,1691.6 1799.6,1690.8 C1799.3,1690.5 1747.7,1689.4 1685,1688.5 L1571,1686.9 L1399.5,1678 C1305.2,1673.1 1225,1668.8 1221.4,1668.6 L1214.8,1668 L1213.5,1692.9 C1211.9,1723 1212.3,1731.3 1217.5,1777.5 C1222.3,1819.6 1223.3,1839.1 1221.6,1853.9 C1217.9,1885.5 1207,1906.9 1181.2,1933.7 C1173.8,1941.3 1173.4,1941.9 1175.6,1942.4 C1176.9,1942.7 1229.8,1947 1293,1952 C1422.2,1962.1 1501.7,1966.4 1660.5,1971.9 C1705.9,1973.5 1744.1,1974.8 1745.5,1974.9 C1746.9,1974.9 1755.2,1974.5 1764,1974 L1764,1974 Z M975.2,1918.3 C999.4,1891.3 1010.6,1868.4 1018.9,1829.2 C1024.3,1803.5 1026.7,1780.5 1030,1720.5 C1032.5,1675 1032.9,1657 1031.7,1657 C1031.1,1657 981.2,1652.5 920.8,1647 C818.4,1637.6 802.2,1635.9 679.9,1621 C550.8,1605.2 548.5,1605 531.4,1605.2 L514.1,1605.5 L494.3,1739 C483.5,1812.4 474.5,1875.5 474.5,1879.3 C474.5,1885.7 474.6,1886 476.8,1886 C486.5,1886 766.6,1908.1 806.5,1912 C888.2,1920 936.8,1924.2 960.5,1925.3 C964.1,1925.5 967.3,1925.7 967.6,1925.8 C968,1925.9 971.4,1922.5 975.2,1918.3 L975.2,1918.3 Z M1783.2,1558.8 C1782.9,1557.5 1770.4,1494.6 1755.4,1419 C1740.5,1343.4 1727.9,1281.1 1727.5,1280.6 C1727,1280.1 1657.5,1280.3 1566.8,1281 L1407,1282.3 L1300.7,1277 C1242.2,1274.1 1194.2,1272 1193.9,1272.3 C1193.1,1273 1204.5,1528.8 1205.6,1537.1 L1206.7,1544.7 L1224.3,1545.8 C1234.1,1546.4 1310.9,1549.7 1395,1552.9 C1551.3,1559.1 1596.9,1560.1 1749.4,1560.8 L1783.7,1561 L1783.2,1558.8 L1783.2,1558.8 Z M1032.5,1519.8 C1032.5,1513.6 1031.4,1458.3 1030,1397 C1027.9,1299.3 1026.8,1270.8 1024.8,1262.4 C1024.4,1260.5 1022.6,1260.1 1000.2,1257.2 C951,1250.8 906.9,1246.3 884,1245.4 C868,1244.8 647,1221 610,1216 C585,1212.5 569.8,1209.7 561.9,1207 C558.9,1205.9 556.5,1205.4 556.5,1205.8 C556.5,1206.2 554.7,1216.8 552.5,1229.5 C549.4,1247.1 546.2,1274.1 539,1344.5 C533.5,1397.9 528.5,1442.1 527,1449.8 C523.7,1467.5 524.6,1471.1 533.6,1475 C546.1,1480.3 558.7,1482.1 700,1498.5 C802.2,1510.4 830.4,1513.3 923.5,1521.4 C982.1,1526.6 1030.6,1530.8 1031.3,1530.9 C1032.2,1531 1032.5,1528.1 1032.5,1519.8 L1032.5,1519.8 Z" id="Shape" sketch:type="MSShapeGroup"></path>
        </g>
    </g>
</svg>