<?xml version="1.0" encoding="UTF-8" standalone="no"?>
<svg width="2441px" height="2415px" viewBox="0 0 2441 2415" version="1.1" xmlns="http://www.w3.org/2000/svg" xmlns:xlink="http://www.w3.org/1999/xlink" xmlns:sketch="http://www.bohemiancoding.com/sketch/ns">
    <!-- Generator: Sketch 3.0.4 (8054) - http://www.bohemiancoding.com/sketch -->
    <title>Slice 2</title>
    <desc>Created with Sketch.</desc>
    <defs></defs>
    <g id="Page-1" stroke="none" stroke-width="1" fill="none" fill-rule="evenodd" sketch:type="MSPage">
        <g id="Group" sketch:type="MSLayerGroup" transform="translate(1220.900000, 1207.500000) scale(1, -1) translate(-1220.900000, -1207.500000) translate(1.000000, 0.200000)" fill="#000000">
            <path d="M1206.5,2414.2 C1182.5,2411 1167.6,2406.4 1154,2398 C1137.4,2387.7 1132.8,2376.4 1139.8,2363.3 C1144.2,2355.1 1152.2,2344.6 1167.3,2327.5 C1184.5,2307.8 1190.3,2299.9 1195.5,2289.3 C1205,2269.9 1208,2250.9 1208,2209.5 C1208,2173.1 1209.8,2086.6 1210.5,2083.5 C1211.1,2081.3 1211.1,2081.3 1047.3,2061 C878.6,2040.1 701,2020.2 637.5,2015.2 C619.4,2013.7 597.1,2012.5 588,2012.5 C560.4,2012.5 441.4,2022.5 416.5,2026.9 C409.2,2028.2 397.9,2034.6 368.4,2054 L347.2,2067.9 L338.4,2067.6 L329.6,2067.3 L327.3,2061.3 C322.6,2049.4 321.7,2043.5 322.3,2027.3 C322.9,2010 324.9,1998 329.1,1985.3 C338.2,1958 352.1,1939.6 387,1908.8 C405.8,1892.2 415.7,1882 419.6,1875.3 L422.5,1870.3 L422.4,1810.8 C422.3,1751.5 421.3,1709.4 418.5,1647.8 C401.9,1287.7 343.5,983.3 243,733.3 C223,683.5 203.2,639.7 175.9,584.8 C155.5,543.6 151.2,535.7 110,463.3 C53.4,363.7 34.1,328.9 17.5,296.2 C-2.8,256.1 -4.2,248.5 7.1,238.4 C12.3,233.7 20.3,230.1 27.4,229.2 C30.7,228.8 32.4,229.3 36.5,231.7 C46.9,237.9 65.6,254.1 97.4,284.5 C136.6,322.1 138.1,323.9 208.4,417.7 L272.5,503.3 L329.8,608.6 L387.1,713.9 L419,788.3 L450.8,862.6 L481.5,978.5 L512.1,1094.3 L534.7,1214.8 L557.2,1335.3 L564,1401.3 C567.7,1437.6 577.4,1546.3 585.4,1642.8 C593.5,1739.3 600.5,1823.3 601,1829.3 C601.5,1835.4 602.7,1845.1 603.6,1851.1 L605.3,1861.8 L613.4,1864.3 C636.1,1871.2 695.2,1882.5 764.5,1893.2 C784.3,1896.3 874.5,1908.4 965,1920.3 L1129.5,1941.7 L1323.5,1959.3 C1430.2,1968.9 1587.9,1982.7 1674,1989.8 L1830.5,2002.9 L1999,2005.8 C2091.7,2007.5 2171.1,2009.3 2175.5,2009.8 C2215.9,2015.1 2240,2029 2248.2,2051.7 C2251.1,2059.5 2251.1,2075.7 2248.2,2084.5 C2239.9,2110.4 2212.1,2133.1 2169,2149.1 C2129.8,2163.7 2076.2,2174.2 2028.6,2176.8 C2006.8,2177.9 1994.6,2176.5 1935.3,2166.3 C1842.5,2150.2 1842.6,2150.2 1737.7,2138.3 C1633.2,2126.5 1370.9,2097.8 1367.6,2097.8 C1366,2097.8 1365.8,2098.4 1366.3,2103.1 C1366.7,2105.9 1367.8,2119.1 1369,2132.3 C1370.1,2145.5 1371.9,2160.6 1373,2165.9 C1374.1,2171.2 1379.5,2189.9 1384.9,2207.4 C1405.7,2274.7 1408.1,2286.2 1404.5,2300.1 C1394.6,2338 1329.6,2386.7 1262,2406.7 C1244.1,2412.1 1217.4,2415.7 1206.5,2414.2 L1206.5,2414.2 Z" id="Shape" sketch:type="MSShapeGroup"></path>
            <path d="M1458,1944.8 C1450.3,1944 1444.8,1942.3 1440,1939.3 C1435.7,1936.6 1422,1922.3 1422,1920.5 C1422,1919.8 1430.4,1906.9 1440.6,1891.8 C1450.8,1876.7 1459.8,1863 1460.6,1861.5 C1465.8,1851.8 1471.2,1814.3 1474.1,1767.3 C1475.3,1748.4 1476,1654.5 1474.9,1653.4 C1474.6,1653.1 1465.4,1652 1454.4,1650.9 C1435.2,1648.9 1196.5,1617.2 1180.8,1614.4 L1173,1613.1 L1173,1647.9 L1173,1682.7 L1179,1710.5 C1187.1,1748.5 1190,1764.7 1190.7,1775.3 L1191.2,1784.3 L1186.9,1790.8 C1181.6,1798.9 1160.7,1819.9 1148,1829.9 C1094.5,1872.3 1038.9,1895 995,1892.5 C971.5,1891.1 953,1882.5 945.5,1869.4 C938.9,1857.7 941.7,1853.1 976.1,1819.9 C991.6,1804.9 995.3,1800.8 998.3,1795.1 C1005.4,1781.5 1007.9,1764.9 1011,1712.3 C1012.6,1683.6 1017,1591.5 1016.8,1591.3 C1016.6,1591.2 1010.2,1590.6 1002.5,1589.9 C994.8,1589.3 958.1,1585.6 921,1581.8 C817.2,1571.2 789.3,1568.7 766.3,1568.1 C733.3,1567.2 729.6,1568.1 691.3,1586.6 C663.1,1600.2 658.9,1601.8 651.1,1601.8 C643.7,1601.8 639.6,1599.2 636.7,1593 C634.7,1588.7 634.5,1586.7 634.5,1571.3 L634.6,1554.3 L638.4,1543 C642.6,1530.7 649.2,1518.4 657.7,1506.8 C665.8,1495.9 687.7,1474.5 701.1,1464.5 C734.9,1439.3 777.8,1419.8 799.5,1419.8 C807.4,1419.8 827.1,1424.2 987.3,1462.2 C1004.9,1466.4 1019.3,1469.8 1019.5,1469.8 C1020.4,1469.8 1021,1405.4 1021.6,1269.7 L1022.2,1120.1 L1012.9,1118.8 C1007.7,1118.1 1001.3,1116.9 998.5,1116.2 C995.8,1115.4 944.2,1109.1 884,1102.2 C766.2,1088.7 767.7,1088.8 752,1092.8 C738.3,1096.3 702.9,1109.7 663.6,1126.2 C657.6,1128.7 652.6,1130.8 652.4,1130.8 C651,1130.8 636.5,1117.9 634.2,1114.6 C630.8,1109.6 628,1101.1 628,1095.9 C628.1,1080.9 639,1058 655.7,1037.9 C683.6,1004.5 726.8,970.4 764,952.4 C789.2,940.3 801.2,938.4 820.1,943.7 C833.2,947.4 855,954.9 874.5,962.3 C882.8,965.5 892.3,969.1 895.8,970.4 C902.7,973 923,978.3 941,982.2 C990,992.7 1157.1,1018.1 1383,1049.3 L1574.5,1075.7 L1698,1083.7 L1821.5,1091.7 L1916.5,1089.3 C2036.1,1086.2 2046.3,1086.2 2056.1,1088.8 C2086.6,1096.8 2105,1117.8 2105,1144.9 C2105,1167.5 2088.6,1188.9 2053,1212.9 C2047,1217 2042.1,1221 2042,1221.8 C2042,1222.6 2044.3,1230.7 2047,1239.8 C2049.8,1248.9 2053.2,1260.6 2054.6,1265.8 C2056,1271 2070.2,1317.6 2086.2,1369.3 L2115.2,1463.3 L2127.1,1485.8 C2146.9,1523.5 2153,1537.8 2153,1546.6 C2153,1564.2 2133.4,1600.9 2105.4,1635.8 C2093.1,1651 2069,1676.1 2055.5,1687.8 C2030.3,1709.5 2008.8,1721 1993.5,1721 C1987.9,1721 1982.6,1719.9 1967,1715.3 C1956.3,1712.1 1944.1,1708.7 1940,1707.6 C1931.1,1705.4 1632.2,1670.2 1631.2,1671.3 C1630.9,1671.6 1632.4,1683.1 1634.5,1697 C1638.6,1725.1 1639.2,1727 1651.5,1754.7 C1665.2,1785.9 1667.1,1794.3 1663,1806.3 C1657.1,1823.4 1635,1852 1610.4,1874.3 C1556.1,1923.4 1500,1949.4 1458,1944.8 L1458,1944.8 Z M1895,1570.8 C1925.7,1569.2 1943.5,1565.7 1949.3,1560.4 C1951.7,1558.2 1952,1557.1 1952,1551.6 C1952,1548.1 1951.1,1541.3 1950.1,1536.3 C1941.5,1494.1 1893.1,1263.5 1890,1250 C1887.8,1240.6 1886,1231.9 1886,1230.9 C1886,1229.5 1884.9,1228.7 1881.3,1227.9 C1869,1225.1 1836.1,1220.8 1816,1219.3 C1804.3,1218.4 1610,1199 1602.2,1198 L1595.9,1197.1 L1596.5,1201.7 C1596.8,1204.2 1597.7,1215.5 1598.5,1226.8 C1599.2,1238.1 1604.8,1307 1610.9,1380 C1619.5,1482.5 1622,1516.7 1622,1530.1 L1622,1547.4 L1662.8,1553.1 C1720.3,1561.1 1734.6,1562.6 1797.5,1567.3 C1816.8,1568.7 1837.5,1570.2 1843.5,1570.7 C1859.4,1571.9 1872.9,1571.9 1895,1570.8 L1895,1570.8 Z M1468.7,1526.1 C1467.4,1520 1465.7,1492.3 1459.4,1373.8 C1455.8,1305.9 1452.6,1250 1452.4,1249.7 C1451.7,1248.5 1449,1213.6 1448.3,1197.4 L1447.7,1180.9 L1444.1,1180.3 C1442.1,1180 1426.6,1178.2 1409.5,1176.3 C1386.4,1173.8 1186.9,1144.9 1167.8,1141.4 L1165,1140.9 L1165,1182.1 C1165,1204.7 1166.1,1260 1167.5,1304.8 C1168.8,1349.6 1170.6,1409.9 1171.4,1438.6 C1172.2,1467.4 1173,1491.1 1173.2,1491.3 C1173.4,1491.4 1217.5,1497.5 1271.3,1504.8 C1346.4,1514.9 1436.5,1525.9 1467.9,1528.7 C1468.8,1528.8 1469.1,1528 1468.7,1526.1 L1468.7,1526.1 Z" id="Shape" sketch:type="MSShapeGroup"></path>
            <path d="M1440.2,1005.3 C1425.3,1002.6 1416.4,997.4 1414,990.2 C1411.6,982.9 1414.9,976.8 1439.5,943.8 C1447.9,932.5 1456,921 1457.4,918.1 C1465.8,901.4 1474.8,875.5 1479,856.2 C1484.4,831.1 1484.1,840.6 1485,650.8 C1486.1,408.9 1487.6,287.5 1489.6,276 C1497.7,229.2 1519.2,180.5 1546.3,148.1 C1565.2,125.5 1584.5,111.5 1618.2,96.1 C1689.2,63.7 1789.9,42.7 1917.5,33.8 C1988.5,28.9 2116.1,28.1 2178.5,32.3 C2305.5,40.7 2388.3,63.7 2422.4,99.9 C2437.5,115.9 2441.9,132.6 2439,163.7 C2438.3,171.5 2437.2,178.4 2436.6,179.2 C2436,179.9 2429.4,184.9 2422,190.3 C2399.5,206.6 2388.7,215.9 2383.6,223.7 C2375.9,235.3 2368.5,253.1 2363.4,272.8 C2357.5,295.1 2356.4,306.4 2348.9,413.8 L2341.6,517.3 L2333.7,528.1 C2329.4,534 2325.3,538.8 2324.8,538.8 C2323.4,538.8 2308,528.6 2304.7,525.4 C2303.1,524 2301,520.9 2300,518.5 C2297.7,513.3 2293.3,490.9 2288.5,459.8 C2281.9,417.3 2259.8,332.6 2243.5,287.3 C2238,271.9 2227,248.8 2221,239.7 C2203.5,213.3 2184.4,200.7 2153.1,194.8 C2130.2,190.5 2128.5,190.5 1954.5,187.2 C1816.3,184.5 1784.1,184.6 1764,187.3 C1702.1,195.8 1661.7,220.5 1641,262.5 C1630,285 1625.1,307.1 1622.9,344.8 C1621.5,368.6 1622,388.1 1626,455.3 C1627.6,483.9 1629.3,514.2 1629.8,522.7 L1630.5,538.1 L1679.5,553.8 C1738.5,572.6 1799.3,592.9 1826.5,602.8 C1837.5,606.8 1917.8,638.9 2004.9,674 C2092.1,709.1 2165.2,738.3 2167.4,738.8 C2169.7,739.3 2183.7,741.5 2198.5,743.7 C2213.4,746 2228.2,748.5 2231.5,749.3 C2252.1,754.6 2264.5,768.7 2266.6,789.2 C2267.2,794.9 2266.8,796.7 2261.7,811.9 C2236.7,886.5 2193.5,944.3 2145.5,967.2 C2129.2,975 2113.5,979.2 2095.5,980.4 C2079.2,981.5 2068.3,979.1 2061.7,972.9 C2058,969.5 2057.2,967.9 2056,961.7 C2054.6,954.6 2056.4,947.9 2065.4,924.8 C2074.8,901.2 2075,900.1 2071.7,894.5 C2062.1,878.2 2017.7,847.7 1931,798.1 C1871.8,764.2 1723.5,680.4 1713.5,675.2 C1708,672.3 1697,667.3 1689,664 C1681,660.7 1666.9,654.8 1657.5,651 C1648.2,647.1 1638.8,643.2 1636.6,642.3 L1632.8,640.7 L1633.4,647 C1633.7,650.5 1635.6,674.5 1637.5,700.3 L1641,747.3 L1649.5,785.3 C1660.7,836.1 1665,859.1 1665,868.6 C1665,877.8 1659.7,891.5 1651.2,903.9 C1619.7,950.6 1543.5,997.7 1486.5,1005.8 C1476.7,1007.2 1448.9,1006.9 1440.2,1005.3 L1440.2,1005.3 Z" id="Shape" sketch:type="MSShapeGroup"></path>
            <path d="M636,886.7 C613.5,885 602,876.6 592.5,855.3 L590,849.6 L602.8,837.4 C609.8,830.7 623.6,817.5 633.5,808.1 L651.4,790.9 L655.3,777.6 L659.2,764.3 L662,650.8 L664.9,537.3 L663.4,422.4 C661.7,284.1 664.4,311.5 640.1,182.5 C636.8,165.1 633.1,144.5 632,136.9 L629.9,122.9 L636.1,113.1 C689.3,29.2 715.4,3.4 750.3,0.2 C766.8,-1.3 779.9,6.4 845.5,55.8 C880.2,82 891.4,89.9 898.5,93.6 C900.8,94.7 947.3,115.3 1002,139.3 C1100.4,182.6 1103,183.8 1231.8,246.9 C1311,285.7 1366.6,313.5 1373.6,317.8 C1399.6,334 1413.3,346.5 1420.1,360.2 C1427.2,374.8 1426.5,386.8 1417.9,394.2 C1408.1,402.6 1395.5,402.4 1358.5,393.2 C1329.3,385.9 1283.5,372.3 1222.2,352.7 C1203.1,346.6 1180.1,339.2 1171,336.3 C1154.9,331.2 1138.8,325.7 998,277.6 C925,252.6 868.6,234.1 855.5,230.9 C844.2,228.1 834,226.9 829.4,227.7 C817.2,230 810.3,239.7 808,258 C806.7,268.7 806.6,490.1 808,512.8 C809.8,543.7 809.8,543.8 812.6,543.8 C814,543.8 822.4,545.4 831.3,547.3 C840.2,549.2 928.1,562.9 1026.5,577.8 C1258.5,612.9 1286.1,617.2 1306.5,620.9 C1369.3,632.2 1390.3,643.7 1396.5,670 C1398.5,678.4 1398.4,695.4 1396.4,703.2 C1388.7,732.9 1354.6,756.9 1308,765.3 C1287.1,769.1 1253.4,768.3 1240.2,763.7 C1229.2,759.9 1080.3,715.9 1068.5,712.9 C1050.7,708.5 1020.6,702.6 983.5,696.4 C940.6,689.3 829.9,672.6 829.3,673.2 C829.1,673.4 830.9,686.6 833.4,702.5 C840.1,744.8 843,767.7 843.7,782.1 L844.3,794.9 L836.4,802.9 C795.8,844 747.3,871.3 695.2,882.2 C675.9,886.2 652.5,888 636,886.7 L636,886.7 Z" id="Shape" sketch:type="MSShapeGroup"></path>
        </g>
    </g>
</svg>