<?xml version="1.0" encoding="UTF-8" standalone="no"?>
<svg width="2196px" height="2159px" viewBox="0 0 2196 2159" version="1.1" xmlns="http://www.w3.org/2000/svg" xmlns:xlink="http://www.w3.org/1999/xlink" xmlns:sketch="http://www.bohemiancoding.com/sketch/ns">
    <!-- Generator: Sketch 3.0.4 (8054) - http://www.bohemiancoding.com/sketch -->
    <title>Slice 2</title>
    <desc>Created with Sketch.</desc>
    <defs></defs>
    <g id="Page-1" stroke="none" stroke-width="1" fill="none" fill-rule="evenodd" sketch:type="MSPage">
        <g id="Group" sketch:type="MSLayerGroup" transform="translate(1097.600000, 1079.100000) scale(1, -1) translate(-1097.600000, -1079.100000) translate(0.100000, 0.100000)" fill="#000000">
            <path d="M1959.9,2157.9 C1951.1,2157 1910.5,2150.5 1865.4,2142.6 C1848.5,2139.7 1789.9,2131.9 1698.4,2120.6 L1557.4,2103.1 L1151.9,2069.6 C928.9,2051.1 741.5,2035.6 735.6,2035.1 C714.2,2033.3 682.6,2032.9 663.4,2034 C627.7,2036.2 611.9,2039 574.7,2049.7 C503.9,2069.9 471.4,2075.8 444.2,2073.3 C415.5,2070.7 397.6,2062.2 392.5,2048.9 C391,2045.2 390.9,2043.7 391.8,2040.3 C394.4,2030.9 406.5,2016 440.1,1981 C462,1958.2 474.7,1943.6 481.1,1933.6 C496,1910.9 504.3,1879.1 509,1827.6 C511.7,1797.8 511.1,1653.6 507.9,1563.6 C499.3,1323.2 476.9,1141.1 434.9,969.6 C387.8,777.7 258,464.2 130.6,235.1 C100.2,180.4 81.2,149.3 40.2,86.9 C3,30.2 0.8,26.4 0.1,17.2 C-0.2,12.1 0.1,9.7 1.3,7.2 C3.5,3.1 8.4,0.1 13.2,0.1 C24.2,0.1 50.1,20.1 87.4,57.5 C177.4,147.8 279.9,287.4 364.4,434.6 C504,677.8 599.5,941 645.9,1210.6 C656.8,1274.2 661.3,1310.1 665.4,1367 C669.5,1424.5 671.3,1444.9 673.9,1463.1 C675,1470.5 676.8,1485.4 677.9,1496.1 C679.1,1506.8 680.1,1515.6 680.2,1515.7 C680.3,1515.8 751.5,1524.9 838.4,1536 L996.4,1556.1 L1206.9,1577.5 L1417.4,1599 L1596.9,1611.2 C1817.3,1626.3 1799.6,1625.8 1932.4,1619.5 C1976.4,1617.3 2024.2,1617.1 2036.4,1619 C2069.6,1624 2088.2,1637.2 2093.4,1659.2 C2095.3,1667.6 2095.3,1684.4 2093.3,1693.1 C2092.1,1698.4 2089.8,1703.4 2083.2,1714.3 C2072.5,1732 2065.9,1744.8 2065.9,1747.6 C2065.9,1753.4 2112,1837.7 2160.7,1921.1 C2173.1,1942.3 2186,1965 2189.3,1971.5 L2195.4,1983.4 L2195.4,1994 C2195.3,2002.7 2194.9,2005.6 2193,2010.4 C2185.4,2029.5 2157.9,2058.8 2123.8,2083.9 C2071.5,2122.4 2004.8,2155.6 1973.9,2158.3 C1970.9,2158.6 1964.6,2158.4 1959.9,2157.9 L1959.9,2157.9 Z M1945.4,2010.6 C1959,2006.7 1961.3,2002 1960.7,1980.4 C1960.3,1968.6 1959.7,1963.7 1957.6,1956.1 C1956.2,1950.9 1942.6,1906.8 1927.4,1858.3 C1902.3,1778.1 1895.9,1759.1 1893.8,1759.1 C1893.4,1759.1 1771.2,1749 1622.2,1736.6 L1351.4,1714.1 L1124.4,1690.6 C999.6,1677.7 881.9,1665.8 862.9,1664.1 C794.9,1658.2 693.6,1650.1 686.8,1650.1 C685.5,1650.1 685.1,1653.8 684,1676.6 C683,1697.6 683,1723.4 683.9,1799.9 C685.2,1901.7 685.4,1906.2 689.7,1907.5 C690.6,1907.8 706.5,1910.9 724.9,1914.6 L758.4,1921.1 L1183.4,1956.6 C1558.5,1987.9 1817.8,2008.8 1873.4,2012.1 C1908.9,2014.2 1935,2013.7 1945.4,2010.6 L1945.4,2010.6 Z" id="Shape" sketch:type="MSShapeGroup"></path>
        </g>
    </g>
</svg>