<?xml version="1.0" encoding="UTF-8" standalone="no"?>
<svg width="1187px" height="2340px" viewBox="0 0 1187 2340" version="1.1" xmlns="http://www.w3.org/2000/svg" xmlns:xlink="http://www.w3.org/1999/xlink" xmlns:sketch="http://www.bohemiancoding.com/sketch/ns">
    <!-- Generator: Sketch 3.0.4 (8054) - http://www.bohemiancoding.com/sketch -->
    <title>Slice 2</title>
    <desc>Created with Sketch.</desc>
    <defs></defs>
    <g id="Page-1" stroke="none" stroke-width="1" fill="none" fill-rule="evenodd" sketch:type="MSPage">
        <g id="Group" sketch:type="MSLayerGroup" transform="translate(593.600000, 1170.000000) scale(1, -1) translate(-593.600000, -1170.000000) translate(0.600000, 0.500000)" fill="#000000">
            <path d="M486,2332.6 C480.7,2329 476.5,2325.7 476.4,2325.4 C476.4,2325 505.3,2297.6 540.7,2264.5 C601.3,2207.6 608.7,2200.2 672.7,2133.6 C746,2057.2 746.3,2057 760.6,2045.5 C788.8,2022.8 823.1,2002.9 848.8,1994.3 C859.6,1990.7 862.2,1990.2 872.9,1989.7 C880.1,1989.4 887.1,1989.7 890.5,1990.4 C909.6,1994.4 926.7,2010.3 933.5,2030.5 C943.2,2059.5 937.8,2106.6 920.9,2140.7 C900.9,2181 869.6,2206.3 805.4,2234 C735,2264.4 611.7,2306.6 507.7,2335.8 L495.4,2339.3 L486,2332.6 L486,2332.6 Z" id="Shape" sketch:type="MSShapeGroup"></path>
            <path d="M936.9,1863.2 C925.6,1859.4 904.2,1848.4 867.3,1827.4 C832.3,1807.4 841.5,1811.1 720.4,1768.8 C670.3,1751.2 472,1686.8 428.4,1673.9 C418.2,1670.9 393.7,1666.8 355.9,1661.8 C317.6,1656.8 302.2,1656.6 284.4,1661.2 C240.6,1672.3 194.7,1694.2 140.7,1729.7 L125.6,1739.6 L106.9,1738.4 C89.5,1737.2 88.1,1737 87.4,1735.1 C85.6,1730.5 78.4,1697.3 77.4,1688.9 C76,1677.2 77.2,1668.5 81.7,1659.1 C91.8,1638.1 121.1,1606.3 178.4,1554.3 C235.7,1502.3 253.6,1489.2 275.9,1483 C284.1,1480.7 308.9,1479.9 320.8,1481.5 C332.4,1483.1 350.7,1487.5 360.9,1491.3 C365.3,1492.9 413.9,1514.5 468.9,1539.3 L568.9,1584.4 L658.5,1616.8 L748.1,1649.2 L788,1659.8 C859.6,1678.8 863.4,1679.8 864,1679.3 C864.8,1678.5 847.6,1642.7 832.3,1613.3 C730.4,1417.2 587.1,1202.7 436.7,1021.2 C413.9,993.8 402.7,980.7 370.4,943.5 C355.8,926.7 332.6,900 318.9,884 C278.9,837.7 262.4,819.5 238.4,795.1 C203.3,759.5 191.9,749.5 127.9,698.1 C52,637.2 24.6,613.7 9.3,596.2 C-1.6,583.8 -1.5,584.1 2.4,576.5 C9.5,562.5 12.7,559.5 20.8,559.5 C31.9,559.5 92.8,584.2 124.4,601.5 C151.3,616.2 184.8,638.6 222.9,667 C247.7,685.5 264.7,698.8 376,786.6 L469.1,860.1 L567.3,968.8 C661.9,1073.7 665.4,1077.4 665.4,1073.8 C665.3,1071.7 666.5,1030.6 668,982.5 L670.7,895 L665.5,759.5 C662.7,685 656.5,534.3 651.9,424.8 C647.2,315.2 643.4,219 643.4,211 C643.4,192.2 645,166.6 647.5,144 C652.6,98.1 661.7,62.3 674.3,37.9 C683.8,19.5 693.1,9.5 706.4,3.1 C712.5,0.2 713.6,9.09494702e-13 724.4,9.09494702e-13 C734.6,9.09494702e-13 736.6,0.3 742.2,2.7 C763.9,12 785.7,35.1 796.7,60.5 C810.5,92.4 816.6,121.9 820.3,174.5 C824.1,227.7 824.6,315 821.4,379 C819.6,415.4 819.1,441.5 818.4,550 C816.9,792.4 816.1,1133 817.2,1132 C817.7,1131.5 837.2,1109.6 860.5,1083.4 C897.6,1041.9 913.6,1022.6 987.9,930.9 C1034.6,873.2 1075.6,823.1 1078.9,819.6 C1092.6,805.1 1111.2,796.6 1129.1,796.5 C1139.4,796.5 1145.9,799.2 1154.1,806.8 C1173.4,824.8 1184.6,856.1 1186.1,896 C1187.7,937.9 1177.4,976 1155.7,1009 C1110.3,1077.7 1009.9,1136 838.9,1192.7 C822.4,1198.2 805.2,1204.5 800.7,1206.7 C791.3,1211.2 784.9,1217.4 783.9,1222.8 C782.4,1230.8 789,1244.4 803.5,1263 C834.8,1303.2 871.4,1353.8 899.2,1395.3 C918.5,1424.1 924.7,1433.9 963.9,1498 C994.3,1547.5 1016.9,1581.9 1028.7,1596.5 C1039.6,1610.1 1050.1,1620.5 1072.6,1640.6 C1098.8,1663.9 1119.2,1684.5 1125.1,1693.6 C1132.9,1705.6 1134.9,1713.1 1134.9,1730 C1134.8,1743.3 1134.7,1744.4 1131.7,1752.3 C1121,1780.2 1090.6,1807.5 1043.4,1831.4 C997.8,1854.6 952.1,1868.2 936.9,1863.2 L936.9,1863.2 Z" id="Shape" sketch:type="MSShapeGroup"></path>
        </g>
    </g>
</svg>