<?xml version="1.0" encoding="UTF-8" standalone="no"?>
<svg width="2336px" height="2309px" viewBox="0 0 2336 2309" version="1.1" xmlns="http://www.w3.org/2000/svg" xmlns:xlink="http://www.w3.org/1999/xlink" xmlns:sketch="http://www.bohemiancoding.com/sketch/ns">
    <!-- Generator: Sketch 3.0.4 (8054) - http://www.bohemiancoding.com/sketch -->
    <title>Slice 2</title>
    <desc>Created with Sketch.</desc>
    <defs></defs>
    <g id="Page-1" stroke="none" stroke-width="1" fill="none" fill-rule="evenodd" sketch:type="MSPage">
        <g id="Group" sketch:type="MSLayerGroup" transform="translate(1167.800000, 1154.750000) scale(1, -1) translate(-1167.800000, -1154.750000) translate(0.200000, 0.700000)" fill="#000000">
            <path d="M1637.3,2307.7 C1626.2,2306.9 1614.2,2304.6 1605.8,2301.8 C1602.8,2300.8 1588.2,2296.3 1573.3,2291.8 C1539,2281.5 1481.8,2263.5 1472.9,2260.3 C1467.4,2258.3 1435.6,2253.5 1312.7,2236.3 C1165,2215.7 1151.9,2214 960.8,2191.7 L762.3,2168.6 L738.3,2169.1 C699.8,2170 660.4,2175.5 623.1,2185.3 C607.6,2189.4 603.1,2191.1 570.8,2205.6 C517.6,2229.4 507.6,2233.1 495.8,2233.2 C488.3,2233.3 486.6,2232.9 481.3,2230.4 C477.9,2228.7 472.7,2224.9 469.5,2221.6 L463.6,2215.8 L464,2188 C464.4,2162.5 464.6,2159.7 466.7,2153.3 C474.7,2128.7 496.8,2103.5 542,2067.5 C602,2019.7 627.7,2006.8 662.4,2006.8 C675.8,2006.8 693.6,2009.7 754.8,2021.7 C805,2031.5 778.5,2027.3 1052.8,2069.4 L1284.3,2104.9 L1431.8,2116.9 L1579.3,2129 L1669.8,2127.9 C1793.8,2126.4 1809.5,2126.4 1817.2,2128.4 C1851,2137 1871.8,2168.8 1871.8,2212 L1871.8,2220.6 L1863.1,2230.5 C1844.1,2252 1829.3,2264.1 1811.3,2272.9 C1798.9,2278.9 1788.7,2282.3 1763.8,2288.7 C1705,2303.9 1664.9,2309.9 1637.3,2307.7 L1637.3,2307.7 Z" id="Shape" sketch:type="MSShapeGroup"></path>
            <path d="M2041.8,1719.1 C2040.4,1718.8 2026,1715.6 2009.8,1711.8 C1993.6,1708 1975.1,1704 1968.8,1702.8 C1962.5,1701.6 1948.5,1698.7 1937.8,1696.3 C1878.6,1683 1878.9,1683 1622.3,1664.3 L1464.3,1652.7 L1251.3,1627.3 L1038.3,1601.8 L747.8,1560.3 C588,1537.6 455.1,1518.7 452.3,1518.4 C429.2,1515.7 342.9,1514.7 314.8,1516.8 C282.2,1519.2 279.9,1519.9 224.8,1543 C178,1562.7 150.1,1573.6 149.3,1572.6 C148.6,1571.7 136.1,1538.8 133.7,1531.6 C129.5,1518.5 127.5,1506.5 128.2,1498.5 C130.9,1469.5 159.8,1431 208.3,1391.9 C247.4,1360.4 291.5,1335.6 318.1,1330.1 C325.7,1328.6 327.9,1328.5 338,1329.6 C359.4,1332 391.9,1339.2 415.3,1346.8 C423.9,1349.6 472.7,1360.1 587.1,1383.7 C735.7,1414.4 758.1,1418.8 906.6,1445.8 C994.4,1461.7 1067,1474.8 1067.9,1474.8 C1070.1,1474.8 1095.4,1450.4 1104.8,1439.1 C1137.8,1399.5 1152.8,1353.1 1160.7,1266.3 C1166.1,1206.7 1166.8,1172 1166.8,940.5 L1166.8,735.8 L1162.8,540.5 C1160.7,433.2 1158.6,341.3 1158.3,336.3 C1156.3,307.1 1147.2,286.6 1133.3,280.2 C1124.4,276 1126.3,275.7 1068.3,293.3 C1049.6,299 976,321 904.8,342.3 C833.6,363.5 774.7,381.1 774.1,381.3 C771.9,382 767.5,372.1 768.2,368.2 C769.1,363.9 779.1,344.2 784.7,335.8 C796.3,318.5 815.4,297.7 831.4,284.9 C835.7,281.4 887.9,246.1 947.3,206.5 L1055.3,134.5 L1066.8,122.9 C1076.5,113.1 1121.3,62.8 1150.2,29.1 C1169.3,6.9 1185.7,-1 1210.1,0.1 C1229.1,0.9 1241,6.7 1257.4,23.2 C1276.7,42.6 1293,72.2 1306.2,112.3 C1315.7,140.8 1318.5,158.6 1325.2,231.8 C1331.4,299.5 1331.1,270.8 1329.7,590.3 C1328.4,878.5 1328.5,882.4 1330.7,999.3 C1331.9,1064.2 1333.3,1128.3 1333.8,1141.8 C1334.8,1168.7 1336.5,1183.7 1347.4,1260.3 C1351,1285.6 1354.2,1311.7 1354.5,1318.3 C1355.8,1348.2 1346.9,1371.3 1318.4,1412.3 C1309.6,1425 1286.8,1455.5 1270.5,1476.6 C1263.5,1485.5 1257.8,1493.3 1257.8,1493.8 C1257.8,1494.4 1258.6,1494.8 1259.6,1494.8 C1260.5,1494.8 1268.9,1495.7 1278.1,1496.8 C1312.6,1500.8 1378.8,1506.2 1424.3,1508.8 C1434.8,1509.3 1499.8,1512.9 1568.8,1516.7 L1694.3,1523.7 L1822.8,1524.8 L1951.3,1525.9 L2065.3,1518.9 C2149.6,1513.6 2186.3,1511 2206.3,1508.6 C2241.7,1504.5 2259.1,1504.3 2269.7,1507.7 C2288.1,1513.8 2303.4,1529.2 2310.6,1549 C2313,1555.6 2313.3,1557.6 2313.2,1569.8 C2313.2,1582.1 2312.9,1584 2310.4,1590.8 C2305.3,1604.3 2298.6,1614.2 2286.4,1626.3 C2254,1658.5 2190.1,1688.1 2111.3,1707.7 C2081.4,1715.1 2049.5,1720.3 2041.8,1719.1 L2041.8,1719.1 Z" id="Shape" sketch:type="MSShapeGroup"></path>
            <path d="M525.8,1118.7 C512.2,1116.4 496.7,1105.2 490.8,1093.6 C485.1,1082.2 486.5,1076.6 505.5,1032.4 C525.9,985.1 526.6,982.6 522.9,965.8 C516.7,937.7 499,894 473.2,842.8 C433.4,763.9 382.3,685 323.9,612.3 C292.6,573.3 268,545.9 232.9,510.7 C200.9,478.8 189.4,469 69,371.3 C42.2,349.6 19.3,331 18.2,330 C15.6,327.8 12.4,321.7 5.3,305.2 L0,292.9 L3.9,287.7 C6,284.9 7.9,282.3 8.2,282.1 C9,281.3 32,285.8 48.2,289.9 C158.1,318 283.4,396.8 417.8,522.4 C452.8,555 504.5,608 537.4,644.8 C577.8,690.1 588.8,704.2 660.4,802.8 C725.5,892.5 732.5,902.6 739,916.4 C748.6,937.1 749.5,959.6 741.2,976.1 C732,994.3 716.9,1008.1 669.8,1041 C660.7,1047.3 643.4,1059.6 631.3,1068.3 C588.7,1098.9 568.1,1111.8 554.8,1116.2 C546.2,1119 533.8,1120.1 525.8,1118.7 L525.8,1118.7 Z" id="Shape" sketch:type="MSShapeGroup"></path>
            <path d="M1756.2,1074.1 L1751,1071.5 L1750.6,1062.9 C1750.3,1058.2 1750.3,1053.6 1750.5,1052.7 C1750.8,1051.8 1755.8,1047.3 1761.7,1042.5 C1775.8,1031.2 1784.2,1022.9 1796.8,1007.7 C1802.6,1000.8 1816.9,984.6 1828.7,971.7 C1898.7,895.1 1949.1,828.5 1995,751.8 C2027.6,697.5 2033.1,686.4 2149.1,445.3 C2162.5,417.4 2166.7,410 2175.1,399.9 C2186.5,386 2206.6,372.9 2224.3,367.7 C2234,364.8 2252.8,364.1 2262.4,366.1 C2294.9,373 2321.8,398.5 2331.3,431.4 C2340.1,461.8 2333.5,518 2315.2,568.4 C2278.7,669.1 2196.2,774.4 2061.3,892.3 C1947.3,992.1 1849.1,1055.4 1781.7,1072.7 C1764.5,1077.1 1762.2,1077.2 1756.2,1074.1 L1756.2,1074.1 Z" id="Shape" sketch:type="MSShapeGroup"></path>
        </g>
    </g>
</svg>