<?xml version="1.0" encoding="UTF-8" standalone="no"?>
<svg width="2029px" height="2258px" viewBox="0 0 2029 2258" version="1.1" xmlns="http://www.w3.org/2000/svg" xmlns:xlink="http://www.w3.org/1999/xlink" xmlns:sketch="http://www.bohemiancoding.com/sketch/ns">
    <!-- Generator: Sketch 3.0.4 (8054) - http://www.bohemiancoding.com/sketch -->
    <title>Slice 2</title>
    <desc>Created with Sketch.</desc>
    <defs></defs>
    <g id="Page-1" stroke="none" stroke-width="1" fill="none" fill-rule="evenodd" sketch:type="MSPage">
        <g id="Group" sketch:type="MSLayerGroup" transform="translate(1014.650000, 1128.950000) scale(1, -1) translate(-1014.650000, -1128.950000) translate(0.900000, 0.500000)" fill="#000000">
            <path d="M1635.6,2256.3 C1626,2254.9 1599.3,2248.1 1563.7,2237.9 C1529.2,2228.1 1495.2,2219.6 1479.3,2216.9 C1474.2,2216 1463.4,2214.9 1455.3,2214.4 C1447.2,2213.9 1341.6,2202.9 1220.6,2190 C1014.5,2168 991.5,2165.3 856.6,2148 L712.6,2129.5 L554.1,2114.5 C466.9,2106.2 387.7,2098.9 378.1,2098.3 C336.3,2095.5 293.3,2100 253.5,2111.3 C219.1,2121.1 163,2142.1 145.1,2151.9 C131.9,2159.1 121.1,2163.8 112.4,2166.1 C103.3,2168.6 101.2,2168.8 82.1,2168.8 C60.5,2168.8 49.3,2167.5 34.1,2163.2 C6.3,2155.5 -5,2141 2.1,2122.2 C6,2111.7 20.9,2087.9 39.1,2062.9 C48.1,2050.6 57.9,2032.2 67.8,2009.4 C88.1,1962.6 95.4,1923.3 97.7,1848.4 C98.1,1836.6 97.8,1729.9 97.2,1611.4 L95.9,1395.9 L86,966.4 L76.1,536.9 L70.6,438.9 C64.3,324.8 65.3,338 59.1,280.9 C52.1,216.7 51.6,209 53,195.5 C57.2,154.9 76.6,104.5 103.2,64.4 C126,30.2 149.9,8.8 173.6,1.8 C181.8,-0.7 196.7,-0.6 204.1,1.8 C223.9,8.5 234.8,26.3 241.6,63.1 C243.6,74.1 250.1,126.3 250.1,131.7 C250.1,133.4 256.3,134.2 290.1,137.4 C301.9,138.5 314.3,139.9 317.6,140.5 C320.9,141 457.9,155.2 622.1,171.9 L920.6,202.3 L1055.6,212.8 C1182.8,222.8 1198.1,223.8 1319.6,229.9 C1432,235.6 1467,236.9 1592.1,240.5 L1735.6,244.6 L1830.1,240.2 C1933.5,235.5 1958.4,235.1 1972.6,237.8 C2001,243.2 2018,254.9 2024.6,273.4 C2027.2,280.8 2028.2,291.8 2027.1,301.5 C2023.1,337.1 1996.4,362.8 1941.6,383.9 C1927.6,389.3 1886.4,402.9 1862.3,410 C1811.2,425.1 1780.5,430.2 1746.6,429.1 C1726.7,428.5 1720.3,427.3 1685.6,417.7 C1633.2,403.3 1610,397.9 1580.6,393.4 C1572.9,392.2 1515.3,386.1 1452.6,379.8 C1345,369 1331.3,367.9 1210.1,359.4 C1139.4,354.5 1079.2,350.2 1076.4,349.9 L1071.1,349.4 L1071.1,359.7 C1071.1,376 1089.4,620 1097.1,705.9 C1106.5,811.8 1108.1,831.7 1108.1,846.9 C1108.1,867 1105.3,875.9 1093.9,891.9 L1088.1,899.9 L1092.9,900.6 C1126.2,905.7 1442.8,930.1 1495,931.6 L1501.4,931.8 L1503.8,923.3 C1505.1,918.7 1508,911.1 1510.1,906.5 C1517.5,891 1531.2,880.3 1549.6,875.7 C1559.6,873.2 1588.6,873.2 1599.2,875.7 C1625.6,881.9 1640.3,898.6 1653.6,937.5 C1662.4,963.1 1663.2,966.2 1716.2,1183.4 C1738.1,1273.3 1757.5,1351.2 1759.2,1356.4 C1761,1361.6 1770.5,1386.2 1780.3,1410.9 C1808.8,1482.3 1818.3,1508.3 1821.2,1523.2 C1825,1543 1817.8,1563.3 1800.9,1580.3 C1783.7,1597.7 1759.4,1613.1 1695.1,1647.4 C1602.3,1696.8 1557.5,1715.5 1531.6,1715.6 C1517.7,1715.6 1485.2,1707.7 1433.5,1691.8 C1406.5,1683.5 1377.4,1676.1 1354.8,1672 C1322,1666 1045.8,1620.4 1045.3,1620.9 C1045,1621.2 1046,1643.6 1047.4,1670.7 C1048.9,1697.7 1051.9,1763.6 1054.1,1816.9 C1056.3,1870.3 1059.2,1930.8 1060.7,1951.4 C1064.7,2009.2 1064.5,2011.9 1054.5,2026.5 C1051.5,2031 1049.1,2034.7 1049.3,2034.9 C1050,2035.5 1136.4,2045.7 1177.1,2049.9 C1190.6,2051.3 1275.6,2058 1366.1,2064.9 L1530.6,2077.3 L1665.6,2078.8 L1800.6,2080.2 L1811.9,2084.2 C1825.5,2089.1 1833.6,2094.1 1842.7,2103.7 C1855.2,2116.6 1856.8,2119.1 1858,2127.1 C1859.6,2137.6 1859.4,2154.5 1857.5,2161.8 C1854.8,2172.2 1849.5,2181 1840.1,2190.5 C1827,2203.8 1812.2,2212.4 1781.1,2224.7 C1728.2,2245.6 1661.6,2260.1 1635.6,2256.3 L1635.6,2256.3 Z M846.9,2004.9 C864.6,1983.6 875.2,1960.3 881.5,1928.9 C888.6,1892.9 889.1,1881 889.1,1730.4 C889.1,1606.6 889,1599.5 887.4,1599 C882.7,1597.6 779.6,1583.3 714.1,1574.9 C690.7,1571.9 623.2,1563 564.1,1555 C505,1547.1 452.3,1540.3 447.1,1539.9 C441.9,1539.6 418.5,1537.8 395.1,1535.9 C308.7,1529 303.1,1528.9 275.2,1534.4 L258.8,1537.7 L259.5,1549.3 C260.5,1566.3 263.7,1603.9 267.6,1645.4 C275.1,1724.9 276.1,1745.3 276.8,1832.6 C277.4,1906.4 277,1917.1 273.6,1940.4 C272.8,1945.6 272.3,1949.9 272.5,1950.1 C273.5,1951.1 347.8,1959.3 411.6,1965.4 C460.2,1970.1 728.5,1998.8 771.1,2003.9 C810.8,2008.6 833.7,2011.1 838.6,2011.2 C841.1,2011.3 842.5,2010.2 846.9,2004.9 L846.9,2004.9 Z M1550.1,1540.8 C1576.1,1537.1 1589,1530.8 1594.2,1519.2 C1596.5,1514.1 1596.6,1513 1596.5,1493.4 C1596.4,1465.3 1590.9,1416.3 1582,1362.9 C1577.9,1338.6 1579.1,1344 1551,1218.9 C1537.2,1157.9 1524.7,1101.6 1523,1093.9 C1521.4,1086.3 1519.9,1080 1519.8,1079.9 C1516.9,1078.6 1430.6,1068.9 1253.1,1049.9 L1032.6,1026.4 L881.1,1004.4 C720.8,981.1 444.8,944.2 415.6,942.2 C405.5,941.6 384.2,941.4 357.6,941.8 C316.8,942.4 301.4,943 265.4,945.5 L248.1,946.7 L248.1,953.8 C248,957.7 249.7,1057.6 251.8,1175.7 C255.6,1389.9 255.6,1390.5 257.6,1389.8 C261.5,1388.5 303.2,1388.2 315,1389.4 C352.6,1393.2 485.9,1411 816.6,1456.3 C1131.6,1499.5 1208.9,1509.8 1321.1,1523.4 C1443.4,1538.2 1475.2,1541.7 1498.1,1542.7 C1512.3,1543.4 1539,1542.4 1550.1,1540.8 L1550.1,1540.8 Z M899.5,868.7 C908.2,845.8 915.6,809.6 919.5,770.9 C923.2,734.5 923.4,717 922.2,609.4 L921,505.9 L915.5,420.4 C912.5,373.4 909.8,334.8 909.5,334.5 C909,334 374.7,281.4 323.6,276.8 C307.7,275.4 284.7,274 272.5,273.7 L250.4,273.1 L249.7,284 C248.3,307.6 244.1,399.6 243.1,429.9 C242.3,453.8 242.4,504.8 243.5,631.3 C244.3,724.4 245.2,800.9 245.5,801.1 C245.7,801.4 249.9,801 254.8,800.4 C267.7,798.6 329.2,797.9 346.4,799.3 C354.2,800 479.9,817.3 625.6,837.9 C771.4,858.4 892,875.3 893.8,875.3 C896.8,875.4 897.1,875.1 899.5,868.7 L899.5,868.7 Z" id="Shape" sketch:type="MSShapeGroup"></path>
        </g>
    </g>
</svg>