<?xml version="1.0" encoding="UTF-8" standalone="no"?>
<svg width="2485px" height="2128px" viewBox="0 0 2485 2128" version="1.1" xmlns="http://www.w3.org/2000/svg" xmlns:xlink="http://www.w3.org/1999/xlink" xmlns:sketch="http://www.bohemiancoding.com/sketch/ns">
    <!-- Generator: Sketch 3.0.4 (8054) - http://www.bohemiancoding.com/sketch -->
    <title>Slice 2</title>
    <desc>Created with Sketch.</desc>
    <defs></defs>
    <g id="Page-1" stroke="none" stroke-width="1" fill="none" fill-rule="evenodd" sketch:type="MSPage">
        <g id="Group" sketch:type="MSLayerGroup" transform="translate(1242.200000, 1063.500000) scale(1, -1) translate(-1242.200000, -1063.500000) translate(0.200000, 0.000000)" fill="#000000">
            <path d="M224.3,2121.8 C218.7,2103 219.7,2098.9 232.6,2087.3 C246.8,2074.5 301.4,2021.4 364.3,1959 C455.3,1868.7 480.1,1846.4 514.8,1823.2 C539.3,1806.8 563.7,1796.3 586.3,1792.5 C600.6,1790 621,1790.2 630.8,1792.8 C656,1799.5 674.2,1815.5 682.2,1838 C685.1,1846 685.3,1847.3 685.2,1860.5 C685.2,1871.6 684.7,1876.2 683,1882.6 C675.6,1910.3 657,1941 631.6,1967.6 C611,1989.1 591.9,2002.4 556.3,2020 C495.2,2050.3 410.6,2079.6 299.3,2109 C272.2,2116.2 228.6,2127 226.8,2127 C226.3,2127 225.2,2124.6 224.3,2121.8 L224.3,2121.8 Z" id="Shape" sketch:type="MSShapeGroup"></path>
            <path d="M533.8,1359.1 C530.2,1358.7 524.6,1357.5 521.3,1356.5 C513,1353.9 479.4,1337 447.8,1319.4 C433.2,1311.3 417,1302.4 411.8,1299.6 C360.1,1271.8 257.3,1232.8 200.3,1219.4 C190,1216.9 186.2,1216.6 173.3,1216.5 C160.3,1216.5 156.9,1216.9 147.6,1219.2 C131.5,1223.3 113.3,1229.4 93.2,1237.5 C60.6,1250.7 53,1252.2 43.3,1247.6 C33.7,1243.2 23,1230 18.9,1217.7 C11.7,1196 18.7,1167.2 37.6,1140.6 C44.4,1131 62.3,1112.7 73.3,1104 C95.5,1086.4 130.5,1067 154.3,1059 C164.8,1055.5 167.4,1055 175.6,1055 C192.7,1055 210.5,1060.1 233.3,1071.6 C241,1075.5 268,1090.9 293.3,1105.9 C395.3,1166.5 428.5,1184.2 465.6,1197.6 L475,1201 L474.3,1197.8 C473.3,1192.8 463.5,1168.6 454.6,1149 C439.9,1116.8 418.3,1073.9 396.8,1034 C360.3,966.4 349.4,943.8 343.7,923.5 C341.8,917 341.4,913 341.4,902 C341.4,889.8 341.7,887.7 344.3,880.1 C348.3,868.5 354.5,859 375.9,832.5 C418.5,779.7 437.8,751.2 445,730.6 C448.9,719.2 448.7,715.7 443.7,708 C438.7,700.2 420.9,682.3 402.3,666.4 C335,608.8 265.9,561 211.3,534 C169.5,513.4 146.4,507 96.8,502.5 C40.9,497.5 12,475.2 2.9,430.4 C0.3,417.5 -0.8,399.3 0.7,391.5 C5,368.3 28.8,348.1 53.9,346.3 C63.4,345.6 70.6,346.6 108.3,354 C124.8,357.3 143.3,360.8 149.3,361.9 C157.1,363.3 196.3,366.3 285.5,372.2 L410.7,380.4 L429,378.6 C490.1,372.6 540.7,366.1 565.3,361.1 C573.6,359.4 772.3,302.3 1051.3,221.5 L1523.3,84.8 L1649.8,51.8 C1719.4,33.7 1783.5,17.1 1792.3,15 C1819.6,8.3 1850.8,3.2 1877.8,1 C1894.1,-0.4 1937.5,-0.4 1950.8,1 C1997.5,5.8 2058,19.4 2107.3,36.4 C2124.7,42.3 2123.8,42 2261.2,98.7 C2368.6,143 2385.7,150.4 2423,168.4 L2464.7,188.5 L2474.3,200.8 C2479.6,207.6 2483.8,213.3 2483.6,213.5 C2483.4,213.7 2479.5,215.4 2474.8,217.3 C2447.1,228.7 2409,230.4 2226.8,228.2 C2142.9,227.2 2080.1,227.2 1940.3,228 C1841.9,228.6 1751.4,229.5 1739.3,230 C1701.4,231.7 1644.3,239 1552.8,253.9 C1505.2,261.7 1491.5,264.5 1299.8,305.5 L1106.3,346.9 L1036.2,365.5 C979.3,380.5 944.2,389 849.7,410.6 L733.3,437.1 L620,453.6 L506.7,470 L465,470 C442.1,470 412.1,470.5 398.3,471 C350.2,472.8 322.3,474.1 318.9,474.6 C312.3,475.6 368.6,500.3 475.5,543 C579.5,584.7 573.3,582.5 635.8,599.6 C649.8,603.4 662.9,607.6 666.3,609.3 C670,611.2 675.4,615.5 680.5,620.6 C687.2,627.3 689.4,630.3 693.1,638.1 C698.8,650 700.8,657.8 701.5,671 C702.4,688.8 698.2,704 688.3,719 C682.6,727.6 669.4,741.7 658.9,750.4 C649.4,758.3 523.9,850.5 490.8,873.9 C462.8,893.8 461.2,895.1 458.7,900.5 C455.1,908.3 457.2,919.1 465.7,936.5 C487.5,981.2 550.7,1052.4 659,1154.3 C703.6,1196.3 706.3,1200 706.3,1220 C706.3,1230.7 706.1,1232 703.1,1238.8 C691.1,1266.6 655.7,1302.2 611.6,1331.1 C599,1339.3 581.3,1348.8 569.8,1353.4 C556.9,1358.7 545.7,1360.4 533.8,1359.1 L533.8,1359.1 Z" id="Shape" sketch:type="MSShapeGroup"></path>
        </g>
    </g>
</svg>