<?xml version="1.0" encoding="UTF-8" standalone="no"?>
<svg width="2375px" height="2378px" viewBox="0 0 2375 2378" version="1.1" xmlns="http://www.w3.org/2000/svg" xmlns:xlink="http://www.w3.org/1999/xlink" xmlns:sketch="http://www.bohemiancoding.com/sketch/ns">
    <!-- Generator: Sketch 3.0.4 (8054) - http://www.bohemiancoding.com/sketch -->
    <title>Slice 2</title>
    <desc>Created with Sketch.</desc>
    <defs></defs>
    <g id="Page-1" stroke="none" stroke-width="1" fill="none" fill-rule="evenodd" sketch:type="MSPage">
        <g id="Group" sketch:type="MSLayerGroup" transform="translate(1187.750000, 1188.900000) scale(1, -1) translate(-1187.750000, -1188.900000) translate(0.800000, 0.200000)" fill="#000000">
            <path d="M1012.7,2376.1 C988.9,2371.6 965.7,2356.6 958.2,2340.9 C955.1,2334.4 955.1,2325.9 958.1,2319.1 C962,2310.3 973.6,2291.8 991.2,2266.1 C1004.6,2246.7 1010.2,2237.5 1016.2,2225.1 C1038.8,2178.9 1046.9,2138.7 1050.3,2056.1 C1051.4,2029.1 1051.2,1976.5 1049.6,1896.3 C1048.9,1864.1 1048.9,1863.6 1046.8,1863.1 C1045.6,1862.8 897.8,1838.1 718.2,1808.1 C345.1,1745.7 384.7,1751.2 314.6,1751.8 L274.7,1752.2 L263.2,1755.3 C248.2,1759.3 232,1765.2 197.2,1779.4 C169.4,1790.6 168.3,1791.2 154.7,1800.8 C147,1806.2 136.6,1812.7 131.5,1815.3 C123.7,1819.2 121.2,1820 115,1820.4 C108.4,1820.8 107,1820.5 101.1,1817.8 C84.6,1810.4 78.2,1797.5 79.5,1773.8 C80.2,1760.7 82.7,1751.3 89.2,1738.1 C98.4,1719 111.8,1701.2 132.3,1680.7 C164.6,1648.5 205.6,1619.2 249.2,1597.2 C274.7,1584.3 300.9,1574.6 310.2,1574.6 C312.2,1574.6 412.4,1597.8 532.8,1626.1 L751.7,1677.6 L895.2,1705 C974.1,1720.1 1040.4,1732.8 1042.5,1733.1 L1046.2,1733.8 L1046.2,1698.5 C1046.2,1666.6 1040.1,1417.5 1038.6,1389.8 C1037.9,1376.4 1040.5,1378.4 1015.7,1372.1 C967.2,1359.7 887.8,1346.9 808.2,1338.7 C741.9,1331.8 715.2,1331.9 675.2,1339.2 C647.6,1344.2 614.9,1353.9 592.2,1363.8 C560,1377.9 552.1,1380 533.7,1379.8 C526.6,1379.7 518.5,1379.3 515.7,1378.9 L510.8,1378.1 L508.4,1364.6 C504,1339.6 505.1,1329.4 513.8,1312.6 C538.8,1264.2 630.7,1196.9 693.9,1180.5 C709.9,1176.4 718.7,1176.5 739,1181.1 C765.6,1187.2 810.8,1199 866.2,1214.6 C940.8,1235.6 1027.5,1255 1188.2,1286.7 C1288.7,1306.5 1430,1332.2 1433.9,1331.4 C1434.9,1331.2 1434.1,1328 1430.9,1318.6 C1420.8,1289.5 1398.2,1241.5 1379.8,1210.1 C1374.9,1201.9 1337.6,1145.4 1296.9,1084.6 L1222.8,974.1 L1154.5,884.2 C1087.3,795.8 1085.9,794.1 1074.5,783.9 C1068,778.3 1062.5,773.6 1062.2,773.6 C1061.1,773.6 1024.8,798.4 1000.7,815.6 C943.1,856.7 867.6,912 798.2,964.1 C773.2,982.8 746.6,1002.5 739.2,1007.8 C701.2,1034.9 679.1,1046 653.4,1050.8 C644.4,1052.5 600.6,1052.5 589.2,1050.8 C549.6,1044.8 524.1,1036.6 512.4,1026.1 C504.9,1019.3 502.1,1014 498.7,999.4 L497.4,993.6 L504.2,985.4 C509.7,978.7 511.8,977 515.3,975.9 C517.7,975.2 546,968 578.2,960 L636.7,945.5 L651.7,938.2 C681.9,923.3 715.4,899.4 770.7,853.2 C780.6,844.9 830.1,802.6 880.7,759.1 C931.3,715.7 973.5,679.4 974.6,678.5 C977,676.5 976.5,675.6 966.7,663.5 C936.5,626.3 879.3,568.9 825.7,522.1 C677,392 503.3,282.9 318.6,203.3 C292.3,192 271.7,184.1 187.7,153.3 C109.1,124.4 74.1,111.3 46.2,100.3 C24,91.5 1.3,81.9 -1.92436345e-13,80.7 C-0.7,80.1 6.3,60.2 7.7,58.8 C8,58.5 18.4,57.6 30.8,56.9 L53.4,55.5 L169.6,75.5 L285.7,95.6 L327,107.6 L368.3,119.6 L471.8,162.6 C576.3,206.1 585.6,210.2 617.2,227.4 C703.8,274.4 812.8,342.1 880.6,390.9 C918.5,418.1 919.5,418.9 1019.2,504.6 C1061.7,541.2 1097,571 1097.7,571 C1098.3,570.9 1134.9,542.5 1178.9,507.8 C1237.1,462 1298.3,415.3 1402.8,336.9 C1542.3,232.2 1551.2,225.8 1693.5,125.3 C1774.2,68.3 1842.8,20.3 1846,18.7 C1874.1,4.6 1936.8,-2.1 2015.4,0.6 C2032.3,1.2 2054.4,2.3 2064.4,3 C2284.7,19.8 2292,20.5 2308.6,24.2 C2352.7,34.1 2371.6,42 2373.7,51.6 C2376.6,64.7 2343.3,83.4 2233.2,130.6 C2194.5,147.2 2185.8,150.4 2134.7,167.1 C2074.7,186.7 2064.5,190.6 1961.5,235 L1862.4,277.7 L1806,308 C1765.3,329.9 1708.2,362.3 1599.7,425.1 L1449.7,512 L1326.2,592.9 C1258.3,637.5 1202.5,674 1202.3,674.2 C1201.6,674.8 1208.3,684.1 1217.6,695.6 C1229.5,710.5 1246,729.2 1288.9,776.4 C1309.6,799.1 1331.2,823.1 1336.9,829.9 C1342.7,836.6 1379,884.9 1417.6,937.1 L1487.8,1032.1 L1574.2,1166.6 C1621.7,1240.6 1664.6,1307.9 1669.5,1316.1 C1693.8,1357 1705.2,1378.7 1705.2,1384 C1705.2,1396.7 1684.6,1416.3 1649.7,1437.2 C1600,1466.8 1515.4,1502.1 1484.6,1506.2 C1473.6,1507.6 1453.3,1499.7 1387.2,1468.4 C1359.7,1455.3 1357.3,1454.4 1319.7,1442.2 C1298.3,1435.3 1272.2,1427.1 1261.7,1424 C1242.4,1418.3 1200.2,1407.4 1192.5,1406.1 L1188.2,1405.4 L1188.1,1421.3 C1188.1,1430 1191.1,1508.8 1194.9,1596.4 C1201.5,1752.4 1201.7,1755.7 1203.7,1756.1 C1204.8,1756.4 1251.8,1763.6 1308.2,1772.1 L1410.7,1787.6 L1567.7,1801.1 L1724.7,1814.5 L1877.2,1820 C1991.9,1824.2 2031.8,1825.9 2038.2,1827.1 C2045.6,1828.5 2063.2,1834.8 2078.5,1841.6 C2083,1843.6 2083.7,1844.4 2086.8,1851.3 C2091.8,1862.1 2096.7,1877 2098.2,1885.2 C2100.1,1895.7 2099.1,1911.4 2096,1919.7 C2085.6,1947.6 2052.4,1971.1 1999,1988.4 C1950.5,2004.1 1900.7,2010.5 1868.7,2005.1 C1851.9,2002.3 1816.5,1992.4 1771.9,1978 C1748.7,1970.6 1704.4,1960.2 1682.7,1957.2 C1668.2,1955.2 1217.3,1885.7 1214.5,1885.1 C1212.6,1884.7 1212.2,1885.2 1211.1,1890.2 C1210,1895.2 1210.7,1905.2 1219.1,1993.9 C1224.1,2047.9 1228.9,2096.2 1229.8,2101.1 C1230.6,2106.1 1234.4,2122.3 1238.2,2137.1 C1250.1,2184.1 1251.1,2191.2 1247.7,2204.7 C1239.6,2237 1197.1,2281.2 1133.7,2323.3 C1096.2,2348.2 1053.2,2370.8 1032.7,2376.2 C1026.6,2377.9 1021.9,2377.8 1012.7,2376.1 L1012.7,2376.1 Z" id="Shape" sketch:type="MSShapeGroup"></path>
        </g>
    </g>
</svg>