<?xml version="1.0" encoding="UTF-8" standalone="no"?>
<svg width="2370px" height="1544px" viewBox="0 0 2370 1544" version="1.1" xmlns="http://www.w3.org/2000/svg" xmlns:xlink="http://www.w3.org/1999/xlink" xmlns:sketch="http://www.bohemiancoding.com/sketch/ns">
    <!-- Generator: Sketch 3.0.4 (8054) - http://www.bohemiancoding.com/sketch -->
    <title>Slice 2</title>
    <desc>Created with Sketch.</desc>
    <defs></defs>
    <g id="Page-1" stroke="none" stroke-width="1" fill="none" fill-rule="evenodd" sketch:type="MSPage">
        <g id="Group" sketch:type="MSLayerGroup" transform="translate(1184.800000, 772.200000) scale(1, -1) translate(-1184.800000, -772.200000) translate(0.300000, 0.700000)" fill="#000000">
            <path d="M1966.6,1542.6 C1947.1,1540.9 1908.7,1534.6 1822.7,1519.1 C1764.8,1508.7 1764.1,1508.6 1684.2,1499.3 C1437.4,1470.6 1107.8,1437.3 848.7,1414.8 C677.2,1399.9 637.2,1397.7 598.7,1401.2 C572.6,1403.6 569.7,1404.2 541.4,1412.6 C463.2,1436.1 413.7,1446.1 386.2,1444.2 C361.9,1442.5 345.7,1434.4 338.8,1420.5 C333.1,1409.2 334.9,1396.2 344,1382.5 C350.2,1373 368.2,1355.5 387.2,1340.5 C407.3,1324.7 416.3,1315.9 422.7,1306.1 C435.1,1287.2 438,1266 435.8,1212.7 C433.5,1158.6 428.6,1114.1 419.1,1062.2 C392.2,915 322.6,710.4 250.1,565.6 C194.2,453.8 135.5,366.2 12.8,211.7 C5.6,202.6 -0.1,194.8 -9.09494919e-13,194.2 C0.2,193.7 2.8,192.4 5.8,191.3 C13.6,188.4 26.1,188.5 34.8,191.5 C63.7,201.4 102.8,231.6 156.7,285.6 C230.2,359.2 293.3,437.3 344.9,518.7 C422.5,641 486,781.4 548.3,968.4 C562.9,1012 563.5,1014.3 598.2,1165.1 C612.2,1225.5 623.7,1275.1 623.9,1275.2 C624.1,1275.4 631.9,1274.6 641.2,1273.4 C656.2,1271.5 663.3,1271.2 702.2,1271.2 C759.5,1271.2 785.1,1273.6 835.7,1283.7 C890.8,1294.7 929.8,1300.5 986.2,1306.2 C1112.4,1318.8 1571.2,1355.8 1712.2,1364.7 C1809.7,1370.8 1889.6,1373.6 1969.7,1373.8 C2034.1,1373.9 2071.1,1375.1 2082.2,1377.5 C2116.6,1385 2135.4,1400.9 2138.9,1425.6 C2141.5,1444.2 2134.3,1461.9 2116.8,1480.1 C2090.7,1507.1 2042.9,1531.9 2001.2,1540.1 C1986.6,1543 1977.9,1543.6 1966.6,1542.6 L1966.6,1542.6 Z" id="Shape" sketch:type="MSShapeGroup"></path>
            <path d="M1657.7,1265.2 C1646,1263.3 1613.4,1254.9 1567.2,1241.8 C1519.9,1228.4 1517.7,1227.9 1485.7,1222.2 C1407.8,1208.5 1383.8,1205.2 1230.1,1187.2 C1147.6,1177.6 1072.7,1169.2 1063.6,1168.6 C1044.6,1167.3 1012.6,1168 995.7,1170.2 C989.4,1171 978.4,1172.3 971.2,1173.2 C947.2,1176 910.4,1182.8 856.3,1194.3 C842.1,1197.3 830.4,1199.7 830.2,1199.5 C830.1,1199.3 828.3,1192.8 826.3,1184.9 C822.1,1168.1 821.7,1160.6 824.8,1151.4 C829.9,1136.2 843.5,1116.9 862.7,1097.6 C883.5,1076.8 905.7,1060.6 929.2,1049.2 C952.9,1037.6 969.5,1033.7 994.2,1033.7 C1013.6,1033.7 1025.6,1035.7 1061.7,1044.9 C1124,1060.8 1144.9,1064.2 1301.2,1083.8 L1429.2,1099.8 L1543.2,1108 C1649.9,1115.7 1658.3,1116.1 1673.7,1115.4 C1682.8,1114.9 1704.6,1114.4 1722.2,1114.4 C1749.2,1114.2 1755.9,1114.5 1765.2,1116 C1806.7,1123 1827.4,1141.5 1830.2,1174.2 C1832.8,1203.8 1812.6,1226.1 1767,1244.1 C1747,1251.9 1712.1,1260.4 1684.7,1264.2 C1667.1,1266.6 1666.8,1266.6 1657.7,1265.2 L1657.7,1265.2 Z" id="Shape" sketch:type="MSShapeGroup"></path>
            <path d="M1920.7,1037 C1903.9,1035.8 1861.5,1027.8 1776.7,1009.7 C1698.2,993 1705.6,994.2 1589.7,977.8 C1259.7,930.9 1065.6,906.9 927.7,896 C911,894.7 894.2,894.2 862.2,894.2 C818,894.2 808,894.8 782.8,898.8 C753.3,903.5 740.6,908.2 706.5,927 C688.4,937.1 668.6,946.9 660.9,949.7 C653,952.6 646.2,952 637.2,947.9 C628.6,943.8 622.4,937.9 618.4,929.8 C615.2,923.3 615.2,923.1 615.2,908.7 C615.3,896.1 615.6,892.9 618,884.4 C627,851.6 646.8,820.3 680.2,785.9 C708.4,756.8 728.5,742.5 749.4,736.5 C756.3,734.5 759.3,734.3 775.3,734.4 L793.3,734.5 L797.1,721 C801.4,705.7 805.1,688.2 806.7,675.7 C809.1,655.7 810,622.6 808.9,590.6 C807.4,548.8 796.2,357.8 794.2,340.8 C793.4,333.5 790.5,313.7 787.7,296.8 C785,280 781.9,259.2 780.7,250.7 C778.8,236.3 778,233.1 767.7,202.7 C754.6,163.4 750.7,150 750.7,143.5 C750.7,137.8 756.6,124.6 768.2,104.2 C797,53.4 827.9,18.3 855,5.6 C868.7,-0.8 884.5,-1.8 895,3 C902.5,6.4 912.4,14.8 936.8,38.4 C957.7,58.6 958.9,59.5 976.8,70.8 C1000,85.5 1062.8,124.3 1102.7,148.7 C1128.5,164.4 1152.6,181 1258.7,255.7 C1406.1,359.4 1453.5,393.3 1459.9,399.5 C1466.3,405.6 1471.1,414.8 1471,420.7 C1470.9,426.4 1466.8,441.7 1465.2,442.3 C1464.6,442.6 1459.3,439.9 1453.6,436.3 C1444,430.3 1425.5,422.8 1199.2,333.7 C1065,280.8 950.9,235.8 945.7,233.8 L936.1,230.1 L936.8,237.6 C938.1,250.6 939.7,284.8 940.7,319.2 C941.7,352.8 942.6,364.6 952.2,472.1 C965,614.1 968.2,659.5 967.4,686.7 C966.6,714.1 962.9,729 950.7,754.4 C945.7,764.8 945.1,766.7 946.5,767.1 C948.8,767.8 984.8,774.1 1004.2,777.2 C1250.7,816.8 1577.9,857 1778.2,872.1 C1850.7,877.6 1885.6,879.5 1942.7,880.7 C1967.7,881.3 1992.3,882.2 1997.2,882.8 C2031.9,886.8 2056,898.4 2068.6,917.2 C2075.7,927.8 2078.2,936.3 2078.2,949.7 C2078.2,959.7 2078,960.6 2074.8,967.1 C2070.8,975.3 2060.5,986.6 2049.5,994.8 C2016.4,1019.4 1955.7,1039.3 1920.7,1037 L1920.7,1037 Z" id="Shape" sketch:type="MSShapeGroup"></path>
            <path d="M1739.7,857.7 C1726.4,856.1 1717.5,852.4 1709.8,845.2 C1703.5,839.3 1701.5,834.9 1697.2,817.7 C1692.6,799 1689.3,789.1 1684.6,779.2 C1677.4,764.1 1646.4,718.3 1625.2,691.7 C1608.1,670.2 1588.4,650.2 1537.5,602.8 L1531.7,597.5 L1514.5,605.7 C1471.9,626.1 1392.9,666.3 1365.2,681.7 C1324.8,704.1 1275.7,730.8 1264.2,736.6 C1251.7,742.9 1250.9,743.2 1244.2,743.1 C1226.1,742.8 1202.8,728.5 1194.5,712.4 C1191.4,706.5 1191.2,705.7 1191.2,695.2 C1191.2,684.9 1191.4,683.9 1194.2,678.9 C1200.1,668.2 1212.3,659.3 1242.2,643.7 C1268.1,630.2 1311.9,603.3 1384.2,556.6 C1441.4,519.7 1453.9,510.7 1590.2,408 L1727.2,304.9 L1846.2,206.1 C1911.7,151.8 1968.3,105.4 1972,102.9 C1989.9,91.3 2014.2,83.4 2044.7,79.2 C2069,75.9 2134.8,76.3 2194.7,80.2 C2309,87.7 2368.7,104.8 2368.7,130 C2368.7,136.7 2366.1,140.6 2357.8,146.1 C2349.8,151.5 2330.8,160.8 2175.7,236 C2110.5,267.6 2023,310.3 1981.2,330.9 L1905.2,368.3 L1771,452 C1697.1,498.1 1630.2,539.3 1622.2,543.7 C1606.9,552.2 1600.7,555.9 1600.7,556.7 C1600.7,557.3 1607.3,561.4 1646.2,585 C1706.9,621.8 1730.9,634.4 1792.2,661.7 C1867.2,695.1 1894,710.2 1903.9,724.4 C1912.6,737.1 1912.9,755.4 1904.7,772.3 C1886,810.6 1817.3,851.6 1761.5,857.7 C1750.9,858.8 1749.3,858.8 1739.7,857.7 L1739.7,857.7 Z" id="Shape" sketch:type="MSShapeGroup"></path>
        </g>
    </g>
</svg>