<?xml version="1.0" encoding="UTF-8" standalone="no"?>
<svg width="1789px" height="2353px" viewBox="0 0 1789 2353" version="1.1" xmlns="http://www.w3.org/2000/svg" xmlns:xlink="http://www.w3.org/1999/xlink" xmlns:sketch="http://www.bohemiancoding.com/sketch/ns">
    <!-- Generator: Sketch 3.0.4 (8054) - http://www.bohemiancoding.com/sketch -->
    <title>Slice 2</title>
    <desc>Created with Sketch.</desc>
    <defs></defs>
    <g id="Page-1" stroke="none" stroke-width="1" fill="none" fill-rule="evenodd" sketch:type="MSPage">
        <g id="Group" sketch:type="MSLayerGroup" transform="translate(894.500000, 1176.250000) scale(1, -1) translate(-894.500000, -1176.250000) translate(0.900000, 0.100000)" fill="#000000">
            <path d="M892.6,2350.9 C874.8,2347 863.6,2339.1 857.6,2326.3 C853.7,2317.8 854.1,2312.7 860,2300.8 C864.3,2291.9 874.7,2273.8 879.1,2267.4 C880.9,2264.8 895.7,2220.7 898.6,2209.4 C901.3,2199 898.5,2188.2 887.6,2166.4 C849,2088.9 731.7,1951.7 577.1,1803 C483.4,1712.9 440,1672.4 401.2,1639.1 C360.2,1603.9 325.8,1578.6 294.1,1560.5 C284.5,1555 281.3,1553.6 278.8,1553.9 C277,1554.2 269.8,1555.1 262.6,1556 C240.4,1558.7 215,1566.3 191.4,1577 C175.8,1584.2 128.3,1604.7 116.1,1609.6 C100,1616.1 87.2,1619.3 74.6,1620.1 C43.5,1621.9 12.4,1608.6 2.7,1589.3 C-0.8,1582.2 -1,1571.7 2.4,1565.6 C6.4,1558.2 15.2,1548.6 37.1,1527.8 C60.7,1505.3 66.5,1499 71.8,1489.6 C84.6,1466.8 89.6,1434.9 93.6,1349.9 C94.5,1331.8 100.1,1215 106.1,1090.4 L117,863.9 L120.6,667.4 C123.6,499.4 124.1,452.1 124.1,341.3 L124.1,211.7 L127.5,192.3 C135.4,148.2 145.5,103.7 152.2,83.9 C167.2,39.4 191.8,11 222.6,2.3 C237.6,-2 261.2,-0.2 276.2,6.2 C280.3,8 281.8,9.6 289.8,21.6 C300.5,37.4 304.9,45.3 308.9,55.5 C311.9,63 316.8,81.9 319.1,94.4 L320.2,100.9 L326.9,103.6 C333.2,106.1 340.2,107 434.1,116.9 L534.6,127.5 L727.1,139.5 L919.6,151.4 L1081.6,156.9 L1243.6,162.3 L1311.6,160.8 C1384.1,159.3 1390.2,158.8 1406.5,153.7 C1418.8,149.8 1425.1,146.6 1425.1,144 C1425.1,140.3 1431.1,112.3 1434.3,100.9 C1440.8,77.4 1451.7,53.7 1462.8,38.2 C1469.6,28.7 1483.5,15.2 1491.3,10.6 C1500.9,4.9 1507.5,3 1518.1,3 C1529.7,3 1535.2,4.9 1548.2,13.6 C1575.7,32 1605.4,73 1624.1,118.4 C1633.6,141.7 1639.7,162.5 1643.6,186 C1646.8,204.9 1665.3,492.8 1685.6,841.9 L1700.1,1090.9 L1715.1,1212.9 C1723.3,1280.3 1730.9,1338.3 1732,1342.4 C1734.4,1351.8 1737.8,1360.2 1748,1382.6 C1757.4,1403.1 1773.2,1440.6 1778.4,1454.5 C1789.1,1483.1 1789.9,1497.1 1781.6,1513.4 C1774.6,1527.2 1766.9,1535.5 1727.1,1571.3 C1660.4,1631.4 1625,1659.1 1595.1,1674.3 C1577.6,1683.2 1566.6,1685.9 1552.9,1684.4 C1538.1,1682.9 1529.7,1680.5 1473,1661.9 C1402.2,1638.6 1400.6,1638.3 1237.6,1617.8 L1138.6,1605.4 L949.1,1590.3 C774,1576.5 749.1,1574.7 621.1,1567.4 C544.9,1563 481.5,1559.4 480.1,1559.4 C478.4,1559.4 481,1561.3 488.6,1565.5 C503.9,1574 512,1579.4 523.1,1588.4 C528.3,1592.6 539.1,1601.2 547.1,1607.5 C568,1623.9 596.1,1646.7 659.1,1698.4 C689.6,1723.5 740.9,1765.5 773.1,1791.9 C837.6,1844.6 835.8,1843.1 919.6,1920.4 C1031,2023.3 1036.8,2028.3 1071.3,2051.7 C1135,2094.7 1145.3,2104.8 1148.2,2127.5 C1151.1,2150.7 1142.6,2179.2 1125.8,2202.6 C1110.5,2223.9 1095.7,2238.3 1053.6,2273.4 C980.4,2334.2 962.5,2346.3 938.3,2351 C928.9,2352.8 900.9,2352.7 892.6,2350.9 L892.6,2350.9 Z M1509.1,1491.4 C1527.7,1489.9 1535.5,1486.4 1540.1,1477.4 C1544.9,1468 1545,1460.1 1541.6,1356.5 C1538.8,1270.6 1524.7,1012.4 1522.8,1010.8 C1522.7,1010.7 1512.5,1010.1 1500.1,1009.5 C1436.2,1006.2 889.4,971 651.9,954.9 C387.6,936.9 284.1,930.2 283.2,931 C281.7,932.4 281.1,964.7 280.2,1079.9 C279.1,1212 277.9,1305.9 276,1384.3 C275.5,1408.7 275.2,1428.9 275.5,1429.1 C275.8,1429.4 282.9,1428.2 291.3,1426.5 C329.1,1418.8 349.2,1417 388.4,1417.7 C431.3,1418.5 491.4,1422.6 801.6,1446.4 C1198.2,1476.8 1375.1,1488.7 1467.6,1491.3 C1482.4,1491.7 1495.3,1492.1 1496.1,1492.2 C1496.9,1492.3 1502.8,1491.9 1509.1,1491.4 L1509.1,1491.4 Z M1512.1,859.2 C1512.1,853.5 1486.4,392 1485.1,373.9 C1482.8,342.7 1480.6,331.7 1475.4,325.7 C1472.8,322.7 1471.8,322.4 1464.1,321.4 C1439.9,318.5 1416.8,317.3 1220.6,308.8 C1137.6,305.3 986.4,298.1 884.6,292.9 C710.7,283.9 690.6,282.7 549.1,272.4 C466.3,266.3 377.6,259.7 351.8,257.7 C326.1,255.7 304.9,254.3 304.6,254.6 C303.8,255.4 299.3,278.4 298,288.9 C296.3,302.3 296.3,359.3 298,397.9 C300.4,450.5 299.9,472 293.7,590.8 C288.6,689.8 288.1,703.7 288.1,744 L288.1,788.3 L291.4,788.9 C307.4,791.7 343,795.1 466.1,805.4 L608.6,817.4 L937.1,837.4 L1265.6,857.5 L1360.1,860.3 C1412.1,861.9 1467.5,863.2 1483.4,863.3 L1512.1,863.4 L1512.1,859.2 L1512.1,859.2 Z" id="Shape" sketch:type="MSShapeGroup"></path>
        </g>
    </g>
</svg>