<?xml version="1.0" encoding="UTF-8" standalone="no"?>
<svg width="2299px" height="1886px" viewBox="0 0 2299 1886" version="1.1" xmlns="http://www.w3.org/2000/svg" xmlns:xlink="http://www.w3.org/1999/xlink" xmlns:sketch="http://www.bohemiancoding.com/sketch/ns">
    <!-- Generator: Sketch 3.0.4 (8053) - http://www.bohemiancoding.com/sketch -->
    <title>Group</title>
    <desc>Created with Sketch.</desc>
    <defs></defs>
    <g id="Page-1" stroke="none" stroke-width="1" fill="none" fill-rule="evenodd" sketch:type="MSPage">
        <g id="Group" sketch:type="MSLayerGroup" transform="translate(1149.200000, 942.800000) scale(1, -1) translate(-1149.200000, -942.800000) translate(0.200000, 0.800000)" fill="#000000">
            <path d="M974.3,1752.6 C967.19999,1547.64697 977.2,1671.7 979.7,1215.8 L982.4,716.3 L977.2,546.8 C971.8,370.2 971.3,359.3 967.2,320.8 C962.6,277.2 958.9,258 954,251.9 C950.2,247.2 940.8,242.2 932.3,240.2 C924.4,238.4 906.2,238.2 898.1,239.7 C895.2,240.3 841,246.6 777.6,253.8 C714.2,260.9 658.3,267.5 653.5,268.4 C648.7,269.3 644.5,269.9 644.3,269.6 C643.6,268.9 654,241.3 655.7,239.6 C656.6,238.7 697.1,212.4 745.8,181.2 C805.5,143 837.7,121.7 844.8,115.9 C860.1,103.4 901.7,67.6 928.8,43.7 C972.7,5 978.4,1.6 1001.7,0.2 C1046.6,-2.6 1083.7,23.8 1110.6,77.4 C1125.7,107.6 1134.2,138.5 1137.3,174.8 C1140.4,211.7 1140.8,266.2 1140.8,682.1 L1140.8,1099 L1235.4,1005.1 L1330,911.3 L1473.3,753.3 C1715,486.6 1768.2,430.3 1836.3,368.8 C1854.4,352.4 1868.8,340.4 1874.6,336.7 C1887.9,328.3 1940.5,321.4 2047.3,314.1 C2110.7,309.7 2250.7,314.2 2274.5,321.3 C2285.6,324.6 2294.5,333.8 2296.9,344.3 C2298.5,351.5 2297.8,352.4 2283.1,363.5 C2268.7,374.3 2273,371.7 2146.3,448.8 C2089.7,483.2 1999.9,538.1 1946.8,570.6 L1850.3,629.8 L1755.3,706.2 L1660.3,782.6 L1556.8,874.3 C1499.9,924.8 1401.4,1011.7 1338.1,1067.6 C1274.7,1123.4 1222.8,1169.4 1222.8,1169.8 C1222.8,1170.1 1227.9,1172.6 1234.1,1175.3 C1294.5,1201.3 1426.8,1263.8 1513.1,1307 C1527.4,1314.1 1559.8,1331.5 1585.1,1345.7 C1741.3,1433 1761.7,1443.3 1816.6,1462.4 C1868.9,1480.6 1880.5,1486.3 1886.4,1496.5 C1888.8,1500.5 1889.3,1502.6 1889.6,1510.4 C1890.3,1526 1885.1,1543.9 1872.4,1570.4 C1842,1633.3 1792.5,1694 1748.3,1722.6 C1725.8,1737.2 1701.7,1743.5 1684.4,1739.4 C1670,1736 1656.9,1726.9 1652.3,1717.3 C1649.4,1711 1649.4,1704.9 1652.3,1678.7 C1655.4,1651.2 1655.3,1641.6 1651.8,1627.8 C1649.1,1617 1640.8,1599.8 1632.6,1588.3 C1619.7,1570 1593,1544.7 1548.8,1508.7 C1409.6,1395.3 1308.6,1323 1209.8,1266.3 C1181.3,1249.9 1139.7,1227.6 1139,1228.3 C1138,1229.3 1143.50002,1619.1773 1143.5,1757.1 C1143.49998,1895.0227 981.40001,1957.55303 974.3,1752.6 Z" id="Shape" sketch:type="MSShapeGroup"></path>
            <path d="M138.1,1474.9 C138.4,1473.5 139.7,1467.1 140.9,1460.7 L143.1,1449.2 L147.7,1447.4 C158.7,1443 181.2,1431.4 192,1424.5 C212.5,1411.3 233.3,1395.1 294.3,1344.3 C313.6,1328.3 337.6,1308.9 347.8,1301.3 C368,1286.1 358.8,1294.8 484.4,1171.2 C539.4,1117 542.8,1113.9 549.9,1110.5 C560.2,1105.5 569.2,1103.5 581.8,1103.5 C590.8,1103.4 593.3,1103.8 599,1106.1 C620,1114.3 636.3,1132.2 644.4,1156.2 C652.4,1179.7 651.9,1211.7 643.2,1236 C627,1281 583.9,1324.1 516.8,1362.3 C456.3,1396.8 369,1430.4 270.8,1457.2 C243,1464.7 237.2,1465.6 153,1475.6 L137.6,1477.4 L138.1,1474.9 L138.1,1474.9 Z" id="Shape" sketch:type="MSShapeGroup"></path>
            <path d="M766.6,1004.8 C754,1001.6 735.8,989.2 696.3,956.8 C607.6,884.1 464.5,775.4 394.8,727.8 C291.7,657.3 201,603.8 163.7,591.3 C141.4,583.9 125.9,588.1 105.3,607 C86.8,623.9 73.9,634.5 59.9,644.2 C52.3,649.5 45.6,653.8 45.1,653.8 C43.4,653.8 25.5,636.3 19.6,628.9 C13,620.6 4.8,604.5 2.3,594.8 C1.3,591.1 0.4,582.4 0.1,574.8 C-0.5,559.5 0.6,553.5 7.2,535.3 C12.5,520.8 28.3,489.5 38.7,473.1 C72.9,418.4 112.5,382.2 148.2,372.9 C169.2,367.4 194.7,372.4 222.8,387.5 C242.3,398 250.9,404.7 265.6,421.3 C286.1,444.2 333.8,491.7 439.8,594.6 L543.3,695.1 L619.2,776.2 C660.9,820.8 701.4,864.7 709.2,873.8 C746.9,917.5 776.7,956.8 787.3,976.8 C795.7,992.8 791,1004.2 775.5,1005.3 C772.6,1005.5 768.6,1005.3 766.6,1004.8 L766.6,1004.8 Z" id="Shape" sketch:type="MSShapeGroup"></path>
        </g>
    </g>
</svg>