<?xml version="1.0" encoding="UTF-8" standalone="no"?>
<svg width="2339px" height="2410px" viewBox="0 0 2339 2410" version="1.1" xmlns="http://www.w3.org/2000/svg" xmlns:xlink="http://www.w3.org/1999/xlink" xmlns:sketch="http://www.bohemiancoding.com/sketch/ns">
    <!-- Generator: Sketch 3.0.4 (8054) - http://www.bohemiancoding.com/sketch -->
    <title>Slice 2</title>
    <desc>Created with Sketch.</desc>
    <defs></defs>
    <g id="Page-1" stroke="none" stroke-width="1" fill="none" fill-rule="evenodd" sketch:type="MSPage">
        <g id="Group" sketch:type="MSLayerGroup" transform="translate(1169.500000, 1205.000000) scale(1, -1) translate(-1169.500000, -1205.000000) translate(0.000000, 0.200000)" fill="#000000">
            <path d="M1350,2408.7 C1339.6,2407.1 1310,2399.4 1310,2398.4 C1310,2397.8 1313.2,2387.4 1317,2375.3 C1320.9,2363.2 1324.5,2350.4 1325.1,2346.9 C1326.5,2339.1 1325.6,2331 1322.9,2325.5 C1316.6,2313.2 1294.5,2296.4 1247.6,2268.4 C1160.7,2216.4 1059.5,2166.2 965.7,2128.7 C934.3,2116.1 729.9,2039.2 698,2028 C608.3,1996.5 437.2,1940 379,1922.8 C369.4,1920 360.9,1917.5 360.3,1917.3 C359.6,1917 357.8,1914.4 356.3,1911.4 L353.7,1906 L357.8,1899 L361.9,1892 L380.7,1888.4 C420.9,1880.7 428.1,1880.5 497.3,1884.3 L542.5,1886.8 L641.9,1901.4 L741.3,1916 L848.9,1941.3 L956.5,1966.6 L979.9,1975.8 C992.7,1980.8 1003.4,1984.8 1003.5,1984.6 C1003.6,1984.4 1005.1,1981.6 1006.8,1978.3 C1011.2,1969.5 1023.7,1950.9 1039.9,1929.3 C1051.7,1913.5 1055.4,1907.6 1062,1894.3 C1079.7,1858.6 1086.4,1827.8 1090,1766.3 C1092.1,1730.7 1095,1508.8 1093.4,1508.8 C1092.9,1508.8 1064.4,1504.7 1030,1499.8 C875.2,1477.4 483.6,1425.2 460.5,1423.8 C439.8,1422.6 436.5,1422.3 421.5,1419.8 C387.2,1414.1 335.7,1410.8 278.6,1410.8 L246.8,1410.8 L217.1,1416.8 C200.8,1420.1 168.9,1425.9 146.2,1429.8 L104.9,1436.8 L79.7,1447.2 C42.4,1462.5 40,1463.2 30,1463.3 C23.2,1463.3 20.7,1462.9 17.5,1461.1 C5.7,1454.8 0,1441.7 0,1421.3 C0,1386.9 15.7,1348.7 38.3,1328.3 C45.5,1321.7 47.9,1320.1 99,1287.6 C185,1232.9 212,1218.4 236.7,1213.7 C245.4,1212.1 279.7,1213.1 292,1215.3 C305.6,1217.8 313.3,1219.9 362.5,1235.1 C386.7,1242.6 411.5,1250.1 417.5,1251.7 C423.6,1253.4 536.2,1276.2 667.9,1302.3 C866.7,1341.8 918.9,1351.8 975.4,1361.4 C1043.6,1372.9 1075.8,1378.5 1088,1381.1 L1094.5,1382.5 L1094.2,1367.4 C1094.1,1359.1 1093,1330.5 1092,1303.8 C1090.9,1277.1 1089.5,1234.2 1089,1208.3 C1085.8,1057.8 1081.1,857.6 1080.7,857.2 C1080.6,857 1074.8,856.2 1068,855.3 C1061.1,854.4 1031.2,850.4 1001.5,846.3 C971.8,842.2 938.9,837.7 928.5,836.4 C900.5,832.7 764.5,819 743,817.7 C723.4,816.5 669,817.1 652.3,818.7 C643.4,819.6 642.8,819.8 630.8,826.7 C601.8,843.4 570.7,854.1 535.8,859.4 C522,861.5 481.7,862.4 470.8,860.9 C445.1,857.2 428.8,848.3 421.8,834 C418.7,827.7 418.5,826.8 418.5,816.3 C418.5,806 418.7,805 421.5,799.8 C425.7,792.1 437.7,780.5 465,757.6 C494.8,732.8 499.6,727.7 512.3,708.3 C536.6,671 555.8,617.1 568.5,550.3 C580.3,488.8 644.6,160.6 647.6,146.8 C658.1,98.9 673.1,58.9 689.1,36.4 C696.6,25.9 708.4,14.6 717,9.5 C729,2.6 744.9,-0.9 760,0.2 C792.6,2.6 812.4,19.8 819.3,51.7 L821.5,61.8 L826.2,61.8 C832.4,61.8 862.2,65.8 900.5,71.9 C929,76.4 943.6,77.9 1083.5,90.3 C1228.4,103.1 1240.7,104.1 1347,110.4 C1473.9,117.9 1480.1,118 1537,113.4 C1610,107.5 1620,106.8 1635,106.8 C1660.6,106.8 1676.6,110.8 1690.6,120.7 C1701.6,128.4 1708.3,138.5 1711.4,151.8 C1713.2,159.4 1713.5,176.4 1711.9,185.4 L1710.8,191.7 L1715.7,200.5 C1722.4,212.3 1725.9,221.1 1732,241.3 C1748.4,295.2 1791.9,400.8 1846.6,519.6 C1870.4,571.2 1882.8,594.9 1905.3,631.7 C1916,649.2 1934.5,678 1942.8,689.8 C1946.8,695.6 1951.8,703.6 1953.8,707.7 C1957.4,715 1957.5,715.4 1957.8,728.8 C1959.1,774.6 1945.2,793.5 1864.5,855.3 C1783.8,917.3 1738.4,940.9 1700.5,941 C1688.2,941 1675.4,939.1 1609.5,927.8 C1580.9,922.9 1550.1,917.9 1541,916.8 C1531.9,915.6 1483.1,909.3 1432.5,902.7 C1261,880.4 1241,877.8 1239,877.8 C1237.1,877.8 1237,878.5 1237,894.1 C1237,903 1237.9,943.6 1239,984.3 C1240.1,1025 1241.4,1077.2 1242,1100.3 C1243.4,1158.7 1246.6,1233.1 1253.2,1359 L1255.4,1401.6 L1258.9,1402.2 C1260.9,1402.5 1271.5,1403.5 1282.5,1404.3 C1293.5,1405.2 1354.5,1410.8 1418,1416.9 L1533.5,1427.9 L1653.8,1433.3 L1774,1438.7 L1910.8,1434.8 C2069,1430.3 2075.2,1429.8 2123.5,1420.2 C2173.8,1410.3 2199,1407.4 2235.5,1407.4 C2265.7,1407.4 2274.5,1408.6 2292.2,1415.2 C2304.6,1419.9 2311.4,1424.2 2320.6,1433.3 C2333.2,1445.7 2339,1459.5 2339,1476.9 C2339,1515 2305.3,1551 2246.8,1575.2 C2237.9,1578.9 2180.8,1596.2 2121.5,1613.3 C2069,1628.4 2066,1629.1 2057,1628.5 C2045.5,1627.6 2012.5,1618.9 1965.8,1604.4 C1946.1,1598.3 1917.3,1592 1894.5,1588.9 C1886.3,1587.7 1756,1577.1 1605,1565.3 L1330.5,1543.9 L1295.7,1538.7 C1276.6,1535.9 1260.8,1533.7 1260.6,1533.9 C1260.4,1534.1 1262,1581.6 1264.1,1639.3 L1268,1744.3 L1273.5,1772.8 C1282.2,1817.9 1284.9,1833.5 1286.2,1844.9 C1287.3,1854.8 1287.2,1856.2 1285.2,1864.4 C1279.8,1886.2 1262.7,1912.3 1234.1,1941.9 C1206,1971.3 1163.3,2005 1134.5,2020.8 C1130.4,2023.1 1127,2025.3 1127,2025.7 C1127,2026 1134.5,2029 1143.8,2032.2 C1153,2035.5 1215.4,2059.8 1282.5,2086.3 C1349.6,2112.8 1406.3,2134.9 1408.5,2135.2 C1424.3,2138 1529.9,2164.2 1554,2171.4 C1562.5,2173.9 1573.3,2176.8 1578,2177.9 C1596.8,2182.1 1607.8,2187.5 1617.1,2197 C1627.9,2207.9 1633,2222.7 1633,2242.6 C1632.9,2277.9 1621.6,2288.3 1532.1,2335.5 C1515.8,2344.1 1489.7,2358.1 1474,2366.6 C1420,2395.7 1397,2406.2 1381,2408.7 C1373.4,2410 1357.9,2409.9 1350,2408.7 L1350,2408.7 Z M1696.5,776.4 C1723.2,771.8 1736,763 1736,749.2 C1736,735.4 1711.3,638.7 1686.9,557.3 C1685.2,551.8 1659.1,483.6 1628.8,405.7 L1573.8,264.1 L1567.1,263.4 C1563.5,263.1 1540,261.2 1515,259.3 C1490,257.4 1460.5,254.9 1449.5,253.8 C1438.5,252.7 1304,240.3 1150.5,226.3 C997.1,212.2 866.1,199.8 859.5,198.6 C850.4,197.1 841.4,196.5 822.4,196.1 L797.2,195.6 L796.2,198.9 C793.9,206 787,234.1 782.6,253.8 C773.8,293.7 765.4,339.7 733.4,523.8 C723.8,579.1 713.9,635.4 711.5,648.9 C709,662.4 707,673.8 707,674.1 C707,674.5 709,674.8 711.5,674.8 C716.8,674.8 743.9,679.4 767.8,684.3 C777.3,686.2 843.2,696.2 914.3,706.4 L1043.5,724.9 L1232,746.4 L1420.5,767.9 L1528.5,773.3 C1645.6,779.1 1677.3,779.7 1696.5,776.4 L1696.5,776.4 Z" id="Shape" sketch:type="MSShapeGroup"></path>
        </g>
    </g>
</svg>