<?xml version="1.0" encoding="UTF-8" standalone="no"?>
<svg width="1220px" height="2346px" viewBox="0 0 1220 2346" version="1.1" xmlns="http://www.w3.org/2000/svg" xmlns:xlink="http://www.w3.org/1999/xlink" xmlns:sketch="http://www.bohemiancoding.com/sketch/ns">
    <!-- Generator: Sketch 3.0.4 (8054) - http://www.bohemiancoding.com/sketch -->
    <title>Slice 2</title>
    <desc>Created with Sketch.</desc>
    <defs></defs>
    <g id="Page-1" stroke="none" stroke-width="1" fill="none" fill-rule="evenodd" sketch:type="MSPage">
        <g id="Group" sketch:type="MSLayerGroup" transform="translate(609.700000, 1173.400000) scale(1, -1) translate(-609.700000, -1173.400000) translate(0.200000, 0.900000)" fill="#000000">
            <path d="M604.3,2345.2 C578.3,2343 565,2331.8 554.2,2303.1 L551.8,2296.8 L565.2,2282.1 C597.1,2247.3 606.4,2232.2 607.5,2212.9 C608.5,2197.6 602.4,2180.1 577.6,2125.9 C554.9,2076.5 543.3,2054.3 519,2013.9 C482.6,1953.2 449.7,1907.2 383.2,1824.3 C240.6,1646.4 197.4,1597.5 117.6,1523.7 C99.6,1507 41.5,1455.3 30.3,1445.9 C15.6,1433.6 3.6,1418.6 0.6,1408.8 C-2.6,1398.1 6.5,1388 19.4,1387.9 C37.9,1387.8 86,1409.9 151.8,1448.7 C191.5,1472.1 241.3,1504.3 251.3,1513 C254,1515.4 291.8,1550 335.4,1589.9 L414.5,1662.4 L490.5,1744.9 L566.4,1827.4 L641.3,1925.9 C724,2034.8 746.6,2063.9 748.2,2063.9 C753.6,2063.9 832.3,2018.8 855.2,2002.7 C910.1,1963.9 953.1,1926.1 1044.8,1835.4 C1067.6,1812.8 1089.7,1791.4 1093.8,1787.8 C1115.1,1769 1126.7,1763.8 1146.6,1763.6 C1161.5,1763.5 1171.8,1766.9 1186.5,1776.5 C1197.4,1783.8 1205.8,1793.1 1211.4,1804.4 C1217.3,1816.4 1219.1,1825.3 1218.5,1839.4 C1217,1870.5 1198.2,1906.6 1160.1,1951.6 C1126.1,1991.7 1089.7,2018.9 1029.9,2048.8 C990.6,2068.5 900.8,2105.9 882.1,2110.4 C853.6,2117.2 807.2,2130.2 805.5,2131.8 C805.1,2132.2 807.7,2138.2 811.3,2145.2 C823.7,2169 827,2182.7 823.3,2195.4 C811.6,2236.1 741.1,2300.3 676.8,2329 C650.6,2340.7 623.1,2346.9 604.3,2345.2 L604.3,2345.2 Z" id="Shape" sketch:type="MSShapeGroup"></path>
            <path d="M630.3,1845.4 C608.2,1841.2 590.4,1829.2 571.4,1805.6 L567.5,1800.8 L582.3,1778.6 C590.5,1766.4 602.6,1749 609.3,1739.9 C635.7,1704.2 638.5,1696.4 639.5,1657.4 C640.5,1614.1 636.2,1521 632.4,1506.1 C631.7,1503.3 630.3,1500.9 628.7,1499.7 C624.4,1496.5 610.5,1492.3 583.8,1486.4 C567.7,1482.8 554.9,1479.4 548.9,1476.9 C510.6,1461.7 454.9,1448 431,1447.8 C417.7,1447.8 411.3,1449.7 348.9,1472.8 C303,1489.9 293.4,1491.8 271.1,1488.5 C244.1,1484.5 224.2,1473.5 216.8,1458.6 C208.4,1441.5 212.7,1430.2 241.6,1394.1 C262,1368.6 271.2,1354.4 280,1334.7 C288.9,1314.7 300.4,1277.6 302.7,1260.9 C305.5,1241.5 311.6,1166.3 316.8,1088.4 C319,1054.5 320.4,1019.7 322.4,946.9 L325,850.4 L320.9,713.4 L316.8,576.4 L307.3,462.4 C302.1,399.7 296.9,341.9 295.8,333.9 C293,314.1 288.6,295.4 282.3,276.4 C275.1,254.4 271.6,246.8 257.7,223.3 C235.3,185.4 234.4,182.2 235.1,148.9 C235.8,119.6 238.9,100.5 247,76.9 C255.6,51.8 265.7,34.6 280.7,19.9 C295.4,5.3 309,-0.8 324.9,0.1 C342.2,1.1 353.3,11 376.2,45.7 C401.8,84.6 420.8,104.2 472.9,145.1 C493.8,161.6 525.8,185.3 690.8,306.9 L837.2,414.8 L842.9,398.6 C866.5,330.9 889.1,298.4 921.8,285.2 C935,279.9 953.9,278.3 964.9,281.5 C986,287.7 1002.1,312.7 1008.2,349.2 C1018.2,407.9 1003.2,487 969,555.4 C920.2,653.3 842.7,716.2 746.3,736.5 C739.4,737.9 733.5,738.9 733.3,738.8 C732.8,738.2 734.7,720.3 735.9,713.9 C738.1,702 743.2,690.3 754.4,671.3 C775.3,635.7 796.4,583 806.9,540.4 C810.6,525.3 810.8,521.1 807.9,517.1 C805.7,513.9 791.9,504.3 767.8,489.1 C759.8,484.1 744.5,473.1 733.8,464.7 C723.1,456.2 712.1,447.7 709.3,445.7 C703.8,441.8 524,339.9 506.1,330.7 C486.2,320.4 465.5,313.8 457.6,315.3 C449.3,316.8 447.8,322.6 447.1,355.9 C446.8,369.9 447.1,410.7 447.7,446.4 C448.3,482.2 449.2,556.2 449.8,610.9 L450.9,710.4 L453.5,720.7 C454.9,726.4 456.7,731.6 457.4,732.3 C459.1,734 491.4,744.7 511.9,750.3 C568.1,765.7 638.9,778.5 710.3,786.3 C764.2,792.2 805.2,794.7 864.8,795.9 C915.3,796.8 919.6,797.3 932.4,803.5 C960,817 981.2,855.3 996.8,920.4 C1002.8,945.3 1004,952 1034.3,1128.9 C1053.9,1243 1063.9,1299.3 1066.3,1307.9 C1071.4,1326.6 1080.4,1350.6 1092.2,1377.2 C1112.5,1423 1115.4,1432.2 1114.6,1449.8 C1113.9,1467.7 1107.9,1475.8 1069.8,1510.4 C1060.7,1518.6 1042.7,1535.7 1029.8,1548.4 C1016.9,1561.1 1002.3,1574.7 997.3,1578.7 C975.7,1596 959.7,1599.7 934.6,1593 C922.4,1589.8 868.1,1572 820.4,1555.5 L792.6,1545.9 L793.3,1552.6 C794.2,1562 798.6,1585.7 807.4,1630.4 C821.1,1699.9 823.3,1716.3 820.9,1729.1 C819.3,1737.3 813.1,1750.4 806.9,1758.8 C800.8,1767 783.8,1783.5 773.8,1791 C747.8,1810.4 713.3,1828.2 680.8,1838.9 C657.2,1846.7 645.4,1848.3 630.3,1845.4 L630.3,1845.4 Z M904.8,1428 C906.2,1427 908.2,1424.5 909.3,1422.3 C911.1,1418.8 911.3,1416.5 911.2,1400.9 C911.2,1381.8 910.1,1371.1 903.3,1323.4 C897.6,1283.8 892.2,1253.1 890.3,1250.2 C888.2,1247.1 878.7,1242.4 868.1,1239.4 C847.7,1233.4 823.7,1228.9 762.5,1219.5 C715.9,1212.2 727.8,1214.9 575.8,1177.4 C521.1,1163.9 473.8,1152.6 470.7,1152.2 C465.1,1151.7 465.1,1151.7 464.4,1154.5 C464,1156.1 463.3,1171.1 462.8,1187.9 C462.2,1204.7 460.9,1235.1 459.7,1255.4 C458.5,1275.8 457.5,1300.1 457.4,1309.4 C457.2,1333.1 457.2,1333.1 481.2,1337.9 C498.6,1341.4 508.3,1343.8 565.1,1359 C589.7,1365.5 617.8,1372.9 627.6,1375.3 C662.5,1384.1 845.5,1425.9 855.8,1427.5 C867.4,1429.3 892.1,1430.8 898.3,1430.1 C900.5,1429.9 903.4,1428.9 904.8,1428 L904.8,1428 Z M873.2,1104.2 C872.4,1099.3 867.8,1063.2 862.8,1023.9 C857.9,984.6 853.1,949.7 852.2,946.4 C850,937.9 845.1,929.3 840.6,925.7 C833.7,920.3 827.4,918.4 802.3,914.5 C651.7,890.8 540.8,871.5 485.4,859.3 C471.7,856.3 460.1,854.2 459.6,854.7 C457.9,856.4 456.6,884.9 457.2,906.4 C458.2,938.1 461.7,996.8 464.5,1027 L465.1,1033.6 L484.2,1038.8 C512.9,1046.4 568.9,1060.1 599,1066.8 C616.8,1070.8 656.2,1077.8 717,1087.9 C767.2,1096.2 821.1,1105.2 836.8,1107.8 C852.5,1110.5 867.4,1112.7 869.9,1112.8 L874.5,1112.9 L873.2,1104.2 L873.2,1104.2 Z" id="Shape" sketch:type="MSShapeGroup"></path>
        </g>
    </g>
</svg>