<?xml version="1.0" encoding="UTF-8" standalone="no"?>
<svg width="2463px" height="2401px" viewBox="0 0 2463 2401" version="1.1" xmlns="http://www.w3.org/2000/svg" xmlns:xlink="http://www.w3.org/1999/xlink" xmlns:sketch="http://www.bohemiancoding.com/sketch/ns">
    <!-- Generator: Sketch 3.0.4 (8054) - http://www.bohemiancoding.com/sketch -->
    <title>Slice 2</title>
    <desc>Created with Sketch.</desc>
    <defs></defs>
    <g id="Page-1" stroke="none" stroke-width="1" fill="none" fill-rule="evenodd" sketch:type="MSPage">
        <g id="Group" sketch:type="MSLayerGroup" transform="translate(1231.800000, 1200.500000) scale(1, -1) translate(-1231.800000, -1200.500000) translate(0.600000, 0.100000)" fill="#000000">
            <path d="M1002.4,2400.2 C977.6,2396.1 956.8,2383.5 948.8,2367.7 C943.5,2357.3 944.3,2353.2 956.6,2325.5 C969.8,2295.8 970.7,2292.4 968.4,2279.3 C955.1,2204.5 845,2038.4 694.4,1866.4 C617.1,1778.1 518.7,1677.8 427.9,1594.8 C299.8,1477.9 155.7,1365.4 29.4,1284 C15.1,1274.7 5.7,1266.3 2.3,1259.7 C-1.8,1251.7 -0.1,1239.5 5.6,1235.5 C8.8,1233.2 18.3,1233.5 27.3,1236 C63.2,1246.1 156.6,1293.3 258.4,1352.7 C294.1,1373.6 312.9,1385.2 417.9,1451.4 C480.6,1490.9 513.2,1512 525.4,1521.2 C549.7,1539.3 574.7,1558.5 588.6,1569.6 C602,1580.3 601,1580.2 609.1,1571.6 C621.7,1558.3 631.4,1537 639,1506.4 C644.5,1484 646.5,1468.2 647.1,1443.4 C647.6,1418.6 613.4,363.9 611.4,342.4 C608.7,314.4 602.3,287.3 588.3,245.7 C567.5,183.6 566.2,171 577.1,139.4 C589.9,102.3 620.3,56.7 648.9,31.7 C681.9,2.6 714.2,-6.8 740.1,4.9 C754.1,11.3 767.7,21.7 791.6,44.5 C808.8,61.1 823,73.3 832.9,80.4 C836.2,82.7 892.4,115.3 957.9,152.9 L1076.9,221.1 L1168.7,286.2 L1260.6,351.4 L1352.2,425.7 C1402.6,466.5 1444.1,499.9 1444.4,499.9 C1444.8,499.9 1490.7,462 1546.5,415.7 C1631.3,345.3 1666.4,317 1760.4,243.1 C1822.3,194.6 1878.2,151.1 1884.7,146.6 C1929,115.7 1968.1,98.1 2008.9,90.8 C2056,82.3 2197.9,97.6 2287.9,120.9 C2345.9,135.9 2377.4,153.3 2377.4,170.4 C2377.4,179.6 2358.9,191.4 2315.9,209.7 C2278.5,225.6 2239.8,239.8 2140.9,273.9 C2118.4,281.7 2093.2,290.5 2084.9,293.6 C2072.7,298.1 1977.5,340.2 1842.9,400.6 C1780.3,428.7 1732.8,454.8 1677.4,491.3 C1656.3,505.2 1510,606.9 1488.4,622.7 C1474.2,633 1469.4,638.7 1469.4,645.2 C1469.4,647.9 1470.2,649.4 1472.9,651.8 C1480.7,658.6 1516.9,681.5 1578.7,718.8 C1601.7,732.7 1624.2,746.4 1628.7,749.3 C1633.2,752.2 1669.8,775.2 1709.9,800.4 C1763.3,834 1787.9,848.8 1801.4,855.6 C1842,876.2 1853.4,883.7 1864.1,896.9 C1873.3,908.2 1879.4,923.1 1879.4,933.9 C1879.4,951.3 1858.7,990.7 1830.2,1027.4 C1819.4,1041.3 1795.3,1065.9 1784.4,1074.1 C1767,1087.2 1752.4,1094.8 1736.6,1099.1 C1725.8,1102 1706,1102 1695.3,1099.1 C1679.7,1094.9 1667,1085.9 1660.8,1074.6 C1658.4,1070.3 1657.9,1068.2 1657.9,1062.4 C1657.9,1056 1658.6,1053.8 1666.1,1034.9 C1670.6,1023.6 1674.6,1012.8 1675.2,1010.9 C1680.1,992.6 1636,932.6 1567.8,864.5 C1543.1,839.8 1403.3,713.5 1397.1,710.2 C1394.8,709 1392.3,708 1391.6,707.9 C1390.9,707.9 1369.3,722.4 1343.6,740.2 C1223,823.7 1176,854.1 1140.9,871.4 C1108.8,887.2 1094.7,889 1076.3,879.3 C1052.9,867 1043.5,844.3 1053.2,823.6 C1058.9,811.3 1061.6,809 1121.4,766.4 C1164.6,735.6 1188.8,717.9 1204.5,705.8 C1219.2,694.4 1414.8,529.8 1415.3,528.5 C1415.6,527.4 1387.6,512.5 1353.9,495.8 C1314.1,476.2 1131.2,397.8 981.1,336 L847.3,280.8 L814.6,272.9 C796.6,268.6 781.8,265.1 781.7,265.3 C781.2,265.7 779.3,284.3 778.4,297.9 C775,345 777.8,522.3 785.4,754.9 C787.6,821.2 789.4,876.8 789.4,878.5 C789.4,881.4 789.7,881.7 793.2,882.2 C816.6,885.9 953.2,900.6 1113.9,916.9 C1222.8,927.9 1317.1,937.6 1323.4,938.4 C1341,940.7 1369.1,942 1386.9,941.3 C1402.8,940.7 1403.1,940.6 1427.5,933.8 C1459.5,924.9 1479.2,920.1 1486.8,919.3 C1521.5,915.9 1557.4,956.1 1566.8,1008.9 C1567.7,1013.6 1581.9,1109.4 1598.4,1221.9 C1643.8,1530.9 1642.5,1523.2 1657.9,1568.3 C1667.2,1595.4 1671.4,1610.8 1671.4,1617.4 C1671.3,1627.7 1665.9,1636.9 1651.4,1652.2 C1616.4,1688.9 1544.9,1731 1503.1,1739.5 C1496.1,1741 1493.7,1741 1486.7,1740 C1476,1738.5 1450.8,1731.3 1416.2,1720 C1387.4,1710.5 1374.4,1707.3 1340.3,1701.5 C1305.5,1695.5 1243.9,1687.1 1242.9,1688.1 C1242.3,1688.7 1245.5,1704.4 1254.4,1744.4 C1274.5,1834.5 1275.3,1844.7 1263.9,1868.4 C1250.9,1895.4 1227.7,1910.8 1172.1,1929.3 C1127.8,1944.2 1085.9,1953.9 1066.5,1953.9 C1044,1953.9 1020,1940.9 1011.5,1924.1 C1007.8,1916.8 1005.9,1907.2 1007.3,1902.4 C1009.7,1893.7 1020.2,1878.6 1044.3,1849 C1068.6,1819.1 1073.4,1811.7 1078.8,1795.5 C1084.7,1777.7 1087.3,1759.3 1088,1729.4 C1088.5,1710.6 1087.3,1667.4 1086.2,1666.3 C1086,1666.2 1038.8,1659.4 981.4,1651.4 C923.9,1643.4 862.7,1634.4 845.4,1631.4 C800.5,1623.6 787.1,1621.7 776.8,1621.5 L767.6,1621.4 L752.3,1629.1 C739.9,1635.3 699.7,1658.3 697.7,1660.3 C697.4,1660.6 717.6,1681.9 742.6,1707.6 C767.6,1733.3 823.8,1793.1 867.5,1840.5 L946.9,1926.6 L1036.8,2044.3 C1086.2,2109.1 1127.2,2162.3 1128,2162.6 C1128.7,2162.8 1132,2162.3 1135.4,2161.5 C1156.8,2156 1196.8,2127.9 1264.4,2071 C1293.6,2046.4 1312.9,2029.5 1447.9,1910.2 L1574.9,1798.1 L1671.2,1720.5 C1724.1,1677.9 1776.6,1635 1787.7,1625.2 C1810.1,1605.5 1992.3,1461.5 2008.7,1450.6 C2037.1,1431.6 2078.3,1417.3 2122.9,1411 C2165.7,1404.9 2200.3,1405.4 2268.9,1413 C2366.5,1423.8 2433.2,1439 2454.7,1455.4 C2462.5,1461.4 2464.4,1468.1 2460.5,1475.8 C2455.7,1485.1 2434.7,1501 2406,1516.9 C2386.4,1527.8 2369.2,1536 2320.4,1557.7 C2084.6,1662.5 2039.2,1683.5 1983.8,1713.4 C1931.6,1741.7 1915.1,1752 1746.7,1862.5 L1607.5,1953.9 L1509.2,2026.2 C1455.1,2065.9 1370.2,2128 1320.4,2164.1 C1248.6,2216.2 1228.2,2231.5 1221.7,2238.1 L1213.4,2246.4 L1216,2257.9 C1218.2,2267.6 1218.5,2271.2 1218.2,2280.5 C1217.8,2290.6 1217.5,2292.3 1214.6,2298.2 C1208.7,2310.2 1199,2317.6 1149.2,2348.3 C1113,2370.5 1099,2378.6 1083.9,2385.9 C1059.2,2397.8 1045.9,2401 1021.2,2400.8 C1012.3,2400.7 1003.8,2400.4 1002.4,2400.2 L1002.4,2400.2 Z M1439,1580.3 C1451,1577 1458,1568.8 1461,1554.8 C1464.1,1540.6 1461.7,1491.7 1455.8,1447.9 C1453,1427.2 1447.4,1393.5 1446.5,1392.2 C1446.2,1391.7 1396.4,1387.1 1335.9,1382 C1258.8,1375.6 1196.7,1369.7 1128.4,1362.4 C1074.8,1356.7 1025.3,1351.5 1018.4,1350.9 C1003.8,1349.6 976.8,1345.9 927.4,1338.4 C876.5,1330.7 859.5,1328.8 832,1328.2 L808.1,1327.6 L808.7,1334.5 C811.3,1362.6 816.9,1452.7 818,1483.5 L818.7,1502.7 L833.5,1505.8 C867.9,1513 964.3,1530.5 1004.4,1536.8 C1036.1,1541.8 1218,1566.8 1241.9,1569.4 C1281.6,1573.8 1345.2,1578.6 1397.9,1581.2 C1425.3,1582.6 1431.4,1582.4 1439,1580.3 L1439,1580.3 Z M1440.9,1256.2 C1440.6,1252.4 1439.5,1238.2 1438.3,1224.4 C1433.7,1166.5 1426.7,1121.9 1417.4,1090.9 C1412.9,1075.9 1405.7,1067.8 1395.4,1065.9 C1391.3,1065.1 798.6,1008.1 797.7,1008.3 C797,1008.6 803,1198.5 803.8,1199.1 C805.5,1200.2 844.7,1207.5 894.1,1215.9 C920,1220.2 945.4,1224.7 950.6,1225.9 C956.3,1227.1 1017,1233.6 1109.9,1242.9 C1241,1256 1262.2,1257.9 1277.8,1257.9 C1287.6,1257.9 1313.7,1258.8 1335.8,1259.9 C1357.9,1261 1379.1,1262 1382.9,1262.2 C1386.8,1262.4 1401.5,1262.6 1415.7,1262.7 L1441.5,1262.9 L1440.9,1256.2 L1440.9,1256.2 Z" id="Shape" sketch:type="MSShapeGroup"></path>
        </g>
    </g>
</svg>