<?xml version="1.0" encoding="UTF-8" standalone="no"?>
<svg width="2425px" height="2240px" viewBox="0 0 2425 2240" version="1.1" xmlns="http://www.w3.org/2000/svg" xmlns:xlink="http://www.w3.org/1999/xlink" xmlns:sketch="http://www.bohemiancoding.com/sketch/ns">
    <!-- Generator: Sketch 3.0.4 (8054) - http://www.bohemiancoding.com/sketch -->
    <title>Slice 2</title>
    <desc>Created with Sketch.</desc>
    <defs></defs>
    <g id="Page-1" stroke="none" stroke-width="1" fill="none" fill-rule="evenodd" sketch:type="MSPage">
        <g id="Group" sketch:type="MSLayerGroup" transform="translate(1212.450000, 1119.850000) scale(1, -1) translate(-1212.450000, -1119.850000) translate(0.100000, 0.500000)" fill="#000000">
            <path d="M1106.9,2238.2 C1092.3,2236.8 1077.3,2231.4 1046.4,2216.8 L1030.4,2209.2 L1026.9,2201.5 C1023.7,2194.3 1023.4,2193 1023.4,2184.2 C1023.5,2176 1023.9,2173.9 1026.2,2168.8 C1030.9,2158.7 1037.4,2150.7 1059.3,2128.9 C1088.5,2099.7 1105.8,2078.9 1123.9,2051.6 C1155.6,2003.8 1173.2,1954.5 1176.8,1903.7 C1177.4,1896 1179.7,1835.7 1181.9,1769.7 L1185.9,1649.7 L1188.3,1200.7 L1190.8,751.7 L1186.9,617.7 C1182.4,465.2 1181.6,447.5 1179,434.2 C1173.8,408.5 1165.4,398 1150.3,398.1 C1122.3,398.3 1043.7,433.7 891.4,514.7 C828.1,548.4 826.4,549.2 821.8,549.2 C818.9,549.2 815.6,548.1 810.8,545.5 C804.1,541.9 803.9,541.7 803.9,537.9 C803.9,528.2 810,513.5 820.1,499 C829.2,485.9 841.7,471.6 866,446.7 C908.9,402.6 1006.4,300.9 1017.4,288.7 C1049.3,253.4 1076.2,217.8 1096.3,184.2 C1111.4,159.1 1123.7,133.7 1144.9,83.2 C1171.3,20.6 1186.9,0.1 1208.2,0 C1216.3,0 1223.2,2.7 1234.5,10.1 C1282.6,42 1324.8,110.8 1344.4,189.2 C1355.5,233.6 1359.1,267.7 1359,325.2 C1359,346.4 1356,575 1352.4,833.2 C1345.3,1344 1345.1,1378.2 1347.4,1599.7 C1349,1749.8 1349.1,1754 1353.9,1807.7 C1355.6,1825.9 1357.5,1849.3 1358.3,1859.7 L1359.8,1878.7 L1372.3,1928.2 C1391.7,2005 1393.6,2017.1 1388.8,2032.8 C1379.4,2063.2 1343.1,2102.2 1287.6,2141.6 C1275.5,2150.1 1211.1,2192 1182.4,2210 C1140.8,2236.1 1129.1,2240.4 1106.9,2238.2 L1106.9,2238.2 Z" id="Shape" sketch:type="MSShapeGroup"></path>
            <path d="M1832.1,1475.3 C1828.7,1469.9 1825.7,1464.7 1825.3,1463.9 C1824.9,1462.8 1841.6,1434.9 1874.2,1382 C1941.3,1273.2 2040.7,1102.7 2088,1015.5 L2122.8,951.2 L2195,792.9 C2234.6,705.9 2269.6,630 2272.6,624.3 C2281.5,607.6 2291.5,593.5 2301.3,583.6 C2317.1,567.9 2330.9,561.6 2348.7,562.4 C2357.4,562.7 2359.3,563.1 2366.1,566.4 C2393.5,579.4 2415,621 2422.4,675.2 C2424.6,691.6 2425.4,723.9 2424,740.2 C2419.9,786 2406,831.1 2379.9,883.3 C2361.2,920.6 2343.7,948.8 2299.6,1012.7 C2254.1,1078.4 2262.2,1068.4 2165.1,1178.6 L2076.2,1279.4 L1973.2,1373.1 C1870.4,1466.5 1870.1,1466.7 1857.6,1473.9 C1850.7,1477.9 1843.5,1482.1 1841.7,1483.2 L1838.2,1485.2 L1832.1,1475.3 L1832.1,1475.3 Z" id="Shape" sketch:type="MSShapeGroup"></path>
            <path d="M490.4,1456.7 C486.6,1456 472.9,1453.5 460,1451.3 C447.1,1449.1 436.5,1447.1 436.4,1447 C434.6,1444.5 420.9,1420.9 420.9,1420.3 C420.9,1419.9 424.1,1416.9 428,1413.7 C444.4,1400.1 465.8,1374.7 477.8,1354.9 C495.8,1325 507,1290.7 505.6,1269.8 C504,1245.8 474.4,1176.6 422.6,1075.8 C333,901 219.5,718.3 133,609.2 C106.3,575.5 91.5,558.9 55.4,522.2 C20.9,487.2 10.4,475.1 4.7,463.6 C1.2,456.6 0.6,454.3 0.2,446.9 C-0.3,439.5 -0.1,437.8 1.9,433.8 C4.4,428.5 8,426.2 13.7,426.2 C27.4,426.2 73,450.3 125.4,485.3 C174.1,517.8 216,551.4 248.1,583.9 C256.1,592 298,639 341.1,688.3 L419.4,778 L533.7,935.8 C596.5,1022.7 650,1096 652.7,1098.8 C659.5,1106.3 673.2,1118.8 690.9,1133.8 C699.4,1141 712.1,1152.8 719,1160 C733.5,1174.9 737.9,1182.1 739.9,1194.3 C741.6,1204.5 740.7,1223.6 738,1233.2 C731.2,1257 708.2,1290.2 652.5,1356.6 C615.8,1400.3 594.3,1421.4 570.7,1436.9 C544.3,1454.2 515.2,1461.4 490.4,1456.7 L490.4,1456.7 Z" id="Shape" sketch:type="MSShapeGroup"></path>
        </g>
    </g>
</svg>