<?xml version="1.0" encoding="UTF-8" standalone="no"?>
<svg width="1824px" height="967px" viewBox="0 0 1824 967" version="1.1" xmlns="http://www.w3.org/2000/svg" xmlns:xlink="http://www.w3.org/1999/xlink" xmlns:sketch="http://www.bohemiancoding.com/sketch/ns">
    <!-- Generator: Sketch 3.0.4 (8053) - http://www.bohemiancoding.com/sketch -->
    <title>Untitled 4</title>
    <desc>Created with Sketch.</desc>
    <defs></defs>
    <g id="Page-1" stroke="none" stroke-width="1" fill="none" fill-rule="evenodd" sketch:type="MSPage">
        <g id="Group" sketch:type="MSLayerGroup" transform="translate(912.000000, 483.500000) scale(1, -1) translate(-912.000000, -483.500000) translate(0.500000, 0.500000)" fill="#000000">
            <path d="M732,938 C725.1,933.3 719.5,928.9 719.6,928.2 C719.6,927.5 723.6,920.3 728.4,912 C737.2,897.2 737.4,896.9 745.7,891 C765.3,877.1 780.7,862.7 792.1,847.6 C803.1,833 814.3,808.1 822.5,780.1 C832,747.6 840.8,696.8 843.4,659.5 C844,651.5 845.6,577.1 847.1,494 L849.7,343 L845.7,171.7 C843.5,77.5 841.4,0.1 841.1,-0.2 C840.8,-0.5 1011.9,15.8 1011.6,16.1 C1011.3,16.4 1012.3,133.2 1013.8,275.8 C1016.1,493.6 1017.2,561.3 1020.5,699.9 C1025,883.4 1025.1,870.7 1018.2,882.5 C1011.4,894.1 994.7,908 974.5,918.8 C941.8,936.3 887.4,953 831.8,962.5 C809.9,966.3 793.8,967.1 784,964.9 C770,961.8 755.8,954.4 732,938 Z" id="Shape" sketch:type="MSShapeGroup"></path>
            <path d="M1622.5,832.9 C1612.6,831.4 1606.1,829.7 1592.6,825.2 L1577.2,820.1 L1577.9,810.2 C1579.3,788.6 1580.7,782.1 1592,747 L1598.7,726 L1598.1,717 C1596.2,687.6 1576,633.7 1538.9,559.5 C1513.9,509.5 1487.2,462 1468.5,434 C1464.8,428.5 1416.5,359.1 1361.1,279.7 C1305.8,200.3 1260.5,135.1 1260.5,134.7 C1260.5,133.8 1270.4,127.5 1276.3,124.6 C1282.4,121.5 1289.5,120.4 1295.4,121.5 C1320.8,126.3 1378.9,164.6 1435,213.6 C1442.2,219.8 1483.7,260.5 1527.4,304 L1606.7,383 L1711.9,510 C1769.8,579.9 1818,638.3 1819,639.8 C1823.3,646.4 1824.7,661.9 1821.9,671.6 C1810.6,710.2 1732.3,788.7 1674.5,819.3 C1653.3,830.6 1636.4,834.9 1622.5,832.9 L1622.5,832.9 Z" id="Shape" sketch:type="MSShapeGroup"></path>
            <path d="M13.7,691.4 C-3.4,688.1 -4.6,674.6 10.4,655 C16.5,646.9 38.3,625.3 65,600.8 C92.5,575.6 108.3,558.6 134.1,526.5 C186.4,461.4 253.3,357.9 299.5,270.6 C309.8,251.2 315.5,239.3 327,213 C329.6,207 335.2,195.3 339.3,187 C362.6,140.2 380,123.4 405,123.5 C441.7,123.6 475.4,158.1 487.9,208.5 C492.3,226.1 493,232.2 493,254 C493,277.7 491.5,287.8 484.9,308.5 C459.5,388.7 379.8,478.8 255.2,568.4 C182.7,620.5 92.5,670.8 42.9,686.8 C33.7,689.8 20.5,692.8 18.5,692.4 C18.2,692.3 16,691.9 13.7,691.4 L13.7,691.4 Z" id="Shape" sketch:type="MSShapeGroup"></path>
        </g>
    </g>
</svg>