<?xml version="1.0" encoding="UTF-8" standalone="no"?>
<svg width="2480px" height="2415px" viewBox="0 0 2480 2415" version="1.1" xmlns="http://www.w3.org/2000/svg" xmlns:xlink="http://www.w3.org/1999/xlink" xmlns:sketch="http://www.bohemiancoding.com/sketch/ns">
    <!-- Generator: Sketch 3.0.4 (8054) - http://www.bohemiancoding.com/sketch -->
    <title>Slice 2</title>
    <desc>Created with Sketch.</desc>
    <defs></defs>
    <g id="Page-1" stroke="none" stroke-width="1" fill="none" fill-rule="evenodd" sketch:type="MSPage">
        <g id="Group" sketch:type="MSLayerGroup" transform="translate(1240.000000, 1208.000000) scale(1, -1) translate(-1240.000000, -1208.000000) translate(0.000000, 1.000000)" fill="#000000">
            <path d="M653.3,2412.9 C635.4,2409.9 618.2,2397.1 609.9,2380.6 C605.4,2371.5 604.9,2366.4 608.1,2361 C611.2,2355.8 613.8,2353.2 633.7,2335.9 C649.4,2322.2 652.5,2319 656.5,2312.3 C685,2265.4 702.8,2210 710,2146 C713.3,2116.6 714.1,2100.3 714.7,2054.3 C715.3,2011.1 715.2,2009.6 712.5,1981.8 L709.7,1953.3 L689.6,1950.1 C637.1,1941.7 551.8,1930.2 506.6,1925.4 C474,1921.9 436.3,1921.1 420,1923.4 C397.1,1926.8 371.2,1937.8 324.3,1964.2 C299.7,1978.1 287.9,1982.5 275.5,1982.5 C268.7,1982.5 266.6,1982 261,1979.4 C249.1,1973.7 242.3,1964.2 239.4,1949.3 C231,1905 259.8,1855.2 319.6,1810.8 C348.1,1789.7 388.4,1768.4 411.1,1762.5 C422.7,1759.4 436.7,1761.8 484.2,1774.9 C500.3,1779.4 533,1785.7 619,1800.9 C699.7,1815.2 706.1,1816.2 706.7,1815.6 C707,1815.3 706.7,1803.7 706.1,1789.8 C703.4,1731.4 702.9,1708.2 702.4,1626 C702.1,1578.4 701.7,1538.1 701.4,1536.4 C700.7,1531.8 696.6,1528.3 689.6,1526.1 C667.5,1519.3 529.7,1496.7 445.5,1486 C382.5,1478.1 345.7,1475 303.5,1474.3 C267.5,1473.7 256.1,1474.6 235.6,1479.5 C208.8,1485.8 189.3,1495 151.5,1519 C116.8,1541 113.9,1542.4 103.5,1542.5 C96.4,1542.5 94.7,1542.1 88.8,1539.2 C77.1,1533.5 68.6,1521.9 64.3,1506 C61.5,1495.6 62,1475.2 65.3,1462.7 C69.7,1446.2 80,1426.6 92.8,1410.5 C100.3,1401.1 118.6,1382.4 129,1373.6 C174.4,1335.1 238.2,1303 269.2,1303 C278.7,1303 290.2,1305.7 330,1317 C370.1,1328.5 402,1335.3 499.5,1353.5 C524.8,1358.2 559.9,1364.8 577.4,1368.1 L609.3,1374.2 L618.5,1370.6 C647.3,1359.2 669.9,1334.8 679,1305.1 C689,1273 691.8,1189.5 688.5,1026 C687.7,986.1 686.1,891.6 685,816 C683.2,697.8 681.4,632 679.7,630.4 C679.2,629.9 508.2,686.6 490.9,692.9 L476.4,698.3 L483.2,719.9 C487,731.8 496.5,761.1 504.5,785 C526.9,852.7 551.7,930.6 555.1,943.8 C559.4,961 544.4,987.2 515,1013.8 C475.3,1049.7 411.8,1085.1 372.2,1093.5 C362.9,1095.4 348.1,1095.4 340.5,1093.5 C326.2,1089.9 312.2,1080.3 307.4,1070.9 C302.4,1061 304.2,1054.5 322.8,1015.5 C342.2,974.9 347.9,947.5 346.7,900.5 C345.6,857.5 338.4,812.4 323.4,755.6 C288,621.6 214.2,454.4 124.9,305.8 C89.4,246.8 64.5,210.5 16.1,147 C6.6,134.6 0,122.4 0,117.3 C0,112 3.8,100.3 6.2,98 C7.9,96.5 9.8,96 14.2,96 C19.2,96 21.3,96.7 30.3,101.3 C46.8,109.7 70.6,127.2 97,150.3 C123.8,173.8 170.6,222.6 203.1,261 C272.4,342.8 349.7,455.3 419.5,576 C423.8,583.4 427.4,589.7 427.6,589.9 C427.7,590 432.3,588.4 437.7,586.2 C448.9,581.7 459.4,578.2 473,574.6 C485.2,571.3 659.4,513.1 706.5,496.5 C792.2,466.3 841.7,446.6 975.5,389.2 C1192.3,296.2 1439.7,196.9 1804,56.5 C1837.8,43.5 1875.9,28.7 1888.5,23.8 C1934.2,6 1955.5,-1.59161573e-12 1973.3,-1.59161573e-12 C1989.8,-1.59161573e-12 2042.2,7.8 2094.5,18 C2125.2,24 2131.4,25.6 2229.8,52.4 C2322.7,77.8 2352.9,87.1 2417.9,110.7 C2446.5,121 2451.1,123.3 2457.7,130.3 C2465.7,138.7 2480,161.9 2480,166.4 C2480,169.1 2475.1,173.7 2469.9,175.9 C2454.5,182.6 2451.1,183.1 2188,217.5 C2101.9,228.8 2021.4,239.6 2009,241.6 C1858.8,265 1650,315.5 1413,385.6 C1183.6,453.5 950.4,533.7 828.8,586.6 L822.1,589.5 L822.6,601.5 C822.8,608.1 823.9,673.1 825,746 C826.1,818.9 827.3,884 827.6,890.6 L828.2,902.7 L832.8,903.3 C835.4,903.6 849,905.5 863,907.5 C929.6,916.9 1069.3,933.3 1135,939.5 C1168,942.6 1194.6,946.2 1205.5,949 C1217.9,952.3 1229.1,958.1 1235.9,964.9 C1246.5,975.5 1251,988.5 1251,1008.8 C1251,1022.2 1248.6,1031 1242,1041.4 C1237.2,1048.9 1225.1,1060.8 1216,1066.8 C1193.7,1081.6 1155.5,1094.8 1120.7,1099.6 C1095.3,1103.2 1088.8,1101.1 1007.5,1063.2 C995.8,1057.7 992.3,1056.6 972,1052.1 C933,1043.5 894.1,1037.1 859.2,1033.5 C839,1031.5 836,1031.5 836,1033.8 C836.1,1039.2 839.1,1085.4 839.5,1087.3 C839.8,1088.5 841.1,1108.6 842.5,1132 C843.9,1155.4 845.7,1180.6 846.6,1188.1 C847.4,1195.6 851.8,1220.3 856.4,1243.1 C869.2,1306.1 869.9,1312.4 865.1,1325 C858.3,1342.9 832.5,1367 786.2,1398.8 C777.2,1404.9 776.1,1406 778.2,1406.4 C780.4,1406.9 869.6,1418.8 955.2,1430 C983.3,1433.7 1016.6,1437 1076.2,1442 C1153.2,1448.6 1160.2,1449 1186.8,1449 C1226.1,1449 1241.9,1451 1256.7,1457.9 C1269.4,1463.9 1278.2,1475.8 1281.5,1491.5 C1283.5,1501 1283.4,1520.5 1281.4,1528.4 C1276.1,1549 1255.9,1569.3 1227.8,1582.5 C1188.1,1601 1127.1,1611.2 1099.8,1604 C1094.3,1602.5 1077.5,1595.2 1063.9,1588.4 C1036.5,1574.7 1044.6,1576.7 941.2,1558.9 C890.2,1550.2 848.1,1543 847.6,1543 C846.1,1543 848.3,1673.2 851,1743.5 C852.2,1773.8 855.1,1834.4 855.3,1834.7 C855.8,1835.1 913.1,1846.6 939.8,1851.5 C976.8,1858.3 1030.6,1867.2 1055.1,1870.4 C1073,1872.9 1084.6,1873.8 1125.5,1876 C1136,1876.6 1149.1,1877.7 1154.8,1878.6 C1196.5,1884.7 1214.8,1901.7 1216.7,1936.1 C1217.7,1953.5 1213.5,1966.7 1202.7,1980.8 C1177.7,2013.3 1113.4,2039 1067.5,2035 C1055.5,2033.9 1047.8,2031.8 1015.9,2020.4 C1002.5,2015.7 986.8,2010.2 981,2008.4 C957.1,2000.6 908,1987.3 878,1980.5 C871.7,1979.1 865.7,1977.7 864.6,1977.3 C862.8,1976.8 862.8,1977.5 863.4,1996.1 C865.3,2049.7 871.7,2137.4 875.5,2162.7 C878.9,2185.8 887,2250.7 887,2255.5 C887,2262.9 883.6,2275.3 879.4,2282.9 C864.9,2309.2 834.5,2333.5 764.5,2374.5 C731.5,2393.9 708.2,2406 697.3,2409.4 C683.8,2413.6 666,2415 653.3,2412.9 L653.3,2412.9 Z" id="Shape" sketch:type="MSShapeGroup"></path>
        </g>
    </g>
</svg>