<?xml version="1.0" encoding="UTF-8" standalone="no"?>
<svg width="2300px" height="2375px" viewBox="0 0 2300 2375" version="1.1" xmlns="http://www.w3.org/2000/svg" xmlns:xlink="http://www.w3.org/1999/xlink" xmlns:sketch="http://www.bohemiancoding.com/sketch/ns">
    <!-- Generator: Sketch 3.0.4 (8054) - http://www.bohemiancoding.com/sketch -->
    <title>Slice 2</title>
    <desc>Created with Sketch.</desc>
    <defs></defs>
    <g id="Page-1" stroke="none" stroke-width="1" fill="none" fill-rule="evenodd" sketch:type="MSPage">
        <g id="Group" sketch:type="MSLayerGroup" transform="translate(1149.950000, 1187.800000) scale(1, -1) translate(-1149.950000, -1187.800000) translate(0.200000, 0.600000)" fill="#000000">
            <path d="M1259.3,2373.9 C1230.4,2371 1212.1,2359.4 1194,2332.3 L1189.8,2326.1 L1199.2,2308.8 L1208.5,2291.5 L1228.4,2281.5 C1275.8,2257.6 1293.4,2240.4 1304.1,2207.5 C1310.3,2188.8 1314.2,2161.2 1320.2,2095 C1325.5,2037.6 1325.7,2031.1 1326.7,1922 C1327.3,1864.5 1328,1797.2 1328.3,1772.4 L1328.9,1727.4 L1313.6,1726.2 C1121.1,1711 1132.9,1712.1 992.8,1695.5 C879.3,1682.1 838.1,1677.7 691.3,1663.4 C489.2,1643.8 501.6,1644.9 440.8,1640.5 C345,1633.6 316.1,1632 289.3,1632 C230.9,1632 199.8,1637.4 160.3,1654.2 C135,1665 119,1674 98.8,1689 C75,1706.6 60.7,1716.1 50.5,1721.1 C43.1,1724.8 41.8,1725.1 36.8,1724.6 C20.8,1723 11.3,1714.7 5.3,1696.7 C1,1683.7 -0.4,1671 0.1,1649.5 C0.5,1633 0.9,1629.2 3.2,1620.6 C12.3,1586.6 37.7,1544.4 66.5,1515.3 C80.6,1501 127.5,1464.1 152.3,1447.8 C180.3,1429.3 207.1,1420.7 226.5,1423.9 C263.5,1429.9 322.9,1444.6 354.6,1455.4 C358.6,1456.8 387.7,1463.8 419.1,1471.1 C450.6,1478.3 499.5,1489.6 527.8,1496.2 C556.1,1502.7 597.1,1512.2 618.8,1517.1 L658.3,1526.1 L819.8,1546 C979.3,1565.8 983.2,1566.2 1136.6,1581 C1277.1,1594.6 1293.8,1596 1311.6,1596 L1331.3,1596 L1328.6,1430.8 C1326.1,1274.5 1325.9,1248.6 1325.9,955.5 C1325.8,607.9 1324.6,431.1 1322.2,416.5 C1318,391.5 1311.4,364.6 1305.7,349.8 C1302.6,341.9 1302.5,341.7 1297,339.2 C1292.2,337.1 1290.1,336.7 1282.4,336.8 C1260.6,337 1223.1,345.1 1162.5,362.6 C1114,376.6 1043.5,399.7 1006.3,413.8 C956.8,432.6 946.9,436.2 932.8,441 C908.7,449 898.1,451.3 886.9,450.8 C878.2,450.4 877.4,450.2 875.2,447.6 C873.9,446.1 872.8,444.1 872.8,443.1 C872.8,432.2 905.5,400.5 964.8,354.2 C974.4,346.7 1020.1,312.8 1066.3,278.8 C1164.2,206.9 1166.4,205.2 1180.4,191.2 C1200.1,171.4 1212.6,154.8 1247.7,101.1 C1290.2,36.1 1304.2,18.4 1321,8.2 C1329.8,2.9 1337.2,0.8 1348.3,0.2 C1357.1,-0.2 1359.1,0.1 1365.5,2.3 C1375.7,5.8 1385.7,12.8 1397.9,24.9 C1442.1,69 1478.2,153.1 1487.2,233 C1489.9,257.1 1490,266.1 1488.4,372.5 C1486.2,514.9 1486.2,1189.3 1488.3,1442.4 C1489.1,1538 1489.9,1616.5 1490.2,1616.7 C1490.5,1617 1499.4,1617.6 1510,1618.1 C1520.6,1618.6 1594.6,1622.2 1674.3,1626.1 L1819.3,1633.1 L1920.8,1632 L2022.3,1630.8 L2060.3,1626.9 C2181.9,1614.4 2204,1613 2225.4,1616.5 C2256.3,1621.5 2281.2,1636.9 2292.1,1657.8 C2306.3,1684.9 2300.1,1712.3 2274.1,1737.1 C2262.6,1748.1 2256.6,1751.8 2225.4,1767.1 C2163.7,1797.3 2102.5,1822.1 2069.1,1830.6 C2047.1,1836.2 2043.8,1835.6 1964.8,1811 C1949.1,1806.1 1932.1,1801 1927,1799.5 C1897.1,1791.2 1806.6,1774.9 1765.3,1770.4 C1742.8,1768 1490.3,1743.3 1490,1743.5 C1489.5,1743.9 1513.9,1995.6 1515.8,2009 C1520.3,2040.1 1530.2,2086.2 1537.3,2108.5 C1549.3,2146.4 1557.7,2178.7 1558.5,2190.7 C1560.7,2222.2 1539,2251 1490.8,2280.9 C1433.7,2316.4 1336.5,2360.8 1292.7,2371.5 C1280.8,2374.4 1270.9,2375.1 1259.3,2373.9 L1259.3,2373.9 Z" id="Shape" sketch:type="MSShapeGroup"></path>
            <path d="M579.7,1347.6 C577.8,1346.5 576.8,1344.8 575.9,1340.5 L574.6,1335 L578.8,1330 C581,1327.3 596.2,1310.1 612.4,1291.8 C644.9,1255.2 653,1245.4 675.9,1215 C729.5,1143.8 767.7,1082.4 785.3,1039.1 C787.6,1033.3 804.5,987.3 822.8,937 C841.1,886.7 858.1,840.7 860.7,834.9 C866.9,821.1 873.3,811.6 881.8,803.7 C893.9,792.5 907,787.5 926.8,786.4 C979.8,783.4 1026.3,823.2 1037.2,880.9 C1039.3,891.7 1039.3,915.5 1037.3,929.9 C1026.3,1008.6 966.8,1113 895.9,1177.8 C873.2,1198.5 856.7,1210.6 820.8,1232.7 C731.6,1287.6 647.3,1330.5 601.4,1344.4 C586.7,1348.9 583,1349.4 579.7,1347.6 L579.7,1347.6 Z" id="Shape" sketch:type="MSShapeGroup"></path>
        </g>
    </g>
</svg>