<?xml version="1.0" encoding="UTF-8" standalone="no"?>
<svg width="1310px" height="2377px" viewBox="0 0 1310 2377" version="1.1" xmlns="http://www.w3.org/2000/svg" xmlns:xlink="http://www.w3.org/1999/xlink" xmlns:sketch="http://www.bohemiancoding.com/sketch/ns">
    <!-- Generator: Sketch 3.0.4 (8054) - http://www.bohemiancoding.com/sketch -->
    <title>Slice 2</title>
    <desc>Created with Sketch.</desc>
    <defs></defs>
    <g id="Page-1" stroke="none" stroke-width="1" fill="none" fill-rule="evenodd" sketch:type="MSPage">
        <g id="Group" sketch:type="MSLayerGroup" transform="translate(654.700000, 1188.100000) scale(1, -1) translate(-654.700000, -1188.100000) translate(0.200000, 0.100000)" fill="#000000">
            <path d="M697.3,2375.2 C655.2,2371.9 632.3,2358.4 623.3,2331.6 C622.4,2328.9 620.8,2322.6 619.7,2317.6 L617.8,2308.6 L628.6,2298.1 C634.5,2292.3 646.5,2282.1 655.3,2275.5 C675.9,2259.9 684.8,2250.5 706.5,2221.1 C728.8,2191 747,2161.9 753.2,2146.3 C763.4,2120.9 773,2067.9 776.8,2016.6 C777.4,2007.9 777.8,1946.9 777.8,1856.5 L777.8,1710.4 L772.6,1709.7 C763,1708.4 695.9,1696 666.8,1690.1 C634.2,1683.5 252.2,1600.2 237.8,1596.6 C209.1,1589.3 184.1,1589.2 158.8,1596.3 C140.1,1601.5 117.2,1610.5 102,1618.8 C98.3,1620.8 86.3,1628.5 75.4,1635.9 C48.6,1654 41.2,1657.3 23.8,1658.7 C16.9,1659.3 16,1659.2 15.4,1657.5 C14.9,1656.4 11.7,1647.5 8.3,1637.5 C1.3,1617.5 -0.8,1606.6 0.2,1596.3 C2.3,1575.6 16.7,1551.5 43.3,1524.2 C72.4,1494.3 107.9,1468.4 144.3,1450.6 C171.8,1437.1 185.6,1433.1 204.9,1433.1 C229,1433.1 250.8,1439.3 378.3,1482.6 C472.5,1514.6 483.1,1518 516.4,1526.7 C566.8,1539.7 753.1,1580.7 770.3,1582.5 C777.4,1583.3 783.3,1583.8 783.4,1583.8 C783.4,1583.7 784.7,1512.7 786.2,1426.1 C788.5,1293.6 789.1,1222.3 790.1,976.6 L791.3,684.6 L788.7,551.6 C787.2,478.5 785.7,414.8 785.3,410.1 C782.6,374 769.6,351 747.9,344.3 C740,341.9 687.1,341.9 661.8,344.4 C640.5,346.5 612.3,350.5 600.8,353.1 C596.1,354.1 548.3,368 494.5,384 C440.7,400 396.1,413.1 395.5,413.1 C394.8,413.1 391.8,410.6 388.8,407.6 L383.3,402 L387.7,393.8 C399.5,371.7 413,354 432.9,334.6 C451.7,316.3 464.6,306.3 557.3,238.1 C648.2,171.3 653.8,167 668.7,152.6 C687.5,134.5 697,120.5 713.1,86.9 C732.9,45.9 745.9,24.1 757,13.5 C767.6,3.3 776.5,0.1 793.8,-6.82121026e-13 C805.9,-6.82121026e-13 813,1.6 823.3,6.6 C868,28.1 909.5,106.9 929.7,208.6 C939.3,256.7 943.4,315.3 945.9,438.1 C946.9,489 946.6,516.6 941.4,854.6 C935.9,1211.7 935.8,1219.2 935.8,1409.7 L935.8,1602.7 L957.1,1605.4 C972.1,1607.4 1007.8,1610.1 1079.8,1614.6 C1222,1623.7 1226.9,1624 1240.3,1625.7 C1267.1,1629 1280.7,1635.6 1303.8,1656.4 L1309.1,1661.2 L1308.5,1674.4 C1307.5,1695 1304.1,1709.6 1296.8,1724.1 C1281.1,1755.3 1236.5,1778.1 1172.3,1787.6 C1146.4,1791.4 1138.1,1790 1055,1766.7 C1036.1,1761.4 1010.9,1754.8 999,1752 C972,1745.7 939.5,1739 938.9,1739.6 C938.3,1740.2 943.6,1999.8 944.4,2010.1 C945.4,2023.2 952.8,2058.2 965.2,2109.1 C979.2,2166.6 980.7,2177.9 976,2193.1 C964.3,2230.8 919.2,2273.6 845.7,2316.7 C816.3,2333.9 747.7,2368.8 735.6,2372.6 C726.7,2375.4 712.8,2376.4 697.3,2375.2 L697.3,2375.2 Z" id="Shape" sketch:type="MSShapeGroup"></path>
            <path d="M205.1,1305.7 C206,1295.9 208.7,1288.8 215,1280.5 C217.9,1276.7 232.2,1261.7 246.8,1247.1 C274.3,1219.8 282.5,1210.5 300.4,1186.8 C321.6,1158.7 339.2,1130.4 355.3,1098.6 C373.6,1062.2 382.5,1039.3 398.5,987.1 C428.5,888.7 440.7,853.6 454.8,824.6 C463.8,806.2 470.4,796.4 480.2,786.6 C494.5,772.5 508.6,767.1 531.8,767.1 C546.7,767.1 554.4,768.7 564.1,773.8 C587.1,785.9 601.3,812.5 606.9,854.1 C607.6,859.5 608.2,872.6 608.1,884.6 C607.6,1003.7 545.7,1111 418.8,1212.6 C364.6,1255.9 316.7,1285 274.3,1300.3 C254.7,1307.4 225.3,1313.1 208.9,1313.1 L204.5,1313.1 L205.1,1305.7 L205.1,1305.7 Z" id="Shape" sketch:type="MSShapeGroup"></path>
        </g>
    </g>
</svg>