<?xml version="1.0" encoding="UTF-8" standalone="no"?>
<svg width="2162px" height="1752px" viewBox="0 0 2162 1752" version="1.1" xmlns="http://www.w3.org/2000/svg" xmlns:xlink="http://www.w3.org/1999/xlink" xmlns:sketch="http://www.bohemiancoding.com/sketch/ns">
    <!-- Generator: Sketch 3.0.4 (8054) - http://www.bohemiancoding.com/sketch -->
    <title>Slice 2</title>
    <desc>Created with Sketch.</desc>
    <defs></defs>
    <g id="Page-1" stroke="none" stroke-width="1" fill="none" fill-rule="evenodd" sketch:type="MSPage">
        <g id="Group" sketch:type="MSLayerGroup" transform="translate(1081.050000, 876.200000) scale(1, -1) translate(-1081.050000, -876.200000) translate(0.100000, 0.700000)" fill="#000000">
            <path d="M1903.9,1750.9 C1902,1750.7 1888.9,1748.8 1874.9,1746.6 C1860.9,1744.4 1844.7,1741.9 1838.9,1741.2 C1833.1,1740.4 1819.6,1737.8 1808.9,1735.4 C1798.2,1732.9 1784.9,1730.2 1779.4,1729.3 C1773.9,1728.4 1683.7,1719.8 1578.9,1710.2 L1388.4,1692.7 L1169.4,1677.2 C1049,1668.7 822.4,1652.9 665.9,1642.1 C389.7,1623.1 380.8,1622.5 359.4,1623.1 C321.7,1624.1 279.4,1629.5 231.6,1639.3 C203.9,1645 188.3,1649.2 156.4,1659.7 C112.4,1674.1 92.7,1678.7 73.9,1678.7 C63.2,1678.7 55.7,1676.8 45.3,1671.6 C25.9,1661.9 7.9,1642.5 1.9,1624.7 C-2.1,1613 0.2,1603.4 10.2,1589.7 C12.4,1586.7 27.9,1570.7 44.5,1554.2 C61.4,1537.4 76.3,1521.8 78.3,1518.7 C94.6,1493.4 120.9,1397.3 128.4,1335.5 C129.2,1328.7 136.6,1243.3 144.8,1145.7 C162.4,938.2 164.4,907.9 193.4,406.2 C205.3,200.6 211.4,101.4 212.5,95.7 C220.7,52.1 249.4,12.9 280.1,3.2 C299.6,-3 315,-0.2 333.9,12.8 C341.8,18.1 346.7,22.9 364.7,42.8 C393.5,74.4 403.3,82.3 418.1,85.8 C426.7,87.8 631.2,106.9 699.9,112.2 C718.9,113.6 771.1,117.9 815.9,121.7 C925.7,131 913.1,130.3 1041.4,134.3 C1269.5,141.2 1638.4,146 1695.4,142.7 C1741.7,140 1779.1,128.4 1798,110.9 C1803.8,105.5 1806.7,101.4 1816.4,85.2 C1837.6,49.7 1849.6,33.3 1861.9,23 C1869.3,16.8 1879.7,11.4 1888.4,9.2 C1897.1,7 1913.1,7.2 1921.1,9.7 C1959.3,21.5 1985.8,76.4 1999.4,171.7 C2001.8,188.7 2015.7,378.4 2019.4,444.7 C2021.9,489.7 2083.1,1153.8 2095.4,1269.2 C2101.2,1323.7 2106.6,1371.8 2107.5,1376.2 C2111,1393.9 2121.3,1420.6 2138.5,1457 C2163.9,1510.5 2165.6,1517.4 2157.9,1538 C2149.1,1561.6 2110.6,1608.8 2067.5,1649 C2020.7,1692.5 1979.2,1723.4 1944.6,1740.3 C1927.8,1748.4 1914.7,1751.9 1903.9,1750.9 L1903.9,1750.9 Z M1839.8,1575.2 C1880.3,1568.9 1896.3,1552.9 1904.8,1510.2 C1912.8,1469.8 1916.8,1380.7 1913.9,1308.2 C1912.7,1277.4 1895.3,1060.9 1893.4,1052 C1892.3,1047.3 1891.2,1044.6 1890.1,1044.2 C1887.1,1043.1 1879.3,1042.7 1649.9,1034.2 C1488.6,1028.1 1388.1,1023.9 1297,1019.2 C1226.9,1015.6 1169.5,1012.8 1169.4,1012.9 C1169.4,1013.1 1169.6,1035.5 1169.9,1062.7 C1170.7,1120.7 1180.6,1335.9 1183.4,1355.2 C1184.3,1361.3 1188.4,1383.3 1192.5,1404.2 C1205.7,1471 1206.9,1479.9 1205,1491.3 C1202.5,1506 1194.6,1516.5 1177.3,1528.1 L1167.7,1534.5 L1172.6,1535.1 C1175.2,1535.4 1249,1542 1336.4,1549.8 L1495.4,1563.9 L1638.4,1570.7 C1792.5,1578.1 1817.2,1578.7 1839.8,1575.2 L1839.8,1575.2 Z M955.9,1527.3 L967.4,1526.2 L971.7,1516.2 C987.7,1479.9 995.5,1440.8 1000.3,1373.2 C1002.8,1339.3 1003.8,1304.6 1006.4,1170.7 C1007.7,1101.1 1009.1,1035.4 1009.4,1024.6 L1010,1005 L977.2,1003.8 C952.3,1002.9 908.8,999.6 795.9,990.2 C641,977.3 333.4,953.9 332.3,955 C330.6,956.6 326.6,986.9 323.9,1018.2 C319.8,1065.8 316.5,1121.3 309.4,1259.2 C302.6,1391.8 299.6,1439 296.5,1464.7 C295.8,1470.5 295.2,1475.3 295.3,1475.4 C295.4,1475.5 329,1479.1 369.9,1483.3 C431.9,1489.6 485.3,1494.1 686.9,1509.7 C820.3,1520 932.8,1528.5 936.9,1528.5 C941,1528.5 949.6,1528 955.9,1527.3 L955.9,1527.3 Z M1885.7,894.2 C1885.9,894 1880.6,813.2 1874,714.5 C1862.5,545.4 1861.2,527.9 1850,406.9 C1843.5,336.4 1838,278.5 1837.8,278.3 C1837.6,278.1 1828,278.8 1816.4,279.9 C1781.8,283 1741.3,283.3 1546.4,281.9 L1360.4,280.6 L1259.4,275.2 C1203.9,272.3 1158.3,270 1158.1,270.2 C1157.7,270.6 1168.8,793.9 1170.2,840.4 L1171.2,875.6 L1175.3,876.2 C1182.9,877.2 1215.2,878.7 1263.9,880.3 C1290.6,881.2 1394.8,885.3 1495.6,889.5 L1678.8,897.2 L1782.1,895.9 C1838.9,895.2 1885.5,894.4 1885.7,894.2 L1885.7,894.2 Z M1006.9,756.5 L1006.9,644.2 L1000.3,453.2 C996.7,348.2 993.7,262.1 993.6,262 C993.4,261.8 710,241.3 512.3,227.2 C440,222 401.5,219.7 389.2,219.7 L371.2,219.7 L369.6,229 C367.1,243 366.1,256.1 364.4,292.7 C363.6,311.1 357.1,435.3 349.9,568.6 C342.7,701.9 337.1,811.2 337.4,811.5 C337.7,811.8 393.8,818.1 462.1,825.4 C577.2,837.8 599.5,839.9 763.9,853.6 L941.4,868.5 L974.2,868.6 L1006.9,868.7 L1006.9,756.5 L1006.9,756.5 Z" id="Shape" sketch:type="MSShapeGroup"></path>
        </g>
    </g>
</svg>