<?xml version="1.0" encoding="UTF-8" standalone="no"?>
<svg width="1022px" height="1504px" viewBox="0 0 1022 1504" version="1.1" xmlns="http://www.w3.org/2000/svg" xmlns:xlink="http://www.w3.org/1999/xlink" xmlns:sketch="http://www.bohemiancoding.com/sketch/ns">
    <!-- Generator: Sketch 3.0.4 (8054) - http://www.bohemiancoding.com/sketch -->
    <title>Slice 2</title>
    <desc>Created with Sketch.</desc>
    <defs></defs>
    <g id="Page-1" stroke="none" stroke-width="1" fill="none" fill-rule="evenodd" sketch:type="MSPage">
        <g id="Group" sketch:type="MSLayerGroup" transform="translate(510.800000, 752.300000) scale(1, -1) translate(-510.800000, -752.300000) translate(0.300000, 0.800000)" fill="#000000">
            <path d="M815.2,1501.8 C805.9,1499.4 795.1,1495.2 765.9,1482.4 C734.5,1468.6 712.8,1461.6 668.2,1450.4 C629.9,1440.9 576.6,1429.4 528.2,1420.4 C509.5,1416.9 320.6,1387.2 301.2,1384.7 C287.7,1382.9 255,1383.1 241.5,1385 L230.7,1386.6 L223.6,1393.3 C195.3,1420 141.6,1445.7 94.2,1455.3 C58.9,1462.4 28.4,1457.3 12.5,1441.4 C3.5,1432.4 -1.8,1418.1 0.6,1409.2 C2.8,1401 15.5,1382.2 38.8,1352.7 C51.8,1336.1 55.6,1330 62.3,1314.7 C88.7,1254.7 101.4,1155.8 106.2,970.8 C110.2,819 111.7,700.6 111.7,537.8 C111.7,384.9 113.5,184.4 115.2,150.3 C117.9,94.9 130.2,49.4 149.1,24.9 C161.6,8.6 178.7,-0.2 197.2,-0.1 C231.2,0.1 251.7,27.9 256.2,79.9 L256.8,87.6 L268.5,89.3 C295.1,93.2 357.6,105.2 482.5,130.2 C612.6,156.3 628.4,159.2 658.2,162.2 C684,164.9 761.2,169.9 773.7,169.7 L778.2,169.7 L781.2,163.6 C784.7,156.3 794.6,145.9 803.2,140.3 C810.8,135.3 822.1,130.4 832.3,127.7 C843.7,124.6 861.8,124.6 870.2,127.7 C904.1,140.1 923.2,184.8 931.3,270.3 C932.5,283.1 933.1,306 933.7,362.8 L934.4,438.3 L941,554.3 C947.8,672.6 979.5,1129.9 983.7,1169.3 C988.3,1212.6 990,1220.8 1006.7,1279.3 C1016,1312.1 1020.6,1329.7 1021.3,1336.1 C1022.5,1346.2 1016.9,1361.8 1006.8,1376.7 C977.1,1420.4 894.1,1482.3 842.7,1499.1 C829.1,1503.6 824,1504.1 815.2,1501.8 L815.2,1501.8 Z M793,1331.9 C810.6,1330.3 816.9,1325.3 820.3,1310.2 C822.8,1299.5 823.1,1257.7 821.8,1136.8 C820.8,1039.7 819.7,984.4 817.8,930.8 L817.2,912.3 L796.2,909 C731.2,898.7 596.1,878.1 595.8,878.4 C595.6,878.6 595.9,935.1 596.6,1004 C597.7,1116.1 598.1,1133.5 600.3,1168.7 C603.1,1215 603.4,1234.7 601.1,1245.6 C598,1261.2 588.7,1275.5 571.7,1291 C566.8,1295.5 564.8,1297.9 565.8,1298.2 C569.6,1299.5 642.8,1315.2 661.7,1318.8 C701.3,1326.2 733.9,1330.4 762.7,1331.7 C771.8,1332.2 780.1,1332.5 781.2,1332.6 C782.3,1332.7 787.6,1332.3 793,1331.9 L793,1331.9 Z M435.7,1254.1 C443,1234.2 448,1216.2 450.2,1201.8 C451.1,1195.7 452.2,1178.3 452.7,1160.3 C454.3,1107.6 456.5,858.8 455.3,858.8 C451.7,858.8 290,832 282.3,830.2 C274.5,828.3 268.6,827.5 261.3,827.4 L251.2,827.3 L246.1,989.3 C243.3,1078.4 240.5,1170.4 239.8,1193.8 C239.2,1217.2 238.4,1241.1 238.1,1246.9 L237.5,1257.5 L246.3,1255.2 C263,1250.9 275.8,1251.8 377.7,1264.7 C403.3,1268 425.4,1270.7 426.8,1270.7 C429.3,1270.8 429.7,1269.9 435.7,1254.1 L435.7,1254.1 Z M809.7,768.6 C809.7,767.9 809.2,761.2 808.7,753.8 C808.1,746.4 804.5,690.1 800.7,628.8 C788.2,430.9 780.5,321 778.1,309.7 C777.5,306.6 781,307.2 684.7,294.8 C625.5,287.2 587.6,282 583.9,281.1 L581.5,280.5 L582.1,297.9 C582.4,307.5 583.2,329.3 583.8,346.3 C584.4,363.4 585.3,381.4 585.8,386.3 C586.3,391.3 588,474 589.6,570.2 C591.8,697.9 592.8,745.3 593.7,745.8 C595.7,747 650.2,753.3 759.2,764.7 C812.7,770.4 809.7,770.2 809.7,768.6 L809.7,768.6 Z M455.3,591.1 C455,517.5 454.4,412.9 454.1,358.7 L453.4,260 L443.2,258.5 C437.7,257.6 420.4,254 405,250.4 C386.8,246.2 370,243 357.5,241.4 C346.9,240 319.3,236.4 296.3,233.3 C273.2,230.3 254.2,228 253.9,228.2 C253.7,228.5 254.2,307.3 255.1,403.5 C256.5,561.5 256.5,583.7 255.1,634.1 C254.3,664.9 253.7,690.1 253.9,690.3 C254.4,690.8 449.6,724.2 455.1,724.7 C455.6,724.8 455.7,669.8 455.3,591.1 L455.3,591.1 Z" id="Shape" sketch:type="MSShapeGroup"></path>
        </g>
    </g>
</svg>