<?xml version="1.0" encoding="UTF-8" standalone="no"?>
<svg width="2127px" height="2419px" viewBox="0 0 2127 2419" version="1.1" xmlns="http://www.w3.org/2000/svg" xmlns:xlink="http://www.w3.org/1999/xlink" xmlns:sketch="http://www.bohemiancoding.com/sketch/ns">
    <!-- Generator: Sketch 3.0.4 (8054) - http://www.bohemiancoding.com/sketch -->
    <title>Slice 2</title>
    <desc>Created with Sketch.</desc>
    <defs></defs>
    <g id="Page-1" stroke="none" stroke-width="1" fill="none" fill-rule="evenodd" sketch:type="MSPage">
        <g id="Group" sketch:type="MSLayerGroup" transform="translate(1063.550000, 1209.350000) scale(1, -1) translate(-1063.550000, -1209.350000) translate(0.200000, 0.400000)" fill="#000000">
            <path d="M967.1,2417.3 C930.1,2413.5 906.7,2399.6 905.1,2380.6 C904.7,2375.5 905.1,2374.2 907.6,2369.8 C911.9,2362.5 924.1,2349.2 945.2,2328.7 C963.1,2311.3 963.9,2310.3 967.9,2301.8 C977.6,2281.2 983.8,2243.2 986.7,2186.3 C988.1,2160.7 990.1,2098.3 989.6,2097.8 C989.4,2097.5 853.1,2084.5 686.8,2068.8 C520.4,2053.1 375.1,2039.3 363.8,2038.1 C340,2035.7 304.8,2035.2 289.8,2037.1 C267.6,2040 232,2047.2 219.4,2051.4 C204.6,2056.3 182.6,2068.4 134.7,2097.7 C120.8,2106.3 108.8,2113.3 108.2,2113.3 C105.5,2113.3 89.3,2108.1 84.7,2105.7 C69,2097.8 61.6,2082.1 63.1,2059.8 C64.6,2038.1 73.8,2019.2 92.5,1999.3 C99.9,1991.4 133.5,1961.3 162.8,1936.2 C200.8,1903.7 220,1891.1 241.3,1884.8 C248.7,1882.6 253,1882 265.3,1881.6 C282.9,1881 289.3,1882 343.3,1893.4 C361.5,1897.3 389.1,1903.1 404.8,1906.4 C453.2,1916.7 475.5,1920.1 535.3,1926.7 C552.9,1928.7 682.3,1943.8 822.8,1960.3 L1078.3,1990.3 L1253.3,1999.8 L1428.3,2009.2 L1541.3,2011.9 C1679.9,2015.1 1678.9,2015.1 1817.3,2004.7 C1935.2,1995.8 1947.2,1995.1 1963.8,1996.3 C1985.5,1997.9 1998.5,2002.4 2008.8,2012 C2020.4,2022.7 2025.3,2037.4 2025.3,2060.8 C2025.3,2072.8 2024.9,2075.7 2023,2081.3 C2013.8,2107.1 1984.7,2131.8 1941.3,2150.3 C1910.4,2163.6 1867.6,2175.3 1850.1,2175.3 C1844.3,2175.3 1825,2172.5 1787.8,2166.3 C1760,2161.7 1749.7,2160.5 1698.8,2155.8 C1671.8,2153.3 1152.1,2114.3 1146.3,2114.3 C1144.7,2114.3 1146.7,2141.6 1149.7,2161.3 C1150.8,2168.2 1152.4,2179 1153.3,2185.3 C1154.2,2191.6 1157.4,2209.4 1160.4,2224.8 C1167.9,2264 1169.8,2276.5 1169.8,2286.5 C1169.8,2314.2 1162.7,2322.3 1101.3,2364.6 C1059.3,2393.5 1036,2406.9 1018.5,2412.2 C1003.2,2416.8 982.6,2418.9 967.1,2417.3 L967.1,2417.3 Z" id="Shape" sketch:type="MSShapeGroup"></path>
            <path d="M1439.8,1873.6 C1430.4,1872.1 1407,1867.1 1381.3,1861.3 C1348.5,1853.8 1345.8,1853.4 1286.8,1846.8 C1264.5,1844.3 1241.8,1841.6 1236.3,1840.8 C1230.8,1840 1162.6,1833 1084.8,1825.3 C1007,1817.6 911.8,1808.1 873.3,1804.3 C743.8,1791.4 693.2,1787.3 664.6,1787.3 C645.5,1787.3 639,1787.9 616.8,1792.1 C603.8,1794.5 601.5,1795.2 594.8,1799.2 C570.5,1813.5 530.8,1826.9 500.6,1830.9 C471.6,1834.7 447.4,1829.1 432,1814.9 C422.8,1806.3 414.1,1791 410,1776.1 L409,1772.3 L428.3,1754.3 C457,1727.5 471.6,1711.9 480.3,1698.9 C491.8,1681.6 497.1,1668.3 505.1,1636.8 C515.1,1597.5 520.7,1569.9 547.8,1424.3 C558.8,1365.2 568.9,1312.8 570.3,1308 C579,1277.2 592.8,1251.9 610.2,1234.8 C619.7,1225.4 626.5,1220.8 637,1216.5 C644.7,1213.4 661.6,1212.3 670.7,1214.3 C692.9,1219.1 709.9,1238.7 720.2,1271.2 C722.2,1277.5 723.8,1283.4 723.8,1284.4 C723.8,1287.1 725.7,1287.8 743.3,1291.6 C845.5,1314.1 1040.9,1333.3 1250.3,1341.3 C1284.9,1342.6 1318,1342.6 1338.3,1341.3 C1347.1,1340.7 1367.1,1340 1382.8,1339.7 C1398.5,1339.5 1414,1338.8 1417.3,1338.3 C1426.1,1336.9 1443.3,1337.1 1451.2,1338.8 C1475.1,1343.9 1492,1360.9 1506.3,1394.3 C1513,1410 1520.5,1432.4 1549.7,1524.6 C1581.4,1624.4 1584.3,1633.1 1592.5,1650.3 C1600.5,1667.3 1605.8,1675.9 1618.5,1692.1 C1632.9,1710.5 1635.8,1716.2 1635.8,1725.8 C1635.7,1734.8 1634.5,1740.1 1630.3,1748.8 C1624.7,1760.6 1615.1,1773 1599.8,1788.4 C1572.4,1816 1539.6,1839.3 1503.7,1856.7 C1475.8,1870.2 1454.2,1876 1439.8,1873.6 L1439.8,1873.6 Z M1407.2,1729.8 C1409,1729 1409.1,1728.1 1408.5,1713.9 C1407.2,1681.5 1397.1,1618.8 1378.2,1524.8 C1373.5,1501.7 1369,1479.2 1368,1474.8 L1366.3,1466.9 L1341.3,1464.6 C1300.7,1460.9 775,1414.5 754.5,1412.8 C744.1,1412 730.7,1411.3 724.7,1411.3 L713.8,1411.3 L713.2,1414.1 C712.9,1415.6 711.7,1419.7 710.7,1423.2 C709.7,1426.7 708.8,1430.5 708.8,1431.7 C708.8,1437.1 670.5,1627.9 667.2,1638.6 C663.7,1650.4 663.4,1653.3 666.2,1653.3 C667,1653.3 682,1657.6 699.7,1662.8 C732.6,1672.6 748.6,1676.7 757.3,1677.7 C760.1,1678.1 805.5,1683.9 858.3,1690.8 C967.8,1705 992.7,1707.4 1143.3,1719.3 C1253.9,1727.9 1268.9,1729 1296.8,1730.3 C1320.2,1731.3 1404.7,1731 1407.2,1729.8 L1407.2,1729.8 Z" id="Shape" sketch:type="MSShapeGroup"></path>
            <path d="M1906,1220.2 C1894.4,1219.1 1890.2,1218.2 1856.3,1209.3 C1801.8,1194.9 1784.8,1191.8 1732.3,1186.8 C1688,1182.6 1620.3,1177.4 1371.8,1159.3 C1228.2,1148.8 1202.5,1146.8 1130.8,1140.3 C916.5,1120.8 528,1091.2 328.1,1079.2 C306,1077.9 243.6,1078.5 228.3,1080.2 C201.4,1083.2 196.2,1084.6 171.4,1095.2 C108,1122.2 66.3,1132.4 41.5,1126.9 C19.8,1122.1 4.4,1106.7 0.7,1086.4 C-0.5,1079.4 -0.5,1079.3 2.6,1073 C6.1,1065.9 13.5,1055.8 29.2,1036.8 C35.1,1029.7 41.4,1020.9 43.3,1017.3 C59.1,986 83.1,893.4 97.2,809.8 C102.5,777.9 103,773.7 114.3,672.8 L124.8,578.8 L135.8,410.8 C148,223 147.3,233 149.9,217.3 C160.5,154.4 193.9,97.7 231.3,79.3 C254.9,67.7 274.8,70.4 291.5,87.5 C304.4,100.9 312.7,121.2 316.3,149 C318.8,167.9 318.2,218 314.8,286.8 C313.2,318.7 312.5,326.6 288.3,612.1 C265.8,878.9 262.8,915.1 262.8,924.8 L262.8,930 L268.6,931.2 C296.7,936.9 394.8,954 421.3,957.7 C465.6,964 780.7,994.5 999.8,1013.8 C1024.1,1015.9 1148.6,1023.9 1311.8,1033.7 L1583.3,1050.1 L1690.3,1051.4 C1802.3,1052.7 1828.4,1052.4 1845.8,1049.8 C1877.6,1045 1891.2,1036.4 1895.4,1018.4 C1899.2,1002.7 1895.5,960.4 1882.7,872.5 C1875.7,824 1871.7,800.3 1845.7,654.3 L1822.8,524.8 L1794.2,423.8 C1763.4,314.9 1758.7,298.8 1753.3,286.3 C1742.3,260.5 1728.3,247 1708.3,242.8 C1699.2,240.9 1675.5,240.9 1662,242.8 C1642,245.6 1607.5,253.5 1579.8,261.4 C1548.9,270.3 1512,281.5 1486.3,290 C1450.6,301.7 1440.9,304.3 1433.6,304.3 C1428.6,304.3 1427.4,303.9 1424.3,301.2 C1419.7,297.1 1417.8,293.4 1417.8,288.3 C1417.8,277.8 1430.7,264.2 1457.8,246.4 C1473.2,236.3 1608.2,126.5 1622.4,112.6 C1634.5,100.7 1649.2,82.8 1665.5,59.8 C1678.8,41.1 1687.6,30.6 1698.2,20.6 C1715.9,3.9 1732.5,-1.7 1757.3,0.4 C1798.8,4 1830.1,32.2 1860.7,93.3 C1882,136 1895.8,173 1926.2,269.3 C1964.3,390.3 1966.1,396.5 1990.8,503.3 C2010.3,587.4 2015,609.4 2033.3,703.3 C2044.6,761.3 2056.6,823 2059.8,840.4 C2066.3,874.9 2071.9,901.9 2074.7,912.8 C2076,917.7 2080.5,926.9 2089.8,943.8 C2105.9,973.1 2119.5,1000.8 2123.8,1012.8 C2126.3,1020 2126.9,1023 2126.6,1027.9 C2125.5,1046.3 2093.7,1092.2 2051.8,1135.7 C2021,1167.7 1987.9,1193.9 1961.1,1207.6 C1939.2,1218.7 1924.9,1222 1906,1220.2 L1906,1220.2 Z" id="Shape" sketch:type="MSShapeGroup"></path>
            <path d="M1311.3,914.3 C1300.1,912.6 1277.3,906 1225.2,889.4 C1200.4,881.6 1193.6,879.8 1167.7,874.9 C1101.4,862.3 1056.8,856.6 985.8,851.3 C970.7,850.2 919.7,846.4 872.6,842.8 C784.1,836.1 767.3,835.4 740.7,837.3 L727.1,838.3 L714.7,844.2 C655.2,872.7 603.5,882.2 571.3,870.6 C557,865.4 547,856.3 535.4,837.9 L528.7,827.3 L544.7,810 C553.4,800.6 564.1,788.8 568.3,783.8 C576.9,773.8 591.2,752.9 598.3,739.8 C609.1,720 619.9,691.8 625.1,669.8 C626.6,663.8 634.9,612.2 643.8,555.3 C663.4,428.5 663.1,430.5 668,410.8 C681.2,357.6 699.6,319.1 721.7,298 C738.6,281.9 756.3,276.9 777.2,282.3 C795.9,287 810.3,300 821.5,322 L826.2,331.1 L836.3,333.3 C849.7,336.1 902.6,345.8 921.3,348.8 C929.6,350.1 981.3,355.6 1036.3,360.8 C1132.8,370.1 1137,370.4 1155.3,370 C1174.7,369.5 1234.6,364.6 1254.3,361.9 C1278.4,358.6 1289.7,359.1 1304.6,364.2 C1316.5,368.3 1323,372.6 1333.9,383.3 C1348.1,397.3 1359.6,416 1372.9,447 C1380.8,465.3 1382.8,471.2 1399.9,525.8 C1419.6,588.6 1435.8,637.3 1443.2,656.1 C1446.3,663.9 1455.8,684 1464.4,700.7 C1472.9,717.4 1481.3,734.9 1483,739.5 C1485.9,747.1 1486.2,748.8 1486.2,760.3 C1486.3,772.4 1486.2,773 1483,779.8 C1470.5,806.4 1431.8,850.1 1396.3,877.8 C1370.5,898 1342.7,912.2 1325.9,913.9 C1322.8,914.2 1319.4,914.6 1318.3,914.7 C1317.2,914.9 1314.1,914.7 1311.3,914.3 L1311.3,914.3 Z M1252.3,762.8 C1258.4,762 1266.7,760.8 1270.9,760.2 L1278.5,759.1 L1280.9,751.5 C1283,744.8 1283.3,742 1283.2,729.3 C1283.1,711.3 1284.1,715.9 1255.3,599.9 C1242.9,549.9 1232.8,508.3 1232.7,507.4 C1232.7,506.5 1231.5,503.3 1230,500.3 C1227.5,495.3 1227,494.8 1223.8,494.6 C1221.9,494.5 1208.4,493.9 1193.8,493.3 C1176,492.5 1119.4,487.8 1021.3,478.8 C941,471.4 864.3,464.5 850.8,463.3 C837.3,462.2 824.5,461 822.2,460.7 L818.1,460.1 L815.3,477 C813.8,486.2 805.6,533.9 797.1,582.8 C778.9,687.8 776.5,702.9 777,710.5 C777.3,713.7 777.6,716.5 777.9,716.7 C778.4,717.2 812.3,720.8 831.3,722.3 C838.5,722.9 920.8,732.1 1014.3,742.8 C1107.8,753.5 1188.6,762.6 1193.8,763.1 C1209.3,764.6 1240.1,764.4 1252.3,762.8 L1252.3,762.8 Z" id="Shape" sketch:type="MSShapeGroup"></path>
        </g>
    </g>
</svg>