<?xml version="1.0" encoding="UTF-8" standalone="no"?>
<svg width="2218px" height="819px" viewBox="0 0 2218 819" version="1.1" xmlns="http://www.w3.org/2000/svg" xmlns:xlink="http://www.w3.org/1999/xlink" xmlns:sketch="http://www.bohemiancoding.com/sketch/ns">
    <!-- Generator: Sketch 3.0.4 (8054) - http://www.bohemiancoding.com/sketch -->
    <title>Slice 2</title>
    <desc>Created with Sketch.</desc>
    <defs></defs>
    <g id="Page-1" stroke="none" stroke-width="1" fill="none" fill-rule="evenodd" sketch:type="MSPage">
        <g id="Group" sketch:type="MSLayerGroup" transform="translate(1108.700000, 410.000000) scale(1, -1) translate(-1108.700000, -410.000000) translate(0.200000, 1.000000)" fill="#000000">
            <path d="M1388.3,818.3 C1373.1,816.9 1354.4,811.5 1341,804.5 C1329.3,798.5 1322.7,792.5 1318.7,784.5 C1315.8,778.5 1315.6,777.5 1316,769.8 C1316.7,756.8 1319.5,752.5 1341.9,729.5 C1356.3,714.8 1359.4,707.2 1360.5,683.5 C1361,672.3 1360.8,669.4 1359,662.2 C1346.8,614 1279.6,502.4 1197.1,393.2 C1168.5,355.3 1158.2,342.9 1126.8,308 C1081.6,257.8 1065.8,239.4 1065.8,236.8 C1065.8,235.3 1072,229.9 1074.8,228.8 C1077.9,227.7 1096.9,230.1 1108.4,233 C1149.5,243.6 1201,273.7 1262.7,323 C1294.1,348.2 1319,370.1 1360.1,408.8 L1382.9,430.3 L1402.6,422.5 C1427.4,412.7 1438.9,408.7 1455.3,404.5 C1480.6,398 1489.6,397.8 1542.7,402 L1571,404.3 L1572.9,401.9 C1573.9,400.6 1576.2,396.8 1577.9,393.6 C1585.6,379.2 1581.7,354.8 1565.3,314.5 C1543.6,261.3 1502,185.4 1458.8,120.5 C1439.4,91.4 1426.8,70.2 1423.4,60.9 C1421.9,57.1 1421.8,55.6 1422.8,52 C1423.4,49.7 1425,46.7 1426.3,45.4 C1428.4,43.3 1429.7,43 1435.5,43 C1469.8,43 1529.8,86.5 1609.2,168.9 C1637.5,198.3 1660.1,223.6 1720.2,293.4 C1758.8,338.2 1774.4,360.8 1778.3,377.2 C1780.4,386.1 1780.2,397.8 1777.9,404.4 C1776,409.9 1770,419.4 1764.7,425.4 L1761.8,428.8 L1772.1,430.4 C1777.7,431.2 1800.1,434.9 1821.8,438.4 C1903.8,451.8 1940.6,457.1 1981.3,461.5 C2027.1,466.5 2036.1,467 2089.3,468 C2155.6,469.2 2162.9,469.5 2170.3,471.5 C2192.4,477.5 2208.3,493.4 2214.3,515.5 C2216.9,525.1 2217.4,541.3 2215.4,550.6 C2208.6,581.6 2180.9,606 2134.3,622 C2105.3,631.9 2069.2,638.6 2053.9,636.9 C2034.7,634.7 1993.5,620.3 1930.8,593.6 C1917.6,588 1911.7,586.2 1891.8,581.5 C1775.5,554.5 1661.7,537.2 1567.3,532.1 C1533.9,530.3 1503.8,529.8 1492.8,530.9 C1481.1,532 1466.6,534.9 1467,536.1 C1467.6,537.5 1498.9,574.2 1522.8,601.3 C1564.5,648.6 1574.3,661 1580.2,673.3 C1586.4,686.1 1587.3,701.1 1582.8,713.3 C1576.1,731.1 1555.4,751.6 1525.8,769.6 C1482.6,795.9 1413.1,820.5 1388.3,818.3 L1388.3,818.3 Z" id="Shape" sketch:type="MSShapeGroup"></path>
            <path d="M406.8,793.9 C397.4,792.7 388.1,787.7 375.5,777 C369.6,772 364.8,767.5 364.8,767 C364.8,765.3 372.6,744.5 376.8,735 C382.4,722.3 395.2,687.9 397.7,678.8 C403.1,659.2 403,642.2 397.4,621.5 C388.5,588.5 372.3,548.3 347.8,498.5 C284.9,371 191.8,236.9 84.3,119 C39.8,70.3 11,35.1 2.8,19.6 C-0.9,12.5 -1.2,6.5 1.9,2.6 C12.7,-11.2 90.2,28.1 168.6,87.2 C258.1,154.8 347.8,243.8 431,347.7 L448,369 L454.2,365.5 C466.5,358.3 476.2,353.8 486.6,350.3 C496.2,347.1 498.7,346.6 510.3,346.2 C524.5,345.8 542.7,347.7 574.3,353 C583.7,354.6 591.6,355.5 591.9,355.2 C592.3,354.8 600.2,344.4 609.5,332 C635.2,297.8 649.7,275.3 663.2,248.1 C674.8,225 678.3,215.2 696.3,157 C718.8,84.3 735.4,60 766.3,54.5 C789.7,50.3 809.4,56.2 826.4,72.3 C843.2,88.1 854.9,110.9 861,139.4 C863.9,152.9 864.1,175.6 861.4,188 C851,236.5 818.3,279.1 730.3,359.2 L706.8,380.5 L725.6,386.8 C741.4,392.1 760.8,396.9 849.8,417.4 L955.3,441.8 L983.8,442.3 C1001.8,442.6 1016.5,443.4 1023.8,444.5 C1082.2,452.7 1115.3,471.5 1124.9,502 C1127.6,510.4 1127.8,527.5 1125.4,537 C1117.6,567.7 1089,586.1 1024.6,602 C999,608.4 984,610.9 977.8,609.9 C961.1,607.3 920.1,591 853.3,560.5 C821.1,545.7 811.5,542.4 759.3,527.4 C689.8,507.5 623.8,493.3 578.3,488.4 C563.4,486.8 522.6,485.9 521.3,487.1 C521.1,487.4 526.5,498 533.4,510.6 C558.2,555.6 568.9,573.4 578.3,585 C588.1,597.1 599.9,614.5 603.5,621.9 C606.7,628.5 607.2,630.5 607.6,638.9 C608.3,655.5 603.8,670.1 592.9,686.7 C581.5,703.9 565.2,720.1 542.2,737.2 C506.4,763.7 451.2,789.9 422.3,794 C418.5,794.5 414.9,794.9 414.3,794.9 C413.8,794.8 410.4,794.4 406.8,793.9 L406.8,793.9 Z" id="Shape" sketch:type="MSShapeGroup"></path>
        </g>
    </g>
</svg>