<?xml version="1.0" encoding="UTF-8" standalone="no"?>
<svg width="2469px" height="2434px" viewBox="0 0 2469 2434" version="1.1" xmlns="http://www.w3.org/2000/svg" xmlns:xlink="http://www.w3.org/1999/xlink" xmlns:sketch="http://www.bohemiancoding.com/sketch/ns">
    <!-- Generator: Sketch 3.0.4 (8054) - http://www.bohemiancoding.com/sketch -->
    <title>Slice 2</title>
    <desc>Created with Sketch.</desc>
    <defs></defs>
    <g id="Page-1" stroke="none" stroke-width="1" fill="none" fill-rule="evenodd" sketch:type="MSPage">
        <g id="Group" sketch:type="MSLayerGroup" transform="translate(1234.250000, 1217.250000) scale(1, -1) translate(-1234.250000, -1217.250000) translate(0.400000, 0.600000)" fill="#000000">
            <path d="M1508.9,2432.8 C1487.9,2430.1 1464.9,2416.1 1457.6,2401.7 C1455,2396.4 1454.6,2394.5 1454.6,2387.5 C1454.6,2383 1455.3,2376.6 1456.1,2373.4 C1459.4,2360.7 1470.2,2341.6 1481.8,2328.2 C1518.8,2285.3 1524.3,2277.2 1527.7,2260 C1530.4,2246.1 1526.9,2221.9 1515.5,2176.6 C1496.2,2099.4 1465.1,2005.3 1431.1,1921.4 C1324.9,1659.2 1229.9,1496.5 1092.2,1340.9 C1072.3,1318.4 1045.6,1289.9 1018.9,1262.7 C1004.5,1248 991.3,1233.9 989.5,1231.3 C986.3,1226.6 982.6,1218.1 982.6,1215.5 C982.6,1213.7 991.6,1210.2 998.3,1209.3 C1004.5,1208.5 1020.5,1210.4 1032.1,1213.4 C1078.3,1225.1 1140.1,1264.1 1209.9,1325.4 C1262.1,1371.2 1322.7,1434.7 1355.5,1477.8 C1359,1482.4 1386.2,1522.9 1415.8,1567.8 C1445.5,1612.7 1470.2,1649.8 1470.6,1650.3 C1471,1650.7 1483.9,1648.2 1499.3,1644.6 C1530.6,1637.2 1547.7,1633.7 1561.6,1631.8 C1575.9,1629.9 1599.3,1630.2 1623.1,1632.7 C1634.7,1633.9 1647.6,1635 1651.9,1635.1 C1658.9,1635.2 1660.3,1634.9 1667.1,1631.5 C1681,1624.6 1702.9,1601.2 1721.9,1572.9 C1746.8,1536 1771.8,1485.1 1780,1454.9 C1787.4,1427.6 1792.5,1389.6 1796.1,1335.4 C1801.8,1247.5 1801.8,1229.5 1794.2,765.4 C1790.7,543.8 1787.5,356.5 1787.2,349.3 C1786.3,325.6 1781.9,314 1771.6,308.4 L1766.1,305.4 L1741.6,305.4 C1692,305.5 1644.6,314.1 1532.6,343.4 C1494.7,353.4 1494.1,353.5 1449.9,357.4 L1443.7,357.9 L1441.1,353 C1439.7,350.2 1438.6,347.4 1438.6,346.8 C1438.6,345.2 1454.6,326.4 1469.9,310 C1492,286.3 1521.8,259.9 1540.7,247.2 C1544.8,244.5 1582.1,222.7 1623.6,198.9 C1665.1,175.1 1700.9,154.4 1703.1,152.9 C1713.3,145.8 1717.4,140.2 1769.4,60.7 C1795.5,20.7 1810.7,6.4 1832.2,1.3 C1841.6,-0.9 1858.5,-0.1 1867.6,2.9 C1921.7,21.1 1960.2,100.7 1970,214.9 C1973.3,253 1973.1,278.5 1969.1,376.9 C1965.6,460.4 1961.7,714.6 1960.5,938.4 L1959.3,1156.4 L1966,1264.9 C1969.7,1324.6 1973.3,1377.2 1974.1,1381.9 C1976.4,1395.3 1981.5,1438.2 1982.4,1451.3 C1983.9,1472.4 1981.3,1489.1 1973.6,1507.6 C1967.5,1522.2 1954.9,1542.4 1943.3,1555.9 C1930.4,1571 1916.4,1585.7 1907.1,1593.8 C1880.8,1616.7 1830.9,1662.8 1830.7,1664.4 C1830.4,1666.1 1861.5,1672.5 1987,1696.9 C2097.1,1718.3 2125.8,1723.4 2259.6,1745.8 C2341.8,1759.6 2414.3,1772.2 2420.6,1773.8 C2442.5,1779.3 2454.1,1785.8 2460.6,1795.8 C2470.4,1811.2 2470.1,1838.3 2459.7,1860.4 C2447.8,1885.8 2429.8,1901.9 2397.6,1916.1 C2373.5,1926.8 2334.2,1937.9 2312.1,1940.4 C2298,1941.9 2272.3,1933.9 2186.6,1901.4 C2111,1872.7 2027,1846 1938.6,1822.5 C1870.3,1804.4 1847,1799.3 1744.1,1780.3 L1654.1,1763.6 L1632.2,1763.1 C1617.6,1762.8 1602.1,1763.3 1585.2,1764.4 C1571.4,1765.4 1555.7,1766.4 1550.4,1766.8 L1540.6,1767.4 L1546.5,1780.9 C1552.6,1795 1562.2,1815.4 1584.6,1861.9 C1603.7,1901.5 1612,1919.4 1619.1,1936.4 C1622.5,1944.7 1638.5,1982.2 1654.6,2019.9 C1670.6,2057.6 1691.8,2107.3 1701.6,2130.4 C1715.5,2163.1 1721.5,2175.9 1728.7,2188.4 C1746.3,2218.9 1750.6,2230.6 1750.6,2247.5 C1750.6,2258.7 1749.4,2264.9 1745.3,2274.9 C1734.1,2302.4 1707.6,2331.5 1666.4,2362 C1637.2,2383.6 1596.4,2406.9 1565.2,2419.8 C1552.6,2425.1 1532.2,2431.6 1526,2432.4 C1516.4,2433.6 1515,2433.6 1508.9,2432.8 L1508.9,2432.8 Z" id="Shape" sketch:type="MSShapeGroup"></path>
            <path d="M501.9,2273.5 C475.6,2266.5 457.3,2249.7 455.8,2231.3 C454.7,2217.4 455.4,2216.5 494.3,2173.8 C501.1,2166.4 508.6,2157.7 511.1,2154.4 C525.7,2134.9 528.1,2115.6 519.7,2084.4 C494.6,1990.1 417.3,1807.3 340.6,1660.9 C246.3,1480.6 148,1334.1 52.1,1230.8 C24,1200.5 11.6,1184.8 4.6,1170.6 C-0.3,1160.5 -1.1,1155.7 1.3,1150.9 C6.4,1141 25,1144.8 64.1,1163.8 C135.9,1198.8 236.6,1270.9 280.1,1318.5 C285.2,1324 313.7,1359.1 343.6,1396.5 C373.4,1433.8 398.4,1465 399.1,1465.7 C400.2,1466.9 402.2,1465.9 410.7,1460.2 C444,1437.9 469.2,1425.4 494.3,1418.8 C503.7,1416.3 508.9,1415.6 520,1415.2 C540.4,1414.4 550.3,1415.9 573.6,1423.4 C607,1434.3 611,1434.8 621.6,1429.4 C649.9,1415.1 670.7,1358.4 682,1264.9 C688.9,1208.4 689.6,1187.7 689.6,1044.4 L689.6,919.4 L680.1,783.4 C672.7,676.6 667,604.7 653.6,448.4 C644.2,339 636.2,243.6 635.9,236.4 C634.6,207.3 640,178.1 651.1,154.1 C663.5,127.4 690.1,100.8 716.7,88.5 C740.7,77.4 756.4,77.2 772.3,87.9 C797.6,104.7 815.3,150.6 822.1,216.9 C823.1,226.9 826,329 831.6,545.9 L839.6,860.4 L848.6,1070.9 C853.5,1186.7 858.1,1289.4 858.7,1299.1 C859.9,1316.1 859.9,1317.1 857.8,1324.8 C854.4,1337.5 846.9,1352 837,1364.9 C832.2,1371.2 814.2,1394.2 797.1,1415.9 C757.9,1465.8 753.6,1471.3 753.6,1472.6 C753.6,1473.2 755.5,1474.4 757.9,1475.2 C760.2,1476 769.9,1479.4 779.4,1482.8 C815.6,1495.5 862.4,1509 902.9,1518.4 C915.6,1521.4 990.2,1536.4 1068.6,1551.9 C1163.3,1570.6 1213.2,1580.9 1217.4,1582.6 C1245.6,1593.8 1261.6,1616.3 1260.4,1643.5 C1260.1,1651.7 1259.6,1653.5 1256.2,1660.5 C1245.8,1681.5 1216.3,1701 1173.1,1715.4 C1149.7,1723.1 1119,1729.9 1107,1729.9 C1094.1,1729.9 1081,1726.2 1064.1,1717.6 C1040,1705.4 991,1685.8 949.9,1671.9 C912.1,1659.1 895.7,1654.2 763.6,1616.4 C638.1,1580.4 632.1,1578.9 573.6,1568.9 C530.2,1561.5 501.2,1557.8 474.7,1556.3 L462.4,1555.6 L463.1,1558 C464.4,1562.2 472.6,1577.9 477.8,1586.3 C480.6,1590.7 488.6,1602.7 495.7,1612.9 C539.6,1676.8 581.4,1753.2 683,1955.4 L722.6,2034.4 L736.7,2054.4 C753.5,2078.2 761.7,2091.8 764.8,2100.8 C766.8,2106.6 767.1,2109.3 767.1,2122.9 C767.1,2136.1 766.7,2139.4 764.8,2145.4 C755.2,2175.7 726.8,2198.6 654.6,2234.3 C598.2,2262.3 559.8,2274.6 526.6,2275.5 C512.6,2275.9 510.2,2275.7 501.9,2273.5 L501.9,2273.5 Z" id="Shape" sketch:type="MSShapeGroup"></path>
        </g>
    </g>
</svg>