<?xml version="1.0" encoding="UTF-8" standalone="no"?>
<svg width="2351px" height="1778px" viewBox="0 0 2351 1778" version="1.1" xmlns="http://www.w3.org/2000/svg" xmlns:xlink="http://www.w3.org/1999/xlink" xmlns:sketch="http://www.bohemiancoding.com/sketch/ns">
    <!-- Generator: Sketch 3.0.4 (8054) - http://www.bohemiancoding.com/sketch -->
    <title>Slice 2</title>
    <desc>Created with Sketch.</desc>
    <defs></defs>
    <g id="Page-1" stroke="none" stroke-width="1" fill="none" fill-rule="evenodd" sketch:type="MSPage">
        <g id="Group" sketch:type="MSLayerGroup" transform="translate(1175.300000, 889.000000) scale(1, -1) translate(-1175.300000, -889.000000) translate(0.200000, 0.100000)" fill="#000000">
            <path d="M1725.3,1776.9 C1707,1775.3 1687,1769.1 1644.3,1751.8 C1546.4,1712.2 1515.4,1702.9 1436.7,1690 C1387.2,1681.8 927.9,1615.6 856.8,1606.4 C745.2,1591.9 687,1584.9 650.9,1581.8 C633,1580.3 584.5,1581.2 567.8,1583.3 C517.2,1590 483.7,1603.6 383.1,1658.5 L354.9,1673.9 L341.7,1668.7 C332.5,1665 328.3,1662.9 327.7,1661.4 C326.2,1657.7 318.8,1624.4 317.7,1616.4 C313.7,1587.6 326.1,1557.9 352.8,1532.5 C364.8,1521.1 376,1512.6 399.2,1497 C480.1,1442.8 526,1419.4 563.3,1413.4 C575.2,1411.4 603.4,1411.5 618.5,1413.4 C635.4,1415.7 656.6,1420.3 713.3,1434.4 C773.4,1449.3 779.8,1450.4 959.3,1479.3 L1017.3,1488.6 L1020.1,1486 C1021.7,1484.6 1025.3,1480.3 1028.2,1476.4 C1047.1,1451.2 1057.9,1418.1 1061.7,1373.4 C1062.4,1365.4 1062.8,1234.5 1062.8,984.9 L1062.9,608.4 L1057.6,453.4 L1052.3,298.3 L1026.8,296.1 C942.5,288.6 885.3,280.2 552.3,226.8 C374.5,198.3 375.3,198.4 316.3,198.4 C277.4,198.4 266.6,199.1 241.8,203 C222.2,206.1 213.2,208.9 182.2,221.7 C109.7,251.7 95,259.3 76.4,276.8 C64.7,287.6 54,295.9 48,298.7 C43.2,300.9 41.6,301.1 33,300.7 C25.7,300.4 22.3,299.8 19.2,298.2 C14.1,295.5 8.2,289 5.6,283.3 C-1.3,267.7 -2,223 4.3,198.3 C7.3,186.5 12.4,176 20.2,165.5 C27.1,156.1 54.6,127.9 88.3,95.6 C147.6,38.7 178.8,15.7 210.7,5.5 C225.2,0.8 234.3,-0.4 248.5,0.1 C262.6,0.7 270.9,3 331.2,22.9 C352.7,30 382.7,39.2 397.9,43.3 C668.2,117.2 959,158.9 1286.8,170.9 C1407.2,175.3 1666.8,175.3 1784.3,170.9 C1898,166.6 1993.8,158.2 2085.3,144.4 C2094.1,143.1 2125.2,137.5 2154.3,131.9 C2238.1,116 2263.8,112.1 2277.2,113.3 C2289.3,114.5 2300.8,117.7 2311.8,123.1 C2320.9,127.5 2323.5,129.3 2330.9,136.8 C2344.9,150.8 2350.1,164 2350.2,185.4 C2350.3,211.6 2340.3,233.5 2317.8,256 C2292.2,281.6 2254.7,303.3 2202.5,322.8 C2172.8,333.9 2129.5,345.9 2099.2,351.4 C2075.6,355.7 2071.1,355.3 1976.8,340.4 C1941.4,334.8 1909.4,330.8 1854.8,325.4 C1833.3,323.2 1786.2,322.1 1668.8,320.9 C1464.9,318.9 1342.8,316.5 1258.3,312.9 C1245.7,312.3 1233.9,311.9 1232.1,311.9 L1228.8,311.9 L1228.8,451.2 C1228.9,539.5 1230,689.8 1231.8,862.4 L1234.7,1134.4 L1238.7,1225.9 C1240.9,1276.2 1243.2,1321.9 1243.8,1327.4 C1245.4,1342.1 1250.4,1380.9 1254.3,1409.2 C1256.2,1422.8 1257.8,1437.6 1257.8,1442.2 C1257.7,1465.4 1247.5,1486.9 1225.6,1509.5 C1215.6,1519.8 1214.8,1520.9 1217,1521.4 C1220.4,1522.2 1271.2,1530.1 1309.8,1535.8 C1467.2,1559.3 1594.4,1570.7 1701.8,1571 C1743.2,1571.1 1758.7,1570 1903.3,1556.3 C1974.9,1549.5 1978.7,1549.4 1991.3,1552.6 C2010.5,1557.4 2025.7,1573.4 2031.4,1594.9 C2033.7,1603.7 2033.7,1620.3 2031.4,1628.9 C2027,1645.4 2016,1662.5 1999.5,1678.7 C1990.5,1687.5 1989.3,1688.3 1974.7,1695.3 C1935.4,1714.2 1819.3,1756.7 1768.8,1770.8 C1755.6,1774.5 1738.2,1778.1 1735.4,1777.8 C1734.8,1777.7 1730.3,1777.3 1725.3,1776.9 L1725.3,1776.9 Z" id="Shape" sketch:type="MSShapeGroup"></path>
        </g>
    </g>
</svg>