<?xml version="1.0" encoding="UTF-8" standalone="no"?>
<svg width="2349px" height="2114px" viewBox="0 0 2349 2114" version="1.1" xmlns="http://www.w3.org/2000/svg" xmlns:xlink="http://www.w3.org/1999/xlink" xmlns:sketch="http://www.bohemiancoding.com/sketch/ns">
    <!-- Generator: Sketch 3.0.4 (8054) - http://www.bohemiancoding.com/sketch -->
    <title>Slice 2</title>
    <desc>Created with Sketch.</desc>
    <defs></defs>
    <g id="Page-1" stroke="none" stroke-width="1" fill="none" fill-rule="evenodd" sketch:type="MSPage">
        <g id="Group" sketch:type="MSLayerGroup" transform="translate(1174.650000, 1057.050000) scale(1, -1) translate(-1174.650000, -1057.050000) translate(0.700000, 0.100000)" fill="#000000">
            <path d="M1726.7,2112.9 C1707.7,2111.5 1695.2,2108.5 1664.1,2098.1 C1647.8,2092.6 1630.3,2087 1625.1,2085.6 C1611.3,2081.9 711.6,1937.3 686.8,1934.8 C661.2,1932.3 602.3,1931.2 576.6,1932.9 C528.6,1936 492.6,1942.4 459.9,1953.7 C442.4,1959.6 416.2,1972.7 397.8,1984.6 C378.3,1997.2 363.8,2005.3 356.7,2007.5 C351.2,2009.2 350.4,2009.2 336.8,2007.5 L322.7,2005.7 L319.3,1990.6 C316.2,1977.4 315.8,1973.8 315.8,1962 C315.8,1949.1 315.9,1948.1 318.9,1940.9 C329.1,1916.5 352.7,1889.8 391.3,1859.1 C449.5,1812.8 528.9,1769.2 572.6,1759.5 C578.9,1758.1 583.5,1757.9 595.1,1758.2 C616.1,1758.9 628.4,1762.1 694.3,1783.3 C732.4,1795.7 751.1,1800.4 838.9,1819.9 C887.5,1830.7 926.8,1838.7 936,1839.6 C951.5,1841.2 970.3,1831.1 992.4,1809 C1045,1756.6 1069,1692.1 1073.3,1591.8 C1074.2,1569.5 1076.4,1276 1076.3,1179 L1076.3,1137.5 L1072.6,1135.1 C1069.4,1133.1 1056.2,1130.8 955.4,1115.4 C864.1,1101.5 820.7,1095.4 734.3,1084.4 L626.8,1070.8 L603.8,1071.3 C564.9,1072.2 513.6,1079.2 468.5,1089.6 C449.1,1094.1 437.2,1098 415.5,1106.9 C386.9,1118.7 377.4,1121.4 354.1,1124.5 L349.5,1125.1 L344.7,1110.8 C339.9,1096.8 339.8,1096.2 339.5,1082.1 C339.3,1073.5 339.6,1065.2 340.3,1061.6 C343.9,1042.7 357.8,1027.8 412.3,984 C465.8,941.1 492.9,922.3 520.5,909 C550.2,894.8 569.1,891.9 593,898 C607.7,901.8 628.8,908.3 650.3,915.5 C666,920.8 676.4,922.9 866.8,960.5 C976.8,982.2 1067.8,1000.2 1069.1,1000.5 L1071.3,1001 L1071.3,813.4 L1071.3,625.8 L1067.3,474.2 C1065.2,390.8 1063.1,318.2 1062.8,313 C1062.1,302.1 1060,287.1 1057.5,275.5 C1056,268.6 1055.5,267.4 1053.3,266.8 C1050.6,266 467.3,196.8 445.8,194.7 C428.2,193.1 332.2,193.1 311.3,194.8 C270.2,198.1 239.1,202.1 211.6,207.5 C177.8,214.2 158,220.2 132,231.6 C94.5,248.1 48.6,265.2 38.3,266.6 C27.5,268.1 15.9,263.6 6.4,254.4 L0,248.1 L0.7,235.3 C2.2,207.6 5.4,191.9 12.6,177.5 C23.9,154.8 39.5,141.4 104.5,98.6 C149.9,68.8 184.9,48.3 220.8,30.5 C263.3,9.5 292,0 313,0 C325.4,0 332.4,1.8 389.2,19.9 C413.3,27.6 442.1,34 532.3,52 C586.3,62.8 580.8,61.9 727.8,83.5 C841.3,100.2 855.5,102 1034.7,123.5 C1192.8,142.4 1224.7,146 1236,146 C1248,146 1318,150.3 1373.8,154.5 C1422.9,158.2 1470.5,159.4 1634.3,161 L1741.8,162.1 L1851.3,158.1 L1960.8,154 L2061.3,144.5 C2158.1,135.3 2162.7,134.8 2187.3,130 C2201.3,127.3 2220.1,123.9 2229,122.5 C2274.8,115.3 2311,123.8 2330.8,146.2 C2336.8,153.1 2343.7,166.8 2346,176.7 C2348.8,188.6 2348.5,210.9 2345.5,221.3 C2338.5,245.5 2321.1,267.4 2299.1,279.4 C2262.2,299.8 2111.3,336 2063.6,336 C2045.5,336 1984.6,326.9 1932.5,316.4 C1889.2,307.7 1894.3,308 1806.3,307 C1697.3,305.8 1602.2,304.1 1567.3,302.9 C1551.1,302.4 1481.6,298.2 1412.8,293.6 C1301.2,286.1 1287.2,285 1281.9,283.1 C1273.4,280.1 1261.4,278.2 1238.8,276.5 C1227.8,275.7 1218.3,275 1217.7,275 C1216.2,275 1215.3,321.2 1216.4,338 C1216.9,344.9 1218.2,354.6 1219.3,359.5 C1221.1,367.9 1221.5,382.4 1225.3,580 C1228.2,731.6 1230.4,824.9 1233.3,909.4 C1235.4,974.2 1237.4,1027.4 1237.6,1027.6 C1237.8,1027.8 1286.5,1034.5 1345.9,1042.4 C1453.4,1056.7 1453.9,1056.8 1478.3,1057.4 C1491.8,1057.7 1527.1,1059.3 1556.8,1061 C1650.2,1066.2 1640.8,1066.3 1731.8,1059.3 C1792,1054.7 1825.3,1054.2 1837.6,1057.8 C1850.5,1061.5 1858.9,1066.3 1867.3,1074.9 C1880.3,1088 1884.9,1100.8 1884,1121.5 C1883.4,1135.9 1880.4,1147.1 1873.6,1160.5 C1867.5,1172.6 1861.7,1180.6 1850.3,1192.4 C1823,1220.7 1784.6,1239.1 1739.7,1245.6 C1723.7,1247.9 1694.9,1247.6 1674.8,1245 C1643.4,1241 1610.3,1233.7 1588.3,1226 C1580.3,1223.2 1564.1,1218 1552.3,1214.5 L1530.8,1208 L1390.4,1185.5 C1313.1,1173.1 1247.8,1163 1245.1,1163 L1240.3,1163 L1240.3,1169.3 C1240.3,1188.9 1243.3,1246.2 1249.9,1354 C1254,1420.8 1257.8,1484.7 1258.3,1495.9 C1260.2,1534.7 1263.3,1549 1284,1613 C1297.3,1654.5 1298.7,1660.1 1298,1670.7 C1296.7,1688.5 1285.1,1712.7 1266,1736.8 C1247.8,1759.9 1231.2,1776.6 1193.3,1810 C1162.9,1836.7 1131.5,1864.9 1128.9,1867.8 C1127.1,1869.9 1127.1,1869.9 1129.4,1870.5 C1130.7,1870.8 1168,1876.8 1212.3,1883.9 L1292.8,1896.8 L1407.3,1904.9 C1513,1912.3 1529.2,1913.2 1618.3,1916.6 C1721.7,1920.5 1725.6,1920.5 1775.8,1916.9 C1804.5,1914.9 1809.8,1914.8 1826.9,1915.8 C1864.1,1918.1 1887.8,1924.3 1904.8,1936.5 C1921.8,1948.6 1929.5,1964.6 1929.5,1988 C1929.5,2024.3 1909.5,2054.2 1869.6,2077.7 C1838.1,2096.2 1792.3,2109.9 1751.3,2113 C1743.9,2113.5 1737.6,2113.9 1737.3,2113.9 C1737,2113.8 1732.3,2113.4 1726.7,2112.9 L1726.7,2112.9 Z" id="Shape" sketch:type="MSShapeGroup"></path>
            <path d="M1577.3,891.4 C1572.8,890.2 1560.3,884 1554.4,880.1 C1553.2,879.3 1554.1,877.8 1558.7,872.2 C1568.4,860.3 1583.9,846.2 1607.8,827.7 C1620.5,817.9 1634.2,807.3 1638.3,804.1 C1662,785.6 1700.5,746 1730.8,709 C1736.5,702.1 1769.7,659.6 1804.8,614.5 C1839.8,569.4 1872.3,528.2 1876.9,522.8 C1891.6,506 1908.1,493 1924.8,484.9 C1941.6,476.9 1955.7,474.6 1971.1,477.4 C1999.6,482.5 2017.8,505.1 2026,545.6 C2027.4,552.4 2027.8,559.2 2027.8,574.5 C2027.8,592.1 2027.5,595.6 2025.4,604 C2016.6,639.5 1995.9,672.4 1959.8,708.5 C1916.6,751.8 1859.3,791 1785.8,827.7 C1717.7,861.8 1650.8,885.4 1605.3,891.6 C1592.1,893.3 1584.3,893.3 1577.3,891.4 L1577.3,891.4 Z" id="Shape" sketch:type="MSShapeGroup"></path>
        </g>
    </g>
</svg>