<?xml version="1.0" encoding="UTF-8" standalone="no"?>
<svg width="2414px" height="2289px" viewBox="0 0 2414 2289" version="1.1" xmlns="http://www.w3.org/2000/svg" xmlns:xlink="http://www.w3.org/1999/xlink" xmlns:sketch="http://www.bohemiancoding.com/sketch/ns">
    <!-- Generator: Sketch 3.0.4 (8054) - http://www.bohemiancoding.com/sketch -->
    <title>Slice 2</title>
    <desc>Created with Sketch.</desc>
    <defs></defs>
    <g id="Page-1" stroke="none" stroke-width="1" fill="none" fill-rule="evenodd" sketch:type="MSPage">
        <g id="Group" sketch:type="MSLayerGroup" transform="translate(1207.000000, 1144.350000) scale(1, -1) translate(-1207.000000, -1144.350000) translate(0.000000, 0.200000)" fill="#000000">
            <path d="M521.8,2286.9 C510.4,2284.2 502.6,2278.3 494.3,2266.3 C488.5,2257.9 480,2242.5 480,2240.4 C480,2239.6 486.7,2225.5 494.9,2209 C503.1,2192.5 512.5,2172.9 515.7,2165.5 C521.2,2152.6 521.5,2151.6 521.4,2144 C521.1,2107.1 468,2018.3 389.6,1923.5 C323.4,1843.3 247.2,1767.2 166.5,1700.5 C142.1,1680.3 136.4,1673.6 132.8,1660.6 C130.1,1650.8 130.4,1648.3 134.5,1644.6 C139.2,1640.5 141.3,1640.1 153.9,1640.8 C179.1,1642.3 211.8,1653.5 258,1676.6 C320,1707.7 395.7,1755.9 477,1816.3 C520.1,1848.3 519.8,1848.1 604.5,1932.5 C679.5,2007.2 696,2022.9 730,2051.1 C752.2,2069.6 764.9,2084.1 772.9,2100 C779.3,2112.9 780.5,2118.6 780.5,2137 C780.5,2151.1 780.2,2153.8 778.2,2159.6 C771.4,2179.2 754.7,2193.9 712,2217.7 C690.5,2229.7 651.6,2249.8 629.7,2260.2 C590.8,2278.7 575.8,2284.4 559.6,2287 C548.4,2288.8 529.4,2288.8 521.8,2286.9 L521.8,2286.9 Z" id="Shape" sketch:type="MSShapeGroup"></path>
            <path d="M1422,2263.6 C1412.4,2260.6 1406,2252.9 1406,2244.3 C1406.1,2236.2 1410.6,2230.6 1431,2213.1 C1460.6,2187.7 1552.4,2099.2 1590.3,2059.7 C1630,2018.2 1630.3,2017.9 1739.6,1893 C1793.5,1831.4 1841.2,1777.7 1845.5,1773.7 C1862.4,1758.3 1886,1744.2 1903,1739.4 C1913.5,1736.5 1933,1735.7 1942.4,1737.9 C1966.1,1743.5 1981.8,1761.1 1989.8,1791 C1993.5,1804.8 1995.1,1818.2 1995.7,1841.5 C1997,1893.6 1990.5,1922.3 1970.3,1953.4 C1961.7,1966.6 1954.8,1974.9 1939.1,1990.6 C1907.2,2022.5 1863.7,2054.3 1797.4,2094.2 C1694,2156.6 1579.3,2213.6 1492,2246.3 C1449.8,2262 1431.7,2266.5 1422,2263.6 L1422,2263.6 Z" id="Shape" sketch:type="MSShapeGroup"></path>
            <path d="M924.5,1930 C897.8,1925 877.8,1908.6 874,1888.4 C872.2,1879.1 875.6,1871.5 896.8,1837.1 C904.3,1824.9 912.8,1810.3 915.7,1804.6 C920.5,1795.1 921,1793.6 921,1787.6 C921,1766.5 903.2,1718.7 877.8,1671 C788.5,1503.9 619.3,1308.4 403,1122.4 C300.1,1034 181.1,943.2 61,861.5 C30.5,840.8 25,836.6 14.3,826 C4.4,816.1 0,809 0,802.3 C0,788.3 13.7,786.8 48.5,797.1 C90.4,809.6 193.7,851.8 243,876.5 C249.3,879.7 297,907.8 349,939 C440.6,994 444.4,996.4 477,1019.9 C510.5,1044 510.6,1044.1 616.5,1135.7 L722.5,1227.3 L805.6,1310.7 L888.8,1394 L969.4,1488.7 C1013.7,1540.8 1054.2,1587.7 1059.3,1592.9 L1068.6,1602.3 L1075.6,1595.6 C1107.2,1565.2 1155.5,1521.2 1322,1370.5 L1513.5,1197.2 L1695.4,1024.6 C1873.2,855.9 1877.9,851.6 1901.4,833.3 C1925.4,814.6 1925.5,814.5 1930.5,814.5 C1933.3,814.5 2001.9,816.3 2083,818.5 L2230.5,822.4 L2272.9,829.5 C2296.2,833.3 2323.2,837.7 2332.9,839.1 C2342.6,840.5 2353,842.2 2356,843 C2372.9,847.4 2414,863.6 2414,865.9 C2414,867.9 2403.7,879.8 2396.5,886.1 C2388,893.6 2376.8,901.7 2364.9,908.7 C2359.7,911.8 2292.3,945.2 2215,983.1 L2074.5,1051.8 L1968.5,1109.5 L1862.5,1167.2 L1737.5,1247 L1612.5,1326.8 L1482,1420 C1373.3,1497.6 1335.9,1525 1258.5,1583.6 C1207.3,1622.3 1163.6,1655.2 1161.3,1656.7 C1159,1658.2 1153.8,1662.3 1149.8,1665.6 C1137.2,1676.3 1137.4,1673.7 1148.1,1686 C1170.9,1711.9 1179.1,1726.3 1180.5,1742.7 C1182.3,1762.9 1170,1788.1 1146.6,1812.3 C1131.1,1828.3 1125.4,1832.6 1084,1860 C981.6,1927.7 974.1,1931.6 945.1,1931.4 C937.6,1931.4 928.4,1930.7 924.5,1930 L924.5,1930 Z" id="Shape" sketch:type="MSShapeGroup"></path>
            <path d="M1565.1,881.4 C1549,879.9 1524,872.6 1498.7,861.9 C1491.7,858.9 1482,855.1 1477.2,853.4 L1468.5,850.3 L1048,818.4 C688.4,791.2 624.5,786.5 606.6,786.5 L585.7,786.5 L564.1,796.4 C493,829.1 457.8,840.9 437.4,839.1 C422.8,837.8 407.4,831.7 395.8,822.9 C389.3,817.8 385.4,813.2 381.4,805.5 C378.8,800.6 378.5,799 378.5,790.5 C378.5,782.1 378.8,780.4 381.2,775.8 C384.7,769.2 391.4,761.2 407,745 C446.6,703.7 460.1,675.4 471,611.1 C472.6,601.7 476,582.1 478.4,567.5 C486.3,521.7 493,473.2 494.5,452 C494.8,447.1 498.2,371.7 502.1,284.5 C508.9,127.9 509.7,116.7 513.6,101 C524.1,59.1 548.1,25.5 579.3,9 C592.1,2.2 600.5,0 613.5,0 C624.1,0 624.8,0.1 632.3,3.7 C647,10.7 662,24.9 672,41.3 C676.9,49.3 677.9,50.3 681,50.9 C754.1,63.7 809.5,68.8 916.5,72.5 C961.4,74.1 1295.8,81.5 1320.5,81.5 C1332.6,81.5 1353.3,81 1366.5,80.5 C1411.1,78.6 1453.4,76.5 1468,75.4 L1482.4,74.3 L1491.6,68.9 C1512,56.9 1533.5,51 1548.7,53.2 C1577.6,57.4 1603.6,88.8 1627.5,148.4 C1634.6,166.2 1643.3,193.1 1679,308 C1714.2,421.3 1730.8,473.8 1734,482 C1735.5,485.9 1756,533.3 1779.5,587.5 C1828.5,700.3 1827.2,697.3 1829.6,708.2 C1831.2,716 1831.2,716.7 1829.6,722.9 C1821.4,753.1 1755.6,803.7 1667,847.9 C1640.3,861.2 1623.5,868.6 1606.5,874.4 C1586.7,881.3 1578.5,882.6 1565.1,881.4 L1565.1,881.4 Z M1514,704.5 C1543.9,703.3 1555.9,699.9 1564.4,690.4 C1572.8,681.2 1576.2,668.3 1576.3,646.5 C1576.3,627.7 1572.8,592.2 1567.9,563 C1565.7,550 1525.8,355 1518.4,321.5 C1508.1,274.8 1502.8,257.3 1489.9,227.9 L1485.9,218.8 L1446.2,218.2 C1353.7,216.7 1319.6,215.4 960,199.5 C806.8,192.7 679.8,187.5 677.8,187.9 C675.7,188.3 673.4,189.2 672.7,190 C671.8,190.8 670.8,195.5 670.1,201.2 C669.5,206.6 663.6,284.6 657,374.6 L645,538.1 L645,595.3 L645,652.5 L654.3,652.5 C659.3,652.5 717.3,657.7 783,664.1 L902.5,675.7 L1144.5,690.5 L1386.5,705.3 L1439.5,705.3 C1468.7,705.4 1502.2,705 1514,704.5 L1514,704.5 Z" id="Shape" sketch:type="MSShapeGroup"></path>
        </g>
    </g>
</svg>