<?xml version="1.0" encoding="UTF-8" standalone="no"?>
<svg width="1309px" height="2170px" viewBox="0 0 1309 2170" version="1.1" xmlns="http://www.w3.org/2000/svg" xmlns:xlink="http://www.w3.org/1999/xlink" xmlns:sketch="http://www.bohemiancoding.com/sketch/ns">
    <!-- Generator: Sketch 3.0.4 (8054) - http://www.bohemiancoding.com/sketch -->
    <title>Slice 2</title>
    <desc>Created with Sketch.</desc>
    <defs></defs>
    <g id="Page-1" stroke="none" stroke-width="1" fill="none" fill-rule="evenodd" sketch:type="MSPage">
        <g id="Group" sketch:type="MSLayerGroup" transform="translate(654.100000, 1085.300000) scale(1, -1) translate(-654.100000, -1085.300000) translate(0.100000, 0.800000)" fill="#000000">
            <path d="M444.4,2167.3 C426.2,2163.2 417.4,2156.2 409.3,2139.3 C402.8,2125.6 402.6,2127.2 412.5,2111.8 C428.5,2086.6 432.9,2075.3 432.9,2058.5 C432.9,2014 406.2,1949.1 356,1871.3 C306.1,1794.2 225.4,1694.9 147.9,1615.3 C108.7,1575.2 105.9,1571.6 105.9,1562.1 C105.9,1557.6 106.3,1556.7 108.9,1554.4 C115.4,1549 125.4,1548.7 144.5,1553.3 C206.3,1568.5 305.7,1641.5 455.4,1781.6 C504.7,1827.7 587.1,1907.5 601.7,1923 C629.9,1953.2 633.9,1960.8 633.9,1984.6 C633.9,2020.2 625.1,2035.5 571.1,2094.7 C530.8,2138.8 502.7,2160.8 479.3,2166.8 C470.2,2169.2 453.7,2169.4 444.4,2167.3 L444.4,2167.3 Z" id="Shape" sketch:type="MSShapeGroup"></path>
            <path d="M877.9,2141.8 C871,2140.9 856.7,2134.8 857.4,2133 C857.7,2132.3 862,2126.2 867.1,2119.5 C878.9,2103.9 892.7,2090.2 915.9,2070.8 C941.8,2049.2 950.1,2041.6 967.2,2023.4 C1020.1,1967 1065.7,1905.5 1114.9,1824.3 C1173.5,1727.6 1188.8,1705.3 1205.2,1693.2 C1212.8,1687.6 1220.4,1684.8 1231.7,1683.7 C1265.9,1680.2 1290.6,1698.4 1302.3,1735.7 C1307,1750.7 1308.2,1761.8 1307.6,1785.3 C1307.1,1808.1 1305.2,1821.4 1299.9,1841.4 C1284.2,1900.4 1243.2,1953.4 1171.8,2007 C1133.3,2035.9 1100.6,2055.6 1045.9,2082.7 C978.4,2116.3 916.6,2139.5 887.9,2142.1 C885.4,2142.3 880.9,2142.2 877.9,2141.8 L877.9,2141.8 Z" id="Shape" sketch:type="MSShapeGroup"></path>
            <path d="M663.9,1726.8 C646.2,1724.5 635.4,1715.5 624.8,1694.1 L619.8,1684 L631.2,1666.6 C649.7,1638.5 659.4,1620.7 665,1604.3 C668.7,1593.5 668.3,1580.4 664,1567.8 C645.2,1513.4 569.1,1405.8 468.1,1291.3 C412.5,1228.3 380.9,1194.6 327.5,1141.3 C239,1053 177.8,1000.3 62.7,913.7 C44.4,899.9 28.5,888.2 27.4,887.8 C24.1,886.5 13.6,878.4 8.1,872.9 C1.4,866.2 -0.3,862.9 0.1,857 C0.4,853 0.9,852.1 3.8,850.1 C11.2,845.1 29,847.8 61.9,858.8 C130.2,881.6 215.8,923.7 284.8,968.5 C302.6,980.1 338.1,1004.5 364.9,1023.6 C495.7,1116.9 581.1,1197 730.3,1366.3 C742.9,1380.6 753.6,1392.4 754,1392.6 C754.4,1392.8 760.1,1390.7 766.6,1388 C839.4,1357.3 925.8,1301.2 1009.9,1229.9 C1044.1,1200.9 1073.5,1173.2 1091,1153.5 C1126.9,1113.2 1138.3,1105.5 1165.4,1103.3 C1197.3,1100.7 1218.9,1120.2 1228.7,1160.1 C1230.8,1169 1231,1196.4 1229.1,1207.8 C1221.9,1248.8 1203.2,1284.9 1172.6,1316.5 C1155.6,1334 1139.8,1346.4 1119.6,1357.9 C1083.9,1378.1 966.5,1423.5 885.4,1448.3 C861.9,1455.5 826.6,1464.8 822.9,1464.8 C818.9,1464.8 820.1,1467.2 829.3,1477.1 C849.2,1498.5 859.9,1512.9 863.9,1523.6 C878.2,1561.4 810.6,1660.2 740.4,1704.3 C714,1720.9 684.6,1729.5 663.9,1726.8 L663.9,1726.8 Z" id="Shape" sketch:type="MSShapeGroup"></path>
            <path d="M1018.4,929.9 C1006.7,928 991,922.7 944,904.9 C909,891.6 870.9,880.3 843.9,875.4 C836.5,874 759.3,858.9 672.4,841.9 C585.5,824.8 509,809.9 502.4,808.7 C495.8,807.6 484,806.4 476.1,806.1 L461.8,805.5 L455.1,812 C451.4,815.6 445.7,820.2 442.5,822.3 C408.4,844.1 329.3,859.5 302.7,849.6 C287.5,843.9 275.6,833.9 269.5,821.6 C262.3,807.3 264.6,801.2 288.8,771.9 C311.2,744.6 324.3,713 329.8,672.8 C332,657.1 334.1,631.9 342.4,524.3 C349.3,434.1 351.4,401.6 353.5,350.8 C356,292 356.1,286 355,249.3 C353,181.2 353.5,171.8 361,134.5 C375.3,63.7 397.9,18.8 426.5,4.7 C434.2,0.8 435.9,0.4 444.1,7.378681e-13 C461.2,-0.8 473.2,4 484.8,16.4 C503.6,36.5 512.2,72.6 510.5,124.1 L509.8,143.8 L512.3,143.8 C516.1,143.8 561.1,151.4 582.9,155.8 C609,161 820.2,196.2 840.4,198.7 C861.1,201.3 887.9,203.1 897.2,202.7 C904.1,202.3 905,202 912.5,197 C917.1,193.9 923.7,190.6 928.4,189.1 C935.6,186.7 937.8,186.5 951.4,186.5 C963.6,186.5 967.9,186.9 974.4,188.7 C1000.4,195.7 1018.5,212.2 1032.9,241.9 C1044.7,266.4 1072.9,367.7 1117.4,545.7 C1126.5,582.2 1136,619.5 1138.5,628.7 C1152.1,678.5 1163,701.2 1186.4,728.8 C1201.1,746.1 1205.9,755.1 1206.6,766.9 C1207.3,776.3 1205.5,783 1199.2,794.9 C1179.6,832.3 1118.1,889.5 1067.1,917.9 C1047.7,928.7 1033.1,932.2 1018.4,929.9 L1018.4,929.9 Z M967.4,755.3 C973.8,752.1 977.1,748.2 978.9,741.9 C984.5,721.7 968.3,610.4 927.3,388.3 C922.6,363.1 918.7,342.3 918.6,342.3 C918.5,342.2 909.6,340.9 898.9,339.4 C888.2,337.8 803.1,322 709.9,304.2 C616.7,286.4 539.1,271.8 537.5,271.8 C536,271.8 527.9,270.7 519.7,269.3 C511.4,267.9 504.6,266.8 504.5,267 C504.4,267.2 502.4,312.5 500.1,367.8 C497.2,436.3 493.9,498.5 489.8,563.3 C486.4,615.6 483.5,662.4 483.2,667.4 L482.7,676.6 L489.5,678.2 C493.3,679 505.2,681.3 515.9,683.3 C589.6,696.8 919.5,756.9 924.4,757.7 C927.7,758.2 937.4,758.6 945.9,758.5 C961,758.3 961.6,758.2 967.4,755.3 L967.4,755.3 Z" id="Shape" sketch:type="MSShapeGroup"></path>
        </g>
    </g>
</svg>