<?xml version="1.0" encoding="UTF-8" standalone="no"?>
<svg width="326px" height="2429px" viewBox="0 0 326 2429" version="1.1" xmlns="http://www.w3.org/2000/svg" xmlns:xlink="http://www.w3.org/1999/xlink" xmlns:sketch="http://www.bohemiancoding.com/sketch/ns">
    <!-- Generator: Sketch 3.0.4 (8053) - http://www.bohemiancoding.com/sketch -->
    <title>Untitled 4</title>
    <desc>Created with Sketch.</desc>
    <defs></defs>
    <g id="Page-1" stroke="none" stroke-width="1" fill="none" fill-rule="evenodd" sketch:type="MSPage">
        <g id="Group" sketch:type="MSLayerGroup" transform="translate(163.100000, 1214.600000) scale(1, -1) translate(-163.100000, -1214.600000) translate(0.600000, 0.600000)" fill="#000000">
            <path d="M65.5,2426 C36.9,2421.7 20,2410.9 10,2390.6 C7.4,2385.2 4.1,2376.2 2.4,2369.7 L-0.5,2358.4 L21.7,2336.8 C56.6,2303 75.3,2283.7 80.1,2276.4 C90.3,2260.7 98.4,2240.8 102.4,2221.3 C105.6,2205.4 107.2,2185.3 109.9,2126.1 C111.3,2095.3 112.9,2061.6 113.4,2051.1 C113.9,2040.7 114.4,1981 114.4,1918.4 L114.4,1804.8 C114.4,1804.8 119.4,1053.1 119.4,1003.5 C119.4,974 116.6,815.7 112.8,628.7 C105.1,248.7 105,226.1 111,157.6 C116.4,95.6 127.6,48.6 142.9,24.1 C148.5,15.1 157.7,6.3 165.1,2.9 C173.3,-0.9 183.6,-0.9 191.6,2.8 C197.9,5.7 205.7,12.5 210.9,19.6 C243.7,64.3 266.5,188.3 274.5,365.1 C275.3,383.8 275.3,430.9 274.3,553 C273.3,684.8 273.3,749.7 274.3,893 C275,990.4 275.7,1070.3 275.9,1070.5 C276.2,1070.7 283.9,1823.8 283.6,1824.1 C282.9,1824.7 294.9,2054.1 297.5,2090.6 C301,2139.7 303.4,2156.1 313,2198.1 C325.6,2253.6 327,2262.9 324,2274.6 C316.6,2303.2 283.9,2336.8 230.4,2370.6 C215.2,2380.2 177.7,2400.9 158.9,2410.1 C128.2,2425 108.3,2429.7 81.9,2428 C78.6,2427.8 71.2,2426.9 65.5,2426 Z" id="Shape" sketch:type="MSShapeGroup"></path>
        </g>
    </g>
</svg>