<?xml version="1.0" encoding="UTF-8" standalone="no"?>
<svg width="2395px" height="2146px" viewBox="0 0 2395 2146" version="1.1" xmlns="http://www.w3.org/2000/svg" xmlns:xlink="http://www.w3.org/1999/xlink" xmlns:sketch="http://www.bohemiancoding.com/sketch/ns">
    <!-- Generator: Sketch 3.0.4 (8054) - http://www.bohemiancoding.com/sketch -->
    <title>Slice 2</title>
    <desc>Created with Sketch.</desc>
    <defs></defs>
    <g id="Page-1" stroke="none" stroke-width="1" fill="none" fill-rule="evenodd" sketch:type="MSPage">
        <g id="Group" sketch:type="MSLayerGroup" transform="translate(1197.200000, 1072.850000) scale(1, -1) translate(-1197.200000, -1072.850000) " fill="#000000">
            <path d="M1057.5,2144.6 C1040.6,2142.2 1020.5,2133.9 1009.4,2124.8 C1001.8,2118.7 995.5,2109.5 993.9,2102.4 C992.9,2097.7 993,2096.6 994.6,2093.1 C997.1,2087.9 1009.3,2075.8 1027.5,2060.8 C1056.9,2036.4 1059.5,2034.1 1067.9,2024.4 C1084.1,2006.1 1089.4,1993.7 1093.4,1965.7 C1098.5,1930.2 1099.7,1885.3 1101.8,1656.2 L1102.5,1581.2 L1100.2,1575.2 C1098.9,1571.9 1097.5,1568.8 1097.1,1568.4 C1096.3,1567.6 1073.9,1564.5 991,1553.7 C961,1549.8 929.5,1545.5 921,1544.2 C908.3,1542.2 879.3,1540.2 760.5,1533.1 C576.6,1522.1 554.9,1521.8 504,1529.3 C459.1,1535.9 414.3,1548.9 377.6,1566.1 C372.5,1568.5 361.9,1574.8 354.1,1580.1 C334.7,1593.5 328.3,1596.7 321.4,1596.7 C309.1,1596.7 301.6,1588.9 292.9,1567.1 L289.9,1559.3 L292,1553.3 C299.1,1533.6 311.3,1504.3 318.2,1490.5 C322.6,1481.7 331.1,1467.2 337.3,1458 C346.7,1443.9 350.4,1439.3 362.4,1427.3 C410,1379.5 459.2,1345.9 493.6,1337.6 C502,1335.6 503.8,1335.5 525,1336.3 C537.4,1336.8 551.8,1337.2 557,1337.2 L566.5,1337.2 L574,1332.2 C583.1,1326.2 608.4,1301.2 619.6,1287.2 C645.5,1254.8 662.8,1224.1 669,1199.8 C670,1195.6 678.8,1142.3 688.4,1081.2 C705.9,970.5 706,969.7 735,742.9 C752.8,603.5 770.8,457.8 781.4,366.4 C790.9,284.3 798.7,217.1 798.6,217 C797.7,215.9 740.1,209.2 693.5,204.8 C567.7,192.9 430.3,183.9 362.9,183 C307.6,182.3 270.9,184.5 233.5,190.8 C189.4,198.2 162.2,206.9 110.4,230 C80,243.5 57.3,252.6 47,255.2 C26.4,260.6 8.3,249.2 1.6,226.8 C-0.4,219.8 -0.5,202.9 1.5,191.6 C7.9,154.8 34.6,113.6 68.3,88.4 C77.9,81.2 133,45.7 155.5,32.2 C207.1,1.1 234.8,-5.3 277.5,3.7 C285.8,5.4 321.8,14.2 357.5,23.2 L422.5,39.5 L494.5,49.6 C534.1,55.2 622.8,66.7 691.5,75.1 L816.5,90.6 L937.5,98.6 C1051.5,106.2 1072.7,107.3 1304,117.7 L1549.5,128.6 L1685,126.7 C1819.7,124.9 1821.1,124.9 1928.5,119.8 L2036.5,114.6 L2169.5,101.5 C2314.8,87.2 2321.9,86.7 2336.5,90.6 C2364.2,98 2384,116.5 2392.1,142.7 C2394.1,149 2394.5,152.3 2394.4,163.2 C2394.4,174.6 2394,177.1 2391.8,183.5 C2379.4,218.2 2337.7,249.3 2269,275 C2238.4,286.5 2196.7,297.8 2171.9,301.4 C2161.6,302.9 2159.3,302.9 2142.1,301.3 C2131.9,300.4 2106.2,297.4 2085,294.7 L2046.5,289.7 L1790.5,275.3 C1649.7,267.3 1531.7,260.6 1528.3,260.3 L1522,259.8 L1522,263.7 C1522,266 1561.8,402.5 1618.1,593.4 C1670.9,772.6 1734.2,987.8 1758.6,1071.7 C1783,1155.6 1803.7,1226.2 1804.7,1228.7 C1805.6,1231.2 1811.2,1243.3 1817.1,1255.7 C1837.3,1298 1841.5,1316.7 1836,1339.7 C1826.8,1378 1784,1424.6 1715.7,1470.8 L1699.9,1481.5 L1707.2,1482.1 C1717.9,1482.9 1795.7,1485.7 1808,1485.7 C1813.8,1485.7 1844.4,1483.7 1876,1481.2 C2018.2,1470.2 2024.4,1470 2044.5,1475.1 C2088.4,1486.2 2115.3,1513.5 2117.7,1549.1 C2119.4,1575.9 2106,1599.8 2078,1619.8 C2036.2,1649.7 1962.4,1669.1 1904.1,1665.6 C1877.8,1664 1870,1662.7 1757,1639.8 C1686.5,1625.5 1661.2,1621.5 1613,1616.7 C1596.2,1615 1511.5,1606.4 1424.7,1597.5 L1266.9,1581.3 L1264,1584.3 L1261.2,1587.2 L1269,1699.7 C1273.3,1761.6 1277.8,1826.2 1279,1843.2 C1280.1,1860.3 1281.8,1879.2 1282.6,1885.2 C1283.4,1891.3 1284.7,1901.6 1285.6,1908.2 C1286.4,1914.7 1289.4,1933.6 1292.1,1950.2 C1298,1985.4 1299.2,2000.2 1296.5,2009.2 C1288.6,2036.6 1255.9,2068.9 1205.4,2099.3 C1169.4,2120.9 1128.3,2138.1 1099.3,2143.7 C1088.2,2145.8 1069,2146.3 1057.5,2144.6 L1057.5,2144.6 Z M1541.6,1472.2 C1542.7,1471.9 1545.6,1469.8 1547.9,1467.5 C1551.2,1464.2 1554.9,1457.7 1564,1439.2 C1591.1,1383.8 1598.9,1363.2 1602,1338.3 C1603.8,1324.5 1602.8,1301.6 1600,1291.7 C1598.9,1287.6 1594.6,1261.3 1590.5,1233.2 C1586.4,1205.2 1581.9,1174.3 1580.5,1164.7 C1576.6,1138.7 1520.8,880 1481.4,705.2 C1452.6,577.5 1440.7,527.1 1409.4,400.8 C1388.9,317.5 1371.9,249.3 1371.7,249.1 C1371.6,249 1281.3,244.1 1171,238.2 C991.8,228.8 959.3,226.8 951.3,225.1 C949.3,224.7 948.8,225.5 946.5,232.8 C940.8,251 937.9,269 933,317.7 C931.4,334.5 927.5,371.2 924.5,399.2 C921.5,427.3 908.4,560.9 895.5,696.2 L871.9,942.2 L861,1098.7 C853.9,1199.9 849.4,1257.9 848.4,1262.7 C843.9,1283.4 830.8,1302.4 808.6,1320.4 C791.8,1333.9 759.1,1354.2 717.7,1376.8 C708.7,1381.7 706.4,1383.4 707.7,1383.9 C716.8,1387.7 780.4,1401.1 808,1405.1 C835.5,1409.1 1152,1439.8 1293.5,1452.2 C1378.8,1459.6 1467.4,1467.5 1490.5,1469.6 C1528.8,1473.1 1535.1,1473.5 1541.6,1472.2 L1541.6,1472.2 Z" id="Shape" sketch:type="MSShapeGroup"></path>
        </g>
    </g>
</svg>