<?xml version="1.0" encoding="UTF-8" standalone="no"?>
<svg width="991px" height="1829px" viewBox="0 0 991 1829" version="1.1" xmlns="http://www.w3.org/2000/svg" xmlns:xlink="http://www.w3.org/1999/xlink" xmlns:sketch="http://www.bohemiancoding.com/sketch/ns">
    <!-- Generator: Sketch 3.0.4 (8054) - http://www.bohemiancoding.com/sketch -->
    <title>Slice 2</title>
    <desc>Created with Sketch.</desc>
    <defs></defs>
    <g id="Page-1" stroke="none" stroke-width="1" fill="none" fill-rule="evenodd" sketch:type="MSPage">
        <g id="Group" sketch:type="MSLayerGroup" transform="translate(495.400000, 914.100000) scale(1, -1) translate(-495.400000, -914.100000) translate(0.400000, 0.100000)" fill="#000000">
            <path d="M435.1,1826.2 C409.3,1819.1 388.7,1803.4 379.3,1783.4 C376.5,1777.3 376.1,1775.6 376.1,1767.6 C376.1,1760.3 376.5,1757.8 378.3,1754.1 C382.1,1746.4 390.6,1737.2 405.2,1724.7 C431.7,1702 444.7,1687 453.9,1668.6 C455.8,1664.8 457.8,1660 458.4,1658.1 C462.9,1644 470.8,1525.2 475.7,1398.1 C477.6,1347.4 476.3,1334.1 468.2,1322.6 C459.1,1309.9 445.5,1303.9 407.4,1295.6 C375,1288.6 298.9,1275.3 266.7,1271 C230.5,1266.1 198.6,1271 160.6,1287.3 C145.3,1293.8 132.6,1301 112,1314.7 C83.9,1333.4 68.3,1339.7 55.7,1337.4 C47.4,1335.8 42.9,1333.5 37,1327.6 C27.2,1317.9 22.7,1304.6 21.9,1283.4 C21.2,1266.4 23.1,1253.4 28.2,1239.2 C34.8,1220.5 44.9,1206.7 69.5,1182.1 C112.9,1138.9 150,1116 187,1109.6 C198.9,1107.6 224.7,1107.6 235.7,1109.7 C243.8,1111.1 271,1119.7 301.6,1130.4 C309.6,1133.2 331.9,1141.7 351.1,1149.4 L386.1,1163.3 L427.6,1173.2 C664.2,1229.9 706.3,1238.4 824.6,1253.1 C870.1,1258.8 892.7,1262.1 909.8,1265.7 C964.9,1277.3 989.6,1297.7 989.6,1331.6 C989.6,1352.9 976.6,1375.3 956.6,1388.6 C935.8,1402.4 906.9,1411 871.1,1414.1 C849.1,1415.9 838.2,1415.5 825.2,1412.1 C812.6,1408.9 790.6,1401 770.1,1392.3 C739.6,1379.5 711.2,1370 679.8,1362.2 C656.5,1356.4 622.5,1348.8 622,1349.4 C620.8,1350.6 620.4,1422.9 621.5,1448.1 C623.8,1501.9 625.4,1517 634.6,1569.1 C649.5,1654.1 650.6,1665 645.5,1683.1 C633.6,1726.2 581.6,1775.6 513.4,1808.5 C486.5,1821.6 469.3,1827 452.6,1827.7 C444.3,1828 440.6,1827.7 435.1,1826.2 L435.1,1826.2 Z" id="Shape" sketch:type="MSShapeGroup"></path>
            <path d="M691.1,1153.1 C664.1,1149.5 642.2,1137.5 636.1,1122.8 C635.3,1120.8 634.6,1116.8 634.6,1113.8 C634.6,1107.2 637.2,1102.9 647.7,1091.6 C657.2,1081.4 661.4,1075.5 666.4,1065.6 C675.2,1047.9 678.5,1032 679.3,1003.1 C679.9,980.7 679,965.2 675,931.1 C671.6,901.6 661.3,825.7 657.7,802.6 C656,792.2 650.4,753.2 645.2,716.1 C635.1,644.6 606.1,442.8 605.1,437.4 C604.6,434.4 601.9,432.6 558.8,406.8 C492.9,367.3 454.6,344.8 454.1,345.3 C453.4,346 451.3,370.8 442.1,485.6 C420.3,759 411.8,848.5 405.5,872.7 C396.3,908 361.2,948.9 317.6,975.1 C288.1,992.9 251,1004.8 219.7,1006.6 C214.4,1006.9 209,1007.4 207.5,1007.6 C205.1,1008 204.8,1007.5 199.6,991.5 C195.3,978.5 194.4,974.7 195.3,973.3 C214,944.5 224,925.7 229.9,908.6 C234.8,894.3 240.3,872.2 250,827.1 C269.6,736.3 274.2,708.8 288.6,597.1 C297.4,529.3 327.5,290.7 327.3,290.5 C324.4,288.6 288.8,270.2 272.8,262.2 C215.3,233.8 169,217.1 147.9,217.1 C142.7,217.1 141,217.7 133.1,222.2 C128.1,225 112.7,234.9 98.7,244.3 C64.7,266.9 54,272 40.5,272.1 C21.2,272.2 4.5,246.5 0.6,210.7 C-1.5,191.9 2.1,173.6 12.7,150 C33.5,103.7 78.7,50.2 121,22 C134.8,12.7 142.7,8.6 155.1,4.1 C162.8,1.3 165.8,0.8 176.1,0.3 C199.7,-0.6 204,1.5 261.3,41.8 C324.6,86.4 343.2,98.5 445.6,161.3 C547,223.5 551.1,226.2 648.6,292 C703.3,328.9 753,363 758.9,367.7 C791.4,393.5 830.5,428.9 867.6,466 C905.2,503.7 921,521.7 935.9,544.1 C949.9,565.2 955.1,581.1 951.2,590.6 C948.8,596.3 945.9,597.5 935.8,596.9 C921.2,596 903.9,589.5 876.6,574.6 C831.7,550.1 747.1,507.3 745.9,508.5 C745.7,508.7 757.5,560.1 772,622.7 C801.6,749.8 844.5,921.1 853.1,946.6 C859.8,966.2 866.7,991 870.2,1007.9 C873.5,1023.8 873.2,1034.3 869.1,1047.1 C854.5,1092.5 806.2,1134.8 753,1148.6 C734.3,1153.5 708.4,1155.3 691.1,1153.1 L691.1,1153.1 Z" id="Shape" sketch:type="MSShapeGroup"></path>
        </g>
    </g>
</svg>