<?xml version="1.0" encoding="UTF-8" standalone="no"?>
<svg width="2364px" height="2410px" viewBox="0 0 2364 2410" version="1.1" xmlns="http://www.w3.org/2000/svg" xmlns:xlink="http://www.w3.org/1999/xlink" xmlns:sketch="http://www.bohemiancoding.com/sketch/ns">
    <!-- Generator: Sketch 3.0.4 (8054) - http://www.bohemiancoding.com/sketch -->
    <title>Slice 2</title>
    <desc>Created with Sketch.</desc>
    <defs></defs>
    <g id="Page-1" stroke="none" stroke-width="1" fill="none" fill-rule="evenodd" sketch:type="MSPage">
        <g id="Group" sketch:type="MSLayerGroup" transform="translate(1181.900000, 1204.650000) scale(1, -1) translate(-1181.900000, -1204.650000) translate(0.400000, 0.200000)" fill="#000000">
            <path d="M1287,2408.1 C1267.3,2405.2 1251,2393.3 1249.8,2380.9 C1249.4,2376.4 1250.1,2374.6 1261.4,2351.4 C1268.1,2337.7 1274.5,2323.2 1275.6,2319.1 C1278.6,2308.5 1279.3,2292.5 1277.2,2284.1 C1271.2,2260.4 1251.2,2240.1 1211.1,2217 C1188.8,2204.2 1131.7,2177.1 1090.9,2160 C986.4,2116.2 876.5,2077.7 761.6,2044.6 C698.3,2026.4 666.1,2018 566.6,1993.7 C455.2,1966.5 429.6,1960.1 426,1958.6 C421.8,1956.9 420.2,1953.2 421,1947.2 C424.9,1918.4 481.7,1906.7 602,1910 C693.8,1912.6 749.9,1920 860.4,1944.2 C870.2,1946.4 870.9,1946.4 873.4,1944.8 C874.9,1943.8 882.9,1939 891.1,1934 C903.1,1926.8 910.5,1921.3 928.6,1906 C941,1895.5 967.3,1873.4 987.1,1856.9 C1025.2,1825.2 1027.9,1822.4 1044.1,1800.1 C1064,1772.5 1081.8,1742.1 1092.9,1717.1 C1098.3,1704.7 1104.6,1686.7 1104.6,1683.3 C1104.6,1681.8 1089.4,1678.5 990.9,1658.4 C867.5,1633.2 638.5,1588 619.1,1585.1 C582.1,1579.4 531.5,1579.6 501.9,1585.7 C474.1,1591.3 452.1,1600.4 387.5,1632.7 L348.6,1652.1 L341.6,1652.1 C322.1,1652.1 311.6,1639.5 311.6,1616.1 C311.6,1596.6 329.1,1566.1 363.3,1526 C378,1508.8 449.5,1437.7 459.4,1430.6 C477.8,1417.2 491.9,1410.2 509.1,1405.9 C526,1401.6 550.2,1404.7 610.6,1419.1 C639.5,1425.9 651.5,1429.2 772.1,1463.6 C857.8,1488 895.1,1498 984.1,1520.6 C1061.1,1540.1 1098.1,1549 1112.9,1551.7 C1124.8,1553.8 1134.1,1555 1134.6,1554.5 C1136.3,1552.7 1145.9,1496.1 1153,1445.6 C1165.3,1358.2 1172.7,1281.8 1174.3,1225.9 C1174.6,1212.8 1174.7,1202.1 1174.4,1202.1 C1174.1,1202.1 1161.3,1199.2 1146,1195.7 C1084.5,1181.5 969.9,1157.3 762.6,1114.6 C715.6,1104.9 645,1090.1 605.7,1081.5 C462.6,1050.4 414.7,1040.8 374.1,1034.9 C356.3,1032.3 304.5,1031.3 281.4,1033 C224.2,1037.4 179.7,1049.3 102.1,1081.1 C42.4,1105.5 27.7,1109.4 16.1,1104 C7.4,1099.9 2.3,1091.6 0.5,1078.4 C-2.8,1055.2 10.2,1027.8 40.3,994.5 C53.8,979.6 66,968.9 135.1,912 C194.5,863.1 196.4,861.6 207.1,856.6 C234.7,843.6 253.8,837.1 264.6,837.1 C278.9,837.1 326.8,850.9 480.1,899.1 C513.1,909.5 543.9,919.1 548.6,920.5 C595.3,934.6 1174.7,1072.3 1177.1,1070 C1177.9,1069.2 1180.5,1022.5 1181.7,987.1 C1183,950.9 1182.4,870.9 1180.6,836.6 C1167.5,581.5 1135.5,389.2 1095.9,327.2 C1087.8,314.6 1075.9,305.1 1068.1,305.1 C1066.1,305.1 1026.8,317.7 979.3,333.5 C932.5,349 845.8,377.7 786.9,397.1 L679.6,432.5 L672,430.1 C667.8,428.8 664.2,427.2 664,426.6 C663.2,424.7 673.8,396.3 676.8,391.9 C677.9,390.4 687.8,382.8 698.9,375 C734.2,350.1 741.3,345 835.6,275.3 C935.6,201.4 936.3,200.8 957.6,175.6 C974,156.1 998.1,123.8 1001.6,116.5 C1003.2,113.2 1011.3,93.9 1019.6,73.5 C1027.9,53.2 1037.4,30 1040.7,22 L1046.7,7.4 L1062.4,4.7 C1086.9,0.6 1092.1,0 1107.6,0 C1129.6,0 1143.4,3.2 1161.7,12.7 C1185.2,24.8 1207.2,46.7 1226,76.6 C1238.4,96.3 1254.4,131 1264.5,160.3 C1288.3,229.6 1313.9,365.1 1330,507.6 C1342.6,619.2 1349.6,721.8 1352.7,842.4 C1353.8,885.3 1353.3,1066.9 1352,1088.2 L1351.4,1097.7 L1372.8,1101 C1487.3,1118.3 1674.1,1133.1 1900.1,1142.7 C1926.1,1143.8 1984.5,1144.4 2111.1,1145.1 C2229.5,1145.7 2288.7,1146.4 2294,1147.1 C2303.2,1148.4 2316.1,1152 2323.9,1155.5 C2342.7,1163.8 2356.5,1180.2 2361.2,1199.6 C2363.6,1209.4 2363.6,1227.9 2361.4,1235.1 C2352.8,1262.5 2317.8,1286.6 2260.1,1305 C2204.8,1322.7 2110.6,1337.7 2072.4,1335 C2055.4,1333.8 2033,1328 1980.1,1311.1 C1949.6,1301.4 1924.8,1298.2 1776.1,1284.6 C1711.4,1278.7 1695.4,1276.7 1566.1,1258.6 C1437.1,1240.6 1394.6,1234.9 1348.5,1229.6 L1343.9,1229.1 L1343.2,1234.8 C1342.4,1241.8 1326.4,1405 1316.5,1506.4 C1312.6,1546.9 1309.6,1580.7 1309.9,1581.4 C1310.2,1582.2 1319.3,1584.6 1332.7,1587.4 C1411.5,1604.2 1424,1606.7 1442.6,1609.5 C1448.4,1610.4 1522.6,1616.1 1607.6,1622.2 C1800.3,1636 1783.1,1635 1816.1,1635.1 C1865.8,1635.3 1895,1636.6 1904,1639 C1921.6,1643.7 1935.2,1653.3 1941.4,1665.7 C1946.8,1676.4 1948.1,1682.2 1948,1696.6 C1948,1707.9 1947.6,1710.6 1945.4,1717.4 C1935,1748.5 1900.9,1775.5 1850.1,1792.8 C1819.3,1803.3 1790.2,1807.8 1764.1,1806.1 C1743.1,1804.7 1724,1799.6 1696.7,1788.1 C1680.5,1781.3 1659.8,1774 1641.1,1768.6 C1627.2,1764.6 1612.7,1762.2 1455.6,1738.2 C1361.8,1723.8 1283.9,1711.8 1282.5,1711.5 C1279.9,1711 1279.8,1711.3 1274.7,1726.2 C1249.5,1800.3 1220.3,1847.8 1178.7,1882.5 C1165.6,1893.4 1149.2,1902.3 1046.3,1954.6 C1017.3,1969.3 993.7,1981.6 993.9,1981.7 C994.1,1981.9 1016.4,1988.6 1043.5,1996.6 C1161.6,2031.4 1203.8,2045.4 1305.6,2083.8 C1372.6,2109.1 1369.7,2108.1 1436.6,2128.6 C1485.4,2143.6 1496.7,2146.7 1511.1,2149.2 C1578,2160.7 1597.1,2174.8 1599.3,2214.1 C1600.6,2238.6 1595,2253.5 1578.1,2270.7 C1564.5,2284.4 1547.8,2296.4 1509.5,2319.9 C1429.8,2368.8 1350,2403.2 1305.4,2408.1 C1294.8,2409.2 1294.5,2409.2 1287,2408.1 L1287,2408.1 Z" id="Shape" sketch:type="MSShapeGroup"></path>
        </g>
    </g>
</svg>