<?xml version="1.0" encoding="UTF-8" standalone="no"?>
<svg width="927px" height="2330px" viewBox="0 0 927 2330" version="1.1" xmlns="http://www.w3.org/2000/svg" xmlns:xlink="http://www.w3.org/1999/xlink" xmlns:sketch="http://www.bohemiancoding.com/sketch/ns">
    <!-- Generator: Sketch 3.0.4 (8054) - http://www.bohemiancoding.com/sketch -->
    <title>Slice 2</title>
    <desc>Created with Sketch.</desc>
    <defs></defs>
    <g id="Page-1" stroke="none" stroke-width="1" fill="none" fill-rule="evenodd" sketch:type="MSPage">
        <g id="Group" sketch:type="MSLayerGroup" transform="translate(463.100000, 1165.400000) scale(1, -1) translate(-463.100000, -1165.400000) translate(0.100000, 0.900000)" fill="#000000">
            <path d="M462.6,2327.9 C446.7,2325.2 434.5,2318.7 418.7,2304.4 C412.7,2299.1 407.9,2294.6 407.9,2294.3 C407.9,2290.1 412.9,2272.6 415.9,2266.4 C420.8,2256.2 427.6,2248.2 448,2228.9 C456.9,2220.4 466.8,2209.9 470,2205.7 C494.2,2173 509.8,2121.8 511.5,2068.9 C511.9,2059.3 510.9,1982.3 509.5,1897.9 C507.5,1777 506.6,1740.6 505.2,1726.3 L503.5,1708.2 L483,1701.5 C463.6,1695.3 336.7,1661.9 319.4,1658.5 C286,1652 215.2,1641.9 202.5,1641.9 C184.4,1641.9 162.1,1646.4 148,1653 C144.5,1654.6 135,1660.6 127,1666.3 C108.5,1679.5 95.6,1687.6 91.3,1688.8 C85.1,1690.5 76.7,1687.4 65.2,1679.3 C49.2,1667.9 39.9,1649.6 39.9,1629.4 C39.9,1604.9 47,1593.8 95.4,1542.9 L109.1,1528.4 L131.8,1516.9 C144.2,1510.5 161.2,1501.5 169.4,1496.8 C188.1,1486.1 199,1481.8 208.4,1481.2 C215.2,1480.8 217.3,1481.3 290.3,1503.9 C366.9,1527.5 413.3,1541.4 436.4,1547.4 C450,1551 503.1,1563.1 503.4,1562.6 C503.5,1562.5 504.1,1558.4 504.8,1553.4 C505.8,1546.3 505.8,1503.5 504.8,1350.4 L503.5,1156.5 L498.1,1149.9 C481.4,1129.9 458.1,1109.8 411.4,1074.9 C358.4,1035.3 203.7,922.4 188.8,912.4 C152.9,888.2 133.7,879.9 114,879.9 C103.2,880 97.8,882 84.8,891.1 C65.8,904.4 52.4,909.4 38.4,908.7 C23.6,907.9 13,900.8 6,886.9 C1.1,877.1 -0.5,867.8 0.2,854.4 C0.9,841.1 3.7,833.8 14.4,817.9 C22.6,805.5 66.5,748.7 96.9,710.9 C136.2,662.2 142.9,657.2 168.8,658.1 C179.3,658.4 181,658.7 186.9,661.5 C200.4,667.9 208.7,676.8 253.4,732.9 C298.4,789.4 307.1,799.1 345.4,834.4 C358.1,846 398.3,883.4 434.9,917.4 L501.4,979.2 L502,882.3 C503.4,661.7 503.2,629.2 499.4,491.9 L495.9,365.4 L491.9,339.4 C484.7,292.9 483.1,285.2 479.3,277.9 C471,262.1 456.5,252.6 433.8,247.8 C424.2,245.9 421.3,245.7 397.4,246.2 C383.1,246.5 343.1,248.6 308.4,250.8 C273.8,253 237.7,255.1 228.3,255.5 C211.6,256.2 211.1,256.1 210,254.1 C204.3,243.4 218.7,230.2 276.7,193.3 C329.9,159.4 346.8,148.4 356.3,141.5 C364.4,135.6 373.6,126.8 399.3,100.2 C470.3,26.8 493.6,7.3 517.1,1.5 C526.3,-0.8 547.9,-0.8 557.9,1.4 C567.4,3.5 581.5,10.2 589.6,16.3 C626.6,44.3 651,112.5 657.9,206.9 C659.6,230 659.5,247.3 655.3,528.8 L651.5,788.2 L654.1,945.4 L656.8,1102.5 L660.7,1113.1 L664.7,1123.7 L738.1,1210 C778.4,1257.5 814,1299.6 817,1303.4 C833.9,1324.5 853.3,1357.7 866.1,1386.9 C871.8,1400 881.2,1425 880.6,1425.5 C880,1426.1 864.6,1419.4 857.9,1415.7 C848.8,1410.6 835.3,1401.3 817.9,1388 C788.8,1365.9 718.3,1310.9 688.4,1287.1 L659.4,1263.9 L658.2,1271.2 C656.5,1280.9 658.6,1616.8 660.3,1618.5 C662.2,1620.5 696.7,1628.3 788,1647.3 C836.7,1657.5 879.1,1666.8 882.2,1667.9 C895.7,1673 910.4,1687.1 917.8,1702.2 C922.9,1712.7 924.8,1720.1 925.6,1731.9 C926.5,1747.3 922.9,1756.8 911.6,1768.6 C894.5,1786.5 862.1,1801.4 823.5,1809.1 C814.9,1810.9 808.9,1811.4 796.4,1811.4 C776.8,1811.4 773.9,1810.6 749.9,1798.1 C727.1,1786.3 721,1783.3 708.7,1778.3 C696,1773.1 662.8,1761.7 662.1,1762.3 C661.6,1762.9 663.4,1822.5 665.4,1867.9 C668.3,1934.1 670,1959.1 672.5,1975.3 C678.7,2015.5 689.7,2100.1 694.1,2140.9 C697.1,2169 697.1,2196.1 694.1,2207.2 C690,2222 682.2,2232.9 669.2,2241.7 C666,2243.8 653.1,2250.9 640.4,2257.4 C613.7,2271.1 597.1,2280.1 591.4,2283.9 C585.2,2288.2 524.3,2318.4 514.2,2322.3 C509.2,2324.3 501.2,2326.5 496.4,2327.4 C487.2,2329 470.7,2329.2 462.6,2327.9 L462.6,2327.9 Z" id="Shape" sketch:type="MSShapeGroup"></path>
        </g>
    </g>
</svg>