<?xml version="1.0" encoding="UTF-8" standalone="no"?>
<svg width="591px" height="485px" viewBox="0 0 591 485" version="1.1" xmlns="http://www.w3.org/2000/svg" xmlns:xlink="http://www.w3.org/1999/xlink" xmlns:sketch="http://www.bohemiancoding.com/sketch/ns">
    <!-- Generator: Sketch 3.0.4 (8054) - http://www.bohemiancoding.com/sketch -->
    <title>Slice 2</title>
    <desc>Created with Sketch.</desc>
    <defs></defs>
    <g id="Page-1" stroke="none" stroke-width="1" fill="none" fill-rule="evenodd" sketch:type="MSPage">
        <g id="Group" sketch:type="MSLayerGroup" transform="translate(295.100000, 242.100000) scale(1, -1) translate(-295.100000, -242.100000) translate(0.100000, 0.100000)" fill="#000000">
            <path d="M0.3,481.9 C0.7,480.6 1.6,474.4 2.3,468.1 C4.4,449.4 8.2,442.2 31.1,412.8 C43.5,396.9 49.1,390.6 76.3,361.7 C86.6,350.6 97.9,338.5 101.4,334.6 C106.9,328.4 209,205.7 237,171.6 C255.3,149.2 268.7,137.5 296.4,119.5 C301.4,116.3 315.5,105.5 327.9,95.6 C401.7,36.1 443,11.8 487.1,1.9 C495.9,-0.1 500.1,-0.4 516.4,-0.4 C534.3,-0.3 535.9,-0.2 543.5,2.4 C562,8.6 575.4,21.7 582.8,41 C587.2,52.5 588.9,62 589.6,78.6 C591.4,126.8 573,163 530.4,195.1 C521.2,202 470.5,234.1 431.6,257.7 C417.5,266.3 382,284.5 291.1,330 C158.7,396.3 161,395 70.4,450.7 C56.1,459.5 41.7,467.9 38.4,469.3 C25.1,475.2 2.5,484.1 1.1,484.1 C0.1,484.1 -0.1,483.5 0.3,481.9 L0.3,481.9 Z" id="Shape" sketch:type="MSShapeGroup"></path>
        </g>
    </g>
</svg>