<?xml version="1.0" encoding="UTF-8" standalone="no"?>
<svg width="2159px" height="2295px" viewBox="0 0 2159 2295" version="1.1" xmlns="http://www.w3.org/2000/svg" xmlns:xlink="http://www.w3.org/1999/xlink" xmlns:sketch="http://www.bohemiancoding.com/sketch/ns">
    <!-- Generator: Sketch 3.0.4 (8054) - http://www.bohemiancoding.com/sketch -->
    <title>Slice 2</title>
    <desc>Created with Sketch.</desc>
    <defs></defs>
    <g id="Page-1" stroke="none" stroke-width="1" fill="none" fill-rule="evenodd" sketch:type="MSPage">
        <g id="Group" sketch:type="MSLayerGroup" transform="translate(1079.450000, 1147.500000) scale(1, -1) translate(-1079.450000, -1147.500000) translate(0.400000, 0.000000)" fill="#000000">
            <path d="M1932.1,2294 C1927.2,2293.6 1919.1,2292.2 1914.1,2291.1 C1904.6,2288.8 1755.3,2261 1688.6,2249 C1651.6,2242.4 1633.1,2240 1398.1,2211 L1147.1,2180.1 L1022.6,2169.5 C900.2,2159.1 896.1,2158.8 774.6,2152.5 C706.7,2148.9 647.2,2146 642.4,2146 C616.1,2146 531.3,2169.1 496.1,2185.9 C490.6,2188.5 475.3,2196.7 462.1,2204 C402.7,2237 376.1,2248.6 364.7,2246.5 C349.9,2243.7 336.6,2229.4 332,2211 C329.6,2201.4 330.5,2183.5 334.1,2171.5 C338.8,2155.5 349.4,2136.8 364.3,2118 C372.4,2107.7 396.7,2083.2 409.1,2072.8 C461.3,2029 530.5,1991.5 576.7,1982 C592,1978.8 607.3,1979.6 651.1,1986 C670.4,1988.8 686.8,1991.3 687.6,1991.5 C688.4,1991.8 769.4,2002.3 867.6,2015 L1046.1,2038.1 L1263.6,2060.5 C1458.3,2080.6 1499.4,2084.6 1655.1,2098 L1829.1,2112.9 L1968.6,2114.3 C2105.9,2115.7 2108.2,2115.8 2114.7,2117.9 C2132.8,2123.7 2148.7,2140.4 2155.3,2160.7 C2158.6,2170.7 2159,2187.1 2156.2,2196.5 C2145.2,2233 2101.4,2261.3 2026,2280.6 C2000,2287.2 1952.3,2295.4 1943.3,2294.9 C1942.1,2294.8 1937.1,2294.4 1932.1,2294 L1932.1,2294 Z" id="Shape" sketch:type="MSShapeGroup"></path>
            <path d="M1864.3,1851.5 C1847.9,1848.4 1832.6,1844.2 1773.4,1826.9 C1729.8,1814.1 1713.4,1810 1671.7,1801.5 C1611.2,1789.3 1626.6,1791.1 1332.1,1761 L1058.1,1732.9 L894.5,1711.5 C804.5,1699.7 727.8,1690 724,1690 C720.2,1690 711.3,1689.5 704.1,1688.9 L691.1,1687.8 L680,1695.2 C650.2,1715.2 606.7,1731.8 559.1,1741.5 C519.3,1749.6 490.8,1750.8 470.1,1745.5 C455,1741.6 441.5,1732.3 437,1722.5 C433.5,1715.2 433.6,1704.3 437.2,1697.2 C440.6,1690.3 454,1676.4 483.1,1649.5 C512.2,1622.5 518,1616.6 524.2,1607 C544.8,1575.1 549.4,1532.3 548.3,1381.5 C547.8,1311.2 547.3,1294.7 544.6,1249.5 C532.7,1052.9 488.9,847.5 421.3,671 C365.3,524.5 293.8,393 207.6,277.5 C183.9,245.8 46.8,74.1 34.7,61.1 C28.9,54.8 20.7,46 16.6,41.5 C8.6,32.9 2.2,23 0.5,16.7 C-1,11.1 1.1,5.3 5.6,2.2 C8.9,-4.63275251e-13 9.8,-0.2 19.6,0.2 C32.6,0.8 45.9,5 64.6,14.4 C109.7,37 173.9,86.2 230,140.9 C252.1,162.4 365.9,282.3 375.9,294.5 C435,366.8 504.4,481.7 546.9,577.6 C563.7,615.4 565.1,619.4 607.8,744.5 C644.5,851.9 646.2,857.9 664.2,939.2 L672.1,974.8 L681.6,975.5 C721.5,978.1 774.3,983.3 798.6,987 C806,988.1 863,993.3 925.1,998.5 C987.3,1003.7 1159.8,1018.4 1308.6,1031 L1579.1,1054.1 L1758.6,1062.5 C1892.5,1068.8 1939.7,1071.3 1944.4,1072.5 C1967.9,1078.2 1981.4,1094.1 1984.7,1120 C1988.5,1149.4 1973.9,1184.6 1949.5,1204.9 L1943,1210.4 L1949.3,1226.4 C1955.3,1241.7 1957.8,1251.4 1998.1,1415.2 C2027.9,1536.5 2041.3,1589.5 2043.2,1593.2 C2044.7,1596.1 2050.6,1605.5 2056.5,1614 C2073.1,1638.3 2091.3,1666.8 2095.3,1674.8 C2098.5,1681.2 2099,1683.3 2099.4,1690.9 C2099.9,1701.6 2098.5,1708.6 2094,1718.1 C2089,1728.5 2082.7,1736.9 2070.6,1749.4 C2041.5,1779.4 1989.3,1812.9 1937.6,1834.7 C1901,1850.1 1881.2,1854.7 1864.3,1851.5 L1864.3,1851.5 Z M1822.4,1676 C1841.9,1673.5 1849.8,1667.4 1852.5,1652.5 C1854.7,1640.5 1853.7,1604.4 1850.1,1569.3 C1849.3,1561.5 1836.8,1489.6 1822.1,1407.8 C1807.5,1326.8 1795.1,1257.6 1794.6,1254 C1794.1,1250.4 1792.3,1239.8 1790.5,1230.3 L1787.2,1213.2 L1766.2,1209.1 C1754.6,1206.8 1737.2,1203.8 1727.6,1202.5 C1718,1201.1 1599.6,1190.3 1464.6,1178.5 C1266.2,1161.2 1194.1,1154.5 1089.1,1143.6 C970.7,1131.3 950,1129.4 857.1,1122.6 C801,1118.5 752.5,1114.6 749.3,1114 C743.6,1112.9 722.5,1110.8 704.5,1109.5 C695.9,1108.9 695.9,1108.9 696.2,1111.2 C696.5,1112.5 699.5,1138.3 703.1,1168.5 C707.3,1203.9 713.3,1265.5 720,1341 C733.5,1491.2 735.6,1519.9 735.6,1550.6 L735.6,1563.8 L740.4,1564.4 C743,1564.8 758.8,1567.3 775.6,1570.1 C802.7,1574.5 857.4,1580.4 1268.6,1623.5 C1523,1650.1 1738.3,1672.6 1747.1,1673.5 C1782.5,1676.9 1808,1677.8 1822.4,1676 L1822.4,1676 Z" id="Shape" sketch:type="MSShapeGroup"></path>
        </g>
    </g>
</svg>