<?xml version="1.0" encoding="UTF-8" standalone="no"?>
<svg width="2391px" height="2324px" viewBox="0 0 2391 2324" version="1.1" xmlns="http://www.w3.org/2000/svg" xmlns:xlink="http://www.w3.org/1999/xlink" xmlns:sketch="http://www.bohemiancoding.com/sketch/ns">
    <!-- Generator: Sketch 3.0.4 (8054) - http://www.bohemiancoding.com/sketch -->
    <title>Slice 2</title>
    <desc>Created with Sketch.</desc>
    <defs></defs>
    <g id="Page-1" stroke="none" stroke-width="1" fill="none" fill-rule="evenodd" sketch:type="MSPage">
        <g id="Group" sketch:type="MSLayerGroup" transform="translate(1195.200000, 1162.150000) scale(1, -1) translate(-1195.200000, -1162.150000) translate(0.000000, 0.400000)" fill="#000000">
            <path d="M1529,2323.2 C1521.9,2322.1 1506,2316 1468.5,2300.2 C1426.7,2282.5 1382.8,2270.3 1325.5,2260.4 C1317.3,2259 1157.5,2231 970.5,2198.2 L630.5,2138.5 L612,2138.6 C587.1,2138.6 552.4,2141.8 513.7,2147.4 L496.8,2149.9 L463.7,2163 C445.4,2170.3 423.8,2178.4 415.5,2181.2 C401.4,2186 399.9,2186.3 390,2186.3 C380.5,2186.4 379,2186.1 373.9,2183.6 C362.2,2177.9 352.8,2166.7 348.8,2153.4 C345.5,2142.9 345.8,2129 349.4,2118.4 C362.6,2079.4 416.5,2031.3 484.5,1997.9 C513.9,1983.4 533.3,1977 550,1976.2 L560.5,1975.7 L582.5,1983.4 C594.6,1987.6 609.5,1992.8 615.6,1994.9 C623.5,1997.6 667.3,2007.7 766.1,2029.4 C842.8,2046.2 906.3,2060.2 907.2,2060.5 C908.5,2060.9 911.3,2057.3 919,2045.7 C936.4,2019.6 949.9,1988.6 954.9,1963.4 C961.8,1928.8 967.7,1854.6 971.1,1757.9 C972.4,1720.9 970.5,1360.3 969,1349.1 C968.5,1345.7 967.2,1341.6 966.1,1340 C963.2,1335.9 955.6,1331.4 946.1,1327.9 C933.5,1323.3 702.5,1260.9 698.1,1260.9 C694.6,1260.9 694.2,1261.2 693.6,1264.1 C689.7,1283.8 693.5,1356.5 704.7,1471.9 C707.9,1505.4 708.1,1510.4 707.2,1518.5 C705.3,1533.5 699.7,1548.5 691.7,1559.7 C688.2,1564.5 665.8,1584.8 629.8,1615.7 C617.2,1626.4 607,1635.5 607,1635.9 C607,1636.8 641.6,1670.8 656,1683.9 C682.9,1708.5 706.9,1728.3 727,1742.5 C741.2,1752.5 746.9,1756.1 768.5,1767.9 C789.4,1779.3 798.4,1785.4 805.4,1793 C814.2,1802.5 818,1812.8 818,1827.2 C818,1837.2 815.9,1844.5 809.5,1857.4 C802.2,1872.3 793.5,1883.6 775.6,1901.5 C728.4,1948.6 665,1978.6 630.1,1970.4 C616,1967 602.4,1956.9 600,1947.8 C598.4,1941.9 598.9,1939.5 607.1,1913.8 C613.9,1892.6 614.3,1890.9 614.3,1881.9 C614.4,1873.6 614,1871.3 611.1,1863.8 C602.5,1840.6 582,1813.2 548.1,1779 C525.3,1756 510.3,1742.5 445.7,1686.7 C413.7,1659.1 380.5,1630.4 372,1622.9 C362.2,1614.4 313.2,1576.8 238.5,1520.6 C173.6,1471.7 120.4,1431 120.3,1430.1 C119.9,1427.6 125.1,1418.9 128.3,1416.5 C137.2,1410 181.2,1418.7 239,1438.4 C276.9,1451.4 288.2,1456.5 382,1503.4 C431.9,1528.4 474.4,1549.1 476.4,1549.4 C481.5,1550.4 485.2,1548.6 491.1,1542.1 C503.9,1528.1 517.9,1497.1 525,1466.5 C529.3,1448.6 530,1438.6 530,1395.4 C530,1308 526.5,1238.3 521.2,1222.7 C519.7,1217.9 519,1217.2 514,1214.7 C493.2,1204.3 390.1,1179.9 293.5,1162.4 C241.4,1153 229.5,1152.8 189,1160.9 C170.6,1164.6 159,1168.4 145.4,1175.2 C121.4,1187.2 68.9,1211.2 56.7,1215.8 C48,1219 44.6,1218.6 33.9,1213.2 C13.3,1202.9 0,1183 0,1162.3 C0,1148.7 6.5,1132.3 18.7,1114.9 C27.4,1102.6 56.5,1073.5 72.5,1061.1 C106.4,1034.8 143.3,1013.7 173.9,1003.1 L184.5,999.4 L203,999.4 C222.6,999.5 235,1001.1 256.6,1006.4 C263.6,1008.1 484.5,1073.4 507.3,1080.5 C508.8,1081 509,1080.3 509,1075.7 C509,1041.9 480.8,901.9 458,822.3 C423,700.2 347.5,544.6 258.9,412.3 C239,382.5 240,383.9 169.1,294.9 L106.6,216.5 L102.8,206.4 C100.7,200.9 99,195.9 99,195.2 C99,194 108.5,185.9 109.9,185.9 C111.9,185.9 134.5,193.5 141.9,196.6 C178.5,212.2 224.7,249.6 298,322.9 C346.6,371.4 387.2,415.8 410.6,445.9 C494.7,553.8 588.6,739.2 632.5,883.9 C646,928.7 649.1,943.2 666.5,1043.5 C674.3,1088.8 680.9,1126.2 681.2,1126.4 C681.5,1126.7 735.7,1142 801.6,1160.3 C867.5,1178.7 925.4,1195.1 930.1,1196.8 C938.5,1199.8 961.1,1205.9 963.9,1205.9 C965.5,1205.9 965.2,1176.1 963,1089.4 C958.7,928.1 940.9,127.1 941.4,117.8 C942.9,84.6 956.7,46.6 975,25.4 C984.9,13.8 999,4.8 1012.5,1.4 C1020.2,-0.5 1036.1,-0.5 1042.7,1.4 C1073.9,10.7 1092.5,58.8 1099.5,148.4 C1103.1,195 1102.5,168.8 1113.5,748.5 C1121.5,1171.5 1123.1,1241.1 1124.3,1243.6 C1125.7,1246.2 1127.3,1246.9 1140.2,1250.7 C1148.1,1253.1 1217.5,1269.8 1294.5,1287.9 C1414,1316.1 1435.6,1320.9 1442,1320.9 C1453.5,1320.8 1459.9,1317.2 1463.5,1308.5 C1465.7,1303.2 1465.6,1292.3 1462.5,1251.8 C1455.7,1160.4 1455.7,1172.2 1463.9,1031.5 C1467.8,965 1471.7,904.7 1472.5,897.5 C1481.9,816 1499.7,726.6 1522.1,648.4 C1561.5,511.2 1612.6,414.7 1690.3,330.8 C1735.2,282.3 1801.9,224 1842.9,197.4 C1877.8,174.8 1924.1,152 1971.5,134.1 C2074,95.4 2209.5,68.5 2284,72 C2333.9,74.4 2367.4,93.6 2375.4,124.5 C2377.5,132.7 2377.5,151.7 2375.4,161.2 C2371.9,176.9 2362.2,191.6 2348.5,201.7 C2345,204.3 2341.5,207.9 2339.9,210.7 C2338.4,213.3 2331.2,224.4 2323.8,235.4 C2308.3,258.4 2307.4,260.1 2303.2,272.9 C2295.6,296.1 2290.1,321.4 2286.5,349.5 C2270,476.6 2264.5,505.3 2250.3,538.7 C2246.3,547.9 2247.1,547.7 2237.5,543.4 C2231,540.5 2229.6,538.8 2225,528.2 C2215.6,506.3 2209.1,482.8 2195.5,421.9 C2173.7,324.2 2162.5,293.7 2143.3,279.9 C2134.2,273.4 2130.1,272.5 2112.1,273.2 C2051.3,275.4 1957.9,313.1 1874,369.2 C1852.2,383.8 1836.5,396.7 1818.5,414.5 C1728,504.3 1656.6,647.1 1627.1,796.9 C1612,874 1607.8,941.7 1611,1060.4 C1612.7,1124 1616.2,1165.6 1623.5,1210.9 C1628.9,1243.9 1632.5,1257.4 1645.5,1294.5 C1665.7,1351.8 1668.1,1362.2 1664.5,1375.8 C1660.6,1390.9 1652.3,1403.6 1640.8,1412.1 C1627.1,1422.3 1587.5,1449.8 1574.7,1457.9 C1535,1483.2 1506.4,1492.5 1479.2,1488.9 C1460.8,1486.5 1447.8,1482.1 1410,1465.4 L1374.5,1449.7 L1252.1,1416.8 C1184.8,1398.7 1129.2,1383.9 1128.5,1383.9 C1126.1,1383.9 1125.6,1387.6 1125.2,1409.4 C1124.9,1428.6 1126.1,1450.4 1134.4,1581.9 L1144,1732.4 L1155,1817.4 C1165.7,1899.5 1166.1,1902.9 1165.7,1916.9 C1165,1939.1 1159.8,1956.4 1148.3,1974.6 C1129.6,2004.5 1104.4,2027 1047,2065.1 C1033,2074.4 1021.4,2082.4 1021.2,2082.7 C1021.1,2083.1 1044.7,2088.7 1073.7,2095.2 L1126.5,2107 L1271,2128.4 C1350.5,2140.2 1421.1,2150.4 1427.9,2151 C1460.6,2153.9 1473.9,2147 1478.3,2124.9 C1480.5,2114.2 1480.5,2113.5 1486.5,1983.4 C1491.9,1868.3 1492.9,1853.2 1497.1,1828.4 C1512.7,1736.2 1555.3,1614.7 1596,1546.4 C1616.5,1512 1650.5,1464.6 1675.1,1436 C1776.5,1318.3 1917.7,1249.4 2099.7,1228.9 C2136.4,1224.8 2155.1,1223.7 2203,1223.2 C2262.5,1222.5 2282.7,1224 2311.5,1230.9 C2355.3,1241.4 2380.7,1261.5 2388.7,1291.9 C2391,1300.8 2391,1319.2 2388.6,1327.8 C2383.4,1346.8 2371.6,1363.9 2352.8,1379.8 C2331.3,1397.9 2320.6,1412 2317.5,1426.6 C2316.7,1430.3 2308.3,1484.9 2298.8,1547.9 L2281.6,1662.4 L2277.8,1667.6 C2273.4,1673.4 2272.5,1673.9 2266.8,1673.9 C2252.4,1673.9 2243.3,1663.6 2240.9,1644.7 C2238.3,1624.1 2226.3,1564.6 2218.4,1533.5 C2199.3,1458.2 2179.3,1422.6 2149.3,1410.4 C2138.6,1406.1 2128.2,1404.9 2101.5,1404.9 C2046.3,1404.9 1995.1,1414.2 1940.7,1434 C1880.4,1456 1815.1,1494.2 1772.3,1532.8 C1700.4,1597.5 1653.6,1705.8 1643.6,1830.9 C1642.8,1840.5 1642.3,1848.5 1642.5,1848.7 C1642.8,1849 1719.8,1788.6 1797,1727.5 C1811.6,1716 1865.8,1671.9 1917.4,1629.5 L2011.4,1552.5 L2026.3,1549.7 C2043,1546.7 2042.2,1546.5 2052,1553.2 C2070.4,1565.8 2082.9,1585.8 2089.2,1612.9 C2091.7,1624 2092.8,1653.1 2091,1665 C2081.3,1731.9 2016.9,1774.6 1817.5,1846.5 C1757.1,1868.3 1694.6,1883.5 1655.8,1885.8 C1648.8,1886.2 1642.9,1886.7 1642.6,1887 C1642.1,1887.5 1644.4,1940 1646,1965.4 C1649,2013.1 1654.4,2052.1 1660.7,2071.4 C1661.6,2074.2 1668.6,2090.1 1676.3,2106.9 C1692.3,2142 1698.7,2157.1 1703.1,2170.7 C1705.8,2179.1 1706.1,2181.4 1705.7,2187.8 C1704.1,2209.8 1679,2240.3 1635.8,2272.7 C1593.8,2304.2 1547.5,2326.1 1529,2323.2 L1529,2323.2 Z" id="Shape" sketch:type="MSShapeGroup"></path>
            <path d="M1890.8,2295.9 C1877.5,2293.6 1863.8,2286.9 1855.5,2278.5 C1847.2,2270.3 1844.5,2264.5 1844.5,2255.2 L1844.5,2248 L1857,2223.2 C1869.2,2198.9 1869.5,2198.3 1869.5,2191.8 C1869.5,2186 1869,2184.1 1864.8,2175.8 C1856.2,2158.4 1838.3,2134.9 1796.5,2085.9 C1768.7,2053.3 1770,2054.6 1740.5,2028.6 C1700.5,1993.2 1682.9,1975.3 1674.5,1961.4 C1668.4,1951.2 1669.9,1941.1 1678.3,1936.7 C1682.2,1934.6 1683.7,1934.4 1699,1934.4 C1712,1934.5 1717.9,1934.9 1726.7,1936.7 C1746.3,1940.6 1767.6,1948.1 1787.8,1958.2 C1802.5,1965.6 2010.6,2073.6 2024.5,2081.1 C2052.1,2096 2066.2,2107.4 2072.2,2119.7 C2075,2125.4 2075.5,2127.5 2075.8,2136 C2076.3,2148 2074.3,2155.8 2066.9,2169.8 C2044.4,2212.8 1992.4,2263.1 1948.5,2284.4 C1926.4,2295.1 1908,2298.8 1890.8,2295.9 L1890.8,2295.9 Z" id="Shape" sketch:type="MSShapeGroup"></path>
            <path d="M1869,1259.8 C1858.5,1257.7 1848.2,1250.1 1844.1,1241.4 C1840.3,1233.2 1840.4,1228.4 1845,1205.9 C1848.3,1189.8 1849.1,1184.1 1848.7,1179.4 C1847,1161.4 1826.2,1121.5 1801.4,1088.8 C1786.8,1069.5 1778.3,1060.1 1737.9,1018.9 C1680.6,960.4 1670.7,949.3 1655.9,927.3 L1648.9,916.8 L1650.7,913.7 C1654.3,907.6 1657,906.4 1668.9,906.1 C1683.1,905.6 1693,907.5 1715,914.9 C1757.6,929.1 1814.3,956.9 1877.5,994.4 C1934,1028 1965,1045.5 1989.5,1057.5 C2014.2,1069.7 2024,1076.1 2030.2,1084.4 C2036,1092 2038.2,1098.8 2038.8,1110.4 C2039.4,1124.2 2037.1,1133.4 2028.6,1150.4 C1997.8,1211.8 1914.7,1268.8 1869,1259.8 L1869,1259.8 Z" id="Shape" sketch:type="MSShapeGroup"></path>
            <path d="M1696.1,829.2 L1691.7,828.8 L1692.2,820 C1693.1,805.6 1696.6,800.3 1713.1,789.1 C1725.2,781 1790.8,731.6 1811,715.4 C1844.4,688.7 1867,668.9 1890.8,645.4 C1911.4,625.2 1923.1,612.1 1940.5,589.4 C1985.3,531.2 2002,514.1 2019.5,508.6 C2029.1,505.6 2054.5,505.4 2063,508.3 C2082.5,514.9 2095.6,529.1 2102.9,551.6 C2106.9,564.2 2108.3,576.6 2107.7,596.2 C2107.1,617 2104.9,628 2098.1,644.4 C2076.3,696.5 2019.6,740.9 1921.3,782.8 C1865.3,806.7 1817,820.4 1768,826.4 C1746.2,829 1710.3,830.4 1696.1,829.2 L1696.1,829.2 Z" id="Shape" sketch:type="MSShapeGroup"></path>
        </g>
    </g>
</svg>