<?xml version="1.0" encoding="UTF-8" standalone="no"?>
<svg width="1077px" height="1963px" viewBox="0 0 1077 1963" version="1.1" xmlns="http://www.w3.org/2000/svg" xmlns:xlink="http://www.w3.org/1999/xlink" xmlns:sketch="http://www.bohemiancoding.com/sketch/ns">
    <!-- Generator: Sketch 3.0.4 (8054) - http://www.bohemiancoding.com/sketch -->
    <title>Slice 2</title>
    <desc>Created with Sketch.</desc>
    <defs></defs>
    <g id="Page-1" stroke="none" stroke-width="1" fill="none" fill-rule="evenodd" sketch:type="MSPage">
        <g id="Group" sketch:type="MSLayerGroup" transform="translate(538.600000, 981.600000) scale(1, -1) translate(-538.600000, -981.600000) translate(0.600000, 0.600000)" fill="#000000">
            <path d="M887.7,1961.5 C874.6,1959.8 858.3,1954.3 808.9,1934.8 C753.2,1912.9 727.3,1904.9 681.9,1895.7 C660.1,1891.3 418.9,1850.4 403.9,1848.6 C387.4,1846.6 353.8,1843.3 309.9,1839.4 C264,1835.3 217.6,1836.7 170.5,1843.7 C153,1846.2 149.3,1847.2 123,1856.6 C88.5,1868.8 84,1870 74.9,1870.1 C67.9,1870.1 66.2,1869.7 61.4,1867.1 C58.4,1865.5 53.7,1861.8 50.8,1858.9 C37.1,1845.3 36.5,1829.7 48.6,1809.6 C67.7,1778.1 114.6,1739.9 166.4,1713.6 C192.3,1700.5 211.7,1693.4 233,1689.1 C255.5,1684.5 266.4,1685.5 316.9,1696.6 C329.5,1699.4 421.3,1715.8 520.9,1733.1 C671,1759.1 721.1,1767.4 814.4,1781.5 C909.1,1795.8 929.9,1798.7 946,1799.6 C984,1801.7 1017.4,1806 1024.9,1809.6 C1037.9,1815.9 1052.6,1833.6 1058.5,1850.2 C1061.6,1858.6 1061.5,1873.6 1058.4,1882.6 C1050.9,1904.8 1030.1,1923.4 996.9,1937.6 C971.1,1948.7 933.7,1958.6 907.9,1961.1 C895.4,1962.3 893.7,1962.3 887.7,1961.5 L887.7,1961.5 Z" id="Shape" sketch:type="MSShapeGroup"></path>
            <path d="M875.8,1502.5 C862.6,1500.3 838.8,1491.9 777.9,1468.1 C741.5,1453.8 737.1,1452.3 712.9,1446.3 C629.1,1425.3 524.1,1402.9 459.9,1392.2 C414,1384.6 394.8,1382.4 367.8,1381.9 C341.1,1381.3 326,1382.3 300.4,1386.2 C277.7,1389.7 272.4,1391 255.5,1397.3 C214,1412.7 172.8,1420.8 150.7,1417.7 C133.5,1415.3 121.3,1406.9 116.5,1394.1 C114.6,1389.2 114.3,1386.7 114.6,1380.6 C115.4,1367.9 118.1,1364 140.9,1343.1 C153.1,1331.9 160.6,1323 170.6,1307.6 C187.9,1281.1 192.4,1265.9 197.3,1216.4 C207.1,1118.8 210.3,920.2 204.4,778.1 C194,529.4 163.8,367.7 99.9,218.1 C77.3,165.1 72.8,156.3 43.2,106.6 C9.8,50.3 -0.2,31.3 -2.16005165e-13,23.6 C0.2,11.2 7.8,3.1 21.7,0.6 C40.2,-2.9 67.1,14.9 101.2,53 C156.8,115.1 216.9,210.3 255.5,297.3 C309.2,418.4 346.5,578.5 359.6,743.7 L360.8,759.3 L370.9,761.4 C391.9,765.8 752.6,825.6 787.4,830.5 C827.9,836.2 891.4,845.9 903.2,848.1 C928.2,852.9 946.5,872.1 954,901.3 C957.5,914.9 957.5,926.5 954.1,936.2 L951.6,943.4 L953,961.7 C954.9,986.9 958,1012.8 961.4,1033.1 C966.8,1064.6 987.9,1153.1 1001.3,1200.1 C1016,1251.9 1019,1259 1042,1297.4 C1061,1328.9 1071.8,1349 1074.9,1358.5 C1082.7,1382.3 1057,1414 1001.3,1449.4 C960.4,1475.3 906.5,1500.1 884.9,1502.8 C882.7,1503.1 878.6,1503 875.8,1502.5 L875.8,1502.5 Z M813.6,1335 C831.6,1332.1 841.6,1325.6 844.8,1314.5 C847.4,1305.9 846.5,1284.4 841.3,1229.2 C839.6,1210.6 810.5,1002.6 807.4,986.7 C806.9,983.8 806.4,979.4 806.4,977 L806.4,972.7 L799.6,970.6 C788.3,967.3 777.5,964.8 766.5,963.1 C760.8,962.2 700.1,949.8 631.5,935.5 C563,921.1 496.3,907.2 483.4,904.6 C442.7,896.2 397.9,889.4 374.5,888 L363.4,887.3 L363.4,1073.8 L363.4,1260.3 L376.2,1263.4 C390.6,1267 404.8,1269.6 598.4,1305.1 C675.1,1319.2 743.4,1331.8 750.2,1333.2 C771.2,1337.5 794.4,1338.1 813.6,1335 L813.6,1335 Z" id="Shape" sketch:type="MSShapeGroup"></path>
        </g>
    </g>
</svg>