<?xml version="1.0" encoding="UTF-8" standalone="no"?>
<svg width="2423px" height="2171px" viewBox="0 0 2423 2171" version="1.1" xmlns="http://www.w3.org/2000/svg" xmlns:xlink="http://www.w3.org/1999/xlink" xmlns:sketch="http://www.bohemiancoding.com/sketch/ns">
    <!-- Generator: Sketch 3.0.4 (8054) - http://www.bohemiancoding.com/sketch -->
    <title>Slice 2</title>
    <desc>Created with Sketch.</desc>
    <defs></defs>
    <g id="Page-1" stroke="none" stroke-width="1" fill="none" fill-rule="evenodd" sketch:type="MSPage">
        <g id="Group" sketch:type="MSLayerGroup" transform="translate(1211.750000, 1085.600000) scale(1, -1) translate(-1211.750000, -1085.600000) translate(0.500000, 0.300000)" fill="#000000">
            <path d="M1145,2169.9 C1123.7,2166.6 1101.6,2155.8 1090.5,2143.2 C1081.8,2133.4 1076.5,2120.6 1076.5,2109.7 L1076.5,2103.7 L1093.9,2085.6 C1127.7,2050.2 1139.7,2034.2 1153.1,2006.4 C1169.1,1973.2 1177,1937.4 1181.5,1876.9 C1182,1870 1183.8,1721.5 1185.4,1546.9 L1188.3,1229.4 L1185.7,739.4 C1184.3,469.9 1183,249.2 1182.9,249 C1182.1,248.1 1069,235.8 1006.5,230 C981.7,227.6 797.1,216.3 758,214.6 L752,214.4 L737.3,673.4 L722.6,1132.4 L726.7,1152.4 C731.2,1174.3 731.4,1182.4 728,1195.4 C722.8,1214.8 707.9,1235.9 686,1254.7 C656.1,1280.4 610.6,1304.4 562,1320.2 C531.6,1330.1 510.7,1334.2 491.5,1334.2 C451.4,1334.1 430.3,1320.1 410.9,1280.8 L407.2,1273.1 L412.1,1267.4 C420,1258.1 432.4,1247 459.6,1224.9 C473.7,1213.4 486.7,1202.3 488.5,1200.2 C493.1,1195 501.5,1181.9 505.9,1173.1 C525.7,1133.6 544.3,1061 548.5,1006.4 C549.1,998.7 554.1,928.5 559.6,850.4 L569.6,708.4 L580.4,454.4 C586.4,314.7 591.2,200.3 591.1,200.2 C591,200.1 532.2,195 460.5,188.8 C351.2,179.5 325.8,177.6 304,177.2 C249.1,176.1 202.2,183 156,198.9 C139.3,204.7 129.6,209.1 105,222.3 C76.6,237.4 58.9,246 47.9,249.9 C40.5,252.5 38,253 32.9,252.6 C15.4,251.3 2.9,238.1 0.5,218.3 C-0.7,209.2 0.5,191.7 3.1,179 C6.6,161.7 15.1,141.2 25.3,125.5 C31.3,116.1 50.2,97.4 64.5,86.7 C109.4,53 182.4,17.5 232.5,4.9 C250.3,0.5 257.9,-0.4 272.7,0.2 C287.2,0.8 300.3,3.2 342,13.3 C405.9,28.6 416.7,31.1 427.9,33.4 C449.2,37.7 659.9,59.7 956.5,88.8 L1242,116.8 L1369,123.3 L1496,129.8 L1638.5,130.9 C1910.4,132.9 1955.6,132.3 2034.5,125.8 C2064.7,123.3 2072.2,122.5 2221,104.3 C2349.7,88.6 2358,87.9 2371.9,91.3 C2381.8,93.7 2392.5,98.2 2404.6,105 L2415.2,111 L2418.5,124.7 C2422.7,142 2423.8,164 2421,174.9 C2411,213.6 2362.3,249.9 2278.3,281.3 C2247.3,292.9 2202.8,305.6 2172.7,311.3 C2150.2,315.7 2145.4,315.3 2055.5,302.4 C2031,298.9 2005.6,295.8 1999,295.5 C1992.4,295.2 1966.3,294 1941,292.9 C1915.7,291.7 1772.5,283.6 1622.7,274.7 C1473,265.8 1350.2,258.8 1349.9,259.1 C1349.2,259.9 1367.7,1114.2 1368.5,1115.2 C1368.8,1115.6 1374.3,1116.6 1380.6,1117.4 C1402.6,1120.3 1510.7,1131.9 1575.5,1138.4 C1611.5,1142 1653.6,1146.3 1669,1147.9 C1753.2,1156.7 1922.2,1172.8 1999,1179.3 C2047.4,1183.5 2088.8,1187.1 2091,1187.3 C2093.2,1187.6 2099.7,1190.1 2105.5,1193 C2114.6,1197.5 2117.2,1199.4 2125,1207.3 C2139.3,1221.7 2145.5,1236.2 2145.5,1255.8 C2145.5,1277.1 2137.6,1293.9 2119.4,1311.4 C2098.9,1331.1 2066.4,1346.7 2024,1357.3 C2002.3,1362.7 1980.7,1366.1 1967.5,1366.1 C1953,1366.1 1931.6,1360.7 1849.5,1336.4 C1828.3,1330.1 1805.8,1323.6 1799.5,1322 C1767.7,1313.6 1634.7,1295.9 1506,1283 C1440.2,1276.4 1369.7,1270.4 1368.7,1271.4 C1367.6,1272.5 1371.8,1396 1379,1574.9 C1382,1649.4 1384.5,1717.2 1384.5,1725.4 C1384.5,1733.7 1385,1744.5 1385.5,1749.4 C1387.6,1768.2 1402.5,1978.9 1402.5,1989 C1402.5,2033.5 1366.5,2079.1 1300,2118.8 C1264.5,2140 1220.1,2158.9 1185.5,2167.5 C1173.8,2170.4 1155.4,2171.5 1145,2169.9 L1145,2169.9 Z" id="Shape" sketch:type="MSShapeGroup"></path>
        </g>
    </g>
</svg>