<?xml version="1.0" encoding="UTF-8" standalone="no"?>
<svg width="2156px" height="2444px" viewBox="0 0 2156 2444" version="1.1" xmlns="http://www.w3.org/2000/svg" xmlns:xlink="http://www.w3.org/1999/xlink" xmlns:sketch="http://www.bohemiancoding.com/sketch/ns">
    <!-- Generator: Sketch 3.0.4 (8054) - http://www.bohemiancoding.com/sketch -->
    <title>Slice 2</title>
    <desc>Created with Sketch.</desc>
    <defs></defs>
    <g id="Page-1" stroke="none" stroke-width="1" fill="none" fill-rule="evenodd" sketch:type="MSPage">
        <g id="Group" sketch:type="MSLayerGroup" transform="translate(1077.900000, 1221.600000) scale(1, -1) translate(-1077.900000, -1221.600000) translate(0.200000, 0.100000)" fill="#000000">
            <path d="M813.3,2442 C792,2439 773.4,2427.6 766.2,2413.2 C764,2409 763.2,2405.8 762.9,2400.3 C762.5,2391.6 762.8,2391.1 777.7,2374.1 C794.1,2355.5 797.5,2345.3 796.5,2318.6 C795.3,2288.1 789,2266.2 771.8,2232.1 C758.6,2206.2 741.8,2179.1 697.5,2112.6 C641,2027.9 621.2,2004.8 593.3,1991 C582,1985.4 574.6,1983.3 563.8,1982.4 C556.9,1981.9 555.6,1982.1 547.3,1985.4 C542.4,1987.3 532.2,1991.6 524.8,1994.9 C503.8,2004.3 455.4,2023.6 437.5,2029.6 C409.5,2039.1 391.9,2041.7 369.2,2040 C331.3,2037.1 308.3,2021.7 307.1,1998.2 C306.7,1991 306.9,1990.2 310.6,1982.6 C315.8,1972 327.6,1954.6 348.3,1927.1 C357.6,1914.7 367.9,1901 371.2,1896.6 C380.6,1884.1 383.3,1879 388.1,1864.3 C403.8,1816.3 412.9,1728.5 415.8,1595.6 C416.7,1556.5 416.4,1528.9 413.8,1385.1 L410.7,1219.6 L399.7,1023.1 C390.5,859.8 388.7,823.2 389.1,806.6 L389.5,786.6 L398.1,753.1 C402.8,734.7 407.3,717.3 408.1,714.5 C410,707.3 414.1,700.8 420.9,694 C436.7,678.5 458.9,668.8 478.8,668.7 C487.6,668.6 488.9,668.9 495.3,671.9 C513.1,680.3 533.7,701.4 564.6,742.6 C570.4,750.3 575.6,757.1 576.2,757.8 C576.8,758.5 641.9,771 720.8,785.6 L864.3,812.2 L996.8,830.7 L1129.3,849.1 L1356.8,868.1 L1584.3,887 L1707.1,892.1 C1774.7,894.9 1834.3,897.2 1839.6,897.2 C1862.7,897.2 1897.5,889 1917,878.9 C1926.8,873.8 1933.2,868.2 1936.5,861.8 C1938.8,857.2 1939,855.9 1938.5,848.6 C1938.2,844.2 1935.7,829.1 1932.9,815.1 C1928.8,794.3 1927.6,785.6 1926.3,768.1 C1924.6,744 1923.1,729.8 1921.7,723.1 C1920.3,716.6 1877.2,569.5 1867.6,538.6 C1842.7,458 1812.5,380.7 1781.8,318.6 C1752.3,259 1738.1,243.9 1704.8,236.9 C1696.6,235.2 1692.7,235 1676.3,235.4 C1656,235.9 1646.2,237.2 1608.3,244.1 C1558.4,253.3 1517.7,262.6 1465.3,276.8 C1408.8,292 1390.1,296.1 1376.2,296.1 C1372.4,296.1 1371.9,295.8 1370.9,293 C1369.1,287.7 1369.5,285.9 1376.2,272.5 C1384.7,255.3 1390.8,246.9 1405.2,232.6 C1424.6,213.3 1453.7,192.4 1498.3,165.9 C1510.4,158.7 1527.1,148.7 1535.3,143.8 C1554.7,132.3 1564.5,125.2 1573.3,116.6 C1581.5,108.6 1585.4,103 1596.1,84.1 C1621.6,38.9 1638.9,15.7 1653.9,6.9 C1662.7,1.7 1671.2,0 1688.8,0 C1705.7,0 1717.5,2 1733.9,7.7 C1784.9,25.4 1841.3,76.6 1889.5,148.9 C1919.2,193.3 1970.1,318.2 2022.4,474.6 C2040.3,528.4 2041.2,531.2 2068.3,628.6 C2081.3,675.4 2093.2,716.8 2094.8,720.6 C2096.3,724.5 2103.8,740.7 2111.3,756.6 C2136,808.8 2146.1,832 2152.4,851.1 C2158.1,868.5 2155.6,885.4 2144.6,904.8 C2134.2,923.1 2115.5,944.7 2094,963.2 C2088.4,968.1 2067.7,984.2 2048,998.9 C1960.5,1064.6 1956.1,1067 1923.4,1065.9 C1908.3,1065.3 1900.5,1064 1844.8,1052.1 C1803.1,1043.2 1802.5,1043.1 1784.3,1041 C1775,1039.9 1737.6,1035.3 1701.3,1030.6 C1622.5,1020.5 1642.5,1022.7 1451.3,1003 C1326,990.1 1227.8,979.1 938.3,945.5 L580.3,903.9 L570.4,905.1 L560.6,906.4 L558,911.9 C555.6,917.2 555.5,918 556.1,930 C556.8,943.3 560.1,973.6 564.2,1003.6 C565.6,1013.5 567.2,1026.8 567.8,1033.1 C568.9,1045.8 570.1,1051.3 572.2,1053 C572.9,1053.6 727.4,1075.7 915.4,1102.1 L1257.3,1150.1 L1404.3,1165.1 C1518.5,1176.7 1566.8,1181.2 1620.8,1185.2 L1690.3,1190.3 L1762.3,1189.2 C1866.9,1187.6 1877.8,1187.7 1890.1,1190.2 C1927.5,1197.7 1950.3,1214.4 1955.8,1238 C1957.4,1244.7 1956.6,1261.1 1954.3,1269.6 C1944.6,1306.1 1903.7,1340.6 1847.1,1360.1 C1820.6,1369.3 1796,1374.1 1775.5,1374.3 C1759,1374.4 1740,1370.4 1660.8,1350.5 C1627,1342 1592.6,1333.5 1584.4,1331.5 C1574.8,1329.3 1482.1,1314.4 1326.9,1290.1 C1085.4,1252.4 1083.2,1252.1 844,1219.2 C605,1186.3 603.5,1186.1 586.3,1186.1 L569.1,1186.1 L568.5,1190.9 C564.9,1219 565.2,1250.8 569.2,1281.9 C573.1,1311.4 576.7,1333.4 577.8,1334.1 C578.4,1334.4 589.9,1337.1 603.6,1339.9 C619.9,1343.3 700.8,1356.5 840.8,1378.5 L1053.3,1412 L1177.8,1426 C1246.3,1433.7 1305.5,1440.7 1309.3,1441.6 C1324,1444.7 1371.9,1449.7 1377.7,1448.6 C1379.7,1448.2 1382.6,1447.2 1384.3,1446.4 C1388.6,1444.1 1405.2,1427.7 1418.3,1412.6 C1433.3,1395.2 1441.7,1387.5 1449.7,1383.7 C1455.7,1380.9 1457.4,1380.6 1467.9,1380.3 C1481,1379.9 1488.1,1381.2 1498.7,1386.2 C1528.4,1400 1555.8,1440.8 1575.6,1500.7 C1582.3,1520.7 1585.4,1534 1591.8,1568.6 C1600.8,1617.6 1599.9,1613.2 1629.8,1746.1 C1645.1,1814 1659,1876.4 1660.8,1884.6 C1668.3,1920 1670.1,1925.5 1683.8,1955.1 C1700.5,1991.2 1701.9,1995 1702.5,2007.6 C1702.9,2016 1702.7,2018.5 1700.9,2023.5 C1691.9,2049.1 1658.5,2076 1601.3,2103.7 C1552.7,2127.2 1496.2,2145.7 1466.9,2147.7 C1450.8,2148.8 1433.8,2143.9 1392.1,2126.2 C1364.6,2114.6 1358.4,2112.5 1327.3,2104.7 C1278.1,2092.3 1249.2,2086.6 1164.8,2072.6 C1103.2,2062.3 776.8,2007.2 774.4,2006.6 C773.2,2006.4 775,2008.8 779,2012.9 C782.6,2016.6 819.4,2055.2 860.8,2098.6 C988,2231.9 973.7,2217.6 989,2226.6 C1009.5,2238.6 1030.1,2252.5 1037.3,2259.2 C1041.7,2263.4 1044.8,2267.4 1047,2271.8 C1049.9,2277.7 1050.2,2279.4 1050.6,2289.6 C1051.9,2324 1034.8,2347.2 982.8,2381.8 C915.3,2426.7 855.2,2448 813.3,2442 L813.3,2442 Z M1462.1,1979.6 C1475.4,1974.6 1479.5,1972.1 1480.4,1968.4 C1481.7,1963.2 1479.8,1942.6 1474.3,1904.5 C1466.2,1847.5 1465.3,1843.9 1457.5,1840 C1454.2,1838.2 1380.6,1828.2 1017.1,1779.9 C777,1748 580.3,1722.2 580,1722.5 C579.7,1722.9 579,1729.3 578.6,1736.9 C576.9,1764.3 581.7,1820.8 587.5,1842.4 C590,1851.7 593.2,1853.2 619.1,1857.6 C627.5,1859 727.5,1874.3 841.3,1891.6 C1123.6,1934.5 1208.1,1947.3 1335.8,1967 C1396,1976.3 1446.4,1983.9 1447.8,1984 C1449.2,1984.1 1455.7,1982.1 1462.1,1979.6 L1462.1,1979.6 Z M1442.5,1718.6 C1446.4,1716.9 1448.8,1712.6 1448.8,1706.9 C1448.8,1704.5 1447.4,1690.5 1445.8,1675.8 C1444.2,1661.1 1442.2,1640.9 1441.3,1631 C1438.5,1597 1435,1589.6 1420,1585.1 C1405.4,1580.8 1362.2,1574.3 1270.8,1562.6 C1242.5,1559 1216.3,1555.6 1212.7,1555.1 C1188.6,1551.7 663.2,1472.4 646.3,1469.6 C621.9,1465.6 587.7,1461.1 581.4,1461.1 L577,1461.1 L575.9,1468.9 C567.4,1524.6 567.1,1539.5 573.9,1578.1 C575.5,1587.2 576.8,1594.9 576.8,1595.2 C576.8,1597.2 592.5,1602.7 605.2,1605.2 C668.6,1617.7 1307,1710 1368.9,1715.6 C1433.1,1721.4 1435.4,1721.4 1442.5,1718.6 L1442.5,1718.6 Z" id="Shape" sketch:type="MSShapeGroup"></path>
            <path d="M1223.8,766.4 C1222.4,766.2 1221,765.6 1220.6,765.2 C1219.5,764.2 1225.5,743.5 1229,736.4 C1232.1,730 1238.3,723 1248,714.8 C1267.5,698.4 1302.4,643.3 1332.8,580.8 C1343.7,558.3 1348,548.8 1369.8,498.6 C1384.8,463.8 1404.7,423.7 1412.9,411.1 C1420.8,399.1 1435.1,384.8 1443.5,380.3 C1453.3,375.2 1463.1,373.1 1477.7,373.1 C1492,373.1 1500,374.7 1509.2,379.1 C1528.5,388.4 1540.8,406.9 1547.9,437.6 C1550.9,450.6 1551.7,480.4 1549.4,495.7 C1544.1,531.8 1526.4,569.1 1497.2,605.6 C1486,619.6 1454.8,650.9 1439.3,663.7 C1382.7,710.4 1312.3,749 1259,762.7 C1246.1,766 1230,767.7 1223.8,766.4 L1223.8,766.4 Z" id="Shape" sketch:type="MSShapeGroup"></path>
            <path d="M851.4,705.6 C848.1,704.7 845.3,703.9 845.1,703.7 C844.5,703.2 847.5,690.6 849.9,683.4 C852.4,675.9 857,668.6 868.7,653.8 C891.3,625.1 923.6,576 942.5,541.6 C958.1,513.3 970.6,486.5 984.8,451.1 C1018.9,365.8 1034.5,341 1062.3,327.6 C1072.3,322.8 1081,320.6 1093.8,319.5 C1132.3,316.5 1158,343.7 1167.9,397.8 C1173.3,427.2 1169.1,451.4 1152.8,484.7 C1123.6,544.1 1062.4,602.8 974.5,655.4 C944.9,673.2 903.7,694.5 883.9,702.2 C871.5,707.1 861.4,708.1 851.4,705.6 L851.4,705.6 Z" id="Shape" sketch:type="MSShapeGroup"></path>
            <path d="M455.8,651.8 C455.8,646.8 459,624.7 460.3,621.1 C461.2,618.6 463.6,613.9 465.8,610.6 C472.3,600.6 494.4,553.5 524.8,485.1 L540.5,449.6 L567.3,364.1 C582,317.1 595.3,275.1 596.9,270.8 C606,245.8 625.2,221.1 645.2,208.6 C671.2,192.4 700.1,193.3 726.7,211.1 C758.8,232.7 775.1,269.6 773.5,317.1 C771.9,363.9 751.3,411.7 709.2,466.6 C646.8,548.1 541,628.4 466.7,650.6 C457.3,653.4 455.8,653.6 455.8,651.8 L455.8,651.8 Z" id="Shape" sketch:type="MSShapeGroup"></path>
            <path d="M163.9,631.4 C163.1,629.3 159,620.2 154.6,611.2 C146.9,594.9 146.7,594.4 141.2,569.7 C121.9,482.8 99.4,407.1 81.8,369.6 C79.3,364.1 66.6,340.3 53.8,316.6 C25.4,264.3 10.2,233.7 5.5,219.4 C-5.3,186.7 -0.1,154.9 20.2,129.6 C43.3,100.7 80.8,89.1 117.2,99.6 C138.1,105.7 161.1,120.3 178.9,138.8 C208.5,169.6 230.2,214.1 240.7,265.9 C254.3,332.6 250.9,410.9 230.8,491.1 C215.5,551.8 189.9,611.9 171.2,630.6 C168.7,633.1 166.3,635.1 165.9,635.1 C165.5,635.1 164.6,633.4 163.9,631.4 L163.9,631.4 Z" id="Shape" sketch:type="MSShapeGroup"></path>
        </g>
    </g>
</svg>