<?xml version="1.0" encoding="UTF-8" standalone="no"?>
<svg width="1112px" height="2186px" viewBox="0 0 1112 2186" version="1.1" xmlns="http://www.w3.org/2000/svg" xmlns:xlink="http://www.w3.org/1999/xlink" xmlns:sketch="http://www.bohemiancoding.com/sketch/ns">
    <!-- Generator: Sketch 3.0.4 (8054) - http://www.bohemiancoding.com/sketch -->
    <title>Slice 2</title>
    <desc>Created with Sketch.</desc>
    <defs></defs>
    <g id="Page-1" stroke="none" stroke-width="1" fill="none" fill-rule="evenodd" sketch:type="MSPage">
        <g id="Group" sketch:type="MSLayerGroup" transform="translate(555.900000, 1093.400000) scale(1, -1) translate(-555.900000, -1093.400000) translate(0.400000, 0.900000)" fill="#000000">
            <path d="M891,2184.3 C879.4,2182.4 852.7,2175.4 809.1,2162.8 C781,2154.7 731.7,2142.3 620.1,2115.3 C537.1,2095.2 463,2077.5 455.5,2075.9 C408,2066 327.6,2055.8 262.6,2051.4 C229.7,2049.1 190.3,2049.7 173.1,2052.7 C139.6,2058.6 119.3,2066.1 72.1,2090.1 C39.7,2106.5 39,2106.7 29.9,2102.4 C13.8,2095 5.6,2077.8 8.4,2057.9 C12.4,2029.6 36.6,1990.8 73.1,1954.3 C107.2,1920.1 139.9,1899.9 161.2,1899.9 C169.2,1899.9 167.1,1899.5 257.1,1919.4 C297.8,1928.4 332.2,1935.9 333.5,1936.1 C335.5,1936.3 336.8,1935.3 339.8,1931.4 C359.9,1905.1 370.8,1838.8 369.4,1752 C368.9,1726.5 363.5,1600.2 362,1579.3 L361.5,1572.1 L357.4,1571.5 C347.3,1569.9 313.5,1565.9 298.1,1564.5 C270.2,1561.9 248.6,1560.9 220.8,1560.9 L194.5,1560.9 L182.3,1566.3 C147,1581.9 78.9,1602.8 52.9,1606.1 C39.5,1607.8 33.1,1606.5 18.1,1599 C11.5,1595.7 5.3,1592.4 4.3,1591.7 C3.1,1590.8 2.3,1588 1.6,1581.9 C1.1,1577.2 0.4,1571.8 0.1,1569.7 C-0.4,1566.4 0.2,1565.3 7.9,1555.7 C56,1495.8 81.1,1449.4 86.5,1410.5 C88.5,1396 87.8,1155.1 85.1,934.9 C82.6,732 82.5,730.7 75.1,487.9 C71,354 66.9,224.6 66,200.4 C63.7,139.5 64.5,126 71.7,99.1 C82.3,59.5 96,32.1 113.4,15.7 C125.9,4 138.7,-1 153.2,0.2 C171.8,1.6 192.8,22.3 207.1,53.1 L212,63.7 L216.6,64.4 C226.1,65.8 258.1,72.5 310.3,84 C351.2,93 389.3,100.5 466.3,114.5 C561.4,131.8 575.1,134 674.6,148.4 C787,164.6 800.9,166.5 820.1,167.5 C830.7,168.1 856.5,166.9 869.7,165.3 L874.4,164.7 L879.1,153.1 C903.1,94.2 926.6,61.1 950.2,52.8 C953.8,51.5 958.3,50.9 963.9,50.9 C979,50.9 990.7,55.4 1001.2,65.1 C1022.5,85 1033,119.2 1039,188.4 C1042,222.6 1044,287.5 1045.6,404.9 C1046.2,445.3 1048.2,576.1 1050.1,695.4 C1053.6,911.8 1053.6,912.9 1060.6,1105.9 C1064.4,1212.3 1068,1312.6 1068.6,1328.6 C1069.6,1359.2 1071.3,1379.2 1074.6,1399.5 C1076.1,1409 1078.4,1416.7 1085.4,1436.5 C1101.3,1480.9 1109.7,1507.9 1111.2,1518.9 C1113.4,1535.2 1092.5,1567.4 1055.1,1605.8 C1009.9,1652.2 963.1,1682.9 932,1686.8 C918.2,1688.5 897.1,1685.1 844.1,1672.8 C824.5,1668.2 733.8,1646 731.7,1645.3 C730.5,1644.9 730.4,1650.6 730.9,1682.6 C731.5,1719.2 732.4,1734.5 736.5,1775.9 C737.6,1786.6 739,1801 739.6,1807.9 C740.2,1814.8 742.7,1836.4 745.1,1855.9 C751,1904.1 751.9,1914.7 751.3,1926.4 C750.5,1940.8 745.9,1954.2 737.3,1966.9 C732.8,1973.5 718.4,1988.1 708.2,1996.2 C703.3,2000.1 699.7,2003.4 700.2,2003.6 C702.7,2004.3 741.2,2011.1 755.6,2013.3 C803.6,2020.7 831.1,2022.7 905.6,2023.9 C939.4,2024.4 972.6,2025.3 979.4,2025.9 C1012.4,2028.8 1037.1,2040.9 1045.6,2058.2 C1052.6,2072.7 1051.5,2087.8 1042.1,2104.4 C1016.9,2149.2 936.2,2191.9 891,2184.3 L891,2184.3 Z M565,1968.7 C579.3,1949.9 587.5,1930.6 592.8,1903.4 C594.9,1892.5 595,1890.5 595.3,1754.5 C595.5,1678.6 595.3,1616.2 594.9,1615.8 C593.5,1614.4 514.9,1597.8 498.4,1595.4 L493.6,1594.7 L494.1,1597.5 C495.5,1605.8 509.6,1863.2 509.6,1880.5 C509.6,1906.7 499.7,1927.7 475.2,1953.7 L468.7,1960.5 L483.4,1962.8 C491.5,1964 510.5,1967.5 525.6,1970.4 C540.7,1973.3 554.6,1975.7 556.5,1975.6 C559.5,1975.4 560.6,1974.5 565,1968.7 L565,1968.7 Z M874.8,1545 C891.1,1543.8 898.7,1541.4 905.6,1535.2 C917.1,1524.9 921.7,1508.4 923.8,1470.9 C924.7,1453.4 924.4,1433.3 921.7,1334.4 C920,1270.6 918.1,1209.9 917.6,1199.4 C917.1,1189 916.6,1176.2 916.6,1171.2 C916.6,1166.1 916.3,1161.9 915.9,1161.9 C915.4,1161.9 907.7,1160.5 898.7,1158.9 C866.3,1152.9 860.4,1152.5 818.1,1152.4 C784.1,1152.4 778.2,1152.6 772.3,1154.1 C744.3,1161.3 733.2,1179.7 728.2,1227.1 C724.9,1258 723.3,1320 724.6,1373.4 C725.1,1396 726,1439.6 726.7,1470.4 C727.3,1501.2 728,1526.5 728.1,1526.7 C728.5,1527.2 770.9,1536 784.6,1538.4 C807.6,1542.4 821.9,1544 841.1,1544.8 C851,1545.2 859.8,1545.6 860.6,1545.7 C861.4,1545.8 867.8,1545.4 874.8,1545 L874.8,1545 Z M593.1,1333.7 C590.1,1154.1 590.2,1151.5 594.7,1129.7 C601.1,1098.8 613.7,1073.6 634.3,1050.4 C660,1021.6 688.5,1008.1 738.1,1001.3 C746.9,1000.1 761.2,999.6 792.1,999.2 C842.5,998.6 869,999.9 902.4,1004.6 C908.6,1005.4 913.8,1006 914,1005.8 C914.1,1005.6 913.9,973.7 913.5,934.9 C913.1,896.1 912.5,832.4 912.1,793.3 L911.3,722.2 L890.7,718.4 C879.4,716.4 862.2,713.2 852.6,711.3 C838.9,708.7 381,629.3 272.6,610.8 C252.2,607.3 221.3,603.9 220.2,605 C219.9,605.2 220.1,622.8 220.6,643.9 C222,697.9 224.6,837.1 224.6,852 L224.6,864.5 L231.7,872.4 C296.2,944.5 359.1,1052.3 406.1,1171.5 C443.6,1266.3 469.7,1364.6 483.7,1463.4 C484.8,1471.7 485.9,1478.6 486.2,1478.8 C487.7,1480.3 594.2,1503.3 595.4,1502.3 C595.6,1502.2 594.6,1426.3 593.1,1333.7 L593.1,1333.7 Z M354.1,1448.2 C353.8,1446.6 352.9,1439.3 352,1431.9 C333.9,1277.9 287.6,1106.9 235.6,1001.4 L227.7,985.4 L228.2,996.4 C228.5,1002.5 230.9,1081.7 233.6,1172.4 C236.3,1263.2 239,1352.7 239.6,1371.4 C240.1,1390.1 240.6,1410.9 240.6,1417.6 C240.6,1428.3 240.8,1429.8 242.4,1430.3 C251,1432.8 346.1,1450.7 351.8,1450.8 C354.3,1450.9 354.5,1450.6 354.1,1448.2 L354.1,1448.2 Z M908.3,482.2 C907.9,429.5 907.3,369.6 907,349.2 L906.3,311.9 L901.9,311.9 C897.1,311.9 848.3,305.8 833.4,303.4 C828.3,302.6 802.7,299.4 776.6,296.5 C732.5,291.4 715.1,288.7 533.6,259 C325.6,224.9 312.2,222.7 267.1,214.9 C251.2,212.2 234,209.6 229,209.3 L219.9,208.6 L219.2,212.5 C218,219.4 216.7,314.4 216.6,393.6 C216.6,466.2 216.7,470.8 218.4,471.3 C223.5,472.9 332,491.5 411.1,504.3 C846.2,575.1 850.8,575.8 871.6,577.2 C874.1,577.4 883.5,577.6 892.5,577.7 L908.9,577.9 L908.3,482.2 L908.3,482.2 Z" id="Shape" sketch:type="MSShapeGroup"></path>
        </g>
    </g>
</svg>