<?xml version="1.0" encoding="UTF-8" standalone="no"?>
<svg width="1912px" height="2447px" viewBox="0 0 1912 2447" version="1.1" xmlns="http://www.w3.org/2000/svg" xmlns:xlink="http://www.w3.org/1999/xlink" xmlns:sketch="http://www.bohemiancoding.com/sketch/ns">
    <!-- Generator: Sketch 3.0.4 (8054) - http://www.bohemiancoding.com/sketch -->
    <title>Slice 2</title>
    <desc>Created with Sketch.</desc>
    <defs></defs>
    <g id="Page-1" stroke="none" stroke-width="1" fill="none" fill-rule="evenodd" sketch:type="MSPage">
        <g id="Group" sketch:type="MSLayerGroup" transform="translate(955.600000, 1223.100000) scale(1, -1) translate(-955.600000, -1223.100000) translate(0.100000, 0.100000)" fill="#000000">
            <path d="M902.7,2444.5 C880.7,2439.2 865.9,2420.7 865.9,2398.7 C866,2388.7 867.9,2385.1 880.7,2371.9 C892.9,2359.2 893,2359.1 897,2347.3 C904.7,2324.4 904.7,2308.8 896.8,2280.6 C885.9,2241.5 851.9,2176.7 815.9,2126.1 C804.6,2110.3 802.4,2107.7 770.9,2073.1 C755.6,2056.3 741.4,2040.5 739.3,2038 C736.8,2035 734.3,2033.2 732.4,2032.8 C688.8,2024.7 674.9,2022.8 655.9,2022.4 L636.4,2021.9 L625.1,2029.6 C606.6,2042.1 588.4,2052.9 570.4,2062.1 C507.5,2094.2 462.2,2097.6 436.8,2072.2 C429.4,2064.7 425,2056.6 424.2,2048.7 C423.7,2044.3 424.1,2042.6 426.7,2037.6 C431.1,2028.9 437.9,2019.6 454.8,1999.3 C506.7,1936.6 520.1,1897.6 523.9,1797.5 C524.5,1782.1 525.6,1679.6 526.4,1569.6 L527.8,1369.6 L522.4,1220.6 C516.8,1068.5 512.9,995.8 504.2,884.6 C501,843.3 500.6,813.9 503.2,797.6 C510.5,750.9 531.5,704 557.2,677.4 C572.4,661.7 583.2,656.1 598.5,656.1 C623.7,656.1 644.8,670.6 657.5,696.7 C662,705.8 662.1,706 666.2,706.6 C671.7,707.6 694,715.3 705.4,720.3 C718.1,725.8 756.4,738.2 775.9,743 C785,745.3 850.7,758.2 921.9,771.7 L1051.4,796.2 L1190.4,817.7 L1329.4,839.2 L1444.4,849.2 C1565.8,859.7 1590,861.2 1610.9,859.2 C1652.3,855.2 1673,842.9 1679.4,818.4 C1684.4,799.1 1676.6,741.7 1659.5,673.5 C1640.1,596 1612.9,515.1 1582.4,443.6 C1530,320.9 1479,249 1435.4,236.5 C1423.6,233.2 1404.8,235.6 1362.4,246.2 C1308.3,259.7 1267.7,273 1232.4,288.8 C1206.4,300.5 1188.9,307.5 1178.5,310.5 C1170.6,312.8 1149.2,315.7 1148.1,314.7 C1147.9,314.4 1147.5,310.4 1147.2,305.8 C1146.5,294.8 1148.3,289.4 1156.2,278.8 C1159.7,274.2 1184.1,248.6 1212.4,220.1 C1297.5,134.2 1299.5,131.6 1329.2,66.6 C1341.2,40.2 1350.8,25.9 1362.7,16.6 C1377.8,4.7 1393.9,-0.1 1418.3,-4.20641386e-13 C1440.4,0.1 1459.3,4.7 1480.5,15.4 C1503.3,26.9 1522.2,41.2 1546.4,65.5 C1589.2,108.5 1628.7,166.7 1671.5,249.6 C1727.2,357.8 1785.8,511.6 1825.8,654.6 C1840.6,707.7 1844.3,715.1 1874.3,752.5 C1906.2,792.3 1911.6,803.2 1910.6,825.6 C1909.3,855.1 1898.2,868.9 1837.9,915.6 C1826.6,924.4 1806.7,940.1 1793.8,950.4 C1738.4,995 1710.7,1008.1 1672.1,1008.1 C1655.5,1008.1 1645.6,1006 1613.8,995.6 C1566,979.9 1558.1,978.7 1401.4,962.1 L1287.4,950 L1105.9,921.6 C910.4,890.9 777,871.7 710.9,864.6 C688.1,862.1 668.2,859.8 666.7,859.5 C663.9,859 663.9,859 663.9,863.8 C663.9,866.4 664.6,907.3 665.4,954.6 C666.2,1001.9 666.9,1043.2 666.9,1046.4 L666.9,1052.1 L670.4,1052.1 C677.8,1052.1 731.8,1060.8 804.4,1073.6 C877.2,1086.5 890,1088.4 1106.9,1119 C1317.9,1148.8 1339.8,1151.7 1426.9,1161.6 C1575.8,1178.4 1597.5,1179.5 1675.4,1175 C1724.4,1172.2 1749.3,1172 1761.2,1174.4 C1781.8,1178.6 1795.4,1185.4 1808,1198 C1821.7,1211.8 1828.2,1226.7 1828.3,1244.6 C1828.4,1270.6 1810.1,1291.9 1770.8,1311.7 C1733.8,1330.2 1669.6,1347.2 1621.6,1351 C1608.8,1352.1 1584,1350.8 1573.4,1348.6 C1561.5,1346.1 1542,1339.3 1513.7,1327.7 C1486.7,1316.5 1475.8,1312.9 1447.4,1305.8 C1344.4,1279.6 1227.5,1258.6 911.4,1209 C699.1,1175.8 671.9,1171.7 670.3,1173.3 C669.5,1174.1 672.2,1364 673,1365.3 C674.8,1368.2 696.8,1371.3 856.9,1391.2 C955.1,1403.4 995.7,1408.9 1076.4,1421.1 C1130.9,1429.4 1179.9,1436.8 1185.4,1437.6 C1221.2,1442.9 1227.3,1442.7 1280.4,1435 C1320.3,1429.2 1324.7,1428.7 1340.9,1428.7 C1373,1428.7 1386.6,1433.9 1397.6,1450.3 C1412.1,1472.2 1420.2,1511 1433.9,1623.6 C1451.6,1769.3 1457.6,1812.8 1465.5,1851.3 C1475.2,1898.8 1488.1,1928.4 1519.8,1976.1 C1529.5,1990.6 1531.9,1994.8 1535.9,2004.1 C1542.6,2020.1 1544.7,2037.2 1541.1,2047.7 C1535.4,2064.1 1517,2083.4 1489.4,2101.8 C1453.1,2126 1395.8,2150.9 1351.7,2161.6 C1333.2,2166 1321.2,2167.3 1308.4,2166.1 C1292.9,2164.6 1285.7,2162.2 1250.3,2146.3 C1208.1,2127.4 1200.3,2125.2 1044.3,2091.1 C983.9,2077.8 933.5,2066.7 932.4,2066.4 C931.3,2066.1 944.7,2080 962.1,2097.2 C1017.3,2151.9 1127.2,2263.3 1133.2,2270.7 C1141.2,2280.7 1143.2,2285.6 1143.7,2296.8 C1144.4,2312.2 1139.6,2324.4 1126.4,2340.9 C1102.6,2370.5 1045.2,2405.6 981.4,2429.6 C941.8,2444.5 919.8,2448.7 902.7,2444.5 L902.7,2444.5 Z M1291,2012 C1296.6,2010.6 1302.4,2005.8 1305,2000.4 C1307,1996.4 1307.5,1993.7 1307.7,1984.5 C1308.4,1962.2 1299.7,1852.6 1297,1849.8 C1295.8,1848.5 1270.1,1842.4 1260.9,1841.2 C1149.9,1826.4 950.5,1798 853.7,1783.1 C785.5,1772.6 729.3,1763.9 728.9,1763.6 C727.7,1762.9 698.6,1758.3 689.2,1757.3 L680.9,1756.5 L680.9,1834.8 L680.9,1913 L684.7,1914 C686.7,1914.6 699.7,1916.8 713.4,1919 C727.2,1921.2 796.1,1933.8 866.7,1947.1 C987,1969.6 1001.2,1972.1 1096.7,1986.6 C1152.6,1995.2 1212.6,2004.4 1229.9,2007.1 C1274.1,2014.1 1280.6,2014.6 1291,2012 L1291,2012 Z M1283.7,1726.5 C1287.3,1725.8 1287.3,1728.9 1283.8,1701.1 C1281.2,1679.8 1263.2,1561.4 1262.4,1560.1 C1262.1,1559.5 1260.1,1559.1 1258,1559.1 C1248,1559.1 1233.2,1556.9 942.9,1512.6 C697.1,1475 691,1474.1 680,1474.1 L672.6,1474.1 L673.2,1519.9 C673.6,1545 674.2,1582.6 674.6,1603.4 L675.2,1641.1 L679.3,1642.2 C681.6,1642.8 693.5,1646.3 705.9,1650.1 C718.3,1653.9 731.1,1657.6 734.4,1658.5 C737.7,1659.3 802.3,1669.5 877.9,1681.1 L1015.4,1702.2 L1119.9,1714.1 C1177.4,1720.7 1227.1,1726.2 1230.4,1726.4 C1241.4,1727 1280.6,1727.1 1283.7,1726.5 L1283.7,1726.5 Z" id="Shape" sketch:type="MSShapeGroup"></path>
            <path d="M1142.3,744.4 C1139.4,743.8 1134.3,728.5 1136.3,726.2 C1137,725.3 1145.6,715.4 1155.4,704.1 C1226.9,622 1247,589.6 1278.3,505.9 C1293.7,464.7 1305.1,443.1 1321.7,423.6 C1333.7,409.6 1350.3,398.9 1365.4,395.6 C1375.7,393.3 1391,393.9 1399,397 C1421.2,405.5 1437.6,426.8 1445.1,456.9 C1446.9,464 1447.3,468.5 1447.3,482.1 C1447.4,500.3 1445.6,510.8 1439.7,528.6 C1416.3,598.5 1342.5,676.1 1259.9,717.5 C1221.9,736.5 1189.3,745.3 1157.8,745 C1150.4,744.9 1143.5,744.6 1142.3,744.4 L1142.3,744.4 Z" id="Shape" sketch:type="MSShapeGroup"></path>
            <path d="M796.2,670.4 C792.2,670.2 788.9,669.7 788.9,669.3 C788.9,668.9 788.2,664.4 787.4,659.3 L786,649.9 L802.2,632.3 C868.3,559.9 890.2,525.2 935.3,421.8 C966.3,350.8 982.7,329.7 1011.6,323.6 C1019.5,321.9 1033.4,321.7 1040.8,323.1 C1072.8,329.2 1097.4,359.8 1102.9,400.8 C1104.5,412.5 1103.7,439.8 1101.4,450.1 C1086.2,519.2 1024.8,580.6 906.6,645.1 C883.7,657.6 870.4,663.3 855.1,667.3 C844.2,670.1 842,670.4 823.4,670.6 C812.4,670.7 800.1,670.6 796.2,670.4 L796.2,670.4 Z" id="Shape" sketch:type="MSShapeGroup"></path>
            <path d="M436.6,626 C434,625.6 428.9,623.9 425.2,622.2 L418.6,619.1 L419.1,610.6 C419.5,603.2 420,601.2 423.7,593.9 C426.4,588.5 431.4,581.4 437.9,573.6 C479,524.7 503.9,481.9 542.5,393.6 C575,319.1 592.4,282.8 603.9,265.4 C614.6,249.1 624.8,240.9 637.7,238.2 C645.3,236.6 669.4,236.8 677.7,238.6 C728.7,249.3 754.5,297.1 740.9,355.6 C726.3,418.3 664.6,496.8 580.4,560 C521.5,604.3 464.1,630.6 436.6,626 L436.6,626 Z" id="Shape" sketch:type="MSShapeGroup"></path>
            <path d="M174.5,612.6 C165.8,609.5 163.2,604.6 156.9,579.1 C140,511.3 123.7,466.2 98.7,418.1 C94.3,409.6 81.8,386.7 70.9,367.1 C4.5,247.4 0.5,238.8 0.5,214.6 C0.4,200.2 2.6,191.4 9.5,178 C32.6,133.4 86.5,117.5 134.4,141.3 C184.9,166.4 220.5,227.6 234.3,312.6 C238.5,338.7 240,356.8 240.6,390.1 C242.1,471.2 232.2,528.4 204.8,597.6 C200,609.7 198.3,613 196.6,613.5 C192.5,614.6 178.4,614 174.5,612.6 L174.5,612.6 Z" id="Shape" sketch:type="MSShapeGroup"></path>
        </g>
    </g>
</svg>