<?xml version="1.0" encoding="UTF-8" standalone="no"?>
<svg width="1603px" height="604px" viewBox="0 0 1603 604" version="1.1" xmlns="http://www.w3.org/2000/svg" xmlns:xlink="http://www.w3.org/1999/xlink" xmlns:sketch="http://www.bohemiancoding.com/sketch/ns">
    <!-- Generator: Sketch 3.0.4 (8054) - http://www.bohemiancoding.com/sketch -->
    <title>Slice 2</title>
    <desc>Created with Sketch.</desc>
    <defs></defs>
    <g id="Page-1" stroke="none" stroke-width="1" fill="none" fill-rule="evenodd" sketch:type="MSPage">
        <g id="Group" sketch:type="MSLayerGroup" transform="translate(801.200000, 302.300000) scale(1, -1) translate(-801.200000, -302.300000) translate(0.200000, 0.800000)" fill="#000000">
            <path d="M1361.5,600.8 C1350.7,597.9 1342.2,593.2 1335.3,586.3 C1327,578 1324.4,571.7 1324.4,559.3 C1324.4,547.2 1326.2,543.3 1341.4,523.3 C1369.4,486.2 1372.4,479.5 1371.5,455.3 C1371,440.9 1369.1,433.1 1361.6,413.8 C1338.6,355 1259.1,242.6 1165.3,136.4 C1157.6,127.7 1147.1,115.8 1141.9,109.9 C1132.1,98.8 1125.6,89.8 1119.4,78.7 L1115.8,72 L1123.5,70.9 C1138.9,68.7 1155.4,67.7 1163.2,68.3 C1170.1,68.9 1172.5,69.8 1183.9,75.4 C1200.5,83.6 1231,100.8 1266.8,122.1 C1322.7,155.5 1319.4,153.1 1421.8,234.3 C1473.8,275.5 1520.2,312.4 1524.9,316.3 C1529.6,320.2 1546.1,332.9 1561.4,344.5 C1576.8,356.1 1590.7,367.1 1592.3,368.9 C1601,379.3 1603.8,393.8 1599.9,408.3 C1588.7,449.2 1533.6,516.8 1476.3,559.8 C1446.1,582.5 1417.7,596.9 1394.1,601.4 C1383.8,603.3 1369.9,603.1 1361.5,600.8 L1361.5,600.8 Z" id="Shape" sketch:type="MSShapeGroup"></path>
            <path d="M553.4,580.3 C549.2,578.8 544.2,574.4 540.2,568.7 L537.6,565 L544.8,554.2 C548.8,548.3 565.6,524.3 582.1,500.9 C637.5,422.3 651.7,400.8 667.8,371 C688.7,332.3 712.4,275 727.8,225.8 C749.1,157.8 758.7,136.3 774.1,122.2 C784,113.1 794.1,109.5 810.3,109.5 C847,109.4 884.3,139.2 897.7,179.3 C908.6,211.8 905,256.7 888.1,299.8 C871.6,341.9 844,381.6 802.3,423.3 C759.3,466.4 709,504.3 645.8,541.2 C626.4,552.6 586.2,573 573.2,578.2 C563.4,582.1 559.5,582.5 553.4,580.3 L553.4,580.3 Z" id="Shape" sketch:type="MSShapeGroup"></path>
            <path d="M4.2,489.7 C1,488.1 -0.2,484.5 -0.2,476.5 C-0.2,464.8 1.6,461.9 29.8,428.3 C61.9,390 90.6,346.8 121.2,290.5 C141.3,253.6 150.9,233 177.1,170.8 C201.2,113.6 208.2,97.7 220.8,72.3 C244.1,25.2 261.2,6.4 285.3,1.3 C298.8,-1.5 307.9,-0.2 322.5,6.8 C352.9,21.2 375.2,49.2 381.9,81.3 C385.7,99 384.1,128.5 378.2,151.1 C367.5,192.6 342,237.7 302.8,284.8 C290.2,299.9 248.7,341.7 232.8,355.2 C192.8,389.3 132.9,432.7 91.3,457.8 C72.4,469.2 45.4,482.8 33.8,486.7 C23.4,490.3 8.3,491.8 4.2,489.7 L4.2,489.7 Z" id="Shape" sketch:type="MSShapeGroup"></path>
        </g>
    </g>
</svg>