<?xml version="1.0" encoding="UTF-8" standalone="no"?>
<svg width="2293px" height="2135px" viewBox="0 0 2293 2135" version="1.1" xmlns="http://www.w3.org/2000/svg" xmlns:xlink="http://www.w3.org/1999/xlink" xmlns:sketch="http://www.bohemiancoding.com/sketch/ns">
    <!-- Generator: Sketch 3.0.4 (8054) - http://www.bohemiancoding.com/sketch -->
    <title>Slice 2</title>
    <desc>Created with Sketch.</desc>
    <defs></defs>
    <g id="Page-1" stroke="none" stroke-width="1" fill="none" fill-rule="evenodd" sketch:type="MSPage">
        <g id="Group" sketch:type="MSLayerGroup" transform="translate(1146.450000, 1067.650000) scale(1, -1) translate(-1146.450000, -1067.650000) translate(0.200000, 0.300000)" fill="#000000">
            <path d="M970.9,2133.9 C945.8,2130.7 921,2114.7 915.3,2098.1 C913.5,2092.9 913.4,2085.1 914.9,2079.6 C917.2,2071.3 929.1,2061.6 960.3,2042.5 C986.2,2026.7 998.5,2015.5 1010.4,1997.3 C1025.7,1973.6 1035,1938.7 1038.3,1893 C1038.6,1888.3 1040.2,1811.2 1041.8,1721.5 C1044.4,1580.6 1044.8,1537.8 1044.8,1405.4 L1044.8,1252.3 L1027.1,1249.2 C1007,1245.6 993.7,1243.9 962.8,1241 C951,1239.9 870,1231.1 782.8,1221.5 C695.6,1211.9 618.2,1203.5 610.8,1202.8 C593.1,1201.2 538.6,1201.2 523.8,1202.8 C496.5,1205.8 475.8,1209.6 452,1216.1 C424.8,1223.6 411.7,1228.7 339.3,1260 C314.3,1270.8 313.1,1271.2 307.7,1270.7 C296.6,1269.7 287.5,1263.4 282.2,1252.8 C279.5,1247.5 279.5,1247.4 280.1,1232 C280.8,1214.5 282.7,1202.2 286.4,1191.1 C289.8,1181 297.5,1165.7 301.6,1160.9 C303.4,1158.8 319.2,1143.2 336.6,1126.3 C403,1061.8 424,1044 447.4,1032.4 C462.5,1024.9 471.8,1023 493.9,1023 C512.4,1023 524.5,1024.6 534.2,1028.5 C537.6,1029.8 556.3,1035.6 575.8,1041.4 L611.3,1052 L758.4,1076 C839.2,1089.2 918,1101.8 933.4,1104 C963.8,1108.3 1039,1118 1042.4,1118 L1044.5,1118 L1045.7,1046.8 C1046.9,979.2 1046.8,958 1043,641.5 L1039,307.4 L1036.3,300.7 C1034.8,297 1033.2,294 1032.8,294 C1032.4,294 964.8,287.5 882.7,279.5 L733.3,264.9 L518.8,235.2 C315.1,207.1 303.4,205.6 286.3,205.2 C253.6,204.6 222.7,209.3 188.8,220.2 C157.8,230.2 139.3,239.5 98.6,265.6 C54.1,294.2 40.8,302 36.9,302 C26.7,302 11.7,286.7 5.3,269.7 C-0.4,254.5 -1.6,234.5 2.3,218.2 C4.5,209.1 15.3,187.5 23.3,176.5 C41.9,150.6 60.2,129.8 112.4,75 C169.2,15.4 191.4,0 220.4,0 C235.9,0 269.7,9 349.7,34.5 C405.4,52.2 408.8,53.2 507.8,79.4 C603,104.6 613,107 621.8,107 C627.9,107 658.8,112 745.3,127 C786,134 825.4,140.8 832.8,141.9 C840.2,143.1 903.5,150.6 973.3,158.5 L1100.3,173.1 L1268.3,185 L1436.3,196.9 L1567.8,195.5 L1699.3,194.1 L1847.3,183.5 L1995.3,172.9 L2105.3,156.4 C2224.5,138.4 2230,137.8 2243.7,141.4 C2270.8,148.6 2287.4,171.7 2291.9,208.4 C2296.3,244.3 2277.8,274.8 2234.3,303.2 C2198.6,326.6 2140.9,348.5 2074.8,363.8 C2050.2,369.5 2030.6,373 2023.1,373 C2011.2,373 1981.3,367.6 1922.3,354.9 L1885.3,347 L1785.1,343 C1730,340.8 1652.6,338.3 1613.1,337.5 L1541.3,335.9 L1372.3,324.1 C1279.4,317.6 1203.2,312.3 1203.1,312.4 C1202.5,312.9 1219.2,1139.6 1219.9,1140 C1220.4,1140.4 1233.3,1143 1248.5,1145.8 C1276.2,1151 1277,1151.1 1490.3,1172.2 L1704.3,1193.4 L1774.8,1194 C1843.8,1194.7 1857.7,1195.3 1877.3,1198.6 C1908.4,1203.7 1926.6,1213.7 1934.7,1230.2 C1939.7,1240.3 1941.1,1249.1 1940.5,1266 C1939.8,1283.4 1937.7,1292.7 1931.4,1305.5 C1921.9,1324.7 1906.2,1336.7 1873.8,1349.5 C1832.6,1365.7 1757.1,1377.9 1716.5,1374.9 C1696.2,1373.5 1678.3,1368.2 1622.8,1347.5 C1607.1,1341.6 1591.6,1335.9 1588.3,1334.8 C1568.5,1328.3 1456.8,1309.6 1327.3,1291.1 C1293,1286.2 1225.9,1277 1224.2,1277 C1224,1277 1223.8,1347.1 1223.8,1432.8 L1223.7,1588.5 L1229.3,1728.5 C1232.3,1805.5 1235.2,1873.5 1235.7,1879.5 C1237.1,1895.4 1241.8,1920.5 1250.3,1957.5 C1255.5,1980 1256.7,1991 1254.8,1999.1 C1248.3,2026.9 1223.6,2050.6 1176.3,2074.5 C1132.1,2096.8 1067.7,2117.6 998.5,2131.9 C983,2135.1 981.3,2135.3 970.9,2133.9 L970.9,2133.9 Z" id="Shape" sketch:type="MSShapeGroup"></path>
        </g>
    </g>
</svg>