<?xml version="1.0" encoding="UTF-8" standalone="no"?>
<svg width="910px" height="1971px" viewBox="0 0 910 1971" version="1.1" xmlns="http://www.w3.org/2000/svg" xmlns:xlink="http://www.w3.org/1999/xlink" xmlns:sketch="http://www.bohemiancoding.com/sketch/ns">
    <!-- Generator: Sketch 3.0.4 (8054) - http://www.bohemiancoding.com/sketch -->
    <title>Slice 2</title>
    <desc>Created with Sketch.</desc>
    <defs></defs>
    <g id="Page-1" stroke="none" stroke-width="1" fill="none" fill-rule="evenodd" sketch:type="MSPage">
        <g id="Group" sketch:type="MSLayerGroup" transform="translate(455.100000, 985.200000) scale(1, -1) translate(-455.100000, -985.200000) translate(0.600000, 0.200000)" fill="#000000">
            <path d="M392.9,1969.1 C365.4,1966.2 343.2,1954.7 335.7,1939.4 C333.2,1934.3 332.9,1932.6 332.9,1923.7 C332.9,1915 333.2,1913 335.5,1908.1 C341,1896.5 353.4,1880 376.7,1853.5 C385.2,1843.7 390.4,1836.8 393.2,1831.5 C401.1,1816.2 410.5,1784.6 413.8,1761.6 C416.4,1743.6 425.5,1521.4 425.4,1475.4 C425.4,1449.1 426.1,1424.5 427.8,1391.4 C431.2,1327.2 431.2,1327 430.3,1315 C428.8,1296 424.4,1288.8 410.6,1283.4 C378.8,1270.9 272.8,1245.5 218.7,1237.6 C202.5,1235.3 198.9,1235.1 178.9,1235.5 C155.3,1236 146.5,1237.2 129.7,1242.1 C56,1263.7 35.7,1269.2 29.8,1269.2 C23.3,1269.2 15.8,1264.8 11.3,1258.2 C7.1,1252.1 2.4,1239.2 2.4,1233.7 C2.4,1228.6 5.1,1211.1 7.6,1200.8 C14.2,1172.4 21.9,1159.4 46.3,1135.2 C82.1,1099.7 131.3,1071.6 172.5,1063.2 C180.7,1061.5 185.4,1061.1 194.9,1061.4 C205.6,1061.8 208.1,1062.2 217.9,1065.6 C236.3,1071.8 256.1,1080.7 295.9,1100.5 C353,1128.9 369.1,1135.3 398.4,1141.2 C418.6,1145.3 423.4,1145.8 423.5,1144.1 C423.5,1143.3 424.1,1135.3 424.8,1126.2 C425.9,1111.9 425.3,1067.5 420.8,792.2 C417.9,617.6 415.5,472.4 415.4,469.7 C415.4,465 415,464.1 408.8,456.7 C401.4,447.8 399.4,446.3 352.5,416.3 C280.4,370 227.7,339 188.9,320.1 C155.8,303.9 144.9,301.9 130.7,309.4 C121.6,314.1 71,346.5 65.9,350.9 C58.8,357 52,359.5 41.7,360 C33.5,360.4 32,360.2 27,357.9 C13.3,351.6 3.5,333.9 0.4,310 C-0.7,301 0.6,287.6 5.5,258.9 C25.3,141.4 61.9,52.1 104.3,18 C120.5,5 135.1,-0.2 153.4,0.4 C163.1,0.7 164.5,1 171.6,4.4 C176.4,6.7 181.2,9.9 184.2,12.9 C190.3,19 203.9,38.1 231.4,79.2 C257.4,118 258.5,119.3 324.4,185.2 C404.5,265.2 407.5,267.9 506.9,350.3 L595.9,424 L690.9,512.6 C751.7,569.4 789.6,605.4 796.3,613 C828.6,649.7 861,693.9 873.7,719 C881.2,733.7 884.5,743.2 885.1,752.3 L885.7,759.8 L882.3,762.6 C879.3,765.2 878.5,765.4 872.4,765 C866.5,764.7 864.6,764 855.4,758.9 C849.8,755.7 837.4,748.3 828,742.4 C810.8,731.7 641.7,617.6 631.4,609.7 C621.5,602.1 564.5,562.2 563.6,562.2 C560.8,562.2 560.4,585.6 560.4,729.3 L560.4,876.3 L565.9,1032.6 C570.3,1159.3 571.7,1189.8 572.9,1194.1 C575.9,1203.9 584.4,1209.5 600,1211.7 C602.7,1212.1 629.2,1217.8 658.9,1224.4 C767.9,1248.5 791.2,1253.3 811.5,1255.7 C852.2,1260.6 874,1268.6 889.4,1284.1 C898.4,1293.2 903.5,1302.3 906.3,1314.3 C911.8,1337.9 909,1356.8 897.5,1374.4 C890.9,1384.6 885.1,1389.2 868.9,1397.2 C837.7,1412.5 796.2,1423.4 768.4,1423.5 C744.9,1423.5 725.9,1416.8 685.4,1394.3 C661.9,1381.2 621.3,1360.9 609.7,1356.4 C604.3,1354.3 595.2,1351.3 589.5,1349.7 C579.4,1346.9 579.1,1346.8 577.8,1348.7 C577,1349.7 576.4,1352.3 576.4,1354.4 C576.4,1361.3 589.3,1661.4 589.9,1669.2 C590.6,1678.1 593.5,1695.2 600.9,1734.7 C608.6,1775.3 610.4,1788 610.4,1800.9 C610.4,1830 599.9,1853.8 576.9,1876.7 C560.9,1892.7 514.8,1927.6 490.8,1942 C452.3,1965 425.2,1972.5 392.9,1969.1 L392.9,1969.1 Z" id="Shape" sketch:type="MSShapeGroup"></path>
        </g>
    </g>
</svg>