<?xml version="1.0" encoding="UTF-8" standalone="no"?>
<svg width="2345px" height="2484px" viewBox="0 0 2345 2484" version="1.1" xmlns="http://www.w3.org/2000/svg" xmlns:xlink="http://www.w3.org/1999/xlink" xmlns:sketch="http://www.bohemiancoding.com/sketch/ns">
    <!-- Generator: Sketch 3.0.4 (8054) - http://www.bohemiancoding.com/sketch -->
    <title>Slice 2</title>
    <desc>Created with Sketch.</desc>
    <defs></defs>
    <g id="Page-1" stroke="none" stroke-width="1" fill="none" fill-rule="evenodd" sketch:type="MSPage">
        <g id="Group" sketch:type="MSLayerGroup" transform="translate(1172.550000, 1242.200000) scale(1, -1) translate(-1172.550000, -1242.200000) translate(0.100000, 0.500000)" fill="#000000">
            <path d="M1481,2482.8 C1464,2479.9 1447.9,2470.5 1440.4,2459.1 C1436.9,2453.7 1434.5,2443.6 1435.3,2437.1 C1436.4,2427.6 1439.7,2423.4 1458.3,2407.9 C1480.3,2389.6 1493.6,2374.8 1504.5,2356.4 C1516,2336.8 1522.9,2313.5 1522.9,2293.8 C1522.9,2282.3 1516.2,2245.4 1508.3,2213.4 C1502,2188 1499,2186 1460,2180.3 C1438.2,2177.2 884.9,2115.7 883.5,2116.2 C882.3,2116.7 879,2129.2 876.4,2143 C873.5,2158.4 872.7,2173.7 871.9,2226.9 C871.2,2277.6 871,2282 869,2289.7 C862.8,2314 849.7,2328.9 814.4,2351.6 C778.1,2374.9 746.1,2390.7 712.9,2401.7 C687.1,2410.3 666.8,2413.9 644.9,2413.9 C620.9,2413.9 609,2410.4 578.9,2394.7 C571.5,2390.8 565.3,2387.5 565.1,2387.4 C564.4,2386.8 576.4,2363.9 581.6,2355.9 C590.6,2342 599.1,2334.4 632.9,2309.9 C650.9,2296.9 671,2276.1 679.8,2261.6 C683.6,2255.4 707.7,2164.6 712,2140.2 C714.2,2128.1 715.3,2096 713.6,2094.3 C712.1,2092.7 613.8,2077.2 575.4,2072.5 C529.2,2066.8 499.3,2064.9 455.4,2064.9 C383.5,2064.9 354.1,2070.3 308.4,2092.1 C263.7,2113.4 249.1,2117.8 217.2,2119.5 L205.2,2120.2 L202.6,2109.8 C201.1,2104.1 198.8,2095.2 197.4,2090 C190.5,2064.2 197.2,2041.2 219.1,2015.8 C232.9,1999.7 253.4,1984.1 306.9,1948.7 C351.2,1919.4 358.6,1914.8 372.9,1908 C387.8,1900.9 396.9,1898.9 415.1,1898.9 C428.6,1898.9 430.9,1899.2 443.1,1902.3 C450.4,1904.2 473.5,1911.4 494.4,1918.2 C515.3,1925.1 537.1,1932.1 542.9,1933.8 C594.4,1948.7 658.2,1961.9 705.4,1967.3 C721.3,1969.2 740.9,1970.4 740.9,1969.6 C740.9,1966.9 779.5,1752.2 781.3,1744.4 C798,1675.2 838,1627.5 881.9,1624.3 C889.2,1623.7 904.9,1625.6 913.2,1627.9 C918,1629.3 926.6,1636.5 943.9,1653.4 C958.9,1668.1 963.2,1671.3 975.4,1677 C1006.8,1691.5 1047.2,1697.4 1063.3,1689.9 C1070,1686.7 1076.1,1679.4 1079.3,1670.7 C1083.7,1659 1094.3,1602.4 1098.4,1568.9 C1100.4,1552.7 1101.5,1513.5 1100.1,1509.9 C1099.2,1507.6 1097.5,1507 1076.3,1502.1 C1055.4,1497.3 1044.3,1495.6 948.4,1482.9 C851.3,1469.9 599.7,1440.1 572.4,1438.3 C553.2,1437.1 514.2,1440.9 489.5,1446.5 C473.7,1450 466.5,1452.3 446.9,1459.9 C379.5,1486.1 324.9,1495.4 298.2,1485.4 C290,1482.3 269.3,1469.4 258.1,1460.4 C257.5,1459.9 266.9,1439.9 271.2,1432.6 C277.2,1422.5 283.6,1414 301.4,1392.4 C317.8,1372.4 322.2,1366.1 330.3,1350.8 C343.7,1325.4 363.3,1276.2 375.5,1237.6 C377.5,1231.4 395.2,1160.6 415,1080.1 C453.8,922.1 452.7,925.9 465.9,900 C484.7,863.2 507.7,839.1 532.8,829.8 C540.3,827 543,826.5 553.8,826.1 C561.7,825.8 568.2,826.1 571.8,826.9 C590.3,830.9 604.5,845.8 631.9,889.8 C639.6,902.3 643.7,907.9 645.2,908.2 C646.4,908.5 669.9,913.4 697.4,919 C731.3,925.9 801.8,938.6 915.9,958.3 L1084.4,987.5 L1092.9,986.2 C1097.6,985.5 1101.7,984.9 1102.2,984.9 C1102.6,984.9 1102.9,934.4 1102.9,872.7 L1102.9,760.4 L1100.3,748.4 C1098.8,741.8 1097.5,736.2 1097.3,736 C1096.7,735.4 1078.6,731.9 1060.4,728.9 C1036.9,725.1 1005,720.6 941.9,711.9 C913.6,708.1 834.8,696.4 766.9,685.9 C668.2,670.7 614.4,663 499.4,647.8 L355.4,628.7 L331.9,629.2 C296.5,630 258.4,634.3 221.9,641.5 C194.6,646.9 176.7,651.9 92.9,677.9 C32.8,696.6 24.6,699 23.8,698.1 C23.4,697.7 19.4,693.2 15,688 C1.7,672.6 -1.7,663 0.8,648.3 C5.1,623.6 22.8,603.7 71.9,568.2 C81,561.7 99.2,548.4 112.4,538.8 C193.1,479.9 230.5,456.7 258.4,448.2 C266.7,445.7 268.7,445.5 284.9,445.5 C301.7,445.5 303.2,445.6 322.5,449.7 C359,457.3 401,468.1 498.4,494.9 C528.1,503.1 599.9,521.5 657.9,535.8 L763.4,561.9 L884.4,582.9 C1051.2,612 1068.8,614.6 1087.3,613.6 C1092.7,613.2 1097.3,612.8 1097.4,612.7 C1097.6,612.5 1098.2,606.4 1098.8,599 C1100.2,581.4 1100.2,521.5 1098.7,426 C1097.2,328.8 1099,121.5 1101.5,104.2 C1106.1,72.3 1121,37.9 1138.2,19.3 C1151.6,4.9 1163.7,-0.7 1180.3,0.1 C1188.6,0.4 1190.4,0.9 1198,4.5 C1214.4,12.5 1226.6,25.6 1236.9,46.4 C1249.3,71.5 1256.2,100.7 1260.1,144.4 C1261.7,162.8 1261.5,217.1 1259.4,299.2 C1257.2,386.1 1257.7,554.7 1260.2,588.4 C1262,612.5 1263.3,622.5 1265,626.3 C1266.6,629.8 1271.4,631.8 1284.6,634.5 C1306,638.8 1334.3,641 1513.9,651.9 L1693.4,662.9 L1830.9,661.4 L1968.4,660 L2099.2,649.4 C2237.4,638.3 2251.3,637.6 2270.6,640.5 C2318.3,647.5 2344.9,671.8 2344.9,708.4 C2344.9,723.3 2340.9,735.7 2331.8,749.1 C2308.1,783.9 2244.3,813.6 2155.9,830.8 C2122.8,837.2 2105.9,839.3 2084.9,839.3 C2066.4,839.4 2064.4,839.2 2045.4,835.6 C1904.6,808.8 1903.7,808.7 1821.9,801.4 C1723.4,792.6 1264.8,757.5 1263,758.5 C1262.1,759.1 1260.3,761.7 1258.9,764.5 L1256.4,769.4 L1256.1,885.4 C1255.9,997.1 1255.9,1001.5 1257.7,1004.9 C1259.9,1008.9 1265.4,1012.4 1272,1013.8 C1274.5,1014.4 1283.7,1015.5 1292.5,1016.4 C1301.2,1017.3 1330.3,1020.7 1357.2,1023.9 C1448.6,1035.2 1438.8,1034.4 1573.4,1040.6 C1708.3,1046.8 1723.3,1047.1 1768.9,1045 C1815.6,1042.9 1831.7,1044.1 1847.5,1051 C1861,1057 1875.1,1069.5 1884.9,1084.4 C1891.7,1094.8 1903.8,1119.7 1913.2,1142.9 C1917.3,1153.1 1938.3,1207.1 1959.9,1262.9 C1983.7,1324.6 2001.6,1369.5 2005.6,1377.4 C2016.2,1398.8 2030.5,1418.4 2043,1428.9 C2052.2,1436.5 2066.9,1451.1 2071.5,1457.1 C2078.8,1466.6 2080.9,1472 2080.9,1482 C2080.9,1498.7 2074.2,1511.7 2057.6,1527.5 C2038.4,1545.8 2008.8,1563.7 1969.4,1580.9 C1923.7,1600.8 1856.3,1621.5 1843.5,1619.5 C1836.8,1618.4 1820.6,1613.5 1780.9,1600.4 C1760.3,1593.6 1739.1,1586.9 1733.9,1585.5 C1699.4,1576.2 1623.2,1562.4 1579.4,1557.5 C1567.3,1556.1 1515.3,1550.3 1463.9,1544.5 C1412.5,1538.7 1353.5,1531.6 1332.7,1528.8 C1298.2,1524 1294.6,1523.6 1289.6,1524.8 C1282.8,1526.3 1278.2,1529.3 1275.5,1533.8 C1273.6,1537.2 1273.6,1537.2 1276.3,1582.3 C1279.2,1631.7 1279.4,1641.2 1277.8,1649.1 C1274.8,1664.2 1265.6,1685.5 1253,1706.9 C1249.1,1713.4 1245.9,1719.2 1245.9,1719.7 C1245.9,1720.8 1272.8,1727.2 1288.4,1729.9 C1295.9,1731.2 1308.4,1732.3 1321.9,1732.8 C1345.1,1733.7 1344.1,1733.7 1409.9,1730.9 C1486.1,1727.6 1486.8,1727.6 1498,1728.8 C1519.3,1731.1 1531.2,1736.1 1542.5,1747.4 C1548.2,1753.2 1550.5,1756.5 1554.8,1765.2 C1561.1,1778 1564.8,1791.8 1573.9,1836.9 L1580.1,1867.4 L1604.6,1943.4 C1631.2,2026.2 1636.7,2042.6 1641.1,2053.7 C1647.5,2070 1651.8,2076 1659.9,2079.8 C1664.9,2082.2 1666.5,2082.4 1678.4,2082.4 C1685.6,2082.4 1707.8,2081.8 1727.9,2081.2 C1748,2080.5 1783.1,2079.5 1805.9,2078.9 C1844.9,2078 1852.1,2077.5 1924.4,2070.9 C1966.8,2067.1 2003.4,2063.5 2005.9,2062.9 C2016.3,2060.6 2034,2059.5 2059.4,2059.4 C2086.1,2059.4 2086.5,2059.5 2095.2,2062.2 C2112.4,2067.5 2125.7,2075.6 2136.5,2087.2 C2150.5,2102.1 2155.1,2118.4 2151.5,2139.1 C2148.9,2153.7 2140.4,2165.2 2124.3,2175.8 C2104.8,2188.8 2059.2,2208.6 2015.9,2223 C1979.7,2235 1954.6,2240.9 1939.8,2240.9 C1926.4,2240.9 1900.7,2235.5 1820.9,2215.9 C1769.5,2203.3 1766.3,2202.7 1733.4,2200.8 C1715.7,2199.8 1685.5,2200 1684.3,2201.1 C1683.6,2201.9 1687.9,2216.1 1701,2255.8 C1720.7,2315.5 1723.3,2327.5 1719.3,2341 C1709.4,2374.4 1661.6,2416 1595,2449.4 C1573.6,2460.1 1558.5,2466.4 1538.9,2472.9 C1513,2481.6 1493.4,2484.9 1481,2482.8 L1481,2482.8 Z M1432.4,2057.4 C1441.2,2057.1 1452.7,2056.6 1458.1,2056.2 L1467.7,2055.6 L1467.2,2052 C1463.3,2024.7 1445,1954.8 1429.3,1907.5 C1423,1888.6 1412.9,1861.6 1411.7,1860.4 C1411.5,1860.2 1352.9,1853.5 1281.4,1845.4 C1119.7,1827.3 1071.5,1821.3 1033.4,1815 C969.9,1804.3 946.7,1801.9 940.3,1805.2 C928.2,1811.4 917,1838.1 908.6,1880.4 C900.7,1919.8 894.3,1979.1 896.8,1988.6 C899.1,1996.9 907.3,2001.1 928.9,2004.9 C935.2,2006 989.2,2013 1048.9,2020.4 C1145.7,2032.6 1171.1,2035.4 1284.9,2046.3 C1355,2053.1 1413.3,2058.5 1414.4,2058.3 C1415.5,2058.2 1423.6,2057.8 1432.4,2057.4 L1432.4,2057.4 Z M1803.1,1444.9 C1820.5,1442.9 1829.6,1437.1 1831.8,1426.8 C1832.4,1424 1832.7,1420 1832.3,1418 C1831.4,1412.6 1768.7,1225.6 1763.8,1213.7 C1754.6,1191.1 1748.8,1184.3 1734.6,1179.3 C1728.5,1177.1 1717.9,1176.2 1648.9,1171.9 C1597.9,1168.7 1553.4,1164.9 1423.5,1152.9 C1334.4,1144.7 1261.4,1138.1 1261.1,1138.3 C1259.1,1140.4 1257,1344.1 1258.8,1363.2 C1262.4,1400.5 1275.4,1408.2 1345.4,1414.4 C1487.1,1426.8 1653.1,1441 1666.4,1441.8 C1681.4,1442.7 1724.6,1444.5 1750.4,1445.2 C1774.5,1445.9 1795.2,1445.8 1803.1,1444.9 L1803.1,1444.9 Z M1099.6,1376.3 C1102.7,1375.8 1102.8,1375.7 1103.3,1369.6 C1103.6,1366.2 1104.1,1343.8 1104.4,1319.9 C1104.7,1296 1105.8,1254.1 1106.9,1226.9 C1109.9,1151.8 1109.6,1136.9 1104.9,1122.4 L1102.9,1116.4 L899.7,1082.5 C787.9,1063.9 687,1046.9 675.4,1044.8 C631.8,1036.6 618.6,1034.6 607.7,1034.5 C595.6,1034.4 593.2,1035.4 589.2,1042.5 C586.2,1047.7 582.2,1059.9 580.9,1067.9 C580.3,1071.5 578.1,1082.5 575.9,1092.4 C572.3,1108.8 536.9,1295.9 536.9,1298.5 C536.9,1299.8 548.3,1303.1 560.6,1305.5 C577.3,1308.7 660.3,1321 817.4,1343.5 C1007.5,1370.7 1036.1,1374.5 1072.9,1377.3 C1078,1377.7 1094.8,1377.1 1099.6,1376.3 L1099.6,1376.3 Z" id="Shape" sketch:type="MSShapeGroup"></path>
        </g>
    </g>
</svg>