<?xml version="1.0" encoding="UTF-8" standalone="no"?>
<svg width="1582px" height="2226px" viewBox="0 0 1582 2226" version="1.1" xmlns="http://www.w3.org/2000/svg" xmlns:xlink="http://www.w3.org/1999/xlink" xmlns:sketch="http://www.bohemiancoding.com/sketch/ns">
    <!-- Generator: Sketch 3.0.4 (8054) - http://www.bohemiancoding.com/sketch -->
    <title>Slice 2</title>
    <desc>Created with Sketch.</desc>
    <defs></defs>
    <g id="Page-1" stroke="none" stroke-width="1" fill="none" fill-rule="evenodd" sketch:type="MSPage">
        <g id="Group" sketch:type="MSLayerGroup" transform="translate(790.700000, 1112.700000) scale(1, -1) translate(-790.700000, -1112.700000) translate(0.400000, 0.200000)" fill="#000000">
            <path d="M1360.1,2223.2 C1347.3,2220.6 1334.7,2217.3 1296.6,2206.7 C1278.2,2201.5 1259.3,2196.4 1254.6,2195.2 C1249.9,2194.1 1192.1,2185.3 1126.1,2175.7 C1032,2162 957,2152 778.6,2129.1 C653.5,2113.1 545.9,2099.7 539.6,2099.3 C517.9,2097.9 479,2100.7 458.2,2105.2 C447.8,2107.5 424.1,2114.4 364.6,2132.7 C310.1,2149.4 293.8,2153.5 286.6,2152.8 C272.3,2151.4 259.3,2144.8 247,2132.7 C235.9,2121.8 232.2,2114.6 232.1,2104.1 C232.1,2097.4 232.5,2095.8 235.8,2089.1 C240.1,2080.6 249,2070 259.1,2061.4 C263,2058.1 276.3,2045.1 288.8,2032.4 C314,2006.9 319.6,1999.5 327.8,1981 C342.8,1947.3 356.7,1891.1 363,1837.7 C364.1,1828.5 365.1,1778.2 367.3,1622.7 L370,1419.7 L366.3,1294.2 L362.5,1168.7 L352.5,1038.2 C347.1,966.4 341.7,896.5 340.5,882.7 C338.5,857.8 338.5,857.5 319.5,762.4 C309,709.9 298.7,660.5 296.5,652.5 C290.9,632 280.4,597.9 259.1,530.7 C249,498.8 239.1,467.4 237.2,461 C235.1,454.1 230.8,443.7 226.8,435.5 C222.9,427.9 211,402.8 200.1,379.7 C153.5,280.5 130.7,236 100.8,186.2 C83.7,157.6 70.9,138.8 54.4,118.2 C25.5,81.9 4.7,53.2 0.9,44.3 C-0.9,40 1.76747506e-13,36 3.8,31.6 C15.4,18.4 34.9,22 66.1,43 C130.9,86.5 231.2,198.5 301.8,306.2 C375.8,419.1 418.2,511.3 455.1,640.2 C462.2,664.9 475.2,715.6 481.1,742.2 C491.7,789.1 514.7,898.3 517.1,912.9 C518.5,921.5 519.8,928.8 520.1,929 C520.3,929.2 566.5,935.2 622.8,942.3 C706.2,952.8 763.1,959.1 930.6,976.7 C1134.3,998.1 1137.1,998.3 1248.1,1006.7 C1309.7,1011.4 1361,1015.2 1362.2,1015.2 C1366.4,1015.2 1366.6,1005.5 1366.6,842.2 C1366.6,718.3 1366.1,664.2 1364.2,553.7 C1361.5,403.9 1361.3,397.2 1359,379.2 C1353.4,334.9 1338.2,310.6 1311.6,303.7 C1305.9,302.2 1301.3,302 1274.6,302.5 C1220.6,303.5 1158.6,309.1 1077.6,320.1 C991.6,331.9 987.9,332.2 979.4,328.9 C965.6,323.6 966.6,311.5 981.7,299.5 C990.5,292.6 997.6,288.4 1022.6,275.5 C1107,232.1 1208.2,164.2 1249,123.8 C1254.1,118.8 1267.1,103.7 1278.1,90.2 C1324.8,32.9 1343.4,13.5 1360.3,4.8 C1369,0.4 1389.9,-1.5 1401.1,1.2 C1456.8,14.6 1511.8,129.3 1526.6,262.7 C1529.7,290.5 1530.5,324.1 1531.7,483.2 C1532.5,595.5 1532.5,696.6 1531.5,907.2 L1530.3,1183.7 L1535.5,1472.2 L1540.7,1760.7 L1550.2,1884.7 C1560.6,2020.3 1559.3,2009.6 1569.2,2043.2 C1576.8,2068.8 1580.6,2084.7 1580.6,2090.9 C1580.6,2102.8 1574.5,2113.4 1558.2,2129.8 C1541,2147 1520,2162.3 1489.7,2179.6 C1452.5,2201 1408,2219.5 1384.2,2223.7 C1373.4,2225.5 1371.5,2225.5 1360.1,2223.2 L1360.1,2223.2 Z M1323,2043.3 C1349.3,2036.3 1366.4,2018.9 1373.7,1991.7 C1375.3,1985.7 1376,1979.8 1376.3,1968.2 C1377.1,1941.4 1368,1695.1 1366.1,1692.5 C1365,1690.9 548.3,1593.2 547,1594.5 C546.2,1595.2 543.9,1666.4 540.1,1799.7 C538.2,1867.9 536.4,1928.9 536.1,1935.3 L535.6,1946.8 L542.3,1948.1 C546.1,1948.8 560.8,1952 575.1,1955.2 C611.3,1963.4 623.8,1965.8 643.7,1968.2 C653.3,1969.4 800.8,1987.4 971.6,2008.2 L1282.1,2046.1 L1298.6,2045.8 C1311.4,2045.5 1316.9,2044.9 1323,2043.3 L1323,2043.3 Z M1361.6,1359.9 L1361.6,1164.6 L1350.6,1161.9 C1335.5,1158.1 1341.5,1158.7 1173.1,1143.2 C1156.1,1141.6 1010.6,1125.7 850,1107.8 C626.6,1082.9 555,1075.2 545.7,1075.2 L533.6,1075.2 L533.6,1083.5 C533.6,1088 534.7,1120.7 536.1,1156.2 C537.4,1191.7 539,1239.8 539.6,1263.2 C540.2,1286.6 541.1,1315.6 541.6,1327.7 C542.2,1339.8 543.1,1367 543.7,1388.2 C544.8,1430.9 545.9,1452.8 546.9,1453.8 C548.4,1455.4 762.7,1483.9 929.1,1504.8 C1098.2,1526 1343.1,1554.8 1355.9,1555.1 L1361.6,1555.2 L1361.6,1359.9 L1361.6,1359.9 Z" id="Shape" sketch:type="MSShapeGroup"></path>
        </g>
    </g>
</svg>