<?xml version="1.0" encoding="UTF-8" standalone="no"?>
<svg width="915px" height="2149px" viewBox="0 0 915 2149" version="1.1" xmlns="http://www.w3.org/2000/svg" xmlns:xlink="http://www.w3.org/1999/xlink" xmlns:sketch="http://www.bohemiancoding.com/sketch/ns">
    <!-- Generator: Sketch 3.0.4 (8054) - http://www.bohemiancoding.com/sketch -->
    <title>Slice 2</title>
    <desc>Created with Sketch.</desc>
    <defs></defs>
    <g id="Page-1" stroke="none" stroke-width="1" fill="none" fill-rule="evenodd" sketch:type="MSPage">
        <g id="Group" sketch:type="MSLayerGroup" transform="translate(457.500000, 1074.500000) scale(1, -1) translate(-457.500000, -1074.500000) translate(0.000000, 0.500000)" fill="#000000">
            <path d="M736.5,2147.8 C726.1,2146.5 717.2,2142.4 679.5,2121.4 C663.9,2112.8 650.4,2106 643.5,2103.5 C611.4,2091.6 541.9,2073.7 488.5,2063.6 C436.8,2053.8 400.3,2049.5 370,2049.5 C335.3,2049.5 323,2053.6 260,2086.4 C212.7,2111 197.6,2117.2 182.5,2118.2 C171.9,2118.9 164.9,2117.3 153.7,2111.8 C141.3,2105.6 130,2094.5 124.5,2083.2 C121.2,2076.5 120.6,2074.2 120.2,2067.1 C119.5,2053.4 123,2048.1 143.3,2031.8 C196.7,1989.3 204.3,1980.3 211.1,1952 C224,1897.3 235.4,1708.3 241,1454.5 C245.7,1240.6 234.9,1004.9 211,801.5 C197.8,689.5 175.8,554.8 158.4,479.5 C134.6,376.3 101,282.3 50,176.5 C42.4,160.8 30,135 22.3,119 C2,76.9 0,71.3 0,55.8 C0,44.2 1.5,36.9 4.6,33.8 C6.7,31.7 7.6,31.5 11.8,32.1 C41.1,36.3 80.6,75.3 127.9,146.5 C210.9,271.5 288.9,456.1 329.9,624.5 C343.2,679 346,694.7 366,824.7 C374.8,881.9 382.5,930.8 383.2,933.4 C385.8,944.2 390.2,949.1 400.2,952.4 C403.7,953.5 454,963.8 512,975.4 C609.3,994.8 619.2,996.5 639.5,998.4 C664.7,1000.8 695.6,1003.2 711.1,1003.9 L721.7,1004.4 L723,991.2 C724,980.1 723.6,929.8 720.1,670 C715.8,353.1 715.8,353.2 711.7,335.5 C707.5,317.7 698.8,300.8 689.9,293.2 C687.5,291.1 683.1,288.2 680,286.7 C674.9,284.2 673.4,284 659.9,283.7 C629.8,283 594.6,289.5 553.9,303.4 C529,311.9 504.3,322.1 454.2,344.9 L432.9,354.6 L419.9,354.3 L406.9,354 L412.5,348 C416.4,343.8 420.3,337.7 425.7,327.5 C434.4,310.8 442.3,298.3 448.9,290.6 C451.4,287.6 469.3,270.3 488.5,252.2 C538,205.4 575.6,167.6 586.6,153.2 C599.6,136.4 605.9,124.8 624.4,83.4 C647.4,31.9 652.4,22.4 661.2,12.9 C669.8,3.6 678.4,0.5 696.2,0.5 C717.5,0.5 734.2,5.8 754.5,19.2 C766.9,27.4 786.7,47 796,60.2 C828.9,107 849.2,172 858,258.5 C871.1,388.6 878,642 880,1076 C880.7,1220.7 881.3,1268.1 882.4,1289.5 C884.8,1331.5 885.9,1428.8 886,1582.1 C886,1741.7 886.4,1754.9 893.6,1859.5 C896.1,1896.6 896.2,1897.4 903.5,1937.5 C915.7,2004.6 916.6,2013.8 912.2,2026.7 C901.1,2059.1 853.3,2102.3 798.1,2129.9 C772.6,2142.7 749.5,2149.4 736.5,2147.8 L736.5,2147.8 Z M715.2,1989.9 C723.3,1985.7 727.8,1970.7 731.5,1935 C735.5,1896.4 735.5,1884.6 732.6,1753.5 C731.1,1685.6 729.5,1627.3 729,1624.1 C727.8,1616.7 724.6,1613 717.5,1611 C714.8,1610.2 643.4,1593.6 559,1574 L405.6,1538.4 L403.8,1540.7 C402.9,1542 401.6,1543.9 401.1,1545 C399.4,1548.3 392,1813.9 392,1869.8 C392,1900.7 392.4,1918.3 393,1919.6 C396.1,1925.3 408.8,1928.7 512.5,1951.5 C564.8,1963 619.9,1975.3 635,1978.8 C668.2,1986.6 679.7,1989.1 691.5,1990.9 C701.3,1992.4 710.9,1992 715.2,1989.9 L715.2,1989.9 Z M726.7,1352.3 L726.4,1226 L723.3,1192.5 C721.6,1174.1 719.9,1154.9 719.5,1150 L718.8,1141 L701.2,1136.3 C648.7,1122.3 588,1109.8 452.5,1085.1 C416.3,1078.4 395.3,1075 394.9,1075.7 C393.4,1078.1 391.5,1099.3 391.6,1113 C391.7,1127.9 401.4,1385.6 402.6,1403.2 L403.2,1412.4 L410.8,1416.3 C428.2,1425.3 436.2,1427.1 587.5,1456 C695.2,1476.6 705.4,1478.4 715.8,1478.4 L727.1,1478.5 L726.7,1352.3 L726.7,1352.3 Z" id="Shape" sketch:type="MSShapeGroup"></path>
        </g>
    </g>
</svg>