<?xml version="1.0" encoding="UTF-8" standalone="no"?>
<svg width="1887px" height="2453px" viewBox="0 0 1887 2453" version="1.1" xmlns="http://www.w3.org/2000/svg" xmlns:xlink="http://www.w3.org/1999/xlink" xmlns:sketch="http://www.bohemiancoding.com/sketch/ns">
    <!-- Generator: Sketch 3.0.4 (8054) - http://www.bohemiancoding.com/sketch -->
    <title>Slice 2</title>
    <desc>Created with Sketch.</desc>
    <defs></defs>
    <g id="Page-1" stroke="none" stroke-width="1" fill="none" fill-rule="evenodd" sketch:type="MSPage">
        <g id="Group" sketch:type="MSLayerGroup" transform="translate(943.650000, 1226.250000) scale(1, -1) translate(-943.650000, -1226.250000) translate(0.500000, 0.400000)" fill="#000000">
            <path d="M738.5,2451 C730.9,2449.9 713.5,2444.1 698.5,2437.8 C689.2,2433.9 688,2433.1 688.1,2431 C688.2,2429.7 690.7,2418.9 693.8,2407.1 C702.8,2372.1 704.8,2362 704.9,2349.6 C705,2337.2 704.4,2335.1 696.5,2318.3 C674.7,2272.4 617.1,2200.8 538.4,2122.2 C422,2005.8 273.2,1885.2 91.5,1760.2 C46.3,1729 21.4,1709.8 10.6,1697.5 C3.6,1689.5 3.6,1689.4 10,1686.5 C23.3,1680.4 34.7,1679.5 48.8,1683.6 C78.8,1692.3 143.9,1720.6 213.5,1755.2 C426.7,1861 630.8,1997.4 774,2129.6 C801.8,2155.4 817.5,2168.2 838.5,2182.3 C860,2196.8 882.3,2208.2 889.3,2208.3 C890.8,2208.3 902.1,2204.6 914.5,2200.1 C936.9,2191.9 953.2,2187.1 958.6,2187.1 C960.1,2187.1 1018,2197.5 1087.2,2210.1 C1207.2,2232 1213.5,2233.1 1225.3,2233.1 C1232.5,2233.1 1248.2,2234.3 1263.3,2236.1 C1300.6,2240.4 1308.2,2240.9 1315.7,2240 C1324,2239 1330.2,2236 1331.1,2232.6 C1333.5,2223.1 1326.9,2212.2 1256.5,2109.6 L1194.1,2018.6 L1101.2,1901.6 C1050,1837.3 1008,1784.3 1007.6,1783.9 C1007.3,1783.5 886.9,1771.7 740,1757.6 C538.4,1738.2 470.9,1732 464.5,1732.4 C454.5,1733 442,1737.1 408.9,1750.7 C372.7,1765.5 360.1,1769.9 339.2,1774.5 C314.2,1780.1 288.4,1781.8 276,1778.6 C256.1,1773.4 245.2,1757.8 245.1,1734.6 C245,1727.3 245.4,1725.6 249.9,1714.6 C252.6,1708 260.8,1690.2 268.2,1675.1 C284.9,1640.8 287.6,1631.9 293.9,1590.1 C311.8,1471.6 321.5,1178.3 313.5,1002.1 C300.3,715.2 252.2,503.5 155.1,305.6 C119.8,233.6 85.7,177.2 30,98.1 C4.7,62.2 0.1,54.7 0,49.4 C0,41.7 8.5,35.7 23.9,32.5 C33.1,30.5 37.6,31.3 47.6,36.3 C67.9,46.4 101.3,77 144,124.6 C160.6,143.1 191.7,178.9 205.5,195.6 C296,304.4 360.5,424.9 410.8,578.6 C420.3,607.5 420.8,609.9 437.5,699.3 C443,728.8 447.8,753.6 448.1,754.5 C448.4,755.3 449.9,756.2 451.3,756.5 C458.7,758 583,775.7 634,782.5 C658.1,785.8 1059.4,823.1 1069.9,823.1 C1074.2,823.1 1148.2,827.4 1234.3,832.6 L1391,842 L1535.3,844.7 C1614.7,846.1 1679.8,847.1 1680,846.9 C1680.9,846 1675.3,580 1673,511.6 C1667,335.5 1666.7,329.1 1664.7,322 C1659,301.9 1644.3,291.4 1613.2,285.4 C1598.8,282.6 1540.1,282.9 1509.5,285.9 C1481.5,288.7 1458.6,291.5 1438.5,294.6 C1422.1,297.1 1386.1,301.3 1366,303.1 C1335.2,305.7 1319.9,302.8 1314.9,293.5 C1313.6,291.1 1313.3,288.7 1313.7,283 C1314.9,265.1 1320.1,261.3 1397.5,222 C1424.2,208.5 1455.1,192.2 1466.2,185.8 C1552.1,136.4 1609.4,88.4 1646.7,34.3 C1655.4,21.8 1666.1,10 1672.2,6.4 C1680.3,1.7 1687.8,-6.82121026e-13 1701,-6.82121026e-13 C1718.8,-6.82121026e-13 1732.6,4.6 1748,15.6 C1770.9,31.9 1794.6,64.3 1810.1,100.1 C1825.3,135.4 1833.9,186 1837.6,262.1 C1838.4,279.8 1838.4,390.7 1837.4,710.1 C1836,1189.7 1836.4,1264.6 1840.5,1370.1 C1841,1384.1 1841.9,1413.4 1842.5,1435.1 C1844.4,1510.2 1846.5,1548.5 1850.1,1574.4 C1851,1581.6 1854.8,1596.8 1860.5,1617.1 C1883.7,1699 1889,1725.9 1885.1,1741.1 C1880.5,1759 1865.9,1777 1838.1,1799.3 C1823,1811.4 1757,1858.4 1745.1,1865.6 C1730.8,1874.2 1724.3,1876.1 1709.9,1876.1 C1690.5,1876.1 1675.5,1872.2 1627.7,1855 C1583.1,1838.8 1571.1,1836.5 1492.5,1829.1 C1461.2,1826.1 1146.2,1799.3 1145.8,1799.6 C1145.7,1799.6 1178.7,1829.9 1219.3,1866.8 C1284,1925.7 1305.5,1946.1 1395,2033.6 L1496.9,2133.2 L1507.5,2138.8 C1542.7,2157.6 1607.8,2195.5 1619.7,2204.3 C1645.4,2223.2 1653.1,2248.4 1641.2,2274.5 C1632,2294.6 1606.2,2320 1572,2342.8 C1549,2358.2 1513.7,2376.6 1492,2384.6 C1461.2,2396 1449.3,2395.9 1405,2383.5 C1360.3,2371.1 1341.9,2366.9 1313,2362.6 C1290.7,2359.2 1075.9,2335.3 1057.1,2334.1 C1048.8,2333.5 1025.6,2331.7 1005.5,2330 C981.9,2328 965.2,2327.1 958.3,2327.3 C948.1,2327.7 947.1,2328 939.3,2331.9 C928.7,2337.2 916.7,2346.2 875.5,2380.2 C857.1,2395.4 837,2411.6 831,2416.3 C807.3,2434.8 789.1,2445.2 774,2449.1 C764.6,2451.5 747.8,2452.4 738.5,2451 L738.5,2451 Z M1661.6,1700.9 C1663.4,1699.1 1665.8,1695.4 1667,1692.6 C1672.3,1680.7 1672.3,1681.1 1675.1,1547.3 C1676.5,1478.4 1677.5,1421.8 1677.3,1421.6 C1677.2,1421.4 1666.4,1420.8 1653.5,1420.2 C1571.2,1416.1 1344.1,1401.9 1245.6,1394.6 C1182.7,1389.9 1131,1386.2 1130.8,1386.4 C1130.6,1386.7 1131.1,1398.5 1131.9,1412.7 C1132.8,1427 1133.9,1453.2 1134.5,1471.1 C1135.4,1498.3 1136.2,1507.8 1139,1529.6 C1147.5,1593.5 1149.5,1614.2 1148.3,1626.2 C1147.2,1638.1 1140.6,1651.2 1129.8,1663 L1123.5,1669.9 L1128.8,1670.5 C1131.6,1670.8 1191.8,1676.3 1262.5,1682.6 L1391,1694.1 L1510.5,1699 C1576.2,1701.7 1636.4,1703.9 1644.2,1704 L1658.3,1704.1 L1661.6,1700.9 L1661.6,1700.9 Z M929.3,1650.9 C955.4,1619.7 963.4,1595.8 967.6,1536.1 C968.2,1527.6 968.9,1487.4 969.2,1446.9 L969.8,1373.1 L952.5,1373.1 C938.4,1373.1 897,1369.8 733.1,1355.6 C565.4,1341.1 483.4,1334.5 482.9,1335.4 C482.5,1336.4 472.6,1605.5 473,1605.9 C475.1,1608 898.5,1658.5 918.2,1659 C922.3,1659.1 922.6,1658.9 929.3,1650.9 L929.3,1650.9 Z M1677.8,1244.9 L1680.5,1202.6 L1679,1095.1 C1678.2,1036 1677.6,987.5 1677.5,987.4 C1677.5,987.2 1666.4,987.1 1652.8,987.1 C1616.7,987.1 1519.1,984.2 1451.5,981.1 C1430.1,980.1 1143.2,961.8 1127.6,960.5 L1120.2,959.8 L1120.8,1016.2 C1121.2,1047.2 1121.8,1109.5 1122.1,1154.6 C1122.5,1219 1123,1239.1 1124.1,1248.1 C1125,1254.4 1125.7,1259.7 1125.9,1259.8 C1126,1259.9 1150.4,1262.3 1180.1,1265.1 C1231.9,1270 1240.8,1270.6 1406,1278.6 C1566.8,1286.3 1581.2,1286.9 1626.5,1287 L1675.1,1287.1 L1677.8,1244.9 L1677.8,1244.9 Z M969,1168.4 C968.6,1123.9 968,1055.9 967.6,1017.1 L967,946.7 L717.6,918.9 C580.4,903.6 467.9,891.3 467.7,891.6 C467.4,891.9 469.6,932.5 472.5,981.8 L477.8,1071.6 L476.6,1114.1 C475,1171.7 475.1,1191.3 476.9,1195.6 C480.5,1204.1 490.9,1207.1 531.4,1211.1 C548.3,1212.8 572.6,1215.5 585.5,1217.1 C626.2,1222.2 933.9,1247.9 965.9,1249 L969.7,1249.1 L969,1168.4 L969,1168.4 Z" id="Shape" sketch:type="MSShapeGroup"></path>
        </g>
    </g>
</svg>