<?xml version="1.0" encoding="UTF-8" standalone="no"?>
<svg width="1191px" height="2362px" viewBox="0 0 1191 2362" version="1.1" xmlns="http://www.w3.org/2000/svg" xmlns:xlink="http://www.w3.org/1999/xlink" xmlns:sketch="http://www.bohemiancoding.com/sketch/ns">
    <!-- Generator: Sketch 3.0.4 (8054) - http://www.bohemiancoding.com/sketch -->
    <title>Slice 2</title>
    <desc>Created with Sketch.</desc>
    <defs></defs>
    <g id="Page-1" stroke="none" stroke-width="1" fill="none" fill-rule="evenodd" sketch:type="MSPage">
        <g id="Group" sketch:type="MSLayerGroup" transform="translate(595.300000, 1180.600000) scale(1, -1) translate(-595.300000, -1180.600000) translate(0.300000, 0.100000)" fill="#000000">
            <path d="M503.7,2359.7 C492.3,2356.7 483.4,2351.5 468.5,2339.2 L459.7,2332 L459.7,2320.7 L459.7,2309.4 L469.6,2289 C484.3,2258.7 488.7,2246.3 488.7,2235.1 C488.7,2213.4 466.1,2165.3 424.9,2099.1 C401.2,2061 364,2007.1 334.7,1968.1 C319,1947.2 319.4,1947.7 249.1,1861 L190.2,1788.4 L101.2,1693.7 C52.3,1641.6 12.1,1598.7 11.9,1598.2 C11.2,1596.2 16.3,1585.3 19.3,1582.4 C22,1579.6 23.2,1579.1 27.4,1579.1 C42,1579.1 82.3,1596.5 120.2,1619.1 C133.6,1627.1 166.9,1648.7 180.9,1658.6 L187.6,1663.3 L191.4,1659 C193.5,1656.6 201.4,1647.9 209,1639.6 C227.2,1619.8 236.9,1607.8 242.3,1598.3 C261.5,1564.8 270.5,1508.2 275.8,1388.1 C277.5,1350.8 278.1,1174.7 276.8,1116.1 C269.5,789.8 238.3,586.7 170.5,426.6 C141.1,356.9 104,293.8 39.7,204.1 C4.9,155.5 2.6,151.8 0.6,141.7 C-0.3,137.5 -0.2,135.2 1.1,130 C2,126.5 3.3,123.1 4,122.5 C4.7,121.9 7.4,120.8 10,120.2 C14.4,119.1 15.2,119.3 21.5,122 C66,141.6 130.2,195.6 186.1,260.6 C247.3,331.7 295.2,408.6 326.4,485.6 C335,506.8 338.9,520 351.7,570.1 C375,661.4 385.8,695.2 393.9,702.8 C405.7,713.8 475.1,731.6 564.2,746.5 C609.3,754 623.2,755.6 765.7,769.1 C841.3,776.3 914,783.3 927.2,784.6 C957,787.7 976.7,789 983.3,788.4 L988.3,787.9 L987.4,782.7 C986.9,779.9 986.2,676.6 985.8,553.1 C985,309.8 985.3,322.8 979.7,306.7 C974,290.1 963.7,281.2 945.3,276.8 C937.1,274.9 863,275.3 838.7,277.4 C812.2,279.8 777.1,283.5 747.9,287.2 C734.6,288.9 722.7,290.1 721.5,289.9 C720.1,289.7 719,288.4 718.1,285.8 C716.8,282 716.8,281.9 722.2,273.6 C725.2,269 730.1,263.2 733,260.7 C735.8,258.1 756.4,243 778.7,227 C850.1,175.7 881.6,151.3 908.5,126.8 C924.5,112.2 937.5,98.4 973.9,57.6 C1011.9,14.9 1021.8,5.4 1033.1,1.5 C1043.2,-2.1 1082.1,1.4 1086.7,6.3 C1087.7,7.4 1091,11.7 1094,15.9 C1120.9,53.3 1138.2,95.5 1144.6,139.7 C1147.2,157.1 1147.2,165.2 1144.7,197.1 C1143.6,211.1 1142.4,229.8 1142.1,238.6 C1141.8,247.4 1142.2,492 1143.1,782.1 L1144.7,1309.6 L1148.6,1419.6 C1153.1,1544.4 1151.7,1530.4 1162.5,1555.1 C1165.2,1561.4 1171.3,1575.4 1176,1586.1 C1185.2,1607.4 1189.7,1620.3 1189.7,1625.7 C1189.7,1650.5 1133.1,1715.9 1083.2,1748.7 C1060.6,1763.6 1045.9,1769.3 1030.7,1769.3 C1017.6,1769.3 1012.3,1767.7 983.7,1755.4 C953.7,1742.4 947.3,1740.2 926,1735.6 C903.9,1730.7 753.4,1701 753,1701.4 C752.8,1701.6 790.8,1752.7 837.5,1814.9 C884.1,1877.2 925.8,1933.1 930.2,1939.2 C955.4,1974.3 991.4,2012.8 1014.7,2029.5 C1018.9,2032.6 1029.7,2039.1 1038.8,2044.1 C1080.4,2067.3 1084.6,2071.2 1085.5,2087.6 C1086.1,2098 1084.1,2105.8 1077.8,2117.7 C1071.2,2130.3 1063.5,2140.3 1049.2,2154.9 C1012.2,2192.9 962.8,2222.1 935.6,2222.1 C924.5,2222.1 913.1,2217.1 862.7,2189.8 C837.3,2176.1 830.2,2173.2 811.9,2168.5 C780.4,2160.6 672.2,2141.3 670.2,2143.2 C670,2143.4 674.8,2151.7 680.8,2161.6 C695.1,2185.1 701.3,2197.3 703.7,2206.7 C706,2215.8 706.3,2228.3 704.3,2235.7 C696.2,2266.3 651.4,2304.6 586.7,2336.5 C546.2,2356.5 519.9,2363.8 503.7,2359.7 L503.7,2359.7 Z M806.7,2043.9 C808,2041.4 808,2040.5 806.5,2034.7 C802.1,2017.9 774.3,1963.2 753.2,1929.6 C749.7,1924.1 715.1,1865.4 676.2,1799.1 C637.3,1732.8 605.4,1678.5 605.3,1678.4 C603.9,1676.9 530,1664.1 491.7,1658.7 C433.6,1650.4 414.3,1650 395.7,1656.6 C384,1660.8 342.3,1684.8 320.2,1700.1 C314.7,1704 301.8,1711.3 291.4,1716.3 C281.1,1721.4 272.8,1725.9 272.9,1726.2 C273.1,1726.6 281.3,1733.6 291.2,1741.8 C310.5,1757.8 320.4,1766.4 341.6,1785.5 C349,1792.2 403.5,1848.2 462.8,1910 L570.7,2022.4 L600.4,2022.6 C632.9,2022.8 652.2,2024.3 673.3,2028.6 C695.7,2033.1 749.2,2041.5 786.2,2046.4 C787.9,2046.7 792.8,2046.8 797.2,2046.7 C804.7,2046.6 805.2,2046.5 806.7,2043.9 L806.7,2043.9 Z M957.3,1608.9 C963.2,1606.8 970.2,1600 973.7,1593 C979.8,1581.1 982.2,1568.8 983.8,1539.6 C985.2,1516.1 985.5,1408.5 984.3,1376.1 L983.5,1353.5 L963.3,1350.2 C882.3,1336.8 838.8,1331.8 765.8,1327.6 L754.4,1326.9 L755,1371.3 C755.4,1395.6 756.2,1429.3 756.8,1446.1 C758.8,1500.5 757,1533.9 750.2,1568.7 C748.9,1575.7 747.9,1581.6 748.1,1581.8 C748.3,1582 756.5,1583.5 766.3,1585.1 C776.2,1586.7 809.6,1592.2 840.7,1597.5 C928.3,1612.2 944.2,1613.8 957.3,1608.9 L957.3,1608.9 Z M588.5,1544.4 C604.1,1497.1 612.7,1432.5 612.7,1363.1 C612.7,1343.9 611.1,1304.2 610.3,1303.3 C609.6,1302.7 442.7,1276.8 442.2,1277.3 C441.4,1278.1 433.7,1491.8 433.7,1513.7 L433.7,1533.7 L445.5,1535 C476.1,1538.1 538.8,1547.9 567.7,1554 C575.1,1555.6 581.9,1556.9 582.7,1557 C583.8,1557.1 585.4,1553.5 588.5,1544.4 L588.5,1544.4 Z M985.7,1075.2 L985.7,922.3 L977.5,921.1 C959.8,918.6 750.2,890.4 750.2,890.5 C750.1,890.5 750.7,956.5 751.4,1037.1 C752.6,1181.3 753.2,1201.8 756.1,1205.5 C757.6,1207.4 806.7,1214.5 850.2,1219 C890.9,1223.3 941.6,1226.8 971.2,1227.4 C977.8,1227.6 983.8,1227.8 984.5,1227.9 C985.4,1228.1 985.7,1197 985.7,1075.2 L985.7,1075.2 Z M610.3,1162.4 C610,1151.5 608.8,1085.7 607.7,1016.1 C606,912.2 605.4,888.7 604.1,884.5 L602.7,879.3 L591.4,876.2 C570.1,870.4 544.9,865.3 502.2,858.2 C476.8,853.9 415.5,844.9 415.2,845.3 C414.8,846.1 439,1149.7 439.6,1150.3 C441.3,1152.2 598.8,1181.8 608.6,1182 L611,1182.1 L610.3,1162.4 L610.3,1162.4 Z" id="Shape" sketch:type="MSShapeGroup"></path>
        </g>
    </g>
</svg>