<?xml version="1.0" encoding="UTF-8" standalone="no"?>
<svg width="2084px" height="1659px" viewBox="0 0 2084 1659" version="1.1" xmlns="http://www.w3.org/2000/svg" xmlns:xlink="http://www.w3.org/1999/xlink" xmlns:sketch="http://www.bohemiancoding.com/sketch/ns">
    <!-- Generator: Sketch 3.0.4 (8054) - http://www.bohemiancoding.com/sketch -->
    <title>Slice 2</title>
    <desc>Created with Sketch.</desc>
    <defs></defs>
    <g id="Page-1" stroke="none" stroke-width="1" fill="none" fill-rule="evenodd" sketch:type="MSPage">
        <g id="Group" sketch:type="MSLayerGroup" transform="translate(1042.000000, 829.800000) scale(1, -1) translate(-1042.000000, -829.800000) translate(0.000000, 0.800000)" fill="#000000">
            <path d="M651.5,1657.2 C619.6,1653.5 598.7,1643.2 591.5,1627.6 C588.1,1620.4 588,1607.6 591.1,1601.1 C592.3,1598.6 599.2,1590.4 606.9,1582.5 C618.3,1570.6 621,1567.1 623.8,1561.1 C645.6,1513.5 616.4,1425.1 537.2,1298.6 C497,1234.5 422.5,1129.1 362.5,1051.8 C266.8,928.3 165.2,818.1 62.5,726.3 C22,690.2 11.7,679.7 3.8,666.6 C0.7,661.5 -4.54747351e-13,659.5 -4.54747351e-13,655.1 C-4.54747351e-13,642.6 10.7,632.2 24.6,631 C48.1,629.2 94.3,651.3 155.9,693.9 C234.1,748.2 355.1,849.8 433.8,927.3 C454.2,947.3 460.7,954.8 523.5,1029.8 C544.9,1055.4 573.8,1089.9 587.8,1106.6 L613.1,1136.8 L618.3,1132.9 C637.6,1118.7 670.3,1104.5 694.8,1099.8 C717.6,1095.4 728.8,1096.6 828.5,1114.3 C856.9,1119.4 926.7,1129.9 1044.5,1146.7 C1193.6,1168.1 1240.4,1174.4 1372,1190.7 C1515.7,1208.5 1533.5,1210.5 1650.5,1221.8 C1719.3,1228.5 1781.6,1234.2 1789,1234.5 C1812.6,1235.5 1825.7,1232.3 1834.6,1223.4 C1843.7,1214.3 1846,1204.5 1846,1174.3 C1846,1150.3 1844.8,1132.1 1841.5,1105.3 C1840.1,1094.3 1834.7,1048.6 1829.5,1003.8 L1820,922.3 L1791.9,782.8 L1763.8,643.3 L1726.3,519.8 C1705.6,451.9 1686.8,391.6 1684.4,385.8 C1675.7,364.2 1635,277.3 1628.9,267.2 C1623.8,258.9 1617.8,252.6 1611.9,249.3 L1606.5,246.3 L1588.5,246.3 C1569.4,246.4 1560.5,247.4 1532,252.9 C1502.6,258.6 1465.4,268.1 1425.5,280 C1370.3,296.4 1359.9,299.1 1353,298.6 C1341.4,297.8 1335,291.4 1335,280.7 C1335,276 1335.6,274.2 1338.8,269 C1350.7,249.3 1401.4,203.1 1456.1,162.1 C1488.4,137.9 1497.5,125.4 1521.4,72.4 C1542.6,25.5 1558.8,7.1 1583.8,1.2 C1594.3,-1.3 1616.7,-0.3 1628.5,3.2 C1659.6,12.5 1693.6,37.1 1721.9,70.9 C1740.1,92.5 1755.2,117.4 1779.4,165.8 C1802.5,212.1 1822.1,256.1 1845.5,314.3 C1872.6,381.8 1873,383 1906.6,504.1 L1935.1,606.8 L1957.6,715.1 C1983.4,839.2 1982.2,833.2 2001.5,936.3 C2018.8,1028.9 2030.4,1087.5 2035.8,1108.9 C2039.9,1125 2041.6,1129.5 2063.8,1181 C2069.9,1195.1 2077,1212.8 2079.6,1220.4 C2083.9,1233 2084.2,1234.7 2083.8,1241.4 C2082.1,1267.4 2043.7,1308 1980,1351.1 C1939.8,1378.3 1897.4,1400.3 1878.8,1403.7 C1868.3,1405.6 1850.3,1401.8 1785,1384 C1764.9,1378.5 1744.2,1373.1 1739,1371.9 C1733.8,1370.7 1591.1,1350.6 1422,1327.3 L1114.5,1284.8 L950,1265.7 C859.5,1255.2 781.7,1246.3 777,1245.7 C765.6,1244.5 742.4,1244.6 732,1245.8 C724.2,1246.8 698,1251.7 697.1,1252.4 C696.9,1252.5 728.3,1297.1 766.8,1351.5 C805.2,1405.8 838.3,1452.8 840.2,1455.8 C846,1464.9 852.9,1479.4 856.8,1490.7 C860.2,1500.6 860.5,1502.1 860.5,1513.3 C860.4,1524.5 860.2,1525.8 857.2,1533.4 C851.7,1547.1 843.4,1558.6 827.1,1574.8 C802.2,1599.7 770,1621.5 734.3,1637.7 C699.9,1653.3 673,1659.6 651.5,1657.2 L651.5,1657.2 Z" id="Shape" sketch:type="MSShapeGroup"></path>
        </g>
    </g>
</svg>