<?xml version="1.0" encoding="UTF-8" standalone="no"?>
<svg width="2094px" height="2397px" viewBox="0 0 2094 2397" version="1.1" xmlns="http://www.w3.org/2000/svg" xmlns:xlink="http://www.w3.org/1999/xlink" xmlns:sketch="http://www.bohemiancoding.com/sketch/ns">
    <!-- Generator: Sketch 3.0.4 (8054) - http://www.bohemiancoding.com/sketch -->
    <title>Slice 2</title>
    <desc>Created with Sketch.</desc>
    <defs></defs>
    <g id="Page-1" stroke="none" stroke-width="1" fill="none" fill-rule="evenodd" sketch:type="MSPage">
        <g id="Group" sketch:type="MSLayerGroup" transform="translate(1046.900000, 1198.300000) scale(1, -1) translate(-1046.900000, -1198.300000) translate(0.000000, 0.500000)" fill="#000000">
            <path d="M819,2395.1 C797.1,2393 781.3,2384.7 775.1,2371.7 C771.8,2365.1 770.4,2356 771.8,2351.3 C773.8,2344.8 780.1,2336.2 792.4,2323.1 C813,2301.3 818.1,2292.4 818.8,2277.6 C820.4,2241.6 786.5,2185.9 717.6,2111.3 C709.9,2102.8 663.6,2057.3 614.9,2010.1 L526.3,1924.3 L438.7,1850.2 C390.5,1809.5 343.8,1770.4 334.8,1763.3 C285.7,1724.6 169.4,1641.5 161.6,1639.5 C158.6,1638.8 149.4,1642.4 131.5,1651.3 C123.3,1655.5 112.2,1660.3 107,1662 C81.4,1670.5 55.8,1672.9 39.5,1668.3 C30.1,1665.6 22,1661.4 15.1,1655.7 C12.3,1653.5 8.6,1650.5 6.9,1649.2 C1.7,1645.2 0,1640.1 0,1628.6 C0,1616.9 0,1617 11.5,1603.6 C23.3,1589.8 47.6,1562.6 56.2,1553.5 C79.5,1528.7 97.1,1495.9 105.5,1461.6 C113.5,1428.8 125,1370.2 125.7,1358.1 C126,1353.4 128.5,1272.4 131.4,1178.1 L136.5,1006.6 L135.2,809.6 L133.9,612.6 L124.5,499.6 C119.3,437.5 114.5,383.4 113.9,379.4 C110.7,357.3 102.8,336.2 82.1,294.2 C63.5,256.6 62.9,255.1 62.3,239 C60.2,188.6 83.7,131.4 115.1,110.5 C125.9,103.4 131.5,101.6 144.5,101.6 C153.8,101.6 156.3,101.9 160.3,103.8 C175.2,110.7 190.6,123.6 268.3,194.1 C288.1,212 309.2,230.4 315.3,235 C330.5,246.4 372.3,274 427.5,309.1 C493.9,351.4 495.5,352.5 575,410.5 C661.9,474 672.7,482.4 711,516.5 C806.5,601.4 883.7,690.7 933.3,773.7 C940,784.9 940,784.9 940,792.5 C940,796.7 939.8,800.1 939.7,800.1 C937.3,800.1 912.3,791 905.5,787.7 C893.6,781.8 887.8,778 756.7,688.3 C670,628.9 639.1,608.3 623.2,599.2 C574.2,571.2 397.3,474.2 385,468.5 C361.4,457.7 340.1,450.7 309.8,443.7 L295.1,440.4 L293.5,444.5 C291,451.3 289.2,464.7 288,484.7 C287.2,499 287.3,538.8 288.5,647.1 C289.8,765.2 290.7,813.2 293.9,918.4 C296.1,988.8 298,1046.4 298.2,1046.6 C298.4,1046.7 309.1,1049.2 322,1052 C345.4,1057.1 346.9,1057.6 642.3,1158.3 C805.5,1213.9 939.2,1259.2 939.4,1259 C939.6,1258.8 972,1187.5 1011.5,1100.6 L1083.2,942.6 L1141.8,832.1 L1200.4,721.6 L1277.8,607.7 C1358.1,489.3 1365.3,479.2 1389.6,448.9 C1469.4,349.7 1582.5,233.7 1672.5,159 C1744.2,99.4 1792.9,69.6 1864.6,41.5 C1916.8,21.1 1996.9,0 2022.5,0 C2036.5,0 2056.7,7.6 2069.2,17.6 C2079.6,25.8 2087.9,38.5 2091.4,51.7 C2093.6,59.8 2094.5,75.3 2093.1,82.6 C2091.8,89.8 2084.3,105.5 2073,124.6 C2066,136.6 2062.9,143.5 2051.5,173.1 C2036.1,213.1 2033.5,220.9 2032.1,231.7 C2028.8,256.6 2027.2,341.7 2028.9,401.1 C2029.5,422.8 2031.8,504.1 2034,581.6 L2038,722.6 L2032.7,735.8 C2026.8,750.8 2027.3,750.5 2017.8,746.8 C2005.1,741.9 1998.1,733.9 1991.6,716.8 C1988.5,708.6 1913.9,477.1 1892.9,410.6 C1868.6,333.6 1853.9,304.6 1834.2,294.9 C1828,291.8 1826.8,291.6 1818,291.7 C1810.5,291.8 1806.8,292.3 1800.5,294.5 C1750.8,311.3 1663.1,382.5 1572.8,479.4 C1485.4,573 1404.7,680.2 1346.5,779.5 C1341.7,787.7 1307.8,849.4 1271.2,916.5 C1213.6,1022.1 1202.8,1042.7 1190.9,1068.6 C1178.2,1096.7 1092.3,1306.7 1093.2,1307.6 C1094.8,1309.3 1345,1374.8 1425.5,1394.7 C1517.9,1417.5 1531.8,1420.7 1633,1441.7 C1694.3,1454.4 1745.4,1465.5 1750.5,1467.2 C1763.9,1471.7 1785,1482.2 1798,1490.9 C1818.2,1504.3 1831.3,1519.7 1836.2,1535.5 C1837.9,1541.3 1838.2,1544 1837.7,1553 C1835.2,1603.7 1789.3,1632.3 1701,1638.1 C1670.6,1640.1 1623.1,1638.9 1602,1635.6 C1574.6,1631.2 1553.2,1622.2 1503.2,1594.2 C1486.8,1585 1454.3,1570.4 1431,1561.8 C1418.3,1557 1049.1,1435.6 1045.5,1434.9 C1043.9,1434.7 1042.5,1436.7 1037.8,1445.6 C1014.7,1490 986.7,1576.6 959.9,1687.1 C951.9,1720.1 951.8,1720.5 947.5,1729.1 C933.5,1756.8 892.9,1791.8 856.3,1807.6 C851.5,1809.7 810.4,1821.3 749.5,1837.7 C695,1852.4 650.1,1864.7 649.7,1865.1 C649.2,1865.5 690.8,1895.9 742,1932.7 L835.2,1999.6 L914.4,2064.6 C999.9,2134.8 1014.2,2146 1047,2168.4 C1072.7,2185.9 1082,2193.2 1092.1,2203.8 C1104.2,2216.5 1108,2226.2 1108,2244.3 C1108,2263.7 1100.9,2278.3 1082.9,2295.7 C1058.2,2319.5 1017.4,2341.6 960.5,2361.9 C927.9,2373.5 880.6,2386.6 850.5,2392.5 C833.9,2395.7 829.4,2396.1 819,2395.1 L819,2395.1 Z M578.5,1779.6 C593.6,1774 619.1,1762.5 653,1746.1 C698,1724.5 705.8,1719.3 729.5,1695.6 C759.1,1666.1 780.9,1633.6 815.8,1567.1 C823.7,1552 825.7,1547 853.7,1473.1 C864.4,1444.8 876.9,1412 881.6,1400.4 C886.2,1388.7 890,1378.8 890,1378.4 C890,1377.9 887.6,1376.7 884.8,1375.7 C881.9,1374.7 865.6,1368.5 848.5,1361.8 C831.5,1355.2 810.3,1347.2 801.5,1344 C782.6,1337 301.6,1184.1 298.7,1184.1 C297.6,1184.1 297,1192.6 295,1233.1 C289.2,1352.9 289.1,1374.8 293.9,1442.1 C297.9,1497.1 298.3,1524.4 295.6,1536.6 C292.1,1552.5 285.3,1564.8 272.5,1578.9 C269.3,1582.4 267.1,1585.6 267.6,1586 C268.1,1586.4 328.4,1628.5 401.5,1679.6 C474.7,1730.6 536.8,1774.1 539.5,1776.2 C551.8,1785.5 560.7,1786.3 578.5,1779.6 L578.5,1779.6 Z" id="Shape" sketch:type="MSShapeGroup"></path>
        </g>
    </g>
</svg>