<?xml version="1.0" encoding="UTF-8" standalone="no"?>
<svg width="2108px" height="953px" viewBox="0 0 2108 953" version="1.1" xmlns="http://www.w3.org/2000/svg" xmlns:xlink="http://www.w3.org/1999/xlink" xmlns:sketch="http://www.bohemiancoding.com/sketch/ns">
    <!-- Generator: Sketch 3.0.4 (8054) - http://www.bohemiancoding.com/sketch -->
    <title>Slice 2</title>
    <desc>Created with Sketch.</desc>
    <defs></defs>
    <g id="Page-1" stroke="none" stroke-width="1" fill="none" fill-rule="evenodd" sketch:type="MSPage">
        <g id="Group" sketch:type="MSLayerGroup" transform="translate(1054.300000, 476.100000) scale(1, -1) translate(-1054.300000, -476.100000) translate(0.800000, 0.100000)" fill="#000000">
            <path d="M887.7,950.6 C868.7,947.1 856,938.1 848.7,922.8 C841.7,908.4 842,896.7 849.6,886.4 C851.9,883.2 865,869.8 878.6,856.6 C893.2,842.5 906,829.2 909.7,824.3 C939.5,784.6 953,717.2 954.9,598.6 C955.5,560.9 955.4,559.4 953.5,555 C951.9,551.4 950.5,550 946.9,548.3 C941.4,545.7 941.6,545.7 811.7,530.1 C727.2,520 684.4,515.5 535.2,501.1 C438.1,491.7 350.7,483.6 341,483.1 C309.3,481.4 262.9,485.3 252.2,490.5 C247.1,493.1 243.9,497.8 242.2,505.6 C241.5,508.4 240.7,524.6 240.2,541.6 C239.5,566.8 238.9,574.4 237.3,582.3 C228.8,621.6 205.2,653 187.6,648.2 C173.9,644.5 168.2,622.4 165.2,561.6 C164.6,550.1 163.4,534.3 162.6,526.6 C155.6,462 130.4,393.3 91.2,331.5 C86.9,324.8 72.9,304.7 60.1,286.9 C15,224.3 6.4,209.1 1.4,182.6 C-1,169.7 -0.9,120.6 1.5,100.1 C6.8,56.5 16.6,30.4 33.9,14 C53.4,-4.6 82.7,-4.5 110.4,14.2 C118.7,19.8 133.1,34.4 141.4,45.5 C181.7,99.5 217.5,203.4 246.2,349.6 C248.4,361.2 250.5,371.1 250.7,371.7 C250.9,372.4 256.9,370.8 266.9,367.5 C302,355.8 313.8,353.7 343.7,353.7 L366.7,353.8 L501.2,372.5 C593,385.3 687.1,397.5 797.7,411.2 C956.1,430.7 964.4,431.7 1172.7,452.6 C1378.1,473.3 1389.2,474.4 1483.2,481.1 C1615.7,490.5 1665.3,493.1 1712.7,493.1 C1755.1,493.1 1773.1,491.2 1780.4,486 C1786.9,481.3 1788.1,465.7 1783,453.2 C1773.5,430.3 1746.5,395.4 1679.7,319.6 C1612.1,242.8 1600.1,226.5 1603.2,215 C1605.2,207.5 1612.4,206.3 1630.1,210.6 C1649.3,215.3 1693.8,231 1731.4,246.4 C1741.1,250.4 1782.7,271.2 1841.9,301.7 C1953.9,359.4 1944.4,354.7 1952.3,356.6 C1960.1,358.5 1989.2,360 2018.7,360.1 C2036.2,360.1 2042.6,360.5 2049.7,362 C2074.8,367.2 2093.9,379.8 2102,396.5 C2107.6,407.9 2108.6,419.9 2105.3,435.6 C2098.5,467.9 2076,502.3 2034.2,544.1 C2002.2,576.1 1952.3,617.7 1921.2,638.3 C1887.5,660.7 1863.9,667.4 1837.7,662.1 C1819,658.4 1773.9,648.3 1748.2,642 C1715.9,634.1 1689.4,628.9 1663.7,625.2 C1652.1,623.5 1566.7,614.7 1473.7,605.6 C1380.8,596.6 1288.5,587.3 1268.7,585.1 C1199.2,577.3 1134.5,571.1 1123,571.1 L1118.9,571.1 L1119.5,595.4 C1120.5,631 1121.1,635.6 1130.6,675.7 C1150.2,758.8 1155.8,790.3 1153.4,801.8 C1149.4,820.2 1135.8,839.3 1112.1,859.5 C1061.6,902.7 976,943.1 919.4,950.6 C906,952.4 897.2,952.4 887.7,950.6 L887.7,950.6 Z" id="Shape" sketch:type="MSShapeGroup"></path>
        </g>
    </g>
</svg>