<?xml version="1.0" encoding="UTF-8" standalone="no"?>
<svg width="2213px" height="2335px" viewBox="0 0 2213 2335" version="1.1" xmlns="http://www.w3.org/2000/svg" xmlns:xlink="http://www.w3.org/1999/xlink" xmlns:sketch="http://www.bohemiancoding.com/sketch/ns">
    <!-- Generator: Sketch 3.0.4 (8054) - http://www.bohemiancoding.com/sketch -->
    <title>Slice 2</title>
    <desc>Created with Sketch.</desc>
    <defs></defs>
    <g id="Page-1" stroke="none" stroke-width="1" fill="none" fill-rule="evenodd" sketch:type="MSPage">
        <g id="Group" sketch:type="MSLayerGroup" transform="translate(1106.400000, 1167.250000) scale(1, -1) translate(-1106.400000, -1167.250000) translate(0.100000, 0.300000)" fill="#000000">
            <path d="M1637.4,2333.6 C1628.5,2332.3 1613.9,2328.7 1602.4,2325.1 C1595.2,2322.9 1584.7,2319.8 1578.9,2318.2 C1573.1,2316.6 1552,2310.2 1531.9,2303.8 C1511.8,2297.5 1491.4,2291.1 1486.4,2289.7 C1481.5,2288.3 1430.8,2277.5 1373.9,2265.7 L1270.4,2244.2 L1112.6,2218.7 C967.4,2195.3 946.1,2192.1 845.6,2178.8 C738.5,2164.6 706.4,2161 618.9,2153.6 C593.3,2151.5 547,2150.6 534.4,2152.1 C500.9,2155.9 486.3,2161.1 416.9,2193.7 C364.1,2218.5 357,2221 343.2,2219.8 C333.5,2219 322.9,2215.4 308.4,2207.9 L296.4,2201.7 L293.9,2194.7 C292,2189.3 291.5,2185.6 291.4,2178.7 C291.4,2170.3 291.7,2169.1 295.7,2159.7 C300.7,2148.1 312.2,2126.5 328.9,2097.2 C344,2070.7 347.4,2064 350.9,2053.2 C361.4,2021.1 374.3,1934.6 375.5,1887.7 C375.8,1876.7 374.2,1721 372,1541.7 L367.9,1215.7 L362.4,1104.2 C357.7,1007.9 356.4,988.4 353.4,961.2 C349.7,927.4 349.1,911.6 351.3,901.2 C357.5,872 380.4,844.6 405.8,836.2 C413.7,833.6 426.5,832.6 434.1,834 C446.3,836.3 454.4,841.7 480.1,864.8 C499.2,882 507.4,888.1 518.5,893.3 C526.4,897 539.4,901 550.9,903.2 C553.9,903.8 630.7,917.1 721.4,932.7 L886.4,961.1 L1072.9,985.1 L1259.4,1009 L1269.4,1007.7 L1279.4,1006.3 L1461.4,1023.7 L1643.4,1041.1 L1744.9,1046.7 C1881,1054.2 1881.9,1054.2 1900,1053.2 C1918.7,1052 1929.6,1050.1 1940.9,1045.8 C1960.8,1038.4 1972.2,1026 1977.6,1006.2 C1979,1001 1979.4,996 1979.3,981.7 C1979.2,961.5 1977.1,943.2 1971.5,913.2 C1947.7,785.7 1933.9,714.2 1929.8,697.7 C1910.6,620.8 1879.5,526.4 1850.7,457.3 C1806.8,351.8 1777.3,300.3 1750.5,282.4 C1739.3,274.9 1734.4,273.7 1715.4,273.7 C1696.4,273.8 1702.8,272.3 1619.9,296.2 L1561.3,313.1 L1540.4,322.8 C1494.3,344 1473.1,352.2 1463.8,352.2 C1458.1,352.2 1446,348.6 1445.2,346.6 C1445,346 1448.9,336.7 1454,325.9 L1463.1,306.3 L1534.6,228 C1574,184.9 1608.3,146.9 1611,143.4 C1620.4,131 1626.8,116.7 1640.3,78 C1653.3,40.7 1664.9,21.4 1681.5,9.6 C1698.2,-2.3 1717.8,-3.1 1743.6,7.2 C1786.7,24.4 1838.7,71.5 1875.6,126.7 C1908.3,175.7 1961.5,277.7 1982.7,332.2 C1985,338 2002.9,388.4 2022.5,444.2 C2064.8,564.6 2061.8,554.2 2103.4,722.6 C2146.8,898.2 2150.6,910.2 2178.5,961.4 C2201.7,1004 2211.2,1024.2 2212.4,1033.9 C2214.8,1051.4 2188.8,1084.7 2145.9,1119.1 C2131.3,1130.9 2095.1,1156.6 2072,1171.7 C2034.6,1196.2 2007.1,1209.6 1989.8,1212.1 C1975.3,1214.1 1951.8,1210.2 1913.9,1199.5 C1890.2,1192.8 1875.8,1189.7 1861.9,1188.2 C1834.2,1185.3 1221.3,1125.3 1213.9,1124.7 C1209.2,1124.4 1198.2,1123.2 1189.5,1122.1 C1180.7,1121.1 1169.6,1120.2 1164.8,1120.2 C1157,1120.2 1155.7,1120.5 1153.2,1122.6 C1150.4,1125 1150.4,1125.1 1150.1,1138.5 C1149.8,1149.1 1152.6,1278.6 1155.2,1381.2 C1155.7,1397.2 1156.5,1400.4 1160.6,1402.5 C1164.9,1404.8 1187,1408 1286.9,1421.1 C1327,1426.4 1367.9,1430.8 1449.9,1438.6 C1510.1,1444.4 1561.4,1449.4 1563.9,1449.6 C1566.4,1449.9 1595.9,1450.6 1629.4,1451.2 C1663,1451.7 1693.8,1452.7 1697.9,1453.3 C1737.4,1459 1761.6,1485.1 1759.6,1519.7 C1757.3,1558.8 1722.2,1588.9 1660.4,1604.7 C1623.8,1614.1 1598.6,1614.9 1566.1,1607.8 C1396,1570.5 1310.6,1552.8 1253.4,1542.8 C1212.4,1535.7 1166.6,1529.2 1165.3,1530.4 C1165,1530.7 1165.7,1559.5 1166.9,1594.3 C1168.1,1629.2 1169.4,1674.6 1169.8,1695.2 C1170.4,1723.4 1170.9,1733.4 1171.9,1735.5 C1173.8,1739.4 1178.4,1741.9 1187,1743.7 C1191.1,1744.6 1258.8,1753.6 1337.4,1763.8 L1480.4,1782.2 L1573.9,1788.2 C1625.3,1791.5 1672.8,1794.8 1679.5,1795.7 C1702.5,1798.5 1717,1804.3 1727.5,1814.7 C1737.2,1824.4 1741.5,1835.2 1742.5,1852.7 C1744.9,1894.7 1711.8,1923.5 1645,1937.6 C1615.8,1943.8 1571.3,1947.2 1553.9,1944.6 C1540.2,1942.6 1512.3,1935.8 1459.1,1921.6 L1412.4,1909.1 L1333.9,1895.1 C1243.3,1878.9 1170.6,1866.2 1170.3,1866.5 C1170.2,1866.6 1171.6,1886.1 1173.4,1909.7 C1175.2,1933.4 1177.2,1960.1 1177.8,1969.2 C1178.4,1978.3 1180.5,2001.7 1182.5,2021.2 C1187.8,2073.4 1187.4,2076.1 1173.3,2091.1 L1165.9,2099 L1172.1,2100.1 C1205.9,2105.8 1293.3,2116.4 1384.4,2125.7 L1487.5,2136.2 L1599.4,2154.6 C1661,2164.8 1721.2,2174.7 1733.2,2176.7 C1745.2,2178.7 1758.7,2181.4 1763.2,2182.8 C1791.8,2191.8 1804.8,2208.4 1806.6,2238 C1807.6,2256.1 1802.3,2269.6 1788.4,2284.1 C1767.6,2305.8 1728.4,2323.4 1683.2,2331.3 C1671.9,2333.2 1644.4,2334.6 1637.4,2333.6 L1637.4,2333.6 Z M993.1,2066.7 C1005.7,2061.7 1013.2,2051.2 1017.7,2031.9 C1019.2,2025.5 1019.4,2016 1019.4,1942.7 C1019.4,1853.3 1019.4,1853.9 1013.8,1848.2 C1010.4,1844.8 1004.5,1842.7 993,1840.7 C988.3,1839.9 941.2,1833.2 888.4,1825.7 C809.2,1814.6 777.1,1810.6 704.5,1802.7 C561.3,1787.2 564.7,1787.4 544.1,1791.3 C535,1793 532.6,1793.8 531.7,1795.5 C530.1,1798.6 529.5,1826.5 530.8,1838.9 C531.4,1844.8 533.1,1887.7 534.5,1934.2 C535.9,1980.7 537.2,2018.9 537.4,2019.1 C538.4,2020.1 556.6,2021.1 583.4,2021.7 C614.9,2022.3 630.4,2023.4 642.9,2025.8 C647,2026.6 713.6,2035.5 790.9,2045.7 C868.2,2055.9 934.8,2064.8 938.9,2065.6 C946.2,2067 963.9,2069 972.9,2069.5 C980.9,2069.9 987.3,2069 993.1,2066.7 L993.1,2066.7 Z M1011.3,1713.3 C1014.8,1709.4 1015.1,1697.6 1013.5,1613.2 C1011.8,1526 1011.6,1519.9 1009.2,1514.1 C1007.3,1509.1 1004.3,1507.9 985.1,1503.6 C976.5,1501.7 966.9,1499.5 963.9,1498.7 C948,1494.4 608.4,1447 580.4,1445.2 C573.3,1444.7 561.7,1444.3 554.8,1444.3 C539.1,1444.2 533.3,1445.7 529,1450.9 C523.9,1457.1 523.4,1462 524.8,1489 C526.5,1519.5 526.4,1530.8 524,1569.2 C520,1631.8 520.2,1645.1 525.2,1655.2 C527.1,1659.1 527.9,1659.8 531.4,1660.4 C533.6,1660.8 552.1,1661.6 572.4,1662.1 L609.4,1663.1 L782.4,1686.6 C953.5,1709.8 1003.3,1716.2 1007.6,1715.4 C1008.8,1715.2 1010.5,1714.2 1011.3,1713.3 L1011.3,1713.3 Z M1009.2,1379.4 C1009.9,1378.4 1002.3,1159.2 1001,1141.2 C1000.4,1133.2 999.2,1124.3 998.4,1121.4 C995.4,1111.6 988.3,1106.1 973.3,1102.3 C947.5,1095.8 805.4,1073.6 664.5,1054.1 C548.1,1038 539.5,1037 534.4,1038.1 L529,1039.3 L527,1045.5 C522.2,1060.4 521.3,1076.2 522.8,1123.4 C523.7,1152.2 523.6,1172.7 522.3,1229.9 C521.5,1268.8 521,1302.5 521.4,1304.7 C522.3,1310.3 524.4,1313.1 529.5,1315.4 C532.9,1316.8 586.4,1324.5 751.2,1347.2 C870.6,1363.6 973.6,1377.7 979.9,1378.5 C992.6,1380.1 1008.5,1380.6 1009.2,1379.4 L1009.2,1379.4 Z" id="Shape" sketch:type="MSShapeGroup"></path>
            <path d="M1350.9,893.4 C1346.7,891.4 1343.2,885.3 1342.3,878.9 C1340.9,868.6 1348.3,855.8 1368.9,833.3 C1393.9,805.9 1410.2,785 1428.1,757.7 C1452.1,721.2 1468.7,688.2 1497.4,620.7 C1528.5,547.3 1539.2,523.6 1549.1,505.7 C1569.3,469.2 1586.7,453.6 1612.7,448.6 C1622.5,446.7 1640.1,446.8 1649.7,448.8 C1666.1,452.1 1680.8,461.8 1689.6,475 C1694.5,482.4 1699.5,495.7 1701.4,506.7 C1703.4,518.1 1703.4,542.6 1701.4,557.7 C1691.7,631.6 1639,707 1544.3,782.4 C1474.8,837.8 1406.4,883 1377.5,892.7 C1368.2,895.8 1356.3,896.1 1350.9,893.4 L1350.9,893.4 Z" id="Shape" sketch:type="MSShapeGroup"></path>
            <path d="M904.7,819.8 C900.5,818.3 885,806.3 884.9,804.6 C884.9,804 888,798.8 891.7,793.1 C907,769.9 947.6,704 952.5,694.7 C955.4,689.2 967.2,664.7 978.8,640.2 L999.9,595.7 L1027.4,506.3 C1048.1,439.1 1056.1,414.5 1059.5,407.6 C1073.1,379.9 1094.9,360.2 1119.4,353.6 C1128.8,351.1 1146.9,350.6 1157,352.6 C1189.2,358.9 1207,383.8 1212,429.4 C1213.5,442.6 1212.6,479.3 1210.5,492.7 C1202.6,543.5 1183.7,582.1 1143.4,629.7 C1117.4,660.3 1055.1,721.7 1009.4,761.7 C959.2,805.6 922,826.3 904.7,819.8 L904.7,819.8 Z" id="Shape" sketch:type="MSShapeGroup"></path>
            <path d="M480.6,749.7 C470,746 466.5,736.5 470.9,723.7 C473.3,716.6 483.8,696.6 494.9,677.7 C514.5,644.4 538.1,575.4 549.4,518.7 C553.9,496.2 556.9,474.7 562.9,421.7 C575.6,311.1 581.7,273.5 591,248.7 C600,225 611.4,216.7 636.9,215.5 C661.8,214.3 680.3,221.5 698.4,239.7 C719.1,260.3 733.7,293.5 739.4,332.7 C741.7,348.3 741.8,373.9 739.5,388.2 C729.3,453.6 682.6,547.7 616.4,636.7 C573.3,694.8 529.6,738.7 504.9,748.9 C498.5,751.5 486.8,752 480.6,749.7 L480.6,749.7 Z" id="Shape" sketch:type="MSShapeGroup"></path>
            <path d="M173.9,745.1 C167.4,742.4 160.4,732.5 156.6,720.7 C155.7,718 152,702.4 148.4,686.2 C130.9,607.8 120.1,569.7 102.9,526.7 C93.1,502 85.9,486.6 63.1,440.7 C20.9,355.9 10.2,330.6 4.4,301.7 C-2.9,265 -1,216.1 8.9,186.7 C14.7,169.6 21.4,158.7 32.2,148.6 C44.1,137.4 56.3,132.8 73.9,132.9 C102.4,133 123.7,147 139.5,176 C141.5,179.7 146.6,188.6 150.8,195.7 C196.4,274 222.7,369.9 228.9,481.2 C230.2,504.2 230.2,587.4 228.9,617.2 C225.5,694.9 215,732.7 193.7,743.8 C189.8,745.8 177.5,746.7 173.9,745.1 L173.9,745.1 Z" id="Shape" sketch:type="MSShapeGroup"></path>
        </g>
    </g>
</svg>