<?xml version="1.0" encoding="UTF-8" standalone="no"?>
<svg width="1116px" height="2215px" viewBox="0 0 1116 2215" version="1.1" xmlns="http://www.w3.org/2000/svg" xmlns:xlink="http://www.w3.org/1999/xlink" xmlns:sketch="http://www.bohemiancoding.com/sketch/ns">
    <!-- Generator: Sketch 3.0.4 (8054) - http://www.bohemiancoding.com/sketch -->
    <title>Slice 2</title>
    <desc>Created with Sketch.</desc>
    <defs></defs>
    <g id="Page-1" stroke="none" stroke-width="1" fill="none" fill-rule="evenodd" sketch:type="MSPage">
        <g id="Group" sketch:type="MSLayerGroup" transform="translate(557.700000, 1107.700000) scale(1, -1) translate(-557.700000, -1107.700000) translate(0.200000, 0.700000)" fill="#000000">
            <path d="M922.3,2212.6 C899.8,2209.7 878.9,2202.2 815.3,2174.2 C803.2,2168.9 789.3,2163.5 784.3,2162.1 C755.3,2154.5 679.2,2139.7 610.9,2128.6 C476.6,2106.7 385.4,2098.3 353.7,2104.7 C342.1,2107.1 325.7,2112.7 290.8,2126.5 C264,2137.1 249.1,2141.9 229.3,2146.3 C219.4,2148.6 214.8,2149.1 202.8,2149.1 L188.3,2149.2 L181.3,2145.8 C173.1,2141.8 161.8,2131 157.6,2123.1 C153.8,2116.2 151.5,2106.4 152.2,2101.3 C153.3,2094.3 158.3,2087.1 170,2075.8 C201.6,2045.6 206.8,2039.4 220,2017.4 C229.8,2000.9 237.2,1984.4 240.3,1972.1 C244.9,1954.3 249.3,1918.1 251.8,1878.7 C256.2,1807.9 256.5,1765.7 253.4,1565.2 C250.9,1402.5 250.5,1385.3 245.2,1246.2 L239.7,1099.2 L234.2,1071.2 C223.4,1016.3 221.5,1003.5 221.5,988.7 C221.5,967.4 226,949.1 236.7,927.2 C254.1,891.5 280.9,870.7 309.5,870.7 C323.3,870.7 328.6,873.6 363.5,900.7 C387.2,919.1 395.3,923.9 417.9,933.1 C457.6,949.3 534,970.9 613.3,988.6 C656.6,998.2 665.5,999.7 788.9,1018.7 C890.7,1034.4 907.5,1036.8 915.3,1036.5 C926.4,1036 930.3,1034.2 933.6,1027.7 C935.4,1024.1 935.8,1021.6 935.8,1014.6 C935.8,1004.9 933.3,959.9 931.7,940.7 C931.2,933.8 919.9,856 906.8,767.7 L882.8,607.2 L861.2,499.7 L839.6,392.2 L830.3,362.7 C801.4,272 792.1,252.5 773.8,243.8 C768.5,241.3 767.7,241.2 748.8,241.2 C710.3,241.2 664.8,250 613.3,267.2 C587.9,275.7 577.6,278.2 554.4,281.2 C541.8,282.9 541.4,282.9 540,281.1 C537.6,277.9 538.9,267.2 542.7,259.6 C552.7,239.3 573.7,218.9 628.3,176.6 C686.7,131.3 697.8,120.3 709.3,96.2 C721.8,69.9 740.4,32.9 744.7,25.8 C757.6,4.6 765.5,-0.3 787.4,-0.4 C796.1,-0.4 799.7,3.63764574e-13 804.9,1.7 C851.7,17.3 902.6,96.7 942.4,216.2 C959.7,268.2 965.8,292.6 991.3,413.2 L1010.8,505.2 L1046.3,737.2 C1086.3,999.4 1080.7,969.6 1098.3,1013.2 C1115.8,1056.8 1117.2,1062.8 1112.3,1077.2 C1106.5,1094.7 1092.2,1113 1068.6,1133.2 C1030.2,1166.1 975.8,1193.7 949.2,1193.7 C938.2,1193.7 919.7,1185.5 873.3,1160.1 C859.6,1152.6 846.1,1145.4 843.3,1144.1 C831.2,1138.5 707.3,1108.7 696.3,1108.7 C691.4,1108.7 689.1,1111.4 688.3,1117.9 C688,1120.8 689,1170.7 690.7,1228.7 L693.6,1334.2 L696.5,1345.1 L699.3,1356.1 L706.8,1358.4 C741.2,1368.9 813.1,1380.5 857.8,1382.7 C898.4,1384.8 920,1387.5 936.1,1392.8 C947.6,1396.5 954.9,1400.7 961.4,1407.2 C970.2,1416 973.8,1425.8 973.8,1441.2 C973.8,1452.9 970.3,1463.2 962.5,1475 C945.8,1500 916.8,1515.6 881.5,1518.7 C865.4,1520.1 851.9,1518.8 833.9,1514.3 C815.7,1509.6 766.1,1494.9 746.3,1488.2 C727,1481.7 719.5,1480.2 710.6,1481.1 L704,1481.8 L702.7,1490.5 C701.6,1498 701.8,1505.1 703.7,1540.7 C704.9,1563.5 706.6,1596.2 707.3,1613.2 C709.5,1661 711.8,1681.9 715.3,1685.7 C716.2,1686.6 720.5,1688.4 725.1,1689.5 C729.6,1690.7 778.5,1698.6 833.8,1707.2 C889.1,1715.7 936.6,1723.2 939.3,1723.8 C956.4,1727.7 975.4,1742.2 982.8,1757 C987.1,1765.6 988.2,1772.4 986.9,1781.5 C983.9,1801.5 970.3,1816.9 943.8,1830.2 C926,1839.1 899.6,1846.3 875.6,1848.7 C861.3,1850.1 861.2,1850.1 768.6,1821.7 C742.8,1813.8 721.6,1807.6 721.3,1807.9 C720.9,1808.2 722.3,1827.8 724.2,1851.3 C733.7,1965.7 735,1991 732.4,2002 C731.1,2007.5 727.3,2018.3 724.2,2025.4 C723.8,2026.1 725.6,2026.9 729,2027.6 C737,2029.3 791.5,2038 901.8,2055.2 C1047.1,2077.9 1046.2,2077.7 1059.5,2084.2 C1076.3,2092.5 1084.2,2106 1085.5,2128.7 C1086.5,2146.3 1081.8,2159.2 1069.6,2172.2 C1050.8,2192.3 1014.8,2207.7 974.8,2212.6 C964.8,2213.9 932.3,2213.8 922.3,2212.6 L922.3,2212.6 Z M536.8,1995.5 C553.1,1989.4 563.4,1958.9 567.8,1903.7 C569.2,1886.3 571.1,1800 570.3,1789.8 C569.5,1779.7 567.3,1774.6 562.6,1772.4 C545.7,1764.4 487.6,1757.3 437.8,1757.2 C415.4,1757.2 410,1757.5 403.2,1759.1 C398.7,1760.1 394.5,1761.3 393.9,1761.6 C391.2,1763.3 390.5,1790.9 391.8,1846.2 C392.7,1886.2 392.7,1906.3 391.9,1923.7 C390.1,1963.2 390.2,1971.4 392.5,1974.5 C396.6,1980.2 404.1,1982.3 436.3,1987.2 C479.3,1993.6 522.6,1998.1 530.8,1996.9 C532.7,1996.6 535.4,1996 536.8,1995.5 L536.8,1995.5 Z M574.2,1605.2 C573.9,1540.1 569.8,1459.2 566.5,1456.1 C565,1454.7 523.7,1445 494.3,1439.2 C452.5,1430.9 416.8,1426.4 397.4,1426.9 L386.5,1427.2 L384.5,1431.1 C381.9,1436.1 381.1,1453.6 382.9,1465.2 C383.7,1470.7 384.3,1493.7 384.7,1538.2 C385.3,1598.6 385.5,1604.6 387.7,1622.7 C389.1,1633.4 390.3,1642.4 390.4,1642.6 C390.6,1642.8 395.8,1642 402,1640.8 C437.1,1634.2 446.3,1634.2 476.9,1640.6 C489.7,1643.4 506.8,1646.7 514.8,1648.1 C522.8,1649.5 531.6,1651.1 534.3,1651.7 C537.1,1652.2 546.5,1653.3 555.2,1654.2 C563.9,1655 571.4,1655.9 571.7,1656.3 C573.3,1657.9 574.3,1637.7 574.2,1605.2 L574.2,1605.2 Z M568.9,1328.5 C571.2,1314.7 570.6,1289.4 567.4,1265.7 C565.9,1254.4 564.2,1241.6 563.7,1237.2 C563.1,1232.8 562.3,1200.2 561.8,1164.7 C561,1098.8 560.8,1095.2 557,1088 C553.2,1080.9 543,1076.7 514.3,1070.3 C487.8,1064.4 426.8,1053.8 393.9,1049.2 L382.5,1047.7 L380,1049.9 C378.6,1051.2 376.7,1054 375.8,1056.2 C374.1,1060 374.2,1065.2 376.8,1176.2 L379.7,1292.2 L382.2,1303.7 C383.7,1310 385.3,1315.4 385.9,1315.8 C390.3,1318.5 469.1,1328.7 523.8,1333.6 C536.2,1334.7 547.9,1335.8 549.8,1336 C551.7,1336.2 556.5,1336.5 560.4,1336.5 L567.6,1336.7 L568.9,1328.5 L568.9,1328.5 Z" id="Shape" sketch:type="MSShapeGroup"></path>
            <path d="M583.4,916.6 C582.3,911 582.8,901.2 584.4,895.6 C587,886.9 591.2,879.5 601,866.4 C628.9,829.1 635.9,814.7 667.9,729.7 C692.3,664.6 702.2,644 714.1,633 C716.5,630.7 720,628.1 721.8,627.2 C730.2,622.9 750.6,621.4 762.7,624.2 C783.9,629.2 800.5,647.7 807.9,674.3 C811.2,686.3 811.7,710.2 809,726.2 C799.9,779.3 763.4,826.9 698.3,870.4 C682.4,881 646.9,902.3 639.1,905.9 C630.5,909.8 618.6,913.1 602.2,916.1 C594.6,917.6 587.3,918.9 586.2,919.2 C584.4,919.6 583.9,919.1 583.4,916.6 L583.4,916.6 Z" id="Shape" sketch:type="MSShapeGroup"></path>
            <path d="M398,822 C398.6,807.3 399.5,804.9 413.4,780.7 C436.1,740.9 457.4,693.9 476.1,642.2 C484.7,618.2 490.2,601.2 500.8,564.7 C505.7,547.9 511,531 512.6,527.2 C520.2,508.8 528,502.6 546,500.6 C583.1,496.4 612.3,518.5 626.3,561.1 C639.9,602.6 631.8,641.5 599.7,689.4 C577.2,722.9 539.5,761 502.7,787.4 C464.6,814.7 423.4,833.6 401.9,833.7 L397.6,833.7 L398,822 L398,822 Z" id="Shape" sketch:type="MSShapeGroup"></path>
            <path d="M226.1,757.7 C220.5,754.3 220.5,747.7 225.8,729.7 C227.5,723.9 230.4,713.8 232.3,707.2 C234.2,700.6 237.8,689.4 240.3,682.2 C254.6,642 260.9,611.7 271.3,533.7 C281,460.7 285.9,435.8 294.6,413.4 C303,391.8 316,378.8 333.5,374.2 C341.2,372.2 357.9,372.2 364.9,374.3 C387.7,381 406.7,402.4 418.1,434.2 C419.5,438.1 421.8,446.6 423.3,453.1 C440.2,528.8 407.8,612 331.8,687.7 C296.4,722.9 245.2,759.7 231.5,759.7 C230.3,759.7 227.8,758.8 226.1,757.7 L226.1,757.7 Z" id="Shape" sketch:type="MSShapeGroup"></path>
            <path d="M87.5,710.3 C83.8,709.6 80.6,708.8 80.3,708.5 C79.1,707.3 77.9,690.9 77.4,667.2 C76.5,626.5 74.5,597.9 71.2,578.7 C67,554.5 62.1,537.4 39.3,469.2 C3.4,361.7 -1.1,344.3 0.2,318.3 C2.4,275.6 12,243.4 28.8,222.3 C40,208.2 52.9,201 70.4,199.2 C99.1,196.1 123.7,221.3 140.1,270.7 C155.5,316.7 163.8,377.8 163.8,444.2 C163.8,559.8 145.2,639.1 103.4,702.4 C99.9,707.7 96.6,711.6 95.8,711.6 C95,711.5 91.3,710.9 87.5,710.3 L87.5,710.3 Z" id="Shape" sketch:type="MSShapeGroup"></path>
        </g>
    </g>
</svg>