<?xml version="1.0" encoding="UTF-8" standalone="no"?>
<svg width="2285px" height="2241px" viewBox="0 0 2285 2241" version="1.1" xmlns="http://www.w3.org/2000/svg" xmlns:xlink="http://www.w3.org/1999/xlink" xmlns:sketch="http://www.bohemiancoding.com/sketch/ns">
    <!-- Generator: Sketch 3.0.4 (8054) - http://www.bohemiancoding.com/sketch -->
    <title>Slice 2</title>
    <desc>Created with Sketch.</desc>
    <defs></defs>
    <g id="Page-1" stroke="none" stroke-width="1" fill="none" fill-rule="evenodd" sketch:type="MSPage">
        <g id="Group" sketch:type="MSLayerGroup" transform="translate(1142.300000, 1120.400000) scale(1, -1) translate(-1142.300000, -1120.400000) translate(0.200000, 0.000000)" fill="#000000">
            <path d="M1021.7,2239.7 C1009.9,2238 998.7,2231.8 986.9,2220.4 C977.2,2211 959.8,2189.4 959.8,2186.7 C959.8,2186.3 966.9,2180.2 975.6,2173.2 C1030.8,2128.3 1049.1,2111.5 1062.6,2093.3 C1079.5,2070.5 1086.9,2049.6 1090.8,2013.3 C1092.6,1996.9 1093.8,1946.4 1093.2,1914.3 C1092.1,1855 1087.8,1547.9 1087.8,1530.7 L1087.8,1513 L1078.1,1509.9 C1031.8,1495.1 882.2,1472.8 788.6,1466.7 C778.1,1466 758.7,1465.8 740.6,1466.1 C706.6,1466.7 700.5,1467.5 662.3,1476.3 C601.7,1490.3 548.8,1505 548.8,1507.9 C548.8,1508.2 551.5,1512 554.9,1516.2 C563,1526.5 574.3,1542.2 586,1559.3 C593.4,1570.2 597.8,1578.2 605.8,1595.3 C629.7,1646.8 633.5,1653.6 649.9,1676.3 C686.3,1726.7 700.6,1751.2 701.6,1764.8 C703.7,1795.2 661.1,1831.6 570.1,1877.2 C514.1,1905.2 486.1,1911.3 428,1908.2 L416,1907.5 L411.9,1891.1 L407.8,1874.8 L423.9,1855.6 C456.6,1816.6 466.2,1801.2 470.2,1781.6 C472.3,1771.2 472.2,1761.6 469.8,1749.7 C465.9,1730.9 453.3,1694.8 436,1653.8 C416.6,1607.4 383.3,1536.8 371.3,1516.3 C339.4,1461.8 257.1,1332.8 238.7,1308.2 C233.7,1301.5 157,1207 139.5,1185.9 C135.2,1180.8 130.1,1173.4 128.1,1169.4 C123.9,1160.9 124.4,1161.6 89.9,1121.3 C57.4,1083.4 45.4,1068.6 36.6,1055.2 C29.5,1044.5 16,1018.3 17,1017.2 C17.4,1016.9 22.8,1015.3 29,1013.7 C36.9,1011.6 41.5,1010.9 44.3,1011.3 C66.7,1014.7 126.8,1046.9 186.8,1087.6 C205.6,1100.3 229.9,1118.4 238.9,1126.4 C244,1130.9 336.5,1229.4 396.1,1293.7 C399.4,1297.2 412.6,1314.3 425.6,1331.7 C472.9,1395.1 492.6,1421.4 496,1425.2 L499.4,1429 L520.8,1414.8 C575.3,1378.7 603.6,1364.7 651.2,1350.4 C694.5,1337.2 733.7,1327.7 768.5,1321.7 C789.6,1318 815.8,1316.8 831,1318.7 C836.1,1319.4 895.7,1331.3 963.3,1345.2 L1086.3,1370.5 L1086.6,1367.4 C1086.8,1365.7 1085.7,1301.3 1084.3,1224.3 C1082.9,1147.3 1081.8,1055 1081.8,1019.1 L1081.8,954 L1079.1,953.4 C1045.3,946.2 992,938 835.1,915.8 C738.2,902.1 653.8,890.3 647.6,889.6 C629.6,887.6 566.2,887.9 552.1,890 C527.4,893.8 505.8,899.6 456.8,915.7 C418.5,928.2 382.3,938.7 381.2,937.5 C381,937.3 378.9,928 376.6,916.8 C372.6,897.3 372.5,896.1 373.7,889.4 C376.3,874.1 387.9,856.7 411.3,833.2 C444,800.3 486,770.1 530.3,747.8 C571.9,726.8 598,720.6 624.5,725.3 C641.6,728.3 672.7,735.5 728.8,749.3 C777.4,761.3 799.2,765.9 930.7,792.3 C1011.7,808.5 1078.2,821.8 1078.5,821.8 C1079.2,821.8 1077.9,309.9 1077.2,291.7 L1076.6,277 L1066.5,274.4 C1058.6,272.4 1019.8,267.6 891.8,252.9 C754.6,237.1 698.3,230.1 552.3,210.7 L377.3,187.4 L331.3,187 C302.9,186.8 279.2,187.1 269.3,187.8 C223.9,191 174.5,199.1 135.3,209.9 C110.9,216.5 103.1,219.9 84.3,231.6 C60.6,246.5 45.8,253.8 28.3,259.3 C20.3,261.9 13.5,263.8 13.4,263.7 C13.2,263.5 11.7,259.9 10.1,255.8 C-2.4,225.2 -3.3,201.4 7.3,179.2 C16.1,160.9 31.4,145.4 75.8,109.9 C89.3,99.1 105.1,86 111,80.6 C142.3,52.4 176.8,28.2 207.3,13.3 C226.5,3.9 236.3,0.7 247.9,0.1 C260.1,-0.6 267.6,1 321.9,15.8 C360.9,26.5 363.7,27.1 526.9,59.7 L692.3,92.8 L851.3,119.2 L1010.3,145.6 L1114.3,156.2 C1211.8,166.2 1219.6,166.8 1239.8,166.8 C1251.6,166.8 1296.9,168.4 1340.3,170.3 C1413.9,173.5 1456.3,175.1 1536.3,177.8 C1573.6,179.1 1578.2,179 1746.3,173.7 L1874.3,169.6 L2012.3,154.6 C2088.2,146.4 2154.1,139.3 2158.8,138.8 C2172.1,137.3 2201.3,137.6 2214.5,139.3 C2251.7,144.2 2273.8,157.3 2282,179.3 C2283.9,184.4 2284.2,187.2 2284.2,198.3 C2284.1,214.3 2281.7,225 2275.3,238.6 C2266.7,256.7 2253.6,271.4 2235.1,283.8 C2218.3,295.1 2204.6,301.3 2177.1,310.2 C2131.1,324.9 2039.4,342.6 2007.4,342.9 C1992.4,343.1 1972.9,339.9 1904.3,326.3 L1871.3,319.7 L1714.3,315.3 C1560.7,311 1554.9,310.8 1445.8,304.4 C1282.2,295 1235.9,292.4 1235.4,292.9 C1235.2,293.1 1236.7,412.8 1238.9,558.8 C1241,704.8 1242.8,829.3 1242.8,835.4 L1242.8,846.5 L1308.1,855.7 C1343.9,860.8 1380.1,866 1388.3,867.3 C1400.2,869.3 1426.8,871.2 1516.3,876.7 L1629.3,883.7 L1747.3,884.8 C1812.2,885.4 1870.5,886.3 1876.9,886.8 C1886,887.5 1890.3,888.4 1896.4,890.7 C1914.7,897.8 1929,912.2 1935,929.6 C1936.9,935.3 1937.3,938.3 1937.3,949.3 C1937.3,961 1937,962.9 1934.8,968.3 C1924.1,993.5 1892.6,1019.2 1848.3,1038.8 C1816.3,1053 1792.7,1058.4 1770.3,1056.7 C1745.1,1054.7 1696.4,1045.9 1669.8,1038.5 C1659.1,1035.5 1645.9,1032.1 1640.5,1030.9 C1633.4,1029.4 1246.5,977.8 1242.1,977.8 C1241.3,977.8 1242.5,1083.6 1243.7,1119.8 C1244.3,1136.6 1246.6,1207.7 1248.9,1277.8 C1251.1,1347.9 1253.1,1405.4 1253.1,1405.5 C1253.2,1405.5 1304.2,1415.3 1366.3,1427.2 C1455.6,1444.2 1505.7,1453.1 1605.5,1469.8 C1675,1481.3 1743.6,1492.4 1758,1494.3 C1842,1505.6 1880,1513.4 1901.6,1523.9 C1919,1532.3 1930.8,1545.9 1935.4,1562.8 C1937.8,1571.6 1937.8,1591.6 1935.5,1601.3 C1931.3,1618.3 1918.5,1637.4 1902.8,1650.1 C1875,1672.6 1833.5,1686.7 1806.2,1682.9 C1787.5,1680.3 1749.3,1669.5 1671.8,1644.8 C1649.5,1637.7 1625.2,1630.1 1617.8,1627.8 C1606.6,1624.5 1518.3,1604.7 1335.8,1564.6 C1320.7,1561.3 1297.8,1555.7 1285,1552.1 C1272.1,1548.6 1261.5,1545.8 1261.3,1546 C1261.2,1546.2 1262.8,1597.2 1264.9,1659.3 L1268.8,1772.3 L1276.8,1877.3 C1281.2,1935.1 1285,1983.7 1285.3,1985.5 C1285.6,1987.2 1290.6,2006.3 1296.3,2028 C1302.1,2049.6 1308.4,2074.5 1310.4,2083.3 C1313.6,2097.7 1314,2100.4 1313.6,2110.8 C1313.3,2119.9 1312.8,2123.3 1311,2127.1 C1308,2133.7 1299.2,2142 1286.9,2149.6 C1270.9,2159.5 1221.9,2184.4 1210.6,2188.3 C1173.4,2201.3 1030,2242.3 1027.5,2240.7 C1027.4,2240.6 1024.8,2240.2 1021.7,2239.7 L1021.7,2239.7 Z" id="Shape" sketch:type="MSShapeGroup"></path>
        </g>
    </g>
</svg>