<?xml version="1.0" encoding="UTF-8" standalone="no"?>
<svg width="2169px" height="2373px" viewBox="0 0 2169 2373" version="1.1" xmlns="http://www.w3.org/2000/svg" xmlns:xlink="http://www.w3.org/1999/xlink" xmlns:sketch="http://www.bohemiancoding.com/sketch/ns">
    <!-- Generator: Sketch 3.0.4 (8054) - http://www.bohemiancoding.com/sketch -->
    <title>Slice 2</title>
    <desc>Created with Sketch.</desc>
    <defs></defs>
    <g id="Page-1" stroke="none" stroke-width="1" fill="none" fill-rule="evenodd" sketch:type="MSPage">
        <g id="Group" sketch:type="MSLayerGroup" transform="translate(1084.550000, 1186.300000) scale(1, -1) translate(-1084.550000, -1186.300000) translate(0.100000, 0.500000)" fill="#000000">
            <path d="M816.7,2371 C813.6,2370.6 808.1,2368.8 804.4,2367.2 C797.5,2364 772.9,2348.4 772.9,2347.2 C772.9,2346.8 777.4,2335.4 783,2322 C799.1,2282.7 801.9,2273.6 801.9,2259.4 C801.9,2249.4 799.7,2241.6 793.8,2230.1 C784.9,2212.8 768,2192.1 742.9,2167.8 C735.5,2160.5 719.7,2143.8 707.9,2130.6 C668.8,2086.9 663,2081.5 536.4,1969.7 C437.4,1882.3 402.1,1851.9 326.4,1788.6 C276.3,1746.8 229.6,1708.1 222.6,1702.6 L209.8,1692.6 L210.4,1685.3 C211.6,1668.6 217.6,1664.4 238.9,1665.4 C251.5,1666 263.1,1668.7 284.4,1676.1 C338.5,1694.9 432.3,1740.6 524.2,1793 C597.7,1834.9 591.5,1830.5 769.6,1965.3 C856.9,2031.3 929.8,2085.9 931.4,2086.6 C933.4,2087.4 943.9,2088.1 961.9,2088.5 C997.1,2089.3 1035.6,2090.9 1053.5,2092.1 C1070.5,2093.3 1296.1,2119.6 1307.4,2121.7 C1318.5,2123.8 1334.3,2123.2 1338.7,2120.6 C1343.3,2117.8 1343.5,2115.4 1340,2107 C1326,2073.7 1236.9,1931.8 1170.9,1837.6 C1153.9,1813.3 1141.2,1796.5 1073.7,1708.6 C1018.9,1637.4 1018.2,1636.6 1011.3,1632.4 L1004.4,1628.2 L862.4,1610.7 C707.3,1591.5 521,1569.7 497.6,1568 C470.3,1566 440.7,1569.7 412.7,1578.7 C405,1581.2 386,1588.3 370.5,1594.6 C323.7,1613.4 299.7,1620.1 279.4,1620.1 C259,1620.1 243.6,1610.7 238.9,1595.4 C234,1579.6 236.7,1571.4 268.4,1506.1 C280.5,1481.3 285.4,1469.9 289.4,1457.6 C299.3,1427.6 308.2,1388.2 311.9,1358.1 C313.2,1347.8 318.4,1263.9 325.9,1134.1 C337.6,932.1 337.9,925.5 337.9,886.1 C337.9,822.2 339.7,776.7 343.5,743.1 C353.2,656 380.1,614.1 426.4,614.1 C455.2,614.1 477.1,633.6 490.5,671.1 C499.4,696.2 507.5,703.5 530.7,707.6 C535.7,708.4 593.2,715.9 658.6,724.1 C760.7,737.1 797.3,741.2 919.4,753.7 L1061.4,768.2 L1207.4,777.6 L1353.4,787.1 L1454.9,790.1 C1510.7,791.7 1569.5,793.1 1585.4,793.1 L1614.4,793.1 L1617.3,788.9 C1626.2,776.4 1649.6,748.4 1659.3,738.7 C1684.1,714 1701.9,706.7 1726.6,711.4 C1742.4,714.4 1754,720.5 1766.6,732.4 C1785.2,750.1 1799.6,778.6 1810.9,819.8 C1820.4,854.4 1823.3,871.1 1853.4,1061.1 C1876.3,1205.8 1877.4,1212.4 1897.9,1318.3 L1918.8,1427.1 L1926.3,1450.3 C1946.1,1511.6 1954.9,1544.6 1955.6,1559.7 C1956.8,1583.6 1948.2,1604.2 1929.4,1622 C1915.6,1635 1835.5,1687.5 1801.2,1706 C1772.9,1721.3 1754.2,1727.7 1740.9,1726.8 C1730.1,1726 1679.1,1712.7 1638.4,1700.1 C1620.6,1694.6 1603.2,1691.2 1587,1690 C1579.5,1689.5 1484.5,1680.3 1375.9,1669.6 C1267.3,1658.9 1178.3,1650.3 1178.1,1650.5 C1177.8,1650.9 1209.3,1686.5 1277.8,1763.6 C1318.6,1809.4 1484.2,1989.2 1498.5,2003.2 C1531.5,2035.4 1564,2061.1 1594.4,2079.1 C1631.4,2101 1640.7,2107.7 1648.4,2118.2 C1655.9,2128.4 1657.3,2133.4 1657.4,2149.6 C1657.4,2161.8 1657.1,2164.4 1655.1,2169.6 C1647.8,2188.8 1626.1,2206.1 1566.1,2240.3 C1511.8,2271.2 1468.6,2287.8 1433.6,2291 C1410.9,2293.2 1406.1,2291.7 1333.4,2259.6 L1296.4,2243.2 L1275.9,2239.7 C1214.7,2229 1164.9,2222.7 1112.9,2219 C1094.7,2217.7 1036.9,2217.6 1024.5,2218.8 L1016.6,2219.6 L1011,2228.9 C987.4,2268 940.3,2316.5 899.9,2343.3 C868.8,2364 838.1,2374.2 816.7,2371 L816.7,2371 Z M1716.1,1558.5 C1733.3,1554.4 1743.6,1543.7 1744.7,1529 C1745.4,1518.5 1741.5,1479.3 1732.3,1406.6 C1725.2,1350.1 1722.1,1333.9 1717.3,1328.2 L1714.9,1325.3 L1649.6,1324.8 C1595.5,1324.4 1579.6,1324 1556.4,1322.2 C1524.2,1319.8 1165.3,1296.1 1160.2,1296.1 L1156.8,1296.1 L1157.4,1307.9 C1157.7,1314.3 1159.3,1344.6 1161,1375.1 C1165,1450.9 1165.5,1468.1 1163.9,1477.7 C1163.2,1481.9 1159.7,1493.7 1156.3,1504 C1152.9,1514.2 1150.3,1522.9 1150.7,1523.2 C1151.1,1523.5 1178,1527.9 1210.4,1532.9 L1269.4,1542.1 L1376.9,1550.1 L1484.4,1558.1 L1593.4,1559.4 C1653.4,1560.1 1704.2,1560.5 1706.4,1560.3 C1708.6,1560.1 1713,1559.3 1716.1,1558.5 L1716.1,1558.5 Z M968.7,1495.8 C980.4,1489.5 987.3,1462.1 989.8,1411.1 C991.3,1381.9 992,1323.7 991,1306.1 C990.1,1288 989.1,1285.2 982.9,1282.7 C967.1,1276.4 848.8,1263 658.4,1246.1 L522.4,1234 L507.9,1235.3 L493.4,1236.6 L491.8,1248.1 C488.6,1270.4 482.7,1333.9 479.4,1380.9 C477.6,1407.9 477.4,1432 479.1,1435.6 C481.2,1440.3 486.5,1442 507.2,1444.7 C530.4,1447.7 572,1453.8 628.4,1462.6 C663,1468 690.9,1471.3 786.4,1481.6 C850.2,1488.5 908,1494.8 914.9,1495.6 C933.1,1497.7 935.9,1497.9 951.4,1497.7 C962.5,1497.5 966.1,1497.2 968.7,1495.8 L968.7,1495.8 Z M1663.4,1197 C1686,1196.4 1704.5,1195.7 1704.7,1195.6 C1706.1,1194.4 1692,1085.1 1671.9,941.3 C1670.6,932.2 1668.7,928.3 1664.5,926.6 C1662,925.5 1649.7,924.9 1613.8,924.1 C1587.7,923.5 1545.9,922.4 1520.9,921.6 C1427.3,918.6 1410.1,917.6 1307.4,909.6 C1243.7,904.6 1206.2,901.2 1190.9,899 C1165.3,895.5 1148.3,894.7 1145.4,897.1 C1140.9,900.8 1141,897.6 1144,1028.6 C1145.5,1096.8 1147.3,1155.7 1147.9,1159.6 C1149.8,1171.6 1152.3,1174.2 1163.9,1176 C1167.5,1176.6 1217.9,1180 1275.9,1183.6 C1366,1189.3 1398.5,1190.9 1498.4,1194.5 C1562.8,1196.8 1617,1198.6 1618.9,1198.4 C1620.8,1198.3 1640.9,1197.7 1663.4,1197 L1663.4,1197 Z M989.8,1148.9 C991.7,1137.9 993.9,1116.8 993.9,1109.6 C993.9,1094.1 980.8,890.5 979.5,886.6 C978.5,883.3 977.7,882.5 974.8,881.8 C968.3,880.3 504.5,834.1 503.8,834.8 C502.7,836.1 499.1,848 497.9,854.6 C497.1,858.4 496.4,884.9 495.9,927.6 C495.4,964.5 494.7,1019.4 494.3,1049.7 L493.6,1104.8 L517.5,1109.4 C558.7,1117.4 583.5,1121.4 618.9,1125.7 C637.3,1127.9 735,1135.7 829.4,1142.6 C848.7,1144 885.3,1146.9 910.9,1149.1 C977.8,1154.8 977.9,1154.8 983.5,1155 L988.7,1155.1 L989.8,1148.9 L989.8,1148.9 Z" id="Shape" sketch:type="MSShapeGroup"></path>
            <path d="M1690.9,578.9 C1691,572.9 1693.2,558.4 1694.5,554.9 C1697.9,546.4 1705.3,536.9 1723.3,518.2 C1758.8,481.6 1835,381.8 1884.1,307.7 C1901.8,281.1 1900.3,283.7 1954.4,180.1 C1979.6,132 2002.1,89.6 2004.6,85.9 C2010,77.6 2022.2,64.5 2029.9,58.6 C2047.4,45.1 2064.7,39.1 2085.8,39.1 C2098.5,39.1 2105.5,40.7 2116.4,46 C2147.4,61.2 2168.9,100.5 2168.9,141.6 C2168.9,232.9 2088.7,344 1943.9,453.5 C1843.4,529.4 1774.4,565.4 1704,578.5 C1693.9,580.4 1690.9,580.5 1690.9,578.9 L1690.9,578.9 Z" id="Shape" sketch:type="MSShapeGroup"></path>
            <path d="M282.8,527.4 C225,433.1 146.1,324 84.4,253.1 C12.1,170.1 2,152.2 0.2,104.6 C-1.3,63.6 8.3,32.6 28,14.8 C45.5,-1.1 70.4,-4.4 93.5,6.1 C151.6,32.4 228.7,146.5 279.2,280.7 C301.1,338.9 315,392.8 321.1,443.1 C323.2,460.7 322.8,495.4 320.1,518.6 C318.8,529.6 317.6,538.7 317.5,538.8 C317.2,539.2 295.2,544.1 294.1,544.1 C293.5,544.1 288.5,536.6 282.8,527.4 L282.8,527.4 Z" id="Shape" sketch:type="MSShapeGroup"></path>
            <path d="M1209.1,539.4 L1203.8,535.6 L1204.4,531 C1205.6,520.5 1212.1,505.9 1227.3,479.3 C1244.8,448.6 1260.7,414 1270.3,385.9 C1272.8,378.6 1289.2,322.2 1306.9,260.6 C1335.4,161.2 1339.6,147.4 1344.3,137.6 C1352.8,120.1 1363.2,106.7 1376.7,96 C1386.2,88.4 1394.3,83.9 1405.9,80 C1415,76.8 1416.1,76.7 1430.4,76.7 C1444,76.7 1446.1,76.9 1453.4,79.4 C1464.8,83.2 1473.2,88.4 1482.5,97.6 C1501.8,116.6 1510.9,143.3 1510.9,180.6 C1510.9,197.3 1509.9,208.4 1506.8,224.4 C1490.1,313.5 1417.2,408.9 1303.9,490.1 C1287.3,502 1264.3,517 1248.9,525.8 C1237.8,532.2 1216.5,543.1 1215.1,543.1 C1214.7,543.1 1211.9,541.4 1209.1,539.4 L1209.1,539.4 Z" id="Shape" sketch:type="MSShapeGroup"></path>
            <path d="M716.9,511.5 C716.9,500.7 719.2,476.1 722,457.1 C723.8,444.3 728.9,391.5 735.5,316.1 C747.2,181.2 747.7,176 752,150.1 C760.4,98.9 773,67.7 792.8,48.9 C806.8,35.5 820.7,30.5 841.7,31.3 C860.5,32.1 872,37.4 886.9,52.1 C913.1,78 931.1,125.4 932.6,172.6 C935.3,255.9 894.9,345.7 813.5,437.6 C796.7,456.5 761.2,492.7 751.4,500.9 C739.1,511.2 729,516 719.7,516.1 C717,516.1 716.9,515.9 716.9,511.5 L716.9,511.5 Z" id="Shape" sketch:type="MSShapeGroup"></path>
        </g>
    </g>
</svg>