<?xml version="1.0" encoding="UTF-8" standalone="no"?>
<svg width="2314px" height="2468px" viewBox="0 0 2314 2468" version="1.1" xmlns="http://www.w3.org/2000/svg" xmlns:xlink="http://www.w3.org/1999/xlink" xmlns:sketch="http://www.bohemiancoding.com/sketch/ns">
    <!-- Generator: Sketch 3.0.4 (8054) - http://www.bohemiancoding.com/sketch -->
    <title>Slice 2</title>
    <desc>Created with Sketch.</desc>
    <defs></defs>
    <g id="Page-1" stroke="none" stroke-width="1" fill="none" fill-rule="evenodd" sketch:type="MSPage">
        <g id="Group" sketch:type="MSLayerGroup" transform="translate(1157.100000, 1233.750000) scale(1, -1) translate(-1157.100000, -1233.750000) translate(0.200000, 0.100000)" fill="#000000">
            <path d="M1022.5,2465.8 C1005.8,2462.8 990.3,2454.9 978.7,2443.4 C966.6,2431.4 960.7,2416.9 962.3,2402.9 C963.8,2389.4 968.8,2383.8 997.8,2363.1 C1017.1,2349.4 1023.1,2344.3 1031.2,2334.6 C1055.9,2304.8 1071.4,2263.1 1078.3,2206.9 C1082,2177.1 1082.2,2160.5 1080.7,1976.9 C1079.3,1812.4 1079.1,1799.7 1077.5,1796.7 C1074,1790.2 1076,1790.8 1021.8,1781.9 C983,1775.6 978.8,1775.1 920.8,1770.3 C827,1762.7 777.3,1760 722.8,1760 C674.6,1759.9 663.7,1760.6 637.8,1765.5 C615.7,1769.7 589.4,1777.5 571.6,1785.1 L565,1788 L642.5,1897.9 C685.2,1958.4 722.5,2011.6 725.4,2016 C738,2035.1 742.8,2057.5 737.8,2073.6 C735.5,2081.2 727.8,2094.1 718.8,2105.6 C709.5,2117.5 669.6,2157.2 646.8,2177 C600.1,2217.8 569.3,2238.6 547.3,2244.1 C537.3,2246.6 511,2246.6 501.3,2244 C477.3,2237.8 461.9,2222.5 460.1,2203.2 C459.3,2195.1 460.5,2191.6 472.4,2165.3 C494,2117.9 495.9,2111.7 496.5,2086.9 C497,2068.9 495.7,2054.2 491.7,2035.4 C467.2,1917.5 345.1,1738.1 157,1543.6 C132.3,1518.1 124.8,1511.1 89.8,1481.4 C49.5,1447.2 41.8,1438.1 41.8,1424.5 C41.8,1416.2 43.9,1412.5 50.5,1409.3 C57.7,1405.7 70.3,1406 86.8,1410.1 C171.6,1431.3 284,1497.8 374.8,1580.4 C402.6,1605.7 442.3,1647.1 473.6,1683.5 C480.6,1691.6 486.6,1698.3 487,1698.3 C487.4,1698.4 498.4,1691.6 511.5,1683.3 C586.3,1635.6 610.4,1621.8 634.3,1612.9 C651.3,1606.5 661.8,1604.2 676.3,1603.7 C692.1,1603.1 700.9,1604.2 767.3,1615.4 C811.4,1622.8 839.9,1626.8 956.3,1641.4 C1003.7,1647.4 1072.9,1655.4 1077.1,1655.4 L1079.4,1655.4 L1080.7,1623.7 C1081.7,1598.3 1081.7,1553.3 1080.7,1396 C1080,1288.1 1079.4,1199.8 1079.4,1199.7 C1079.1,1199.2 930.5,1173.8 910.5,1170.9 C857.4,1163.1 736,1146.9 617.3,1131.9 C588.7,1128.3 550.5,1123.3 532.3,1120.8 C394.3,1102.1 308,1093.4 258.2,1093.4 C216.9,1093.4 183.2,1098.4 149.1,1109.6 C125.3,1117.4 108.2,1126.4 83.5,1144.1 C50.1,1168.1 43.7,1170.6 31.7,1164.7 C7.9,1152.8 -6.3,1109.6 2.8,1076.6 C8.9,1054.7 19.2,1041.8 53.8,1013 C112.3,964.3 166.9,926 207.3,905.2 C236.4,890.3 254.6,884.4 271.4,884.4 C286.8,884.4 309.6,891.1 388.1,918.5 C486.7,953 665.7,990.5 912.8,1028.3 C968.5,1036.9 1072.8,1051.8 1073.3,1051.3 C1074,1050.5 1059.7,554.4 1055.8,447.1 C1053.2,375 1051.8,322.4 1051.8,299.1 C1051.8,175.2 1063.2,86.2 1085.3,37.9 C1090.2,27 1096.8,17.6 1104.2,10.6 C1112.8,2.6 1119.2,0 1130.9,0 C1139,0 1140.1,0.3 1147.4,3.9 C1176.4,18.1 1200.2,67.9 1216.7,148.8 C1225.5,191.7 1231.1,237.6 1233.8,288.9 C1234.4,301 1235.4,459.5 1236.3,690.8 C1237.1,900.8 1237.9,1072.9 1238.2,1073.1 C1238.4,1073.4 1246.2,1075.3 1255.5,1077.4 C1272.1,1081.3 1274.3,1081.5 1432.7,1095.9 C1588.7,1110.1 1597.2,1110.7 1738.2,1119.9 L1883.3,1129.3 L2031.8,1126.4 C2157.5,1123.9 2183.8,1123.1 2203.3,1121.3 C2216,1120.2 2232.8,1119.2 2240.8,1119.1 C2258,1118.9 2263.6,1120.1 2277.8,1127.1 C2285.7,1131 2288.7,1133.2 2295.8,1140.3 C2301.7,1146.2 2305.3,1150.9 2307.5,1155.4 C2324.3,1189.3 2307.7,1221.7 2256.3,1255.4 C2242.9,1264.1 2204.6,1283.2 2184.8,1291 C2137.4,1309.6 2080.6,1324.4 2056.3,1324.5 C2039.2,1324.6 2012.9,1319.3 1920.9,1296.9 C1901.5,1292.2 1882.6,1287.9 1878.9,1287.4 C1875.3,1286.9 1842.4,1284 1805.8,1280.9 C1753.2,1276.5 1687.9,1269.7 1494,1248.4 C1359.2,1233.5 1248,1221.4 1247.1,1221.4 C1245.4,1221.4 1245.4,1269.4 1247.5,1584.6 L1248.1,1686.3 L1252.7,1687.3 C1255.2,1687.9 1369.4,1704.8 1506.3,1724.9 C1708.4,1754.6 1761.9,1762.2 1790.3,1765 C1829.3,1768.9 1849.7,1771.6 1860.6,1774.4 C1880.6,1779.4 1899.9,1798.6 1907.2,1820.5 C1920.3,1859.9 1898.6,1902.9 1858.9,1915.8 C1849.8,1918.8 1790.4,1929.6 1757.3,1934.3 C1719.1,1939.8 1683.5,1941.2 1666.6,1938 C1649.6,1934.8 1630.4,1927.4 1573.3,1901.9 C1534.2,1884.5 1525.2,1881 1502.5,1874.4 C1481.6,1868.4 1484.2,1869 1373.8,1845.4 C1296.1,1828.8 1252,1820 1251,1820.9 C1250.9,1821 1253.9,1892.4 1257.8,1979.5 C1263.9,2115.5 1265.2,2140.2 1267.2,2154.4 C1268.5,2163.5 1271.9,2186.7 1274.7,2205.9 C1282,2256.9 1283.1,2267.8 1282.4,2281.9 C1281,2310.4 1275.6,2318.9 1234.3,2357.3 C1214.1,2376.1 1201.1,2386.2 1169.8,2406.9 C1140.6,2426.3 1122.8,2436.8 1100.3,2447.9 C1064.3,2465.7 1045.6,2470 1022.5,2465.8 L1022.5,2465.8 Z" id="Shape" sketch:type="MSShapeGroup"></path>
        </g>
    </g>
</svg>