<?xml version="1.0" encoding="UTF-8" standalone="no"?>
<svg width="1053px" height="2341px" viewBox="0 0 1053 2341" version="1.1" xmlns="http://www.w3.org/2000/svg" xmlns:xlink="http://www.w3.org/1999/xlink" xmlns:sketch="http://www.bohemiancoding.com/sketch/ns">
    <!-- Generator: Sketch 3.0.4 (8054) - http://www.bohemiancoding.com/sketch -->
    <title>Slice 2</title>
    <desc>Created with Sketch.</desc>
    <defs></defs>
    <g id="Page-1" stroke="none" stroke-width="1" fill="none" fill-rule="evenodd" sketch:type="MSPage">
        <g id="Group" sketch:type="MSLayerGroup" transform="translate(526.300000, 1171.000000) scale(1, -1) translate(-526.300000, -1171.000000) translate(0.300000, 1.000000)" fill="#000000">
            <path d="M605.9,2338.9 C591.8,2336.5 575.1,2328.4 566.2,2319.5 C557.8,2311.3 555.2,2305.6 555.2,2295.9 C555.2,2288.5 555.3,2288.2 560.1,2280.9 C566.2,2271.7 570.9,2265.8 592.9,2239.8 C618.6,2209.4 621.9,2204.4 626.7,2189.1 C635.4,2161.6 641.1,2121.9 645.6,2058.5 C649.7,2001.7 650.4,1975.8 651.7,1828 C652.2,1767.2 652.9,1708.3 653.2,1697 L653.7,1676.5 L649.5,1673.8 C644.8,1670.9 614.9,1662.6 545.2,1645 C459.4,1623.3 424.8,1617.2 394.7,1618.4 C386.2,1618.7 377.5,1619.3 375.5,1619.8 L371.8,1620.5 L377.9,1628.5 C389.6,1644.1 411.2,1674.7 422.3,1691.5 C437.9,1715.2 446.6,1730 455.6,1748 C468.8,1774.6 471.9,1787.6 467.9,1800.6 C454.6,1844 352.5,1923.4 290.9,1938.1 C273.3,1942.4 254.8,1939.1 239.4,1929.1 C224.9,1919.6 218.2,1908.6 218.9,1895.4 C219.3,1886.8 221,1883.7 238.7,1860.2 C257.6,1835 260.7,1826.7 260.7,1801 C260.8,1738.1 233.5,1658.8 179.3,1564.1 C144.6,1503.6 103.4,1442.7 38.3,1356 C21.2,1333.2 6,1312.1 4.5,1309.3 C-1.1,1298.2 -1.6,1286.6 3.4,1281.6 C7,1277.9 12.7,1278.1 20.4,1282.1 C36.9,1290.6 83.3,1329.2 128.7,1372 C138.3,1381.1 175,1415.3 210.2,1447.9 C245.4,1480.6 276.7,1509.7 279.7,1512.7 L285.3,1518 L301.1,1508.9 C347.2,1482.6 380.7,1469.9 408.7,1468.3 C413.9,1468 420.9,1468.3 424.3,1468.8 C427.6,1469.4 480.5,1486.1 541.7,1505.9 C603,1525.7 653.2,1541.8 653.3,1541.7 C653.8,1541 650.5,1064.4 649.9,1063.9 C648.9,1063 593.1,1039 492.7,996.3 C384.5,950.3 203.2,875.3 194.2,872.8 C189.7,871.6 182.3,870.7 173.6,870.3 C160.5,869.8 159.7,869.8 154.5,872.2 C151.4,873.7 146.4,877.3 143,880.6 C136.9,886.6 121.9,905.1 111.2,919.7 C104.4,929.1 105.2,928.8 91,926.5 C58.7,921.3 41.5,907.2 34.7,880.3 C31.9,869.5 31.1,850.9 33,840.4 C35.3,828 45.3,806.3 62.7,776 C64.8,772.4 71.5,760.1 77.7,748.5 C101.5,704.3 113.2,685.8 125.6,672.8 C134.7,663.2 141.8,658.4 151.6,655.3 C158.5,653 160.4,652.9 173.2,653.3 C202.8,654.2 210.8,658.8 309.7,731 L337.2,751 L378.7,771.9 C416.9,791.2 429.2,798.1 533.7,859.4 L647.2,926 L647.5,875.8 C647.6,848.1 646.6,755.5 645.2,670 C642.8,523.9 642.3,504.2 636.2,343 C632.6,248.7 629.7,166.6 629.7,160.5 C629.7,144.6 633.3,123.9 643.7,79.8 C647.7,62.9 649.5,57.3 653.3,49.8 C669.5,17.3 693.7,-2.27373675e-13 722.6,-2.27373675e-13 C741.6,-2.27373675e-13 757.2,7.7 769.7,23.2 C775.1,30.1 785.4,49.8 788.7,59.7 C800.2,94.8 802.6,127.9 798.8,198 C797.7,219.2 796.5,243.5 796.2,252 C795.6,267.2 790.7,954.5 790.7,1005.6 L790.8,1031.5 L879.4,1093 C977.6,1161.1 987.4,1168.1 999.7,1178.4 C1025.8,1200.2 1040.7,1218.4 1040.7,1228.5 C1040.7,1233.3 1035.8,1238.5 1030.2,1239.6 C1024.5,1240.6 1014.2,1238.4 1002.6,1233.6 C996.9,1231.2 945.9,1206.7 889.3,1179.1 C832.7,1151.6 786.2,1129.2 786,1129.4 C785.8,1129.6 786.3,1134.9 787.1,1141.1 C790.2,1164.9 791.4,1216.6 794.2,1446.5 C795,1513.6 795.7,1571.1 795.7,1574.2 L795.7,1579.8 L808.8,1585 C837.1,1596.1 852,1599.2 921.6,1608.5 C955.2,1613 977.1,1616.6 989.2,1619.6 C1018,1626.8 1034.3,1637 1041.6,1652.3 C1043.3,1655.9 1046.3,1664.4 1048.3,1671.3 L1051.9,1683.9 L1041.5,1699.2 C1028.3,1718.8 1019,1728.2 1004.6,1736.7 C985.9,1747.7 964,1756.4 942.7,1761.2 C933.6,1763.2 929.6,1763.5 913.2,1763.5 C896.1,1763.4 893,1763.1 882.5,1760.7 C861,1755.6 835.8,1746.1 810.6,1733.4 C804.5,1730.4 799.3,1728.1 799,1728.4 C798.7,1728.7 799,1777.2 799.6,1836.2 C800.8,1943.1 800.9,1943.9 806.3,2058 C809.4,2121 812.1,2181.3 812.4,2192 C812.9,2210.4 812.8,2211.8 810.7,2217.4 C802.4,2239.4 770.8,2271.8 737.5,2292.6 C708.8,2310.5 665.7,2328.4 630.4,2337 C617.8,2340.1 614.7,2340.4 605.9,2338.9 L605.9,2338.9 Z" id="Shape" sketch:type="MSShapeGroup"></path>
        </g>
    </g>
</svg>