<?xml version="1.0" encoding="UTF-8" standalone="no"?>
<svg width="212px" height="210px" viewBox="0 0 212 210" version="1.1" xmlns="http://www.w3.org/2000/svg" xmlns:xlink="http://www.w3.org/1999/xlink" xmlns:sketch="http://www.bohemiancoding.com/sketch/ns">
    <!-- Generator: Sketch 3.0.4 (8053) - http://www.bohemiancoding.com/sketch -->
    <title>Untitled 4</title>
    <desc>Created with Sketch.</desc>
    <defs></defs>
    <g id="Page-1" stroke="none" stroke-width="1" fill="none" fill-rule="evenodd" sketch:type="MSPage">
        <path d="M88.296,9.856 C94.0560288,14.2720221 96.936,17.6319885 96.936,19.936 C96.936,22.2400115 95.5920134,23.9679942 92.904,25.12 C90.0239856,26.4640067 86.8560173,28.3839875 83.4,30.88 C71.4959405,39.5200432 57.1920835,48.1599568 40.488,56.8 C37.2239837,58.5280086 34.2480134,59.9679942 31.56,61.12 C31.752001,61.312001 31.848,77.248 31.848,77.248 C31.848,80.5120163 32.6159923,93.4718867 34.152,116.128 L68.712,109.504 C72.3600182,108.543995 75.7199846,107.296008 78.792,105.76 C80.5200086,104.799995 81.6719971,104.32 82.248,104.32 C85.7040173,104.32 89.1599827,105.375989 92.616,107.488 C96.2640182,110.368014 98.088,112.671991 98.088,114.4 C98.088,118.048018 95.1120298,119.872 89.16,119.872 L35.016,127.648 L35.016,128.8 C36.9360096,157.600144 38.2799962,178.143939 39.048,190.432 C86.6642381,186.591981 133.223772,183.808009 178.728,182.08 C179.304003,179.199986 179.687999,175.648021 179.88,171.424 C181.80001,149.34389 183.431993,130.240081 184.776,114.112 L147.912,118.144 C145.031986,118.720003 142.344012,119.199998 139.848,119.584 C137.92799,120.544005 136.00801,121.024 134.088,121.024 C130.631983,121.024 126.312026,118.336027 121.128,112.96 C117.09598,108.543978 115.08,105.664007 115.08,104.32 C115.08,101.247985 116.231988,99.712 118.536,99.712 C128.328049,103.552019 136.487967,105.472 143.016,105.472 C145.320012,105.472 159.623868,103.840016 185.928,100.576 C187.464008,79.0718925 188.232,63.8080451 188.232,54.784 C188.232,50.175977 186.696015,47.872 183.624,47.872 C181.127988,48.6400038 167.016129,51.519975 141.288,56.512 C138.023984,57.4720048 135.624008,57.952 134.088,57.952 C132.743993,57.952 129.09603,56.1280182 123.144,52.48 C117.767973,48.2559789 115.08,45.2800086 115.08,43.552 C115.08,41.2479885 115.847992,40.096 117.384,40.096 C123.720032,41.6320077 130.439964,42.4 137.544,42.4 C141.768021,42.4 152.039918,40.6720173 168.36,37.216 C174.888033,36.0639942 180.16798,34.4320106 184.2,32.32 C186.312011,30.7839923 188.039993,30.016 189.384,30.016 C192.072013,30.016 196.679967,32.511975 203.208,37.504 C208.200025,41.7280211 210.696,45.1839866 210.696,47.872 C210.696,48.2560019 210.312004,49.5999885 209.544,51.904 C207.239988,55.9360202 205.704004,61.6959626 204.936,69.184 L194.856,185.248 C194.087996,193.696042 192.456012,199.551984 189.96,202.816 C187.847989,206.080016 185.352014,207.712 182.472,207.712 C180.935992,207.712 179.112011,206.080016 177,202.816 C175.463992,199.743985 174.696,196.864013 174.696,194.176 C130.535779,195.328009 85.5122294,197.919983 39.624,201.376 L39.624,203.104 C39.624,207.712023 37.4160221,210.016 33,210.016 C28.9679798,210.016 26.6640029,205.888041 26.088,197.632 L17.16,93.088 C16.3919962,81.9519443 15.0480096,74.5600182 13.128,70.912 C11.5919923,66.303977 8.32802496,62.1760182 3.336,58.528 C1.22398944,57.3759942 0.168,56.5120029 0.168,55.936 C2.66401248,54.0159904 5.73598176,52.4800058 9.384,51.328 C11.3040096,51.328 15.8159645,52.4799885 22.92,54.784 C24.2640067,55.1680019 25.4159952,55.5519981 26.376,55.936 C40.584071,46.7199539 53.3519434,35.6800643 64.68,22.816 C69.672025,17.2479722 72.168,12.8320163 72.168,9.568 C72.168,7.45598944 70.7280144,5.24801152 67.848,2.944 C67.848,1.40799232 69.2879856,0.64 72.168,0.64 C74.8560134,0.64 80.2319597,3.71196928 88.296,9.856 L88.296,9.856 Z" id="臼-2" fill="#000000" sketch:type="MSShapeGroup"></path>
    </g>
</svg>