<?xml version="1.0" encoding="UTF-8" standalone="no"?>
<svg width="2121px" height="846px" viewBox="0 0 2121 846" version="1.1" xmlns="http://www.w3.org/2000/svg" xmlns:xlink="http://www.w3.org/1999/xlink" xmlns:sketch="http://www.bohemiancoding.com/sketch/ns">
    <!-- Generator: Sketch 3.0.4 (8054) - http://www.bohemiancoding.com/sketch -->
    <title>Slice 2</title>
    <desc>Created with Sketch.</desc>
    <defs></defs>
    <g id="Page-1" stroke="none" stroke-width="1" fill="none" fill-rule="evenodd" sketch:type="MSPage">
        <g id="Group" sketch:type="MSLayerGroup" transform="translate(1060.500000, 422.600000) scale(1, -1) translate(-1060.500000, -422.600000) translate(0.000000, 0.100000)" fill="#000000">
            <path d="M1861.5,842.7 C1849.3,839.4 1839.7,836 1804.5,822.1 C1788,815.6 1770.9,809.4 1766.5,808.2 C1728.9,798.7 1703.7,794.9 1285.6,735.1 C943.8,686.1 867.6,675.5 747,660.1 L606.5,642.2 L487.5,631.6 L368.5,621 L321,623.6 C294.9,625.1 273.3,626.4 273.1,626.7 C272.9,626.9 268.5,641.8 263.3,659.8 C243.2,730.4 228,769.5 210.9,795.1 C203.3,806.4 191.4,817.8 182.5,822.2 C176.3,825.2 174.8,825.6 166.9,825.6 L158.2,825.6 L148.1,818.7 C142.6,814.9 137.5,811.2 136.9,810.5 C136.1,809.5 137.1,793.9 140.9,750.1 C148.4,664.5 149.3,649.1 148.7,618.6 C147.9,582.9 144.9,556.9 136.4,514.2 C124.7,455.1 105.5,389.8 82.5,331.1 C67,291.7 60.8,278.8 42.3,248.8 C5,187.9 0,176.2 0,149.1 C0,127.3 4.8,98.7 12.5,75.6 C25.5,36 45.4,10.3 69.7,2 C75.5,-2.01944017e-12 78.4,-0.4 89,-0.3 C100.2,-0.3 102.3,-2.01944017e-12 108.9,2.5 C120.2,6.8 129.3,12.7 139.7,22.5 C177.9,58.5 211.9,135.5 239.4,248.1 C256.6,318.4 270.4,401.6 277,475.6 C277.7,482.8 278.3,488.7 278.5,488.9 C278.6,489 290.2,487.4 304.1,485.2 C341,479.3 347.4,478.7 365.5,479.4 C386.9,480.2 460.8,487.7 481,491.1 C522.9,498.3 1492.9,629.2 1581.7,639.6 C1645.8,647.2 1737.2,656.4 1774.4,659.2 C1796.9,660.8 1805.5,659.4 1812.2,653 C1815.5,649.9 1816,648.8 1816,645 C1816,639.3 1814.3,633.1 1809.1,620 C1798.8,593.6 1788.5,575.4 1724.6,470.7 C1690.2,414.2 1662,367.5 1662.1,366.8 C1662.1,366.2 1663.8,362.9 1665.9,359.6 C1669,354.6 1670.1,353.7 1672.1,353.9 C1677.2,354.6 1716.4,368.2 1735.6,375.9 C1782.1,394.7 1845.1,425.9 1915.5,465.1 C1984.6,503.6 2013.2,515.5 2051.5,522.1 C2091.6,529 2109.1,537.7 2117.4,555.1 C2120.3,561.2 2120.5,562.3 2120.5,572.6 C2120.4,582.4 2120.1,584.7 2117.2,593.1 C2108.7,617.6 2088.7,646.8 2052,688.2 C2003.7,742.7 1958.5,789.5 1934.7,809.6 C1914.8,826.5 1897.4,838 1885.9,842.1 C1876.8,845.2 1871.6,845.4 1861.5,842.7 L1861.5,842.7 Z" id="Shape" sketch:type="MSShapeGroup"></path>
        </g>
    </g>
</svg>