<?xml version="1.0" encoding="UTF-8" standalone="no"?>
<svg width="2344px" height="2284px" viewBox="0 0 2344 2284" version="1.1" xmlns="http://www.w3.org/2000/svg" xmlns:xlink="http://www.w3.org/1999/xlink" xmlns:sketch="http://www.bohemiancoding.com/sketch/ns">
    <!-- Generator: Sketch 3.0.4 (8054) - http://www.bohemiancoding.com/sketch -->
    <title>Slice 2</title>
    <desc>Created with Sketch.</desc>
    <defs></defs>
    <g id="Page-1" stroke="none" stroke-width="1" fill="none" fill-rule="evenodd" sketch:type="MSPage">
        <g id="Group" sketch:type="MSLayerGroup" transform="translate(1172.400000, 1142.050000) scale(1, -1) translate(-1172.400000, -1142.050000) translate(1.000000, 0.100000)" fill="#000000">
            <path d="M649.1,2282.5 C637.5,2279.9 626.4,2273.8 615.4,2263.8 C607.7,2256.7 590.8,2236.9 591.4,2235.5 C591.6,2234.9 598.8,2224.9 607.4,2213.3 C616,2201.6 627.2,2185.9 632.3,2178.3 C657.6,2140.6 658.1,2128.4 636.1,2083.5 C617.2,2044.7 582.7,1989.4 536.5,1923.5 C499.4,1870.5 490.8,1859.9 394.2,1749.2 L303.2,1644.9 L198.4,1547.8 C140.7,1494.5 92.6,1450 91.6,1449 C89.8,1447.2 89.8,1447.1 92.7,1441.9 C97,1434.3 100.4,1432.7 110.8,1433.4 C151.7,1436.3 241.8,1476.3 339.3,1534.8 C364.2,1549.7 397,1571.3 413.5,1583.7 C422.2,1590.1 579.4,1719.2 595.2,1732.8 C596.7,1734.1 599.1,1733.3 618.2,1725.2 C699.5,1690.7 744.6,1679 796.9,1679 C815.2,1679 824.6,1680 882.5,1688.1 C923.1,1693.7 949.8,1697 955.1,1697 C958.3,1697 959.5,1696.2 964.1,1691.2 C1003.9,1648.3 1021.5,1601.5 1019.7,1543.5 C1018.9,1518.1 1014.6,1479.2 999,1358.5 C995.2,1328.8 991.6,1299.3 991,1293 C989.5,1276.1 988.2,1269.3 985.5,1264 C979.5,1252.1 963.9,1245.4 927,1238.6 C910.8,1235.6 451.4,1165.1 425,1161.6 C393.4,1157.3 385.3,1156.8 365.5,1158 C309.5,1161.3 264.6,1166.1 241,1171.2 C235.8,1172.3 217.1,1178.4 199.5,1184.7 C134,1208.3 110.8,1215.2 96.5,1215.4 C88.6,1215.4 86.9,1215.1 82.4,1212.8 C69.7,1206.2 63.7,1192.6 63.8,1171 C63.9,1144 73.6,1123.4 97.5,1099.4 C116.8,1079.9 132.8,1067.9 179.6,1037.9 C233.9,1003 245.4,996.7 279.2,983.4 L300.9,974.9 L316.2,979.9 C376,999.7 486.2,1026.3 615,1052 C675.6,1064.1 941,1113.3 941.7,1112.6 C942.9,1111.4 926,1048 915.3,1013.5 C875.5,885.1 808.3,761.5 697.9,613.4 C679.9,589.3 659.8,563.9 642.1,543 C594.2,486.5 530.6,422.6 481.8,381.8 C468.6,370.8 310.4,248.2 284.8,229.2 C218,179.5 121.2,117.5 65.6,88.7 C35.4,73.1 27.1,68.3 11.8,57.3 L0,48.9 L0,43 L0,37.2 L11.8,36.3 C31.4,34.9 63.2,35.4 74.5,37.4 C104,42.4 133,52 214.1,83.6 C290.1,113.2 318.9,125.6 367,149.7 C477.7,205 580.9,277.3 689.4,375.5 C700.4,385.4 715.2,398.7 722.4,404.9 C775.2,451.2 817.9,494.3 855.4,539.3 C920.8,617.9 974.6,705.8 1014.3,799 C1020,812.5 1043.1,867.5 1065.5,921.3 C1098.1,999.2 1106.6,1018.8 1107.6,1017.8 C1108.3,1017.1 1212.2,873.9 1338.6,699.5 L1568.4,382.5 L1630.1,305 C1708.1,207.1 1723.2,189.7 1779.5,133.5 C1849.8,63.2 1903.8,20.1 1936,8.5 C1945.2,5.2 1935.5,5.6 2076,2.5 L2186.5,-6.82121026e-13 L2206,2.5 C2219.5,4.2 2230.4,5 2241.2,5 C2256.3,5 2257.2,5.1 2264.7,8 C2278.6,13.4 2286.6,15.1 2301,15.7 L2314.5,16.3 L2328,23.7 C2335.4,27.8 2341.9,31.5 2342.4,32 C2343.8,33.4 2341.3,43.8 2338,50.5 C2331,64.6 2318.5,74.8 2282.5,95.5 C2273.2,100.9 2214.2,139.3 2151.5,180.8 L2037.5,256.3 L1939.9,331.2 L1842.3,406 L1756.9,479.4 L1671.5,552.8 L1567.8,665.7 C1495.5,744.6 1441.2,804.9 1388.1,865.5 C1316.7,946.9 1307.6,957.7 1240.3,1041.2 C1185.8,1108.7 1167.6,1132 1164.7,1137.7 C1162.6,1141.8 1161,1145.3 1161.2,1145.5 C1161.4,1145.7 1194.8,1152.4 1235.5,1160.4 L1309.5,1174.9 L1429,1188.4 L1548.5,1201.9 L1689.9,1211 L1831.2,1220.2 L1941.9,1215.1 C2002.7,1212.3 2056.2,1210 2060.6,1210 C2070.4,1210 2079.3,1212.5 2089.8,1218.1 C2108.5,1228.1 2120.3,1241.4 2126.6,1259.5 C2129.2,1266.7 2129.4,1268.8 2129.5,1281.5 C2129.5,1297.8 2128.1,1304.1 2122,1316.7 C2108.9,1343.4 2080.1,1364.3 2035.8,1379.5 C1986.2,1396.5 1919.8,1403.6 1877.5,1396.4 C1862,1393.8 1838.2,1388.2 1816.4,1382.2 C1773.1,1370.1 1788.5,1372.5 1473,1327.5 C1309.9,1304.3 1176.4,1285.4 1176.2,1285.5 C1175.9,1285.8 1179.4,1303.3 1192.5,1367.4 C1204.9,1428.2 1209.6,1447.9 1228.9,1519.3 C1244.1,1575.7 1245.3,1581.8 1244.7,1599.5 C1244.4,1607.2 1243.2,1618.7 1242,1625 C1240.2,1635.1 1239.6,1636.7 1237.2,1638.5 C1204.3,1662.8 1126.1,1727.6 1127.7,1729.1 C1130.6,1731.9 1261.6,1758.9 1313.5,1767.5 C1328.9,1770 1405.6,1782.9 1483.9,1796.1 L1626.2,1820 L1649.4,1820 C1663.5,1820 1676.6,1820.6 1683.1,1821.5 C1730.4,1827.7 1758.1,1846 1765.6,1876 C1767.9,1885.2 1767.1,1903.3 1764.1,1911.3 C1753.8,1937.8 1723.3,1958.7 1673.5,1973.4 C1642.9,1982.4 1607.2,1988.3 1584.5,1988.1 C1556.7,1987.9 1530.4,1982.3 1497,1969.3 C1466,1957.3 1423.6,1941.6 1405.7,1935.6 C1397.5,1932.9 1337.6,1917.7 1259.2,1898.5 L1126.5,1866.1 L1005.5,1844.6 C939,1832.8 880.9,1822.7 876.5,1822.1 C831.4,1816.1 753.3,1814.2 723,1818.5 C709.2,1820.4 684,1825 682.2,1825.9 C681.4,1826.4 700.3,1852.8 741.8,1909.1 C833.6,2033.6 837.3,2038.5 848.4,2050 C885.6,2088.4 900.6,2106.8 906.2,2120.8 C908.1,2125.8 908.4,2128.3 908.5,2140.5 C908.5,2154.2 908.4,2154.6 905.3,2161.2 C900.9,2170.5 897,2175.9 888.8,2184.2 C874.4,2198.5 865.7,2203.9 820.5,2226.6 C755.3,2259.3 716,2275.6 687,2282.1 C676.8,2284.3 658.6,2284.5 649.1,2282.5 L649.1,2282.5 Z" id="Shape" sketch:type="MSShapeGroup"></path>
        </g>
    </g>
</svg>