<?xml version="1.0" encoding="UTF-8" standalone="no"?>
<svg width="1280px" height="2399px" viewBox="0 0 1280 2399" version="1.1" xmlns="http://www.w3.org/2000/svg" xmlns:xlink="http://www.w3.org/1999/xlink" xmlns:sketch="http://www.bohemiancoding.com/sketch/ns">
    <!-- Generator: Sketch 3.0.4 (8054) - http://www.bohemiancoding.com/sketch -->
    <title>Slice 2</title>
    <desc>Created with Sketch.</desc>
    <defs></defs>
    <g id="Page-1" stroke="none" stroke-width="1" fill="none" fill-rule="evenodd" sketch:type="MSPage">
        <g id="Group" sketch:type="MSLayerGroup" transform="translate(640.100000, 1199.300000) scale(1, -1) translate(-640.100000, -1199.300000) translate(0.600000, 0.300000)" fill="#000000">
            <path d="M460.4,2397.2 C449,2395.7 442.5,2391.7 428.2,2377.1 C420.9,2369.8 415.4,2363.4 415.4,2362.3 C415.4,2359.6 429.3,2332.3 435.4,2322.8 C441.3,2313.8 459.8,2288.1 467.5,2278.3 C490.7,2248.6 501.5,2209.2 495.9,2174.3 C480.3,2077.3 370.9,1882.4 239.6,1717.6 C196.5,1663.5 166.7,1629.6 110.4,1570.3 C70.3,1528.1 64.1,1521.1 59.2,1513.1 C54.8,1506 54.3,1501.2 57.4,1494.5 C61.7,1485.1 68.7,1479.1 76.9,1477.8 C82,1477 96.3,1479.4 106.9,1482.8 C135.1,1492 169.8,1511.5 197.4,1533.6 C210.8,1544.4 327.3,1652 346.4,1671.3 C354.4,1679.3 370.8,1696.5 382.9,1709.4 C394.9,1722.2 405.1,1732.8 405.4,1732.7 C405.7,1732.7 413.3,1729 422.4,1724.6 C431.5,1720.2 444.3,1714.5 450.9,1712 C494.2,1695.7 544.7,1688 597.5,1689.8 L618.1,1690.5 L623.1,1683.6 C636.2,1665.9 644.1,1650.6 650.9,1630 C665.8,1584.7 668.8,1527.3 661.9,1425.3 C658.8,1380.4 650.6,1298.3 645.9,1264.8 C645.1,1259.3 644.4,1254.3 644.4,1253.6 C644.4,1253 639.5,1251.3 633.2,1249.8 C596.9,1241.3 546.4,1230.3 436.4,1206.7 C306.8,1179 299.2,1177.6 245.4,1171.7 C218.4,1168.8 179.4,1170.6 150.9,1176.2 C122.3,1181.7 111.6,1184.7 85.8,1194.2 C44.1,1209.5 36.5,1211.8 26.4,1211.8 C16.2,1211.8 11,1209.5 6.4,1203.1 C1.3,1196.1 -0.1,1189.7 1.1851839e-12,1173.8 C0.1,1161.4 0.4,1158.9 2.8,1151.9 C7.2,1139.1 16.8,1125.4 37.6,1102.5 C81.4,1054.3 129.3,1022.6 176.8,1010.3 C192.9,1006.1 207.2,1004.3 224,1004.3 C250.2,1004.3 258.9,1006.4 333.9,1031.3 C407.4,1055.6 430,1062.5 483.9,1076.8 C516.9,1085.6 579.5,1100.9 616.1,1109.1 L620,1110 L618.6,1102.4 C615.8,1086.7 606.1,1040.9 600.3,1015.8 C586.8,957.3 571.7,903.3 552.2,844.3 C454,547.2 319.9,313.4 136.5,120 C125.2,108 109.9,91.8 102.5,84 C76.4,56.3 57.3,31.5 55.8,23.6 C55,19.2 56.6,12.2 59.5,8.2 C60.6,6.7 63.9,4.2 66.8,2.8 C89.8,-8.4 129.6,12.7 219,83.5 C279.9,131.8 348.7,198.9 406.9,266.8 C518.7,397.1 610.9,551.8 676.9,719.7 C685.5,741.5 701.3,785.2 707.9,805.1 L711.6,816.4 L717.8,810.6 C834.9,700.6 895.7,630.9 961.9,530.8 C1003.7,467.5 1030.4,420.3 1054.8,366.8 C1080.3,310.6 1088.9,293.4 1099.1,278.1 C1104.7,269.8 1113,261.8 1118.8,259.3 C1124,256.9 1134.3,255.3 1143.9,255.4 C1183.9,255.4 1206.2,281 1213.6,335.3 C1215.6,350.2 1215.3,401.8 1213.1,416.7 C1206,463.9 1186.3,506.2 1146.8,558.3 C1117.3,597.1 1069.9,646 1019.9,688.8 C939.7,757.6 832.6,832.3 748.2,878.3 C738.5,883.7 730.7,888.2 730.9,888.5 C731.7,889.2 747.2,952.1 752.8,977.3 C760,1009.4 768.4,1051.6 778.4,1105.8 C782.9,1130 786.7,1149.9 786.8,1150.1 C787.3,1150.6 897.2,1176.3 935.4,1184.8 C956,1189.4 986.7,1195.9 1003.6,1199.2 C1036,1205.6 1117,1219.3 1148.9,1223.8 C1178.8,1228 1197.5,1235.3 1211.9,1248.5 C1236.2,1270.8 1237.7,1304.4 1215.7,1333.1 C1200.2,1353.3 1171.2,1372.8 1141,1383.2 C1125.6,1388.5 1115.3,1390.4 1101.4,1390.4 C1083.3,1390.4 1075.1,1387.8 1010.4,1361.3 C943.2,1333.8 911.3,1322.4 867.9,1310.4 C842.7,1303.5 811.1,1295.3 810.9,1295.6 C810.8,1295.7 811.5,1305.5 812.5,1317.3 C822.3,1432.6 825.9,1470.8 829.3,1494.3 C830.4,1501.7 834.6,1521.8 838.8,1538.8 C849.9,1584.7 850.7,1589 850.1,1600.8 C849.2,1618.3 844,1633.5 832.5,1652.4 C822.8,1668.4 815,1677.8 795.2,1697.5 C785.4,1707.2 777.8,1715.5 778.3,1715.8 C780.7,1717.2 841,1730.7 1018.4,1769.3 C1124.3,1792.4 1214.7,1812.5 1219.4,1813.9 C1250.2,1823.3 1270.2,1840.6 1277,1863.8 C1279.7,1873 1279.4,1888.1 1276.4,1895.8 C1268,1917.5 1243.9,1937.5 1206.3,1954.2 C1193.3,1959.9 1174.8,1966.4 1163,1969.4 C1123.5,1979.5 1112.3,1976.7 1035.8,1938.2 C953.3,1896.6 965.7,1900.6 787.3,1856.9 C695.2,1834.3 682.6,1831.8 631.2,1826.2 C606.8,1823.6 553.7,1822.5 527.7,1824.2 C506.1,1825.6 488.1,1827.4 487.2,1828.2 C486.9,1828.5 490.2,1833.3 494.6,1838.8 C534.4,1888.3 567.1,1931.7 601.9,1981.3 C652.5,2053.4 654.3,2055.8 684.6,2093.6 C712.7,2128.8 722.8,2143.2 727.6,2155.2 C729.6,2160.1 729.8,2162.7 729.9,2175.3 C729.9,2187.8 729.6,2190.9 727.6,2197.3 C724.6,2206.8 718.8,2217.9 712.2,2226.8 C704.3,2237.4 683,2258.1 662.4,2275.2 C652.2,2283.6 632.9,2299.9 619.4,2311.3 C559.3,2362.5 531.6,2381.7 503.7,2391.7 C490,2396.5 472.4,2398.8 460.4,2397.2 L460.4,2397.2 Z" id="Shape" sketch:type="MSShapeGroup"></path>
        </g>
    </g>
</svg>