<?xml version="1.0" encoding="UTF-8" standalone="no"?>
<svg width="1697px" height="734px" viewBox="0 0 1697 734" version="1.1" xmlns="http://www.w3.org/2000/svg" xmlns:xlink="http://www.w3.org/1999/xlink" xmlns:sketch="http://www.bohemiancoding.com/sketch/ns">
    <!-- Generator: Sketch 3.0.4 (8054) - http://www.bohemiancoding.com/sketch -->
    <title>Slice 2</title>
    <desc>Created with Sketch.</desc>
    <defs></defs>
    <g id="Page-1" stroke="none" stroke-width="1" fill="none" fill-rule="evenodd" sketch:type="MSPage">
        <g id="Group" sketch:type="MSLayerGroup" transform="translate(848.500000, 367.000000) scale(1, -1) translate(-848.500000, -367.000000) translate(0.000000, 0.500000)" fill="#000000">
            <path d="M753.8,732.5 C740.4,730.2 726.2,723.8 717.1,715.8 C710.6,710.1 704.7,701.3 703.1,695 C700.9,686.4 704.6,681.2 734.9,650.2 L753.6,631 L758.2,620.5 C767.3,599.7 774.2,573.9 779.2,542.5 L781.5,528 L781.5,410 C781.5,345.1 781.1,282.9 780.6,271.7 C779.8,252.3 779.6,251.5 777.6,251 C776.5,250.8 681.5,237.9 566.5,222.5 C451.6,207.1 341.1,192 321,189 C276.1,182.2 259.7,180.2 254.8,181 L251,181.7 L251,189.3 C251,202.1 253,258 254,274 C254.5,282.3 257.2,304.8 259.9,324 C267.9,380 268.7,393.6 264.9,406.1 C249.2,457.2 164.3,527.8 103.7,540.1 C79,545.1 36.7,535.1 16.2,519.3 C4.7,510.4 0.1,501.1 0,486.9 C0,472 2.1,469 28.5,447.8 C41.7,437.2 51.2,427.1 59.3,414.9 C86.2,374.4 99.5,310.4 97.7,229 C97.4,214.4 95.8,185.9 94,164 C92.3,142.6 90.8,117.8 90.7,109 L90.5,93 L93.8,87 C109.8,57.4 183.5,4.6 215.2,1.24023014e-12 C223.3,-1.2 232.6,2.9 287.1,31.3 C296.8,36.4 309.8,42.3 316.1,44.6 C359.5,60.1 476.2,86.8 538.5,95.5 C546.8,96.6 641.9,107.9 750,120.5 L946.5,143.4 L1069.5,154 L1192.5,164.6 L1277,167.5 C1346.6,169.9 1365.7,170.2 1385.5,169.5 C1398.7,169 1410.5,168.3 1411.8,167.9 C1413,167.6 1414.2,166.3 1414.5,165.1 C1414.7,164 1415.9,157.8 1417,151.5 C1423.9,113.4 1433.9,89 1449.2,72.9 C1461.7,59.8 1476.1,54.5 1496,55.9 C1514.4,57.1 1527.6,62.5 1539.3,73.4 C1550.8,84.2 1559.2,98.5 1569.3,124 C1577,143.6 1582.1,160 1614,269 C1629.5,321.8 1643.7,368.8 1645.7,373.5 C1650.7,385.9 1660.5,403.9 1672.7,423.7 C1693.9,457.8 1697.8,468.1 1696.8,486.6 C1696.1,498.3 1692.5,509.5 1683.1,529 C1655.3,586.8 1609.6,635.4 1569,650.4 C1550.1,657.3 1527.5,658.2 1506.5,652.9 C1482.9,646.9 1468,629.3 1474.9,615.7 C1476.1,613.4 1480,607 1483.7,601.4 C1503.8,570.7 1510,547.7 1510,504.6 C1510,453.5 1497.1,386 1475.8,325.2 C1471.6,313.2 1470.2,310.4 1468.6,310.1 C1467.4,309.9 1452.9,308.1 1436.3,306.1 C1410.1,303 1392.7,301.8 1304.3,297 C1205.2,291.6 1198.9,291.1 1067.2,279.5 C992.7,272.9 931.4,267.5 930.8,267.5 C929.1,267.5 931.2,325.9 934.5,371.5 C936.2,394.6 937.6,402.5 952.5,472.5 C964.5,528.7 970.1,557.8 972.1,573.6 C975.3,600 967.8,620.1 947.6,639.3 C937.4,649 926.9,656.6 893,679.1 C836.1,716.9 814.4,728 789.6,732 C780,733.6 761.7,733.8 753.8,732.5 L753.8,732.5 Z" id="Shape" sketch:type="MSShapeGroup"></path>
        </g>
    </g>
</svg>