<?xml version="1.0" encoding="UTF-8" standalone="no"?>
<svg width="2164px" height="2090px" viewBox="0 0 2164 2090" version="1.1" xmlns="http://www.w3.org/2000/svg" xmlns:xlink="http://www.w3.org/1999/xlink" xmlns:sketch="http://www.bohemiancoding.com/sketch/ns">
    <!-- Generator: Sketch 3.0.4 (8054) - http://www.bohemiancoding.com/sketch -->
    <title>Slice 2</title>
    <desc>Created with Sketch.</desc>
    <defs></defs>
    <g id="Page-1" stroke="none" stroke-width="1" fill="none" fill-rule="evenodd" sketch:type="MSPage">
        <g id="Group" sketch:type="MSLayerGroup" transform="translate(1081.800000, 1044.950000) scale(1, -1) translate(-1081.800000, -1044.950000) translate(0.200000, 0.200000)" fill="#000000">
            <path d="M916.5,2088.7 C892.6,2084.4 871.4,2070.7 863.9,2054.8 C855.8,2037.7 857.3,2035.3 905.8,1986.2 C928.5,1963.3 939.3,1951.5 941.5,1947.7 C957.6,1918.9 969.4,1854.2 975.2,1761.7 C979.4,1696.6 979.3,1709.7 979.3,1027.3 L979.3,371.4 L969.3,369.1 C963.8,367.8 880.6,356.4 784.3,343.7 C612.6,321.1 607,320.3 486.3,300.8 C418.7,289.8 352.5,279.2 339.3,277.2 C326.1,275.2 304.5,271.6 291.3,269.2 C278.1,266.8 267.1,265 266.9,265.2 C265.3,266.9 260.7,289.8 259.7,301.1 C258.4,316.3 259.1,374.2 263.3,580.7 C264.6,647 266,721.7 266.3,746.7 C266.6,771.7 267.3,797.6 267.9,804.2 C268.5,810.8 271.8,837.8 275.3,864.2 C284.9,936.3 285.2,939.1 285.1,954.7 C285.1,980 278,1001.6 262.2,1024.9 C233.3,1067.4 174.5,1110.5 116.8,1131.4 C92.7,1140.2 81.1,1140.7 58.1,1134.2 C46.4,1130.8 24.9,1120 16.8,1113.4 C1.5,1100.9 -2.9,1089.6 1.8,1074.6 C4.4,1065.9 7.8,1060.9 23.2,1042.8 C57.7,1002 65.7,989.5 74.9,961.5 C81.6,941 85.4,922.6 90.2,886.7 C97.2,835 104.3,751.9 107.8,680.8 C108.4,668.9 108.8,597 108.8,508.8 C108.8,333 109.2,343.4 98.4,268.2 C95.2,246.5 94.6,244.1 88.3,225.7 C68.4,168 63.8,152.4 63.8,142.7 C63.9,120 84.2,65.7 104,35.7 C112,23.6 127.2,8.1 134.8,4.4 C147.1,-1.6 160.3,-1.5 174.9,4.6 C189.6,10.8 194.5,14.4 245.8,56.6 C292.2,94.7 303.4,102.2 327.9,111.1 C363.9,124 444.5,146.1 516.3,162.6 C561.1,172.9 568.8,174.2 675.8,189.7 L780.3,204.8 L950.3,223.3 L1120.3,241.8 L1245.8,250.2 L1371.3,258.7 L1481.2,258.7 L1591.1,258.7 L1695.7,251.7 C1753.2,247.9 1802.7,244.2 1805.6,243.6 C1818.4,241 1820.5,236.4 1835.3,177.7 C1848,127.2 1853.3,112.3 1863.3,98.2 C1872,86 1883.3,79.8 1900.7,77.7 C1908,76.8 1911.3,76.9 1918.4,78.1 C1963.1,85.8 1991,141.1 2010.7,260.7 C2013,274.2 2026.2,372.1 2040.2,478.2 C2063.1,652.1 2067.3,681.6 2082.2,776.2 C2102.2,903.1 2103,907.5 2107.4,925.5 C2113.9,952.2 2119.1,964.2 2137.2,994.1 C2148.4,1012.6 2157,1029.4 2161,1040.7 C2162.9,1046.1 2163.2,1049.2 2163.2,1059.7 C2163.2,1071.4 2163,1072.8 2159.9,1081.2 C2149.9,1108.2 2128.4,1142 2097.4,1179.2 C2083.7,1195.5 2052.1,1227.1 2036.3,1240.1 C2010.8,1261.2 1982.1,1278.1 1961.3,1284.4 C1953.2,1286.8 1950.8,1287.1 1936.3,1287.1 C1921.9,1287.2 1919.3,1286.9 1910.3,1284.4 C1882.1,1276.7 1861.2,1260.3 1859.2,1244.4 C1858.8,1241 1859.3,1238.9 1862.1,1233.2 C1866.5,1224.1 1877.9,1207.2 1897.2,1181.2 C1905.8,1169.7 1914.5,1156.8 1916.7,1152.7 C1924.3,1138 1929.5,1120 1932.4,1097.2 C1934.5,1081.2 1934.7,1038.3 1932.9,1016.2 C1932.2,1008 1918.9,883.3 1903.3,739.2 L1874.9,477.2 L1865.7,437.6 L1856.5,398.1 L1730.9,396.9 C1616.9,395.7 1585.3,395 1389.4,389.2 C1161.4,382.3 1150.8,382.1 1147.7,383.7 C1146.7,384.3 1145,386.2 1144.1,388 C1140.5,394.4 1140.4,380.9 1149.4,1010.7 L1154.8,1393.2 L1161.8,1530.7 C1169.2,1678 1170.5,1699.7 1174.4,1737.7 C1177.9,1772.8 1178.7,1777.4 1188.9,1819.4 C1201.2,1870.6 1203.8,1883.4 1204.5,1895.8 C1205,1904.9 1204.8,1907.5 1203,1913.3 C1194.2,1942 1153.8,1983.6 1098.6,2020.8 C1050.3,2053.3 1000.3,2077.2 961,2086.3 C949.2,2089.1 925.4,2090.3 916.5,2088.7 L916.5,2088.7 Z" id="Shape" sketch:type="MSShapeGroup"></path>
        </g>
    </g>
</svg>