<?xml version="1.0" encoding="UTF-8" standalone="no"?>
<svg width="2276px" height="2285px" viewBox="0 0 2276 2285" version="1.1" xmlns="http://www.w3.org/2000/svg" xmlns:xlink="http://www.w3.org/1999/xlink" xmlns:sketch="http://www.bohemiancoding.com/sketch/ns">
    <!-- Generator: Sketch 3.0.4 (8054) - http://www.bohemiancoding.com/sketch -->
    <title>Slice 2</title>
    <desc>Created with Sketch.</desc>
    <defs></defs>
    <g id="Page-1" stroke="none" stroke-width="1" fill="none" fill-rule="evenodd" sketch:type="MSPage">
        <g id="Group" sketch:type="MSLayerGroup" transform="translate(1138.000000, 1142.300000) scale(1, -1) translate(-1138.000000, -1142.300000) translate(0.000000, 0.300000)" fill="#000000">
            <path d="M1217.5,2283.2 C1184.6,2278.8 1167.8,2259.9 1162.9,2221.8 L1161.9,2213.8 L1165.8,2210.3 C1167.9,2208.4 1184.2,2193.8 1202.1,2177.8 C1243.1,2141.1 1250.7,2133.8 1254.9,2126.8 C1268.9,2103.7 1281.4,2039.6 1281.4,1991.3 C1281.4,1971.7 1281.2,1968.7 1278.7,1957.3 C1277.3,1950.4 1275.6,1943.2 1275,1941.2 L1274,1937.7 L1247.3,1933.5 C1225.2,1930 868.4,1886.1 806.5,1879.2 C783.4,1876.6 742.1,1875.7 719.3,1877.2 C691.5,1879 672.3,1882.9 640.5,1893.3 C607.7,1904.1 569.9,1913.1 542,1917 C525,1919.3 489.3,1919.3 475.9,1917 C445.8,1911.8 431.7,1900.4 431.6,1881.2 C431.5,1874.4 431.8,1873.2 435,1867.9 C438.7,1861.7 455.2,1844.5 486.1,1814.7 C505.6,1795.9 513.3,1787 523.6,1771.3 C546.9,1735.8 559,1695.3 565.1,1632.3 C566.8,1614.5 567.4,1516.9 566.1,1459.5 C563.7,1353.4 559.4,1274 552,1199.8 C545.8,1138.4 536.4,1081.7 531.4,1076.1 C528.7,1073.1 502.8,1053.2 444,1008.8 C415.7,987.5 389.4,967.4 385.5,964.3 C381.6,961.1 347.4,940.2 307.5,916.6 C224.4,867.4 218.6,864.1 197.5,853.5 C170.6,840.1 155.8,835.3 140.8,835.3 C126.1,835.3 120.2,838.4 83.1,866.2 C71.9,874.7 61.1,882.3 59.1,883.1 C56.4,884.3 52.3,884.8 43.5,884.8 C32,884.8 31.2,884.7 24.9,881.6 C8.7,873.7 0,855.9 0,831 C0,825.8 0.7,817.9 1.5,813.5 C4.8,796 15.8,768.4 29.2,743.8 C65.2,677.7 113.8,625.3 148.9,614.9 C156.8,612.6 169.6,612.8 177.3,615.4 C192.5,620.5 198.8,625.6 225.4,654.2 C267.8,700.1 280,712 326,752.5 C343.3,767.7 392.4,812.1 435,851.2 C477.6,890.2 512.6,921.8 512.8,921.3 C513.7,918.8 501.4,857 490.9,811.3 C437.5,579.2 354.2,341.5 274.3,193.8 C259.7,166.9 252.3,154.9 225,113.8 C181.7,48.5 168.9,26.2 168.2,14.8 C167.9,9.7 168.2,8.4 170.1,5.9 C178.7,-5 196.9,-1.68809411e-12 230.5,22.5 C280.4,55.9 329,105.6 376,171.3 C468.6,300.9 562.1,497.1 608.5,659.1 C665.5,858.5 707.7,1157.4 729.2,1514.8 C730.7,1540 730.8,1589.8 729.6,1671.4 L728.7,1731.9 L746.1,1735.1 C858.2,1755.6 1118.7,1789.5 1506,1833.9 L1728.5,1859.4 L1835,1864.8 L1941.5,1870.2 L2063,1867.8 C2210.9,1864.8 2225.1,1864.8 2233.4,1866.9 C2253.7,1872.1 2269.3,1888.2 2274.6,1909.3 C2277.2,1919.5 2276.2,1935.6 2272.3,1945.4 C2268.1,1956 2263,1963.5 2252.9,1973.5 C2225.3,2000.8 2168.3,2024.5 2101.5,2036.3 C2076.9,2040.7 2069.4,2039.8 1959.5,2019.3 C1930.4,2013.9 1898.6,2008.3 1889,2006.8 C1879.4,2005.4 1777.7,1993.7 1663,1980.8 C1548.3,1967.9 1453,1957 1451.1,1956.7 L1447.7,1956.2 L1448.3,1969.5 C1449.3,1990.9 1454.4,2026.9 1462.5,2069.5 C1465,2082.7 1468.1,2094.8 1473,2110 C1483.7,2143.2 1485.3,2150.6 1484.8,2162.7 C1484,2179.3 1478.1,2191.2 1463,2206.4 C1445.1,2224.4 1418.5,2239.3 1380.2,2252.9 C1327.9,2271.5 1245,2286.9 1217.5,2283.2 L1217.5,2283.2 Z" id="Shape" sketch:type="MSShapeGroup"></path>
            <path d="M71.5,1557.9 C63.3,1554.8 59.6,1547.2 61.9,1538.3 C63.5,1532.2 69.3,1521 74.1,1514.6 C76.2,1511.8 89.4,1497.8 103.3,1483.6 C180.1,1405.4 202.4,1379.8 225.3,1343.5 C232.3,1332.5 248.2,1301 270.5,1254.3 C309.1,1173.3 326.3,1150.3 353.7,1142.7 C362.2,1140.4 383.8,1139.7 392.5,1141.6 C421.2,1147.7 440.2,1171.5 448.2,1211.5 C451.4,1227.8 451.4,1257.2 448.1,1275.8 C436,1344.4 389.1,1407.2 309,1462.5 C252.8,1501.3 172.6,1538.3 110,1554.5 C91.9,1559.1 78.2,1560.3 71.5,1557.9 L71.5,1557.9 Z" id="Shape" sketch:type="MSShapeGroup"></path>
        </g>
    </g>
</svg>