<?xml version="1.0" encoding="UTF-8" standalone="no"?>
<svg width="1958px" height="751px" viewBox="0 0 1958 751" version="1.1" xmlns="http://www.w3.org/2000/svg" xmlns:xlink="http://www.w3.org/1999/xlink" xmlns:sketch="http://www.bohemiancoding.com/sketch/ns">
    <!-- Generator: Sketch 3.0.4 (8054) - http://www.bohemiancoding.com/sketch -->
    <title>Slice 2</title>
    <desc>Created with Sketch.</desc>
    <defs></defs>
    <g id="Page-1" stroke="none" stroke-width="1" fill="none" fill-rule="evenodd" sketch:type="MSPage">
        <g id="Group" sketch:type="MSLayerGroup" transform="translate(978.800000, 375.300000) scale(1, -1) translate(-978.800000, -375.300000) translate(0.300000, 0.300000)" fill="#000000">
            <path d="M1747.2,749.6 C1740.4,748.8 1720.8,744.6 1678.2,734.8 C1630.1,723.7 1615,720.7 1588.2,716.8 C1548.4,711.1 1503.8,707.1 1421.7,701.8 C1256.2,691.2 1210.2,687.2 958.2,662.3 C770.8,643.7 797.5,646.6 626.7,626.4 C536.7,615.7 480.3,609.5 417.7,603.6 C391.2,601.1 322.7,601.1 297.2,603.7 C247.1,608.7 221.3,615.3 153.7,640.5 C103.4,659.3 88.9,663.2 67.2,664 C55.4,664.4 50.7,664.2 45.2,662.9 C24.5,658 7.8,643.2 1.8,624.5 C-1.5,614.4 -1,600.2 2.9,592.2 C6.1,585.8 14.5,576.2 23.2,569.1 C26.5,566.3 36.2,557.6 44.8,549.7 C71.2,525.2 89.8,502.8 98.8,484.6 C115.7,450.3 137,359.2 153.7,250.3 C154.8,242.9 160.2,199.9 165.7,154.8 C171.4,107.2 176.2,70.7 177.2,67.8 C182.1,53.2 197.9,33.2 213.7,21.6 C236.2,5.2 263.3,-2.8 286.2,0.1 C306.6,2.8 317.1,11.6 346.4,50.8 L359.9,68.8 L376.6,72 C385.7,73.8 445.2,83.5 508.7,93.7 L624.2,112.3 L758.2,125.8 C831.9,133.2 991.7,149.2 1113.2,161.3 L1334.2,183.4 L1466.7,187.4 C1539.6,189.6 1602.4,191.2 1606.4,190.9 C1614.6,190.4 1621,187.9 1627.6,182.6 C1630.1,180.6 1640.8,170.3 1651.2,159.8 C1667.7,143.2 1671.1,140.2 1677.2,137.2 C1684.2,133.9 1684.3,133.8 1700.7,133.5 C1719.4,133.1 1726.6,134.2 1737.3,139.4 C1770.4,155.1 1802.5,208.3 1844.3,316.4 C1852.3,337.1 1855.7,347.9 1876.7,418.8 C1888.8,459.3 1896.9,482.9 1902.1,492.8 C1904.4,497.2 1912.2,510 1919.3,521.3 C1941.8,556.6 1951.7,574.3 1955.2,585.2 C1958.4,595 1955.4,610.6 1948,623.2 C1942.6,632.4 1930.2,645.1 1916.8,655.2 C1897.9,669.4 1812.7,721.1 1782.2,736.9 C1760.2,748.3 1754.3,750.4 1747.2,749.6 L1747.2,749.6 Z M1646.7,582.2 C1696.1,579 1723.8,568.8 1733.1,550.5 C1738.7,539.5 1737.7,531.9 1725.6,489.9 C1712.1,443.2 1708.8,430.5 1703.2,403.8 C1695.4,366.8 1689.5,343.8 1685.4,335.1 C1681.4,326.5 1675.7,320.8 1670,319.7 C1666.6,319 1635.1,320.1 1592.7,322.2 C1559.1,323.9 1514,321.5 1399.7,311.8 C1335.1,306.3 1314.3,304.7 1291.2,303.3 C1281.3,302.8 1269.3,302.1 1264.5,301.8 L1255.8,301.2 L1257.7,308 C1258.8,311.7 1275.6,363.4 1295.1,422.8 L1330.5,530.8 L1326.5,550.1 C1324.3,560.7 1322.7,569.6 1322.9,569.8 C1323.1,570 1332.7,570.7 1344.2,571.3 C1355.8,571.9 1399.4,574.4 1441.2,576.8 C1508.6,580.7 1545.5,582.7 1569.7,583.7 C1582.6,584.2 1630.5,583.3 1646.7,582.2 L1646.7,582.2 Z M1135.1,554.8 C1138.8,553.4 1142.5,552.3 1143.5,552.3 C1150.8,552.3 1157.5,512.7 1154.8,485.7 C1146.4,403.1 1131.2,322.2 1119.7,299.3 C1114.3,288.6 1130.6,291.5 968.1,272.3 C889,263 823,255.1 821.5,254.9 C818.9,254.4 818.9,254.5 818.2,261.6 C817.9,265.6 815.5,285.2 813,305.3 C808,345.8 808,346.4 806.1,472.5 L805.4,522.2 L807.8,522.7 C809.1,523 873.4,529.5 950.7,537.3 C1036,545.8 1096.5,552.3 1104.7,553.8 C1127.8,558 1126.8,557.9 1135.1,554.8 L1135.1,554.8 Z M624.5,496.1 C636,490.3 647.5,470.3 652.1,448 C653.6,440.9 672.7,259.8 672.7,252.9 C672.7,251.2 672.1,248.9 671.5,248 C670.5,246.8 660.6,244.8 631.8,239.8 C600.6,234.4 569.4,230.2 463.6,217.3 C392.2,208.5 333,201.3 332,201.3 C330.9,201.3 328.5,203.5 326.4,206.3 L322.6,211.4 L302.7,332.1 C291.8,398.5 283.1,453 283.3,453.2 C283.5,453.4 327.8,459.6 381.6,466.9 C435.5,474.1 480.8,480.4 482.4,480.7 C483.9,481 494.7,482 506.3,482.8 C531,484.5 541.1,485.9 572.7,491.8 C585.6,494.2 598.5,496.7 601.2,497.2 C610.8,498.9 619.6,498.5 624.5,496.1 L624.5,496.1 Z" id="Shape" sketch:type="MSShapeGroup"></path>
        </g>
    </g>
</svg>