<?xml version="1.0" encoding="UTF-8" standalone="no"?>
<svg width="1882px" height="2327px" viewBox="0 0 1882 2327" version="1.1" xmlns="http://www.w3.org/2000/svg" xmlns:xlink="http://www.w3.org/1999/xlink" xmlns:sketch="http://www.bohemiancoding.com/sketch/ns">
    <!-- Generator: Sketch 3.0.4 (8054) - http://www.bohemiancoding.com/sketch -->
    <title>Slice 2</title>
    <desc>Created with Sketch.</desc>
    <defs></defs>
    <g id="Page-1" stroke="none" stroke-width="1" fill="none" fill-rule="evenodd" sketch:type="MSPage">
        <g id="Group" sketch:type="MSLayerGroup" transform="translate(940.800000, 1163.500000) scale(1, -1) translate(-940.800000, -1163.500000) translate(0.100000, 0.700000)" fill="#000000">
            <path d="M1578.9,2325.2 C1571.8,2324.2 1561.4,2320.5 1533.3,2308.9 C1511.2,2299.8 1495.5,2294.3 1481.9,2290.8 C1459.2,2284.9 1467.4,2285.6 997.9,2249.2 L544.4,2214 L509.9,2213.9 C474.4,2213.8 467.8,2214.3 447.9,2218.4 C414.6,2225.2 379.7,2241.3 337.4,2269.3 C296.4,2296.4 285.1,2302.2 273.9,2302.3 C259.4,2302.3 246,2291 241.3,2274.8 C239.2,2267.4 239.9,2251.3 242.8,2238.3 C249,2211.1 264.5,2181.3 287.8,2152.3 C299.1,2138.2 326.5,2111 342,2098.7 C366.5,2079 393.4,2062.7 413.5,2055.3 C420.6,2052.7 424.4,2052 432.4,2051.6 C443.4,2051 451.3,2052 488.9,2058.4 C509.7,2062 554.2,2066.4 880.9,2097.9 L1249.4,2133.4 L1367.4,2139.9 C1493.5,2146.8 1503.9,2147.2 1510.9,2145.3 C1517.2,2143.6 1523.2,2137.4 1525.3,2130.4 C1529.1,2117.4 1526,2088.1 1518.1,2062.3 C1514.3,2049.8 1434.8,1822 1433.9,1821 C1433.2,1820.2 1361.9,1811.7 1331.4,1808.8 C1322.1,1808 1248.9,1803 1168.9,1797.8 C1056.9,1790.5 982.3,1785 844.9,1773.9 C632,1756.6 642.4,1757.4 607.4,1756.6 C558.8,1755.6 517.6,1759 483.8,1766.9 L473.2,1769.4 L457.3,1782.5 C420.2,1812.9 397.3,1827.2 375.4,1833.5 C363.2,1836.9 346.4,1836.7 335,1832.9 C328,1830.6 294.5,1816.2 293.3,1815 C293.1,1814.8 297.3,1807.5 302.5,1798.7 C319.3,1771 325,1756.9 327.1,1738.2 C328.5,1725.2 327.4,1713.9 322.9,1696.3 C310.6,1647.9 272.9,1566.4 220.1,1473.8 C166.8,1380.3 106.8,1291 71.3,1252.1 C63.2,1243.3 60.8,1241.1 35.4,1220.1 C17.4,1205.1 6.2,1193.6 3,1186.8 C-2,1176.1 -0.6,1158.4 6.7,1141.4 C18.3,1114.5 47.6,1082.4 87.9,1052.2 C114.4,1032.3 144.1,1015.3 152.1,1015.3 C158.2,1015.3 169.2,1020.2 195.1,1034.1 C220.1,1047.6 240.5,1057.3 257.2,1063.7 C306.8,1082.9 394.6,1100.4 508.4,1113.7 C524.9,1115.7 668.2,1131.4 826.9,1148.8 L1115.4,1180.3 L1343.8,1196.2 L1572.3,1212 L1589.3,1208.1 L1606.4,1204.2 L1612.3,1198 C1624.8,1184.9 1628.6,1176.3 1627.6,1163.5 C1626.1,1143.5 1607.2,1070.6 1585.5,1000.7 C1576.4,971.4 1576,970.3 1521.9,825.8 L1473.7,696.8 L1425.2,595.8 C1398.5,540.3 1374.3,489.9 1371.4,483.8 C1361.5,463.6 1326.5,406.6 1295.1,359.8 C1277.9,334.1 1271.8,325.8 1258.2,309.6 C1216.2,259.5 1180.1,241.4 1122.4,241.3 C1112.7,241.3 1100.1,242 1093.4,242.8 C1069.1,246 1027.1,255.5 995.4,265.1 C982.7,268.9 757.6,339 723.1,349.9 C703.6,356 698.7,356.5 691.9,353.1 C686.5,350.4 683.3,345.1 682.3,337.7 C681.4,329.8 682.5,326.5 688.3,320.8 C691.2,318.1 741.6,280 800.4,236.3 C859.2,192.6 910.2,154.2 913.6,151 C932.4,133.4 943.6,110.1 958,58.8 C964.4,36.1 969.2,25.7 976.9,18.3 C987.7,7.7 1004.8,1.6 1027.6,0.4 C1125.3,-4.7 1248.1,46.2 1339.9,129.8 C1381,167.3 1427.7,233 1480.1,327.3 C1510.2,381.5 1522.3,405.7 1590.8,549.5 L1644.9,663.2 L1668,725 C1680.7,759 1715.3,851.7 1744.9,930.9 C1774.5,1010.2 1800,1077.5 1801.5,1080.4 C1808.3,1093.9 1814.1,1100.7 1844.3,1130.8 C1865.8,1152.2 1875.4,1162.5 1877.9,1166.8 C1881.3,1172.6 1881.4,1172.9 1881.4,1183.8 C1881.4,1192.7 1880.9,1196.1 1879.1,1201.3 C1869.4,1228.7 1839.7,1260.4 1782.4,1304.3 C1740.9,1336 1700.1,1364.5 1677.8,1377.3 C1652.1,1392 1644.5,1393.6 1624.4,1388.3 C1617.8,1386.6 1597.1,1380.5 1578.3,1374.8 C1559.5,1369 1539.3,1363.2 1533.3,1361.9 C1509.1,1356.4 1480.7,1352.4 1434.4,1347.8 C1420.1,1346.4 1244.4,1327.9 1043.9,1306.8 L679.4,1268.4 L472.1,1250.2 C358.1,1240.2 264.6,1232.3 264.3,1232.6 C264,1232.9 315.4,1319.3 378.7,1424.5 L493.7,1615.8 L501.6,1616.1 C505.9,1616.2 519.1,1617.2 530.9,1618.3 C542.7,1619.4 624.6,1626.6 712.9,1634.3 L873.4,1648.3 L1074.9,1660.2 C1300.3,1673.6 1341.9,1675.3 1447.6,1675.3 C1508,1675.3 1511.6,1675.5 1525.1,1680.6 C1549,1689.7 1563.9,1709.8 1587.4,1764.8 C1591.7,1774.7 1619,1842.6 1648.1,1915.7 C1677.2,1988.8 1703,2052.5 1705.4,2057.2 C1715.5,2077.5 1728.2,2090.3 1751.8,2104.5 C1771.3,2116.2 1791.9,2134.6 1797,2144.8 C1799.1,2149.2 1799.4,2151.1 1799.4,2160.3 C1799.3,2168.7 1798.9,2171.9 1797.1,2176.4 C1785.4,2205.8 1741.1,2248.5 1686.2,2283.1 C1638.4,2313.3 1600.1,2328.3 1578.9,2325.2 L1578.9,2325.2 Z" id="Shape" sketch:type="MSShapeGroup"></path>
        </g>
    </g>
</svg>