<?xml version="1.0" encoding="UTF-8" standalone="no"?>
<svg width="978px" height="2230px" viewBox="0 0 978 2230" version="1.1" xmlns="http://www.w3.org/2000/svg" xmlns:xlink="http://www.w3.org/1999/xlink" xmlns:sketch="http://www.bohemiancoding.com/sketch/ns">
    <!-- Generator: Sketch 3.0.4 (8054) - http://www.bohemiancoding.com/sketch -->
    <title>Slice 2</title>
    <desc>Created with Sketch.</desc>
    <defs></defs>
    <g id="Page-1" stroke="none" stroke-width="1" fill="none" fill-rule="evenodd" sketch:type="MSPage">
        <g id="Group" sketch:type="MSLayerGroup" transform="translate(489.000000, 1114.600000) scale(1, -1) translate(-489.000000, -1114.600000) translate(0.000000, 0.100000)" fill="#000000">
            <path d="M779.5,2228.1 C771.5,2226.4 757.7,2220.9 748.1,2215.6 C742.6,2212.7 725.4,2203.7 709.9,2195.7 L681.5,2181.2 L645.5,2171.6 C523.7,2139 451.3,2123.9 384,2117 C367,2115.3 311.3,2114.7 292.8,2116 C264.2,2118.1 234.1,2122.5 221,2126.5 C218.5,2127.3 204.8,2133.1 190.5,2139.4 C158.9,2153.4 146.5,2158.4 135.2,2161.7 C126.9,2164.1 104.1,2168.6 103.5,2167.9 C102.5,2166.8 94.9,2141.3 93.9,2135.7 C92,2124.8 93.2,2107.4 96.5,2097.1 C102.7,2077.8 114.6,2058.9 134.2,2037.4 C167.7,2000.5 221.8,1963.9 258.3,1953.4 C276.8,1948.1 291.7,1951.3 374.5,1978.1 C393.3,1984.2 741.9,2075.1 746.3,2075.1 C750.5,2075 756.8,2071.3 759.4,2067.4 C763.4,2061.3 764.3,2055.2 763,2043.1 C757.5,1990.9 718.5,1856.8 687.3,1782.6 C679.8,1764.9 669.7,1743.8 667.9,1742.5 C666.1,1741 322.6,1671.4 310.2,1670 C303.4,1669.2 298.5,1669.2 292.1,1670 C277.5,1671.8 271.9,1674.1 238.5,1691.6 C207.7,1707.8 166.9,1722.3 140,1726.6 C129.1,1728.3 112.7,1728.6 105,1727.1 C86.7,1723.6 76.3,1712.1 77.2,1696.4 C77.7,1686.5 80.5,1681.8 93.9,1667.7 C108.4,1652.6 116.2,1643 125.6,1629 C139.2,1608.6 149.1,1585.1 152.4,1565.2 C156.4,1541.5 152.5,1509.2 139.3,1457.1 C135.8,1443.1 130,1420.1 126.5,1406.1 C100.9,1304.4 84.4,1265.6 31.3,1181.6 C9.5,1147.1 3.4,1134.7 1.1,1120.1 C-0.5,1110.2 -0.3,1078.6 1.6,1066.4 C5.5,1039.8 16,1017.1 30.2,1004.6 C41.3,994.9 57.3,989.7 68.7,992 C82,994.6 111.6,1008.9 163.7,1037.9 C193.7,1054.6 197.9,1056.6 226.2,1067.9 C351.9,1117.9 507.9,1161.3 562,1161.2 C585,1161.2 594.6,1156.4 595.7,1144.4 C596.4,1137.1 592.7,1114.6 570.9,995.3 L551,886 L520,759.3 C503,689.6 485.9,622.3 482.2,609.6 C475.7,588.1 406.1,392.4 396.5,369 C382.9,335.7 363.9,304.8 347.2,288.9 C333.3,275.6 324.6,273.5 304.8,278.5 C274.6,286.2 222.1,315.3 176,350 C92.2,413.2 73.8,426.6 64.3,431.5 L61,433.1 L56.5,426.1 L52,419.2 L54.1,414.4 C55.3,411.7 59.8,401.1 64.1,390.8 C72.1,371.9 78.3,358.8 82.5,352.2 C85.3,347.6 141.7,244.3 158.5,212.6 C176.3,179.2 196.7,138.3 203.8,121.5 C207.1,113.8 212.8,99.2 216.5,89 C233,43 240.3,28.4 253.3,15.8 C263,6.4 278.6,0.2 292.5,0.1 C308.9,0.1 329,7 348.1,19.2 C396.9,50.5 460,127.6 504.7,210.6 C516,231.4 519.8,240.5 559.4,341.3 L597.1,437 L613.1,491.8 C627.4,540.5 635,570 681.6,756.8 C710.4,872.4 735.3,974.5 737,983.8 C738.7,993 740.8,1004.3 741.6,1008.8 C743.4,1019.1 749.1,1038.3 753.3,1048.1 C758.1,1059.1 762.4,1065 779.6,1084.3 C804.9,1112.4 815.7,1125.8 819.7,1133.7 C823.2,1141 823.3,1141.1 822.8,1151.3 C822.4,1159.9 821.7,1163.1 818.8,1170.8 C811.8,1189.3 798.2,1207.9 775.9,1229.6 C736.1,1268.3 674.4,1307.9 631.5,1322.3 C620.9,1325.9 609.9,1326.4 600.4,1323.6 C594.4,1321.9 577.3,1313.6 566,1307.1 C555.7,1301.1 524.9,1286.9 509,1280.8 C501,1277.8 479.9,1271.1 462,1266.1 C444.1,1261 393.4,1246.6 349.3,1234 C305.3,1221.4 263.2,1209.8 255.8,1208.2 C234.4,1203.4 214,1200.8 214,1202.9 C214,1206.6 225.2,1247 238.7,1291.6 C242.8,1305.4 258.3,1358.6 273.1,1409.9 C298.5,1498.4 300,1504.1 302.5,1521.4 C304,1531.4 305.6,1541.6 306.1,1544.1 L307.1,1548.7 L318.3,1552.8 C327.5,1556.2 349.2,1561.1 437.9,1580.1 C497.6,1592.8 552.2,1604 559.4,1605.1 C566.6,1606.1 584.2,1608.1 598.5,1609.5 C612.8,1610.9 626.3,1612.3 628.5,1612.5 C630.7,1612.8 641.7,1612.3 653,1611.5 C719.2,1606.9 717.9,1606.9 727.3,1608.1 C753,1611.2 769.7,1621.9 781.9,1643 C800.1,1674.4 819.7,1711.1 833,1738.6 C848.8,1771 852.1,1778.2 901.7,1889.6 C926.7,1945.7 948.3,1993.6 949.6,1996.1 C950.9,1998.6 956.8,2006.9 962.5,2014.6 C974.2,2030.2 976.7,2036 977.7,2049.1 C978.6,2061.6 973.5,2074.7 959.9,2094.6 C923.5,2148.1 852.4,2209.8 809,2225.6 C800.8,2228.6 787,2229.8 779.5,2228.1 L779.5,2228.1 Z" id="Shape" sketch:type="MSShapeGroup"></path>
        </g>
    </g>
</svg>