<?xml version="1.0" encoding="UTF-8" standalone="no"?>
<svg width="2107px" height="2125px" viewBox="0 0 2107 2125" version="1.1" xmlns="http://www.w3.org/2000/svg" xmlns:xlink="http://www.w3.org/1999/xlink" xmlns:sketch="http://www.bohemiancoding.com/sketch/ns">
    <!-- Generator: Sketch 3.0.4 (8054) - http://www.bohemiancoding.com/sketch -->
    <title>Slice 2</title>
    <desc>Created with Sketch.</desc>
    <defs></defs>
    <g id="Page-1" stroke="none" stroke-width="1" fill="none" fill-rule="evenodd" sketch:type="MSPage">
        <g id="Group" sketch:type="MSLayerGroup" transform="translate(1053.900000, 1062.250000) scale(1, -1) translate(-1053.900000, -1062.250000) translate(0.900000, 0.100000)" fill="#000000">
            <path d="M1000.1,2122.8 C989.1,2120.5 978.3,2114.5 970.9,2106.5 C961.7,2096.8 957.9,2088.7 957.3,2077.9 C956.9,2070.2 957.1,2069 959.8,2063.2 C961.5,2059.7 966.7,2051.1 971.4,2044 C980.8,2030 984.9,2021.1 988.3,2007.7 C991.5,1995.1 991.5,1967.9 988.3,1951.9 C979.8,1909.4 960.8,1868.7 923,1812.2 C891.4,1764.8 847.1,1708 803.5,1658.9 C783.8,1636.6 720.4,1572.9 697.9,1552.7 C602.2,1466.9 502.7,1394.9 370.1,1315.7 C328.6,1290.9 254.7,1249 212.8,1226.4 C203.3,1221.3 202.8,1220.9 197.4,1212.8 L191.8,1204.5 L194.9,1199.7 C198.8,1193.7 204.7,1187.8 208.4,1186.5 C210,1185.9 216.6,1185.4 223.1,1185.4 C260.4,1185.4 339.4,1208.3 421.6,1242.9 C589.1,1313.3 759.6,1422 910.6,1554.4 C945,1584.6 969.4,1607.5 1007.1,1645.3 C1064.3,1702.6 1111.2,1755 1159.5,1815.7 C1165.5,1823.2 1170.9,1829.4 1171.4,1829.4 C1171.9,1829.4 1175.5,1828.3 1179.3,1826.9 C1200.2,1819.4 1216.5,1817 1242,1817.7 C1275.2,1818.6 1309.5,1823.3 1509.1,1853.8 C1694.7,1882.2 1756.9,1889.2 1777.1,1883.9 C1789.2,1880.8 1796.1,1874.9 1796.1,1867.7 C1796.1,1866 1794.8,1860.8 1793.2,1856.2 C1783.2,1827.1 1760.2,1783.3 1691.6,1662.9 L1631.8,1557.9 L1562.2,1449.4 L1492.5,1340.9 L1393.7,1208.9 C1339.4,1136.3 1294.6,1076.5 1294.1,1076.1 C1293.7,1075.7 1291.5,1082.9 1289.2,1092.3 C1269.7,1172.3 1239.7,1215.8 1169.6,1265.4 C1148.5,1280.3 1124.8,1296 1109.7,1304.9 C1029.8,1352 954.2,1381 894.4,1387.4 C879.9,1389 844.2,1388.1 835.1,1386 C815.3,1381.4 808.1,1375.5 808.1,1363.8 C808.1,1353.2 811.1,1350.6 844.6,1332.2 C907.6,1297.5 954.8,1262.1 1001.6,1214.3 C1050.4,1164.4 1086,1114.6 1136.6,1025.2 C1147.3,1006.2 1151.6,999.8 1162.9,985.7 C1178.5,966.1 1189.8,949.5 1190.7,944.9 C1191,943.1 1191,940.6 1190.6,939.3 C1190.2,938.1 1184.4,931.4 1177.7,924.5 C1160,906 1143.5,887.1 1062.6,791.9 C1007.9,727.5 895.7,621 792.1,534.9 C605.8,380.2 402.9,246.8 86.1,70.6 C53.9,52.7 25.1,36.4 22,34.3 C13.4,28.5 5.8,21.1 2.7,15.5 L0,10.4 L6.8,7.3 C22.3,0.4 24.3,-0.1 40.6,1.49782443e-12 C62.3,0.1 84.5,3.8 130.1,15 C152.2,20.5 154.2,21.2 248.9,58 L345.3,95.5 L447.9,148.1 C585.5,218.6 585.4,218.5 734.5,316.8 L851.6,394 L943.5,469.8 L1035.3,545.7 L1128.8,637.8 L1222.3,729.9 L1310.1,828.4 L1397.9,926.9 L1471.1,1018.7 L1544.3,1110.6 L1637.6,1245.4 L1730.8,1380.2 L1840.2,1559.1 C1956.9,1749.8 1950.9,1740.6 1977.5,1770.4 C2002.8,1798.8 2024.9,1819.7 2054.4,1843.3 C2099.5,1879.4 2105,1886.1 2105.9,1905.7 C2106.8,1925.8 2102.4,1936.3 2086.2,1952.5 C2066.9,1971.8 2043.1,1986 1958.5,2028.2 C1906.3,2054.3 1875.2,2068.3 1861.5,2071.9 C1849.9,2074.9 1833.7,2069.6 1766.6,2041.1 C1751.8,2034.8 1736.2,2028.4 1732.1,2026.9 C1692.8,2012.7 1432.4,1972.8 1321.2,1963.9 C1296.4,1962 1262.8,1961.9 1249.8,1963.9 C1232.3,1966.5 1218.6,1972.3 1204.6,1982.9 C1194,1990.9 1186.6,1998.4 1159.3,2028.4 C1103.7,2089.7 1080.7,2109.1 1051.6,2119.1 C1037.1,2124.1 1013.7,2125.8 1000.1,2122.8 L1000.1,2122.8 Z" id="Shape" sketch:type="MSShapeGroup"></path>
        </g>
    </g>
</svg>