<?xml version="1.0" encoding="UTF-8" standalone="no"?>
<svg width="16px" height="16px" viewBox="0 0 16 16" version="1.1" xmlns="http://www.w3.org/2000/svg" xmlns:xlink="http://www.w3.org/1999/xlink" xmlns:sketch="http://www.bohemiancoding.com/sketch/ns">
    <title>kigamae</title>
    <description>Created with Sketch (http://www.bohemiancoding.com/sketch)</description>
    <defs></defs>
    <g id="Page 1" stroke="none" stroke-width="1" fill="none" fill-rule="evenodd">
        <g id="kigamae" transform="translate(8.000000, 8.000000) scale(1, -1) translate(-8.000000, -8.000000) " fill="#383838">
            <path d="M0,8 L0,0 L8,0 L16,0 L16,8 L16,16 L8,16 L0,16 L0,8 L0,8 Z M6.4,6.4 L6.4,1.6 L4,1.6 L1.6,1.6 L1.6,6.4 L1.6,11.2 L4,11.2 L6.4,11.2 L6.4,6.4 L6.4,6.4 Z M9.6,4.8 L9.6,14.4 L14.4,14.4 L14.4,4.8 L9.6,4.8 Z M9.6,4.8" id="Shape"></path>
        </g>
    </g>
</svg>